<?xml version="1.0" encoding="utf-8"?>
<!-- Generator: Adobe Illustrator 16.0.0, SVG Export Plug-In . SVG Version: 6.00 Build 0)  -->
<!DOCTYPE svg PUBLIC "-//W3C//DTD SVG 1.1//EN" "http://www.w3.org/Graphics/SVG/1.1/DTD/svg11.dtd">
<svg version="1.1" id="Layer_1" xmlns="http://www.w3.org/2000/svg" xmlns:xlink="http://www.w3.org/1999/xlink" x="0px" y="0px"
	 width="381.637px" height="366.636px" viewBox="0 0 381.637 366.636" enable-background="new 0 0 381.637 366.636"
	 xml:space="preserve">
<g>
	<rect x="50.123" y="41.641" fill="#E2BCD8" width="276.991" height="276.989"/>
	<g>
		<path fill="#FFFFFF" d="M178.374,175.312c0-22.662,11.842-41.109,26.389-41.109c14.551,0,26.395,18.447,26.395,41.109
			c0,22.68-11.844,41.114-26.395,41.114C190.216,216.427,178.374,197.992,178.374,175.312 M182.095,175.312
			c0,20.635,10.168,37.4,22.668,37.4c12.503,0,22.662-16.766,22.662-37.4c0-20.617-10.159-37.383-22.662-37.383
			C192.263,137.93,182.095,154.695,182.095,175.312"/>
		<path fill="#FFFFFF" d="M196.762,175.312c0-6.541,3.523-11.668,8.001-11.668c4.484,0,8.002,5.127,8.002,11.668
			c0,6.552-3.518,11.68-8.002,11.68C200.285,186.992,196.762,181.864,196.762,175.312 M200.487,175.312
			c0,4.68,2.254,7.95,4.275,7.95c2.016,0,4.271-3.271,4.271-7.95c0-4.687-2.256-7.951-4.271-7.951
			C202.741,167.361,200.487,170.626,200.487,175.312"/>
		<polygon fill="#FFFFFF" points="197.065,214.675 198.518,211.252 134.124,183.91 134.124,166.738 200.268,138.678 
			198.812,135.253 130.397,164.276 130.397,186.366 		"/>
		<polygon fill="#FFFFFF" points="239.552,165.713 249.181,163.847 248.483,160.192 238.849,162.076 		"/>
		<rect x="239.108" y="173.461" fill="#FFFFFF" width="17.546" height="3.721"/>
		<polygon fill="#FFFFFF" points="250.269,205.893 251.774,202.481 237.853,196.358 236.356,199.763 		"/>
		<polygon fill="#FFFFFF" points="248.483,190.438 249.181,186.795 239.552,184.917 238.849,188.572 		"/>
		<rect x="180.229" y="163.645" fill="#FFFFFF" width="24.534" height="3.714"/>
		<rect x="180.229" y="183.257" fill="#FFFFFF" width="24.534" height="3.735"/>
		<path fill="#FFFFFF" d="M141.689,217.745c-0.019-0.048-0.045-0.119-0.065-0.186l-8.734-30.904
			c-0.197-0.677,0.023-1.422,0.561-1.899c0.536-0.471,1.299-0.584,1.955-0.31l16.891,7.17l9.482,3.926
			c0.814,0.34,1.291,1.21,1.127,2.062c-0.032,0.179-3.348,18.006-4.594,24.469c-0.638,3.303-2.688,3.995-4.316,3.995
			C148.555,226.068,143.717,222.801,141.689,217.745 M153.423,196.103l-0.054,25.619c0,0.34,0.274,0.632,0.626,0.632
			s0.477,0,0.662-0.989c1.034-5.349,3.488-18.524,4.305-22.948L153.423,196.103z M137.528,189.389l7.643,27.068
			c0.898,2.146,2.496,3.834,4.467,4.848l0.076-26.747L137.528,189.389z"/>
		<path fill="#FFFFFF" d="M132.263,186.992v-3.732c-4.394,0-7.959-3.56-7.959-7.947c0-4.37,3.565-7.954,7.959-7.954v-3.711
			c-6.444,0-11.68,5.231-11.68,11.665C120.583,181.745,125.818,186.992,132.263,186.992"/>
	</g>
</g>
</svg>
