<?xml version="1.0" encoding="utf-8"?>
<!-- Generator: Adobe Illustrator 16.0.0, SVG Export Plug-In . SVG Version: 6.00 Build 0)  -->
<!DOCTYPE svg PUBLIC "-//W3C//DTD SVG 1.1//EN" "http://www.w3.org/Graphics/SVG/1.1/DTD/svg11.dtd">
<svg version="1.1" id="Layer_1" xmlns="http://www.w3.org/2000/svg" xmlns:xlink="http://www.w3.org/1999/xlink" x="0px" y="0px"
	 width="381.637px" height="366.636px" viewBox="0 0 381.637 366.636" enable-background="new 0 0 381.637 366.636"
	 xml:space="preserve">
<rect x="50.123" y="41.641" fill="#DCEBBF" width="276.991" height="276.989"/>
<path fill="#FFFFFF" d="M188.575,145.854c2.222-2.263,4.147-4.341,6.197-6.288c4.721-4.484,10.339-7.141,16.809-7.93
	c7.308-0.892,14.151,0.507,20.312,4.574c7.426,4.904,12.008,11.774,13.343,20.618c1.565,10.373-1.666,19.187-9.051,26.542
	c-14.637,14.58-29.273,29.159-43.934,43.716c-0.694,0.689-1.538,1.349-2.438,1.68c-1.74,0.642-3.233-0.036-4.509-1.313
	c-6.867-6.875-13.746-13.737-20.62-20.604c-8.275-8.268-16.583-16.503-24.81-24.819c-4.32-4.367-6.876-9.699-7.836-15.753
	c-1.377-8.666,0.587-16.542,6.002-23.457c4.608-5.885,10.639-9.605,18-10.979c9.311-1.736,17.717,0.414,25.034,6.415
	c2.398,1.967,4.503,4.293,6.724,6.472C188.087,145.012,188.269,145.402,188.575,145.854z M188.631,219.212
	c0.149-0.128,0.271-0.221,0.378-0.328c14.018-13.996,28.065-27.963,42.037-42.006c5.173-5.2,7.36-11.556,6.217-18.842
	c-1.452-9.24-8.539-16.52-17.757-18.206c-7.369-1.348-13.872,0.631-19.317,5.822c-2.821,2.69-5.563,5.463-8.346,8.195
	c-1.999,1.964-4.416,1.955-6.406-0.021c-2.611-2.592-5.188-5.219-7.841-7.766c-1.174-1.127-2.399-2.254-3.771-3.109
	c-8.073-5.036-16.233-4.7-24.133,0.249c-7.449,4.667-10.582,11.721-9.869,20.386c0.438,5.32,2.864,9.791,6.656,13.569
	c13.835,13.779,27.635,27.595,41.447,41.396C188.146,218.769,188.376,218.973,188.631,219.212z"/>
</svg>
