<?xml version="1.0" encoding="utf-8"?>
<!-- Generator: Adobe Illustrator 21.1.0, SVG Export Plug-In . SVG Version: 6.00 Build 0)  -->
<svg version="1.1" id="Layer_1" xmlns="http://www.w3.org/2000/svg" xmlns:xlink="http://www.w3.org/1999/xlink" x="0px" y="0px"
	 viewBox="0 0 437 556.6" style="enable-background:new 0 0 437 556.6;" xml:space="preserve">
<style type="text/css">
	.st0{fill:none;}
	.st1{fill:none;stroke:#231F20;stroke-width:0.3;}
	.st2{fill-rule:evenodd;clip-rule:evenodd;fill:none;}
	.st3{fill:#878787;}
	.st4{fill:none;stroke:#231F20;stroke-width:6;}
	.st5{fill:#231F20;}
	.st6{fill:none;stroke:#231F20;stroke-width:0.75;}
	.st7{fill:#C4E5E0;}
	.st8{fill:#4C8BA7;}
	.st9{fill:#97D3BE;}
	.st10{fill:#B0D57C;}
	.st11{fill:#049176;}
	.st12{fill:#F9CBCC;}
	.st13{fill:#C9B1D6;}
	.st14{fill:#C7DA30;}
	.st15{font-family:'Titillium-Light';}
	.st16{font-size:12px;}
	.st17{fill:url(#SVGID_3_);}
	.st18{fill:#CE3C96;}
	.st19{fill:url(#SVGID_7_);}
	.st20{fill:#882677;}
	.st21{fill:url(#SVGID_8_);}
	.st22{fill:url(#SVGID_9_);}
	.st23{fill:url(#SVGID_10_);}
	.st24{fill:url(#SVGID_11_);}
	.st25{fill:#C074AF;}
	.st26{fill:url(#SVGID_12_);}
	.st27{enable-background:new    ;}
</style>
<pattern  y="556.6" width="57.6" height="57.6" patternUnits="userSpaceOnUse" id="Crosses_2" viewBox="0 -57.6 57.6 57.6" style="overflow:visible;">
	<g>
		<rect y="-57.6" class="st0" width="57.6" height="57.6"/>
		<rect y="-57.6" class="st0" width="57.6" height="57.6"/>
		<line class="st1" x1="52.5" y1="-3.6" x2="55.5" y2="-3.6"/>
		<line class="st1" x1="38.1" y1="-3.6" x2="41.1" y2="-3.6"/>
		<line class="st1" x1="23.7" y1="-3.6" x2="26.7" y2="-3.6"/>
		<line class="st1" x1="9.3" y1="-3.6" x2="12.3" y2="-3.6"/>
		<line class="st1" x1="45.3" y1="-10.8" x2="48.3" y2="-10.8"/>
		<line class="st1" x1="30.9" y1="-10.8" x2="33.9" y2="-10.8"/>
		<line class="st1" x1="16.5" y1="-10.8" x2="19.5" y2="-10.8"/>
		<line class="st1" x1="2.1" y1="-10.8" x2="5.1" y2="-10.8"/>
		<line class="st1" x1="52.5" y1="-18" x2="55.5" y2="-18"/>
		<line class="st1" x1="38.1" y1="-18" x2="41.1" y2="-18"/>
		<line class="st1" x1="23.7" y1="-18" x2="26.7" y2="-18"/>
		<line class="st1" x1="9.3" y1="-18" x2="12.3" y2="-18"/>
		<line class="st1" x1="45.3" y1="-25.2" x2="48.3" y2="-25.2"/>
		<line class="st1" x1="30.9" y1="-25.2" x2="33.9" y2="-25.2"/>
		<line class="st1" x1="16.5" y1="-25.2" x2="19.5" y2="-25.2"/>
		<line class="st1" x1="2.1" y1="-25.2" x2="5.1" y2="-25.2"/>
		<line class="st1" x1="52.5" y1="-32.4" x2="55.5" y2="-32.4"/>
		<line class="st1" x1="38.1" y1="-32.4" x2="41.1" y2="-32.4"/>
		<line class="st1" x1="23.7" y1="-32.4" x2="26.7" y2="-32.4"/>
		<line class="st1" x1="9.3" y1="-32.4" x2="12.3" y2="-32.4"/>
		<line class="st1" x1="45.3" y1="-39.6" x2="48.3" y2="-39.6"/>
		<line class="st1" x1="30.9" y1="-39.6" x2="33.9" y2="-39.6"/>
		<line class="st1" x1="16.5" y1="-39.6" x2="19.5" y2="-39.6"/>
		<line class="st1" x1="2.1" y1="-39.6" x2="5.1" y2="-39.6"/>
		<line class="st1" x1="52.5" y1="-46.8" x2="55.5" y2="-46.8"/>
		<line class="st1" x1="38.1" y1="-46.8" x2="41.1" y2="-46.8"/>
		<line class="st1" x1="23.7" y1="-46.8" x2="26.7" y2="-46.8"/>
		<line class="st1" x1="9.3" y1="-46.8" x2="12.3" y2="-46.8"/>
		<line class="st1" x1="45.3" y1="-54" x2="48.3" y2="-54"/>
		<line class="st1" x1="30.9" y1="-54" x2="33.9" y2="-54"/>
		<line class="st1" x1="16.5" y1="-54" x2="19.5" y2="-54"/>
		<line class="st1" x1="2.1" y1="-54" x2="5.1" y2="-54"/>
		<line class="st1" x1="54" y1="-2.1" x2="54" y2="-5.1"/>
		<line class="st1" x1="39.6" y1="-2.1" x2="39.6" y2="-5.1"/>
		<line class="st1" x1="25.2" y1="-2.1" x2="25.2" y2="-5.1"/>
		<line class="st1" x1="10.8" y1="-2.1" x2="10.8" y2="-5.1"/>
		<line class="st1" x1="46.8" y1="-9.3" x2="46.8" y2="-12.3"/>
		<line class="st1" x1="32.4" y1="-9.3" x2="32.4" y2="-12.3"/>
		<line class="st1" x1="18" y1="-9.3" x2="18" y2="-12.3"/>
		<line class="st1" x1="3.6" y1="-9.3" x2="3.6" y2="-12.3"/>
		<line class="st1" x1="54" y1="-16.5" x2="54" y2="-19.5"/>
		<line class="st1" x1="39.6" y1="-16.5" x2="39.6" y2="-19.5"/>
		<line class="st1" x1="25.2" y1="-16.5" x2="25.2" y2="-19.5"/>
		<line class="st1" x1="10.8" y1="-16.5" x2="10.8" y2="-19.5"/>
		<line class="st1" x1="46.8" y1="-23.7" x2="46.8" y2="-26.7"/>
		<line class="st1" x1="32.4" y1="-23.7" x2="32.4" y2="-26.7"/>
		<line class="st1" x1="18" y1="-23.7" x2="18" y2="-26.7"/>
		<line class="st1" x1="3.6" y1="-23.7" x2="3.6" y2="-26.7"/>
		<line class="st1" x1="54" y1="-30.9" x2="54" y2="-33.9"/>
		<line class="st1" x1="39.6" y1="-30.9" x2="39.6" y2="-33.9"/>
		<line class="st1" x1="25.2" y1="-30.9" x2="25.2" y2="-33.9"/>
		<line class="st1" x1="10.8" y1="-30.9" x2="10.8" y2="-33.9"/>
		<line class="st1" x1="46.8" y1="-38.1" x2="46.8" y2="-41.1"/>
		<line class="st1" x1="32.4" y1="-38.1" x2="32.4" y2="-41.1"/>
		<line class="st1" x1="18" y1="-38.1" x2="18" y2="-41.1"/>
		<line class="st1" x1="3.6" y1="-38.1" x2="3.6" y2="-41.1"/>
		<line class="st1" x1="54" y1="-45.3" x2="54" y2="-48.3"/>
		<line class="st1" x1="39.6" y1="-45.3" x2="39.6" y2="-48.3"/>
		<line class="st1" x1="25.2" y1="-45.3" x2="25.2" y2="-48.3"/>
		<line class="st1" x1="10.8" y1="-45.3" x2="10.8" y2="-48.3"/>
		<line class="st1" x1="46.8" y1="-52.5" x2="46.8" y2="-55.5"/>
		<line class="st1" x1="32.4" y1="-52.5" x2="32.4" y2="-55.5"/>
		<line class="st1" x1="18" y1="-52.5" x2="18" y2="-55.5"/>
		<line class="st1" x1="3.6" y1="-52.5" x2="3.6" y2="-55.5"/>
	</g>
</pattern>
<pattern  y="556.6" width="28.8" height="28.8" patternUnits="userSpaceOnUse" id="New_Pattern_Swatch_1" viewBox="2.2 -31 28.8 28.8" style="overflow:visible;">
	<g>
		<rect x="2.2" y="-31" class="st2" width="28.8" height="28.8"/>
		<g>
			<circle class="st3" cx="31" cy="-2.2" r="2.2"/>
			<circle class="st3" cx="16.6" cy="-2.2" r="2.2"/>
			<circle class="st3" cx="31" cy="-16.6" r="2.2"/>
			<circle class="st3" cx="16.6" cy="-16.6" r="2.2"/>
			<circle class="st3" cx="9.4" cy="-9.4" r="2.2"/>
			<circle class="st3" cx="23.8" cy="-9.4" r="2.2"/>
			<circle class="st3" cx="9.4" cy="-23.8" r="2.2"/>
			<circle class="st3" cx="23.8" cy="-23.8" r="2.2"/>
		</g>
		<g>
			<circle class="st3" cx="2.2" cy="-2.2" r="2.2"/>
			<circle class="st3" cx="2.2" cy="-16.6" r="2.2"/>
		</g>
		<g>
			<circle class="st3" cx="31" cy="-31" r="2.2"/>
			<circle class="st3" cx="16.6" cy="-31" r="2.2"/>
		</g>
		<g>
			<circle class="st3" cx="2.2" cy="-31" r="2.2"/>
		</g>
	</g>
</pattern>
<pattern  y="556.6" width="46.8" height="54" patternUnits="userSpaceOnUse" id="SVGID_1_" viewBox="3 -56.8 46.8 54" style="overflow:visible;">
	<g>
		<rect x="3" y="-56.8" class="st0" width="46.8" height="54"/>
		<rect x="3" y="-56.8" class="st0" width="46.8" height="54"/>
		<g>
			<rect x="3" y="-56.8" class="st0" width="46.8" height="54"/>
			<rect x="3" y="-56.8" class="st0" width="46.8" height="54"/>
			<g>
				<ellipse transform="matrix(0.866 -0.5 0.5 0.866 17.5829 18.1879)" class="st1" cx="42.7" cy="-23.7" rx="1.5" ry="1.5"/>
				
					<ellipse transform="matrix(0.5003 -0.8659 0.8659 0.5003 49.7131 19.1743)" class="st1" cx="41.5" cy="-33.5" rx="1.5" ry="1.5"/>
				<ellipse transform="matrix(0.5 -0.866 0.866 0.5 34.3102 18.5929)" class="st1" cx="33.3" cy="-20.4" rx="1.5" ry="1.5"/>
				<ellipse transform="matrix(0.8661 -0.4998 0.4998 0.8661 16.3098 9.428)" class="st1" cx="25.8" cy="-25.7" rx="1.5" ry="1.5"/>
				<ellipse transform="matrix(0.5 -0.866 0.866 0.5 43.234 7.9767)" class="st1" cx="28.5" cy="-33.5" rx="1.5" ry="1.5"/>
				<circle class="st1" cx="35.5" cy="-38.8" r="1.5"/>
				<ellipse transform="matrix(0.5 -0.866 0.866 0.5 27.6586 -3.4753)" class="st1" cx="10.8" cy="-25.7" rx="1.5" ry="1.5"/>
				
					<ellipse transform="matrix(0.8657 -0.5006 0.5006 0.8657 18.9738 1.0595)" class="st1" cx="11.5" cy="-34.8" rx="1.5" ry="1.5"/>
				<ellipse transform="matrix(0.8661 -0.4998 0.4998 0.8661 12.2257 5.6465)" class="st1" cx="16.7" cy="-20" rx="1.5" ry="1.5"/>
				<circle class="st1" cx="21" cy="-37.8" r="1.5"/>
				<ellipse transform="matrix(0.866 -0.5 0.5 0.866 31.7562 14.345)" class="st1" cx="42.6" cy="-52.1" rx="1.5" ry="1.5"/>
				<ellipse transform="matrix(0.866 -0.5 0.5 0.866 29.7029 6.4787)" class="st1" cx="26.9" cy="-52.2" rx="1.5" ry="1.5"/>
				<circle class="st1" cx="34.2" cy="-47.8" r="1.5"/>
				
					<ellipse transform="matrix(0.4983 -0.867 0.867 0.4983 50.6133 -17.4042)" class="st1" cx="10.3" cy="-52.4" rx="1.5" ry="1.5"/>
				<circle class="st1" cx="18.9" cy="-45.8" r="1.5"/>
				<ellipse transform="matrix(0.5 -0.866 0.866 0.5 27.3387 32.6912)" class="st1" cx="42" cy="-7.3" rx="1.5" ry="1.5"/>
				<ellipse transform="matrix(0.866 -0.5 0.5 0.866 10.4878 15.5)" class="st1" cx="34.2" cy="-11.8" rx="1.5" ry="1.5"/>
				<ellipse transform="matrix(0.5 -0.866 0.866 0.5 19.3638 20.0663)" class="st1" cx="27.1" cy="-6.7" rx="1.5" ry="1.5"/>
				<ellipse transform="matrix(0.8661 -0.4998 0.4998 0.8661 5.0987 4.4051)" class="st1" cx="10.8" cy="-7.3" rx="1.5" ry="1.5"/>
				<ellipse transform="matrix(0.5 -0.866 0.866 0.5 18.906 11.1215)" class="st1" cx="19.1" cy="-10.8" rx="1.5" ry="1.5"/>
				<circle class="st1" cx="50.5" cy="-20.3" r="1.5"/>
				<circle class="st1" cx="50.5" cy="-47.8" r="1.5"/>
				<ellipse transform="matrix(0.5 -0.866 0.866 0.5 50.9737 2.3603)" class="st1" cx="27.5" cy="-43" rx="1.5" ry="1.5"/>
				<ellipse transform="matrix(0.5 -0.866 0.866 0.5 35.4586 1.4949)" class="st1" cx="19" cy="-30" rx="1.5" ry="1.5"/>
				<ellipse transform="matrix(0.5 -0.866 0.866 0.5 41.9195 16.5239)" class="st1" cx="35.3" cy="-28" rx="1.5" ry="1.5"/>
				<ellipse transform="matrix(0.5 -0.866 0.866 0.5 27.3387 14.5261)" class="st1" cx="26.2" cy="-16.4" rx="1.5" ry="1.5"/>
				<ellipse transform="matrix(0.5 -0.866 0.866 0.5 18.666 0.493)" class="st1" cx="9.8" cy="-15.9" rx="1.5" ry="1.5"/>
				
					<ellipse transform="matrix(0.4998 -0.8661 0.8661 0.4998 34.6779 28.3166)" class="st1" cx="41.9" cy="-15.9" rx="1.5" ry="1.5"/>
				<ellipse transform="matrix(0.5 -0.866 0.866 0.5 42.2111 -12.7979)" class="st1" cx="10" cy="-43" rx="1.5" ry="1.5"/>
				<ellipse transform="matrix(0.5 -0.866 0.866 0.5 57.5158 -11.8563)" class="st1" cx="18.5" cy="-55.7" rx="1.5" ry="1.5"/>
				<ellipse transform="matrix(0.5 -0.866 0.866 0.5 66.7732 3.2699)" class="st1" cx="36.2" cy="-56.2" rx="1.5" ry="1.5"/>
				<circle class="st1" cx="42.5" cy="-44.1" r="1.5"/>
				<circle class="st1" cx="49.8" cy="-57.6" r="1.5"/>
				
					<ellipse transform="matrix(0.4998 -0.8661 0.8661 0.4998 50.5253 27.9387)" class="st1" cx="49.5" cy="-29.8" rx="1.5" ry="1.5"/>
				<circle class="st1" cx="50.5" cy="-10.8" r="1.5"/>
				<circle class="st1" cx="48.5" cy="-39.1" r="1.5"/>
			</g>
			<g>
				<circle class="st1" cx="3.8" cy="-20.3" r="1.5"/>
				<circle class="st1" cx="3.8" cy="-47.8" r="1.5"/>
				<circle class="st1" cx="3" cy="-57.6" r="1.5"/>
				
					<ellipse transform="matrix(0.4998 -0.8661 0.8661 0.4998 27.2088 -12.5753)" class="st1" cx="2.7" cy="-29.8" rx="1.5" ry="1.5"/>
				<circle class="st1" cx="3.8" cy="-10.8" r="1.5"/>
				<circle class="st1" cx="1.6" cy="-39.1" r="1.5"/>
			</g>
			<g>
				<ellipse transform="matrix(0.5 -0.866 0.866 0.5 10.6419 15.1317)" class="st1" cx="18.4" cy="-1.7" rx="1.5" ry="1.5"/>
				<ellipse transform="matrix(0.5 -0.866 0.866 0.5 20.0051 30.3538)" class="st1" cx="36.3" cy="-2.1" rx="1.5" ry="1.5"/>
				<circle class="st1" cx="49.8" cy="-3.6" r="1.5"/>
			</g>
			<circle class="st1" cx="3" cy="-3.6" r="1.5"/>
		</g>
	</g>
</pattern>
<pattern  y="556.6" width="72" height="72" patternUnits="userSpaceOnUse" id="SVGID_2_" viewBox="72.3 -72 72 72" style="overflow:visible;">
	<g>
		<rect x="72.3" y="-72" class="st0" width="72" height="72"/>
		<rect x="72.3" y="-72" class="st0" width="72" height="72"/>
		<g>
			<rect x="72.3" y="-72" class="st0" width="72" height="72"/>
			<rect x="72.3" y="-72" class="st0" width="72" height="72"/>
			<g>
				<line class="st4" x1="144" y1="-66" x2="216.5" y2="-66"/>
				<line class="st4" x1="144" y1="-42" x2="216.5" y2="-42"/>
				<line class="st4" x1="144" y1="-18" x2="216.5" y2="-18"/>
				<line class="st4" x1="144" y1="-54" x2="216.5" y2="-54"/>
				<line class="st4" x1="144" y1="-30" x2="216.5" y2="-30"/>
				<line class="st4" x1="144" y1="-6" x2="216.5" y2="-6"/>
			</g>
			<g>
				<line class="st4" x1="72" y1="-66" x2="144.5" y2="-66"/>
				<line class="st4" x1="72" y1="-42" x2="144.5" y2="-42"/>
				<line class="st4" x1="72" y1="-18" x2="144.5" y2="-18"/>
				<line class="st4" x1="72" y1="-54" x2="144.5" y2="-54"/>
				<line class="st4" x1="72" y1="-30" x2="144.5" y2="-30"/>
				<line class="st4" x1="72" y1="-6" x2="144.5" y2="-6"/>
			</g>
			<g>
				<line class="st4" x1="0" y1="-66" x2="72.5" y2="-66"/>
				<line class="st4" x1="0" y1="-42" x2="72.5" y2="-42"/>
				<line class="st4" x1="0" y1="-18" x2="72.5" y2="-18"/>
				<line class="st4" x1="0" y1="-54" x2="72.5" y2="-54"/>
				<line class="st4" x1="0" y1="-30" x2="72.5" y2="-30"/>
				<line class="st4" x1="0" y1="-6" x2="72.5" y2="-6"/>
			</g>
		</g>
	</g>
</pattern>
<pattern  y="556.6" width="57.6" height="57.6" patternUnits="userSpaceOnUse" id="SVGID_4_" viewBox="0 -57.6 57.6 57.6" style="overflow:visible;">
	<g>
		<rect y="-57.6" class="st0" width="57.6" height="57.6"/>
		<rect y="-57.6" class="st0" width="57.6" height="57.6"/>
		<g>
			<rect y="-57.6" class="st0" width="57.6" height="57.6"/>
			<rect y="-57.6" class="st0" width="57.6" height="57.6"/>
			<line class="st1" x1="52.5" y1="-3.6" x2="55.5" y2="-3.6"/>
			<line class="st1" x1="38.1" y1="-3.6" x2="41.1" y2="-3.6"/>
			<line class="st1" x1="23.7" y1="-3.6" x2="26.7" y2="-3.6"/>
			<line class="st1" x1="9.3" y1="-3.6" x2="12.3" y2="-3.6"/>
			<line class="st1" x1="45.3" y1="-10.8" x2="48.3" y2="-10.8"/>
			<line class="st1" x1="30.9" y1="-10.8" x2="33.9" y2="-10.8"/>
			<line class="st1" x1="16.5" y1="-10.8" x2="19.5" y2="-10.8"/>
			<line class="st1" x1="2.1" y1="-10.8" x2="5.1" y2="-10.8"/>
			<line class="st1" x1="52.5" y1="-18" x2="55.5" y2="-18"/>
			<line class="st1" x1="38.1" y1="-18" x2="41.1" y2="-18"/>
			<line class="st1" x1="23.7" y1="-18" x2="26.7" y2="-18"/>
			<line class="st1" x1="9.3" y1="-18" x2="12.3" y2="-18"/>
			<line class="st1" x1="45.3" y1="-25.2" x2="48.3" y2="-25.2"/>
			<line class="st1" x1="30.9" y1="-25.2" x2="33.9" y2="-25.2"/>
			<line class="st1" x1="16.5" y1="-25.2" x2="19.5" y2="-25.2"/>
			<line class="st1" x1="2.1" y1="-25.2" x2="5.1" y2="-25.2"/>
			<line class="st1" x1="52.5" y1="-32.4" x2="55.5" y2="-32.4"/>
			<line class="st1" x1="38.1" y1="-32.4" x2="41.1" y2="-32.4"/>
			<line class="st1" x1="23.7" y1="-32.4" x2="26.7" y2="-32.4"/>
			<line class="st1" x1="9.3" y1="-32.4" x2="12.3" y2="-32.4"/>
			<line class="st1" x1="45.3" y1="-39.6" x2="48.3" y2="-39.6"/>
			<line class="st1" x1="30.9" y1="-39.6" x2="33.9" y2="-39.6"/>
			<line class="st1" x1="16.5" y1="-39.6" x2="19.5" y2="-39.6"/>
			<line class="st1" x1="2.1" y1="-39.6" x2="5.1" y2="-39.6"/>
			<line class="st1" x1="52.5" y1="-46.8" x2="55.5" y2="-46.8"/>
			<line class="st1" x1="38.1" y1="-46.8" x2="41.1" y2="-46.8"/>
			<line class="st1" x1="23.7" y1="-46.8" x2="26.7" y2="-46.8"/>
			<line class="st1" x1="9.3" y1="-46.8" x2="12.3" y2="-46.8"/>
			<line class="st1" x1="45.3" y1="-54" x2="48.3" y2="-54"/>
			<line class="st1" x1="30.9" y1="-54" x2="33.9" y2="-54"/>
			<line class="st1" x1="16.5" y1="-54" x2="19.5" y2="-54"/>
			<line class="st1" x1="2.1" y1="-54" x2="5.1" y2="-54"/>
			<line class="st1" x1="54" y1="-2.1" x2="54" y2="-5.1"/>
			<line class="st1" x1="39.6" y1="-2.1" x2="39.6" y2="-5.1"/>
			<line class="st1" x1="25.2" y1="-2.1" x2="25.2" y2="-5.1"/>
			<line class="st1" x1="10.8" y1="-2.1" x2="10.8" y2="-5.1"/>
			<line class="st1" x1="46.8" y1="-9.3" x2="46.8" y2="-12.3"/>
			<line class="st1" x1="32.4" y1="-9.3" x2="32.4" y2="-12.3"/>
			<line class="st1" x1="18" y1="-9.3" x2="18" y2="-12.3"/>
			<line class="st1" x1="3.6" y1="-9.3" x2="3.6" y2="-12.3"/>
			<line class="st1" x1="54" y1="-16.5" x2="54" y2="-19.5"/>
			<line class="st1" x1="39.6" y1="-16.5" x2="39.6" y2="-19.5"/>
			<line class="st1" x1="25.2" y1="-16.5" x2="25.2" y2="-19.5"/>
			<line class="st1" x1="10.8" y1="-16.5" x2="10.8" y2="-19.5"/>
			<line class="st1" x1="46.8" y1="-23.7" x2="46.8" y2="-26.7"/>
			<line class="st1" x1="32.4" y1="-23.7" x2="32.4" y2="-26.7"/>
			<line class="st1" x1="18" y1="-23.7" x2="18" y2="-26.7"/>
			<line class="st1" x1="3.6" y1="-23.7" x2="3.6" y2="-26.7"/>
			<line class="st1" x1="54" y1="-30.9" x2="54" y2="-33.9"/>
			<line class="st1" x1="39.6" y1="-30.9" x2="39.6" y2="-33.9"/>
			<line class="st1" x1="25.2" y1="-30.9" x2="25.2" y2="-33.9"/>
			<line class="st1" x1="10.8" y1="-30.9" x2="10.8" y2="-33.9"/>
			<line class="st1" x1="46.8" y1="-38.1" x2="46.8" y2="-41.1"/>
			<line class="st1" x1="32.4" y1="-38.1" x2="32.4" y2="-41.1"/>
			<line class="st1" x1="18" y1="-38.1" x2="18" y2="-41.1"/>
			<line class="st1" x1="3.6" y1="-38.1" x2="3.6" y2="-41.1"/>
			<line class="st1" x1="54" y1="-45.3" x2="54" y2="-48.3"/>
			<line class="st1" x1="39.6" y1="-45.3" x2="39.6" y2="-48.3"/>
			<line class="st1" x1="25.2" y1="-45.3" x2="25.2" y2="-48.3"/>
			<line class="st1" x1="10.8" y1="-45.3" x2="10.8" y2="-48.3"/>
			<line class="st1" x1="46.8" y1="-52.5" x2="46.8" y2="-55.5"/>
			<line class="st1" x1="32.4" y1="-52.5" x2="32.4" y2="-55.5"/>
			<line class="st1" x1="18" y1="-52.5" x2="18" y2="-55.5"/>
			<line class="st1" x1="3.6" y1="-52.5" x2="3.6" y2="-55.5"/>
		</g>
	</g>
</pattern>
<pattern  y="556.6" width="54" height="54" patternUnits="userSpaceOnUse" id="SVGID_5_" viewBox="10.6 -57.5 54 54" style="overflow:visible;">
	<g>
		<rect x="10.6" y="-57.5" class="st0" width="54" height="54"/>
		<rect x="10.6" y="-57.5" class="st0" width="54" height="54"/>
		<g>
			<rect x="10.6" y="-57.5" class="st0" width="54" height="54"/>
			<rect x="10.6" y="-57.5" class="st0" width="54" height="54"/>
			<g>
				<path class="st5" d="M33.1-59c-0.8-0.5-1.3-4.7-2.1-5.2c-0.3-0.2-0.8-0.7-0.8-0.9c0-0.5-0.3-0.4-0.3-0.9c0-1-0.7-2.3-2.1-2
					c-0.4,0.1-0.7,1,1.4,2.2c0.2,0.1,0,0.9,0.1,1.3c2,5.3,3.9,9.6,4.4,8.3L33.1-59z"/>
				<path class="st5" d="M38.9-60c-0.2,0.4-0.3,0.8-0.4,1.2l-3.3-0.7c-0.9,1,1.1,1.4,2.5,2c0.9,0.5,1.8,1,2.7,1.4
					C40.2-57,39.2-58.7,38.9-60z"/>
				<path class="st5" d="M59.3-62.6c0.2-0.5,0-1.1-0.5-1.3c-0.1,0-0.2-0.1-0.3-0.1c-0.9-0.1-2-0.4-2-0.9c-0.1-1.4-1.1-2.6-2.5-3
					c1.2,2.2,3,4.1,5.2,5.4c0.3,0.2,0,0.9,0.2,1.3c0.7,1.3,2.7-0.1,2.8,2.3c0,0.2-0.4,0.5-0.7,0.7c2.1-0.6,1.9,2.1,3.8,2.3v-1.5
					c-0.8,0-1.6-0.2-2.3-0.7C60.8-59.2,63.2-62.1,59.3-62.6z"/>
				<path class="st5" d="M14.5-64.1c-0.3,2,2.7,5.8,3.6,7.5c0.4-0.5,0.5-1.1,0.3-1.7c-0.4-2-2.6-3.3-2.6-5.8
					c-0.6-0.9-0.5-1.6-2.1-1.5L14.5-64.1z"/>
				<path class="st5" d="M22-58.8c0,0.8-0.3,1.7-0.8,2.3c0.5,0.2,1.1,0,1.3-0.5c0-0.1,0.1-0.2,0.1-0.3C22.6-57.9,22.4-58.4,22-58.8z
					"/>
				<path class="st5" d="M12.8-58.6C11-58.4,12.5-57,12-56.3C14.3-56.5,11.5-58.2,12.8-58.6z"/>
				<path class="st5" d="M24.2-59.7c1.7,1.2,2.3,4.9,4.2,5.7c-1.5-1.2-1.7-4.9-2.9-6.2c-2.4-2.5-5.6-3.8-7.4-6.9
					c-0.6-1.1,0.7-2.7-0.8-3.7c-0.3,2.4-0.2,5,1.7,6.6S22.2-61.2,24.2-59.7z"/>
				<path class="st5" d="M47.1-59.3c-0.4-0.5-1.2,0.1-1.3,0.7c-0.2,1-1.2,2.6-0.1,3c0.8-0.7,1.9-1,3-0.8
					C46.1-56.3,47.8-58.5,47.1-59.3z"/>
				<path class="st5" d="M54.6-60c0.2-0.3,0.8,0.1,1,0.5c-1.1,0.6,0.1,2.2-1.2,2.4c-0.5,0.1-1-0.5-1.7-0.4
					C53.2-58.6,53.9-58.8,54.6-60z"/>
			</g>
			<path class="st5" d="M5.3-62.6c0.2-0.5,0-1.1-0.5-1.3c-0.1,0-0.2-0.1-0.3-0.1c-0.9-0.1-2-0.4-2-0.9c-0.1-1.4-1.1-2.6-2.5-3
				C1.2-65.7,3.1-63.8,5.3-62.6c0.2,0.3-0.1,1,0.1,1.4c0.7,1.4,2.7,0,2.9,2.4c0,0.2-0.4,0.5-0.7,0.7c2.1-0.6,1.9,2.1,3.8,2.3v-1.5
				c-0.8,0-1.6-0.2-2.3-0.7C6.8-59.2,9.2-62.1,5.3-62.6z"/>
			<g>
				<path class="st5" d="M63.8-46.7c0.8,0.3,1.7-0.7,2.1-0.5c2.2,1,2,3.6,4.7,1.4c0,0,0.6,0.4,0.6,0.6c-0.1,0.8-0.9,1.4-0.6,2.3
					c0.2,0.6,0.8,0.7,1.4,0.9c1.9,0.6-0.5,2.5,2.2,3.8c0.3,0.2,0.3,1.4,0,2c-0.8,1.3-2.3,0.8-3.6,0.8c1.2,0,2.3,0.5,3,1.5l-0.8-1.5
					l3-1.5c-0.5-0.3-1.2-0.4-1.4-0.8c-0.3-0.9,0.2-2.1-0.3-2.9c-0.1-0.2-1,0.1-1.3-0.2c-1.2-1.4-0.6-4-1.8-4.8c-2-1.4-6-1-7-4.2
					c-0.2-0.6,1.1-1.3,2-1.3s1.8,0.7,2.2,2.2C68-49.7,68.3-50.5,69-51c1.5-0.6,1.4,2.5,2.9,2c0.5-0.3,0.7-0.8,0.7-1.3
					c-0.1-0.4-0.9-0.7-1.4-0.7c-0.3,0-0.6,0.6-0.7,0.6c-1.5-0.7-3.6-0.5-4.5-2.2c-0.1-0.5-0.2-1-0.1-1.5c-0.8,0-2.2-0.3-2.1,0.7
					c0.1,1,1,2,0.5,3c-0.2,0.4-0.9,0.5-1.4,0.8L63.8-46.7z"/>
				<path class="st5" d="M65.3-37.6c-1.6-0.2-0.7,0.9-0.8,1.5L65.3-37.6z"/>
				<path class="st5" d="M64.9-12.9c-0.1-2.4-0.2-1.6-2.6-2.4c0.5,0.3,2,0.9,2.1,1.3c0.2,0.8-0.1,1.1,0.3,1.8
					c-0.2,0.8-1.5,0.8-0.8,1.8c1,1.5,0.2,3.8,2.1,4.5c0.4,0.2,0.2-0.5,0.7-0.5C66.8-8.4,65-10.7,64.9-12.9z"/>
				<path class="st5" d="M63.1-40.8c0.5,1.5,1.8,1.3,3,1.5C65.3-40.1,64.2-40.7,63.1-40.8z"/>
			</g>
			<g>
				<path class="st5" d="M16.2-32.6h-0.7c0.3,0.9,0.8,1.6,1.5,2.2c0.3-0.5,0.8-1.1,0.6-1.5S16.7-32.4,16.2-32.6z"/>
				<path class="st5" d="M33.1-5c-0.8-0.5-1.3-4.7-2.1-5.2c-0.3-0.2-0.8-0.7-0.8-0.9c0-0.5-0.3-0.4-0.3-0.9c0-1-0.7-2.3-2.1-2
					c-0.4,0.1-0.7,1,1.4,2.2c0.2,0.1,0,0.9,0.1,1.3c2,5.3,3.9,9.6,4.4,8.3L33.1-5z"/>
				<path class="st5" d="M24.8-13.5c-0.7,0.2-1.7,1.1-1.6,1.3C24.1-9.9,25-8.9,26-8.9s-1.2-1.4-1.7-2.5s1.9-2.5,1.5-3.1
					C25.4-15.1,25.4-14.1,24.8-13.5z"/>
				<path class="st5" d="M22.6-14.6c-0.6-1.9-0.4-2.1-3-3c0.8,0.2,0.6-0.1,0.8,2.3C20.3-15,22.1-14.8,22.6-14.6z"/>
				<path class="st5" d="M20.3-23.6c-0.2-0.5-0.5-1.3-0.8-1.4c-2-0.2-2.4-1.7-3-3.2c1.3-0.4,2.2-1.7,3.8-1.5
					c-0.7-0.4-1.5-1.1-2.2-0.6C17.9-30,18.1-29,18-29c-2.9,1-2.1,3.1-0.6,4.5c0.2,0.1,1-0.6,1.3-0.5c1.3,0.7-0.5,4.6,0.8,3.6
					c0.6-0.7,1.7-1.5,2.8,0.1c0.5,0.7,0.2,1.9,0.2,2.9c0.4,0.8,2.1,0.3,2.1-0.8C24.8-21.6,21.2-21.3,20.3-23.6z"/>
				<path class="st5" d="M29.3-21.3c-0.2-0.3-0.5-0.7-0.7-0.7s-0.5,0.4-0.8,0.7c0.5,0.3,1.3,0.5,1.3,0.8c0.1,1.5-0.2,3.1-2.1,3.7
					C30.1-15.9,30.9-19.2,29.3-21.3z"/>
				<path class="st5" d="M32.5-22.8c0.3,3.9-0.5,6,3.6,4.5c0.9-1.3-1.8-0.2-2.1-0.8c-0.2-0.3,1.7-1,1.5-1.4s-2.1-0.5-2.4-0.9
					c-0.4-0.8,0.3-1.5,0.7-2.2C33.3-23.3,32.5-23,32.5-22.8z"/>
				<path class="st5" d="M36.8-23.5c-0.1,0-0.5,0.4-0.7,0.6c0.8,0.4,1.3,2.1,2.1,1.3S37.6-23.8,36.8-23.5z"/>
				<path class="st5" d="M26.1-30.3c-0.4-0.5-1.2,0.1-1.3,0.7c-0.2,1-1.2,2.6-0.1,3c0.8-0.7,1.9-1,3-0.8
					C25.1-27.3,26.8-29.5,26.1-30.3z"/>
				<path class="st5" d="M41.6-19.6c2.8,0.4,3,2.8,4.6,4.2c0.3,0.3,1-0.1,1.3,0.2c0.8,0.7,1.1,1.9,0.8,2.9c1.3-1.7,2.6,0.6,3.5-0.2
					c1.7-1.5,1.5-4,4-5c-0.4-1.9-2.1-2.9-3-4.5c0.8,2.6,2.8,5.4-0.8,6.8c0.3,0.3,0.7,0.5,0.7,0.8c0,0.6-0.3,1.1-0.7,1.4
					c-1,0.5-2.2,0.2-2.8-0.7c-1-1.8-1.5-1.9-2.9-3.2c-0.7-0.6,0-2.4-1-3.5c-0.3,0.3-0.6,0.8-0.7,0.6c-1-1.8-2.3-1.6-2.6-0.5
					L41.6-19.6z"/>
				<path class="st5" d="M41-15.8L41-15.8c-0.2,0.1-1.3-0.4-1.3-0.7c-0.1-1.6-0.4-3.3-2.4-3c2.4,2,3.1,4.9,4.4,7.6
					C42.1-11,39-8.8,40.3-8l2.3-1c0.7,0.7,1.4,1.2,3,0c-1.1,0-2.3,0.2-2.9-0.8c-0.9-1.7-0.1-2.6-0.3-4.4c0-0.3-1.1-0.4-1.2-0.8
					C41.1-15.3,41-15.5,41-15.8z"/>
				<path class="st5" d="M38.9-6c-0.2,0.4-0.3,0.8-0.4,1.2l-3.3-0.7c-0.9,1,1.1,1.4,2.5,2.1c0.9,0.5,1.8,1,2.7,1.4
					C40.2-3,39.2-4.7,38.9-6z"/>
				<path class="st5" d="M48.8-44.6c0.5,1.1,1.4,0.7,2.3,0.8C50.6-44.8,49.7-44.7,48.8-44.6z"/>
				<path class="st5" d="M58.1-5.6c-0.5-4.3-0.6,0-0.8,0c0.7,0.3,1.8,0.3,1.5,1.5C58.5-4.6,58.3-5.1,58.1-5.6z"/>
				<path class="st5" d="M59.3-8.6c0.2-0.5,0-1.1-0.5-1.3c-0.1,0-0.2-0.1-0.3-0.1c-0.9-0.1-2-0.4-2-0.9c-0.1-1.4-1.1-2.6-2.5-3
					C55.2-11.7,57.1-9.8,59.3-8.6c0.2,0.3-0.1,1,0.1,1.4c0.7,1.4,2.7,0,2.9,2.4c0,0.2-0.4,0.5-0.7,0.7c2.1-0.6,1.9,2.1,3.8,2.2v-1.5
					c-0.8,0-1.6-0.2-2.3-0.7C60.8-5.2,63.2-8.1,59.3-8.6z"/>
				<path class="st5" d="M61.5-14.6c-0.2-0.9-0.6-2-1.5-2.1c-0.7-0.1-1.5-1.1-2.2,1.4c2.3-0.7,3,1.2,3.8,3
					C61.6-13.1,61.6-13.8,61.5-14.6z"/>
				<path class="st5" d="M57.9-22.1c-0.1-0.5-0.2-1-0.1-1.5c-0.8,0.7-1.1,1.9-0.6,2.9c0.3,0.4,1.3,0.1,2.1,0.1
					C58.8-21,58.3-21.5,57.9-22.1z"/>
				<path class="st5" d="M45.3-25.8c0,0.5,0.3,1.2,0.1,1.4c-0.8,0.5-1.9,0.3-2.9,0.4c0.3,0.2,0.5,0.5,0.8,0.6c0.9,0.2,1.7-0.9,2-0.7
					c2,1.1,4.2,4.7,5.8,6.3c0.2-0.3-1-2.6-1-2.7C48.3-22.7,47.1-23.6,45.3-25.8z"/>
				<path class="st5" d="M49.4-27.7c-0.7,0.4-2,0.4-1.3,1.5c1.3,2.2,4.1,2.2,5.9,3.8c0.4-2.1,3.2-1.6,4.4-3.1c0.3-0.3,0-0.9,0.1-1.4
					c0.2-0.8,0.2-1.8,1.5-1.5l-0.9-0.8c-1.3,2-1.6-0.2-3,0c0.5,0.3,1.3,0.4,1.4,0.8c0.5,1.3,0.3,2.7-0.7,3.7
					c-0.4,0.4-1.1,0.8-1.4,0.6c-0.9-0.5-1-1.7-0.8-2.9c-1.2,1.1-1.8,3.8-3.6,2.8c-0.8-0.6-1.5-1.4-2.1-2.2c-1.1-1.3,2.4-0.9,2-2.8
					L49.4-27.7z"/>
				<path class="st5" d="M42.4-28c0.1-0.2,1,0.3,1.3,0.1c0.5-0.5,1.8-1.1,2-1.9c0.4,0.3,1.2,0.7,1.2,1c0,1-2.5,1.2-3.9,1.6
					c-0.8,0.3-1.2,1.1-1.2,1.9C41.8-26.2,42-27.2,42.4-28z"/>
				<path class="st5" d="M39-27.6c0.5-1.6-0.8-1.1-1.4-0.2c-0.4,0.9-0.9,3.7,1.5,3.9c0.2,0,0.5-0.4,0.8-0.7C39.3-25,37.3-22,39-27.6
					z"/>
				<path class="st5" d="M14.5-10.1c-0.3,1.9,2.7,5.8,3.6,7.5c0.4-0.5,0.5-1.1,0.3-1.7c-0.4-2-2.6-3.3-2.6-5.9
					c-0.6-0.9-0.5-1.6-2.1-1.5L14.5-10.1z"/>
				<path class="st5" d="M11.8-17.9c2.3,1.3,0,1.4,2.7,2.6c1.3-0.4,1.6-2,1.7-3.4c0-0.3-0.4-1.4-0.4-1.9l-0.7,1.5
					c-0.3,0.5-0.4,1.8-0.6,1.8C13.6-17.2,12.6-17.4,11.8-17.9z"/>
				<path class="st5" d="M27.7-5.9v1.5c0.6-0.5,1.5-0.8,2.3-0.8L27.7-5.9z"/>
				<path class="st5" d="M14.4-24.9c0.5-1.6-0.8-1.1-1.4-0.1c-0.4,0.9-0.9,3.7,1.5,3.9c0.2,0,0.5-0.4,0.8-0.7
					C14.7-22.3,12.7-19.3,14.4-24.9z"/>
				<path class="st5" d="M9.8-46.7c0.8,0.3,1.7-0.7,2.1-0.5c2.1,1,2,3.6,4.7,1.4c0,0,0.6,0.4,0.6,0.6c-0.1,0.8-0.9,1.4-0.6,2.3
					c0.2,0.6,0.8,0.7,1.4,0.9c1.9,0.6-0.5,2.5,2.2,3.8c0.3,0.2,0.3,1.4,0,2c-0.8,1.3-2.3,0.8-3.6,0.8c1.2,0,2.3,0.5,3,1.5l-0.8-1.5
					l3-1.5c-0.5-0.3-1.2-0.4-1.4-0.8c-0.4-0.9,0.1-2.1-0.3-2.9c-0.1-0.2-1,0.1-1.3-0.2c-1.2-1.4-0.6-4-1.8-4.8c-2-1.4-6-1-7-4.2
					c-0.2-0.6,1.1-1.3,2-1.3s1.8,0.7,2.2,2.2C14-49.7,14.3-50.5,15-51c1.4-0.6,1.3,2.4,2.9,1.9c0.5-0.3,0.7-0.8,0.7-1.3
					c-0.1-0.4-0.9-0.7-1.4-0.7c-0.3,0-0.6,0.6-0.7,0.6c-1.4-0.6-3.5-0.5-4.4-2.2c-0.1-0.5-0.2-1-0.1-1.5c-0.8,0-2.1-0.3-2.1,0.7
					s1,2,0.5,3c-0.1,0.5-0.8,0.7-1.3,0.9L9.8-46.7z"/>
				<path class="st5" d="M20.8-54.1c0.4,0.1,0.5,0.9,0.8,1.4l1.5-0.8c1.3,3.3,3.6,7.4,7.5,7.5v-1.5c-0.8,0.2-1.6-0.1-2.1-0.8
					c-0.7-1.2,1.5-1.9-0.1-3.7c0,1.3,0.4,3.1-0.8,3.5c-1.5,0.5-2.5-1.9-2.2-3.5c-0.5,0-1.3,0.1-1.4-0.1c-0.9-2-3.3-2.4-3.9-4.4
					c-1.2,1.3-3.4,1.7-3.8,3.8C18.1-52.3,19.1-54.7,20.8-54.1z"/>
				<path class="st5" d="M11.3-37.6c-1.6-0.2-0.7,0.9-0.8,1.5L11.3-37.6z"/>
				<path class="st5" d="M15.2-37.5c0.6-0.6,0.8-1.5,0.6-2.3c-0.5,0.3-1.3,0.5-1.3,0.7c0.1,1.6-1.5,2.8-0.9,4.5
					C14.6-35.4,14.6-36.7,15.2-37.5z"/>
				<path class="st5" d="M11.3-33.1c-0.2,1.7,1.1,0.3,1.5,0.8L11.3-33.1z"/>
				<path class="st5" d="M24.9-34.6c-0.1-2.5,1.8-4,3.7-5.3c-0.5,0.8-1.4,1.3-2.3,1.4c-0.2,0-0.5-0.6-0.7-0.6
					c-0.5,0-1.3,0.4-1.3,0.7c-0.1,1.5-0.8,2.9,0.4,4.6c0.2,0.2-0.4,0.9-0.6,1.4l-1.5-0.8l-1.5,3c2.3-0.3,2.6-3,4.5-3.8
					C25.3-34.1,24.9-34.4,24.9-34.6z"/>
				<path class="st5" d="M29.7-38.1c1.3-0.1,1.3,1,1.3,1.6s-0.5,1,1.2,2.6c0.3,0.3,0.4,1.4,0.7,2.1l0.8-0.7
					c-0.5-0.3-1.1-0.5-1.3-0.9c-0.2-0.6,0.3-1.7,0-2.1c-0.6-0.7-1.8-1.1-1.8-2.6c0-0.2,0.7-0.5,0.6-0.6c-0.4-1-0.5-2.1-0.3-3.1
					C29.3-40.9,29.8-39.4,29.7-38.1z"/>
				<path class="st5" d="M37-35.3c-1.3-1.6-2.9,0.1-3.8-1.9c1.3,0.5,0.5-0.3,3-0.8c-0.1,0.6-0.3,1.4-0.1,1.5c2.4,1.4,1.2,4.5,3,6.4
					l-1,0.2C38-31,37.7-32,37.2-33C35.5-34,38.1-33.9,37-35.3z"/>
				<path class="st5" d="M31.7-44.2c-1.8,1.5-1.8-0.4-3.1-0.2l0.8,1.5c1.3-1.7,2.6,0.6,3.6-0.2C33.7-43.7,31.9-44.4,31.7-44.2z"/>
				<path class="st5" d="M33.2-48.2c0-0.3-1-0.4-1.2-0.8c-1-2.2-0.3-2.8,0.7-4.4c-0.5-0.2-1.1,0-1.3,0.5c0,0.1-0.1,0.2-0.1,0.3
					c-0.2,1.3,0.6,1.2-0.7,2.4c-0.4,0.4,1.3,1.3,1.7,2.2c0.6,1.6,2,2.1,2.8,3.5c0.3,0.5,1.3-0.2,1.2-0.6
					C35.9-46.9,33.4-44.6,33.2-48.2z"/>
				<path class="st5" d="M33.6-11.5c-0.4,0.3,0.3,0.9,0.9,1.2c0.6-1.5,3.2-0.4,3.2-2.1c0-0.6-0.9-1.2-1-2.1
					C35.3-13.5,35.1-12.6,33.6-11.5z"/>
				<path class="st5" d="M39.8-44c0.8-1.6-1.2-1-1.5-1.8C37.2-43.9,40.2-45.3,39.8-44z"/>
				<path class="st5" d="M41.7-44.8l1.5-0.7c0.2,0.5,0.8,1.1,0.6,1.5c-1,2.2,0.3,4.4,1,6.4c0.7-0.4,1.7-0.1,2.1,0.6c0,0,0,0,0,0.1
					v0.1c0.9,1.8,2.8,4.6,3,6.7c-0.5-0.1-1.4-0.1-1.5-0.4c-0.9-3.2-3.6-8.2-7.1-9c-0.1,0-0.2-0.6-0.1-0.9c0.3-0.8,1.5-0.9,1.8-1.4
					C43.5-42.9,42.4-43.9,41.7-44.8z"/>
				<path class="st5" d="M39.9-35.4c0.1-0.5-0.3-1.1,0.2-1.6c0.9,2.2,0.9,4.6,3.3,6.3c-1,0.7-1.6-0.1-2.3-0.5
					C42.3-33,39.5-33.6,39.9-35.4z"/>
				<path class="st5" d="M44.4-50.4c-0.6-1.2,1.5-2.9,2.1-2.7c1.1,0.2,1.9,1.2,1.7,2.3c0,0,0,0,0,0c0,0.2-0.1,0.3-0.1,0.5
					c3.1-0.2,6.8-3.3,4.3-5.8c-0.5-0.5-1.8,0.2-2.8,0.6c1.5,0.3,2.5,1.7,2.3,3.2c0,0.2-0.1,0.3-0.1,0.5c-0.5,0.7-1.3,1-2.1,0.9
					c-2-0.2-1.1-2-2.3-3c-0.4-0.4-0.9-0.6-1.5-0.7c-0.9,0.1-1.5,0.9-2.3,1.3c-0.3,0.2-1.1-0.3-1.3-0.7c-0.4-0.7-0.2-1.6,0.5-2.1
					c0.1,0,0.1-0.1,0.2-0.1c-1.3-0.3-1.5,0.9-1.3,1.5c0.3,1.4,2.8,1.2,2.8,3c0,1-0.7,1.9-2.2,2.3c3.3-0.7,2.5,2.9,4.9,3.7
					c1.5,0.5,0.8-0.8,0.6-1.4C47.2-48.7,45.1-49.1,44.4-50.4z"/>
				<path class="st5" d="M49.3-41.2c-0.5-0.2-1-0.4-1.5-0.7c1.2,0.8,0,2.1,2.1,3.2c0.5,0.3,0.3,1.5-0.6,2l0.8,0.8
					c-0.3-1.8,0.4-3.5,0.8-5.3C50.4-41.1,49.8-41.1,49.3-41.2z"/>
				<path class="st5" d="M54.7-37.9c-0.1-0.6-0.3-1.1-0.7-1.5c-0.3,0.3-0.7,0.6-0.7,0.7c0.5,0.9,0.7,2,0.7,3
					C54.4-36.4,54.6-37.1,54.7-37.9z"/>
				<path class="st5" d="M53.7-32.2c-1.3-0.3-1.4,0.8-1.4,1.5c0,0.5,0.4,0.8,0.8,0.8c0.2,0,0.3,0,0.5-0.1c0.5-0.4,0-1.7,2.3-1.4
					C55.2-31.7,54.5-32,53.7-32.2z"/>
				<path class="st5" d="M57.7-32.6c-0.7-0.8-1-3-2-2C54.7-33.6,56.8-33.3,57.7-32.6z"/>
				<path class="st5" d="M57.7-52.6c-0.2-0.9-0.5-2.8-2-2.1c-0.2,0.1-0.1,0.8-0.1,1.4c1.3-0.1,2.7,0.3,2.8,2.3
					c0,0.2-1.1,0.4-1.2,0.8c-0.2,0.7-1.1,1.5,1.3,2.2C57.6-49.5,58-51.1,57.7-52.6z"/>
				<path class="st5" d="M11-12.9c-0.1-2.4-0.2-1.6-2.6-2.4c0.5,0.3,2,0.9,2.1,1.3c0.2,0.8-0.1,1.1,0.3,1.8
					c-0.2,0.7-1.5,0.7-0.8,1.8c1,1.5,0.2,3.8,2.1,4.5c0.4,0.2,0.2-0.5,0.7-0.5C12.8-8.4,11-10.7,11-12.9z"/>
				<path class="st5" d="M59.1-37.7c0.3,3.9-0.5,6,3.6,4.5c0.9-1.3-1.8-0.2-2.1-0.8c-0.2-0.3,1.7-1,1.5-1.4
					c-0.2-0.4-2.1-0.4-2.3-0.8c-0.4-0.8,0.3-1.5,0.7-2.2C59.9-38.2,59.1-37.9,59.1-37.7z"/>
				<path class="st5" d="M57.5-42.1c-1.3,0.2-1.3-0.8-1.4-1.5c0-0.2,0.6-0.6,0.5-0.7c-0.7-1.5-2.4-0.5-3.7-0.8
					c0.5,0,1.2-0.2,1.4,0.1c1,1.4,2.8,3.6,0.9,5.2c1-1.2,3.2-0.4,3.8-2.3C58.5-42.2,58-42.2,57.5-42.1z"/>
				<path class="st5" d="M53.9-49.2c-1.5-0.1-3.3-0.6-4.9-0.2c0.4,0.3,0.8,0.6,1.3,0.8c0.5,0,0.5-0.8,0.9-0.6S51.7-48,52-48
					c1.6,0.1,3,0.8,4.5,0.9c-0.3-0.5-0.4-1.2-0.8-1.4C55.1-48.8,54.5-49.1,53.9-49.2z"/>
				<path class="st5" d="M60.8-45.5c-0.2-0.5-1,0.1-1.3,0.7c1.4,0.9-0.1,3.2,1.5,3.6c0.6,0.1,1.3-0.7,2.2-0.6
					C62.5-43.5,61.6-43.8,60.8-45.5z"/>
				<path class="st5" d="M32.1-26.2c-1.3,0.2-1.3-0.9-1.4-1.5c0-0.2,0.6-0.6,0.6-0.7c-0.7-1.5-2.4-0.5-3.6-0.8
					c0.5,0,1.2-0.2,1.4,0.1c1,1.4,2.8,3.6,0.9,5.2c1-1.2,3.1-0.4,3.8-2.3C33.2-26.3,32.7-26.3,32.1-26.2z"/>
				<path class="st5" d="M27.1-34.3c0.5,1.5,1.8,1.3,3,1.5C29.3-33.6,28.2-34.2,27.1-34.3z"/>
				<path class="st5" d="M13-30.2c-0.1,0-0.5,0.4-0.7,0.6c0.8,0.4,1.3,2.1,2.1,1.3S13.8-30.5,13-30.2z"/>
				<path class="st5" d="M12.8-42.5c0.5,1.1,1.4,0.7,2.3,0.8C14.6-42.7,13.7-42.7,12.8-42.5z"/>
				<path class="st5" d="M37.9-42.1c-0.5-0.5-0.4-0.6-0.7-0.7c-0.8-0.3-1.5,0.3-2.2,0.7c2.6-0.5,3.6,1.5,3,3.8
					c0.5-0.3,1.3-0.5,1.3-0.8C39.3-40.1,38.5-41.1,37.9-42.1z"/>
				<path class="st5" d="M50.8-9.8c-0.5-0.5-0.4-0.6-0.7-0.7c-0.8-0.3-1.5,0.3-2.2,0.7c2.6-0.5,3.6,1.5,3,3.8
					c0.5-0.3,1.3-0.5,1.3-0.8C52.2-7.8,51.4-8.8,50.8-9.8z"/>
				<path class="st5" d="M26.3-43.3c0,0.8-0.3,1.7-0.8,2.3c0.5,0.2,1.1,0,1.3-0.5c0-0.1,0.1-0.2,0.1-0.3
					C26.8-42.3,26.6-42.9,26.3-43.3z"/>
				<path class="st5" d="M22-4.8c0,0.8-0.3,1.7-0.8,2.3c0.5,0.2,1.1,0,1.3-0.5c0-0.1,0.1-0.2,0.1-0.3C22.6-3.9,22.4-4.4,22-4.8z"/>
				<path class="st5" d="M9.1-40.8c0.5,1.5,1.8,1.3,3,1.5C11.3-40.1,10.2-40.7,9.1-40.8z"/>
				<path class="st5" d="M12.8-4.6C11-4.4,12.6-3,12.1-2.4C14.3-2.5,11.5-4.2,12.8-4.6z"/>
				<path class="st5" d="M65.2-25.8c-0.1-0.9-1.8-1.1-1.8-1.5c-0.2-1.9-0.9-2.2-1.8-3.7c-0.3,0.3-0.7,0.5-0.7,0.8
					c0,1,1.5,1.6,1.8,2.4c0.9,2.5,0.7,6.2,1.3,7.2c0.2-0.1,1.4,1.3,1.8,1.6L65.2-25.8z"/>
				<path class="st5" d="M24.2-5.7c1.7,1.2,2.3,4.9,4.2,5.7c-1.5-1.2-1.7-4.9-2.9-6.2c-2.4-2.5-5.6-3.8-7.4-6.9
					c-0.6-1.1,0.7-2.7-0.8-3.7c-0.3,2.4-0.2,5,1.7,6.6S22.2-7.2,24.2-5.7z"/>
				<path class="st5" d="M44.6-4.8c-0.7-0.8-1-3-2-2S43.7-5.4,44.6-4.8z"/>
				<path class="st5" d="M47.1-5.3c-0.4-0.5-1.2,0.1-1.3,0.7c-0.2,1-1.2,2.6-0.1,3c0.8-0.7,1.9-1,3-0.8C46.1-2.3,47.8-4.5,47.1-5.3z
					"/>
				<path class="st5" d="M54.6-5.9c0.2-0.3,0.8,0.1,1,0.4c-1.1,0.6,0.1,2.2-1.2,2.4c-0.5,0.1-1-0.5-1.7-0.4
					C53.2-4.6,53.9-4.8,54.6-5.9z"/>
				<path class="st5" d="M31.3-16.5c0.5,1.5,1.8,1.4,3,1.5C33.6-16,32.4-16.2,31.3-16.5z"/>
				<path class="st5" d="M61.6-19.3c0.5,1.1,1.4,0.7,2.3,0.8C63.4-19.2,62.5-19.6,61.6-19.3z"/>
				<path class="st5" d="M66.1-54.1c-0.8,0-2.2-0.3-2.1,0.7c0.1,1,1,2,0.5,3c-0.2,0.4-0.9,0.5-1.4,0.8c-0.8-2.3-3.3-3.3-3.8-6
					c-0.1-0.8-0.5-2.1-1.3-1.3c-0.8,0.8,1.1,1,1.1,1.3c0.2,2.9,1.9,5,3.8,6.9c0.4,0.4,0,1.7,1,2c0.8,0.3,1.7-0.7,2.1-0.5l-0.1-0.3
					c-0.9-0.4-1.6-1.2-1.8-2.2c-0.2-0.6,1.1-1.3,2-1.3V-54.1z"/>
				<path class="st5" d="M37.3-10c0,0.8-0.3,1.7-0.8,2.3c0.5,0.2,1.1,0,1.3-0.5c0-0.1,0.1-0.2,0.1-0.3C37.9-9.1,37.7-9.6,37.3-10z"
					/>
				<path class="st5" d="M34.8-26.4c1.7,0,0.1-1.1,0.5-1.6L34.8-26.4z"/>
				<path class="st5" d="M60.8-25.3c0,0.8-0.3,1.7-0.8,2.3c0.5,0.2,1.1,0,1.3-0.5c0-0.1,0.1-0.2,0.1-0.3
					C61.3-24.3,61.1-24.9,60.8-25.3z"/>
				<path class="st5" d="M54.3-11c0.1,0.8,0.5,1.6,1.1,2.1c-0.5,0.3-1.1,0.2-1.4-0.3c0,0,0,0,0,0c0-0.1,0-0.1-0.1-0.2
					C53.9-10,54.1-10.5,54.3-11z"/>
				<path class="st5" d="M19.8-6.4c0.7-1.6-1.3-1.1-1.5-1.8C17.2-6.3,20.2-7.8,19.8-6.4z"/>
				<path class="st5" d="M46.1-12.5c-1.6-0.2-0.7,0.9-0.8,1.5L46.1-12.5z"/>
				<path class="st5" d="M36.6-53.8c1.3,0.3,0.9,1.3,0.7,2c-0.1,0.2-0.8,0.3-0.8,0.4c0,1.7,2,1.5,3,2.2c-0.5-0.2-1.2-0.3-1.2-0.6
					c-0.3-1.6-1.2-4.4,1.3-5.1c-1.4,0.8-3.1-0.9-4.3,0.6C35.6-54.2,36.1-54,36.6-53.8z"/>
				<path class="st5" d="M21.8-28c-1.6-0.2-0.7,0.9-0.8,1.5L21.8-28z"/>
				<path class="st5" d="M24.1-22.5c0.5,1.1,1.4,0.7,2.3,0.8C25.9-22.5,25-22.9,24.1-22.5z"/>
				<path class="st5" d="M45.6-34c-1.6-0.2-0.7,0.9-0.8,1.5L45.6-34z"/>
				<path class="st5" d="M41.1-48.5c0.1,0.6-0.3,1-0.6,1.5c0.6,0.1,1.1-0.1,1.1-0.5C41.5-47.9,41.4-48.2,41.1-48.5z"/>
				<path class="st5" d="M35.6-48.8c-0.5-4.3-0.6,0-0.8,0c0.8,0.3,1.8,0.3,1.5,1.5C36-47.8,35.8-48.3,35.6-48.8z"/>
				<path class="st5" d="M20.2-42.8c2.5,0.8,0.3,1.4,3.2,2c1.2-0.6,1.2-2.3,1-3.7c0-0.3-0.7-1.3-0.8-1.8l-0.5,1.8
					C23-44,23-42.7,22.9-42.6C22-42.3,21-42.4,20.2-42.8z"/>
				<path class="st5" d="M20.9-49.2c0.3-1.3,1.4-0.8,2-0.5c0.4,0.2,0.6,0.7,0.4,1.1c-0.1,0.2-0.3,0.3-0.5,0.4
					c-0.7,0.2-1.5-0.8-2.4,1.3C20.6-47.7,20.7-48.5,20.9-49.2z"/>
			</g>
			<g>
				<path class="st5" d="M5.3-8.6c0.2-0.5,0-1.1-0.5-1.3C4.7-10,4.7-10,4.6-10c-0.9-0.1-2-0.4-2-0.9c-0.1-1.4-1.1-2.6-2.5-3
					C1.3-11.7,3.1-9.8,5.3-8.6c0.2,0.3-0.2,1,0.1,1.5C6.1-5.8,8-7.2,8.2-4.8c0,0.2-0.4,0.5-0.7,0.7C9.6-4.7,9.4-2,11.3-1.8v-1.5
					C10.5-3.3,9.7-3.5,9-4C6.8-5.2,9.2-8.1,5.3-8.6z"/>
				<path class="st5" d="M11.2-25.8c-0.1-0.9-1.8-1.1-1.8-1.5c-0.2-1.9-0.9-2.2-1.8-3.7c-0.3,0.3-0.7,0.5-0.7,0.8
					c0,1,1.5,1.6,1.8,2.4c0.9,2.4,0.7,6.2,1.3,7.2c0.2-0.1,1.4,1.3,1.8,1.6L11.2-25.8z"/>
				<path class="st5" d="M12.1-54.1c-0.8,0-2.2-0.3-2.1,0.7c0.1,1,1,2,0.5,3c-0.2,0.4-0.9,0.5-1.4,0.8c-0.8-2.3-3.3-3.3-3.8-6
					c-0.1-0.8-0.5-2.1-1.3-1.3s1.1,1,1.1,1.3c0.2,2.9,1.9,5,3.8,6.9c0.4,0.4-0.1,1.7,0.9,2c0.8,0.3,1.7-0.7,2.1-0.5l-0.1-0.3
					c-0.9-0.4-1.6-1.2-1.8-2.2c-0.2-0.6,1.1-1.3,2-1.3v-3.1H12.1z"/>
			</g>
		</g>
	</g>
</pattern>
<pattern  y="556.6" width="72" height="72" patternUnits="userSpaceOnUse" id="SVGID_6_" viewBox="16.3 -84.2 72 72" style="overflow:visible;">
	<g>
		<rect x="16.3" y="-84.2" class="st0" width="72" height="72"/>
		<rect x="16.3" y="-84.2" class="st0" width="72" height="72"/>
		<g>
			<rect x="16.3" y="-84.2" class="st0" width="72" height="72"/>
			<rect x="16.3" y="-84.2" class="st0" width="72" height="72"/>
			<path class="st6" d="M96.7-76.3c0,0,1-4.1-2.9-4s-3.9-1.9-3.1-4.3s-0.2-4.6-3.3-4.6"/>
			<g>
				<path class="st6" d="M29.7-27.7c0,0,3.8,1.7,4.5-2.1s2.6-3.5,4.8-2.2s4.6,0.7,5.1-2.4"/>
				<path class="st6" d="M82.3-40.9c0,0-2.6-3.3-5-0.2s-3.9,1.9-5.3-0.2c-1.4-2.1-3.7-2.7-5.7-0.2"/>
				<path class="st6" d="M55.3-41.2c0,0-3.8,1.7-1.5,4.7s0.9,4.3-1.5,5c-2.4,0.7-3.6,2.9-1.7,5.4"/>
				<path class="st6" d="M57.5-37c0,0,4.1,0.9,2.4,4.4s0,4.4,2.5,4.7c2.5,0.3,4.1,2.1,2.7,5"/>
				<path class="st6" d="M71.5-27.1c0,0,4.1,0.9,2.4,4.4s0,4.4,2.5,4.7c2.5,0.3,4.1,2.1,2.7,5"/>
				<path class="st6" d="M43.7-46.4c0,0,3.7,2,1.1,4.8c-2.6,2.8-1.2,4.2,1.2,5.2s3.4,3.2,1.2,5.5"/>
				<path class="st6" d="M26.7-35.1c0,0,1.3-4-2.6-4.2c-3.9-0.2-3.8-2.2-2.8-4.5c1-2.3,0.2-4.6-2.9-4.8"/>
				<path class="st6" d="M23.9-53.4c0,0-2,3.7,1.7,4.6s3.3,2.9,1.9,5c-1.4,2.1-1.1,4.5,2,5.3"/>
				<path class="st6" d="M36.8-29.2c0,0,1.3,4,4.6,1.8c3.3-2.2,4.3-0.5,4.9,2s2.6,3.8,5.3,2.1"/>
				<path class="st6" d="M28.7-56.7c0,0-1.8,3.8,2,4.5c3.8,0.7,3.5,2.6,2.2,4.8s-0.7,4.6,2.4,5.1"/>
				<path class="st6" d="M40.3-50.9c0,0-3.4,2.4-0.5,4.9c2.9,2.5,1.7,4-0.5,5.3s-3,3.5-0.6,5.6"/>
				<path class="st6" d="M27.3-71.8c0,0,0.3,4.2,4,2.9c3.7-1.3,4.3,0.6,4.3,3.2c0,2.6,1.5,4.4,4.6,3.4"/>
				<path class="st6" d="M45.8-65.1c0,0-0.4-4.2-4-2.9c-3.6,1.3-4.3-0.5-4.3-3.1s-1.6-4.3-4.6-3.3"/>
				<path class="st6" d="M36-39.5c0,0-4.2-0.2-3.4,3.6c0.8,3.8-1.1,4.2-3.6,3.9c-2.5-0.3-4.5,1-3.9,4.1"/>
				<path class="st6" d="M49-40.2c0,0-1.5-3.9,2.4-4.3s3.7-2.4,2.5-4.7s-0.4-4.6,2.7-5"/>
				<path class="st6" d="M19.7-57.9c0,0,1.9-3.7,4.8-1.1s4.2,1.2,5.2-1.2s3.1-3.4,5.5-1.3"/>
				<path class="st6" d="M67.3-95.6c0,0-1.9,3.7,1.9,4.6s3.4,2.7,2.1,4.9s-0.9,4.5,2.2,5.2"/>
				<path class="st6" d="M80.9-22.2c0,0,2.4-3.3-1.1-4.8s-2.9-3.3-1.2-5.2c1.7-1.9,1.6-4.3-1.3-5.5"/>
				<path class="st6" d="M76.3-26.5c0,0-4.1-0.8-2.4-4.3s0-4.4-2.6-4.6s-4.1-2.1-2.8-5"/>
				<path class="st6" d="M33.4-12.9c0,0,4.2-0.2,3-3.9c-1.2-3.7,0.7-4.3,3.3-4.2s4.4-1.4,3.5-4.5"/>
				<path class="st6" d="M55.8-27.9c0,0-4,1-2.2,4.4s0.1,4.4-2.4,4.7c-2.5,0.3-4,2.3-2.5,5"/>
				<path class="st6" d="M34.3-20.1c0,0-4,1.3-4.2-2.6c-0.2-3.9-2.2-3.8-4.5-2.8s-4.6,0.2-4.8-3"/>
				<path class="st6" d="M24.7-76.3c0,0,1-4.1-2.9-4s-3.9-1.9-3.1-4.3c0.8-2.4-0.2-4.6-3.3-4.6"/>
				<path class="st6" d="M86.7-45.7c0,0-2.3-3.5-4.9-0.7s-4.1,1.6-5.3-0.7c-1.2-2.3-3.5-3.1-5.6-0.8"/>
				<path class="st6" d="M66.7-13.8c0,0,1-4.1-2.9-4c-3.9,0.1-4-1.9-3.1-4.3s-0.2-4.6-3.3-4.6"/>
				<path class="st6" d="M60.2-44c0,0-1.6,3.8,2.2,4.4c3.8,0.6,3.6,2.5,2.4,4.8c-1.2,2.3-0.6,4.6,2.5,5.1"/>
				<path class="st6" d="M91.2-45.8c0,0-4.2,0.4-2.8,4.1c1.4,3.7-0.5,4.3-3,4.4s-4.3,1.7-3.2,4.7"/>
				<path class="st6" d="M78.5-50.4c0,0,3.5,2.3,4.8-1.3s3.1-3,5.1-1.4s4.4,1.5,5.4-1.5"/>
				<path class="st6" d="M88-74.9c0,0-0.8-4.1-4.3-2.5s-4.4-0.1-4.6-2.7s-2-4.2-4.9-2.8"/>
				<path class="st6" d="M45.1-56.2c0,0,4.1-0.5,2.7-4.2s0.3-4.3,2.9-4.5c2.6-0.2,4.3-1.8,3.1-4.8"/>
				<path class="st6" d="M31.1-55.6c0,0,1.2-4,4.5-2s4.4,0.4,4.9-2.2s2.5-3.9,5.2-2.3"/>
				<path class="st6" d="M18.1-72.2c0,0,1.2-4,4.5-2s4.4,0.4,4.9-2.2s2.5-3.9,5.2-2.3"/>
				<path class="st6" d="M54.2-81.2c0,0,4.2,0.4,2.9,4s0.5,4.3,3.1,4.3s4.3,1.6,3.3,4.6"/>
				<path class="st6" d="M50.8-72.3c0,0,3.2-2.7,0.1-5s-2-3.9,0.1-5.3s2.7-3.8,0.1-5.7"/>
				<path class="st6" d="M67.2-75.8c0,0-3.4,2.5-0.4,4.9s1.8,4-0.4,5.3C64.2-64.3,63.5-62,66-60"/>
				<path class="st6" d="M72.3-71.6c0,0,2.8,3.1,5-0.2c2.2-3.3,3.7-2.2,5.3-0.2s3.9,2.5,5.7-0.2"/>
				<path class="st6" d="M56.5-44.7c0,0,4.2-0.2,3-3.9s0.7-4.3,3.2-4.2s4.4-1.5,3.4-4.5"/>
				<path class="st6" d="M48-52.6c0,0-0.4-4.2,3.4-3.6c3.8,0.6,4.2-1.3,3.7-3.8s0.8-4.5,3.9-4.1"/>
				<path class="st6" d="M35.8-54.9c0,0,1.1,4,4.5,2.2c3.4-1.8,4.4-0.2,4.8,2.3c0.4,2.5,2.3,4,5.1,2.5"/>
				<path class="st6" d="M17.5-25.4c0,0,4.2,0.2,3,3.9c-1.2,3.7,0.7,4.3,3.2,4.2c2.5-0.1,4.4,1.5,3.5,4.5"/>
				<path class="st6" d="M52-69.8c0,0-3.8,1.7-4.5-2.1c-0.7-3.8-2.5-3.5-4.8-2.3c-2.3,1.2-4.6,0.7-5.1-2.5"/>
				<path class="st6" d="M100.1-65c0,0-1.6,3.8-4.7,1.5s-4.3-0.8-5,1.7S87.5-58.2,85-60"/>
				<path class="st6" d="M84.1-61c0,0-1-4-4.4-2.2c-3.4,1.8-4.4,0.2-4.8-2.4c-0.4-2.6-2.3-4-5.1-2.5"/>
				<path class="st6" d="M76-73c0,0-0.1-4.2-3.9-3.1c-3.8,1.1-4.3-0.8-4.1-3.3c0.2-2.5-1.4-4.4-4.4-3.6"/>
				<path class="st6" d="M67.7-60.1c0,0,2,3.7,4.8,1c2.8-2.7,4.2-1.3,5.2,1.1s3.2,3.3,5.5,1.1"/>
				<path class="st6" d="M57.6-71.3c0,0-2,3.7,1.8,4.6c3.8,0.9,3.3,2.8,1.9,4.9s-1,4.5,2.1,5.3"/>
				<path class="st6" d="M78.3-95.7c0,0-1.3,4,2.6,4.2s3.8,2.2,2.8,4.5s-0.2,4.6,2.9,4.8"/>
				<path class="st6" d="M62.7-46.2c0,0,4.1,0.8,3.9-3.1s1.7-4,4.2-3.3s4.6-0.3,4.4-3.5"/>
				<path class="st6" d="M82.9-25c0,0,4.1,0.5,3.7-3.3s1.4-4.1,3.9-3.6c2.5,0.5,4.6-0.6,4.2-3.8"/>
				<path class="st6" d="M81.4-66c0,0,2.4-3.4,4.9-0.5c2.5,2.9,4,1.7,5.3-0.5c1.3-2.2,3.6-2.9,5.6-0.5"/>
				<path class="st6" d="M61.8-75c0,0-3.7-1.9-1.2-4.8s1.1-4.2-1.3-5.2s-3.4-3.1-1.3-5.5"/>
				<path class="st6" d="M44.6-92.5c0,0-3.6,2.2-0.8,4.9c2.8,2.7,1.4,4.1-0.9,5.2S39.7-79,42-76.8"/>
				<path class="st6" d="M36.3-77.9c0,0,1.2-4-2.7-4.2s-3.9-2.1-2.9-4.5s0.1-4.6-3.1-4.8"/>
			</g>
			<g>
				<path class="st6" d="M19.2-45.8c0,0-4.2,0.4-2.8,4.1c1.4,3.7-0.5,4.3-3,4.4s-4.3,1.7-3.2,4.7"/>
				<path class="st6" d="M6.5-50.4c0,0,3.5,2.3,4.8-1.3s3.1-3,5.1-1.4s4.4,1.5,5.5-1.5"/>
				<path class="st6" d="M16-74.9c0,0-0.8-4.1-4.3-2.5s-4.4-0.1-4.6-2.7s-2-4.2-4.9-2.8"/>
				<path class="st6" d="M0.3-71.6c0,0,2.8,3.1,5-0.2C7.5-75.1,9-74,10.6-72s3.9,2.5,5.7-0.2"/>
				<path class="st6" d="M28.1-65c0,0-1.6,3.8-4.7,1.5s-4.3-0.8-5,1.7c-0.7,2.5-2.9,3.6-5.4,1.8"/>
				<path class="st6" d="M10.9-25c0,0,4.1,0.5,3.7-3.3c-0.4-3.8,1.4-4.1,3.9-3.6c2.5,0.5,4.6-0.6,4.2-3.8"/>
				<path class="st6" d="M9.4-66c0,0,2.4-3.4,4.9-0.5c2.5,2.9,4,1.7,5.3-0.5c1.3-2.2,3.6-2.9,5.6-0.5"/>
			</g>
			<path class="st6" d="M96.7-4.3c0,0,1-4.1-2.9-4c-3.9,0.1-3.9-1.9-3.1-4.3s-0.2-4.6-3.3-4.6"/>
			<g>
				<path class="st6" d="M67.3-23.6c0,0-1.9,3.7,1.9,4.6s3.4,2.7,2.1,4.9c-1.3,2.2-0.9,4.5,2.2,5.2"/>
				<path class="st6" d="M24.7-4.3c0,0,1-4.1-2.9-4c-3.9,0.1-3.9-1.9-3.1-4.3c0.8-2.4-0.2-4.6-3.3-4.6"/>
				<path class="st6" d="M50.8-0.3c0,0,3.2-2.7,0.1-5s-2-3.9,0.1-5.3s2.7-3.8,0.1-5.7"/>
				<path class="st6" d="M78.3-23.7c0,0-1.3,4,2.6,4.2c3.9,0.2,3.8,2.2,2.8,4.5s-0.2,4.6,2.9,4.8"/>
				<path class="st6" d="M61.8-3c0,0-3.7-1.9-1.2-4.8s1.1-4.2-1.3-5.2s-3.4-3.1-1.3-5.5"/>
				<path class="st6" d="M44.6-20.5c0,0-3.6,2.2-0.8,4.9c2.8,2.7,1.4,4.1-0.9,5.2S39.7-7,42-4.8"/>
				<path class="st6" d="M36.3-5.9c0,0,1.2-4-2.7-4.2s-3.9-2.1-2.9-4.5s0.1-4.6-3.1-4.8"/>
			</g>
		</g>
	</g>
</pattern>
<title>aree_legenda</title>
<g>
	<g>
		<path class="st5" d="M36.6,44.6V30.2h2.3v12.3h5.7v2.1H36.6z"/>
		<path class="st5" d="M54.4,42.6v1.7c-1.4,0.3-2.8,0.4-4.2,0.5c-3.2,0-4.4-1.7-4.4-5.4s1.7-5.6,4.6-5.6s4.4,1.5,4.4,4.8l-0.2,1.6
			h-6.5c0,1.7,0.7,2.5,2.4,2.5S54.4,42.6,54.4,42.6z M52.5,38.5c0-2.1-0.6-2.8-2.2-2.8S48,36.5,48,38.5H52.5z"/>
		<path class="st5" d="M56.5,46.4c0-1.1,0.5-1.7,1.6-2.5c-0.5-0.4-0.7-0.9-0.7-1.5c0.2-0.6,0.4-1.2,0.8-1.7
			c-1.1-0.7-1.7-1.9-1.5-3.2c0-2.7,1.8-3.7,4.2-3.7c0.7,0,1.4,0.1,2.1,0.3l3.3-0.1v1.8l-1.7-0.1c0.4,0.5,0.5,1.1,0.5,1.7
			c0,2.9-1.5,3.6-4.3,3.6c-0.3,0-0.6,0-0.9-0.1c-0.1,0.3-0.2,0.7-0.3,1c0,0.7,0.2,0.8,2.3,0.8c3.3,0,4.4,0.7,4.4,3.1s-2,3.4-4.8,3.4
			C58.1,49.4,56.5,48.8,56.5,46.4z M59.6,44.7c-0.5,0.3-0.8,0.9-0.8,1.5c0,1,0.7,1.4,2.6,1.4c1.7,0,2.5-0.4,2.5-1.5
			s-0.5-1.3-2.3-1.3C61,44.8,59.6,44.7,59.6,44.7z M62.8,37.5c0-1.3-0.5-1.9-2-1.9s-1.9,0.6-1.9,1.9c-0.2,0.9,0.5,1.7,1.4,1.9
			c0.2,0,0.4,0,0.5,0C62.1,39.4,62.8,38.8,62.8,37.5z"/>
		<path class="st5" d="M76.1,42.6v1.7c-1.4,0.3-2.8,0.4-4.2,0.5c-3.2,0-4.4-1.7-4.4-5.4s1.7-5.6,4.6-5.6s4.4,1.5,4.4,4.8l-0.2,1.6
			h-6.5c0,1.7,0.7,2.5,2.4,2.5S76.1,42.6,76.1,42.6z M74.2,38.5c0-2.1-0.6-2.8-2.2-2.8s-2.3,0.8-2.3,2.8H74.2z"/>
		<path class="st5" d="M78.7,44.6V34.1H81v0.7c0.9-0.5,1.9-0.8,2.9-0.9c2.9,0,3.6,1.7,3.6,5.1v5.6h-2.3V39c0-2.1-0.3-3.1-1.9-3.1
			c-0.8,0-1.6,0.2-2.4,0.5v8.2L78.7,44.6z"/>
		<path class="st5" d="M98.7,44.6h-2.3V44c-0.9,0.4-1.8,0.7-2.8,0.8c-2.7,0-4-1.4-4-5.5c0-3.8,1.4-5.5,4.4-5.5
			c0.8,0,1.6,0.1,2.4,0.3v-4.4h2.3L98.7,44.6z M96.4,42.2V36c-0.7-0.1-1.5-0.2-2.2-0.2c-1.5,0-2.2,1.2-2.2,3.5c0,2.7,0.7,3.4,2,3.4
			C94.8,42.7,95.6,42.5,96.4,42.2z"/>
		<path class="st5" d="M109.2,42.1c-0.1,0.5,0.3,0.9,0.8,1c0,0,0,0,0,0h0.1l-0.1,1.7c-1,0.1-2-0.2-2.8-0.8c-1.1,0.5-2.2,0.7-3.4,0.8
			c-2.1,0-3.1-1.2-3.1-3.3s1.2-3,3.5-3.2l2.7-0.2v-0.8c0-1.2-0.5-1.5-1.5-1.5c-1.4,0-3.9,0.2-3.9,0.2l-0.1-1.6
			c1.4-0.3,2.8-0.5,4.2-0.5c2.6,0,3.6,1.1,3.6,3.5L109.2,42.1z M104.5,39.9c-1,0.1-1.4,0.5-1.4,1.5s0.4,1.5,1.3,1.5
			c0.9,0,1.8-0.2,2.6-0.5v-2.8L104.5,39.9z"/>
	</g>
	<rect x="34.9" y="250.5" class="st7" width="36" height="37.5"/>
	<rect x="34.9" y="314.5" class="st8" width="36" height="37.5"/>
	<rect x="231.8" y="59.7" class="st9" width="36" height="37.5"/>
	<rect x="232.4" y="250.5" class="st10" width="36" height="37.5"/>
	<rect x="232.4" y="314.5" class="st11" width="36" height="37.5"/>
	<rect x="231.4" y="123.7" class="st12" width="36" height="37.5"/>
	<rect x="34.2" y="187.7" class="st13" width="36" height="37.5"/>
	<rect x="34.9" y="123.7" class="st14" width="36" height="37.5"/>
	<g>
		<path class="st5" d="M81.7,60h1.7l2.3,7l2.3-7h1.7v8.3h-0.9V61h-0.2l-2.4,7h-1l-2.4-7h-0.2v7.3h-0.9V60z"/>
		<path class="st5" d="M91.8,60h5v0.8h-4.1v2.9h3.4v0.8h-3.4v3h4.1v0.8h-5L91.8,60z"/>
		<path class="st5" d="M98.4,68.3V60h3c2.4,0,3.1,1.7,3.1,4c0,2.3-0.6,4.3-3.1,4.3H98.4z M101.4,60.8h-2v6.7h2
			c1.7,0,2.1-1.7,2.1-3.4S103.1,60.8,101.4,60.8z"/>
		<path class="st5" d="M106.2,60h0.9v8.3h-0.9V60z"/>
		<path class="st5" d="M110.7,60h2l2.3,8.3h-1l-0.6-2.1h-3.6l-0.6,2.1h-0.9L110.7,60z M110.1,65.3h3.1l-1.2-4.5h-0.6L110.1,65.3z"/>
		<path class="st5" d="M116.3,60h1.7l3.2,7.5h0.3V60h0.9v8.3h-1.7l-3.2-7.5h-0.2v7.5h-0.9V60H116.3z"/>
		<path class="st5" d="M124,64.2c0-2.7,0.7-4.3,3.3-4.3s3.3,1.5,3.3,4.3c0,2.8-0.7,4.2-3.3,4.2S124,67,124,64.2z M129.6,64.2
			c0-2.2-0.4-3.5-2.3-3.5s-2.3,1.2-2.3,3.5c0,2.3,0.4,3.4,2.3,3.4C129.2,67.6,129.6,66.5,129.6,64.2z"/>
		<path class="st5" d="M86.7,82.6c-0.8,0.1-1.5,0.2-2.3,0.3c-2.5,0-3-1.5-3-4.3s0.5-4.3,3-4.3c0.8,0,1.5,0.1,2.3,0.3v0.8
			c-0.7-0.1-1.5-0.2-2.2-0.2c-1.8,0-2.2,1.1-2.2,3.5s0.3,3.4,2.2,3.4c0.7,0,1.4-0.1,2.1-0.2L86.7,82.6z"/>
		<path class="st5" d="M88.2,74.4h5v0.8h-4.1v2.9h3.4v0.8h-3.4v3h4.1v0.8h-5V74.4z"/>
		<path class="st5" d="M94.9,74.4h1.7l3.2,7.5h0.2v-7.5h0.9v8.3h-1.7L96,75.2h-0.2v7.5h-0.9V74.4z"/>
		<path class="st5" d="M102.1,74.4h6v0.8h-2.5v7.5h-0.9v-7.5h-2.6V74.4z"/>
		<path class="st5" d="M110.2,79.5v3.2h-0.9v-8.3h3.1c1.7,0,2.7,0.8,2.7,2.5c0.1,1.1-0.5,2.1-1.5,2.4l1.6,3.4h-1l-1.5-3.2
			L110.2,79.5z M112.4,75.2h-2.2v3.5h2.2c1.3,0,1.7-0.7,1.7-1.8c0.1-0.8-0.4-1.6-1.2-1.7H112.4z"/>
		<path class="st5" d="M116.3,78.6c0-2.7,0.7-4.3,3.3-4.3s3.3,1.6,3.3,4.3s-0.7,4.2-3.3,4.2S116.3,81.4,116.3,78.6z M121.9,78.6
			c0-2.2-0.4-3.5-2.3-3.5s-2.3,1.2-2.3,3.5s0.4,3.4,2.3,3.4S122,80.9,121.9,78.6z"/>
		<path class="st5" d="M129.3,74.4h1.7l2.4,7l2.4-7h1.7v8.3h-0.9v-7.3h-0.2l-2.4,7h-1l-2.4-7h-0.2v7.3h-0.9L129.3,74.4z"/>
		<path class="st5" d="M139.3,74.4h5v0.8h-4.1v2.9h3.4v0.8h-3.4v3h4.1v0.8h-5V74.4z"/>
		<path class="st5" d="M146.9,79.5v3.2H146v-8.3h3c1.7,0,2.6,0.8,2.6,2.5c0.1,1.1-0.5,2.1-1.5,2.4l1.6,3.4h-1l-1.5-3.2L146.9,79.5z
			 M149,75.2h-2.1v3.5h2.1c1.3,0,1.7-0.7,1.7-1.8c0.1-0.8-0.4-1.6-1.2-1.7H149z"/>
		<path class="st5" d="M153.4,74.4h0.9v8.3h-0.9V74.4z"/>
		<path class="st5" d="M156.3,82.7v-8.3h3c2.4,0,3.1,1.7,3.1,4s-0.6,4.3-3.1,4.3L156.3,82.7z M159.3,75.2h-2v6.7h2
			c1.7,0,2.1-1.7,2.1-3.4S161,75.2,159.3,75.2z"/>
		<path class="st5" d="M164,74.4h1v8.3h-1V74.4z"/>
		<path class="st5" d="M166.7,78.6c0-2.7,0.7-4.3,3.3-4.3s3.3,1.6,3.3,4.3s-0.7,4.2-3.3,4.2S166.7,81.4,166.7,78.6z M172.3,78.6
			c0-2.2-0.4-3.5-2.3-3.5s-2.3,1.2-2.3,3.5s0.4,3.4,2.3,3.4S172.3,80.9,172.3,78.6z"/>
		<path class="st5" d="M174.9,74.4h1.7l3.2,7.5h0.3v-7.5h0.9v8.3h-1.7l-3.2-7.5h-0.2v7.5H175L174.9,74.4z"/>
		<path class="st5" d="M184.6,74.4h2l2.3,8.3H188l-0.6-2.1h-3.6l-0.6,2.1h-0.9L184.6,74.4z M184,79.7h3.1l-1.3-4.6h-0.6L184,79.7z"
			/>
		<path class="st5" d="M190.2,82.7v-8.3h0.9v7.5h3.6v0.8L190.2,82.7z"/>
		<path class="st5" d="M195.9,74.4h5v0.8h-4.1v2.9h3.4v0.8h-3.4v3h4.2v0.8h-5L195.9,74.4z"/>
		<text transform="matrix(1 0 0 1 123.4 81.55)" class="st15 st16">-</text>
	</g>
	<g>
		<path class="st5" d="M81.5,250.8h6v0.8H85v7.5h-0.9v-7.5h-2.6V250.8z"/>
		<path class="st5" d="M88.1,255c0-2.7,0.7-4.3,3.3-4.3s3.3,1.6,3.3,4.3c0,2.7-0.7,4.2-3.3,4.2S88.1,257.8,88.1,255z M93.7,255
			c0-2.2-0.4-3.5-2.3-3.5s-2.3,1.2-2.3,3.5c0,2.3,0.4,3.4,2.3,3.4S93.7,257.3,93.7,255z"/>
		<path class="st5" d="M101,251.7c0,0-1.7-0.2-2.4-0.2c-1.2,0-1.8,0.4-1.8,1.4s0.6,1.3,2,1.6c1.7,0.4,2.4,0.8,2.4,2.2
			c0,1.8-1,2.5-2.6,2.5c-0.9,0-1.7-0.1-2.6-0.3l0.1-0.8c0,0,1.6,0.2,2.5,0.2c1.2,0,1.8-0.5,1.8-1.7c0-0.9-0.5-1.2-1.9-1.5
			c-1.7-0.4-2.6-0.8-2.6-2.4s1.1-2.2,2.7-2.2c0.8,0,1.7,0.1,2.5,0.2L101,251.7z"/>
		<path class="st5" d="M107.9,258.9c-0.8,0.1-1.5,0.2-2.3,0.3c-2.5,0-3-1.5-3-4.3s0.5-4.3,3-4.3c0.8,0,1.5,0.1,2.3,0.3v0.8
			c-0.7-0.1-1.5-0.2-2.2-0.2c-1.8,0-2.2,1.1-2.2,3.5c0,2.4,0.3,3.4,2.2,3.4c0.7,0,1.4-0.1,2.1-0.2L107.9,258.9L107.9,258.9z"/>
		<path class="st5" d="M110.9,250.8h2l2.3,8.3h-0.9l-0.6-2.1h-3.6l-0.6,2.1h-0.9L110.9,250.8z M110.4,256.1h3.1l-1.3-4.6h-0.6
			L110.4,256.1z"/>
		<path class="st5" d="M116.5,250.8h1.7l3.2,7.5h0.2v-7.5h1v8.3H121l-3.3-7.5h-0.2v7.5h-0.9L116.5,250.8z"/>
		<path class="st5" d="M124.3,255c0-2.7,0.7-4.3,3.3-4.3s3.3,1.6,3.3,4.3c0,2.7-0.7,4.2-3.3,4.2S124.3,257.8,124.3,255z M129.9,255
			c0-2.2-0.4-3.5-2.3-3.5s-2.3,1.2-2.3,3.5c0,2.3,0.4,3.4,2.3,3.4C129.5,258.4,129.9,257.3,129.9,255z"/>
	</g>
	<g>
		<path class="st5" d="M82.4,314.8H84l2.4,7l2.3-7h1.7v8.3h-0.9v-7.3h-0.2l-2.4,7h-1l-2.4-7h-0.2v7.3h-0.9V314.8z"/>
		<path class="st5" d="M92.5,314.8h5v0.8h-4.1v2.9h3.4v0.8h-3.4v3h4.1v0.8h-5V314.8z"/>
		<path class="st5" d="M100,319.9v3.2h-0.9v-8.3h3.1c1.7,0,2.6,0.8,2.6,2.5c0.1,1.1-0.5,2.1-1.5,2.4l1.6,3.4h-1l-1.5-3.2H100z
			 M102.2,315.6H100v3.5h2.2c1.3,0,1.7-0.7,1.7-1.8c0.1-0.8-0.4-1.6-1.2-1.7H102.2z"/>
		<path class="st5" d="M106.5,314.8h0.9v8.3h-0.9V314.8z"/>
		<path class="st5" d="M109.4,323.1v-8.3h3c2.4,0,3.1,1.7,3.1,4s-0.6,4.3-3.1,4.3H109.4z M112.4,315.6h-2v6.7h2
			c1.7,0,2.1-1.7,2.1-3.4C114.6,317,114.1,315.6,112.4,315.6L112.4,315.6z"/>
		<path class="st5" d="M117.2,314.8h0.9v8.3h-0.9V314.8z"/>
		<path class="st5" d="M119.8,319c0-2.7,0.7-4.3,3.3-4.3s3.3,1.5,3.3,4.3s-0.7,4.2-3.3,4.2S119.8,321.8,119.8,319z M125.4,319
			c0-2.2-0.4-3.5-2.3-3.5s-2.3,1.2-2.3,3.5s0.4,3.4,2.3,3.4S125.4,321.3,125.4,319z"/>
		<path class="st5" d="M128,314.8h1.7l3.2,7.5h0.3v-7.5h0.9v8.3h-1.7l-3.2-7.5H129v7.5h-1V314.8z"/>
		<path class="st5" d="M137.7,314.8h2l2.3,8.3h-1l-0.6-2.1h-3.6l-0.6,2.1h-0.9L137.7,314.8z M137.1,320.1h3.1l-1.3-4.6h-0.6
			L137.1,320.1z"/>
		<path class="st5" d="M143.3,323.1v-8.3h0.9v7.5h3.6v0.8H143.3z"/>
		<path class="st5" d="M149.1,314.8h5v0.8H150v2.9h3.4v0.8H150v3h4.1v0.8h-5V314.8z"/>
		<path class="st5" d="M158.3,314.8h0.9v8.3h-0.9V314.8z"/>
		<path class="st5" d="M161.3,314.8h1.7l3.2,7.5h0.3v-7.5h0.9v8.3h-1.7l-3.2-7.5h-0.2v7.5h-0.9L161.3,314.8z"/>
		<path class="st5" d="M168.5,314.8h6v0.8H172v7.5h-0.9v-7.5h-2.6V314.8z"/>
		<path class="st5" d="M175.7,314.8h5v0.8h-4v2.9h3.4v0.8h-3.4v3h4.1v0.8h-5L175.7,314.8z"/>
		<path class="st5" d="M183.3,319.9v3.2h-0.9v-8.3h3.1c1.7,0,2.6,0.8,2.6,2.5c0.1,1.1-0.5,2.1-1.5,2.4l1.6,3.4h-1l-1.5-3.2H183.3z
			 M185.4,315.6h-2.1v3.5h2.2c1.3,0,1.7-0.7,1.7-1.8c0.1-0.8-0.4-1.6-1.2-1.7H185.4z"/>
		<path class="st5" d="M189.7,314.8h1.7l2.4,7l2.4-7h1.7v8.3H197v-7.3h-0.2l-2.4,7h-1l-2.4-7h-0.2v7.3h-0.9L189.7,314.8z"/>
		<path class="st5" d="M199.8,314.8h5v0.8h-4.1v2.9h3.4v0.8h-3.4v3h4.1v0.8h-5V314.8z"/>
		<path class="st5" d="M206.5,323.1v-8.3h3c2.4,0,3.1,1.7,3.1,4s-0.6,4.3-3.1,4.3H206.5z M209.5,315.6h-2v6.7h2
			c1.7,0,2.1-1.7,2.1-3.4C211.6,317,211.1,315.6,209.5,315.6L209.5,315.6z"/>
		<path class="st5" d="M214.2,314.8h0.9v8.3h-0.9V314.8z"/>
		<path class="st5" d="M216.8,319c0-2.7,0.7-4.3,3.3-4.3s3.3,1.5,3.3,4.3s-0.7,4.2-3.3,4.2S216.8,321.8,216.8,319z M222.4,319
			c0-2.2-0.4-3.5-2.3-3.5s-2.3,1.2-2.3,3.5s0.4,3.4,2.3,3.4S222.4,321.3,222.4,319L222.4,319z"/>
	</g>
	<g>
		<rect x="35.3" y="376.6" class="st7" width="36" height="37.5"/>
		<pattern  id="SVGID_3_" xlink:href="#SVGID_1_" patternTransform="matrix(1.85 0 0 -1.85 13557.9131 -47109.9609)">
		</pattern>
		<rect x="35.3" y="376.6" class="st17" width="36" height="37.5"/>
	</g>
	<g>
		<path class="st5" d="M88.4,376.9l-2.2,8.3h-2.1l-2.2-8.3h1l1.9,7.5h0.7l1.9-7.5H88.4z"/>
		<path class="st5" d="M89.7,376.9h5v0.9h-4v2.9h3.4v0.8h-3.4v3h4.1v0.8h-5.1V376.9z"/>
		<path class="st5" d="M96.3,376.9H98l3.2,7.5h0.3v-7.5h0.9v8.3h-1.7l-3.2-7.4h-0.2v7.5h-0.9v-8.4H96.3z"/>
		<path class="st5" d="M104.4,376.9h5v0.9h-4.1v2.9h3.4v0.8h-3.4v3h4.1v0.8h-5V376.9z"/>
		<path class="st5" d="M110.2,376.9h6v0.9h-2.6v7.5h-0.9v-7.5h-2.6L110.2,376.9z"/>
		<path class="st5" d="M116.8,381.1c0-2.7,0.7-4.3,3.3-4.3s3.3,1.6,3.3,4.3s-0.7,4.2-3.3,4.2S116.8,383.9,116.8,381.1z M122.4,381.1
			c0-2.2-0.4-3.5-2.3-3.5s-2.3,1.2-2.3,3.5s0.4,3.4,2.3,3.4S122.4,383.5,122.4,381.1z"/>
	</g>
	<g>
		<path class="st5" d="M279.1,376.6h1.7l2.4,7l2.4-7h1.7v8.3h-0.9v-7.3H286l-2.4,7h-1l-2.4-7H280v7.3h-0.9V376.6z"/>
		<path class="st5" d="M289.1,376.6h5v0.8H290v2.9h3.4v0.8H290v3h4.1v0.8h-5V376.6z"/>
		<path class="st5" d="M296.7,381.7v3.2h-0.9v-8.3h3.1c1.7,0,2.6,0.8,2.6,2.5c0.1,1.1-0.5,2.1-1.5,2.4l1.6,3.4h-1l-1.5-3.2H296.7z
			 M298.8,377.4h-2.1v3.5h2.2c1.3,0,1.7-0.7,1.7-1.8c0.1-0.8-0.4-1.6-1.2-1.7c0,0,0,0-0.1,0H298.8z"/>
		<path class="st5" d="M303.2,376.6h0.9v8.3h-0.9V376.6z"/>
		<path class="st5" d="M306.1,384.9v-8.3h3c2.4,0,3.1,1.7,3.1,4s-0.6,4.3-3.1,4.3H306.1z M309.1,377.4h-2v6.7h2
			c1.7,0,2.1-1.7,2.1-3.5S310.8,377.4,309.1,377.4z"/>
		<path class="st5" d="M313.9,376.6h0.9v8.3h-0.9V376.6z"/>
		<path class="st5" d="M316.5,380.8c0-2.7,0.7-4.3,3.3-4.3s3.3,1.5,3.3,4.3s-0.7,4.2-3.3,4.2S316.5,383.6,316.5,380.8z M322.1,380.8
			c0-2.2-0.4-3.5-2.3-3.5s-2.3,1.2-2.3,3.5s0.4,3.4,2.3,3.4S322.1,383.1,322.1,380.8z"/>
		<path class="st5" d="M324.7,376.6h1.7l3.2,7.5h0.3v-7.5h0.9v8.3h-1.7l-3.2-7.5h-0.2v7.5h-0.9L324.7,376.6z"/>
		<path class="st5" d="M334.4,376.6h2l2.3,8.3h-0.9l-0.6-2.1h-3.5l-0.6,2.1h-0.9L334.4,376.6z M333.8,381.9h3.1l-1.3-4.6H335
			L333.8,381.9z"/>
		<path class="st5" d="M340,384.9v-8.3h0.9v7.5h3.6v0.8H340z"/>
		<path class="st5" d="M345.8,376.6h5v0.8h-4.1v2.9h3.4v0.8h-3.4v3h4.1v0.8h-5V376.6z"/>
		<path class="st5" d="M355,376.6h5v0.8h-4.1v2.9h3.4v0.8h-3.4v3h4.1v0.8h-5V376.6z"/>
		<path class="st5" d="M366.3,377.5c0,0-1.7-0.2-2.4-0.2c-1.2,0-1.8,0.4-1.8,1.4s0.6,1.3,2,1.6c1.7,0.4,2.4,0.8,2.4,2.2
			c0.2,1.3-0.7,2.4-2,2.6c-0.2,0-0.4,0-0.6,0c-0.9,0-1.7-0.1-2.6-0.3l0.1-0.8c0,0,1.6,0.2,2.5,0.2c1.2,0,1.8-0.5,1.8-1.7
			c0-0.9-0.5-1.2-1.9-1.5c-1.7-0.4-2.6-0.8-2.6-2.4s1-2.2,2.7-2.2c0.8,0,1.7,0.1,2.5,0.2L366.3,377.5z"/>
		<path class="st5" d="M367.3,376.6h6v0.8h-2.5v7.5h-0.9v-7.5h-2.6V376.6z"/>
		<path class="st5" d="M375.4,381.7v3.2h-0.9v-8.3h3.1c1.7,0,2.6,0.8,2.6,2.5c0.1,1.1-0.5,2.1-1.5,2.4l1.6,3.4h-1l-1.5-3.2H375.4z
			 M377.5,377.4h-2.1v3.5h2.2c1.3,0,1.7-0.7,1.7-1.8c0.1-0.8-0.4-1.6-1.2-1.7H377.5z"/>
		<path class="st5" d="M381.8,376.6h5v0.8h-4.1v2.9h3.4v0.8h-3.4v3h4.1v0.8h-5V376.6z"/>
		<path class="st5" d="M388.5,376.6h1.7l2.4,7l2.4-7h1.7v8.3h-0.9v-7.3h-0.2l-2.4,7h-1l-2.4-7h-0.2v7.3h-0.9L388.5,376.6z"/>
		<path class="st5" d="M398.2,380.8c0-2.7,0.7-4.3,3.3-4.3s3.3,1.5,3.3,4.3s-0.7,4.2-3.3,4.2S398.2,383.6,398.2,380.8z M403.8,380.8
			c0-2.2-0.4-3.5-2.3-3.5s-2.3,1.2-2.3,3.5s0.4,3.4,2.3,3.4S403.8,383.1,403.8,380.8L403.8,380.8z"/>
	</g>
	<g>
		<path class="st5" d="M279.4,187.7h5v0.9h-4v3.2h3.4v0.8h-3.4v3.4h-1V187.7z"/>
		<path class="st5" d="M286.6,192.8v3.2h-0.9v-8.3h3.1c1.7,0,2.6,0.8,2.6,2.5c0.1,1.1-0.5,2.1-1.5,2.4l1.6,3.4h-1l-1.5-3.2
			L286.6,192.8z M288.8,188.5h-2.1v3.5h2.2c1.3,0,1.7-0.7,1.7-1.8c0.1-0.8-0.5-1.6-1.3-1.7H288.8z"/>
		<path class="st5" d="M293.1,187.7h0.9v8.3h-0.9V187.7z"/>
		<path class="st5" d="M298.9,195.3c1.3,0,2-0.5,2-1.8v-5.8h0.9v5.8c0,1.9-1,2.6-2.9,2.6s-2.9-0.7-2.9-2.6v-5.8h0.9v5.8
			C296.9,194.8,297.6,195.3,298.9,195.3z"/>
		<path class="st5" d="M303.8,196v-8.3h0.9v7.5h3.7v0.8H303.8z"/>
		<path class="st5" d="M311.1,187.7h2l2.3,8.3h-0.9l-0.6-2.1h-3.5l-0.6,2.1h-0.9L311.1,187.7z M310.5,193h3.1l-1.3-4.5h-0.6
			L310.5,193z"/>
		<path class="st5" d="M316.7,187.7h1.7l3.2,7.5h0.3v-7.5h0.9v8.3h-1.6l-3.2-7.4h-0.2v7.5h-0.9v-8.4L316.7,187.7z"/>
		<path class="st5" d="M324.5,191.9c0-2.7,0.7-4.3,3.3-4.3s3.3,1.6,3.3,4.3s-0.7,4.2-3.3,4.2S324.5,194.6,324.5,191.9z M330.1,191.9
			c0-2.2-0.4-3.5-2.3-3.5s-2.3,1.2-2.3,3.5s0.4,3.4,2.3,3.4S330.1,194.2,330.1,191.9z"/>
	</g>
	<g>
		<path class="st5" d="M277.6,129.5v2.8h-0.9V124h3c1.3-0.2,2.5,0.7,2.7,2c0,0.2,0,0.4,0,0.7c0,1.8-0.8,2.8-2.7,2.8H277.6z
			 M279.7,128.7c1.2,0,1.7-0.7,1.7-2s-0.5-1.9-1.7-1.9h-2.1v3.9H279.7z"/>
		<path class="st5" d="M284.7,129.1v3.2h-0.9V124h3.1c1.7,0,2.6,0.8,2.6,2.5c0.1,1.1-0.5,2.1-1.5,2.4l1.6,3.4h-1l-1.5-3.2
			L284.7,129.1z M286.8,124.8h-2.2v3.5h2.2c1.3,0,1.7-0.7,1.7-1.8c0.1-0.8-0.4-1.6-1.2-1.7H286.8z"/>
		<path class="st5" d="M290.8,128.2c0-2.7,0.7-4.3,3.3-4.3s3.3,1.6,3.3,4.3c0,2.7-0.7,4.2-3.3,4.2S290.8,131,290.8,128.2z
			 M296.4,128.2c0-2.2-0.4-3.5-2.3-3.5s-2.3,1.2-2.3,3.5s0.4,3.4,2.3,3.4S296.4,130.5,296.4,128.2z"/>
		<path class="st5" d="M304.6,124l-2.2,8.3h-2.1l-2.2-8.3h1l1.9,7.5h0.7l1.9-7.5H304.6z"/>
		<path class="st5" d="M305.9,124h5v0.8h-4.1v2.9h3.4v0.8h-3.4v3h4.1v0.8h-5V124z"/>
		<path class="st5" d="M312.5,124h1.7l3.2,7.5h0.3V124h0.9v8.3h-1.7l-3.2-7.5h-0.2v7.5h-0.9L312.5,124z"/>
		<path class="st5" d="M320.1,124h5.4v1.1l-4.3,6.2v0.2h4.3v0.8h-5.4v-1.1l4.3-6.2v-0.3h-4.3V124z"/>
		<path class="st5" d="M328.6,124h2l2.3,8.3H332l-0.6-2.1h-3.5l-0.6,2.1h-0.9L328.6,124z M328.1,129.3h3.1l-1.3-4.5h-0.6
			L328.1,129.3z"/>
		<path class="st5" d="M334.2,132.3V124h0.9v7.5h3.7v0.8H334.2z"/>
		<path class="st5" d="M339.9,124h5v0.8h-4v2.9h3.4v0.8h-3.4v3h4.1v0.8h-5L339.9,124z"/>
	</g>
	<g>
		<path class="st5" d="M84.8,124.9c0,0-1.7-0.2-2.4-0.2c-1.2,0-1.8,0.4-1.8,1.4s0.6,1.3,2,1.6c1.7,0.4,2.4,0.8,2.4,2.2
			c0.2,1.3-0.7,2.4-2,2.6c-0.2,0-0.4,0-0.6,0c-0.9,0-1.7-0.1-2.6-0.3l0.1-0.8c0,0,1.6,0.2,2.5,0.2c1.2,0,1.8-0.5,1.8-1.7
			c0-0.9-0.5-1.2-1.9-1.5c-1.7-0.4-2.6-0.8-2.6-2.4s1.1-2.2,2.7-2.2c0.8,0,1.7,0.1,2.5,0.2L84.8,124.9z"/>
		<path class="st5" d="M86.7,132.3V124h0.9v7.5h3.6v0.8H86.7z"/>
		<path class="st5" d="M91.8,128.2c0-2.7,0.7-4.3,3.3-4.3s3.3,1.6,3.3,4.3c0,2.7-0.7,4.2-3.3,4.2S91.8,131,91.8,128.2z M97.4,128.2
			c0-2.2-0.4-3.5-2.3-3.5s-2.3,1.2-2.3,3.5s0.4,3.4,2.3,3.4S97.5,130.5,97.4,128.2z"/>
		<path class="st5" d="M105.6,124l-2.2,8.3h-2.1l-2.2-8.3h1l1.9,7.5h0.7l1.9-7.5H105.6z"/>
		<path class="st5" d="M106.9,124h5v0.8h-4.1v2.9h3.4v0.8h-3.4v3h4.1v0.8h-5V124z"/>
		<path class="st5" d="M113.6,124h1.7l3.2,7.5h0.3V124h0.9v8.3H118l-3.2-7.5h-0.2v7.5h-0.9L113.6,124z"/>
		<path class="st5" d="M121.4,128.2c0-2.7,0.7-4.3,3.3-4.3s3.3,1.6,3.3,4.3c0,2.7-0.7,4.2-3.3,4.2S121.4,131,121.4,128.2z
			 M127,128.2c0-2.2-0.4-3.5-2.3-3.5s-2.3,1.2-2.3,3.5s0.4,3.4,2.3,3.4S127,130.5,127,128.2z"/>
	</g>
	<g>
		<path class="st5" d="M79.4,188h5v0.8h-4v3.2h3.3v0.8h-3.4v3.4h-0.9V188z"/>
		<path class="st5" d="M86.7,193.1v3.2h-0.9V188h3.1c1.7,0,2.6,0.8,2.6,2.5c0.1,1.1-0.5,2.1-1.5,2.4l1.6,3.4h-1l-1.5-3.2L86.7,193.1
			z M88.8,188.8h-2.1v3.5h2.2c1.3,0,1.7-0.7,1.7-1.8c0.1-0.8-0.4-1.6-1.2-1.7H88.8z"/>
		<path class="st5" d="M94.6,188h2l2.3,8.3H98l-0.6-2.1h-3.5l-0.6,2.1h-0.9L94.6,188z M94,193.3h3.1l-1.3-4.6h-0.6L94,193.3z"/>
		<path class="st5" d="M100.2,188h1.7l3.2,7.5h0.3V188h0.9v8.3h-1.7l-3.2-7.5h-0.2v7.5h-0.9L100.2,188z"/>
		<path class="st5" d="M113.3,196.2c-0.8,0.1-1.5,0.2-2.3,0.3c-2.5,0-3-1.5-3-4.3s0.5-4.3,3-4.3c0.8,0,1.5,0.1,2.3,0.3v0.8
			c-0.7-0.1-1.5-0.2-2.2-0.2c-1.9,0-2.2,1.1-2.2,3.5s0.3,3.4,2.2,3.4c0.7,0,1.4-0.1,2.1-0.2L113.3,196.2L113.3,196.2z"/>
		<path class="st5" d="M114.4,192.2c0-2.7,0.7-4.3,3.3-4.3s3.3,1.6,3.3,4.3s-0.7,4.2-3.3,4.2S114.4,195,114.4,192.2z M120,192.2
			c0-2.2-0.4-3.5-2.3-3.5s-2.3,1.2-2.3,3.5s0.4,3.4,2.3,3.4S120,194.5,120,192.2z"/>
		<path class="st5" d="M123.2,193.5v2.8h-0.9V188h3c1.3-0.2,2.5,0.7,2.7,2c0,0.2,0,0.4,0,0.7c0,1.8-0.8,2.8-2.7,2.8H123.2z
			 M125.3,192.7c1.2,0,1.7-0.7,1.7-2s-0.5-1.9-1.7-1.9h-2.1v3.9H125.3z"/>
		<path class="st5" d="M130.3,193.1v3.2h-0.9V188h3.1c1.7,0,2.7,0.8,2.7,2.5c0.1,1.1-0.5,2.1-1.5,2.4l1.6,3.4h-1l-1.5-3.2
			L130.3,193.1z M132.5,188.8h-2.2v3.5h2.2c1.3,0,1.7-0.7,1.7-1.8c0.1-0.8-0.4-1.6-1.2-1.7H132.5z"/>
		<path class="st5" d="M136.5,192.2c0-2.7,0.7-4.3,3.3-4.3s3.3,1.6,3.3,4.3s-0.7,4.2-3.3,4.2S136.5,195,136.5,192.2z M142.1,192.2
			c0-2.2-0.4-3.5-2.3-3.5s-2.3,1.2-2.3,3.5s0.4,3.4,2.3,3.4S142.1,194.5,142.1,192.2z"/>
		<path class="st5" d="M150.2,188l-2.2,8.3h-2l-2.2-8.3h1l1.9,7.5h0.7l1.9-7.5H150.2z"/>
		<path class="st5" d="M151.6,188h5v0.8h-4.1v2.9h3.4v0.8h-3.4v3h4.1v0.8h-5V188z"/>
		<path class="st5" d="M158.2,188h1.7l3.2,7.5h0.3V188h0.9v8.3h-1.7l-3.2-7.5h-0.2v7.5h-0.9V188H158.2z"/>
		<path class="st5" d="M165.8,188h5.4v1.1l-4.3,6.2v0.2h4.3v0.8h-5.4v-1.1l4.3-6.2v-0.3h-4.3V188z"/>
		<path class="st5" d="M174.3,188h2l2.3,8.3h-0.9l-0.6-2.1h-3.5l-0.6,2.1h-1L174.3,188z M173.7,193.3h3.1l-1.3-4.6H175L173.7,193.3z
			"/>
		<path class="st5" d="M179.9,196.3V188h0.9v7.5h3.7v0.8H179.9z"/>
		<path class="st5" d="M185.6,188h5v0.8h-4.1v2.9h3.4v0.8h-3.4v3h4.1v0.8h-5V188z"/>
	</g>
	<g>
		<path class="st5" d="M283.7,254.8h2.3v4.1c-0.9,0.2-1.8,0.3-2.7,0.3c-2.5,0-3.2-1.6-3.2-4.3s0.7-4.3,3.2-4.3
			c0.9,0,1.8,0.1,2.7,0.3v0.8l-2.6-0.3c-1.9,0-2.3,1.1-2.3,3.5c0,2.4,0.4,3.4,2.3,3.4c0.6,0,1.1-0.1,1.7-0.2v-2.6h-1.4V254.8z"/>
		<path class="st5" d="M289.3,250.8h2l2.3,8.3h-0.9l-0.6-2.1h-3.5l-0.6,2.1h-1L289.3,250.8z M288.8,256.1h3.1l-1.2-4.6H290
			L288.8,256.1z"/>
		<path class="st5" d="M294.9,259.1v-8.3h0.9v7.5h3.6v0.8L294.9,259.1z"/>
		<path class="st5" d="M300.7,259.1v-8.3h0.9v7.5h3.6v0.8L300.7,259.1z"/>
		<path class="st5" d="M305.8,255c0-2.7,0.7-4.3,3.3-4.3s3.3,1.6,3.3,4.3c0,2.7-0.7,4.2-3.3,4.2S305.8,257.8,305.8,255z M311.4,255
			c0-2.2-0.4-3.5-2.3-3.5s-2.3,1.2-2.3,3.5c0,2.3,0.4,3.4,2.3,3.4S311.4,257.3,311.4,255z"/>
		<path class="st5" d="M320.7,250.8h0.9v8.3h-0.9V250.8z"/>
		<path class="st5" d="M322.8,250.8h6v0.8h-2.5v7.5h-0.9v-7.5h-2.5L322.8,250.8z"/>
		<path class="st5" d="M331,250.8h2l2.3,8.3h-0.9l-0.6-2.1h-3.5l-0.6,2.1h-0.9L331,250.8z M330.4,256.1h3.1l-1.3-4.6h-0.6
			L330.4,256.1z"/>
		<path class="st5" d="M336.6,259.1v-8.3h0.9v7.5h3.6v0.8L336.6,259.1z"/>
		<path class="st5" d="M342.3,250.8h0.9v8.3h-0.9V250.8z"/>
		<path class="st5" d="M350.3,258.9c-0.8,0.1-1.5,0.2-2.3,0.3c-2.5,0-3-1.5-3-4.3s0.5-4.3,3-4.3c0.8,0,1.5,0.1,2.3,0.3v0.8
			c-0.7-0.1-1.5-0.2-2.2-0.2c-1.9,0-2.2,1.1-2.2,3.5c0,2.4,0.3,3.4,2.2,3.4c0.7,0,1.4-0.1,2.1-0.2v0.7H350.3z"/>
		<path class="st5" d="M351.3,255c0-2.7,0.7-4.3,3.3-4.3s3.3,1.6,3.3,4.3c0,2.7-0.7,4.2-3.3,4.2S351.3,257.8,351.3,255z M356.9,255
			c0-2.2-0.4-3.5-2.3-3.5s-2.3,1.2-2.3,3.5c0,2.3,0.4,3.4,2.3,3.4S356.9,257.3,356.9,255z"/>
		<text transform="matrix(1 0 0 1 313.9 258.3)" class="st15 st16">-</text>
	</g>
	<g>
		<path class="st5" d="M280.4,323.1v-8.3h0.9v7.5h3.6v0.8H280.4z"/>
		<path class="st5" d="M287.7,314.8h2l2.3,8.3h-1l-0.6-2.1h-3.5l-0.6,2.1h-0.9L287.7,314.8z M287.1,320.1h3.1l-1.3-4.6h-0.6
			L287.1,320.1z"/>
		<path class="st5" d="M293.3,323.1v-8.3h3c2.4,0,3.1,1.7,3.1,4s-0.6,4.3-3.1,4.3H293.3z M296.3,315.6h-2v6.7h2
			c1.7,0,2.1-1.7,2.1-3.4C298.4,317,298,315.6,296.3,315.6L296.3,315.6z"/>
		<path class="st5" d="M301,314.8h0.9v8.3H301V314.8z"/>
		<path class="st5" d="M304,314.8h1.7l3.2,7.5h0.3v-7.5h0.9v8.3h-1.7l-3.2-7.5H305v7.5h-0.9L304,314.8z"/>
		<path class="st5" d="M311.7,319c0-2.7,0.7-4.3,3.3-4.3s3.3,1.5,3.3,4.3s-0.7,4.2-3.3,4.2S311.7,321.8,311.7,319z M317.3,319
			c0-2.2-0.4-3.5-2.3-3.5s-2.3,1.2-2.3,3.5s0.4,3.4,2.3,3.4S317.3,321.3,317.3,319L317.3,319z"/>
		<path class="st5" d="M281.9,329.2h2l2.3,8.3h-0.9l-0.6-2.1h-3.5l-0.6,2.1h-0.9L281.9,329.2z M281.4,334.5h3.1l-1.3-4.5h-0.6
			L281.4,334.5z"/>
		<path class="st5" d="M286.1,329.2h6v0.8h-2.5v7.5h-0.9V330h-2.5L286.1,329.2z"/>
		<path class="st5" d="M293.3,329.2h5v0.8h-4.1v2.9h3.4v0.8h-3.4v3h4.1v0.8h-5V329.2z"/>
		<path class="st5" d="M304.5,330.1c0,0-1.7-0.2-2.4-0.2c-1.2,0-1.8,0.4-1.8,1.4s0.6,1.3,2,1.6c1.7,0.4,2.4,0.8,2.4,2.2
			c0,1.8-1,2.5-2.6,2.5c-0.9,0-1.7-0.1-2.6-0.3l0.1-0.8c0,0,1.6,0.2,2.5,0.2c1.2,0,1.8-0.5,1.8-1.7c0-0.9-0.5-1.2-1.9-1.5
			c-1.7-0.4-2.6-0.8-2.6-2.4s1-2.2,2.7-2.2c0.8,0,1.7,0.1,2.5,0.2L304.5,330.1z"/>
		<path class="st5" d="M306.4,329.2h0.9v8.3h-0.9V329.2z"/>
		<path class="st5" d="M309.3,329.2h1.7l3.2,7.5h0.3v-7.5h0.9v8.3h-1.7l-3.2-7.5h-0.2v7.5h-0.9L309.3,329.2z"/>
		<path class="st5" d="M317.1,333.4c0-2.7,0.7-4.3,3.3-4.3s3.3,1.6,3.3,4.3s-0.7,4.2-3.3,4.2S317.1,336.1,317.1,333.4z M322.7,333.4
			c0-2.2-0.4-3.5-2.3-3.5s-2.3,1.2-2.3,3.5s0.4,3.4,2.3,3.4S322.7,335.7,322.7,333.4z"/>
		<path class="st5" d="M328,329.2h5v0.8h-4.1v2.9h3.4v0.8h-3.4v3h4.1v0.8h-5V329.2z"/>
		<path class="st5" d="M342.3,337.3c-0.8,0.1-1.5,0.2-2.3,0.3c-2.5,0-3-1.5-3-4.3s0.5-4.3,3-4.3c0.8,0,1.5,0.1,2.3,0.3v0.8
			c-0.7-0.1-1.5-0.2-2.2-0.2c-1.9,0-2.2,1.1-2.2,3.5s0.3,3.4,2.2,3.4c0.7,0,1.4-0.1,2.1-0.2v0.7L342.3,337.3z"/>
		<path class="st5" d="M345.4,329.2h2l2.3,8.3h-0.9l-0.6-2.1h-3.5l-0.6,2.1h-0.9L345.4,329.2z M344.8,334.5h3.1l-1.3-4.5H346
			L344.8,334.5z"/>
		<path class="st5" d="M351,337.5v-8.3h3c2.4,0,3.1,1.7,3.1,4s-0.6,4.3-3.1,4.3H351z M354,330h-2v6.7h2c1.7,0,2.1-1.7,2.1-3.5
			S355.7,330,354,330z"/>
		<path class="st5" d="M358.4,333.4c0-2.7,0.7-4.3,3.3-4.3s3.3,1.6,3.3,4.3s-0.7,4.2-3.3,4.2S358.4,336.1,358.4,333.4z M364,333.4
			c0-2.2-0.4-3.5-2.3-3.5s-2.3,1.2-2.3,3.5s0.4,3.4,2.4,3.4S364,335.7,364,333.4L364,333.4z"/>
		<path class="st5" d="M367.5,334.3v3.2h-0.9v-8.3h3c1.7,0,2.6,0.8,2.6,2.5c0.1,1.1-0.5,2.1-1.5,2.4l1.6,3.4h-1l-1.5-3.2H367.5z
			 M369.7,330h-2.1v3.5h2.1c1.3,0,1.7-0.7,1.7-1.8c0.1-0.8-0.4-1.6-1.2-1.7c0,0,0,0-0.1,0H369.7z"/>
		<path class="st5" d="M374,329.2h0.9v8.3H374V329.2z"/>
		<path class="st5" d="M377,329.2h1.7l3.2,7.5h0.3v-7.5h0.9v8.3h-1.7l-3.2-7.5H378v7.5h-0.9L377,329.2z"/>
		<path class="st5" d="M384.7,333.4c0-2.7,0.7-4.3,3.3-4.3s3.3,1.6,3.3,4.3s-0.7,4.2-3.3,4.2S384.7,336.1,384.7,333.4z M390.3,333.4
			c0-2.2-0.4-3.5-2.3-3.5s-2.3,1.2-2.3,3.5s0.4,3.4,2.3,3.4S390.3,335.7,390.3,333.4L390.3,333.4z"/>
	</g>
	<rect x="34.1" y="439.3" class="st18" width="36" height="37.5"/>
	<rect x="232.4" y="440.5" class="st10" width="36" height="37.5"/>
	<g>
		<path class="st5" d="M87,441.7c0,0-1.7-0.2-2.4-0.2c-1.2,0-1.8,0.4-1.8,1.4s0.6,1.3,2,1.6c1.7,0.4,2.4,0.8,2.4,2.2
			c0,1.8-1,2.5-2.7,2.5c-0.9,0-1.7-0.1-2.6-0.3l0.1-0.8c0,0,1.6,0.2,2.5,0.2c1.2,0,1.8-0.5,1.8-1.7c0-0.9-0.5-1.2-1.8-1.5
			c-1.7-0.4-2.6-0.8-2.6-2.4s1.1-2.2,2.7-2.2c0.8,0,1.7,0.1,2.5,0.2L87,441.7z"/>
		<path class="st5" d="M90.3,440.8h2l2.3,8.3h-0.9l-0.6-2.1h-3.5l-0.6,2.1h-1L90.3,440.8z M89.7,446.1h3.1l-1.2-4.6H91L89.7,446.1z"
			/>
		<path class="st5" d="M96.8,445.9v3.2h-0.9v-8.3H99c1.7,0,2.7,0.8,2.7,2.5c0.1,1.1-0.5,2.1-1.5,2.4l1.6,3.4h-1l-1.5-3.2H96.8z
			 M99,441.6h-2.1v3.5H99c1.3,0,1.7-0.7,1.7-1.8c0.1-0.8-0.4-1.6-1.2-1.7H99z"/>
		<path class="st5" d="M103.3,449.1v-8.3h3c2.4,0,3.1,1.7,3.1,4s-0.6,4.3-3.1,4.3H103.3z M106.3,441.6h-2v6.7h2
			c1.7,0,2.1-1.7,2.1-3.5S108,441.6,106.3,441.6z"/>
		<path class="st5" d="M110.7,445c0-2.7,0.7-4.3,3.3-4.3s3.3,1.5,3.3,4.3s-0.7,4.2-3.3,4.2S110.7,447.8,110.7,445z M116.3,445
			c0-2.2-0.4-3.5-2.3-3.5s-2.3,1.2-2.3,3.5s0.4,3.4,2.3,3.4S116.3,447.3,116.3,445z"/>
		<path class="st5" d="M82.4,463.5v-8.3h0.9v7.5H87v0.8H82.4z"/>
		<path class="st5" d="M98.4,459.2h2.3v4.1c-0.9,0.2-1.8,0.3-2.7,0.3c-2.5,0-3.2-1.6-3.2-4.3s0.7-4.3,3.2-4.3c0.9,0,1.8,0.1,2.7,0.3
			v0.8l-2.6-0.3c-1.9,0-2.3,1.1-2.3,3.5s0.4,3.4,2.3,3.4c0.6,0,1.1-0.1,1.7-0.2V460h-1.4V459.2z"/>
		<path class="st5" d="M105.3,462.8c1.3,0,2-0.5,2-1.8v-5.8h0.9v5.8c0,1.9-1,2.6-2.9,2.6s-2.9-0.7-2.9-2.6v-5.8h0.9v5.8
			c0,1,0.7,1.8,1.7,1.8C105.1,462.8,105.2,462.8,105.3,462.8z"/>
		<path class="st5" d="M110.2,463.5v-8.3h3c2.4,0,3.1,1.7,3.1,4s-0.6,4.3-3.1,4.3H110.2z M113.2,456h-2v6.7h2c1.7,0,2.1-1.7,2.1-3.5
			S114.9,456,113.2,456z"/>
		<path class="st5" d="M117.7,459.4c0-2.7,0.7-4.3,3.3-4.3s3.3,1.5,3.3,4.3s-0.7,4.2-3.3,4.2S117.7,462.1,117.7,459.4z M123.3,459.4
			c0-2.2-0.4-3.5-2.3-3.5s-2.3,1.2-2.3,3.5s0.4,3.4,2.3,3.4S123.3,461.7,123.3,459.4z"/>
		<path class="st5" d="M126.8,460.3v3.2h-0.9v-8.3h3.1c1.7,0,2.6,0.8,2.6,2.5c0.1,1.1-0.5,2.1-1.5,2.4l1.6,3.4h-1l-1.5-3.2H126.8z
			 M129,456h-2.2v3.5h2.2c1.3,0,1.7-0.7,1.7-1.8c0.1-0.8-0.4-1.6-1.2-1.7c0,0,0,0-0.1,0H129z"/>
		<path class="st5" d="M133.3,455.2h5v0.8h-4.1v2.9h3.5v0.8h-3.4v3h4.1v0.8h-5L133.3,455.2z"/>
		<path class="st5" d="M144.6,456.1c0,0-1.7-0.2-2.4-0.2c-1.2,0-1.8,0.4-1.8,1.4s0.6,1.3,2,1.6c1.7,0.4,2.4,0.8,2.4,2.2
			c0,1.8-1,2.5-2.6,2.5c-0.9,0-1.7-0.1-2.6-0.3l0.1-0.8c0,0,1.6,0.2,2.5,0.2c1.2,0,1.8-0.5,1.8-1.7c0-0.9-0.5-1.2-1.9-1.5
			c-1.7-0.4-2.6-0.8-2.6-2.4s1.1-2.2,2.7-2.2c0.8,0,1.7,0.1,2.5,0.2L144.6,456.1z"/>
		<path class="st5" d="M146.4,455.2h5v0.8h-4.1v2.9h3.4v0.8h-3.4v3h4.1v0.8h-5V455.2z"/>
		<path class="st5" d="M155.7,455.2h5v0.8h-4.1v2.9h3.4v0.8h-3.4v3h4.1v0.8h-5L155.7,455.2z"/>
		<path class="st5" d="M170,463.3c-0.8,0.1-1.5,0.2-2.3,0.3c-2.5,0-3-1.5-3-4.3s0.5-4.3,3-4.3c0.8,0,1.5,0.1,2.3,0.3v0.8
			c-0.7-0.1-1.5-0.2-2.2-0.2c-1.9,0-2.2,1.1-2.2,3.5s0.3,3.4,2.2,3.4c0.7,0,1.4-0.1,2.1-0.2L170,463.3L170,463.3z"/>
		<path class="st5" d="M173,455.2h2l2.3,8.3h-0.9l-0.6-2.1h-3.5l-0.6,2.1h-0.9L173,455.2z M172.5,460.5h3.1l-1.3-4.5h-0.6
			L172.5,460.5z"/>
		<path class="st5" d="M178.7,455.2h1.7l2.4,7l2.4-7h1.6v8.3h-0.9v-7.3h-0.2l-2.4,7h-1l-2.4-7h-0.2v7.3h-0.9v-8.3H178.7z"/>
		<path class="st5" d="M189.7,460.7v2.8h-0.9v-8.3h3c1.8,0,2.6,0.9,2.6,2.7s-0.8,2.8-2.6,2.8H189.7z M191.8,459.9
			c1.2,0,1.7-0.7,1.7-2s-0.5-1.9-1.7-1.9h-2.1v3.9H191.8z"/>
		<path class="st5" d="M195.8,455.2h0.9v8.3h-0.9V455.2z"/>
		<path class="st5" d="M198.8,463.5v-8.3h3c2.4,0,3.1,1.7,3.1,4s-0.6,4.3-3.1,4.3H198.8z M201.8,456h-2v6.7h2c1.7,0,2.1-1.7,2.1-3.5
			S203.5,456,201.8,456z"/>
		<path class="st5" d="M206.5,455.2h5v0.8h-4.1v2.9h3.4v0.8h-3.4v3h4.1v0.8h-5V455.2z"/>
		<path class="st5" d="M217.8,456.1c0,0-1.7-0.2-2.4-0.2c-1.2,0-1.8,0.4-1.8,1.4s0.6,1.3,2,1.6c1.7,0.4,2.4,0.8,2.4,2.2
			c0,1.8-1,2.5-2.6,2.5c-0.9,0-1.7-0.1-2.6-0.3l0.1-0.8c0,0,1.6,0.2,2.5,0.2c1.2,0,1.8-0.5,1.8-1.7c0-0.9-0.5-1.2-1.9-1.5
			c-1.7-0.4-2.6-0.8-2.6-2.4s1.1-2.2,2.7-2.2c0.8,0,1.7,0.1,2.5,0.2L217.8,456.1z"/>
		<path class="st5" d="M219.7,455.2h5v0.8h-4.1v2.9h3.4v0.8h-3.4v3h4.1v0.8h-5L219.7,455.2z"/>
		<path class="st5" d="M87.1,459.5c0-2.7,0.7-4.3,3.3-4.3s3.3,1.5,3.3,4.3s-0.7,4.2-3.3,4.2S87.1,462.1,87.1,459.5z M92.7,459.5
			c0-2.2-0.4-3.5-2.3-3.5s-2.3,1.2-2.3,3.5s0.4,3.4,2.3,3.4S92.7,461.8,92.7,459.5z"/>
	</g>
	<g>
		<path class="st5" d="M285,441.7c0,0-1.7-0.2-2.4-0.2c-1.2,0-1.8,0.4-1.8,1.4s0.6,1.3,2,1.6c1.7,0.4,2.4,0.8,2.4,2.2
			c0,1.8-1,2.5-2.6,2.5c-0.9,0-1.7-0.1-2.6-0.3l0.1-0.8c0,0,1.6,0.2,2.5,0.2c1.2,0,1.8-0.5,1.8-1.7c0-0.9-0.5-1.2-1.9-1.5
			c-1.7-0.4-2.6-0.8-2.6-2.4s1-2.2,2.7-2.2c0.8,0,1.7,0.1,2.5,0.2L285,441.7z"/>
		<path class="st5" d="M288.3,440.8h2l2.3,8.3h-0.9l-0.6-2.1h-3.5l-0.6,2.1h-1L288.3,440.8z M287.7,446.1h3.1l-1.2-4.6H289
			L287.7,446.1z"/>
		<path class="st5" d="M298.5,441.7c0,0-1.7-0.2-2.4-0.2c-1.2,0-1.8,0.4-1.8,1.4s0.6,1.3,2,1.6c1.7,0.4,2.4,0.8,2.4,2.2
			c0,1.8-1,2.5-2.6,2.5c-0.9,0-1.7-0.1-2.6-0.3l0.1-0.8c0,0,1.6,0.2,2.5,0.2c1.2,0,1.8-0.5,1.8-1.7c0-0.9-0.5-1.2-1.9-1.5
			c-1.7-0.4-2.6-0.8-2.6-2.4s1.1-2.2,2.7-2.2c0.8,0,1.7,0.1,2.5,0.2L298.5,441.7z"/>
		<path class="st5" d="M305,441.7c0,0-1.7-0.2-2.4-0.2c-1.2,0-1.8,0.4-1.8,1.4s0.6,1.3,2,1.6c1.7,0.4,2.4,0.8,2.4,2.2
			c0,1.8-1,2.5-2.6,2.5c-0.9,0-1.7-0.1-2.6-0.3l0.1-0.8c0,0,1.6,0.2,2.5,0.2c1.2,0,1.8-0.5,1.8-1.7c0-0.9-0.5-1.2-1.9-1.5
			c-1.7-0.4-2.6-0.8-2.6-2.4s1.1-2.2,2.7-2.2c0.8,0,1.7,0.1,2.5,0.2L305,441.7z"/>
		<path class="st5" d="M308.3,440.8h2l2.3,8.3h-0.9l-0.6-2.1h-3.5l-0.6,2.1h-1L308.3,440.8z M307.7,446.1h3.1l-1.3-4.5H309
			L307.7,446.1z"/>
		<path class="st5" d="M314.8,445.9v3.2h-0.9v-8.3h3.1c1.7,0,2.6,0.8,2.6,2.5c0.1,1.1-0.5,2.1-1.5,2.4l1.6,3.4h-1l-1.5-3.2H314.8z
			 M316.9,441.6h-2.1v3.5h2.2c1.3,0,1.7-0.7,1.7-1.8c0.1-0.8-0.4-1.6-1.2-1.7H316.9z"/>
		<path class="st5" d="M321.3,440.8h5v0.8h-4.1v2.9h3.4v0.8h-3.4v3h4.1v0.8h-5V440.8z"/>
		<path class="st5" d="M332.5,441.7c0,0-1.7-0.2-2.4-0.2c-1.2,0-1.8,0.4-1.8,1.4s0.6,1.3,2,1.6c1.7,0.4,2.4,0.8,2.4,2.2
			c0,1.8-1,2.5-2.6,2.5c-0.9,0-1.7-0.1-2.6-0.3l0.1-0.8c0,0,1.6,0.2,2.5,0.2c1.2,0,1.8-0.5,1.8-1.7c0-0.9-0.5-1.2-1.9-1.5
			c-1.7-0.4-2.6-0.8-2.6-2.4s1-2.2,2.7-2.2c0.8,0,1.7,0.1,2.5,0.2L332.5,441.7z"/>
		<path class="st5" d="M334.4,440.8h5v0.8h-4.1v2.9h3.4v0.8h-3.4v3h4.1v0.8h-5V440.8z"/>
		<path class="st5" d="M280.4,455.2h5v0.8h-4.1v2.9h3.4v0.8h-3.4v3h4.1v0.8h-5V455.2z"/>
		<path class="st5" d="M292.9,459.2h2.3v4.1c-0.9,0.2-1.8,0.3-2.7,0.3c-2.5,0-3.2-1.6-3.2-4.3s0.7-4.3,3.2-4.3
			c0.9,0,1.8,0.1,2.7,0.3v0.8l-2.6-0.3c-1.9,0-2.3,1.1-2.3,3.5s0.4,3.4,2.3,3.4c0.6,0,1.1-0.1,1.7-0.2V460h-1.4V459.2z"/>
		<path class="st5" d="M298.6,455.2h2l2.3,8.3H302l-0.6-2.1h-3.5l-0.6,2.1h-0.9L298.6,455.2z M298,460.5h3.1l-1.3-4.5h-0.6
			L298,460.5z"/>
		<path class="st5" d="M304.2,463.5v-8.3h0.9v7.5h3.6v0.8H304.2z"/>
		<path class="st5" d="M309.9,463.5v-8.3h0.9v7.5h3.6v0.8H309.9z"/>
		<path class="st5" d="M318.3,462.8c1.3,0,2-0.5,2-1.8v-5.8h0.9v5.8c0,1.9-1,2.6-2.9,2.6s-2.9-0.7-2.9-2.6v-5.8h0.9v5.8
			c0,1,0.7,1.8,1.7,1.8C318.1,462.8,318.2,462.8,318.3,462.8z"/>
		<path class="st5" d="M324.2,460.3v3.2h-0.9v-8.3h3.1c1.7,0,2.6,0.8,2.6,2.5c0.1,1.1-0.5,2.1-1.5,2.4l1.6,3.4h-1l-1.5-3.2H324.2z
			 M326.3,456h-2.1v3.5h2.2c1.3,0,1.7-0.7,1.7-1.8c0.1-0.8-0.4-1.6-1.2-1.7c0,0,0,0-0.1,0H326.3z"/>
		<path class="st5" d="M330.7,455.2h5v0.8h-4.1v2.9h3.4v0.8h-3.4v3h4.1v0.8h-5V455.2z"/>
		<path class="st5" d="M341.9,456.1c0,0-1.7-0.2-2.4-0.2c-1.2,0-1.8,0.4-1.8,1.4s0.6,1.3,2,1.6c1.7,0.4,2.4,0.8,2.4,2.2
			c0,1.8-1,2.5-2.6,2.5c-0.9,0-1.7-0.1-2.6-0.3l0.1-0.8c0,0,1.6,0.2,2.5,0.2c1.2,0,1.8-0.5,1.8-1.7c0-0.9-0.5-1.2-1.9-1.5
			c-1.7-0.4-2.6-0.8-2.6-2.4s1-2.2,2.7-2.2c0.8,0,1.7,0.1,2.5,0.2L341.9,456.1z"/>
		<path class="st5" d="M343.8,455.2h5v0.8h-4.1v2.9h3.4v0.8h-3.4v3h4.1v0.8h-5V455.2z"/>
	</g>
	<g>
		<rect x="232.2" y="187.4" class="st8" width="36" height="37.5"/>
		<pattern  id="SVGID_7_" xlink:href="#SVGID_2_" patternTransform="matrix(1.85 0 0 -1.85 13251.2451 -46676.6211)">
		</pattern>
		<rect x="231.7" y="188" class="st19" width="36" height="37.5"/>
	</g>
	<g>
		<rect x="232.1" y="376.3" class="st20" width="36" height="37.5"/>
		<pattern  id="SVGID_8_" xlink:href="#New_Pattern_Swatch_1" patternTransform="matrix(1.85 0 0 -1.85 13321.8242 -46779.5508)">
		</pattern>
		<rect x="231.2" y="376.9" class="st21" width="36" height="37.5"/>
	</g>
	<rect x="34.2" y="59.7" class="st9" width="36" height="37.5"/>
	<pattern  id="SVGID_9_" xlink:href="#SVGID_4_" patternTransform="matrix(1.85 0 0 -1.85 13360.2002 -47210.625)">
	</pattern>
	<rect x="34.4" y="60.5" class="st22" width="36" height="37.5"/>
	<pattern  id="SVGID_10_" xlink:href="#SVGID_5_" patternTransform="matrix(1 0 0 -1 2.17 -32578.918)">
	</pattern>
	<rect x="34.1" y="439.3" class="st23" width="36" height="37.5"/>
	<pattern  id="SVGID_11_" xlink:href="#SVGID_6_" patternTransform="matrix(1 0 0 -1 -39.64 -32605.9922)">
	</pattern>
	<rect x="232.1" y="440.3" class="st24" width="36" height="37.5"/>
	<rect x="34.1" y="502.8" class="st25" width="36" height="37.5"/>
	<pattern  id="SVGID_12_" xlink:href="#Crosses_2" patternTransform="matrix(1 0 0 -1 -45.73 -16257.8604)">
	</pattern>
	<rect x="34.1" y="502.8" class="st26" width="36" height="37.5"/>
	<g class="st27">
		<path class="st5" d="M87.2,511.7c-0.6,0.1-1.5,0.3-2.3,0.3c-2.5,0-3-1.5-3-4.2c0-2.8,0.5-4.3,3-4.3c0.9,0,1.8,0.2,2.3,0.3l0,0.8
			c-0.5-0.1-1.5-0.2-2.2-0.2c-1.8,0-2.2,1.1-2.2,3.5c0,2.3,0.3,3.4,2.2,3.4c0.7,0,1.6-0.1,2.1-0.2L87.2,511.7z"/>
	</g>
	<g class="st27">
		<path class="st5" d="M90.3,503.5h2l2.3,8.3h-0.9l-0.6-2.1h-3.6l-0.6,2.1H88L90.3,503.5z M89.7,508.9h3.1l-1.3-4.5H91L89.7,508.9z"
			/>
		<path class="st5" d="M93.9,503.5h6v0.8h-2.5v7.5h-0.9v-7.5h-2.6V503.5z"/>
	</g>
	<g class="st27">
		<path class="st5" d="M102.6,503.5h2l2.3,8.3H106l-0.6-2.1h-3.6l-0.6,2.1h-0.9L102.6,503.5z M102.1,508.9h3.1l-1.3-4.5h-0.6
			L102.1,508.9z"/>
		<path class="st5" d="M108.2,511.8v-8.3h0.9v7.5h3.6v0.8H108.2z"/>
		<path class="st5" d="M115.5,503.5h2l2.3,8.3h-0.9l-0.6-2.1h-3.6l-0.6,2.1h-0.9L115.5,503.5z M115,508.9h3.1l-1.3-4.5h-0.6
			L115,508.9z"/>
		<path class="st5" d="M121.1,503.5h1.7l3.2,7.5h0.3v-7.5h0.9v8.3h-1.7l-3.2-7.5h-0.2v7.5h-0.9V503.5z"/>
		<path class="st5" d="M128.9,507.7c0-2.7,0.7-4.3,3.3-4.3c2.6,0,3.3,1.5,3.3,4.3c0,2.9-0.7,4.2-3.3,4.2S128.9,510.5,128.9,507.7z
			 M134.5,507.7c0-2.2-0.4-3.5-2.3-3.5c-1.9,0-2.3,1.2-2.3,3.5c0,2.3,0.4,3.4,2.3,3.4C134.1,511.1,134.5,510,134.5,507.7z"/>
	</g>
</g>
<g>
	<path d="M276.8,60h6v0.8h-2.5v7.5h-0.9v-7.5h-2.6V60z"/>
	<path d="M284,60h5v0.8h-4.1v2.9h3.4v0.8h-3.4v3h4.1v0.8h-5V60z"/>
	<path d="M290.6,68.3V60h3c2.4,0,3.1,1.7,3.1,4c0,2.3-0.6,4.3-3.1,4.3H290.6z M293.6,60.8h-2v6.7h2c1.7,0,2.1-1.7,2.1-3.5
		S295.3,60.8,293.6,60.8z"/>
	<path d="M298.3,60h5v0.8h-4.1v2.9h3.4v0.8h-3.4v3h4.1v0.8h-5V60z"/>
	<path d="M309.6,60.9c0,0-1.7-0.2-2.4-0.2c-1.2,0-1.8,0.4-1.8,1.4s0.6,1.3,2,1.6c1.7,0.4,2.4,0.8,2.4,2.2c0,1.8-1,2.6-2.7,2.6
		c-0.9,0-1.7-0.1-2.6-0.3l0.1-0.8c0,0,1.6,0.2,2.5,0.2c1.2,0,1.8-0.5,1.8-1.7c0-0.9-0.5-1.2-1.8-1.5c-1.7-0.4-2.6-0.8-2.6-2.4
		s1.1-2.2,2.7-2.2c0.8,0,1.7,0.1,2.5,0.2L309.6,60.9z"/>
	<path d="M316.5,68.2c-0.8,0.2-1.5,0.3-2.3,0.3c-2.5,0-3-1.5-3-4.2s0.5-4.3,3-4.3c0.8,0,1.5,0.1,2.3,0.3v0.8
		c-0.7-0.1-1.5-0.2-2.2-0.2c-1.8,0-2.2,1.1-2.2,3.5s0.3,3.4,2.2,3.4c0.7,0,1.4-0.1,2.1-0.2L316.5,68.2z"/>
	<path d="M317.5,64.2c0-2.7,0.7-4.3,3.3-4.3s3.3,1.5,3.3,4.3c0,2.8-0.7,4.2-3.3,4.2S317.5,67,317.5,64.2z M323.1,64.2
		c0-2.2-0.4-3.5-2.3-3.5s-2.3,1.2-2.3,3.5c0,2.3,0.4,3.4,2.3,3.4S323.1,66.5,323.1,64.2z"/>
</g>
</svg>
