<svg id="Layer_1" data-name="Layer 1" xmlns="http://www.w3.org/2000/svg" xmlns:xlink="http://www.w3.org/1999/xlink" viewBox="0 0 437 556.64">
  <defs>
    <style>
      .cls-1, .cls-2, .cls-3, .cls-4, .cls-6 {
        fill: none;
      }

      .cls-2, .cls-3, .cls-4, .cls-6 {
        stroke: #231f20;
      }

      .cls-2 {
        stroke-width: 0.3px;
      }

      .cls-3 {
        stroke-width: 0.3px;
      }

      .cls-4 {
        stroke-width: 6px;
      }

      .cls-23, .cls-5 {
        fill: #231f20;
      }

      .cls-6 {
        stroke-width: 0.75px;
      }

      .cls-7 {
        fill: #c4e5e0;
      }

      .cls-8 {
        fill: #4c8ba7;
      }

      .cls-9 {
        fill: #97d3be;
      }

      .cls-10 {
        fill: #b0d57c;
      }

      .cls-11 {
        fill: #049176;
      }

      .cls-12 {
        fill: #ce3c96;
      }

      .cls-13 {
        fill: #3b2758;
      }

      .cls-14 {
        fill: #c7da30;
      }

      .cls-15, .cls-23 {
        font-size: 12px;
      }

      .cls-15 {
        font-family: Titillium-Light, Titillium;
      }

      .cls-16 {
        fill: url(#SVGID_1_);
      }

      .cls-17 {
        fill: url(#SVGID_2_);
      }

      .cls-18 {
        fill: #882677;
      }

      .cls-19 {
        fill: url(#SVGID_3_);
      }

      .cls-20 {
        fill: url(#SVGID_4_);
      }

      .cls-21 {
        fill: url(#SVGID_5_);
      }

      .cls-22 {
        fill: url(#SVGID_6_);
      }

      .Graphic-Style-3 {
        fill: #c074af;
      }

      .Graphic-Style-2 {
        fill: url(#Crosses_2);
      }

      .cls-23 {
        font-family: Titillium-Regular, Titillium;
      }

      .cls-24 {
        letter-spacing: -0.05em;
      }
    </style>
    <pattern id="SVGID_1_" data-name="SVGID 1 " width="46.8" height="54" patternTransform="translate(6782.95 23618.66) scale(1.85)" patternUnits="userSpaceOnUse" viewBox="0 0 46.8 54">
      <rect class="cls-1" width="46.8" height="54"/>
      <g>
        <rect class="cls-1" width="46.8" height="54"/>
        <rect class="cls-1" width="46.8" height="54"/>
        <g>
          <circle class="cls-3" cx="39.78" cy="20.9" r="1.5" transform="translate(-5.12 22.69) rotate(-30)"/>
          <circle class="cls-3" cx="38.52" cy="30.66" r="1.5" transform="translate(-7.3 48.68) rotate(-59.98)"/>
          <circle class="cls-3" cx="30.31" cy="17.6" r="1.5" transform="translate(-0.09 35.05) rotate(-60)"/>
          <circle class="cls-3" cx="22.8" cy="22.92" r="1.5" transform="translate(-8.4 14.46) rotate(-29.99)"/>
          <circle class="cls-3" cx="25.58" cy="30.64" r="1.5" transform="translate(-13.75 37.47) rotate(-60)"/>
          <circle class="cls-3" cx="32.5" cy="36" r="1.5"/>
          <circle class="cls-3" cx="7.87" cy="22.88" r="1.5" transform="translate(-15.88 18.25) rotate(-60)"/>
          <circle class="cls-3" cx="8.51" cy="32.01" r="1.5" transform="translate(-14.88 8.56) rotate(-30.04)"/>
          <circle class="cls-3" cx="13.7" cy="17.18" r="1.5" transform="translate(-6.75 9.15) rotate(-29.99)"/>
          <circle class="cls-3" cx="18" cy="35" r="1.5"/>
          <circle class="cls-3" cx="39.7" cy="49.27" r="1.5" transform="translate(-19.32 26.45) rotate(-30)"/>
          <circle class="cls-3" cx="23.99" cy="49.37" r="1.5" transform="translate(-21.47 18.61) rotate(-30)"/>
          <circle class="cls-3" cx="31.2" cy="45" r="1.5"/>
          <circle class="cls-3" cx="7.32" cy="49.62" r="1.5" transform="translate(-39.35 31.24) rotate(-60.11)"/>
          <circle class="cls-3" cx="15.9" cy="43" r="1.5"/>
          <circle class="cls-3" cx="39.03" cy="4.51" r="1.5" transform="translate(15.61 36.06) rotate(-60)"/>
          <circle class="cls-3" cx="31.22" cy="9" r="1.5" transform="translate(-0.32 16.82) rotate(-30)"/>
          <circle class="cls-3" cx="24.11" cy="3.92" r="1.5" transform="translate(8.66 22.84) rotate(-60)"/>
          <circle class="cls-3" cx="7.82" cy="4.5" r="1.5" transform="translate(-1.2 4.51) rotate(-29.99)"/>
          <circle class="cls-3" cx="16.13" cy="7.99" r="1.5" transform="translate(1.15 17.97) rotate(-60)"/>
          <circle class="cls-3" cx="47.6" cy="17.5" r="1.5"/>
          <circle class="cls-3" cx="47.5" cy="45" r="1.5"/>
          <circle class="cls-3" cx="24.58" cy="40.15" r="1.5" transform="translate(-22.48 41.36) rotate(-60)"/>
          <circle class="cls-3" cx="16.08" cy="27.14" r="1.5" transform="translate(-15.47 27.5) rotate(-60)"/>
          <circle class="cls-3" cx="32.32" cy="25.23" r="1.5" transform="translate(-5.69 40.6) rotate(-60)"/>
          <circle class="cls-3" cx="23.3" cy="13.59" r="1.5" transform="translate(-0.12 26.98) rotate(-60)"/>
          <circle class="cls-3" cx="6.81" cy="13.1" r="1.5" transform="translate(-7.94 12.45) rotate(-60)"/>
          <circle class="cls-3" cx="38.9" cy="13.05" r="1.5" transform="translate(8.16 40.22) rotate(-60.01)"/>
          <circle class="cls-3" cx="7.08" cy="40.14" r="1.5" transform="translate(-31.23 26.2) rotate(-60)"/>
          <circle class="cls-3" cx="15.54" cy="52.92" r="1.5" transform="translate(-38.06 39.92) rotate(-60)"/>
          <circle class="cls-3" cx="33.26" cy="53.38" r="1.5" transform="translate(-29.59 55.49) rotate(-60)"/>
          <circle class="cls-3" cx="39.5" cy="41.3" r="1.5"/>
          <circle class="cls-3" cx="46.8" cy="54.8" r="1.5"/>
          <circle class="cls-3" cx="46.5" cy="26.96" r="1.5" transform="translate(-0.09 53.76) rotate(-60.01)"/>
          <circle class="cls-3" cx="47.5" cy="8" r="1.5"/>
          <circle class="cls-3" cx="45.5" cy="36.3" r="1.5"/>
        </g>
        <g>
          <circle class="cls-3" cx="0.8" cy="17.5" r="1.5"/>
          <circle class="cls-3" cx="0.8" cy="45" r="1.5"/>
          <circle class="cls-3" cy="54.8" r="1.5"/>
          <circle class="cls-3" cx="-0.23" cy="27.03" r="1.5" transform="translate(-23.53 13.32) rotate(-60.01)"/>
          <circle class="cls-3" cx="0.8" cy="8" r="1.5"/>
          <circle class="cls-3" cx="-1.3" cy="36.3" r="1.5"/>
        </g>
        <g>
          <circle class="cls-3" cx="15.48" cy="-1.16" r="1.5" transform="translate(8.74 12.82) rotate(-60)"/>
          <circle class="cls-3" cx="33.34" cy="-0.67" r="1.5" transform="translate(17.25 28.54) rotate(-60)"/>
          <circle class="cls-3" cx="46.8" cy="0.8" r="1.5"/>
        </g>
        <circle class="cls-3" cy="0.8" r="1.5"/>
      </g>
    </pattern>
    <pattern id="SVGID_2_" data-name="SVGID 2 " width="72" height="72" patternTransform="translate(6448.65 23241.95) scale(1.85)" patternUnits="userSpaceOnUse" viewBox="0 0 72 72">
      <rect class="cls-1" width="72" height="72"/>
      <g>
        <rect class="cls-1" width="72" height="72"/>
        <rect class="cls-1" width="72" height="72"/>
        <g>
          <line class="cls-4" x1="71.7" y1="66" x2="144.2" y2="66"/>
          <line class="cls-4" x1="71.7" y1="42" x2="144.2" y2="42"/>
          <line class="cls-4" x1="71.7" y1="18" x2="144.2" y2="18"/>
          <line class="cls-4" x1="71.7" y1="54" x2="144.2" y2="54"/>
          <line class="cls-4" x1="71.7" y1="30" x2="144.2" y2="30"/>
          <line class="cls-4" x1="71.7" y1="6" x2="144.2" y2="6"/>
        </g>
        <g>
          <line class="cls-4" x1="-0.3" y1="66" x2="72.2" y2="66"/>
          <line class="cls-4" x1="-0.3" y1="42" x2="72.2" y2="42"/>
          <line class="cls-4" x1="-0.3" y1="18" x2="72.2" y2="18"/>
          <line class="cls-4" x1="-0.3" y1="54" x2="72.2" y2="54"/>
          <line class="cls-4" x1="-0.3" y1="30" x2="72.2" y2="30"/>
          <line class="cls-4" x1="-0.3" y1="6" x2="72.2" y2="6"/>
        </g>
        <g>
          <line class="cls-4" x1="-72.3" y1="66" x2="0.2" y2="66"/>
          <line class="cls-4" x1="-72.3" y1="42" x2="0.2" y2="42"/>
          <line class="cls-4" x1="-72.3" y1="18" x2="0.2" y2="18"/>
          <line class="cls-4" x1="-72.3" y1="54" x2="0.2" y2="54"/>
          <line class="cls-4" x1="-72.3" y1="30" x2="0.2" y2="30"/>
          <line class="cls-4" x1="-72.3" y1="6" x2="0.2" y2="6"/>
        </g>
      </g>
    </pattern>
    <pattern id="SVGID_3_" data-name="SVGID 3 " width="28.8" height="28.8" patternTransform="translate(6512.89 23355.28) scale(1.85)" patternUnits="userSpaceOnUse" viewBox="0 0 28.8 28.8">
      <rect class="cls-1" width="28.8" height="28.8"/>
      <g>
        <rect class="cls-1" width="28.8" height="28.8"/>
        <rect class="cls-1" width="28.8" height="28.8"/>
        <g>
          <circle class="cls-5" cx="28.8" cy="28.8" r="2.2"/>
          <circle class="cls-5" cx="14.4" cy="28.8" r="2.2"/>
          <circle class="cls-5" cx="28.8" cy="14.4" r="2.2"/>
          <circle class="cls-5" cx="14.4" cy="14.4" r="2.2"/>
          <circle class="cls-5" cx="7.2" cy="21.6" r="2.2"/>
          <circle class="cls-5" cx="21.6" cy="21.6" r="2.2"/>
          <circle class="cls-5" cx="7.2" cy="7.2" r="2.2"/>
          <circle class="cls-5" cx="21.6" cy="7.2" r="2.2"/>
        </g>
        <g>
          <circle class="cls-5" cy="28.8" r="2.2"/>
          <circle class="cls-5" cy="14.4" r="2.2"/>
        </g>
        <g>
          <circle class="cls-5" cx="28.8" r="2.2"/>
          <circle class="cls-5" cx="14.4" r="2.2"/>
        </g>
        <circle class="cls-5" r="2.2"/>
      </g>
    </pattern>
    <pattern id="SVGID_4_" data-name="SVGID 4 " width="57.6" height="57.6" patternTransform="translate(6496.15 23710.43) scale(1.85)" patternUnits="userSpaceOnUse" viewBox="0 0 57.6 57.6">
      <rect class="cls-1" width="57.6" height="57.6"/>
      <g>
        <rect class="cls-1" width="57.6" height="57.6"/>
        <rect class="cls-1" width="57.6" height="57.6"/>
        <line class="cls-3" x1="52.5" y1="3.6" x2="55.5" y2="3.6"/>
        <line class="cls-3" x1="38.1" y1="3.6" x2="41.1" y2="3.6"/>
        <line class="cls-3" x1="23.7" y1="3.6" x2="26.7" y2="3.6"/>
        <line class="cls-3" x1="9.3" y1="3.6" x2="12.3" y2="3.6"/>
        <line class="cls-3" x1="45.3" y1="10.8" x2="48.3" y2="10.8"/>
        <line class="cls-3" x1="30.9" y1="10.8" x2="33.9" y2="10.8"/>
        <line class="cls-3" x1="16.5" y1="10.8" x2="19.5" y2="10.8"/>
        <line class="cls-3" x1="2.1" y1="10.8" x2="5.1" y2="10.8"/>
        <line class="cls-3" x1="52.5" y1="18" x2="55.5" y2="18"/>
        <line class="cls-3" x1="38.1" y1="18" x2="41.1" y2="18"/>
        <line class="cls-3" x1="23.7" y1="18" x2="26.7" y2="18"/>
        <line class="cls-3" x1="9.3" y1="18" x2="12.3" y2="18"/>
        <line class="cls-3" x1="45.3" y1="25.2" x2="48.3" y2="25.2"/>
        <line class="cls-3" x1="30.9" y1="25.2" x2="33.9" y2="25.2"/>
        <line class="cls-3" x1="16.5" y1="25.2" x2="19.5" y2="25.2"/>
        <line class="cls-3" x1="2.1" y1="25.2" x2="5.1" y2="25.2"/>
        <line class="cls-3" x1="52.5" y1="32.4" x2="55.5" y2="32.4"/>
        <line class="cls-3" x1="38.1" y1="32.4" x2="41.1" y2="32.4"/>
        <line class="cls-3" x1="23.7" y1="32.4" x2="26.7" y2="32.4"/>
        <line class="cls-3" x1="9.3" y1="32.4" x2="12.3" y2="32.4"/>
        <line class="cls-3" x1="45.3" y1="39.6" x2="48.3" y2="39.6"/>
        <line class="cls-3" x1="30.9" y1="39.6" x2="33.9" y2="39.6"/>
        <line class="cls-3" x1="16.5" y1="39.6" x2="19.5" y2="39.6"/>
        <line class="cls-3" x1="2.1" y1="39.6" x2="5.1" y2="39.6"/>
        <line class="cls-3" x1="52.5" y1="46.8" x2="55.5" y2="46.8"/>
        <line class="cls-3" x1="38.1" y1="46.8" x2="41.1" y2="46.8"/>
        <line class="cls-3" x1="23.7" y1="46.8" x2="26.7" y2="46.8"/>
        <line class="cls-3" x1="9.3" y1="46.8" x2="12.3" y2="46.8"/>
        <line class="cls-3" x1="45.3" y1="54" x2="48.3" y2="54"/>
        <line class="cls-3" x1="30.9" y1="54" x2="33.9" y2="54"/>
        <line class="cls-3" x1="16.5" y1="54" x2="19.5" y2="54"/>
        <line class="cls-3" x1="2.1" y1="54" x2="5.1" y2="54"/>
        <line class="cls-3" x1="54" y1="2.1" x2="54" y2="5.1"/>
        <line class="cls-3" x1="39.6" y1="2.1" x2="39.6" y2="5.1"/>
        <line class="cls-3" x1="25.2" y1="2.1" x2="25.2" y2="5.1"/>
        <line class="cls-3" x1="10.8" y1="2.1" x2="10.8" y2="5.1"/>
        <line class="cls-3" x1="46.8" y1="9.3" x2="46.8" y2="12.3"/>
        <line class="cls-3" x1="32.4" y1="9.3" x2="32.4" y2="12.3"/>
        <line class="cls-3" x1="18" y1="9.3" x2="18" y2="12.3"/>
        <line class="cls-3" x1="3.6" y1="9.3" x2="3.6" y2="12.3"/>
        <line class="cls-3" x1="54" y1="16.5" x2="54" y2="19.5"/>
        <line class="cls-3" x1="39.6" y1="16.5" x2="39.6" y2="19.5"/>
        <line class="cls-3" x1="25.2" y1="16.5" x2="25.2" y2="19.5"/>
        <line class="cls-3" x1="10.8" y1="16.5" x2="10.8" y2="19.5"/>
        <line class="cls-3" x1="46.8" y1="23.7" x2="46.8" y2="26.7"/>
        <line class="cls-3" x1="32.4" y1="23.7" x2="32.4" y2="26.7"/>
        <line class="cls-3" x1="18" y1="23.7" x2="18" y2="26.7"/>
        <line class="cls-3" x1="3.6" y1="23.7" x2="3.6" y2="26.7"/>
        <line class="cls-3" x1="54" y1="30.9" x2="54" y2="33.9"/>
        <line class="cls-3" x1="39.6" y1="30.9" x2="39.6" y2="33.9"/>
        <line class="cls-3" x1="25.2" y1="30.9" x2="25.2" y2="33.9"/>
        <line class="cls-3" x1="10.8" y1="30.9" x2="10.8" y2="33.9"/>
        <line class="cls-3" x1="46.8" y1="38.1" x2="46.8" y2="41.1"/>
        <line class="cls-3" x1="32.4" y1="38.1" x2="32.4" y2="41.1"/>
        <line class="cls-3" x1="18" y1="38.1" x2="18" y2="41.1"/>
        <line class="cls-3" x1="3.6" y1="38.1" x2="3.6" y2="41.1"/>
        <line class="cls-3" x1="54" y1="45.3" x2="54" y2="48.3"/>
        <line class="cls-3" x1="39.6" y1="45.3" x2="39.6" y2="48.3"/>
        <line class="cls-3" x1="25.2" y1="45.3" x2="25.2" y2="48.3"/>
        <line class="cls-3" x1="10.8" y1="45.3" x2="10.8" y2="48.3"/>
        <line class="cls-3" x1="46.8" y1="52.5" x2="46.8" y2="55.5"/>
        <line class="cls-3" x1="32.4" y1="52.5" x2="32.4" y2="55.5"/>
        <line class="cls-3" x1="18" y1="52.5" x2="18" y2="55.5"/>
        <line class="cls-3" x1="3.6" y1="52.5" x2="3.6" y2="55.5"/>
      </g>
    </pattern>
    <pattern id="SVGID_5_" data-name="SVGID 5 " width="54" height="54" patternTransform="translate(-30.83 16325.64)" patternUnits="userSpaceOnUse" viewBox="0 0 54 54">
      <rect class="cls-1" width="54" height="54"/>
      <g>
        <rect class="cls-1" width="54" height="54"/>
        <rect class="cls-1" width="54" height="54"/>
        <g>
          <path class="cls-5" d="M22.5,55.5c-.8.5-1.3,4.7-2.1,5.2-.3.2-.8.7-.8.9,0,.5-.3.4-.3.9,0,1-.7,2.3-2.1,2-.4-.1-.7-1,1.4-2.2.2-.1,0-.9.1-1.3,2-5.3,3.9-9.6,4.4-8.3Z"/>
          <path class="cls-5" d="M28.3,56.5a3.37,3.37,0,0,1-.4-1.2l-3.3.7c-.9-1,1.1-1.4,2.5-2,.9-.5,1.8-1,2.7-1.4C29.6,53.5,28.6,55.2,28.3,56.5Z"/>
          <path class="cls-5" d="M48.7,59.1a1,1,0,0,1-.5,1.3c-.1,0-.2.1-.3.1-.9.1-2,.4-2,.9a3.41,3.41,0,0,1-2.5,3A14.93,14.93,0,0,1,48.6,59c.3-.2,0-.9.2-1.3.7-1.3,2.7.1,2.8-2.3,0-.2-.4-.5-.7-.7,2.1.6,1.9-2.1,3.8-2.3v1.5a3.89,3.89,0,0,0-2.3.7C50.2,55.7,52.6,58.6,48.7,59.1Z"/>
          <path class="cls-5" d="M3.9,60.6c-.3-2,2.7-5.8,3.6-7.5a2,2,0,0,1,.3,1.7c-.4,2-2.6,3.3-2.6,5.8-.6.9-.5,1.6-2.1,1.5Z"/>
          <path class="cls-5" d="M11.4,55.3a3.41,3.41,0,0,0-.8-2.3,1,1,0,0,1,1.3.5c0,.1.1.2.1.3A2.53,2.53,0,0,1,11.4,55.3Z"/>
          <path class="cls-5" d="M2.2,55.1c-1.8-.2-.3-1.6-.8-2.3C3.7,53,.9,54.7,2.2,55.1Z"/>
          <path class="cls-5" d="M13.6,56.2c1.7-1.2,2.3-4.9,4.2-5.7-1.5,1.2-1.7,4.9-2.9,6.2-2.4,2.5-5.6,3.8-7.4,6.9-.6,1.1.7,2.7-.8,3.7-.3-2.4-.2-5,1.7-6.6S11.6,57.7,13.6,56.2Z"/>
          <path class="cls-5" d="M36.5,55.8c-.4.5-1.2-.1-1.3-.7-.2-1-1.2-2.6-.1-3a3.94,3.94,0,0,0,3,.8C35.5,52.8,37.2,55,36.5,55.8Z"/>
          <path class="cls-5" d="M44,56.5c.2.3.8-.1,1-.5-1.1-.6.1-2.2-1.2-2.4-.5-.1-1,.5-1.7.4C42.6,55.1,43.3,55.3,44,56.5Z"/>
        </g>
        <path class="cls-5" d="M-5.3,59.1a1,1,0,0,1-.5,1.3c-.1,0-.2.1-.3.1-.9.1-2,.4-2,.9a3.41,3.41,0,0,1-2.5,3,13.5,13.5,0,0,1,5.3-5.3c.2-.3-.1-1,.1-1.4.7-1.4,2.7,0,2.9-2.4,0-.2-.4-.5-.7-.7,2.1.6,1.9-2.1,3.8-2.3v1.5a3.89,3.89,0,0,0-2.3.7C-3.8,55.7-1.4,58.6-5.3,59.1Z"/>
        <g>
          <path class="cls-5" d="M53.2,43.2c.8-.3,1.7.7,2.1.5,2.2-1,2-3.6,4.7-1.4,0,0,.6-.4.6-.6-.1-.8-.9-1.4-.6-2.3.2-.6.8-.7,1.4-.9,1.9-.6-.5-2.5,2.2-3.8.3-.2.3-1.4,0-2-.8-1.3-2.3-.8-3.6-.8a3.56,3.56,0,0,0,3-1.5l-.8,1.5,3,1.5c-.5.3-1.2.4-1.4.8-.3.9.2,2.1-.3,2.9-.1.2-1-.1-1.3.2-1.2,1.4-.6,4-1.8,4.8-2,1.4-6,1-7,4.2-.2.6,1.1,1.3,2,1.3s1.8-.7,2.2-2.2a2,2,0,0,0,.8,2.1c1.5.6,1.4-2.5,2.9-2a1.46,1.46,0,0,1,.7,1.3c-.1.4-.9.7-1.4.7-.3,0-.6-.6-.7-.6-1.5.7-3.6.5-4.5,2.2a3.81,3.81,0,0,0-.1,1.5c-.8,0-2.2.3-2.1-.7s1-2,.5-3c-.2-.4-.9-.5-1.4-.8Z"/>
          <path class="cls-5" d="M54.7,34.1c-1.6.2-.7-.9-.8-1.5Z"/>
          <path class="cls-5" d="M54.3,9.4c-.1,2.4-.2,1.6-2.6,2.4.5-.3,2-.9,2.1-1.3.2-.8-.1-1.1.3-1.8-.2-.8-1.5-.8-.8-1.8,1-1.5.2-3.8,2.1-4.5.4-.2.2.5.7.5C56.2,4.9,54.4,7.2,54.3,9.4Z"/>
          <path class="cls-5" d="M52.5,37.3c.5-1.5,1.8-1.3,3-1.5A5.07,5.07,0,0,1,52.5,37.3Z"/>
        </g>
        <g>
          <path class="cls-5" d="M5.6,29.1H4.9a4.35,4.35,0,0,1,1.5-2.2c.3.5.8,1.1.6,1.5S6.1,28.9,5.6,29.1Z"/>
          <path class="cls-5" d="M22.5,1.5c-.8.5-1.3,4.7-2.1,5.2-.3.2-.8.7-.8.9,0,.5-.3.4-.3.9,0,1-.7,2.3-2.1,2-.4-.1-.7-1,1.4-2.2.2-.1,0-.9.1-1.3,2-5.3,3.9-9.6,4.4-8.3Z"/>
          <path class="cls-5" d="M14.2,10c-.7-.2-1.7-1.1-1.6-1.3.9-2.3,1.8-3.3,2.8-3.3s-1.2,1.4-1.7,2.5,1.9,2.5,1.5,3.1S14.8,10.6,14.2,10Z"/>
          <path class="cls-5" d="M12,11.1c-.6,1.9-.4,2.1-3,3,.8-.2.6.1.8-2.3C9.7,11.5,11.5,11.3,12,11.1Z"/>
          <path class="cls-5" d="M9.7,20.1c-.2.5-.5,1.3-.8,1.4-2,.2-2.4,1.7-3,3.2,1.3.4,2.2,1.7,3.8,1.5-.7.4-1.5,1.1-2.2.6-.2-.3,0-1.3-.1-1.3-2.9-1-2.1-3.1-.6-4.5.2-.1,1,.6,1.3.5,1.3-.7-.5-4.6.8-3.6.6.7,1.7,1.5,2.8-.1.5-.7.2-1.9.2-2.9.4-.8,2.1-.3,2.1.8C14.2,18.1,10.6,17.8,9.7,20.1Z"/>
          <path class="cls-5" d="M18.7,17.8c-.2.3-.5.7-.7.7s-.5-.4-.8-.7c.5-.3,1.3-.5,1.3-.8.1-1.5-.2-3.1-2.1-3.7C19.5,12.4,20.3,15.7,18.7,17.8Z"/>
          <path class="cls-5" d="M21.9,19.3c.3-3.9-.5-6,3.6-4.5.9,1.3-1.8.2-2.1.8-.2.3,1.7,1,1.5,1.4s-2.1.5-2.4.9c-.4.8.3,1.5.7,2.2C22.7,19.8,21.9,19.5,21.9,19.3Z"/>
          <path class="cls-5" d="M26.2,20c-.1,0-.5-.4-.7-.6.8-.4,1.3-2.1,2.1-1.3S27,20.3,26.2,20Z"/>
          <path class="cls-5" d="M15.5,26.8c-.4.5-1.2-.1-1.3-.7-.2-1-1.2-2.6-.1-3a3.94,3.94,0,0,0,3,.8C14.5,23.8,16.2,26,15.5,26.8Z"/>
          <path class="cls-5" d="M31,16.1c2.8-.4,3-2.8,4.6-4.2.3-.3,1,.1,1.3-.2a2.86,2.86,0,0,0,.8-2.9c1.3,1.7,2.6-.6,3.5.2,1.7,1.5,1.5,4,4,5-.4,1.9-2.1,2.9-3,4.5.8-2.6,2.8-5.4-.8-6.8.3-.3.7-.5.7-.8a1.75,1.75,0,0,0-.7-1.4,2.18,2.18,0,0,0-2.8.7c-1,1.8-1.5,1.9-2.9,3.2-.7.6,0,2.4-1,3.5-.3-.3-.6-.8-.7-.6-1,1.8-2.3,1.6-2.6.5Z"/>
          <path class="cls-5" d="M30.4,12.3h0c-.2-.1-1.3.4-1.3.7-.1,1.6-.4,3.3-2.4,3,2.4-2,3.1-4.9,4.4-7.6.4-.9-2.7-3.1-1.4-3.9l2.3,1c.7-.7,1.4-1.2,3,0-1.1,0-2.3-.2-2.9.8-.9,1.7-.1,2.6-.3,4.4,0,.3-1.1.4-1.2.8A3.09,3.09,0,0,0,30.4,12.3Z"/>
          <path class="cls-5" d="M28.3,2.5a3.37,3.37,0,0,1-.4-1.2L24.6,2C23.7,1,25.7.6,27.1-.1c.9-.5,1.8-1,2.7-1.4C29.6-.5,28.6,1.2,28.3,2.5Z"/>
          <path class="cls-5" d="M38.2,41.1c.5-1.1,1.4-.7,2.3-.8C40,41.3,39.1,41.2,38.2,41.1Z"/>
          <path class="cls-5" d="M47.5,2.1c-.5,4.3-.6,0-.8,0,.7-.3,1.8-.3,1.5-1.5A5.23,5.23,0,0,0,47.5,2.1Z"/>
          <path class="cls-5" d="M48.7,5.1a1,1,0,0,1-.5,1.3c-.1,0-.2.1-.3.1-.9.1-2,.4-2,.9a3.41,3.41,0,0,1-2.5,3,13.5,13.5,0,0,1,5.3-5.3c.2-.3-.1-1,.1-1.4.7-1.4,2.7,0,2.9-2.4,0-.2-.4-.5-.7-.7,2.1.6,1.9-2.1,3.8-2.2V-.1a3.89,3.89,0,0,0-2.3.7C50.2,1.7,52.6,4.6,48.7,5.1Z"/>
          <path class="cls-5" d="M50.9,11.1c-.2.9-.6,2-1.5,2.1-.7.1-1.5,1.1-2.2-1.4,2.3.7,3-1.2,3.8-3A17.7,17.7,0,0,1,50.9,11.1Z"/>
          <path class="cls-5" d="M47.3,18.6a3.81,3.81,0,0,0-.1,1.5,2.44,2.44,0,0,1-.6-2.9c.3-.4,1.3-.1,2.1-.1A6.73,6.73,0,0,0,47.3,18.6Z"/>
          <path class="cls-5" d="M34.7,22.3c0-.5.3-1.2.1-1.4-.8-.5-1.9-.3-2.9-.4.3-.2.5-.5.8-.6.9-.2,1.7.9,2,.7,2-1.1,4.2-4.7,5.8-6.3.2.3-1,2.6-1,2.7C37.7,19.2,36.5,20.1,34.7,22.3Z"/>
          <path class="cls-5" d="M38.8,24.2c-.7-.4-2-.4-1.3-1.5,1.3-2.2,4.1-2.2,5.9-3.8.4,2.1,3.2,1.6,4.4,3.1.3.3,0,.9.1,1.4.2.8.2,1.8,1.5,1.5l-.9.8c-1.3-2-1.6.2-3,0,.5-.3,1.3-.4,1.4-.8a3.41,3.41,0,0,0-.7-3.7c-.4-.4-1.1-.8-1.4-.6-.9.5-1,1.7-.8,2.9-1.2-1.1-1.8-3.8-3.6-2.8a11,11,0,0,0-2.1,2.2c-1.1,1.3,2.4.9,2,2.8Z"/>
          <path class="cls-5" d="M31.8,24.5c.1.2,1-.3,1.3-.1.5.5,1.8,1.1,2,1.9.4-.3,1.2-.7,1.2-1,0-1-2.5-1.2-3.9-1.6a2,2,0,0,1-1.2-1.9A6.26,6.26,0,0,0,31.8,24.5Z"/>
          <path class="cls-5" d="M28.4,24.1c.5,1.6-.8,1.1-1.4.2-.4-.9-.9-3.7,1.5-3.9.2,0,.5.4.8.7C28.7,21.5,26.7,18.5,28.4,24.1Z"/>
          <path class="cls-5" d="M3.9,6.6C3.6,4.7,6.6.8,7.5-.9A2,2,0,0,1,7.8.8c-.4,2-2.6,3.3-2.6,5.9-.6.9-.5,1.6-2.1,1.5Z"/>
          <path class="cls-5" d="M1.2,14.4c2.3-1.3,0-1.4,2.7-2.6,1.3.4,1.6,2,1.7,3.4,0,.3-.4,1.4-.4,1.9l-.7-1.5c-.3-.5-.4-1.8-.6-1.8A4.17,4.17,0,0,0,1.2,14.4Z"/>
          <path class="cls-5" d="M17.1,2.4V.9a3.57,3.57,0,0,0,2.3.8Z"/>
          <path class="cls-5" d="M3.8,21.4c.5,1.6-.8,1.1-1.4.1-.4-.9-.9-3.7,1.5-3.9.2,0,.5.4.8.7C4.1,18.8,2.1,15.8,3.8,21.4Z"/>
          <path class="cls-5" d="M-.8,43.2c.8-.3,1.7.7,2.1.5,2.1-1,2-3.6,4.7-1.4,0,0,.6-.4.6-.6-.1-.8-.9-1.4-.6-2.3.2-.6.8-.7,1.4-.9,1.9-.6-.5-2.5,2.2-3.8.3-.2.3-1.4,0-2-.8-1.3-2.3-.8-3.6-.8a3.56,3.56,0,0,0,3-1.5l-.8,1.5,3,1.5c-.5.3-1.2.4-1.4.8-.4.9.1,2.1-.3,2.9-.1.2-1-.1-1.3.2-1.2,1.4-.6,4-1.8,4.8-2,1.4-6,1-7,4.2-.2.6,1.1,1.3,2,1.3s1.8-.7,2.2-2.2a2,2,0,0,0,.8,2.1c1.4.6,1.3-2.4,2.9-1.9A1.46,1.46,0,0,1,8,46.9c-.1.4-.9.7-1.4.7-.3,0-.6-.6-.7-.6-1.4.6-3.5.5-4.4,2.2a3.81,3.81,0,0,0-.1,1.5c-.8,0-2.1.3-2.1-.7s1-2,.5-3c-.1-.5-.8-.7-1.3-.9Z"/>
          <path class="cls-5" d="M10.2,50.6c.4-.1.5-.9.8-1.4l1.5.8c1.3-3.3,3.6-7.4,7.5-7.5V44a2,2,0,0,0-2.1.8c-.7,1.2,1.5,1.9-.1,3.7,0-1.3.4-3.1-.8-3.5-1.5-.5-2.5,1.9-2.2,3.5-.5,0-1.3-.1-1.4.1-.9,2-3.3,2.4-3.9,4.4-1.2-1.3-3.4-1.7-3.8-3.8C7.5,48.8,8.5,51.2,10.2,50.6Z"/>
          <path class="cls-5" d="M.7,34.1c-1.6.2-.7-.9-.8-1.5Z"/>
          <path class="cls-5" d="M4.6,34a2.44,2.44,0,0,1,.6,2.3c-.5-.3-1.3-.5-1.3-.7C4,34,2.4,32.8,3,31.1,4,31.9,4,33.2,4.6,34Z"/>
          <path class="cls-5" d="M.7,29.6c-.2-1.7,1.1-.3,1.5-.8Z"/>
          <path class="cls-5" d="M14.3,31.1c-.1,2.5,1.8,4,3.7,5.3A3,3,0,0,0,15.7,35c-.2,0-.5.6-.7.6-.5,0-1.3-.4-1.3-.7-.1-1.5-.8-2.9.4-4.6.2-.2-.4-.9-.6-1.4l-1.5.8-1.5-3c2.3.3,2.6,3,4.5,3.8C14.7,30.6,14.3,30.9,14.3,31.1Z"/>
          <path class="cls-5" d="M19.1,34.6c1.3.1,1.3-1,1.3-1.6s-.5-1,1.2-2.6c.3-.3.4-1.4.7-2.1l.8.7c-.5.3-1.1.5-1.3.9-.2.6.3,1.7,0,2.1-.6.7-1.8,1.1-1.8,2.6,0,.2.7.5.6.6a5.53,5.53,0,0,0-.3,3.1C18.7,37.4,19.2,35.9,19.1,34.6Z"/>
          <path class="cls-5" d="M26.4,31.8c-1.3,1.6-2.9-.1-3.8,1.9,1.3-.5.5.3,3,.8-.1-.6-.3-1.4-.1-1.5,2.4-1.4,1.2-4.5,3-6.4l-1-.2a8.51,8.51,0,0,1-.9,3.1C24.9,30.5,27.5,30.4,26.4,31.8Z"/>
          <path class="cls-5" d="M21.1,40.7c-1.8-1.5-1.8.4-3.1.2l.8-1.5c1.3,1.7,2.6-.6,3.6.2C23.1,40.2,21.3,40.9,21.1,40.7Z"/>
          <path class="cls-5" d="M22.6,44.7c0,.3-1,.4-1.2.8-1,2.2-.3,2.8.7,4.4a1,1,0,0,1-1.3-.5c0-.1-.1-.2-.1-.3-.2-1.3.6-1.2-.7-2.4-.4-.4,1.3-1.3,1.7-2.2.6-1.6,2-2.1,2.8-3.5.3-.5,1.3.2,1.2.6C25.3,43.4,22.8,41.1,22.6,44.7Z"/>
          <path class="cls-5" d="M23,8c-.4-.3.3-.9.9-1.2.6,1.5,3.2.4,3.2,2.1,0,.6-.9,1.2-1,2.1C24.7,10,24.5,9.1,23,8Z"/>
          <path class="cls-5" d="M29.2,40.5c.8,1.6-1.2,1-1.5,1.8C26.6,40.4,29.6,41.8,29.2,40.5Z"/>
          <path class="cls-5" d="M31.1,41.3l1.5.7c.2-.5.8-1.1.6-1.5-1-2.2.3-4.4,1-6.4a1.53,1.53,0,0,0,2.1-.7v-.1c.9-1.8,2.8-4.6,3-6.7-.5.1-1.4.1-1.5.4-.9,3.2-3.6,8.2-7.1,9-.1,0-.2.6-.1.9.3.8,1.5.9,1.8,1.4C32.9,39.4,31.8,40.4,31.1,41.3Z"/>
          <path class="cls-5" d="M29.3,31.9c.1.5-.3,1.1.2,1.6.9-2.2.9-4.6,3.3-6.3-1-.7-1.6.1-2.3.5C31.7,29.5,28.9,30.1,29.3,31.9Z"/>
          <path class="cls-5" d="M33.8,46.9c-.6,1.2,1.5,2.9,2.1,2.7a2,2,0,0,0,1.7-2.3c0-.2-.1-.3-.1-.5,3.1.2,6.8,3.3,4.3,5.8-.5.5-1.8-.2-2.8-.6a2.82,2.82,0,0,0,2.3-3.2,4.33,4.33,0,0,0-.1-.5,2.2,2.2,0,0,0-2.1-.9c-2,.2-1.1,2-2.3,3a2.63,2.63,0,0,1-1.5.7c-.9-.1-1.5-.9-2.3-1.3-.3-.2-1.1.3-1.3.7a1.58,1.58,0,0,0,.5,2.1c.1,0,.1.1.2.1-1.3.3-1.5-.9-1.3-1.5.3-1.4,2.8-1.2,2.8-3,0-1-.7-1.9-2.2-2.3,3.3.7,2.5-2.9,4.9-3.7,1.5-.5.8.8.6,1.4C36.6,45.2,34.5,45.6,33.8,46.9Z"/>
          <path class="cls-5" d="M38.7,37.7a10.09,10.09,0,0,0-1.5.7c1.2-.8,0-2.1,2.1-3.2.5-.3.3-1.5-.6-2l.8-.8c-.3,1.8.4,3.5.8,5.3A4.29,4.29,0,0,0,38.7,37.7Z"/>
          <path class="cls-5" d="M44.1,34.4a3,3,0,0,1-.7,1.5c-.3-.3-.7-.6-.7-.7a6.3,6.3,0,0,0,.7-3A5.19,5.19,0,0,1,44.1,34.4Z"/>
          <path class="cls-5" d="M43.1,28.7c-1.3.3-1.4-.8-1.4-1.5a.83.83,0,0,1,1.3-.7c.5.4,0,1.7,2.3,1.4A14.27,14.27,0,0,1,43.1,28.7Z"/>
          <path class="cls-5" d="M47.1,29.1c-.7.8-1,3-2,2S46.2,29.8,47.1,29.1Z"/>
          <path class="cls-5" d="M47.1,49.1c-.2.9-.5,2.8-2,2.1-.2-.1-.1-.8-.1-1.4,1.3.1,2.7-.3,2.8-2.3,0-.2-1.1-.4-1.2-.8-.2-.7-1.1-1.5,1.3-2.2C47,46,47.4,47.6,47.1,49.1Z"/>
          <path class="cls-5" d="M.4,9.4C.3,11.8.2,11-2.2,11.8c.5-.3,2-.9,2.1-1.3.2-.8-.1-1.1.3-1.8C0,8-1.3,8-.6,6.9c1-1.5.2-3.8,2.1-4.5.4-.2.2.5.7.5C2.2,4.9.4,7.2.4,9.4Z"/>
          <path class="cls-5" d="M48.5,34.2c.3-3.9-.5-6,3.6-4.5.9,1.3-1.8.2-2.1.8-.2.3,1.7,1,1.5,1.4s-2.1.4-2.3.8c-.4.8.3,1.5.7,2.2C49.3,34.7,48.5,34.4,48.5,34.2Z"/>
          <path class="cls-5" d="M46.9,38.6c-1.3-.2-1.3.8-1.4,1.5,0,.2.6.6.5.7-.7,1.5-2.4.5-3.7.8.5,0,1.2.2,1.4-.1,1-1.4,2.8-3.6.9-5.2,1,1.2,3.2.4,3.8,2.3A3.75,3.75,0,0,1,46.9,38.6Z"/>
          <path class="cls-5" d="M43.3,45.7c-1.5.1-3.3.6-4.9.2a5.67,5.67,0,0,1,1.3-.8c.5,0,.5.8.9.6s.5-1.2.8-1.2c1.6-.1,3-.8,4.5-.9-.3.5-.4,1.2-.8,1.4A6.7,6.7,0,0,1,43.3,45.7Z"/>
          <path class="cls-5" d="M50.2,42c-.2.5-1-.1-1.3-.7,1.4-.9-.1-3.2,1.5-3.6.6-.1,1.3.7,2.2.6C51.9,40,51,40.3,50.2,42Z"/>
          <path class="cls-5" d="M21.5,22.7c-1.3-.2-1.3.9-1.4,1.5,0,.2.6.6.6.7-.7,1.5-2.4.5-3.6.8.5,0,1.2.2,1.4-.1,1-1.4,2.8-3.6.9-5.2,1,1.2,3.1.4,3.8,2.3A4.82,4.82,0,0,1,21.5,22.7Z"/>
          <path class="cls-5" d="M16.5,30.8c.5-1.5,1.8-1.3,3-1.5A5.07,5.07,0,0,1,16.5,30.8Z"/>
          <path class="cls-5" d="M2.4,26.7c-.1,0-.5-.4-.7-.6.8-.4,1.3-2.1,2.1-1.3S3.2,27,2.4,26.7Z"/>
          <path class="cls-5" d="M2.2,39c.5-1.1,1.4-.7,2.3-.8C4,39.2,3.1,39.2,2.2,39Z"/>
          <path class="cls-5" d="M27.3,38.6c-.5.5-.4.6-.7.7-.8.3-1.5-.3-2.2-.7,2.6.5,3.6-1.5,3-3.8.5.3,1.3.5,1.3.8C28.7,36.6,27.9,37.6,27.3,38.6Z"/>
          <path class="cls-5" d="M40.2,6.3c-.5.5-.4.6-.7.7-.8.3-1.5-.3-2.2-.7,2.6.5,3.6-1.5,3-3.8.5.3,1.3.5,1.3.8C41.6,4.3,40.8,5.3,40.2,6.3Z"/>
          <path class="cls-5" d="M15.7,39.8a3.41,3.41,0,0,0-.8-2.3,1,1,0,0,1,1.3.5c0,.1.1.2.1.3A3.17,3.17,0,0,1,15.7,39.8Z"/>
          <path class="cls-5" d="M11.4,1.3A3.41,3.41,0,0,0,10.6-1a1,1,0,0,1,1.3.5c0,.1.1.2.1.3A2.53,2.53,0,0,1,11.4,1.3Z"/>
          <path class="cls-5" d="M-1.5,37.3c.5-1.5,1.8-1.3,3-1.5A5.07,5.07,0,0,1-1.5,37.3Z"/>
          <path class="cls-5" d="M2.2,1.1C.4.9,2-.5,1.5-1.1,3.7-1,.9.7,2.2,1.1Z"/>
          <path class="cls-5" d="M54.6,22.3c-.1.9-1.8,1.1-1.8,1.5-.2,1.9-.9,2.2-1.8,3.7-.3-.3-.7-.5-.7-.8,0-1,1.5-1.6,1.8-2.4.9-2.5.7-6.2,1.3-7.2.2.1,1.4-1.3,1.8-1.6Z"/>
          <path class="cls-5" d="M13.6,2.2c1.7-1.2,2.3-4.9,4.2-5.7-1.5,1.2-1.7,4.9-2.9,6.2C12.5,5.2,9.3,6.5,7.5,9.6c-.6,1.1.7,2.7-.8,3.7-.3-2.4-.2-5,1.7-6.6S11.6,3.7,13.6,2.2Z"/>
          <path class="cls-5" d="M34,1.3c-.7.8-1,3-2,2S33.1,1.9,34,1.3Z"/>
          <path class="cls-5" d="M36.5,1.8c-.4.5-1.2-.1-1.3-.7-.2-1-1.2-2.6-.1-3a3.94,3.94,0,0,0,3,.8C35.5-1.2,37.2,1,36.5,1.8Z"/>
          <path class="cls-5" d="M44,2.4c.2.3.8-.1,1-.4-1.1-.6.1-2.2-1.2-2.4-.5-.1-1,.5-1.7.4C42.6,1.1,43.3,1.3,44,2.4Z"/>
          <path class="cls-5" d="M20.7,13c.5-1.5,1.8-1.4,3-1.5C23,12.5,21.8,12.7,20.7,13Z"/>
          <path class="cls-5" d="M51,15.8c.5-1.1,1.4-.7,2.3-.8A2.09,2.09,0,0,1,51,15.8Z"/>
          <path class="cls-5" d="M55.5,50.6c-.8,0-2.2.3-2.1-.7s1-2,.5-3c-.2-.4-.9-.5-1.4-.8-.8,2.3-3.3,3.3-3.8,6-.1.8-.5,2.1-1.3,1.3s1.1-1,1.1-1.3c.2-2.9,1.9-5,3.8-6.9.4-.4,0-1.7,1-2,.8-.3,1.7.7,2.1.5l-.1.3a3.3,3.3,0,0,0-1.8,2.2c-.2.6,1.1,1.3,2,1.3Z"/>
          <path class="cls-5" d="M26.7,6.5a3.41,3.41,0,0,0-.8-2.3,1,1,0,0,1,1.3.5c0,.1.1.2.1.3A2.2,2.2,0,0,1,26.7,6.5Z"/>
          <path class="cls-5" d="M24.2,22.9c1.7,0,.1,1.1.5,1.6Z"/>
          <path class="cls-5" d="M50.2,21.8a3.41,3.41,0,0,0-.8-2.3,1,1,0,0,1,1.3.5c0,.1.1.2.1.3A3.17,3.17,0,0,1,50.2,21.8Z"/>
          <path class="cls-5" d="M43.7,7.5a3.33,3.33,0,0,1,1.1-2.1,1,1,0,0,0-1.4.3.35.35,0,0,1-.1.2A4.19,4.19,0,0,0,43.7,7.5Z"/>
          <path class="cls-5" d="M9.2,2.9C9.9,4.5,7.9,4,7.7,4.7,6.6,2.8,9.6,4.3,9.2,2.9Z"/>
          <path class="cls-5" d="M35.5,9c-1.6.2-.7-.9-.8-1.5Z"/>
          <path class="cls-5" d="M26,50.3c1.3-.3.9-1.3.7-2-.1-.2-.8-.3-.8-.4,0-1.7,2-1.5,3-2.2-.5.2-1.2.3-1.2.6-.3,1.6-1.2,4.4,1.3,5.1-1.4-.8-3.1.9-4.3-.6C25,50.7,25.5,50.5,26,50.3Z"/>
          <path class="cls-5" d="M11.2,24.5c-1.6.2-.7-.9-.8-1.5Z"/>
          <path class="cls-5" d="M13.5,19c.5-1.1,1.4-.7,2.3-.8A1.83,1.83,0,0,1,13.5,19Z"/>
          <path class="cls-5" d="M35,30.5c-1.6.2-.7-.9-.8-1.5Z"/>
          <path class="cls-5" d="M30.5,45c.1-.6-.3-1-.6-1.5.6-.1,1.1.1,1.1.5A1.91,1.91,0,0,1,30.5,45Z"/>
          <path class="cls-5" d="M25,45.3c-.5,4.3-.6,0-.8,0,.8-.3,1.8-.3,1.5-1.5A5.23,5.23,0,0,0,25,45.3Z"/>
          <path class="cls-5" d="M9.6,39.3c2.5-.8.3-1.4,3.2-2,1.2.6,1.2,2.3,1,3.7,0,.3-.7,1.3-.8,1.8L12.5,41c-.1-.5-.1-1.8-.2-1.9A3.6,3.6,0,0,0,9.6,39.3Z"/>
          <path class="cls-5" d="M10.3,45.7c.3,1.3,1.4.8,2,.5a.82.82,0,0,0-.1-1.5c-.7-.2-1.5.8-2.4-1.3C10,44.2,10.1,45,10.3,45.7Z"/>
        </g>
        <g>
          <path class="cls-5" d="M-5.3,5.1a1,1,0,0,1-.5,1.3.35.35,0,0,1-.2.1c-.9.1-2,.4-2,.9a3.41,3.41,0,0,1-2.5,3A14.69,14.69,0,0,1-5.4,5c.3-.2-.1-.9.2-1.4.7-1.3,2.6.1,2.8-2.3,0-.2-.4-.5-.7-.7C-1,1.2-1.2-1.5.7-1.7V-.2A3.89,3.89,0,0,0-1.6.5C-3.8,1.7-1.4,4.6-5.3,5.1Z"/>
          <path class="cls-5" d="M.6,22.3c-.1.9-1.8,1.1-1.8,1.5-.2,1.9-.9,2.2-1.8,3.7-.3-.3-.7-.5-.7-.8,0-1,1.5-1.6,1.8-2.4.9-2.4.7-6.2,1.3-7.2.2.1,1.4-1.3,1.8-1.6Z"/>
          <path class="cls-5" d="M1.5,50.6c-.8,0-2.2.3-2.1-.7s1-2,.5-3c-.2-.4-.9-.5-1.4-.8-.8,2.3-3.3,3.3-3.8,6-.1.8-.5,2.1-1.3,1.3s1.1-1,1.1-1.3c.2-2.9,1.9-5,3.8-6.9.4-.4-.1-1.7.9-2,.8-.3,1.7.7,2.1.5l-.1.3A3.3,3.3,0,0,0-.6,46.2c-.2.6,1.1,1.3,2,1.3v3.1Z"/>
        </g>
      </g>
    </pattern>
    <pattern id="SVGID_6_" data-name="SVGID 6 " width="72" height="72" patternTransform="translate(-54.64 16335.34)" patternUnits="userSpaceOnUse" viewBox="0 0 72 72">
      <rect class="cls-1" width="72" height="72"/>
      <g>
        <rect class="cls-1" width="72" height="72"/>
        <rect class="cls-1" width="72" height="72"/>
        <path class="cls-6" d="M80.4,64.1s1,4.1-2.9,4-3.9,1.9-3.1,4.3S74.2,77,71.1,77"/>
        <g>
          <path class="cls-6" d="M13.4,15.5s3.8-1.7,4.5,2.1,2.6,3.5,4.8,2.2,4.6-.7,5.1,2.4"/>
          <path class="cls-6" d="M66,28.7s-2.6,3.3-5,.2-3.9-1.9-5.3.2-3.7,2.7-5.7.2"/>
          <path class="cls-6" d="M39,29s-3.8-1.7-1.5-4.7.9-4.3-1.5-5-3.6-2.9-1.7-5.4"/>
          <path class="cls-6" d="M41.2,24.8s4.1-.9,2.4-4.4,0-4.4,2.5-4.7,4.1-2.1,2.7-5"/>
          <path class="cls-6" d="M55.2,14.9s4.1-.9,2.4-4.4,0-4.4,2.5-4.7,4.1-2.1,2.7-5"/>
          <path class="cls-6" d="M27.4,34.2s3.7-2,1.1-4.8-1.2-4.2,1.2-5.2,3.4-3.2,1.2-5.5"/>
          <path class="cls-6" d="M10.4,22.9s1.3,4-2.6,4.2S4,29.3,5,31.6s.2,4.6-2.9,4.8"/>
          <path class="cls-6" d="M7.6,41.2s-2-3.7,1.7-4.6,3.3-2.9,1.9-5-1.1-4.5,2-5.3"/>
          <path class="cls-6" d="M20.5,17s1.3-4,4.6-1.8,4.3.5,4.9-2,2.6-3.8,5.3-2.1"/>
          <path class="cls-6" d="M12.4,44.5s-1.8-3.8,2-4.5,3.5-2.6,2.2-4.8-.7-4.6,2.4-5.1"/>
          <path class="cls-6" d="M24,38.7s-3.4-2.4-.5-4.9,1.7-4-.5-5.3-3-3.5-.6-5.6"/>
          <path class="cls-6" d="M11,59.6s.3-4.2,4-2.9,4.3-.6,4.3-3.2,1.5-4.4,4.6-3.4"/>
          <path class="cls-6" d="M29.5,52.9s-.4,4.2-4,2.9-4.3.5-4.3,3.1-1.6,4.3-4.6,3.3"/>
          <path class="cls-6" d="M19.7,27.3s-4.2.2-3.4-3.6-1.1-4.2-3.6-3.9-4.5-1-3.9-4.1"/>
          <path class="cls-6" d="M32.7,28s-1.5,3.9,2.4,4.3,3.7,2.4,2.5,4.7-.4,4.6,2.7,5"/>
          <path class="cls-6" d="M3.4,45.7s1.9,3.7,4.8,1.1,4.2-1.2,5.2,1.2,3.1,3.4,5.5,1.3"/>
          <path class="cls-6" d="M51,83.4s-1.9-3.7,1.9-4.6,3.4-2.7,2.1-4.9-.9-4.5,2.2-5.2"/>
          <path class="cls-6" d="M64.6,10s2.4,3.3-1.1,4.8-2.9,3.3-1.2,5.2,1.6,4.3-1.3,5.5"/>
          <path class="cls-6" d="M60,14.3s-4.1.8-2.4,4.3,0,4.4-2.6,4.6-4.1,2.1-2.8,5"/>
          <path class="cls-6" d="M17.1.7s4.2.2,3,3.9.7,4.3,3.3,4.2,4.4,1.4,3.5,4.5"/>
          <path class="cls-6" d="M39.5,15.7s-4-1-2.2-4.4.1-4.4-2.4-4.7-4-2.3-2.5-5"/>
          <path class="cls-6" d="M18,7.9s-4-1.3-4.2,2.6-2.2,3.8-4.5,2.8-4.6-.2-4.8,3"/>
          <path class="cls-6" d="M8.4,64.1s1,4.1-2.9,4S1.6,70,2.4,72.4,2.2,77-.9,77"/>
          <path class="cls-6" d="M70.4,33.5s-2.3,3.5-4.9.7-4.1-1.6-5.3.7-3.5,3.1-5.6.8"/>
          <path class="cls-6" d="M50.4,1.6s1,4.1-2.9,4-4,1.9-3.1,4.3-.2,4.6-3.3,4.6"/>
          <path class="cls-6" d="M43.9,31.8s-1.6-3.8,2.2-4.4,3.6-2.5,2.4-4.8S47.9,18,51,17.5"/>
          <path class="cls-6" d="M74.9,33.6s-4.2-.4-2.8-4.1-.5-4.3-3-4.4-4.3-1.7-3.2-4.7"/>
          <path class="cls-6" d="M62.2,38.2s3.5-2.3,4.8,1.3,3.1,3,5.1,1.4,4.4-1.5,5.4,1.5"/>
          <path class="cls-6" d="M71.7,62.7s-.8,4.1-4.3,2.5-4.4.1-4.6,2.7-2,4.2-4.9,2.8"/>
          <path class="cls-6" d="M28.8,44s4.1.5,2.7,4.2.3,4.3,2.9,4.5,4.3,1.8,3.1,4.8"/>
          <path class="cls-6" d="M14.8,43.4s1.2,4,4.5,2,4.4-.4,4.9,2.2,2.5,3.9,5.2,2.3"/>
          <path class="cls-6" d="M1.8,60S3,64,6.3,62s4.4-.4,4.9,2.2,2.5,3.9,5.2,2.3"/>
          <path class="cls-6" d="M37.9,69s4.2-.4,2.9-4,.5-4.3,3.1-4.3,4.3-1.6,3.3-4.6"/>
          <path class="cls-6" d="M34.5,60.1s3.2,2.7.1,5-2,3.9.1,5.3,2.7,3.8.1,5.7"/>
          <path class="cls-6" d="M50.9,63.6s-3.4-2.5-.4-4.9,1.8-4-.4-5.3-2.9-3.6-.4-5.6"/>
          <path class="cls-6" d="M56,59.4s2.8-3.1,5,.2,3.7,2.2,5.3.2,3.9-2.5,5.7.2"/>
          <path class="cls-6" d="M40.2,32.5s4.2.2,3,3.9.7,4.3,3.2,4.2,4.4,1.5,3.4,4.5"/>
          <path class="cls-6" d="M31.7,40.4s-.4,4.2,3.4,3.6,4.2,1.3,3.7,3.8.8,4.5,3.9,4.1"/>
          <path class="cls-6" d="M19.5,42.7s1.1-4,4.5-2.2,4.4.2,4.8-2.3,2.3-4,5.1-2.5"/>
          <path class="cls-6" d="M1.2,13.2s4.2-.2,3-3.9S4.9,5,7.4,5.1,11.8,3.6,10.9.6"/>
          <path class="cls-6" d="M35.7,57.6s-3.8-1.7-4.5,2.1-2.5,3.5-4.8,2.3-4.6-.7-5.1,2.5"/>
          <path class="cls-6" d="M83.8,52.8s-1.6-3.8-4.7-1.5-4.3.8-5-1.7-2.9-3.6-5.4-1.8"/>
          <path class="cls-6" d="M67.8,48.8s-1,4-4.4,2.2-4.4-.2-4.8,2.4-2.3,4-5.1,2.5"/>
          <path class="cls-6" d="M59.7,60.8s-.1,4.2-3.9,3.1-4.3.8-4.1,3.3-1.4,4.4-4.4,3.6"/>
          <path class="cls-6" d="M51.4,47.9s2-3.7,4.8-1,4.2,1.3,5.2-1.1,3.2-3.3,5.5-1.1"/>
          <path class="cls-6" d="M41.3,59.1s-2-3.7,1.8-4.6,3.3-2.8,1.9-4.9-1-4.5,2.1-5.3"/>
          <path class="cls-6" d="M62,83.5s-1.3-4,2.6-4.2,3.8-2.2,2.8-4.5-.2-4.6,2.9-4.8"/>
          <path class="cls-6" d="M46.4,34s4.1-.8,3.9,3.1,1.7,4,4.2,3.3,4.6.3,4.4,3.5"/>
          <path class="cls-6" d="M66.6,12.8s4.1-.5,3.7,3.3,1.4,4.1,3.9,3.6,4.6.6,4.2,3.8"/>
          <path class="cls-6" d="M65.1,53.8s2.4,3.4,4.9.5,4-1.7,5.3.5,3.6,2.9,5.6.5"/>
          <path class="cls-6" d="M45.5,62.8s-3.7,1.9-1.2,4.8,1.1,4.2-1.3,5.2-3.4,3.1-1.3,5.5"/>
          <path class="cls-6" d="M28.3,80.3s-3.6-2.2-.8-4.9,1.4-4.1-.9-5.2-3.2-3.4-.9-5.6"/>
          <path class="cls-6" d="M20,65.7s1.2,4-2.7,4.2-3.9,2.1-2.9,4.5.1,4.6-3.1,4.8"/>
        </g>
        <g>
          <path class="cls-6" d="M2.9,33.6s-4.2-.4-2.8-4.1-.5-4.3-3-4.4-4.3-1.7-3.2-4.7"/>
          <path class="cls-6" d="M-9.8,38.2s3.5-2.3,4.8,1.3,3.1,3,5.1,1.4,4.4-1.5,5.5,1.5"/>
          <path class="cls-6" d="M-.3,62.7s-.8,4.1-4.3,2.5-4.4.1-4.6,2.7-2,4.2-4.9,2.8"/>
          <path class="cls-6" d="M-16,59.4s2.8-3.1,5,.2,3.7,2.2,5.3.2,3.9-2.5,5.7.2"/>
          <path class="cls-6" d="M11.8,52.8S10.2,49,7.1,51.3s-4.3.8-5-1.7S-.8,46-3.3,47.8"/>
          <path class="cls-6" d="M-5.4,12.8s4.1-.5,3.7,3.3,1.4,4.1,3.9,3.6,4.6.6,4.2,3.8"/>
          <path class="cls-6" d="M-6.9,53.8s2.4,3.4,4.9.5,4-1.7,5.3.5,3.6,2.9,5.6.5"/>
        </g>
        <path class="cls-6" d="M80.4-7.9s1,4.1-2.9,4S73.6-2,74.4.4,74.2,5,71.1,5"/>
        <g>
          <path class="cls-6" d="M51,11.4s-1.9-3.7,1.9-4.6S56.3,4.1,55,1.9s-.9-4.5,2.2-5.2"/>
          <path class="cls-6" d="M8.4-7.9s1,4.1-2.9,4S1.6-2,2.4.4,2.2,5-.9,5"/>
          <path class="cls-6" d="M34.5-11.9s3.2,2.7.1,5-2,3.9.1,5.3,2.7,3.8.1,5.7"/>
          <path class="cls-6" d="M62,11.5s-1.3-4,2.6-4.2,3.8-2.2,2.8-4.5S67.2-1.8,70.3-2"/>
          <path class="cls-6" d="M45.5-9.2s-3.7,1.9-1.2,4.8S45.4-.2,43,.8s-3.4,3.1-1.3,5.5"/>
          <path class="cls-6" d="M28.3,8.3s-3.6-2.2-.8-4.9,1.4-4.1-.9-5.2-3.2-3.4-.9-5.6"/>
          <path class="cls-6" d="M20-6.3s1.2,4-2.7,4.2S13.4,0,14.4,2.4s.1,4.6-3.1,4.8"/>
        </g>
      </g>
    </pattern>
    <pattern id="Crosses_2" data-name="Crosses 2" width="57.6" height="57.6" patternTransform="translate(-75.13 -2.82)" patternUnits="userSpaceOnUse" viewBox="0 0 57.6 57.6">
      <rect class="cls-1" width="57.6" height="57.6"/>
      <line class="cls-2" x1="52.5" y1="3.6" x2="55.5" y2="3.6"/>
      <line class="cls-2" x1="38.1" y1="3.6" x2="41.1" y2="3.6"/>
      <line class="cls-2" x1="23.7" y1="3.6" x2="26.7" y2="3.6"/>
      <line class="cls-2" x1="9.3" y1="3.6" x2="12.3" y2="3.6"/>
      <line class="cls-2" x1="45.3" y1="10.8" x2="48.3" y2="10.8"/>
      <line class="cls-2" x1="30.9" y1="10.8" x2="33.9" y2="10.8"/>
      <line class="cls-2" x1="16.5" y1="10.8" x2="19.5" y2="10.8"/>
      <line class="cls-2" x1="2.1" y1="10.8" x2="5.1" y2="10.8"/>
      <line class="cls-2" x1="52.5" y1="18" x2="55.5" y2="18"/>
      <line class="cls-2" x1="38.1" y1="18" x2="41.1" y2="18"/>
      <line class="cls-2" x1="23.7" y1="18" x2="26.7" y2="18"/>
      <line class="cls-2" x1="9.3" y1="18" x2="12.3" y2="18"/>
      <line class="cls-2" x1="45.3" y1="25.2" x2="48.3" y2="25.2"/>
      <line class="cls-2" x1="30.9" y1="25.2" x2="33.9" y2="25.2"/>
      <line class="cls-2" x1="16.5" y1="25.2" x2="19.5" y2="25.2"/>
      <line class="cls-2" x1="2.1" y1="25.2" x2="5.1" y2="25.2"/>
      <line class="cls-2" x1="52.5" y1="32.4" x2="55.5" y2="32.4"/>
      <line class="cls-2" x1="38.1" y1="32.4" x2="41.1" y2="32.4"/>
      <line class="cls-2" x1="23.7" y1="32.4" x2="26.7" y2="32.4"/>
      <line class="cls-2" x1="9.3" y1="32.4" x2="12.3" y2="32.4"/>
      <line class="cls-2" x1="45.3" y1="39.6" x2="48.3" y2="39.6"/>
      <line class="cls-2" x1="30.9" y1="39.6" x2="33.9" y2="39.6"/>
      <line class="cls-2" x1="16.5" y1="39.6" x2="19.5" y2="39.6"/>
      <line class="cls-2" x1="2.1" y1="39.6" x2="5.1" y2="39.6"/>
      <line class="cls-2" x1="52.5" y1="46.8" x2="55.5" y2="46.8"/>
      <line class="cls-2" x1="38.1" y1="46.8" x2="41.1" y2="46.8"/>
      <line class="cls-2" x1="23.7" y1="46.8" x2="26.7" y2="46.8"/>
      <line class="cls-2" x1="9.3" y1="46.8" x2="12.3" y2="46.8"/>
      <line class="cls-2" x1="45.3" y1="54" x2="48.3" y2="54"/>
      <line class="cls-2" x1="30.9" y1="54" x2="33.9" y2="54"/>
      <line class="cls-2" x1="16.5" y1="54" x2="19.5" y2="54"/>
      <line class="cls-2" x1="2.1" y1="54" x2="5.1" y2="54"/>
      <line class="cls-2" x1="54" y1="2.1" x2="54" y2="5.1"/>
      <line class="cls-2" x1="39.6" y1="2.1" x2="39.6" y2="5.1"/>
      <line class="cls-2" x1="25.2" y1="2.1" x2="25.2" y2="5.1"/>
      <line class="cls-2" x1="10.8" y1="2.1" x2="10.8" y2="5.1"/>
      <line class="cls-2" x1="46.8" y1="9.3" x2="46.8" y2="12.3"/>
      <line class="cls-2" x1="32.4" y1="9.3" x2="32.4" y2="12.3"/>
      <line class="cls-2" x1="18" y1="9.3" x2="18" y2="12.3"/>
      <line class="cls-2" x1="3.6" y1="9.3" x2="3.6" y2="12.3"/>
      <line class="cls-2" x1="54" y1="16.5" x2="54" y2="19.5"/>
      <line class="cls-2" x1="39.6" y1="16.5" x2="39.6" y2="19.5"/>
      <line class="cls-2" x1="25.2" y1="16.5" x2="25.2" y2="19.5"/>
      <line class="cls-2" x1="10.8" y1="16.5" x2="10.8" y2="19.5"/>
      <line class="cls-2" x1="46.8" y1="23.7" x2="46.8" y2="26.7"/>
      <line class="cls-2" x1="32.4" y1="23.7" x2="32.4" y2="26.7"/>
      <line class="cls-2" x1="18" y1="23.7" x2="18" y2="26.7"/>
      <line class="cls-2" x1="3.6" y1="23.7" x2="3.6" y2="26.7"/>
      <line class="cls-2" x1="54" y1="30.9" x2="54" y2="33.9"/>
      <line class="cls-2" x1="39.6" y1="30.9" x2="39.6" y2="33.9"/>
      <line class="cls-2" x1="25.2" y1="30.9" x2="25.2" y2="33.9"/>
      <line class="cls-2" x1="10.8" y1="30.9" x2="10.8" y2="33.9"/>
      <line class="cls-2" x1="46.8" y1="38.1" x2="46.8" y2="41.1"/>
      <line class="cls-2" x1="32.4" y1="38.1" x2="32.4" y2="41.1"/>
      <line class="cls-2" x1="18" y1="38.1" x2="18" y2="41.1"/>
      <line class="cls-2" x1="3.6" y1="38.1" x2="3.6" y2="41.1"/>
      <line class="cls-2" x1="54" y1="45.3" x2="54" y2="48.3"/>
      <line class="cls-2" x1="39.6" y1="45.3" x2="39.6" y2="48.3"/>
      <line class="cls-2" x1="25.2" y1="45.3" x2="25.2" y2="48.3"/>
      <line class="cls-2" x1="10.8" y1="45.3" x2="10.8" y2="48.3"/>
      <line class="cls-2" x1="46.8" y1="52.5" x2="46.8" y2="55.5"/>
      <line class="cls-2" x1="32.4" y1="52.5" x2="32.4" y2="55.5"/>
      <line class="cls-2" x1="18" y1="52.5" x2="18" y2="55.5"/>
      <line class="cls-2" x1="3.6" y1="52.5" x2="3.6" y2="55.5"/>
    </pattern>
  </defs>
  <title>aree_legenda</title>
  <g>
    <g>
      <path class="cls-5" d="M36.6,44.6V30.2h2.3V42.5h5.7v2.1Z"/>
      <path class="cls-5" d="M54.4,42.6v1.7a30.06,30.06,0,0,1-4.2.5c-3.2,0-4.4-1.7-4.4-5.4s1.7-5.6,4.6-5.6,4.4,1.5,4.4,4.8l-.2,1.6H48.1c0,1.7.7,2.5,2.4,2.5S54.4,42.6,54.4,42.6Zm-1.9-4.1c0-2.1-.6-2.8-2.2-2.8s-2.3.8-2.3,2.8Z"/>
      <path class="cls-5" d="M56.5,46.4c0-1.1.5-1.7,1.6-2.5a1.8,1.8,0,0,1-.7-1.5,5.31,5.31,0,0,1,.8-1.7,3.18,3.18,0,0,1-1.5-3.2c0-2.7,1.8-3.7,4.2-3.7a7.61,7.61,0,0,1,2.1.3l3.3-.1v1.8l-1.7-.1a2.62,2.62,0,0,1,.5,1.7c0,2.9-1.5,3.6-4.3,3.6a2.77,2.77,0,0,1-.9-.1c-.1.3-.2.7-.3,1,0,.7.2.8,2.3.8,3.3,0,4.4.7,4.4,3.1s-2,3.4-4.8,3.4C58.1,49.4,56.5,48.8,56.5,46.4Zm3.1-1.7a1.76,1.76,0,0,0-.8,1.5c0,1,.7,1.4,2.6,1.4,1.7,0,2.5-.4,2.5-1.5s-.5-1.3-2.3-1.3C61,44.8,59.6,44.7,59.6,44.7Zm3.2-7.2c0-1.3-.5-1.9-2-1.9s-1.9.6-1.9,1.9a1.65,1.65,0,0,0,1.9,1.9C62.1,39.4,62.8,38.8,62.8,37.5Z"/>
      <path class="cls-5" d="M76.1,42.6v1.7a30.06,30.06,0,0,1-4.2.5c-3.2,0-4.4-1.7-4.4-5.4s1.7-5.6,4.6-5.6,4.4,1.5,4.4,4.8l-.2,1.6H69.8c0,1.7.7,2.5,2.4,2.5S76.1,42.6,76.1,42.6Zm-1.9-4.1c0-2.1-.6-2.8-2.2-2.8s-2.3.8-2.3,2.8Z"/>
      <path class="cls-5" d="M78.7,44.6V34.1H81v.7a7.54,7.54,0,0,1,2.9-.9c2.9,0,3.6,1.7,3.6,5.1v5.6H85.2V39c0-2.1-.3-3.1-1.9-3.1a6.87,6.87,0,0,0-2.4.5v8.2Z"/>
      <path class="cls-5" d="M98.7,44.6H96.4V44a9,9,0,0,1-2.8.8c-2.7,0-4-1.4-4-5.5,0-3.8,1.4-5.5,4.4-5.5a9.86,9.86,0,0,1,2.4.3V29.7h2.3Zm-2.3-2.4V36a16.35,16.35,0,0,0-2.2-.2c-1.5,0-2.2,1.2-2.2,3.5,0,2.7.7,3.4,2,3.4A6.87,6.87,0,0,0,96.4,42.2Z"/>
      <path class="cls-5" d="M109.2,42.1a.89.89,0,0,0,.8,1h.1l-.1,1.7a4,4,0,0,1-2.8-.8,9.94,9.94,0,0,1-3.4.8c-2.1,0-3.1-1.2-3.1-3.3s1.2-3,3.5-3.2l2.7-.2v-.8c0-1.2-.5-1.5-1.5-1.5-1.4,0-3.9.2-3.9.2l-.1-1.6a20.07,20.07,0,0,1,4.2-.5c2.6,0,3.6,1.1,3.6,3.5Zm-4.7-2.2c-1,.1-1.4.5-1.4,1.5s.4,1.5,1.3,1.5a7.51,7.51,0,0,0,2.6-.5V39.6Z"/>
    </g>
    <rect class="cls-7" x="34.9" y="250.5" width="36" height="37.5"/>
    <rect class="cls-8" x="34.9" y="314.5" width="36" height="37.5"/>
    <rect class="cls-9" x="231.8" y="59.7" width="36" height="37.5"/>
    <rect class="cls-10" x="232.4" y="250.5" width="36" height="37.5"/>
    <rect class="cls-11" x="232.4" y="314.5" width="36" height="37.5"/>
    <rect class="cls-12" x="231.4" y="123.7" width="36" height="37.5"/>
    <rect class="cls-13" x="34.2" y="187.7" width="36" height="37.5"/>
    <rect class="cls-14" x="34.9" y="123.7" width="36" height="37.5"/>
    <g>
      <path class="cls-5" d="M81.7,60h1.7l2.3,7L88,60h1.7v8.3h-.9V61h-.2l-2.4,7h-1l-2.4-7h-.2v7.3h-.9Z"/>
      <path class="cls-5" d="M91.8,60h5v.8H92.7v2.9h3.4v.8H92.7v3h4.1v.8h-5Z"/>
      <path class="cls-5" d="M98.4,68.3V60h3c2.4,0,3.1,1.7,3.1,4s-.6,4.3-3.1,4.3Zm3-7.5h-2v6.7h2c1.7,0,2.1-1.7,2.1-3.4s-.4-3.3-2.1-3.3Z"/>
      <path class="cls-5" d="M106.2,60h.9v8.3h-.9Z"/>
      <path class="cls-5" d="M110.7,60h2l2.3,8.3h-1l-.6-2.1h-3.6l-.6,2.1h-.9Zm-.6,5.3h3.1L112,60.8h-.6Z"/>
      <path class="cls-5" d="M116.3,60H118l3.2,7.5h.3V60h.9v8.3h-1.7l-3.2-7.5h-.2v7.5h-.9V60Z"/>
      <path class="cls-5" d="M124,64.2c0-2.7.7-4.3,3.3-4.3s3.3,1.5,3.3,4.3-.7,4.2-3.3,4.2S124,67,124,64.2Zm5.6,0c0-2.2-.4-3.5-2.3-3.5s-2.3,1.2-2.3,3.5.4,3.4,2.3,3.4,2.3-1.1,2.3-3.4Z"/>
      <path class="cls-5" d="M86.7,82.6a18.11,18.11,0,0,1-2.3.3c-2.5,0-3-1.5-3-4.3s.5-4.3,3-4.3a9.08,9.08,0,0,1,2.3.3v.8a15,15,0,0,0-2.2-.2c-1.8,0-2.2,1.1-2.2,3.5s.3,3.4,2.2,3.4a14.92,14.92,0,0,0,2.1-.2Z"/>
      <path class="cls-5" d="M88.2,74.4h5v.8H89.1v2.9h3.4v.8H89.1v3h4.1v.8h-5Z"/>
      <path class="cls-5" d="M94.9,74.4h1.7l3.2,7.5h.2V74.4h.9v8.3H99.2L96,75.2h-.2v7.5h-.9Z"/>
      <path class="cls-5" d="M102.1,74.4h6v.8h-2.5v7.5h-.9V75.2h-2.6Z"/>
      <path class="cls-5" d="M110.2,79.5v3.2h-.9V74.4h3.1c1.7,0,2.7.8,2.7,2.5a2.22,2.22,0,0,1-1.5,2.4l1.6,3.4h-1l-1.5-3.2Zm2.2-4.3h-2.2v3.5h2.2c1.3,0,1.7-.7,1.7-1.8a1.48,1.48,0,0,0-1.2-1.7Z"/>
      <path class="cls-5" d="M116.3,78.6c0-2.7.7-4.3,3.3-4.3s3.3,1.6,3.3,4.3-.7,4.2-3.3,4.2S116.3,81.4,116.3,78.6Zm5.6,0c0-2.2-.4-3.5-2.3-3.5s-2.3,1.2-2.3,3.5.4,3.4,2.3,3.4,2.4-1.1,2.3-3.4Z"/>
      <path class="cls-5" d="M129.3,74.4H131l2.4,7,2.4-7h1.7v8.3h-.9V75.4h-.2l-2.4,7h-1l-2.4-7h-.2v7.3h-.9Z"/>
      <path class="cls-5" d="M139.3,74.4h5v.8h-4.1v2.9h3.4v.8h-3.4v3h4.1v.8h-5Z"/>
      <path class="cls-5" d="M146.9,79.5v3.2H146V74.4h3c1.7,0,2.6.8,2.6,2.5a2.22,2.22,0,0,1-1.5,2.4l1.6,3.4h-1l-1.5-3.2Zm2.1-4.3h-2.1v3.5H149c1.3,0,1.7-.7,1.7-1.8a1.48,1.48,0,0,0-1.2-1.7Z"/>
      <path class="cls-5" d="M153.4,74.4h.9v8.3h-.9Z"/>
      <path class="cls-5" d="M156.3,82.7V74.4h3c2.4,0,3.1,1.7,3.1,4s-.6,4.3-3.1,4.3Zm3-7.5h-2v6.7h2c1.7,0,2.1-1.7,2.1-3.4s-.4-3.3-2.1-3.3Z"/>
      <path class="cls-5" d="M164,74.4h1v8.3h-1Z"/>
      <path class="cls-5" d="M166.7,78.6c0-2.7.7-4.3,3.3-4.3s3.3,1.6,3.3,4.3-.7,4.2-3.3,4.2S166.7,81.4,166.7,78.6Zm5.6,0c0-2.2-.4-3.5-2.3-3.5s-2.3,1.2-2.3,3.5.4,3.4,2.3,3.4,2.3-1.1,2.3-3.4Z"/>
      <path class="cls-5" d="M174.9,74.4h1.7l3.2,7.5h.3V74.4h.9v8.3h-1.7l-3.2-7.5h-.2v7.5H175Z"/>
      <path class="cls-5" d="M184.6,74.4h2l2.3,8.3H188l-.6-2.1h-3.6l-.6,2.1h-.9Zm-.6,5.3h3.1l-1.3-4.6h-.6Z"/>
      <path class="cls-5" d="M190.2,82.7V74.4h.9v7.5h3.6v.8Z"/>
      <path class="cls-5" d="M195.9,74.4h5v.8h-4.1v2.9h3.4v.8h-3.4v3H201v.8h-5Z"/>
      <text class="cls-15" transform="translate(123.4 81.55)">-</text>
    </g>
    <g>
      <path class="cls-5" d="M81.5,250.8h6v.8H85v7.5h-.9v-7.5H81.5Z"/>
      <path class="cls-5" d="M88.1,255c0-2.7.7-4.3,3.3-4.3s3.3,1.6,3.3,4.3-.7,4.2-3.3,4.2S88.1,257.8,88.1,255Zm5.6,0c0-2.2-.4-3.5-2.3-3.5s-2.3,1.2-2.3,3.5.4,3.4,2.3,3.4,2.3-1.1,2.3-3.4Z"/>
      <path class="cls-5" d="M101,251.7s-1.7-.2-2.4-.2c-1.2,0-1.8.4-1.8,1.4s.6,1.3,2,1.6c1.7.4,2.4.8,2.4,2.2,0,1.8-1,2.5-2.6,2.5a10.9,10.9,0,0,1-2.6-.3l.1-.8s1.6.2,2.5.2c1.2,0,1.8-.5,1.8-1.7,0-.9-.5-1.2-1.9-1.5-1.7-.4-2.6-.8-2.6-2.4s1.1-2.2,2.7-2.2a21.05,21.05,0,0,1,2.5.2Z"/>
      <path class="cls-5" d="M107.9,258.9a18.1,18.1,0,0,1-2.3.3c-2.5,0-3-1.5-3-4.3s.5-4.3,3-4.3a9.08,9.08,0,0,1,2.3.3v.8a15,15,0,0,0-2.2-.2c-1.8,0-2.2,1.1-2.2,3.5s.3,3.4,2.2,3.4a14.92,14.92,0,0,0,2.1-.2v.7Z"/>
      <path class="cls-5" d="M110.9,250.8h2l2.3,8.3h-.9l-.6-2.1h-3.6l-.6,2.1h-.9Zm-.5,5.3h3.1l-1.3-4.6h-.6Z"/>
      <path class="cls-5" d="M116.5,250.8h1.7l3.2,7.5h.2v-7.5h1v8.3H121l-3.3-7.5h-.2v7.5h-.9Z"/>
      <path class="cls-5" d="M124.3,255c0-2.7.7-4.3,3.3-4.3s3.3,1.6,3.3,4.3-.7,4.2-3.3,4.2S124.3,257.8,124.3,255Zm5.6,0c0-2.2-.4-3.5-2.3-3.5s-2.3,1.2-2.3,3.5.4,3.4,2.3,3.4,2.3-1.1,2.3-3.4Z"/>
    </g>
    <g>
      <path class="cls-5" d="M82.4,314.8H84l2.4,7,2.3-7h1.7v8.3h-.9v-7.3h-.2l-2.4,7h-1l-2.4-7h-.2v7.3h-.9Z"/>
      <path class="cls-5" d="M92.5,314.8h5v.8H93.4v2.9h3.4v.8H93.4v3h4.1v.8h-5Z"/>
      <path class="cls-5" d="M100,319.9v3.2h-.9v-8.3h3.1c1.7,0,2.6.8,2.6,2.5a2.22,2.22,0,0,1-1.5,2.4l1.6,3.4h-1l-1.5-3.2Zm2.2-4.3H100v3.5h2.2c1.3,0,1.7-.7,1.7-1.8a1.48,1.48,0,0,0-1.2-1.7Z"/>
      <path class="cls-5" d="M106.5,314.8h.9v8.3h-.9Z"/>
      <path class="cls-5" d="M109.4,323.1v-8.3h3c2.4,0,3.1,1.7,3.1,4s-.6,4.3-3.1,4.3Zm3-7.5h-2v6.7h2c1.7,0,2.1-1.7,2.1-3.4.1-1.9-.4-3.3-2.1-3.3Z"/>
      <path class="cls-5" d="M117.2,314.8h.9v8.3h-.9Z"/>
      <path class="cls-5" d="M119.8,319c0-2.7.7-4.3,3.3-4.3s3.3,1.5,3.3,4.3-.7,4.2-3.3,4.2S119.8,321.8,119.8,319Zm5.6,0c0-2.2-.4-3.5-2.3-3.5s-2.3,1.2-2.3,3.5.4,3.4,2.3,3.4S125.4,321.3,125.4,319Z"/>
      <path class="cls-5" d="M128,314.8h1.7l3.2,7.5h.3v-7.5h.9v8.3h-1.7l-3.2-7.5H129v7.5h-1Z"/>
      <path class="cls-5" d="M137.7,314.8h2l2.3,8.3h-1l-.6-2.1h-3.6l-.6,2.1h-.9Zm-.6,5.3h3.1l-1.3-4.6h-.6Z"/>
      <path class="cls-5" d="M143.3,323.1v-8.3h.9v7.5h3.6v.8Z"/>
      <path class="cls-5" d="M149.1,314.8h5v.8H150v2.9h3.4v.8H150v3h4.1v.8h-5Z"/>
      <path class="cls-5" d="M158.3,314.8h.9v8.3h-.9Z"/>
      <path class="cls-5" d="M161.3,314.8H163l3.2,7.5h.3v-7.5h.9v8.3h-1.7l-3.2-7.5h-.2v7.5h-.9Z"/>
      <path class="cls-5" d="M168.5,314.8h6v.8H172v7.5h-.9v-7.5h-2.6Z"/>
      <path class="cls-5" d="M175.7,314.8h5v.8h-4v2.9h3.4v.8h-3.4v3h4.1v.8h-5Z"/>
      <path class="cls-5" d="M183.3,319.9v3.2h-.9v-8.3h3.1c1.7,0,2.6.8,2.6,2.5a2.22,2.22,0,0,1-1.5,2.4l1.6,3.4h-1l-1.5-3.2Zm2.1-4.3h-2.1v3.5h2.2c1.3,0,1.7-.7,1.7-1.8a1.48,1.48,0,0,0-1.2-1.7Z"/>
      <path class="cls-5" d="M189.7,314.8h1.7l2.4,7,2.4-7h1.7v8.3H197v-7.3h-.2l-2.4,7h-1l-2.4-7h-.2v7.3h-.9Z"/>
      <path class="cls-5" d="M199.8,314.8h5v.8h-4.1v2.9h3.4v.8h-3.4v3h4.1v.8h-5Z"/>
      <path class="cls-5" d="M206.5,323.1v-8.3h3c2.4,0,3.1,1.7,3.1,4s-.6,4.3-3.1,4.3Zm3-7.5h-2v6.7h2c1.7,0,2.1-1.7,2.1-3.4,0-1.9-.5-3.3-2.1-3.3Z"/>
      <path class="cls-5" d="M214.2,314.8h.9v8.3h-.9Z"/>
      <path class="cls-5" d="M216.8,319c0-2.7.7-4.3,3.3-4.3s3.3,1.5,3.3,4.3-.7,4.2-3.3,4.2S216.8,321.8,216.8,319Zm5.6,0c0-2.2-.4-3.5-2.3-3.5s-2.3,1.2-2.3,3.5.4,3.4,2.3,3.4S222.4,321.3,222.4,319Z"/>
    </g>
    <g>
      <rect class="cls-7" x="35.3" y="376.6" width="36" height="37.5"/>
      <rect class="cls-16" x="35.3" y="376.6" width="36" height="37.5"/>
    </g>
    <g>
      <path class="cls-5" d="M88.4,376.9l-2.2,8.3H84.1l-2.2-8.3h1l1.9,7.5h.7l1.9-7.5Z"/>
      <path class="cls-5" d="M89.7,376.9h5v.9h-4v2.9h3.4v.8H90.7v3h4.1v.8H89.7Z"/>
      <path class="cls-5" d="M96.3,376.9H98l3.2,7.5h.3v-7.5h.9v8.3h-1.7l-3.2-7.4h-.2v7.5h-.9v-8.4Z"/>
      <path class="cls-5" d="M104.4,376.9h5v.9h-4.1v2.9h3.4v.8h-3.4v3h4.1v.8h-5Z"/>
      <path class="cls-5" d="M110.2,376.9h6v.9h-2.6v7.5h-.9v-7.5h-2.6Z"/>
      <path class="cls-5" d="M116.8,381.1c0-2.7.7-4.3,3.3-4.3s3.3,1.6,3.3,4.3-.7,4.2-3.3,4.2S116.8,383.9,116.8,381.1Zm5.6,0c0-2.2-.4-3.5-2.3-3.5s-2.3,1.2-2.3,3.5.4,3.4,2.3,3.4,2.3-1,2.3-3.4Z"/>
    </g>
    <g>
      <path class="cls-5" d="M279.1,376.6h1.7l2.4,7,2.4-7h1.7v8.3h-.9v-7.3H286l-2.4,7h-1l-2.4-7H280v7.3h-.9Z"/>
      <path class="cls-5" d="M289.1,376.6h5v.8H290v2.9h3.4v.8H290v3h4.1v.8h-5Z"/>
      <path class="cls-5" d="M296.7,381.7v3.2h-.9v-8.3h3.1c1.7,0,2.6.8,2.6,2.5a2.22,2.22,0,0,1-1.5,2.4l1.6,3.4h-1l-1.5-3.2Zm2.1-4.3h-2.1v3.5h2.2c1.3,0,1.7-.7,1.7-1.8a1.48,1.48,0,0,0-1.3-1.7Z"/>
      <path class="cls-5" d="M303.2,376.6h.9v8.3h-.9Z"/>
      <path class="cls-5" d="M306.1,384.9v-8.3h3c2.4,0,3.1,1.7,3.1,4s-.6,4.3-3.1,4.3Zm3-7.5h-2v6.7h2c1.7,0,2.1-1.7,2.1-3.5s-.4-3.2-2.1-3.2Z"/>
      <path class="cls-5" d="M313.9,376.6h.9v8.3h-.9Z"/>
      <path class="cls-5" d="M316.5,380.8c0-2.7.7-4.3,3.3-4.3s3.3,1.5,3.3,4.3-.7,4.2-3.3,4.2S316.5,383.6,316.5,380.8Zm5.6,0c0-2.2-.4-3.5-2.3-3.5s-2.3,1.2-2.3,3.5.4,3.4,2.3,3.4S322.1,383.1,322.1,380.8Z"/>
      <path class="cls-5" d="M324.7,376.6h1.7l3.2,7.5h.3v-7.5h.9v8.3h-1.7l-3.2-7.5h-.2v7.5h-.9Z"/>
      <path class="cls-5" d="M334.4,376.6h2l2.3,8.3h-.9l-.6-2.1h-3.5l-.6,2.1h-.9Zm-.6,5.3h3.1l-1.3-4.6H335Z"/>
      <path class="cls-5" d="M340,384.9v-8.3h.9v7.5h3.6v.8Z"/>
      <path class="cls-5" d="M345.8,376.6h5v.8h-4.1v2.9h3.4v.8h-3.4v3h4.1v.8h-5Z"/>
      <path class="cls-5" d="M355,376.6h5v.8h-4.1v2.9h3.4v.8h-3.4v3H360v.8h-5Z"/>
      <path class="cls-5" d="M366.3,377.5s-1.7-.2-2.4-.2c-1.2,0-1.8.4-1.8,1.4s.6,1.3,2,1.6c1.7.4,2.4.8,2.4,2.2a2.32,2.32,0,0,1-2.6,2.6,10.9,10.9,0,0,1-2.6-.3l.1-.8s1.6.2,2.5.2c1.2,0,1.8-.5,1.8-1.7,0-.9-.5-1.2-1.9-1.5-1.7-.4-2.6-.8-2.6-2.4s1-2.2,2.7-2.2a21.05,21.05,0,0,1,2.5.2Z"/>
      <path class="cls-5" d="M367.3,376.6h6v.8h-2.5v7.5h-.9v-7.5h-2.6Z"/>
      <path class="cls-5" d="M375.4,381.7v3.2h-.9v-8.3h3.1c1.7,0,2.6.8,2.6,2.5a2.22,2.22,0,0,1-1.5,2.4l1.6,3.4h-1l-1.5-3.2Zm2.1-4.3h-2.1v3.5h2.2c1.3,0,1.7-.7,1.7-1.8a1.48,1.48,0,0,0-1.2-1.7Z"/>
      <path class="cls-5" d="M381.8,376.6h5v.8h-4.1v2.9h3.4v.8h-3.4v3h4.1v.8h-5Z"/>
      <path class="cls-5" d="M388.5,376.6h1.7l2.4,7,2.4-7h1.7v8.3h-.9v-7.3h-.2l-2.4,7h-1l-2.4-7h-.2v7.3h-.9Z"/>
      <path class="cls-5" d="M398.2,380.8c0-2.7.7-4.3,3.3-4.3s3.3,1.5,3.3,4.3-.7,4.2-3.3,4.2S398.2,383.6,398.2,380.8Zm5.6,0c0-2.2-.4-3.5-2.3-3.5s-2.3,1.2-2.3,3.5.4,3.4,2.3,3.4S403.8,383.1,403.8,380.8Z"/>
    </g>
    <g>
      <path class="cls-5" d="M279.4,187.7h5v.9h-4v3.2h3.4v.8h-3.4V196h-1Z"/>
      <path class="cls-5" d="M286.6,192.8V196h-.9v-8.3h3.1c1.7,0,2.6.8,2.6,2.5a2.22,2.22,0,0,1-1.5,2.4l1.6,3.4h-1l-1.5-3.2Zm2.2-4.3h-2.1V192h2.2c1.3,0,1.7-.7,1.7-1.8a1.55,1.55,0,0,0-1.3-1.7Z"/>
      <path class="cls-5" d="M293.1,187.7h.9V196h-.9Z"/>
      <path class="cls-5" d="M298.9,195.3c1.3,0,2-.5,2-1.8v-5.8h.9v5.8c0,1.9-1,2.6-2.9,2.6s-2.9-.7-2.9-2.6v-5.8h.9v5.8C296.9,194.8,297.6,195.3,298.9,195.3Z"/>
      <path class="cls-5" d="M303.8,196v-8.3h.9v7.5h3.7v.8Z"/>
      <path class="cls-5" d="M311.1,187.7h2l2.3,8.3h-.9l-.6-2.1h-3.5l-.6,2.1h-.9Zm-.6,5.3h3.1l-1.3-4.5h-.6Z"/>
      <path class="cls-5" d="M316.7,187.7h1.7l3.2,7.5h.3v-7.5h.9V196h-1.6l-3.2-7.4h-.2v7.5h-.9v-8.4Z"/>
      <path class="cls-5" d="M324.5,191.9c0-2.7.7-4.3,3.3-4.3s3.3,1.6,3.3,4.3-.7,4.2-3.3,4.2S324.5,194.6,324.5,191.9Zm5.6,0c0-2.2-.4-3.5-2.3-3.5s-2.3,1.2-2.3,3.5.4,3.4,2.3,3.4,2.3-1.1,2.3-3.4Z"/>
    </g>
    <g>
      <path class="cls-5" d="M277.6,129.5v2.8h-.9V124h3a2.39,2.39,0,0,1,2.7,2.7c0,1.8-.8,2.8-2.7,2.8Zm2.1-.8c1.2,0,1.7-.7,1.7-2s-.5-1.9-1.7-1.9h-2.1v3.9Z"/>
      <path class="cls-5" d="M284.7,129.1v3.2h-.9V124h3.1c1.7,0,2.6.8,2.6,2.5a2.22,2.22,0,0,1-1.5,2.4l1.6,3.4h-1l-1.5-3.2Zm2.1-4.3h-2.2v3.5h2.2c1.3,0,1.7-.7,1.7-1.8a1.48,1.48,0,0,0-1.2-1.7Z"/>
      <path class="cls-5" d="M290.8,128.2c0-2.7.7-4.3,3.3-4.3s3.3,1.6,3.3,4.3-.7,4.2-3.3,4.2S290.8,131,290.8,128.2Zm5.6,0c0-2.2-.4-3.5-2.3-3.5s-2.3,1.2-2.3,3.5.4,3.4,2.3,3.4S296.4,130.5,296.4,128.2Z"/>
      <path class="cls-5" d="M304.6,124l-2.2,8.3h-2.1l-2.2-8.3h1l1.9,7.5h.7l1.9-7.5Z"/>
      <path class="cls-5" d="M305.9,124h5v.8h-4.1v2.9h3.4v.8h-3.4v3h4.1v.8h-5Z"/>
      <path class="cls-5" d="M312.5,124h1.7l3.2,7.5h.3V124h.9v8.3h-1.7l-3.2-7.5h-.2v7.5h-.9Z"/>
      <path class="cls-5" d="M320.1,124h5.4v1.1l-4.3,6.2v.2h4.3v.8h-5.4v-1.1l4.3-6.2v-.3h-4.3Z"/>
      <path class="cls-5" d="M328.6,124h2l2.3,8.3H332l-.6-2.1h-3.5l-.6,2.1h-.9Zm-.5,5.3h3.1l-1.3-4.5h-.6Z"/>
      <path class="cls-5" d="M334.2,132.3V124h.9v7.5h3.7v.8Z"/>
      <path class="cls-5" d="M339.9,124h5v.8h-4v2.9h3.4v.8h-3.4v3H345v.8h-5Z"/>
    </g>
    <g>
      <path class="cls-5" d="M84.8,124.9s-1.7-.2-2.4-.2c-1.2,0-1.8.4-1.8,1.4s.6,1.3,2,1.6c1.7.4,2.4.8,2.4,2.2a2.32,2.32,0,0,1-2.6,2.6,10.9,10.9,0,0,1-2.6-.3l.1-.8s1.6.2,2.5.2c1.2,0,1.8-.5,1.8-1.7,0-.9-.5-1.2-1.9-1.5-1.7-.4-2.6-.8-2.6-2.4s1.1-2.2,2.7-2.2a21.05,21.05,0,0,1,2.5.2Z"/>
      <path class="cls-5" d="M86.7,132.3V124h.9v7.5h3.6v.8Z"/>
      <path class="cls-5" d="M91.8,128.2c0-2.7.7-4.3,3.3-4.3s3.3,1.6,3.3,4.3-.7,4.2-3.3,4.2S91.8,131,91.8,128.2Zm5.6,0c0-2.2-.4-3.5-2.3-3.5s-2.3,1.2-2.3,3.5.4,3.4,2.3,3.4,2.4-1.1,2.3-3.4Z"/>
      <path class="cls-5" d="M105.6,124l-2.2,8.3h-2.1L99.1,124h1l1.9,7.5h.7l1.9-7.5Z"/>
      <path class="cls-5" d="M106.9,124h5v.8h-4.1v2.9h3.4v.8h-3.4v3h4.1v.8h-5Z"/>
      <path class="cls-5" d="M113.6,124h1.7l3.2,7.5h.3V124h.9v8.3H118l-3.2-7.5h-.2v7.5h-.9Z"/>
      <path class="cls-5" d="M121.4,128.2c0-2.7.7-4.3,3.3-4.3s3.3,1.6,3.3,4.3-.7,4.2-3.3,4.2S121.4,131,121.4,128.2Zm5.6,0c0-2.2-.4-3.5-2.3-3.5s-2.3,1.2-2.3,3.5.4,3.4,2.3,3.4S127,130.5,127,128.2Z"/>
    </g>
    <g>
      <path class="cls-5" d="M79.4,188h5v.8h-4V192h3.3v.8H80.3v3.4h-.9Z"/>
      <path class="cls-5" d="M86.7,193.1v3.2h-.9V188h3.1c1.7,0,2.6.8,2.6,2.5a2.22,2.22,0,0,1-1.5,2.4l1.6,3.4h-1l-1.5-3.2Zm2.1-4.3H86.7v3.5h2.2c1.3,0,1.7-.7,1.7-1.8a1.48,1.48,0,0,0-1.2-1.7Z"/>
      <path class="cls-5" d="M94.6,188h2l2.3,8.3H98l-.6-2.1H93.9l-.6,2.1h-.9Zm-.6,5.3h3.1l-1.3-4.6h-.6Z"/>
      <path class="cls-5" d="M100.2,188h1.7l3.2,7.5h.3V188h.9v8.3h-1.7l-3.2-7.5h-.2v7.5h-.9Z"/>
      <path class="cls-5" d="M113.3,196.2a18.11,18.11,0,0,1-2.3.3c-2.5,0-3-1.5-3-4.3s.5-4.3,3-4.3a9.08,9.08,0,0,1,2.3.3v.8a15,15,0,0,0-2.2-.2c-1.9,0-2.2,1.1-2.2,3.5s.3,3.4,2.2,3.4a14.92,14.92,0,0,0,2.1-.2v.7Z"/>
      <path class="cls-5" d="M114.4,192.2c0-2.7.7-4.3,3.3-4.3s3.3,1.6,3.3,4.3-.7,4.2-3.3,4.2S114.4,195,114.4,192.2Zm5.6,0c0-2.2-.4-3.5-2.3-3.5s-2.3,1.2-2.3,3.5.4,3.4,2.3,3.4S120,194.5,120,192.2Z"/>
      <path class="cls-5" d="M123.2,193.5v2.8h-.9V188h3a2.39,2.39,0,0,1,2.7,2.7c0,1.8-.8,2.8-2.7,2.8Zm2.1-.8c1.2,0,1.7-.7,1.7-2s-.5-1.9-1.7-1.9h-2.1v3.9Z"/>
      <path class="cls-5" d="M130.3,193.1v3.2h-.9V188h3.1c1.7,0,2.7.8,2.7,2.5a2.22,2.22,0,0,1-1.5,2.4l1.6,3.4h-1l-1.5-3.2Zm2.2-4.3h-2.2v3.5h2.2c1.3,0,1.7-.7,1.7-1.8a1.48,1.48,0,0,0-1.2-1.7Z"/>
      <path class="cls-5" d="M136.5,192.2c0-2.7.7-4.3,3.3-4.3s3.3,1.6,3.3,4.3-.7,4.2-3.3,4.2S136.5,195,136.5,192.2Zm5.6,0c0-2.2-.4-3.5-2.3-3.5s-2.3,1.2-2.3,3.5.4,3.4,2.3,3.4S142.1,194.5,142.1,192.2Z"/>
      <path class="cls-5" d="M150.2,188l-2.2,8.3h-2l-2.2-8.3h1l1.9,7.5h.7l1.9-7.5Z"/>
      <path class="cls-5" d="M151.6,188h5v.8h-4.1v2.9h3.4v.8h-3.4v3h4.1v.8h-5Z"/>
      <path class="cls-5" d="M158.2,188h1.7l3.2,7.5h.3V188h.9v8.3h-1.7l-3.2-7.5h-.2v7.5h-.9V188Z"/>
      <path class="cls-5" d="M165.8,188h5.4v1.1l-4.3,6.2v.2h4.3v.8h-5.4v-1.1l4.3-6.2v-.3h-4.3Z"/>
      <path class="cls-5" d="M174.3,188h2l2.3,8.3h-.9l-.6-2.1h-3.5l-.6,2.1h-1Zm-.6,5.3h3.1l-1.3-4.6H175Z"/>
      <path class="cls-5" d="M179.9,196.3V188h.9v7.5h3.7v.8Z"/>
      <path class="cls-5" d="M185.6,188h5v.8h-4.1v2.9h3.4v.8h-3.4v3h4.1v.8h-5Z"/>
    </g>
    <g>
      <path class="cls-5" d="M283.7,254.8H286v4.1a12.41,12.41,0,0,1-2.7.3c-2.5,0-3.2-1.6-3.2-4.3s.7-4.3,3.2-4.3a12.41,12.41,0,0,1,2.7.3v.8l-2.6-.3c-1.9,0-2.3,1.1-2.3,3.5s.4,3.4,2.3,3.4a9.85,9.85,0,0,0,1.7-.2v-2.6h-1.4Z"/>
      <path class="cls-5" d="M289.3,250.8h2l2.3,8.3h-.9l-.6-2.1h-3.5l-.6,2.1h-1Zm-.5,5.3h3.1l-1.2-4.6H290Z"/>
      <path class="cls-5" d="M294.9,259.1v-8.3h.9v7.5h3.6v.8Z"/>
      <path class="cls-5" d="M300.7,259.1v-8.3h.9v7.5h3.6v.8Z"/>
      <path class="cls-5" d="M305.8,255c0-2.7.7-4.3,3.3-4.3s3.3,1.6,3.3,4.3-.7,4.2-3.3,4.2S305.8,257.8,305.8,255Zm5.6,0c0-2.2-.4-3.5-2.3-3.5s-2.3,1.2-2.3,3.5.4,3.4,2.3,3.4,2.3-1.1,2.3-3.4Z"/>
      <path class="cls-5" d="M320.7,250.8h.9v8.3h-.9Z"/>
      <path class="cls-5" d="M322.8,250.8h6v.8h-2.5v7.5h-.9v-7.5h-2.5Z"/>
      <path class="cls-5" d="M331,250.8h2l2.3,8.3h-.9l-.6-2.1h-3.5l-.6,2.1h-.9Zm-.6,5.3h3.1l-1.3-4.6h-.6Z"/>
      <path class="cls-5" d="M336.6,259.1v-8.3h.9v7.5h3.6v.8Z"/>
      <path class="cls-5" d="M342.3,250.8h.9v8.3h-.9Z"/>
      <path class="cls-5" d="M350.3,258.9a18.1,18.1,0,0,1-2.3.3c-2.5,0-3-1.5-3-4.3s.5-4.3,3-4.3a9.08,9.08,0,0,1,2.3.3v.8a15,15,0,0,0-2.2-.2c-1.9,0-2.2,1.1-2.2,3.5s.3,3.4,2.2,3.4a14.92,14.92,0,0,0,2.1-.2v.7Z"/>
      <path class="cls-5" d="M351.3,255c0-2.7.7-4.3,3.3-4.3s3.3,1.6,3.3,4.3-.7,4.2-3.3,4.2S351.3,257.8,351.3,255Zm5.6,0c0-2.2-.4-3.5-2.3-3.5s-2.3,1.2-2.3,3.5.4,3.4,2.3,3.4S356.9,257.3,356.9,255Z"/>
      <text class="cls-15" transform="translate(313.9 258.3)">-</text>
    </g>
    <g>
      <path class="cls-5" d="M280.4,323.1v-8.3h.9v7.5h3.6v.8Z"/>
      <path class="cls-5" d="M287.7,314.8h2l2.3,8.3h-1l-.6-2.1h-3.5l-.6,2.1h-.9Zm-.6,5.3h3.1l-1.3-4.6h-.6Z"/>
      <path class="cls-5" d="M293.3,323.1v-8.3h3c2.4,0,3.1,1.7,3.1,4s-.6,4.3-3.1,4.3Zm3-7.5h-2v6.7h2c1.7,0,2.1-1.7,2.1-3.4,0-1.9-.4-3.3-2.1-3.3Z"/>
      <path class="cls-5" d="M301,314.8h.9v8.3H301Z"/>
      <path class="cls-5" d="M304,314.8h1.7l3.2,7.5h.3v-7.5h.9v8.3h-1.7l-3.2-7.5H305v7.5h-.9Z"/>
      <path class="cls-5" d="M311.7,319c0-2.7.7-4.3,3.3-4.3s3.3,1.5,3.3,4.3-.7,4.2-3.3,4.2S311.7,321.8,311.7,319Zm5.6,0c0-2.2-.4-3.5-2.3-3.5s-2.3,1.2-2.3,3.5.4,3.4,2.3,3.4S317.3,321.3,317.3,319Z"/>
      <path class="cls-5" d="M281.9,329.2h2l2.3,8.3h-.9l-.6-2.1h-3.5l-.6,2.1h-.9Zm-.5,5.3h3.1l-1.3-4.5h-.6Z"/>
      <path class="cls-5" d="M286.1,329.2h6v.8h-2.5v7.5h-.9V330h-2.5Z"/>
      <path class="cls-5" d="M293.3,329.2h5v.8h-4.1v2.9h3.4v.8h-3.4v3h4.1v.8h-5Z"/>
      <path class="cls-5" d="M304.5,330.1s-1.7-.2-2.4-.2c-1.2,0-1.8.4-1.8,1.4s.6,1.3,2,1.6c1.7.4,2.4.8,2.4,2.2,0,1.8-1,2.5-2.6,2.5a10.9,10.9,0,0,1-2.6-.3l.1-.8s1.6.2,2.5.2c1.2,0,1.8-.5,1.8-1.7,0-.9-.5-1.2-1.9-1.5-1.7-.4-2.6-.8-2.6-2.4s1-2.2,2.7-2.2a21.05,21.05,0,0,1,2.5.2Z"/>
      <path class="cls-5" d="M306.4,329.2h.9v8.3h-.9Z"/>
      <path class="cls-5" d="M309.3,329.2H311l3.2,7.5h.3v-7.5h.9v8.3h-1.7l-3.2-7.5h-.2v7.5h-.9Z"/>
      <path class="cls-5" d="M317.1,333.4c0-2.7.7-4.3,3.3-4.3s3.3,1.6,3.3,4.3-.7,4.2-3.3,4.2S317.1,336.1,317.1,333.4Zm5.6,0c0-2.2-.4-3.5-2.3-3.5s-2.3,1.2-2.3,3.5.4,3.4,2.3,3.4,2.3-1.1,2.3-3.4Z"/>
      <path class="cls-5" d="M328,329.2h5v.8h-4.1v2.9h3.4v.8h-3.4v3H333v.8h-5Z"/>
      <path class="cls-5" d="M342.3,337.3a18.1,18.1,0,0,1-2.3.3c-2.5,0-3-1.5-3-4.3s.5-4.3,3-4.3a9.08,9.08,0,0,1,2.3.3v.8a15,15,0,0,0-2.2-.2c-1.9,0-2.2,1.1-2.2,3.5s.3,3.4,2.2,3.4a14.92,14.92,0,0,0,2.1-.2v.7Z"/>
      <path class="cls-5" d="M345.4,329.2h2l2.3,8.3h-.9l-.6-2.1h-3.5l-.6,2.1h-.9Zm-.6,5.3h3.1l-1.3-4.5H346Z"/>
      <path class="cls-5" d="M351,337.5v-8.3h3c2.4,0,3.1,1.7,3.1,4s-.6,4.3-3.1,4.3Zm3-7.5h-2v6.7h2c1.7,0,2.1-1.7,2.1-3.5s-.4-3.2-2.1-3.2Z"/>
      <path class="cls-5" d="M358.4,333.4c0-2.7.7-4.3,3.3-4.3s3.3,1.6,3.3,4.3-.7,4.2-3.3,4.2S358.4,336.1,358.4,333.4Zm5.6,0c0-2.2-.4-3.5-2.3-3.5s-2.3,1.2-2.3,3.5.4,3.4,2.4,3.4,2.2-1.1,2.2-3.4Z"/>
      <path class="cls-5" d="M367.5,334.3v3.2h-.9v-8.3h3c1.7,0,2.6.8,2.6,2.5a2.22,2.22,0,0,1-1.5,2.4l1.6,3.4h-1l-1.5-3.2Zm2.2-4.3h-2.1v3.5h2.1c1.3,0,1.7-.7,1.7-1.8a1.48,1.48,0,0,0-1.3-1.7Z"/>
      <path class="cls-5" d="M374,329.2h.9v8.3H374Z"/>
      <path class="cls-5" d="M377,329.2h1.7l3.2,7.5h.3v-7.5h.9v8.3h-1.7l-3.2-7.5H378v7.5h-.9Z"/>
      <path class="cls-5" d="M384.7,333.4c0-2.7.7-4.3,3.3-4.3s3.3,1.6,3.3,4.3-.7,4.2-3.3,4.2S384.7,336.1,384.7,333.4Zm5.6,0c0-2.2-.4-3.5-2.3-3.5s-2.3,1.2-2.3,3.5.4,3.4,2.3,3.4S390.3,335.7,390.3,333.4Z"/>
    </g>
    <rect class="cls-12" x="34.1" y="439.3" width="36" height="37.5"/>
    <rect class="cls-10" x="232.4" y="440.5" width="36" height="37.5"/>
    <g>
      <path class="cls-5" d="M87,441.7s-1.7-.2-2.4-.2c-1.2,0-1.8.4-1.8,1.4s.6,1.3,2,1.6c1.7.4,2.4.8,2.4,2.2,0,1.8-1,2.5-2.7,2.5a10.9,10.9,0,0,1-2.6-.3l.1-.8s1.6.2,2.5.2c1.2,0,1.8-.5,1.8-1.7,0-.9-.5-1.2-1.8-1.5-1.7-.4-2.6-.8-2.6-2.4s1.1-2.2,2.7-2.2a21.05,21.05,0,0,1,2.5.2Z"/>
      <path class="cls-5" d="M90.3,440.8h2l2.3,8.3h-.9l-.6-2.1H89.6l-.6,2.1H88Zm-.6,5.3h3.1l-1.2-4.6H91Z"/>
      <path class="cls-5" d="M96.8,445.9v3.2h-.9v-8.3H99c1.7,0,2.7.8,2.7,2.5a2.22,2.22,0,0,1-1.5,2.4l1.6,3.4h-1l-1.5-3.2Zm2.2-4.3H96.9v3.5H99c1.3,0,1.7-.7,1.7-1.8a1.48,1.48,0,0,0-1.2-1.7Z"/>
      <path class="cls-5" d="M103.3,449.1v-8.3h3c2.4,0,3.1,1.7,3.1,4s-.6,4.3-3.1,4.3Zm3-7.5h-2v6.7h2c1.7,0,2.1-1.7,2.1-3.5s-.4-3.2-2.1-3.2Z"/>
      <path class="cls-5" d="M110.7,445c0-2.7.7-4.3,3.3-4.3s3.3,1.5,3.3,4.3-.7,4.2-3.3,4.2S110.7,447.8,110.7,445Zm5.6,0c0-2.2-.4-3.5-2.3-3.5s-2.3,1.2-2.3,3.5.4,3.4,2.3,3.4,2.3-1.1,2.3-3.4Z"/>
      <path class="cls-5" d="M82.4,463.5v-8.3h.9v7.5H87v.8Z"/>
      <path class="cls-5" d="M98.4,459.2h2.3v4.1a12.41,12.41,0,0,1-2.7.3c-2.5,0-3.2-1.6-3.2-4.3s.7-4.3,3.2-4.3a12.41,12.41,0,0,1,2.7.3v.8l-2.6-.3c-1.9,0-2.3,1.1-2.3,3.5s.4,3.4,2.3,3.4a9.85,9.85,0,0,0,1.7-.2V460H98.4Z"/>
      <path class="cls-5" d="M105.3,462.8c1.3,0,2-.5,2-1.8v-5.8h.9V461c0,1.9-1,2.6-2.9,2.6s-2.9-.7-2.9-2.6v-5.8h.9V461A1.74,1.74,0,0,0,105.3,462.8Z"/>
      <path class="cls-5" d="M110.2,463.5v-8.3h3c2.4,0,3.1,1.7,3.1,4s-.6,4.3-3.1,4.3Zm3-7.5h-2v6.7h2c1.7,0,2.1-1.7,2.1-3.5s-.4-3.2-2.1-3.2Z"/>
      <path class="cls-5" d="M117.7,459.4c0-2.7.7-4.3,3.3-4.3s3.3,1.5,3.3,4.3-.7,4.2-3.3,4.2S117.7,462.1,117.7,459.4Zm5.6,0c0-2.2-.4-3.5-2.3-3.5s-2.3,1.2-2.3,3.5.4,3.4,2.3,3.4,2.3-1.1,2.3-3.4Z"/>
      <path class="cls-5" d="M126.8,460.3v3.2h-.9v-8.3H129c1.7,0,2.6.8,2.6,2.5a2.22,2.22,0,0,1-1.5,2.4l1.6,3.4h-1l-1.5-3.2ZM129,456h-2.2v3.5H129c1.3,0,1.7-.7,1.7-1.8a1.48,1.48,0,0,0-1.3-1.7Z"/>
      <path class="cls-5" d="M133.3,455.2h5v.8h-4.1v2.9h3.5v.8h-3.4v3h4.1v.8h-5Z"/>
      <path class="cls-5" d="M144.6,456.1s-1.7-.2-2.4-.2c-1.2,0-1.8.4-1.8,1.4s.6,1.3,2,1.6c1.7.4,2.4.8,2.4,2.2,0,1.8-1,2.5-2.6,2.5a10.9,10.9,0,0,1-2.6-.3l.1-.8s1.6.2,2.5.2c1.2,0,1.8-.5,1.8-1.7,0-.9-.5-1.2-1.9-1.5-1.7-.4-2.6-.8-2.6-2.4s1.1-2.2,2.7-2.2a21.05,21.05,0,0,1,2.5.2Z"/>
      <path class="cls-5" d="M146.4,455.2h5v.8h-4.1v2.9h3.4v.8h-3.4v3h4.1v.8h-5Z"/>
      <path class="cls-5" d="M155.7,455.2h5v.8h-4.1v2.9H160v.8h-3.4v3h4.1v.8h-5Z"/>
      <path class="cls-5" d="M170,463.3a18.1,18.1,0,0,1-2.3.3c-2.5,0-3-1.5-3-4.3s.5-4.3,3-4.3a9.08,9.08,0,0,1,2.3.3v.8a15,15,0,0,0-2.2-.2c-1.9,0-2.2,1.1-2.2,3.5s.3,3.4,2.2,3.4a14.92,14.92,0,0,0,2.1-.2v.7Z"/>
      <path class="cls-5" d="M173,455.2h2l2.3,8.3h-.9l-.6-2.1h-3.5l-.6,2.1h-.9Zm-.5,5.3h3.1l-1.3-4.5h-.6Z"/>
      <path class="cls-5" d="M178.7,455.2h1.7l2.4,7,2.4-7h1.6v8.3h-.9v-7.3h-.2l-2.4,7h-1l-2.4-7h-.2v7.3h-.9v-8.3Z"/>
      <path class="cls-5" d="M189.7,460.7v2.8h-.9v-8.3h3c1.8,0,2.6.9,2.6,2.7s-.8,2.8-2.6,2.8Zm2.1-.8c1.2,0,1.7-.7,1.7-2s-.5-1.9-1.7-1.9h-2.1v3.9Z"/>
      <path class="cls-5" d="M195.8,455.2h.9v8.3h-.9Z"/>
      <path class="cls-5" d="M198.8,463.5v-8.3h3c2.4,0,3.1,1.7,3.1,4s-.6,4.3-3.1,4.3Zm3-7.5h-2v6.7h2c1.7,0,2.1-1.7,2.1-3.5s-.4-3.2-2.1-3.2Z"/>
      <path class="cls-5" d="M206.5,455.2h5v.8h-4.1v2.9h3.4v.8h-3.4v3h4.1v.8h-5Z"/>
      <path class="cls-5" d="M217.8,456.1s-1.7-.2-2.4-.2c-1.2,0-1.8.4-1.8,1.4s.6,1.3,2,1.6c1.7.4,2.4.8,2.4,2.2,0,1.8-1,2.5-2.6,2.5a10.9,10.9,0,0,1-2.6-.3l.1-.8s1.6.2,2.5.2c1.2,0,1.8-.5,1.8-1.7,0-.9-.5-1.2-1.9-1.5-1.7-.4-2.6-.8-2.6-2.4s1.1-2.2,2.7-2.2a21.05,21.05,0,0,1,2.5.2Z"/>
      <path class="cls-5" d="M219.7,455.2h5v.8h-4.1v2.9H224v.8h-3.4v3h4.1v.8h-5Z"/>
      <path class="cls-5" d="M87.1,459.45c0-2.7.7-4.3,3.3-4.3s3.3,1.5,3.3,4.3-.7,4.2-3.3,4.2S87.1,462.15,87.1,459.45Zm5.6,0c0-2.2-.4-3.5-2.3-3.5s-2.3,1.2-2.3,3.5.4,3.4,2.3,3.4,2.3-1.1,2.3-3.4Z"/>
    </g>
    <g>
      <path class="cls-5" d="M285,441.7s-1.7-.2-2.4-.2c-1.2,0-1.8.4-1.8,1.4s.6,1.3,2,1.6c1.7.4,2.4.8,2.4,2.2,0,1.8-1,2.5-2.6,2.5a10.9,10.9,0,0,1-2.6-.3l.1-.8s1.6.2,2.5.2c1.2,0,1.8-.5,1.8-1.7,0-.9-.5-1.2-1.9-1.5-1.7-.4-2.6-.8-2.6-2.4s1-2.2,2.7-2.2a21.05,21.05,0,0,1,2.5.2Z"/>
      <path class="cls-5" d="M288.3,440.8h2l2.3,8.3h-.9l-.6-2.1h-3.5l-.6,2.1h-1Zm-.6,5.3h3.1l-1.2-4.6H289Z"/>
      <path class="cls-5" d="M298.5,441.7s-1.7-.2-2.4-.2c-1.2,0-1.8.4-1.8,1.4s.6,1.3,2,1.6c1.7.4,2.4.8,2.4,2.2,0,1.8-1,2.5-2.6,2.5a10.9,10.9,0,0,1-2.6-.3l.1-.8s1.6.2,2.5.2c1.2,0,1.8-.5,1.8-1.7,0-.9-.5-1.2-1.9-1.5-1.7-.4-2.6-.8-2.6-2.4s1.1-2.2,2.7-2.2a21.05,21.05,0,0,1,2.5.2Z"/>
      <path class="cls-5" d="M305,441.7s-1.7-.2-2.4-.2c-1.2,0-1.8.4-1.8,1.4s.6,1.3,2,1.6c1.7.4,2.4.8,2.4,2.2,0,1.8-1,2.5-2.6,2.5a10.9,10.9,0,0,1-2.6-.3l.1-.8s1.6.2,2.5.2c1.2,0,1.8-.5,1.8-1.7,0-.9-.5-1.2-1.9-1.5-1.7-.4-2.6-.8-2.6-2.4s1.1-2.2,2.7-2.2a21.05,21.05,0,0,1,2.5.2Z"/>
      <path class="cls-5" d="M308.3,440.8h2l2.3,8.3h-.9l-.6-2.1h-3.5l-.6,2.1h-1Zm-.6,5.3h3.1l-1.3-4.5H309Z"/>
      <path class="cls-5" d="M314.8,445.9v3.2h-.9v-8.3H317c1.7,0,2.6.8,2.6,2.5a2.22,2.22,0,0,1-1.5,2.4l1.6,3.4h-1l-1.5-3.2Zm2.1-4.3h-2.1v3.5H317c1.3,0,1.7-.7,1.7-1.8a1.48,1.48,0,0,0-1.2-1.7Z"/>
      <path class="cls-5" d="M321.3,440.8h5v.8h-4.1v2.9h3.4v.8h-3.4v3h4.1v.8h-5Z"/>
      <path class="cls-5" d="M332.5,441.7s-1.7-.2-2.4-.2c-1.2,0-1.8.4-1.8,1.4s.6,1.3,2,1.6c1.7.4,2.4.8,2.4,2.2,0,1.8-1,2.5-2.6,2.5a10.9,10.9,0,0,1-2.6-.3l.1-.8s1.6.2,2.5.2c1.2,0,1.8-.5,1.8-1.7,0-.9-.5-1.2-1.9-1.5-1.7-.4-2.6-.8-2.6-2.4s1-2.2,2.7-2.2a21.05,21.05,0,0,1,2.5.2Z"/>
      <path class="cls-5" d="M334.4,440.8h5v.8h-4.1v2.9h3.4v.8h-3.4v3h4.1v.8h-5Z"/>
      <path class="cls-5" d="M280.4,455.2h5v.8h-4.1v2.9h3.4v.8h-3.4v3h4.1v.8h-5Z"/>
      <path class="cls-5" d="M292.9,459.2h2.3v4.1a12.41,12.41,0,0,1-2.7.3c-2.5,0-3.2-1.6-3.2-4.3s.7-4.3,3.2-4.3a12.41,12.41,0,0,1,2.7.3v.8l-2.6-.3c-1.9,0-2.3,1.1-2.3,3.5s.4,3.4,2.3,3.4a9.85,9.85,0,0,0,1.7-.2V460h-1.4Z"/>
      <path class="cls-5" d="M298.6,455.2h2l2.3,8.3H302l-.6-2.1h-3.5l-.6,2.1h-.9Zm-.6,5.3h3.1l-1.3-4.5h-.6Z"/>
      <path class="cls-5" d="M304.2,463.5v-8.3h.9v7.5h3.6v.8Z"/>
      <path class="cls-5" d="M309.9,463.5v-8.3h.9v7.5h3.6v.8Z"/>
      <path class="cls-5" d="M318.3,462.8c1.3,0,2-.5,2-1.8v-5.8h.9V461c0,1.9-1,2.6-2.9,2.6s-2.9-.7-2.9-2.6v-5.8h.9V461A1.74,1.74,0,0,0,318.3,462.8Z"/>
      <path class="cls-5" d="M324.2,460.3v3.2h-.9v-8.3h3.1c1.7,0,2.6.8,2.6,2.5a2.22,2.22,0,0,1-1.5,2.4l1.6,3.4h-1l-1.5-3.2Zm2.1-4.3h-2.1v3.5h2.2c1.3,0,1.7-.7,1.7-1.8a1.48,1.48,0,0,0-1.3-1.7Z"/>
      <path class="cls-5" d="M330.7,455.2h5v.8h-4.1v2.9H335v.8h-3.4v3h4.1v.8h-5Z"/>
      <path class="cls-5" d="M341.9,456.1s-1.7-.2-2.4-.2c-1.2,0-1.8.4-1.8,1.4s.6,1.3,2,1.6c1.7.4,2.4.8,2.4,2.2,0,1.8-1,2.5-2.6,2.5a10.9,10.9,0,0,1-2.6-.3l.1-.8s1.6.2,2.5.2c1.2,0,1.8-.5,1.8-1.7,0-.9-.5-1.2-1.9-1.5-1.7-.4-2.6-.8-2.6-2.4s1-2.2,2.7-2.2a21.05,21.05,0,0,1,2.5.2Z"/>
      <path class="cls-5" d="M343.8,455.2h5v.8h-4.1v2.9h3.4v.8h-3.4v3h4.1v.8h-5Z"/>
    </g>
    <g>
      <rect class="cls-8" x="232.2" y="187.4" width="36" height="37.5"/>
      <rect class="cls-17" x="231.7" y="188" width="36" height="37.5"/>
    </g>
    <g>
      <rect class="cls-18" x="232.1" y="376.3" width="36" height="37.5"/>
      <rect class="cls-19" x="231.2" y="376.9" width="36" height="37.5"/>
    </g>
    <rect class="cls-9" x="34.2" y="59.7" width="36" height="37.5"/>
    <rect class="cls-20" x="34.4" y="60.5" width="36" height="37.5"/>
    <rect class="cls-21" x="34.1" y="439.3" width="36" height="37.5"/>
    <rect class="cls-22" x="232.1" y="440.3" width="36" height="37.5"/>
    <rect class="Graphic-Style-3" x="34.1" y="502.8" width="36" height="37.5"/>
    <rect class="Graphic-Style-2" x="34.1" y="502.8" width="36" height="37.5"/>
    <text class="cls-23" transform="translate(81.2 511.82)">C<tspan class="cls-24" x="6.53" y="0">AT</tspan><tspan x="18.86" y="0">ALANO</tspan></text>
  </g>
  <g>
    <path d="M276.8,60h6v.8h-2.5v7.5h-.9V60.8h-2.6Z"/>
    <path d="M284,60h5v.8h-4.1v2.9h3.4v.8h-3.4v3H289v.8h-5Z"/>
    <path d="M290.6,68.3V60h3c2.4,0,3.1,1.7,3.1,4s-.6,4.3-3.1,4.3Zm3-7.5h-2v6.7h2c1.7,0,2.1-1.7,2.1-3.5S295.3,60.8,293.6,60.8Z"/>
    <path d="M298.3,60h5v.8h-4.1v2.9h3.4v.8h-3.4v3h4.1v.8h-5Z"/>
    <path d="M309.6,60.9s-1.7-.2-2.4-.2c-1.2,0-1.8.4-1.8,1.4s.6,1.3,2,1.6c1.7.4,2.4.8,2.4,2.2,0,1.8-1,2.6-2.7,2.6a18.33,18.33,0,0,1-2.6-.3l.1-.8s1.6.2,2.5.2c1.2,0,1.8-.5,1.8-1.7,0-.9-.5-1.2-1.8-1.5-1.7-.4-2.6-.8-2.6-2.4s1.1-2.2,2.7-2.2a24,24,0,0,1,2.5.2Z"/>
    <path d="M316.5,68.2a14.32,14.32,0,0,1-2.3.3c-2.5,0-3-1.5-3-4.2s.5-4.3,3-4.3a11.73,11.73,0,0,1,2.3.3v.8a13.79,13.79,0,0,0-2.2-.2c-1.8,0-2.2,1.1-2.2,3.5s.3,3.4,2.2,3.4a12.48,12.48,0,0,0,2.1-.2Z"/>
    <path d="M317.5,64.2c0-2.7.7-4.3,3.3-4.3s3.3,1.5,3.3,4.3-.7,4.2-3.3,4.2S317.5,67,317.5,64.2Zm5.6,0c0-2.2-.4-3.5-2.3-3.5s-2.3,1.2-2.3,3.5.4,3.4,2.3,3.4S323.1,66.5,323.1,64.2Z"/>
  </g>
</svg>
