<svg id="Layer_1" data-name="Layer 1" xmlns="http://www.w3.org/2000/svg" xmlns:xlink="http://www.w3.org/1999/xlink" viewBox="0 0 620.41 432.17">
  <defs>
    <style>
      .cls-1, .cls-3, .cls-4, .cls-5 {
        fill: none;
      }

      .cls-2 {
        fill: #231f20;
      }

      .cls-3, .cls-4, .cls-5 {
        stroke: #231f20;
      }

      .cls-3 {
        stroke-width: 6px;
      }

      .cls-4 {
        stroke-width: 0.3px;
      }

      .cls-5 {
        stroke-width: 0.75px;
      }

      .cls-6 {
        fill: #c4e5e0;
      }

      .cls-7 {
        fill: #4c8ba7;
      }

      .cls-8 {
        fill: #97d3be;
      }

      .cls-9 {
        fill: #b0d57c;
      }

      .cls-10 {
        fill: #049176;
      }

      .cls-11 {
        fill: #ce3c96;
      }

      .cls-12 {
        fill: #3b2758;
      }

      .cls-13 {
        fill: #c7da30;
      }

      .cls-14 {
        fill: url(#Circles);
      }

      .cls-15 {
        fill: url(#_6_lpi_50_);
      }

      .cls-16 {
        fill: #882677;
      }

      .cls-17 {
        fill: url(#_10_dpi_30_);
      }

      .cls-18 {
        fill: url(#Crosses);
      }

      .cls-19 {
        fill: url(#USGS_21_Intricate_Surface);
      }

      .cls-20 {
        fill: url(#Ripple);
      }
    </style>
    <pattern id="Circles" data-name="Circles" width="46.77" height="54" patternTransform="translate(22.45 192.1) scale(1.85)" patternUnits="userSpaceOnUse" viewBox="0 0 46.77 54">
      <rect class="cls-1" width="46.77" height="54"/>
      <g>
        <circle class="cls-4" cx="39.77" cy="20.83" r="1.5" transform="translate(-5.09 22.68) rotate(-30)"/>
        <circle class="cls-4" cx="38.52" cy="30.67" r="1.5" transform="translate(-7.31 48.68) rotate(-59.98)"/>
        <circle class="cls-4" cx="30.27" cy="17.58" r="1.5" transform="translate(-0.09 35) rotate(-60)"/>
        <circle class="cls-4" cx="22.72" cy="22.88" r="1.5" transform="translate(-8.39 14.41) rotate(-29.99)"/>
        <circle class="cls-4" cx="25.52" cy="30.58" r="1.5" transform="translate(-13.72 37.38) rotate(-60)"/>
        <circle class="cls-4" cx="32.43" cy="36" r="1.5"/>
        <circle class="cls-4" cx="7.82" cy="22.92" r="1.5" transform="translate(-15.94 18.23) rotate(-60)"/>
        <circle class="cls-4" cx="8.45" cy="32" r="1.5" transform="translate(-14.88 8.53) rotate(-30.04)"/>
        <circle class="cls-4" cx="13.72" cy="17.17" r="1.5" transform="translate(-6.75 9.15) rotate(-29.99)"/>
        <circle class="cls-4" cx="18" cy="35" r="1.5"/>
        <circle class="cls-4" cx="39.72" cy="49.25" r="1.5" transform="translate(-19.31 26.46) rotate(-30)"/>
        <circle class="cls-4" cx="24.02" cy="49.33" r="1.5" transform="translate(-21.45 18.62) rotate(-30)"/>
        <circle class="cls-4" cx="31.18" cy="45" r="1.5"/>
        <circle class="cls-4" cx="7.06" cy="49.62" r="1.5" transform="matrix(0.5, -0.87, 0.87, 0.5, -39.44, 30.93)"/>
        <circle class="cls-4" cx="15.84" cy="43" r="1.5"/>
        <circle class="cls-4" cx="38.97" cy="4.5" r="1.5" transform="translate(15.59 36) rotate(-60)"/>
        <circle class="cls-4" cx="31.18" cy="9" r="1.5" transform="translate(-0.32 16.8) rotate(-30)"/>
        <circle class="cls-4" cx="24.06" cy="3.88" r="1.5" transform="translate(8.67 22.78) rotate(-60)"/>
        <circle class="cls-4" cx="7.79" cy="4.5" r="1.5" transform="translate(-1.21 4.5) rotate(-29.99)"/>
        <circle class="cls-4" cx="16.09" cy="8" r="1.5" transform="translate(1.12 17.93) rotate(-60)"/>
        <circle class="cls-4" cx="47.52" cy="17.5" r="1.5"/>
        <circle class="cls-4" cx="47.5" cy="45" r="1.5"/>
        <circle class="cls-4" cx="24.52" cy="40.08" r="1.5" transform="translate(-22.45 41.27) rotate(-60)"/>
        <circle class="cls-4" cx="16.02" cy="27.08" r="1.5" transform="translate(-15.44 27.41) rotate(-60)"/>
        <circle class="cls-4" cx="32.25" cy="25.2" r="1.5" transform="translate(-5.7 40.53) rotate(-60)"/>
        <circle class="cls-4" cx="23.27" cy="13.58" r="1.5" transform="translate(-0.12 26.93) rotate(-60)"/>
        <circle class="cls-4" cx="6.77" cy="13.08" r="1.5" transform="translate(-7.94 12.4) rotate(-60)"/>
        <circle class="cls-4" cx="38.83" cy="13" r="1.5" transform="translate(8.16 40.13) rotate(-60.01)"/>
        <circle class="cls-4" cx="7.02" cy="40.08" r="1.5" transform="translate(-31.2 26.11) rotate(-60)"/>
        <circle class="cls-4" cx="15.52" cy="52.83" r="1.5" transform="translate(-37.99 39.85) rotate(-60)"/>
        <circle class="cls-4" cx="33.27" cy="53.33" r="1.5" transform="translate(-29.55 55.47) rotate(-60)"/>
        <circle class="cls-4" cx="39.5" cy="41.25" r="1.5"/>
        <circle class="cls-4" cx="46.77" cy="54.75" r="1.5"/>
        <circle class="cls-4" cx="46.5" cy="26.95" r="1.5" transform="translate(-0.08 53.76) rotate(-60.01)"/>
        <circle class="cls-4" cx="47.48" cy="8" r="1.5"/>
        <circle class="cls-4" cx="45.48" cy="36.25" r="1.5"/>
      </g>
      <g>
        <circle class="cls-4" cx="0.75" cy="17.5" r="1.5"/>
        <circle class="cls-4" cx="0.73" cy="45" r="1.5"/>
        <circle class="cls-4" cy="54.75" r="1.5"/>
        <circle class="cls-4" cx="-0.27" cy="26.95" r="1.5" transform="translate(-23.48 13.25) rotate(-60.01)"/>
        <circle class="cls-4" cx="0.72" cy="8" r="1.5"/>
        <circle class="cls-4" cx="-1.28" cy="36.25" r="1.5"/>
      </g>
      <g>
        <circle class="cls-4" cx="15.52" cy="-1.18" r="1.5" transform="translate(8.77 12.85) rotate(-60)"/>
        <circle class="cls-4" cx="33.27" cy="-0.68" r="1.5" transform="translate(17.22 28.47) rotate(-60)"/>
        <circle class="cls-4" cx="46.77" cy="0.75" r="1.5"/>
      </g>
      <circle class="cls-4" cy="0.75" r="1.5"/>
    </pattern>
    <pattern id="_6_lpi_50_" data-name="6 lpi 50%" width="72" height="72" patternTransform="translate(-31.89 -202.09) scale(1.85)" patternUnits="userSpaceOnUse" viewBox="0 0 72 72">
      <rect class="cls-1" width="72" height="72"/>
      <g>
        <line class="cls-3" x1="71.75" y1="66" x2="144.25" y2="66"/>
        <line class="cls-3" x1="71.75" y1="42" x2="144.25" y2="42"/>
        <line class="cls-3" x1="71.75" y1="18" x2="144.25" y2="18"/>
        <line class="cls-3" x1="71.75" y1="54" x2="144.25" y2="54"/>
        <line class="cls-3" x1="71.75" y1="30" x2="144.25" y2="30"/>
        <line class="cls-3" x1="71.75" y1="6" x2="144.25" y2="6"/>
      </g>
      <g>
        <line class="cls-3" x1="-0.25" y1="66" x2="72.25" y2="66"/>
        <line class="cls-3" x1="-0.25" y1="42" x2="72.25" y2="42"/>
        <line class="cls-3" x1="-0.25" y1="18" x2="72.25" y2="18"/>
        <line class="cls-3" x1="-0.25" y1="54" x2="72.25" y2="54"/>
        <line class="cls-3" x1="-0.25" y1="30" x2="72.25" y2="30"/>
        <line class="cls-3" x1="-0.25" y1="6" x2="72.25" y2="6"/>
      </g>
      <g>
        <line class="cls-3" x1="-72.25" y1="66" x2="0.25" y2="66"/>
        <line class="cls-3" x1="-72.25" y1="42" x2="0.25" y2="42"/>
        <line class="cls-3" x1="-72.25" y1="18" x2="0.25" y2="18"/>
        <line class="cls-3" x1="-72.25" y1="54" x2="0.25" y2="54"/>
        <line class="cls-3" x1="-72.25" y1="30" x2="0.25" y2="30"/>
        <line class="cls-3" x1="-72.25" y1="6" x2="0.25" y2="6"/>
      </g>
    </pattern>
    <pattern id="_10_dpi_30_" data-name="10 dpi 30%" width="28.8" height="28.8" patternTransform="translate(-162.44 16.61) scale(1.85)" patternUnits="userSpaceOnUse" viewBox="0 0 28.8 28.8">
      <rect class="cls-1" width="28.8" height="28.8"/>
      <g>
        <circle class="cls-2" cx="28.8" cy="28.8" r="2.16"/>
        <circle class="cls-2" cx="14.4" cy="28.8" r="2.16"/>
        <circle class="cls-2" cx="28.8" cy="14.4" r="2.16"/>
        <circle class="cls-2" cx="14.4" cy="14.4" r="2.16"/>
        <circle class="cls-2" cx="7.2" cy="21.6" r="2.16"/>
        <circle class="cls-2" cx="21.6" cy="21.6" r="2.16"/>
        <circle class="cls-2" cx="7.2" cy="7.2" r="2.16"/>
        <circle class="cls-2" cx="21.6" cy="7.2" r="2.16"/>
      </g>
      <g>
        <circle class="cls-2" cy="28.8" r="2.16"/>
        <circle class="cls-2" cy="14.4" r="2.16"/>
      </g>
      <g>
        <circle class="cls-2" cx="28.8" r="2.16"/>
        <circle class="cls-2" cx="14.4" r="2.16"/>
      </g>
      <circle class="cls-2" r="2.16"/>
    </pattern>
    <pattern id="Crosses" data-name="Crosses" width="57.6" height="57.6" patternTransform="translate(-182.55 248.94) scale(1.85)" patternUnits="userSpaceOnUse" viewBox="0 0 57.6 57.6">
      <rect class="cls-1" width="57.6" height="57.6"/>
      <line class="cls-4" x1="52.5" y1="3.6" x2="55.5" y2="3.6"/>
      <line class="cls-4" x1="38.1" y1="3.6" x2="41.1" y2="3.6"/>
      <line class="cls-4" x1="23.7" y1="3.6" x2="26.7" y2="3.6"/>
      <line class="cls-4" x1="9.3" y1="3.6" x2="12.3" y2="3.6"/>
      <line class="cls-4" x1="45.3" y1="10.8" x2="48.3" y2="10.8"/>
      <line class="cls-4" x1="30.9" y1="10.8" x2="33.9" y2="10.8"/>
      <line class="cls-4" x1="16.5" y1="10.8" x2="19.5" y2="10.8"/>
      <line class="cls-4" x1="2.1" y1="10.8" x2="5.1" y2="10.8"/>
      <line class="cls-4" x1="52.5" y1="18" x2="55.5" y2="18"/>
      <line class="cls-4" x1="38.1" y1="18" x2="41.1" y2="18"/>
      <line class="cls-4" x1="23.7" y1="18" x2="26.7" y2="18"/>
      <line class="cls-4" x1="9.3" y1="18" x2="12.3" y2="18"/>
      <line class="cls-4" x1="45.3" y1="25.2" x2="48.3" y2="25.2"/>
      <line class="cls-4" x1="30.9" y1="25.2" x2="33.9" y2="25.2"/>
      <line class="cls-4" x1="16.5" y1="25.2" x2="19.5" y2="25.2"/>
      <line class="cls-4" x1="2.1" y1="25.2" x2="5.1" y2="25.2"/>
      <line class="cls-4" x1="52.5" y1="32.4" x2="55.5" y2="32.4"/>
      <line class="cls-4" x1="38.1" y1="32.4" x2="41.1" y2="32.4"/>
      <line class="cls-4" x1="23.7" y1="32.4" x2="26.7" y2="32.4"/>
      <line class="cls-4" x1="9.3" y1="32.4" x2="12.3" y2="32.4"/>
      <line class="cls-4" x1="45.3" y1="39.6" x2="48.3" y2="39.6"/>
      <line class="cls-4" x1="30.9" y1="39.6" x2="33.9" y2="39.6"/>
      <line class="cls-4" x1="16.5" y1="39.6" x2="19.5" y2="39.6"/>
      <line class="cls-4" x1="2.1" y1="39.6" x2="5.1" y2="39.6"/>
      <line class="cls-4" x1="52.5" y1="46.8" x2="55.5" y2="46.8"/>
      <line class="cls-4" x1="38.1" y1="46.8" x2="41.1" y2="46.8"/>
      <line class="cls-4" x1="23.7" y1="46.8" x2="26.7" y2="46.8"/>
      <line class="cls-4" x1="9.3" y1="46.8" x2="12.3" y2="46.8"/>
      <line class="cls-4" x1="45.3" y1="54" x2="48.3" y2="54"/>
      <line class="cls-4" x1="30.9" y1="54" x2="33.9" y2="54"/>
      <line class="cls-4" x1="16.5" y1="54" x2="19.5" y2="54"/>
      <line class="cls-4" x1="2.1" y1="54" x2="5.1" y2="54"/>
      <line class="cls-4" x1="54" y1="2.1" x2="54" y2="5.1"/>
      <line class="cls-4" x1="39.6" y1="2.1" x2="39.6" y2="5.1"/>
      <line class="cls-4" x1="25.2" y1="2.1" x2="25.2" y2="5.1"/>
      <line class="cls-4" x1="10.8" y1="2.1" x2="10.8" y2="5.1"/>
      <line class="cls-4" x1="46.8" y1="9.3" x2="46.8" y2="12.3"/>
      <line class="cls-4" x1="32.4" y1="9.3" x2="32.4" y2="12.3"/>
      <line class="cls-4" x1="18" y1="9.3" x2="18" y2="12.3"/>
      <line class="cls-4" x1="3.6" y1="9.3" x2="3.6" y2="12.3"/>
      <line class="cls-4" x1="54" y1="16.5" x2="54" y2="19.5"/>
      <line class="cls-4" x1="39.6" y1="16.5" x2="39.6" y2="19.5"/>
      <line class="cls-4" x1="25.2" y1="16.5" x2="25.2" y2="19.5"/>
      <line class="cls-4" x1="10.8" y1="16.5" x2="10.8" y2="19.5"/>
      <line class="cls-4" x1="46.8" y1="23.7" x2="46.8" y2="26.7"/>
      <line class="cls-4" x1="32.4" y1="23.7" x2="32.4" y2="26.7"/>
      <line class="cls-4" x1="18" y1="23.7" x2="18" y2="26.7"/>
      <line class="cls-4" x1="3.6" y1="23.7" x2="3.6" y2="26.7"/>
      <line class="cls-4" x1="54" y1="30.9" x2="54" y2="33.9"/>
      <line class="cls-4" x1="39.6" y1="30.9" x2="39.6" y2="33.9"/>
      <line class="cls-4" x1="25.2" y1="30.9" x2="25.2" y2="33.9"/>
      <line class="cls-4" x1="10.8" y1="30.9" x2="10.8" y2="33.9"/>
      <line class="cls-4" x1="46.8" y1="38.1" x2="46.8" y2="41.1"/>
      <line class="cls-4" x1="32.4" y1="38.1" x2="32.4" y2="41.1"/>
      <line class="cls-4" x1="18" y1="38.1" x2="18" y2="41.1"/>
      <line class="cls-4" x1="3.6" y1="38.1" x2="3.6" y2="41.1"/>
      <line class="cls-4" x1="54" y1="45.3" x2="54" y2="48.3"/>
      <line class="cls-4" x1="39.6" y1="45.3" x2="39.6" y2="48.3"/>
      <line class="cls-4" x1="25.2" y1="45.3" x2="25.2" y2="48.3"/>
      <line class="cls-4" x1="10.8" y1="45.3" x2="10.8" y2="48.3"/>
      <line class="cls-4" x1="46.8" y1="52.5" x2="46.8" y2="55.5"/>
      <line class="cls-4" x1="32.4" y1="52.5" x2="32.4" y2="55.5"/>
      <line class="cls-4" x1="18" y1="52.5" x2="18" y2="55.5"/>
      <line class="cls-4" x1="3.6" y1="52.5" x2="3.6" y2="55.5"/>
    </pattern>
    <pattern id="USGS_21_Intricate_Surface" data-name="USGS 21 Intricate Surface" width="54" height="54" patternTransform="translate(0 60)" patternUnits="userSpaceOnUse" viewBox="0 0 54 54">
      <rect class="cls-1" width="54" height="54"/>
      <g>
        <path class="cls-2" d="M22.58,55.48c-.75.5-1.31,4.69-2.06,5.25-.29.22-.75.69-.75.94,0,.5-.27.44-.27.94,0,1-.74,2.31-2.12,2-.36-.08-.67-1,1.38-2.15.22-.12,0-.91.14-1.34,2-5.28,3.87-9.6,4.43-8.28Z"/>
        <path class="cls-2" d="M28.33,56.49c-.16-.48-.43-.76-.43-1.24l-3.28.68c-.89-1,1.12-1.39,2.49-2.05a23,23,0,0,1,2.71-1.42C29.62,53.55,28.65,55.17,28.33,56.49Z"/>
        <path class="cls-2" d="M48.75,59.06a1,1,0,0,1-.76,1.4c-.86.13-2,.42-2,.86a3.33,3.33,0,0,1-2.47,3,14.9,14.9,0,0,1,5.17-5.37c.25-.17-.05-.94.15-1.35.66-1.33,2.65.12,2.84-2.29,0-.23-.41-.49-.66-.74,2.11.6,1.86-2.13,3.75-2.25v1.5a3.61,3.61,0,0,0-2.26.73C50.18,55.69,52.58,58.6,48.75,59.06Z"/>
        <path class="cls-2" d="M3.94,60.56c-.35-2,2.65-5.85,3.56-7.5a1.84,1.84,0,0,1,.25,1.69c-.38,2-2.63,3.29-2.61,5.85-.56.94-.5,1.56-2.14,1.46Z"/>
        <path class="cls-2" d="M11.44,55.31a3.31,3.31,0,0,0-.75-2.25,1,1,0,0,1,1.4.76A3.54,3.54,0,0,1,11.44,55.31Z"/>
        <path class="cls-2" d="M2.25,55.13C.46,54.89,2,53.54,1.5,52.88,3.69,53,.93,54.73,2.25,55.13Z"/>
        <path class="cls-2" d="M13.6,56.2c1.65-1.24,2.26-4.91,4.15-5.7-1.52,1.15-1.67,4.89-2.88,6.19-2.32,2.49-5.57,3.82-7.29,6.92-.62,1.12.7,2.71-.83,3.71-.26-2.43-.23-5,1.66-6.56S11.61,57.69,13.6,56.2Z"/>
        <path class="cls-2" d="M36.5,55.75c-.44.49-1.18-.08-1.32-.68-.23-1-1.2-2.61-.08-3a3.77,3.77,0,0,0,3,.75C35.52,52.8,37.22,55,36.5,55.75Z"/>
        <path class="cls-2" d="M44,56.45c.16.3.75-.1,1-.45-1.06-.61.11-2.17-1.2-2.39-.48-.08-1,.48-1.73.38C42.65,55.09,43.36,55.32,44,56.45Z"/>
      </g>
      <path class="cls-2" d="M-5.25,59.06A1,1,0,0,1-6,60.47c-.86.13-2,.42-2,.86a3.33,3.33,0,0,1-2.47,3,14.9,14.9,0,0,1,5.17-5.37c.25-.17-.05-.94.15-1.35.66-1.33,2.65.12,2.84-2.29,0-.23-.41-.49-.66-.74,2.11.6,1.86-2.13,3.75-2.25v1.5a3.61,3.61,0,0,0-2.26.73C-3.82,55.69-1.42,58.6-5.25,59.06Z"/>
      <g>
        <path class="cls-2" d="M53.27,43.18c.83-.31,1.72.69,2.13.5,2.15-1,2-3.57,4.67-1.39,0,0,.61-.43.58-.64-.12-.76-.91-1.41-.6-2.25.21-.58.8-.7,1.41-.9,1.86-.62-.47-2.49,2.19-3.82.3-.15.34-1.41,0-2-.79-1.26-2.34-.79-3.63-.83a3.55,3.55,0,0,0,3-1.5l-.75,1.5,3,1.5c-.5.25-1.23.41-1.38.8-.35.87.15,2.08-.25,2.89-.1.2-1-.1-1.27.15-1.22,1.43-.59,4-1.83,4.85-2,1.41-6,1-7,4.15-.17.56,1.14,1.27,2,1.32s1.85-.68,2.24-2.15a2,2,0,0,0,.81,2.09c1.47.57,1.36-2.45,2.9-2a1.4,1.4,0,0,1,.66,1.33c-.13.38-.87.71-1.37.71-.25,0-.59-.62-.71-.56-1.54.66-3.58.47-4.47,2.18a3.39,3.39,0,0,0-.07,1.46c-.82-.05-2.15.29-2.06-.73s1-2,.46-3c-.21-.41-.9-.55-1.4-.8Z"/>
        <path class="cls-2" d="M54.75,34.13c-1.59.17-.68-.91-.75-1.5Z"/>
        <path class="cls-2" d="M54.38,9.38c-.1,2.45-.17,1.65-2.62,2.44.5-.25,2-.95,2.1-1.32.24-.78-.09-1.14.32-1.84-.19-.75-1.48-.75-.8-1.78,1-1.53.21-3.75,2.13-4.53.43-.18.24.47.74.47C56.25,4.88,54.47,7.16,54.38,9.38Z"/>
        <path class="cls-2" d="M52.5,37.31c.52-1.46,1.83-1.35,3-1.5C54.77,36.85,53.6,37,52.5,37.31Z"/>
      </g>
      <g>
        <path class="cls-2" d="M5.63,29.06a2.38,2.38,0,0,1-.74,0,4.94,4.94,0,0,1,1.5-2.25c.25.5.75,1.08.62,1.46S6.16,28.89,5.63,29.06Z"/>
        <path class="cls-2" d="M22.58,1.48c-.75.5-1.31,4.69-2.06,5.25-.29.22-.75.69-.75.94,0,.5-.27.44-.27.94,0,1-.74,2.31-2.12,2-.36-.08-.67-1,1.38-2.15.22-.12,0-.91.14-1.34,2-5.28,3.87-9.6,4.43-8.28Z"/>
        <path class="cls-2" d="M14.26,10c-.72-.24-1.69-1.07-1.59-1.32.92-2.33,1.82-3.3,2.75-3.34s-1.22,1.44-1.7,2.47,1.94,2.47,1.52,3.09S14.78,10.57,14.26,10Z"/>
        <path class="cls-2" d="M12,11.06c-.58,1.92-.39,2.11-3,3,.76-.23.56.06.75-2.25C9.77,11.52,11.5,11.31,12,11.06Z"/>
        <path class="cls-2" d="M9.73,20.06c-.21.52-.45,1.32-.75,1.35-2,.18-2.4,1.71-3,3.16,1.3.36,2.23,1.66,3.75,1.5-.7.4-1.49,1.13-2.17.64-.25-.18,0-1.18-.13-1.24-2.87-1-2.15-3.14-.58-4.52.16-.14,1,.64,1.3.48,1.26-.71-.48-4.55.83-3.61.65.7,1.68,1.45,2.83-.12.5-.68.17-1.88.17-2.88.38-.75,2.06-.32,2.1.75C14.19,18.15,10.64,17.76,9.73,20.06Z"/>
        <path class="cls-2" d="M18.74,17.8c-.23.29-.49.68-.74.68s-.5-.42-.75-.67c.5-.25,1.32-.47,1.34-.76.12-1.46-.23-3.15-2.09-3.74C19.54,12.4,20.38,15.74,18.74,17.8Z"/>
        <path class="cls-2" d="M21.92,19.33c.31-3.9-.55-6,3.58-4.51.94,1.31-1.82.21-2.12.82-.15.31,1.68,1.05,1.55,1.43s-2.11.39-2.35.8c-.43.75.25,1.5.66,2.2C22.75,19.81,21.91,19.54,21.92,19.33Z"/>
        <path class="cls-2" d="M26.21,20c-.12.05-.46-.4-.71-.65.8-.43,1.3-2.11,2.08-1.33S27,20.25,26.21,20Z"/>
        <path class="cls-2" d="M15.5,26.75c-.44.49-1.18-.08-1.32-.68-.23-1-1.2-2.61-.08-3a3.77,3.77,0,0,0,3,.75C14.52,23.8,16.22,26,15.5,26.75Z"/>
        <path class="cls-2" d="M31,16.13c2.79-.38,3.05-2.78,4.58-4.23.27-.26,1,.08,1.35-.17a2.85,2.85,0,0,0,.82-2.92C39,10.47,40.38,8.19,41.3,9c1.68,1.53,1.51,4,3.95,5-.39,1.91-2.09,2.94-3,4.5.81-2.63,2.84-5.43-.75-6.75.25-.25.67-.5.67-.75a1.7,1.7,0,0,0-.71-1.39,2.24,2.24,0,0,0-2.84.7c-.95,1.77-1.52,1.91-2.9,3.18-.67.61,0,2.41-1,3.51-.25-.25-.63-.83-.73-.65-1,1.78-2.27,1.59-2.64.46Z"/>
        <path class="cls-2" d="M30.43,12.32h0c-.2-.15-1.26.41-1.27.69-.08,1.62-.38,3.28-2.41,3,2.41-2,3.1-4.92,4.41-7.55.44-.9-2.66-3.14-1.41-3.89L32,5.5c.65-.7,1.42-1.16,3,0-1.07,0-2.33-.2-2.89.81C31.18,8,32,8.89,31.84,10.74c0,.29-1.07.42-1.22.81A2.48,2.48,0,0,0,30.43,12.32Z"/>
        <path class="cls-2" d="M28.33,2.49c-.16-.48-.43-.76-.43-1.24l-3.28.68C23.71.91,25.72.53,27.1-.13A23,23,0,0,1,29.8-1.55C29.62-.45,28.65,1.17,28.33,2.49Z"/>
        <path class="cls-2" d="M38.25,41.06c.48-1.06,1.43-.7,2.25-.75C40,41.25,39.14,41.23,38.25,41.06Z"/>
        <path class="cls-2" d="M47.57,2.07c-.45,4.31-.57,0-.82,0,.71-.28,1.75-.25,1.5-1.5A4.82,4.82,0,0,0,47.57,2.07Z"/>
        <path class="cls-2" d="M48.75,5.06A1,1,0,0,1,48,6.47c-.86.13-2,.42-2,.86a3.33,3.33,0,0,1-2.47,3,14.9,14.9,0,0,1,5.17-5.37c.25-.17-.05-.94.15-1.35.66-1.33,2.65.12,2.84-2.29,0-.23-.41-.49-.66-.74,2.11.6,1.86-2.13,3.75-2.25v1.5a3.61,3.61,0,0,0-2.26.73C50.18,1.69,52.58,4.6,48.75,5.06Z"/>
        <path class="cls-2" d="M50.94,11.05c-.2.91-.59,2-1.47,2.12-.7.13-1.47,1.07-2.22-1.36,2.33.74,3-1.21,3.75-3A10.07,10.07,0,0,1,50.94,11.05Z"/>
        <path class="cls-2" d="M47.32,18.6a3.5,3.5,0,0,0-.07,1.47,2.41,2.41,0,0,1-.58-2.87c.28-.37,1.33-.12,2.08-.12A6.78,6.78,0,0,0,47.32,18.6Z"/>
        <path class="cls-2" d="M34.75,22.31c0-.5.26-1.24.06-1.36-.77-.48-1.91-.32-2.91-.42.28-.23.52-.55.83-.62.87-.22,1.72.87,2,.69,1.95-1.12,4.17-4.7,5.79-6.33.23.28-1,2.6-1,2.67C37.74,19.18,36.48,20.15,34.75,22.31Z"/>
        <path class="cls-2" d="M38.78,24.23c-.66-.43-2-.4-1.35-1.47,1.29-2.16,4.12-2.18,5.88-3.83.44,2.11,3.16,1.61,4.42,3.07.25.3,0,.93.12,1.42.18.77.21,1.76,1.46,1.51l-.75.75c-1.33-2-1.62.22-3,0,.5-.25,1.25-.41,1.37-.79a3.37,3.37,0,0,0-.65-3.67c-.41-.37-1.11-.81-1.39-.65-.9.51-1,1.74-.83,2.86-1.22-1.13-1.79-3.79-3.62-2.77a10.17,10.17,0,0,0-2.14,2.22c-1.09,1.33,2.43.94,2,2.81A9.8,9.8,0,0,0,38.78,24.23Z"/>
        <path class="cls-2" d="M31.85,24.51c.14.18,1-.3,1.25-.09.46.47,1.83,1.12,2,1.86.44-.34,1.17-.66,1.18-1,0-1-2.46-1.16-3.88-1.65a2.07,2.07,0,0,1-1.21-1.94C31.35,22.64,31.29,23.8,31.85,24.51Z"/>
        <path class="cls-2" d="M28.41,24.09c.49,1.61-.84,1.1-1.41.16-.37-.94-.92-3.74,1.5-3.85.24,0,.5.41.75.66C28.72,21.51,26.7,18.5,28.41,24.09Z"/>
        <path class="cls-2" d="M3.94,6.56C3.59,4.61,6.59.72,7.5-.94A1.84,1.84,0,0,1,7.75.75C7.37,2.73,5.12,4,5.14,6.6c-.56.94-.5,1.56-2.14,1.46Z"/>
        <path class="cls-2" d="M1.25,14.38c2.29-1.26,0-1.4,2.69-2.56,1.31.38,1.6,2,1.69,3.38,0,.32-.37,1.38-.37,1.88l-.75-1.5c-.26-.51-.45-1.78-.62-1.81A3.91,3.91,0,0,0,1.25,14.38Z"/>
        <path class="cls-2" d="M17.13,2.38V.88a3.3,3.3,0,0,0,2.25.75Z"/>
        <path class="cls-2" d="M3.84,21.41C4.34,23,3,22.5,2.44,21.56c-.37-.94-.92-3.74,1.5-3.85.24,0,.49.41.75.66C4.16,18.83,2.13,15.82,3.84,21.41Z"/>
        <path class="cls-2" d="M-.73,43.18c.83-.31,1.72.69,2.13.5,2.15-1,2-3.57,4.67-1.39,0,0,.61-.43.58-.64-.12-.76-.91-1.41-.6-2.25.21-.58.8-.7,1.41-.9C9.32,37.87,7,36,9.65,34.67c.3-.15.34-1.41,0-2-.79-1.26-2.34-.79-3.63-.83a3.55,3.55,0,0,0,3-1.5l-.75,1.5,3,1.5c-.5.25-1.23.41-1.38.8-.35.87.15,2.08-.25,2.89-.1.2-1-.1-1.27.15-1.22,1.43-.59,4-1.83,4.85-2,1.41-6,1-7,4.15-.17.56,1.14,1.27,2,1.32s1.85-.68,2.24-2.15a2,2,0,0,0,.81,2.09C6,48,5.92,45,7.46,45.5a1.4,1.4,0,0,1,.66,1.33c-.13.38-.87.71-1.37.71-.25,0-.58-.62-.71-.56-1.54.66-3.58.47-4.47,2.18a3.39,3.39,0,0,0-.07,1.46c-.82-.05-2.15.29-2.06-.73s1-2,.46-3c-.21-.41-.9-.55-1.4-.8Z"/>
        <path class="cls-2" d="M10.21,50.63c.39-.14.54-.88.79-1.38l1.5.75c1.33-3.25,3.59-7.42,7.5-7.5V44a2.07,2.07,0,0,0-2.13.82c-.68,1.19,1.55,1.87-.12,3.68,0-1.3.41-3.13-.83-3.5-1.5-.45-2.48,1.86-2.17,3.5-.5,0-1.27-.13-1.36.07-.92,2-3.3,2.38-3.89,4.43-1.23-1.35-3.39-1.65-3.75-3.75C7.58,48.76,8.58,51.22,10.21,50.63Z"/>
        <path class="cls-2" d="M.75,34.13c-1.59.17-.68-.91-.75-1.5Z"/>
        <path class="cls-2" d="M4.62,34a2.69,2.69,0,0,1,.63,2.34c-.5-.25-1.34-.51-1.33-.74C4,34,2.42,32.77,3,31.13,4,31.86,4,33.16,4.62,34Z"/>
        <path class="cls-2" d="M.75,29.63c-.21-1.67,1.11-.28,1.5-.75Z"/>
        <path class="cls-2" d="M14.33,31.13c-.13,2.54,1.82,4,3.67,5.25A3.28,3.28,0,0,0,15.74,35c-.23,0-.49.57-.74.57-.5,0-1.31-.38-1.34-.68-.13-1.45-.78-2.94.45-4.59.16-.21-.36-.9-.61-1.4l-1.5.75-1.5-3c2.28.32,2.59,3,4.5,3.75C14.75,30.63,14.34,30.87,14.33,31.13Z"/>
        <path class="cls-2" d="M19.14,34.59c1.27.13,1.25-.95,1.25-1.64s-.45-1,1.18-2.58c.32-.31.38-1.38.72-2.12l.82.68c-.47.3-1.15.51-1.32.93-.24.64.32,1.66,0,2.08C21.2,32.64,20,33,20,34.52c0,.23.66.53.62.63a5.9,5.9,0,0,0-.35,3.1C18.71,37.38,19.24,35.89,19.14,34.59Z"/>
        <path class="cls-2" d="M26.47,31.78c-1.25,1.56-2.87-.09-3.77,1.91,1.31-.46.53.35,3,.78-.06-.56-.29-1.4-.09-1.52,2.43-1.4,1.17-4.49,3-6.39l-1-.23a9,9,0,0,1-.93,3.07C24.91,30.53,27.55,30.43,26.47,31.78Z"/>
        <path class="cls-2" d="M21.15,40.69c-1.82-1.47-1.77.4-3.15.18l.75-1.5c1.28,1.66,2.58-.61,3.57.21C23.12,40.24,21.38,40.88,21.15,40.69Z"/>
        <path class="cls-2" d="M22.63,44.71c0,.28-1,.4-1.23.81-1,2.16-.33,2.76.74,4.43a1,1,0,0,1-1.41-.76c-.21-1.26.59-1.16-.72-2.44-.38-.37,1.33-1.34,1.65-2.18.62-1.61,1.95-2.09,2.79-3.51.29-.49,1.27.17,1.19.63C25.35,43.38,22.81,41.13,22.63,44.71Z"/>
        <path class="cls-2" d="M23,8c-.41-.28.31-.92.89-1.18.65,1.5,3.21.43,3.24,2.14,0,.63-.94,1.18-1,2.08C24.74,10,24.56,9.07,23,8Z"/>
        <path class="cls-2" d="M29.25,40.5c.75,1.64-1.22,1-1.51,1.83C26.67,40.42,29.61,41.83,29.25,40.5Z"/>
        <path class="cls-2" d="M31.09,41.29,32.6,42c.24-.5.75-1.11.6-1.45-1-2.15.31-4.38,1-6.37a1.59,1.59,0,0,0,2.17-.81c.92-1.8,2.85-4.58,3-6.69-.55.11-1.41.11-1.48.37C37,30.26,34.33,35.2,30.75,36c-.12,0-.21.62-.11.93.28.85,1.47.86,1.75,1.42C32.93,39.42,31.79,40.38,31.09,41.29Z"/>
        <path class="cls-2" d="M29.37,31.88c.12.49-.3,1.11.24,1.64.88-2.17.92-4.64,3.28-6.27-.95-.67-1.59.12-2.32.49C31.71,29.5,28.9,30.06,29.37,31.88Z"/>
        <path class="cls-2" d="M33.81,46.91c-.59,1.15,1.46,2.89,2.13,2.73a2,2,0,0,0,1.56-2.76c3.07.16,6.8,3.27,4.31,5.82-.53.54-1.85-.17-2.81-.57a2.74,2.74,0,0,0,2.11-3.68A2.18,2.18,0,0,0,39,47.6c-2,.15-1.12,2-2.28,3a2.31,2.31,0,0,1-1.46.69c-.87-.07-1.55-.89-2.32-1.27-.31-.15-1.1.25-1.34.67a1.53,1.53,0,0,0,.66,2.2c-1.26.26-1.47-.9-1.34-1.46.32-1.37,2.83-1.19,2.77-3,0-1-.71-1.86-2.18-2.25,3.29.7,2.51-2.94,4.86-3.74,1.49-.51.78.81.64,1.37C36.63,45.2,34.48,45.6,33.81,46.91Z"/>
        <path class="cls-2" d="M38.76,37.67a7.61,7.61,0,0,0-1.51.71c1.21-.85.05-2.11,2.14-3.21.5-.27.3-1.51-.64-2l.75-.75c-.34,1.84.4,3.52.75,5.25A6,6,0,0,0,38.76,37.67Z"/>
        <path class="cls-2" d="M44.17,34.38a3.94,3.94,0,0,1-.67,1.5c-.25-.25-.7-.6-.65-.7a5.9,5.9,0,0,0,.65-3.05A7.66,7.66,0,0,1,44.17,34.38Z"/>
        <path class="cls-2" d="M43.12,28.67c-1.27.32-1.38-.83-1.38-1.48s.82-1.14,1.29-.66,0,1.7,2.34,1.41C44.62,28.19,43.91,28.47,43.12,28.67Z"/>
        <path class="cls-2" d="M47.12,29.13c-.7.8-1,3-2,2S46.24,29.76,47.12,29.13Z"/>
        <path class="cls-2" d="M47.08,49.09c-.22.94-.5,2.77-2,2.14-.18-.07-.06-.85-.06-1.36,1.27.07,2.73-.32,2.83-2.26,0-.22-1.11-.42-1.18-.77-.15-.69-1.08-1.47,1.35-2.22C47,46,47.44,47.59,47.08,49.09Z"/>
        <path class="cls-2" d="M.38,9.38C.27,11.82.2,11-2.25,11.81c.5-.25,2-.95,2.1-1.32.24-.78-.09-1.14.32-1.84C0,7.91-1.31,7.91-.62,6.88c1-1.53.21-3.75,2.13-4.53.43-.18.24.47.74.47C2.25,4.88.47,7.16.38,9.38Z"/>
        <path class="cls-2" d="M48.54,34.16c.31-3.9-.55-6,3.58-4.51.94,1.31-1.81.21-2.11.82-.15.31,1.68,1.05,1.55,1.43s-2.11.39-2.35.8c-.43.75.25,1.5.66,2.2C49.37,34.65,48.53,34.38,48.54,34.16Z"/>
        <path class="cls-2" d="M46.88,38.63c-1.29-.19-1.34.85-1.41,1.54,0,.23.61.58.55.69-.73,1.55-2.4.54-3.65.8.5,0,1.21.16,1.38-.08.95-1.38,2.83-3.57.87-5.17,1,1.23,3.15.41,3.75,2.25A10.07,10.07,0,0,1,46.88,38.63Z"/>
        <path class="cls-2" d="M43.3,45.65c-1.53.07-3.27.57-4.87.19a3.49,3.49,0,0,1,1.31-.75c.5,0,.52.75.89.62s.52-1.2.8-1.21c1.59-.09,3-.78,4.49-.91-.25.5-.39,1.2-.8,1.4A4.22,4.22,0,0,1,43.3,45.65Z"/>
        <path class="cls-2" d="M50.25,42c-.21.45-1-.14-1.33-.67,1.36-.91-.14-3.23,1.54-3.57.62-.12,1.33.72,2.21.57C51.95,40,51,40.32,50.25,42Z"/>
        <path class="cls-2" d="M21.5,22.73c-1.29-.19-1.34.85-1.41,1.53,0,.22.61.58.56.69-.73,1.55-2.4.54-3.65.8.5,0,1.21.16,1.38-.08.95-1.38,2.83-3.57.87-5.17,1,1.23,3.15.41,3.75,2.25A10.21,10.21,0,0,1,21.5,22.73Z"/>
        <path class="cls-2" d="M16.5,30.75c.52-1.46,1.83-1.35,3-1.5C18.77,30.29,17.6,30.46,16.5,30.75Z"/>
        <path class="cls-2" d="M2.39,26.71c-.13.05-.46-.4-.71-.65C2.49,25.64,3,24,3.76,24.73S3.19,27,2.39,26.71Z"/>
        <path class="cls-2" d="M2.25,39c.48-1.06,1.43-.7,2.25-.75C4,39.18,3.14,39.16,2.25,39Z"/>
        <path class="cls-2" d="M27.35,38.61c-.46.46-.43.61-.74.72-.84.3-1.53-.3-2.23-.7,2.57.54,3.59-1.54,3-3.75.5.25,1.33.5,1.33.75C28.71,36.63,27.94,37.62,27.35,38.61Z"/>
        <path class="cls-2" d="M40.24,6.28c-.46.46-.44.61-.74.72-.84.3-1.53-.3-2.23-.7,2.57.54,3.59-1.54,3-3.75.5.25,1.33.5,1.33.75C41.6,4.3,40.83,5.3,40.24,6.28Z"/>
        <path class="cls-2" d="M15.75,39.75A3.31,3.31,0,0,0,15,37.5a1,1,0,0,1,1.4.76A3.54,3.54,0,0,1,15.75,39.75Z"/>
        <path class="cls-2" d="M11.44,1.31a3.31,3.31,0,0,0-.75-2.25,1,1,0,0,1,1.4.76A3.54,3.54,0,0,1,11.44,1.31Z"/>
        <path class="cls-2" d="M-1.5,37.31C-1,35.85.33,36,1.5,35.81.77,36.85-.4,37-1.5,37.31Z"/>
        <path class="cls-2" d="M2.25,1.13C.46.89,2-.46,1.5-1.12,3.69-1,.93.73,2.25,1.13Z"/>
        <path class="cls-2" d="M54.6,22.29c-.14.87-1.78,1.1-1.84,1.55-.21,1.85-.9,2.23-1.77,3.72-.25-.25-.67-.5-.67-.75,0-1,1.47-1.57,1.77-2.39.88-2.45.71-6.23,1.27-7.17.17.09,1.36-1.25,1.75-1.62Z"/>
        <path class="cls-2" d="M13.6,2.2C15.25,1,15.87-2.71,17.75-3.5c-1.52,1.15-1.67,4.89-2.88,6.19C12.55,5.18,9.29,6.51,7.58,9.61c-.62,1.12.7,2.71-.83,3.71-.26-2.43-.23-5,1.66-6.56S11.61,3.69,13.6,2.2Z"/>
        <path class="cls-2" d="M34,1.26c-.7.8-1,3-2,2S33.12,1.89,34,1.26Z"/>
        <path class="cls-2" d="M36.5,1.75c-.44.49-1.18-.08-1.32-.68-.23-1-1.2-2.61-.08-3a3.77,3.77,0,0,0,3,.75C35.52-1.2,37.22,1,36.5,1.75Z"/>
        <path class="cls-2" d="M44,2.45c.16.3.75-.1,1-.45-1.06-.61.11-2.17-1.2-2.39-.48-.08-1,.48-1.73.38C42.65,1.09,43.36,1.32,44,2.45Z"/>
        <path class="cls-2" d="M20.75,13c.52-1.46,1.83-1.35,3-1.5C23,12.54,21.85,12.71,20.75,13Z"/>
        <path class="cls-2" d="M51,15.75c.48-1.06,1.43-.7,2.25-.75C52.73,15.93,51.89,15.91,51,15.75Z"/>
        <path class="cls-2" d="M55.5,50.63c-.82-.05-2.15.29-2.06-.73s1-2,.46-3c-.21-.41-.9-.55-1.4-.8-.81,2.28-3.32,3.35-3.8,6-.14.77-.51,2.11-1.28,1.34s1.1-1,1.12-1.34c.16-2.92,1.88-4.95,3.78-6.91.38-.39-.05-1.65.95-2,.83-.31,1.72.69,2.13.5l-.06.33a3.64,3.64,0,0,0-1.84,2.2c-.17.56,1.14,1.27,2,1.32Z"/>
        <path class="cls-2" d="M26.75,6.5A3.31,3.31,0,0,0,26,4.25,1,1,0,0,1,27.4,5,3.54,3.54,0,0,1,26.75,6.5Z"/>
        <path class="cls-2" d="M24.23,22.91c1.68,0,.12,1.14.52,1.59Z"/>
        <path class="cls-2" d="M50.25,21.75a3.31,3.31,0,0,0-.75-2.25,1,1,0,0,1,1.4.76A3.55,3.55,0,0,1,50.25,21.75Z"/>
        <path class="cls-2" d="M43.75,7.5a3.31,3.31,0,0,1,1.06-2.12,1,1,0,0,0-1.49.55A3.53,3.53,0,0,0,43.75,7.5Z"/>
        <path class="cls-2" d="M9.26,2.92C10,4.56,8,4,7.75,4.75,6.67,2.84,9.62,4.25,9.26,2.92Z"/>
        <path class="cls-2" d="M35.5,9c-1.59.17-.68-.91-.75-1.5Z"/>
        <path class="cls-2" d="M26,50.35c1.26-.34.89-1.31.69-2-.07-.22-.79-.29-.78-.42.05-1.71,2-1.45,3-2.18-.46.2-1.18.33-1.24.62-.32,1.64-1.19,4.4,1.25,5.09-1.37-.75-3.06.87-4.33-.58A10.07,10.07,0,0,1,26,50.35Z"/>
        <path class="cls-2" d="M11.25,24.5c-1.59.17-.68-.91-.75-1.5Z"/>
        <path class="cls-2" d="M13.5,19c.48-1.06,1.43-.7,2.25-.75C15.23,19.18,14.39,19.16,13.5,19Z"/>
        <path class="cls-2" d="M35,30.5c-1.59.17-.68-.91-.75-1.5Z"/>
        <path class="cls-2" d="M30.48,45c.12-.59-.28-1-.6-1.51.58-.14,1.07.13,1.12.51S30.68,44.67,30.48,45Z"/>
        <path class="cls-2" d="M25.07,45.26c-.45,4.31-.57,0-.82,0C25,45,26,45,25.75,43.75A4.82,4.82,0,0,0,25.07,45.26Z"/>
        <path class="cls-2" d="M9.59,39.25c2.51-.76.26-1.37,3.16-2,1.21.64,1.16,2.27,1,3.65,0,.32-.65,1.27-.75,1.76l-.43-1.62c-.14-.55-.07-1.84-.24-1.9A3.91,3.91,0,0,0,9.59,39.25Z"/>
        <path class="cls-2" d="M10.34,45.73c.35,1.27,1.41.79,2,.47s.59-1.27-.06-1.45-1.49.83-2.38-1.34C10,44.19,10.13,44.95,10.34,45.73Z"/>
      </g>
      <g>
        <path class="cls-2" d="M-5.25,5.06A1,1,0,0,1-6,6.47c-.86.13-2,.42-2,.86a3.33,3.33,0,0,1-2.47,3A14.9,14.9,0,0,1-5.33,4.94c.25-.17-.05-.94.15-1.35.66-1.33,2.65.12,2.84-2.29,0-.23-.41-.49-.66-.74,2.11.6,1.86-2.13,3.75-2.25v1.5A3.61,3.61,0,0,0-1.51.55C-3.82,1.69-1.42,4.6-5.25,5.06Z"/>
        <path class="cls-2" d="M.6,22.29c-.14.87-1.78,1.1-1.84,1.55-.21,1.85-.9,2.23-1.77,3.72-.25-.25-.67-.5-.67-.75,0-1,1.47-1.57,1.77-2.39C-1,22-1.19,18.19-.62,17.25c.17.09,1.36-1.25,1.75-1.62Z"/>
        <path class="cls-2" d="M1.5,50.63c-.82-.05-2.15.29-2.06-.73s1-2,.46-3c-.21-.41-.9-.55-1.4-.8-.81,2.28-3.32,3.35-3.8,6-.14.77-.51,2.11-1.28,1.34s1.1-1,1.12-1.34c.16-2.92,1.88-4.95,3.78-6.91.38-.39-.05-1.65.95-2,.83-.31,1.72.69,2.13.5L1.34,44A3.64,3.64,0,0,0-.5,46.2c-.17.56,1.14,1.27,2,1.32Z"/>
      </g>
    </pattern>
    <pattern id="Ripple" data-name="Ripple" width="72" height="72" patternTransform="translate(-18 61)" patternUnits="userSpaceOnUse" viewBox="0 0 72 72">
      <rect class="cls-1" width="72" height="72"/>
      <path class="cls-5" d="M80.4,64.14s1,4.06-2.92,4S73.54,70,74.35,72.43,74.17,77,71,77"/>
      <g>
        <path class="cls-5" d="M13.35,15.53s3.79-1.74,4.5,2.08,2.61,3.5,4.82,2.23,4.56-.74,5.14,2.37"/>
        <path class="cls-5" d="M66,28.74s-2.6,3.26-5,.18-3.91-1.94-5.3.19-3.74,2.72-5.66.2"/>
        <path class="cls-5" d="M39,29s-3.82-1.67-1.45-4.74S38.45,20,36,19.24s-3.59-2.91-1.65-5.41"/>
        <path class="cls-5" d="M41.14,24.82s4.08-.88,2.36-4.36,0-4.36,2.52-4.67,4.1-2.14,2.69-5"/>
        <path class="cls-5" d="M55.12,14.87s4.08-.88,2.36-4.36,0-4.36,2.52-4.67,4.1-2.14,2.69-5"/>
        <path class="cls-5" d="M27.39,34.19s3.68-2,1.07-4.84-1.21-4.19,1.15-5.18S33,21,30.83,18.64"/>
        <path class="cls-5" d="M10.39,22.94s1.29,4-2.58,4.23S4,29.36,5,31.7s.21,4.62-2.94,4.84"/>
        <path class="cls-5" d="M7.56,41.16s-2-3.65,1.72-4.64,3.29-2.87,1.85-5S10,27,13.1,26.24"/>
        <path class="cls-5" d="M20.44,17s1.35-3.95,4.6-1.83,4.33.52,4.93-2,2.61-3.82,5.26-2.09"/>
        <path class="cls-5" d="M12.33,44.48s-1.77-3.78,2-4.51,3.48-2.63,2.19-4.83S15.8,30.57,18.91,30"/>
        <path class="cls-5" d="M24,38.67s-3.43-2.37-.51-4.93,1.68-4-.55-5.28-3-3.55-.58-5.63"/>
        <path class="cls-5" d="M11,59.64s.3-4.16,4-2.94,4.32-.6,4.27-3.15,1.55-4.36,4.56-3.36"/>
        <path class="cls-5" d="M29.5,52.86s-.38,4.15-4,2.87-4.33.52-4.33,3.07-1.63,4.33-4.62,3.28"/>
        <path class="cls-5" d="M19.67,27.31s-4.17.18-3.38-3.62-1.09-4.22-3.62-3.88-4.5-1-3.86-4.14"/>
        <path class="cls-5" d="M32.71,28s-1.49,3.89,2.37,4.35,3.66,2.38,2.53,4.66-.44,4.6,2.7,5"/>
        <path class="cls-5" d="M3.32,45.67s1.92,3.7,4.82,1.13,4.21-1.15,5.17,1.21,3.14,3.39,5.51,1.29"/>
        <path class="cls-5" d="M51,83.38s-1.86-3.73,1.93-4.56S56.36,76.1,55,73.93s-.88-4.54,2.21-5.21"/>
        <path class="cls-5" d="M64.56,10S67,13.34,63.44,14.8s-2.9,3.26-1.2,5.17,1.64,4.32-1.29,5.51"/>
        <path class="cls-5" d="M59.95,14.27s-4.09.84-2.4,4.33,0,4.36-2.58,4.64-4.12,2.1-2.75,5"/>
        <path class="cls-5" d="M17.08.72s4.17.2,3,3.91.71,4.31,3.26,4.19,4.39,1.44,3.47,4.47"/>
        <path class="cls-5" d="M39.44,15.71s-4-1-2.23-4.42.13-4.36-2.39-4.74-4-2.26-2.55-5.05"/>
        <path class="cls-5" d="M18,7.9s-4-1.27-4.22,2.6-2.17,3.78-4.52,2.78-4.62-.19-4.82,3"/>
        <path class="cls-5" d="M8.4,64.14s1,4.06-2.92,4S1.54,70,2.35,72.43,2.17,77-1,77"/>
        <path class="cls-5" d="M70.32,33.48S68,37,65.41,34.13s-4.08-1.56-5.26.7-3.46,3.07-5.61.75"/>
        <path class="cls-5" d="M50.38,1.6s1,4.06-2.92,4-3.95,1.87-3.13,4.28S44.15,14.5,41,14.45"/>
        <path class="cls-5" d="M43.88,31.8s-1.63-3.83,2.2-4.44,3.57-2.51,2.35-4.76-.61-4.58,2.51-5.07"/>
        <path class="cls-5" d="M74.88,33.61s-4.15-.44-2.81-4.08-.46-4.34-3-4.37-4.3-1.7-3.21-4.67"/>
        <path class="cls-5" d="M62.12,38.22s3.47-2.32,4.77,1.34S70,42.6,72,41s4.39-1.45,5.45,1.53"/>
        <path class="cls-5" d="M71.68,62.73s-.76,4.1-4.29,2.48-4.36.12-4.59,2.66-2,4.16-4.9,2.84"/>
        <path class="cls-5" d="M28.78,44s4.13.55,2.7,4.16.34,4.35,2.89,4.45,4.25,1.81,3.08,4.75"/>
        <path class="cls-5" d="M14.79,43.43s1.2,4,4.53,2,4.35-.36,4.85,2.15,2.46,3.91,5.18,2.29"/>
        <path class="cls-5" d="M1.79,60S3,64,6.33,62s4.35-.36,4.85,2.15,2.46,3.91,5.18,2.29"/>
        <path class="cls-5" d="M37.88,69s4.15-.36,2.89-4,.54-4.33,3.09-4.31,4.33-1.61,3.3-4.6"/>
        <path class="cls-5" d="M34.49,60.09s3.21,2.66.08,5-2,3.87.09,5.31,2.65,3.79.1,5.66"/>
        <path class="cls-5" d="M50.83,63.59s-3.37-2.46-.39-4.94,1.78-4-.42-5.29-2.87-3.62-.44-5.64"/>
        <path class="cls-5" d="M55.94,59.43s2.82-3.07,5,.17,3.76,2.21,5.3.18,3.92-2.45,5.66.2"/>
        <path class="cls-5" d="M40.17,32.48s4.16.24,3,3.94.66,4.31,3.22,4.22,4.38,1.49,3.43,4.5"/>
        <path class="cls-5" d="M31.67,40.41s-.39,4.15,3.45,3.56,4.16,1.3,3.69,3.81.81,4.55,3.94,4.07"/>
        <path class="cls-5" d="M19.47,42.71s1.06-4,4.46-2.16,4.36.21,4.78-2.31,2.33-4,5.1-2.46"/>
        <path class="cls-5" d="M1.21,13.18s4.16-.21,3-3.92.69-4.31,3.24-4.2S11.86,3.59,10.93.57"/>
        <path class="cls-5" d="M35.69,57.65S31.87,56,31.22,59.8s-2.55,3.54-4.78,2.3-4.57-.66-5.1,2.46"/>
        <path class="cls-5" d="M83.79,52.82S82.21,49,79.09,51.27s-4.29.78-5-1.66S71.21,46,68.67,47.85"/>
        <path class="cls-5" d="M67.72,48.84s-1,4-4.44,2.21-4.36-.16-4.75,2.36-2.28,4-5.07,2.52"/>
        <path class="cls-5" d="M59.64,60.81s-.12,4.17-3.86,3.11-4.29.78-4.13,3.33-1.37,4.42-4.41,3.55"/>
        <path class="cls-5" d="M51.35,47.94s2-3.65,4.85-1,4.17,1.27,5.2-1.07,3.24-3.3,5.54-1.14"/>
        <path class="cls-5" d="M41.29,59.08s-2-3.68,1.81-4.61,3.34-2.81,1.93-4.94S44,45,47.09,44.25"/>
        <path class="cls-5" d="M62,83.53s-1.29-4,2.58-4.23,3.77-2.19,2.76-4.53-.21-4.62,2.95-4.84"/>
        <path class="cls-5" d="M46.41,34s4.09-.81,3.89,3.06,1.72,4,4.17,3.28,4.61.34,4.45,3.5"/>
        <path class="cls-5" d="M66.59,12.82s4.13-.53,3.67,3.32,1.45,4.12,3.94,3.56,4.58.65,4.2,3.8"/>
        <path class="cls-5" d="M65.07,53.84s2.41,3.4,4.94.45,4-1.73,5.28.48,3.58,2.92,5.64.52"/>
        <path class="cls-5" d="M45.46,62.83s-3.72,1.88-1.18,4.81S45.39,71.86,43,72.8s-3.42,3.11-1.35,5.5"/>
        <path class="cls-5" d="M28.23,80.31s-3.57-2.16-.81-4.89,1.43-4.12-.87-5.24-3.18-3.36-.92-5.59"/>
        <path class="cls-5" d="M20,65.69s1.2,4-2.68,4.17S13.46,72,14.42,74.32s.1,4.62-3.06,4.76"/>
      </g>
      <g>
        <path class="cls-5" d="M2.88,33.61s-4.15-.44-2.81-4.08-.46-4.34-3-4.37-4.3-1.7-3.21-4.67"/>
        <path class="cls-5" d="M-9.88,38.22s3.47-2.32,4.77,1.34S-2,42.6,0,41s4.39-1.45,5.45,1.53"/>
        <path class="cls-5" d="M-.32,62.73s-.76,4.1-4.29,2.48S-9,65.33-9.2,67.88s-2,4.16-4.9,2.84"/>
        <path class="cls-5" d="M-16.06,59.43s2.82-3.07,5,.17,3.76,2.21,5.3.18,3.92-2.45,5.66.2"/>
        <path class="cls-5" d="M11.79,52.82S10.21,49,7.09,51.27s-4.29.78-5-1.66S-.79,46-3.33,47.85"/>
        <path class="cls-5" d="M-5.41,12.82s4.13-.53,3.67,3.32S-.29,20.26,2.2,19.7s4.58.65,4.2,3.8"/>
        <path class="cls-5" d="M-6.93,53.84s2.41,3.4,4.94.45,4-1.73,5.28.48,3.58,2.92,5.64.52"/>
      </g>
      <path class="cls-5" d="M80.4-7.86s1,4.06-2.92,4S73.54-2,74.35.43,74.17,5,71,5"/>
      <g>
        <path class="cls-5" d="M51,11.38s-1.86-3.73,1.93-4.56S56.36,4.1,55,1.93s-.88-4.54,2.21-5.21"/>
        <path class="cls-5" d="M8.4-7.86s1,4.06-2.92,4S1.54-2,2.35.43,2.17,5-1,5"/>
        <path class="cls-5" d="M34.49-11.91s3.21,2.66.08,5-2,3.87.09,5.31,2.65,3.79.1,5.66"/>
        <path class="cls-5" d="M62,11.53s-1.29-4,2.58-4.23,3.77-2.19,2.76-4.53-.21-4.62,2.95-4.84"/>
        <path class="cls-5" d="M45.46-9.17s-3.72,1.88-1.18,4.81S45.39-.14,43,.8s-3.42,3.11-1.35,5.5"/>
        <path class="cls-5" d="M28.23,8.31s-3.57-2.16-.81-4.89,1.43-4.12-.87-5.24-3.18-3.36-.92-5.59"/>
        <path class="cls-5" d="M20-6.31s1.2,4-2.68,4.17S13.46,0,14.42,2.32s.1,4.62-3.06,4.76"/>
      </g>
    </pattern>
  </defs>
  <title>Artboard 86</title>
  <g>
    <g>
      <path class="cls-2" d="M36.6,44.57V30.19h2.33v12.3h5.73v2.08Z"/>
      <path class="cls-2" d="M54.37,42.62l0,1.7a26.06,26.06,0,0,1-4.24.48c-3.15,0-4.37-1.68-4.37-5.37s1.66-5.59,4.56-5.59,4.41,1.53,4.41,4.81l-.15,1.64H48.11c0,1.68.65,2.52,2.39,2.52S54.37,42.62,54.37,42.62Zm-1.85-4.09c0-2.1-.63-2.79-2.16-2.79s-2.25.78-2.27,2.79Z"/>
      <path class="cls-2" d="M56.47,46.42c0-1.07.52-1.72,1.6-2.54a1.82,1.82,0,0,1-.69-1.53,5.57,5.57,0,0,1,.76-1.68,3.22,3.22,0,0,1-1.51-3.15c0-2.65,1.78-3.65,4.2-3.65a11.32,11.32,0,0,1,2.14.27l3.25-.08V35.9l-1.74-.11A2.73,2.73,0,0,1,65,37.52c0,2.86-1.49,3.63-4.28,3.63a6.41,6.41,0,0,1-.92-.08,4.4,4.4,0,0,0-.29,1c0,.67.23.8,2.27.82,3.32,0,4.35.71,4.35,3.13s-2,3.44-4.85,3.44C58.13,49.44,56.47,48.81,56.47,46.42Zm3.09-1.7a1.75,1.75,0,0,0-.84,1.49c0,1,.69,1.37,2.6,1.37,1.7,0,2.54-.42,2.54-1.45s-.55-1.26-2.25-1.28C61,44.84,59.56,44.72,59.56,44.72Zm3.21-7.2c0-1.26-.55-1.87-2-1.87s-1.93.61-1.93,1.87.59,1.87,1.93,1.87S62.77,38.8,62.77,37.52Z"/>
      <path class="cls-2" d="M76.06,42.62l0,1.7a26.06,26.06,0,0,1-4.24.48c-3.15,0-4.37-1.68-4.37-5.37s1.66-5.59,4.56-5.59,4.41,1.53,4.41,4.81l-.15,1.64H69.81c0,1.68.65,2.52,2.39,2.52S76.06,42.62,76.06,42.62Zm-1.85-4.09c0-2.1-.63-2.79-2.16-2.79s-2.25.78-2.27,2.79Z"/>
      <path class="cls-2" d="M78.67,44.57V34.07h2.27v.65a7,7,0,0,1,2.9-.88c2.92,0,3.63,1.66,3.63,5.1v5.63H85.2V39c0-2.1-.27-3.13-1.87-3.13a6.33,6.33,0,0,0-2.37.55v8.15Z"/>
      <path class="cls-2" d="M98.7,44.57H96.43V44a7.56,7.56,0,0,1-2.81.78c-2.69,0-4-1.41-4-5.46,0-3.8,1.37-5.5,4.37-5.5a18,18,0,0,1,2.39.27V29.71H98.7Zm-2.29-2.33V36a17.17,17.17,0,0,0-2.23-.21C92.63,35.82,92,37,92,39.34c0,2.69.73,3.42,2,3.42A7.25,7.25,0,0,0,96.41,42.24Z"/>
      <path class="cls-2" d="M109.24,42.09a.9.9,0,0,0,.92,1l-.06,1.74a4,4,0,0,1-2.79-.78,9.26,9.26,0,0,1-3.38.78c-2.08,0-3.13-1.16-3.13-3.34s1.22-3,3.46-3.17l2.71-.23v-.76c0-1.15-.5-1.51-1.53-1.51-1.41,0-3.95.21-3.95.21l-.08-1.62a21.61,21.61,0,0,1,4.22-.55c2.56,0,3.61,1.07,3.61,3.46Zm-4.7-2.18c-1,.08-1.45.55-1.45,1.49s.4,1.53,1.28,1.53a10,10,0,0,0,2.6-.46V39.68Z"/>
    </g>
    <rect class="cls-6" x="34.27" y="123.68" width="36" height="37.5"/>
    <rect class="cls-7" x="34.27" y="187.68" width="36" height="37.5"/>
    <rect class="cls-8" x="231.77" y="59.68" width="36" height="37.5"/>
    <rect class="cls-9" x="231.77" y="123.68" width="36" height="37.5"/>
    <rect class="cls-10" x="231.77" y="187.68" width="36" height="37.5"/>
    <rect class="cls-11" x="429.46" y="59.68" width="36" height="37.5"/>
    <rect class="cls-12" x="429.46" y="187.68" width="36" height="37.5"/>
    <rect class="cls-13" x="429.46" y="123.68" width="36" height="37.5"/>
    <g>
      <path class="cls-2" d="M81.71,60h1.67l2.35,7,2.35-7h1.67v8.3h-.92V61h-.17l-2.41,7h-1L82.8,61h-.17v7.32h-.92Z"/>
      <path class="cls-2" d="M91.79,60h5v.82H92.71v2.87h3.41v.8H92.71v3h4.13v.82h-5Z"/>
      <path class="cls-2" d="M98.42,68.29V60h3c2.41,0,3.07,1.68,3.07,4s-.62,4.27-3.07,4.27Zm3-7.48h-2v6.67h2c1.73,0,2.12-1.66,2.12-3.45S103.11,60.81,101.38,60.81Z"/>
      <path class="cls-2" d="M106.16,60h.92v8.3h-.92Z"/>
      <path class="cls-2" d="M110.66,60h2l2.28,8.3H114l-.6-2.13h-3.55l-.6,2.13h-.91Zm-.56,5.34h3.14L112,60.79h-.62Z"/>
      <path class="cls-2" d="M116.27,60H118l3.18,7.48h.25V60h.91v8.3h-1.69l-3.23-7.48h-.23v7.48h-.92Z"/>
      <path class="cls-2" d="M124,64.18c0-2.74.71-4.31,3.27-4.31s3.29,1.55,3.29,4.31-.71,4.23-3.29,4.23S124,67,124,64.18Zm5.6,0c0-2.24-.43-3.49-2.33-3.49S125,61.93,125,64.18s.41,3.42,2.33,3.42S129.64,66.52,129.64,64.18Z"/>
      <path class="cls-2" d="M86.72,82.56a12.46,12.46,0,0,1-2.29.25c-2.48,0-3-1.51-3-4.25s.54-4.29,3-4.29a12.14,12.14,0,0,1,2.29.26l0,.78a14.82,14.82,0,0,0-2.16-.22c-1.85,0-2.17,1.1-2.17,3.47s.3,3.42,2.2,3.42a13.09,13.09,0,0,0,2.13-.22Z"/>
      <path class="cls-2" d="M88.24,74.39h5v.82H89.16v2.87h3.41v.8H89.16v3h4.13v.82h-5Z"/>
      <path class="cls-2" d="M94.87,74.39H96.6l3.18,7.48H100V74.39h.91v8.3H99.25L96,75.21h-.23v7.48h-.92Z"/>
      <path class="cls-2" d="M102.12,74.39h6v.83h-2.53v7.47h-.91V75.22h-2.55Z"/>
      <path class="cls-2" d="M110.22,79.51v3.18h-.92v-8.3h3.07c1.74,0,2.65.77,2.65,2.52a2.25,2.25,0,0,1-1.52,2.41l1.6,3.37h-1l-1.5-3.18Zm2.15-4.31h-2.15V78.7h2.16c1.25,0,1.69-.74,1.69-1.79A1.49,1.49,0,0,0,112.37,75.21Z"/>
      <path class="cls-2" d="M116.35,78.58c0-2.74.71-4.31,3.27-4.31s3.29,1.55,3.29,4.31-.71,4.23-3.29,4.23S116.35,81.36,116.35,78.58Zm5.6,0c0-2.24-.43-3.49-2.33-3.49s-2.33,1.24-2.33,3.49.41,3.42,2.33,3.42S122,80.92,122,78.58Z"/>
      <path class="cls-2" d="M127.25,74.39h1.67l2.35,7,2.35-7h1.67v8.3h-.92V75.38h-.17l-2.41,7h-1l-2.41-7h-.17v7.32h-.92Z"/>
      <path class="cls-2" d="M137.33,74.39h5v.82h-4.12v2.87h3.41v.8h-3.41v3h4.13v.82h-5Z"/>
      <path class="cls-2" d="M144.89,79.51v3.18H144v-8.3H147c1.74,0,2.65.77,2.65,2.52a2.25,2.25,0,0,1-1.52,2.41l1.6,3.37h-1l-1.5-3.18ZM147,75.21h-2.15V78.7H147c1.25,0,1.69-.74,1.69-1.79A1.49,1.49,0,0,0,147,75.21Z"/>
      <path class="cls-2" d="M151.35,74.39h.92v8.3h-.92Z"/>
      <path class="cls-2" d="M154.31,82.69v-8.3h3c2.41,0,3.07,1.68,3.07,4s-.62,4.27-3.07,4.27Zm3-7.48h-2v6.67h2c1.73,0,2.12-1.66,2.12-3.45S159,75.21,157.27,75.21Z"/>
      <path class="cls-2" d="M162,74.39H163v8.3H162Z"/>
      <path class="cls-2" d="M164.66,78.58c0-2.74.71-4.31,3.27-4.31s3.29,1.55,3.29,4.31-.71,4.23-3.29,4.23S164.66,81.36,164.66,78.58Zm5.6,0c0-2.24-.43-3.49-2.33-3.49s-2.33,1.24-2.33,3.49S166,82,167.94,82,170.26,80.92,170.26,78.58Z"/>
      <path class="cls-2" d="M172.92,74.39h1.73l3.18,7.48h.25V74.39H179v8.3H177.3l-3.23-7.48h-.23v7.48h-.92Z"/>
      <path class="cls-2" d="M182.58,74.39h2l2.28,8.3H186l-.6-2.13h-3.55l-.6,2.13h-.91ZM182,79.73h3.14l-1.26-4.55h-.62Z"/>
      <path class="cls-2" d="M188.18,82.69v-8.3h.92v7.47h3.65v.83Z"/>
      <path class="cls-2" d="M193.93,74.39h5v.82h-4.12v2.87h3.41v.8h-3.41v3H199v.82h-5Z"/>
    </g>
    <g>
      <path class="cls-2" d="M80.84,124h6v.83H84.31v7.47H83.4v-7.47H80.84Z"/>
      <path class="cls-2" d="M87.44,128.18c0-2.74.71-4.31,3.27-4.31S94,125.42,94,128.18s-.71,4.23-3.29,4.23S87.44,131,87.44,128.18Zm5.6,0c0-2.24-.43-3.49-2.33-3.49s-2.33,1.24-2.33,3.49.41,3.42,2.33,3.42S93,130.52,93,128.18Z"/>
      <path class="cls-2" d="M100.35,124.88s-1.67-.2-2.36-.2c-1.18,0-1.8.42-1.8,1.36s.58,1.26,2,1.58c1.66.37,2.39.78,2.39,2.23,0,1.84-1,2.55-2.65,2.55a21.78,21.78,0,0,1-2.63-.26l.1-.77s1.63.22,2.48.22c1.17,0,1.77-.52,1.77-1.67,0-.94-.49-1.2-1.85-1.46-1.71-.37-2.58-.78-2.58-2.36s1.05-2.23,2.67-2.23a20.64,20.64,0,0,1,2.51.24Z"/>
      <path class="cls-2" d="M107.21,132.16a12.47,12.47,0,0,1-2.29.25c-2.48,0-3-1.51-3-4.25s.54-4.29,3-4.29a12.14,12.14,0,0,1,2.29.26l0,.78a14.82,14.82,0,0,0-2.16-.22c-1.85,0-2.17,1.1-2.17,3.47s.3,3.42,2.2,3.42a13.09,13.09,0,0,0,2.13-.22Z"/>
      <path class="cls-2" d="M110.28,124h2l2.28,8.3h-.91l-.6-2.13h-3.55l-.6,2.13H108Zm-.56,5.34h3.14l-1.26-4.55H111Z"/>
      <path class="cls-2" d="M115.88,124h1.73l3.18,7.48H121V124H122v8.3h-1.69L117,124.81h-.23v7.48h-.92Z"/>
      <path class="cls-2" d="M123.66,128.18c0-2.74.71-4.31,3.27-4.31s3.29,1.55,3.29,4.31-.71,4.23-3.29,4.23S123.66,131,123.66,128.18Zm5.6,0c0-2.24-.43-3.49-2.33-3.49s-2.33,1.24-2.33,3.49.41,3.42,2.33,3.42S129.26,130.52,129.26,128.18Z"/>
    </g>
    <g>
      <path class="cls-2" d="M81.71,188h1.67l2.35,7,2.35-7h1.67v8.3h-.92V189h-.17l-2.41,7h-1l-2.41-7h-.17v7.32h-.92Z"/>
      <path class="cls-2" d="M91.79,188h5v.82H92.71v2.87h3.41v.8H92.71v3h4.13v.82h-5Z"/>
      <path class="cls-2" d="M99.35,193.12v3.18h-.92V188h3.07c1.74,0,2.65.77,2.65,2.52a2.25,2.25,0,0,1-1.52,2.41l1.6,3.37h-1l-1.5-3.18Zm2.15-4.3H99.35v3.49h2.16c1.25,0,1.69-.74,1.69-1.79A1.49,1.49,0,0,0,101.49,188.81Z"/>
      <path class="cls-2" d="M105.81,188h.92v8.3h-.92Z"/>
      <path class="cls-2" d="M108.77,196.29V188h3c2.41,0,3.07,1.68,3.07,4s-.62,4.27-3.07,4.27Zm3-7.48h-2v6.67h2c1.73,0,2.12-1.66,2.12-3.45S113.46,188.81,111.73,188.81Z"/>
      <path class="cls-2" d="M116.51,188h.92v8.3h-.92Z"/>
      <path class="cls-2" d="M119.12,192.18c0-2.74.71-4.31,3.27-4.31s3.29,1.55,3.29,4.31-.71,4.23-3.29,4.23S119.12,195,119.12,192.18Zm5.6,0c0-2.24-.43-3.49-2.33-3.49s-2.33,1.24-2.33,3.49.41,3.42,2.33,3.42S124.72,194.52,124.72,192.18Z"/>
      <path class="cls-2" d="M127.38,188h1.73l3.18,7.48h.25V188h.91v8.3h-1.69l-3.23-7.48h-.23v7.48h-.92Z"/>
      <path class="cls-2" d="M137,188h2l2.28,8.3h-.91l-.6-2.13h-3.55l-.6,2.13h-.91Zm-.56,5.34h3.14l-1.26-4.55h-.62Z"/>
      <path class="cls-2" d="M142.64,196.29V188h.92v7.47h3.65v.83Z"/>
      <path class="cls-2" d="M148.39,188h5v.82h-4.12v2.87h3.41v.8h-3.41v3h4.13v.82h-5Z"/>
      <path class="cls-2" d="M157.67,188h.92v8.3h-.92Z"/>
      <path class="cls-2" d="M160.62,188h1.73l3.18,7.48h.25V188h.91v8.3H165l-3.23-7.48h-.23v7.48h-.92Z"/>
      <path class="cls-2" d="M167.87,188h6v.83h-2.53v7.47h-.91v-7.47h-2.55Z"/>
      <path class="cls-2" d="M175,188h5v.82H176v2.87h3.41v.8H176v3h4.13v.82h-5Z"/>
      <path class="cls-2" d="M182.6,193.12v3.18h-.92V188h3.07c1.74,0,2.65.77,2.65,2.52a2.25,2.25,0,0,1-1.52,2.41l1.6,3.37h-1l-1.5-3.18Zm2.15-4.3H182.6v3.49h2.16c1.25,0,1.69-.74,1.69-1.79A1.49,1.49,0,0,0,184.75,188.81Z"/>
      <path class="cls-2" d="M189.07,188h1.67l2.35,7,2.35-7h1.67v8.3h-.92V189H196l-2.41,7h-1l-2.41-7H190v7.32h-.92Z"/>
      <path class="cls-2" d="M199.15,188h5v.82h-4.12v2.87h3.41v.8h-3.41v3h4.13v.82h-5Z"/>
      <path class="cls-2" d="M205.79,196.29V188h3c2.41,0,3.07,1.68,3.07,4s-.62,4.27-3.07,4.27Zm3-7.48h-2v6.67h2c1.73,0,2.12-1.66,2.12-3.45S210.48,188.81,208.75,188.81Z"/>
      <path class="cls-2" d="M213.53,188h.92v8.3h-.92Z"/>
      <path class="cls-2" d="M216.14,192.18c0-2.74.71-4.31,3.27-4.31s3.29,1.55,3.29,4.31-.71,4.23-3.29,4.23S216.14,195,216.14,192.18Zm5.6,0c0-2.24-.43-3.49-2.33-3.49s-2.33,1.24-2.33,3.49.41,3.42,2.33,3.42S221.74,194.52,221.74,192.18Z"/>
    </g>
    <g>
      <rect class="cls-6" x="34.62" y="249.82" width="36" height="37.5"/>
      <rect class="cls-14" x="34.62" y="249.82" width="36" height="37.5"/>
    </g>
    <g>
      <path class="cls-2" d="M87.72,250.14l-2.17,8.3H83.49l-2.17-8.3h1l1.91,7.48h.67l1.91-7.48Z"/>
      <path class="cls-2" d="M89,250.14h5V251H90v2.87h3.41v.8H90v3h4.12v.82H89Z"/>
      <path class="cls-2" d="M95.67,250.14H97.4l3.18,7.48h.25v-7.48h.91v8.3H100L96.82,251h-.23v7.48h-.92Z"/>
      <path class="cls-2" d="M103.78,250.14h5V251h-4.12v2.87h3.41v.8h-3.41v3h4.12v.82h-5Z"/>
      <path class="cls-2" d="M109.56,250.14h6V251H113v7.47h-.91V251h-2.55Z"/>
      <path class="cls-2" d="M116.15,254.33c0-2.74.71-4.31,3.27-4.31s3.29,1.55,3.29,4.31-.71,4.23-3.29,4.23S116.15,257.11,116.15,254.33Zm5.6,0c0-2.24-.43-3.49-2.33-3.49s-2.33,1.24-2.33,3.49.41,3.42,2.33,3.42S121.76,256.67,121.76,254.33Z"/>
    </g>
    <g>
      <path class="cls-2" d="M278.4,249.82h1.67l2.35,7,2.35-7h1.67v8.3h-.92v-7.32h-.17l-2.41,7h-1l-2.41-7h-.17v7.32h-.92Z"/>
      <path class="cls-2" d="M288.48,249.82h5v.82h-4.12v2.87h3.41v.8h-3.41v3h4.12v.82h-5Z"/>
      <path class="cls-2" d="M296,254.94v3.18h-.92v-8.3h3.07c1.74,0,2.65.77,2.65,2.52a2.25,2.25,0,0,1-1.52,2.41l1.6,3.37h-1l-1.5-3.18Zm2.15-4.3H296v3.49h2.16c1.25,0,1.69-.74,1.69-1.79A1.49,1.49,0,0,0,298.19,250.64Z"/>
      <path class="cls-2" d="M302.51,249.82h.92v8.3h-.92Z"/>
      <path class="cls-2" d="M305.46,258.12v-8.3h3c2.41,0,3.07,1.68,3.07,4s-.62,4.27-3.07,4.27Zm3-7.48h-2v6.67h2c1.73,0,2.12-1.66,2.12-3.45S310.15,250.64,308.42,250.64Z"/>
      <path class="cls-2" d="M313.2,249.82h.92v8.3h-.92Z"/>
      <path class="cls-2" d="M315.82,254c0-2.74.71-4.31,3.27-4.31s3.29,1.55,3.29,4.31-.71,4.23-3.29,4.23S315.82,256.79,315.82,254Zm5.6,0c0-2.24-.43-3.49-2.33-3.49s-2.33,1.24-2.33,3.49.41,3.42,2.33,3.42S321.42,256.35,321.42,254Z"/>
      <path class="cls-2" d="M324.07,249.82h1.73l3.18,7.48h.25v-7.48h.91v8.3h-1.69l-3.23-7.48H325v7.48h-.92Z"/>
      <path class="cls-2" d="M333.73,249.82h2l2.28,8.3h-.91l-.6-2.13H333l-.6,2.13h-.91Zm-.56,5.34h3.14l-1.26-4.55h-.62Z"/>
      <path class="cls-2" d="M339.34,258.12v-8.3h.92v7.47h3.65v.83Z"/>
      <path class="cls-2" d="M345.09,249.82h5v.82H346v2.87h3.41v.8H346v3h4.12v.82h-5Z"/>
      <path class="cls-2" d="M354.36,249.82h5v.82h-4.12v2.87h3.41v.8h-3.41v3h4.12v.82h-5Z"/>
      <path class="cls-2" d="M365.62,250.71s-1.67-.2-2.36-.2c-1.18,0-1.8.42-1.8,1.36s.58,1.26,2,1.58c1.66.37,2.39.78,2.39,2.23,0,1.83-1,2.55-2.65,2.55a21.78,21.78,0,0,1-2.63-.26l.1-.77s1.63.22,2.48.22c1.17,0,1.77-.52,1.77-1.67,0-.94-.49-1.2-1.85-1.46-1.71-.37-2.58-.78-2.58-2.36s1.05-2.23,2.67-2.23a20.64,20.64,0,0,1,2.51.24Z"/>
      <path class="cls-2" d="M366.6,249.82h6v.83h-2.53v7.47h-.91v-7.47H366.6Z"/>
      <path class="cls-2" d="M374.7,254.94v3.18h-.92v-8.3h3.07c1.74,0,2.65.77,2.65,2.52a2.25,2.25,0,0,1-1.52,2.41l1.6,3.37h-1l-1.5-3.18Zm2.15-4.3H374.7v3.49h2.16c1.25,0,1.69-.74,1.69-1.79A1.49,1.49,0,0,0,376.85,250.64Z"/>
      <path class="cls-2" d="M381.17,249.82h5v.82h-4.12v2.87h3.41v.8h-3.41v3h4.12v.82h-5Z"/>
      <path class="cls-2" d="M387.8,249.82h1.67l2.35,7,2.35-7h1.67v8.3h-.92v-7.32h-.17l-2.41,7h-1l-2.41-7h-.17v7.32h-.92Z"/>
      <path class="cls-2" d="M397.55,254c0-2.74.71-4.31,3.27-4.31s3.29,1.55,3.29,4.31-.71,4.23-3.29,4.23S397.55,256.79,397.55,254Zm5.6,0c0-2.24-.43-3.49-2.33-3.49s-2.33,1.24-2.33,3.49.41,3.42,2.33,3.42S403.15,256.35,403.15,254Z"/>
    </g>
    <g>
      <path class="cls-2" d="M477,250.14h5V251h-4v3.24h3.42V255H478v3.43H477Z"/>
      <path class="cls-2" d="M484.27,255.27v3.18h-.92v-8.3h3.07c1.74,0,2.65.77,2.65,2.52a2.25,2.25,0,0,1-1.52,2.41l1.6,3.37h-1l-1.5-3.18Zm2.15-4.3h-2.15v3.49h2.16c1.25,0,1.69-.74,1.69-1.79A1.49,1.49,0,0,0,486.42,251Z"/>
      <path class="cls-2" d="M490.74,250.14h.92v8.3h-.92Z"/>
      <path class="cls-2" d="M496.5,257.75c1.29,0,2-.5,2-1.8v-5.8h.91v5.78c0,1.89-1,2.64-2.94,2.64s-2.87-.73-2.87-2.64v-5.78h.92v5.8C494.55,257.24,495.27,257.75,496.5,257.75Z"/>
      <path class="cls-2" d="M501.42,258.44v-8.3h.92v7.47H506v.83Z"/>
      <path class="cls-2" d="M508.71,250.14h2l2.28,8.3h-.91l-.6-2.13h-3.55l-.6,2.13h-.91Zm-.56,5.34h3.14L510,250.94h-.62Z"/>
      <path class="cls-2" d="M514.32,250.14H516l3.18,7.48h.25v-7.48h.91v8.3H518.7L515.47,251h-.23v7.48h-.92Z"/>
      <path class="cls-2" d="M522.1,254.33c0-2.74.71-4.31,3.27-4.31s3.29,1.55,3.29,4.31-.71,4.23-3.29,4.23S522.1,257.11,522.1,254.33Zm5.6,0c0-2.24-.43-3.49-2.33-3.49s-2.33,1.24-2.33,3.49.41,3.42,2.33,3.42S527.7,256.67,527.7,254.33Z"/>
    </g>
    <g>
      <path class="cls-2" d="M475.61,65.5v2.79h-.92V60h3c1.81,0,2.65.88,2.65,2.67s-.84,2.83-2.65,2.83Zm2.1-.82c1.21,0,1.71-.73,1.71-2s-.5-1.86-1.71-1.86h-2.1v3.87Z"/>
      <path class="cls-2" d="M482.73,65.12v3.18h-.92V60h3.07c1.74,0,2.65.77,2.65,2.52A2.25,2.25,0,0,1,486,64.92l1.6,3.37h-1l-1.5-3.18Zm2.15-4.3h-2.15V64.3h2.16c1.25,0,1.69-.74,1.69-1.79A1.49,1.49,0,0,0,484.88,60.81Z"/>
      <path class="cls-2" d="M488.86,64.18c0-2.74.71-4.31,3.27-4.31s3.29,1.55,3.29,4.31-.71,4.23-3.29,4.23S488.86,67,488.86,64.18Zm5.6,0c0-2.24-.43-3.49-2.33-3.49s-2.33,1.24-2.33,3.49.41,3.42,2.33,3.42S494.46,66.52,494.46,64.18Z"/>
      <path class="cls-2" d="M502.65,60l-2.17,8.3h-2.06L496.24,60h1l1.91,7.48h.67L501.69,60Z"/>
      <path class="cls-2" d="M504,60h5v.82h-4.12v2.87h3.41v.8h-3.41v3H509v.82h-5Z"/>
      <path class="cls-2" d="M510.59,60h1.73l3.18,7.48h.25V60h.91v8.3H515l-3.23-7.48h-.23v7.48h-.92Z"/>
      <path class="cls-2" d="M518.2,60h5.4v1.08l-4.34,6.16v.24h4.34v.83h-5.4V67.24l4.33-6.16v-.26H518.2Z"/>
      <path class="cls-2" d="M526.68,60h2l2.28,8.3h-.91l-.6-2.13h-3.55l-.6,2.13h-.91Zm-.56,5.34h3.14L528,60.79h-.62Z"/>
      <path class="cls-2" d="M532.29,68.29V60h.92v7.47h3.65v.83Z"/>
      <path class="cls-2" d="M538,60h5v.82H539v2.87h3.41v.8H539v3h4.13v.82h-5Z"/>
    </g>
    <g>
      <path class="cls-2" d="M479.34,124.88s-1.67-.2-2.36-.2c-1.18,0-1.8.42-1.8,1.36s.58,1.26,2,1.58c1.66.37,2.39.78,2.39,2.23,0,1.84-1,2.55-2.65,2.55a21.78,21.78,0,0,1-2.63-.26l.1-.77s1.63.22,2.48.22c1.17,0,1.77-.52,1.77-1.67,0-.94-.49-1.2-1.85-1.46-1.71-.37-2.58-.78-2.58-2.36s1.06-2.23,2.67-2.23a20.64,20.64,0,0,1,2.51.24Z"/>
      <path class="cls-2" d="M481.19,132.29V124h.92v7.47h3.65v.83Z"/>
      <path class="cls-2" d="M486.36,128.18c0-2.74.71-4.31,3.27-4.31s3.29,1.55,3.29,4.31-.71,4.23-3.29,4.23S486.36,131,486.36,128.18Zm5.6,0c0-2.24-.43-3.49-2.33-3.49s-2.33,1.24-2.33,3.49.41,3.42,2.33,3.42S492,130.52,492,128.18Z"/>
      <path class="cls-2" d="M500.15,124l-2.17,8.3h-2.06l-2.17-8.3h1l1.91,7.48h.67l1.91-7.48Z"/>
      <path class="cls-2" d="M501.46,124h5v.82h-4.12v2.87h3.41v.8h-3.41v3h4.13v.82h-5Z"/>
      <path class="cls-2" d="M508.1,124h1.73l3.18,7.48h.25V124h.91v8.3h-1.69l-3.23-7.48H509v7.48h-.92Z"/>
      <path class="cls-2" d="M515.87,128.18c0-2.74.71-4.31,3.27-4.31s3.29,1.55,3.29,4.31-.71,4.23-3.29,4.23S515.87,131,515.87,128.18Zm5.6,0c0-2.24-.43-3.49-2.33-3.49s-2.33,1.24-2.33,3.49.41,3.42,2.33,3.42S521.47,130.52,521.47,128.18Z"/>
    </g>
    <g>
      <path class="cls-2" d="M474.69,188h5v.82h-4V192H479v.82h-3.42v3.43h-.92Z"/>
      <path class="cls-2" d="M481.92,193.12v3.18H481V188h3.07c1.74,0,2.65.77,2.65,2.52a2.25,2.25,0,0,1-1.52,2.41l1.6,3.37h-1l-1.5-3.18Zm2.15-4.3h-2.15v3.49h2.16c1.25,0,1.69-.74,1.69-1.79A1.49,1.49,0,0,0,484.07,188.81Z"/>
      <path class="cls-2" d="M489.85,188h2l2.28,8.3h-.91l-.6-2.13h-3.55l-.6,2.13h-.91Zm-.56,5.34h3.14l-1.26-4.55h-.62Z"/>
      <path class="cls-2" d="M495.46,188h1.73l3.18,7.48h.25V188h.91v8.3h-1.69l-3.23-7.48h-.23v7.48h-.92Z"/>
      <path class="cls-2" d="M508.58,196.16a12.46,12.46,0,0,1-2.29.25c-2.48,0-3-1.51-3-4.25s.54-4.29,3-4.29a12.14,12.14,0,0,1,2.29.26l0,.78a14.82,14.82,0,0,0-2.16-.22c-1.85,0-2.17,1.1-2.17,3.47s.3,3.42,2.2,3.42a13.08,13.08,0,0,0,2.13-.22Z"/>
      <path class="cls-2" d="M509.63,192.18c0-2.74.71-4.31,3.27-4.31s3.29,1.55,3.29,4.31-.71,4.23-3.29,4.23S509.63,195,509.63,192.18Zm5.6,0c0-2.24-.43-3.49-2.33-3.49s-2.33,1.24-2.33,3.49.41,3.42,2.33,3.42S515.23,194.52,515.23,192.18Z"/>
      <path class="cls-2" d="M521.45,193.5v2.79h-.92V188h3c1.81,0,2.65.88,2.65,2.67s-.84,2.83-2.65,2.83Zm2.1-.82c1.21,0,1.71-.73,1.71-2s-.5-1.86-1.71-1.86h-2.1v3.87Z"/>
      <path class="cls-2" d="M528.57,193.12v3.18h-.92V188h3.07c1.74,0,2.65.77,2.65,2.52a2.25,2.25,0,0,1-1.52,2.41l1.6,3.37h-1l-1.5-3.18Zm2.15-4.3h-2.15v3.49h2.16c1.25,0,1.69-.74,1.69-1.79A1.49,1.49,0,0,0,530.71,188.81Z"/>
      <path class="cls-2" d="M534.7,192.18c0-2.74.71-4.31,3.27-4.31s3.29,1.55,3.29,4.31-.71,4.23-3.29,4.23S534.7,195,534.7,192.18Zm5.6,0c0-2.24-.43-3.49-2.33-3.49s-2.33,1.24-2.33,3.49.41,3.42,2.33,3.42S540.3,194.52,540.3,192.18Z"/>
      <path class="cls-2" d="M548.48,188l-2.17,8.3h-2.06l-2.17-8.3h1l1.91,7.48h.67l1.91-7.48Z"/>
      <path class="cls-2" d="M549.8,188h5v.82h-4.12v2.87h3.41v.8h-3.41v3h4.13v.82h-5Z"/>
      <path class="cls-2" d="M556.43,188h1.73l3.18,7.48h.25V188h.91v8.3h-1.69l-3.23-7.48h-.23v7.48h-.92Z"/>
      <path class="cls-2" d="M564,188h5.4v1.08l-4.34,6.16v.24h4.34v.83H564v-1.07l4.33-6.16v-.26H564Z"/>
      <path class="cls-2" d="M572.52,188h2l2.28,8.3h-.91l-.6-2.13h-3.55l-.6,2.13h-.91Zm-.56,5.34h3.14l-1.26-4.55h-.62Z"/>
      <path class="cls-2" d="M578.13,196.29V188h.92v7.47h3.65v.83Z"/>
      <path class="cls-2" d="M583.88,188h5v.82H584.8v2.87h3.41v.8H584.8v3h4.12v.82h-5Z"/>
    </g>
    <g>
      <path class="cls-2" d="M279.71,60h1.67l2.35,7,2.35-7h1.67v8.3h-.92V61h-.17l-2.41,7h-1l-2.41-7h-.17v7.32h-.92Z"/>
      <path class="cls-2" d="M289.79,60h5v.82h-4.12v2.87h3.41v.8h-3.41v3h4.13v.82h-5Z"/>
      <path class="cls-2" d="M296.42,68.29V60h3c2.41,0,3.07,1.68,3.07,4s-.62,4.27-3.07,4.27Zm3-7.48h-2v6.67h2c1.73,0,2.12-1.66,2.12-3.45S301.11,60.81,299.39,60.81Z"/>
      <path class="cls-2" d="M304.16,60h.92v8.3h-.92Z"/>
      <path class="cls-2" d="M308.66,60h2l2.28,8.3H312l-.6-2.13H307.9l-.6,2.13h-.91Zm-.56,5.34h3.14L310,60.79h-.62Z"/>
      <path class="cls-2" d="M314.27,60H316l3.18,7.48h.25V60h.91v8.3h-1.69l-3.23-7.48h-.23v7.48h-.92Z"/>
      <path class="cls-2" d="M322,64.18c0-2.74.71-4.31,3.27-4.31s3.29,1.55,3.29,4.31-.71,4.23-3.29,4.23S322,67,322,64.18Zm5.6,0c0-2.24-.43-3.49-2.33-3.49S323,61.93,323,64.18s.41,3.42,2.33,3.42S327.65,66.52,327.65,64.18Z"/>
      <path class="cls-2" d="M284.72,82.56a12.46,12.46,0,0,1-2.29.25c-2.48,0-3-1.51-3-4.25s.54-4.29,3-4.29a12.14,12.14,0,0,1,2.29.26l0,.78a14.82,14.82,0,0,0-2.16-.22c-1.85,0-2.17,1.1-2.17,3.47s.3,3.42,2.2,3.42a13.09,13.09,0,0,0,2.13-.22Z"/>
      <path class="cls-2" d="M286.24,74.39h5v.82h-4.12v2.87h3.41v.8h-3.41v3h4.13v.82h-5Z"/>
      <path class="cls-2" d="M292.87,74.39h1.73l3.18,7.48H298V74.39h.91v8.3h-1.69L294,75.21h-.23v7.48h-.92Z"/>
      <path class="cls-2" d="M300.12,74.39h6v.83h-2.53v7.47h-.91V75.22h-2.55Z"/>
      <path class="cls-2" d="M308.22,79.51v3.18h-.92v-8.3h3.07c1.74,0,2.65.77,2.65,2.52a2.25,2.25,0,0,1-1.52,2.41l1.6,3.37h-1l-1.5-3.18Zm2.15-4.31h-2.15V78.7h2.16c1.25,0,1.69-.74,1.69-1.79A1.49,1.49,0,0,0,310.37,75.21Z"/>
      <path class="cls-2" d="M314.35,78.58c0-2.74.71-4.31,3.27-4.31s3.29,1.55,3.29,4.31-.71,4.23-3.29,4.23S314.35,81.36,314.35,78.58Zm5.6,0c0-2.24-.43-3.49-2.33-3.49s-2.33,1.24-2.33,3.49.41,3.42,2.33,3.42S320,80.92,320,78.58Z"/>
      <path class="cls-2" d="M325.25,74.39h1.67l2.35,7,2.35-7h1.67v8.3h-.92V75.38h-.17l-2.41,7h-1l-2.41-7h-.17v7.32h-.92Z"/>
      <path class="cls-2" d="M335.33,74.39h5v.82h-4.12v2.87h3.41v.8h-3.41v3h4.13v.82h-5Z"/>
      <path class="cls-2" d="M342.89,79.51v3.18H342v-8.3H345c1.74,0,2.65.77,2.65,2.52a2.25,2.25,0,0,1-1.52,2.41l1.6,3.37h-1l-1.5-3.18ZM345,75.21h-2.15V78.7H345c1.25,0,1.69-.74,1.69-1.79A1.49,1.49,0,0,0,345,75.21Z"/>
      <path class="cls-2" d="M349.35,74.39h.92v8.3h-.92Z"/>
      <path class="cls-2" d="M352.31,82.69v-8.3h3c2.41,0,3.07,1.68,3.07,4s-.62,4.27-3.07,4.27Zm3-7.48h-2v6.67h2c1.73,0,2.12-1.66,2.12-3.45S357,75.21,355.27,75.21Z"/>
      <path class="cls-2" d="M360,74.39H361v8.3H360Z"/>
      <path class="cls-2" d="M362.66,78.58c0-2.74.71-4.31,3.27-4.31s3.29,1.55,3.29,4.31-.71,4.23-3.29,4.23S362.66,81.36,362.66,78.58Zm5.6,0c0-2.24-.43-3.49-2.33-3.49s-2.33,1.24-2.33,3.49S364,82,365.94,82,368.26,80.92,368.26,78.58Z"/>
      <path class="cls-2" d="M370.92,74.39h1.73l3.18,7.48h.25V74.39H377v8.3H375.3l-3.23-7.48h-.23v7.48h-.92Z"/>
      <path class="cls-2" d="M380.58,74.39h2l2.28,8.3H384l-.6-2.13h-3.55l-.6,2.13h-.91ZM380,79.73h3.14l-1.26-4.55h-.62Z"/>
      <path class="cls-2" d="M386.18,82.69v-8.3h.92v7.47h3.65v.83Z"/>
      <path class="cls-2" d="M391.93,74.39h5v.82h-4.12v2.87h3.41v.8h-3.41v3H397v.82h-5Z"/>
    </g>
    <g>
      <path class="cls-2" d="M283,128h2.29v4.08a20.22,20.22,0,0,1-2.7.29c-2.54,0-3.21-1.56-3.21-4.25s.7-4.29,3.19-4.29a15.48,15.48,0,0,1,2.72.31l0,.77a19,19,0,0,0-2.58-.25c-1.92,0-2.34,1.12-2.34,3.47s.41,3.43,2.33,3.43a11.17,11.17,0,0,0,1.71-.17v-2.55H283Z"/>
      <path class="cls-2" d="M288.65,124h2l2.28,8.3H292l-.6-2.13h-3.55l-.6,2.13h-.91Zm-.56,5.34h3.14L290,124.79h-.62Z"/>
      <path class="cls-2" d="M294.25,132.29V124h.92v7.47h3.65v.83Z"/>
      <path class="cls-2" d="M300,132.29V124h.92v7.47h3.65v.83Z"/>
      <path class="cls-2" d="M305.17,128.18c0-2.74.71-4.31,3.27-4.31s3.29,1.55,3.29,4.31-.71,4.23-3.29,4.23S305.17,131,305.17,128.18Zm5.6,0c0-2.24-.43-3.49-2.33-3.49s-2.33,1.24-2.33,3.49.41,3.42,2.33,3.42S310.77,130.52,310.77,128.18Z"/>
      <path class="cls-2" d="M316.07,124H317v8.3h-.92Z"/>
      <path class="cls-2" d="M318.16,124h6v.83h-2.53v7.47h-.91v-7.47h-2.55Z"/>
      <path class="cls-2" d="M326.31,124h2l2.28,8.3h-.91l-.6-2.13h-3.55l-.6,2.13H324Zm-.56,5.34h3.14l-1.26-4.55H327Z"/>
      <path class="cls-2" d="M331.92,132.29V124h.92v7.47h3.65v.83Z"/>
      <path class="cls-2" d="M337.67,124h.92v8.3h-.92Z"/>
      <path class="cls-2" d="M345.63,132.16a12.46,12.46,0,0,1-2.29.25c-2.48,0-3-1.51-3-4.25s.54-4.29,3-4.29a12.14,12.14,0,0,1,2.29.26l0,.78a14.82,14.82,0,0,0-2.16-.22c-1.85,0-2.17,1.1-2.17,3.47s.3,3.42,2.2,3.42a13.09,13.09,0,0,0,2.13-.22Z"/>
      <path class="cls-2" d="M346.68,128.18c0-2.74.71-4.31,3.27-4.31s3.29,1.55,3.29,4.31-.71,4.23-3.29,4.23S346.68,131,346.68,128.18Zm5.6,0c0-2.24-.43-3.49-2.33-3.49s-2.33,1.24-2.33,3.49.41,3.42,2.33,3.42S352.28,130.52,352.28,128.18Z"/>
    </g>
    <g>
      <path class="cls-2" d="M279.71,196.29V188h.92v7.47h3.65v.83Z"/>
      <path class="cls-2" d="M287,188h2l2.28,8.3h-.91l-.6-2.13h-3.55l-.6,2.13h-.91Zm-.56,5.34h3.14l-1.26-4.55h-.62Z"/>
      <path class="cls-2" d="M292.61,196.29V188h3c2.41,0,3.07,1.68,3.07,4s-.62,4.27-3.07,4.27Zm3-7.48h-2v6.67h2c1.73,0,2.12-1.66,2.12-3.45S297.3,188.81,295.57,188.81Z"/>
      <path class="cls-2" d="M300.35,188h.92v8.3h-.92Z"/>
      <path class="cls-2" d="M303.3,188H305l3.18,7.48h.25V188h.91v8.3h-1.69l-3.23-7.48h-.23v7.48h-.92Z"/>
      <path class="cls-2" d="M311.08,192.18c0-2.74.71-4.31,3.27-4.31s3.29,1.55,3.29,4.31-.71,4.23-3.29,4.23S311.08,195,311.08,192.18Zm5.6,0c0-2.24-.43-3.49-2.33-3.49s-2.33,1.24-2.33,3.49.41,3.42,2.33,3.42S316.68,194.52,316.68,192.18Z"/>
      <path class="cls-2" d="M281.25,202.39h2l2.28,8.3h-.91l-.6-2.13h-3.55l-.6,2.13H279Zm-.56,5.34h3.14l-1.26-4.55H282Z"/>
      <path class="cls-2" d="M285.43,202.39h6v.83H288.9v7.47H288v-7.47h-2.55Z"/>
      <path class="cls-2" d="M292.61,202.39h5v.82h-4.12v2.87h3.41v.8h-3.41v3h4.13v.82h-5Z"/>
      <path class="cls-2" d="M303.86,203.28s-1.67-.2-2.36-.2c-1.18,0-1.8.42-1.8,1.36s.58,1.26,2,1.58c1.66.37,2.39.78,2.39,2.23,0,1.83-1,2.55-2.65,2.55a21.78,21.78,0,0,1-2.63-.26l.1-.77s1.63.22,2.48.22c1.17,0,1.77-.52,1.77-1.67,0-.94-.49-1.2-1.85-1.46-1.71-.37-2.58-.78-2.58-2.36s1.05-2.23,2.67-2.23a20.64,20.64,0,0,1,2.51.24Z"/>
      <path class="cls-2" d="M305.71,202.39h.92v8.3h-.92Z"/>
      <path class="cls-2" d="M308.66,202.39h1.73l3.18,7.48h.25v-7.48h.91v8.3H313l-3.23-7.48h-.23v7.48h-.92Z"/>
      <path class="cls-2" d="M316.44,206.58c0-2.74.71-4.31,3.27-4.31s3.29,1.55,3.29,4.31-.71,4.23-3.29,4.23S316.44,209.36,316.44,206.58Zm5.6,0c0-2.24-.43-3.49-2.33-3.49s-2.33,1.24-2.33,3.49.41,3.42,2.33,3.42S322,208.92,322,206.58Z"/>
      <path class="cls-2" d="M327.34,202.39h5v.82h-4.12v2.87h3.41v.8h-3.41v3h4.13v.82h-5Z"/>
      <path class="cls-2" d="M341.62,210.56a12.46,12.46,0,0,1-2.29.25c-2.48,0-3-1.51-3-4.25s.54-4.29,3-4.29a12.14,12.14,0,0,1,2.29.26l0,.78a14.82,14.82,0,0,0-2.16-.22c-1.85,0-2.17,1.1-2.17,3.47s.3,3.42,2.2,3.42a13.09,13.09,0,0,0,2.13-.22Z"/>
      <path class="cls-2" d="M344.69,202.39h2l2.28,8.3h-.91l-.6-2.13h-3.55l-.6,2.13h-.91Zm-.56,5.34h3.14L346,203.19h-.62Z"/>
      <path class="cls-2" d="M350.29,210.69v-8.3h3c2.41,0,3.07,1.68,3.07,4s-.62,4.27-3.07,4.27Zm3-7.48h-2v6.67h2c1.73,0,2.12-1.66,2.12-3.45S355,203.21,353.25,203.21Z"/>
      <path class="cls-2" d="M357.7,206.58c0-2.74.71-4.31,3.27-4.31s3.29,1.55,3.29,4.31-.71,4.23-3.29,4.23S357.7,209.36,357.7,206.58Zm5.6,0c0-2.24-.43-3.49-2.33-3.49s-2.33,1.24-2.33,3.49S359.05,210,361,210,363.3,208.92,363.3,206.58Z"/>
      <path class="cls-2" d="M366.88,207.51v3.18H366v-8.3H369c1.74,0,2.65.77,2.65,2.52a2.25,2.25,0,0,1-1.52,2.41l1.6,3.37h-1l-1.5-3.18Zm2.15-4.31h-2.15v3.49H369c1.25,0,1.69-.74,1.69-1.79A1.49,1.49,0,0,0,369,203.21Z"/>
      <path class="cls-2" d="M373.34,202.39h.92v8.3h-.92Z"/>
      <path class="cls-2" d="M376.3,202.39H378l3.18,7.48h.25v-7.48h.91v8.3h-1.69l-3.23-7.48h-.23v7.48h-.92Z"/>
      <path class="cls-2" d="M384.07,206.58c0-2.74.71-4.31,3.27-4.31s3.29,1.55,3.29,4.31-.71,4.23-3.29,4.23S384.07,209.36,384.07,206.58Zm5.6,0c0-2.24-.43-3.49-2.33-3.49s-2.33,1.24-2.33,3.49.41,3.42,2.33,3.42S389.67,208.92,389.67,206.58Z"/>
    </g>
    <rect class="cls-11" x="33.4" y="312.54" width="36" height="37.5"/>
    <rect class="cls-9" x="231.77" y="313.67" width="36" height="37.5"/>
    <g>
      <path class="cls-2" d="M86.36,314.88s-1.67-.2-2.36-.2c-1.18,0-1.8.42-1.8,1.36s.58,1.26,2,1.58c1.66.37,2.39.78,2.39,2.23,0,1.84-1,2.55-2.65,2.55a21.77,21.77,0,0,1-2.63-.26l.1-.77s1.63.22,2.48.22c1.17,0,1.77-.52,1.77-1.67,0-.94-.49-1.2-1.85-1.46-1.71-.37-2.58-.78-2.58-2.36s1.05-2.23,2.67-2.23a20.63,20.63,0,0,1,2.51.24Z"/>
      <path class="cls-2" d="M89.64,314h2l2.28,8.3H93l-.6-2.13H88.87l-.6,2.13h-.91Zm-.56,5.34h3.14L91,314.78h-.62Z"/>
      <path class="cls-2" d="M96.17,319.11v3.18h-.92V314h3.07c1.74,0,2.65.77,2.65,2.52a2.25,2.25,0,0,1-1.52,2.41l1.6,3.37h-1l-1.5-3.18Zm2.15-4.3H96.17v3.49h2.16c1.25,0,1.69-.74,1.69-1.79A1.49,1.49,0,0,0,98.31,314.81Z"/>
      <path class="cls-2" d="M102.64,322.29V314h3c2.41,0,3.07,1.68,3.07,4s-.62,4.27-3.07,4.27Zm3-7.48h-2v6.67h2c1.73,0,2.12-1.66,2.12-3.45S107.33,314.81,105.6,314.81Z"/>
      <path class="cls-2" d="M110,318.18c0-2.74.71-4.31,3.27-4.31s3.29,1.55,3.29,4.31-.71,4.23-3.29,4.23S110,321,110,318.18Zm5.6,0c0-2.24-.43-3.49-2.33-3.49s-2.33,1.24-2.33,3.49.41,3.42,2.33,3.42S115.64,320.52,115.64,318.18Z"/>
      <path class="cls-2" d="M81.71,336.69v-8.3h.92v7.47h3.65v.83Z"/>
      <path class="cls-2" d="M89,328.39h2l2.28,8.3h-.91l-.6-2.13H88.24l-.6,2.13h-.91Zm-.56,5.34h3.14l-1.26-4.55H89.7Z"/>
      <path class="cls-2" d="M97.75,332.44H100v4.08a20.22,20.22,0,0,1-2.7.29c-2.54,0-3.21-1.56-3.21-4.25s.7-4.29,3.19-4.29a15.48,15.48,0,0,1,2.72.31l0,.77a19,19,0,0,0-2.58-.25c-1.92,0-2.34,1.12-2.34,3.47S95.5,336,97.42,336a11.17,11.17,0,0,0,1.71-.17v-2.55H97.75Z"/>
      <path class="cls-2" d="M104.66,336c1.29,0,2-.5,2-1.8v-5.81h.91v5.78c0,1.89-1,2.64-2.94,2.64s-2.87-.73-2.87-2.64v-5.78h.92v5.81C102.72,335.49,103.44,336,104.66,336Z"/>
      <path class="cls-2" d="M109.58,336.69v-8.3h3c2.41,0,3.07,1.68,3.07,4s-.62,4.27-3.07,4.27Zm3-7.48h-2v6.67h2c1.73,0,2.12-1.66,2.12-3.45S114.27,329.21,112.55,329.21Z"/>
      <path class="cls-2" d="M117,332.58c0-2.74.71-4.31,3.27-4.31s3.29,1.55,3.29,4.31-.71,4.23-3.29,4.23S117,335.36,117,332.58Zm5.6,0c0-2.24-.43-3.49-2.33-3.49s-2.33,1.24-2.33,3.49.41,3.42,2.33,3.42S122.59,334.92,122.59,332.58Z"/>
      <path class="cls-2" d="M126.17,333.51v3.18h-.92v-8.3h3.07c1.74,0,2.65.77,2.65,2.52a2.25,2.25,0,0,1-1.52,2.41l1.6,3.37h-1l-1.5-3.18Zm2.15-4.31h-2.15v3.49h2.16c1.25,0,1.69-.74,1.69-1.79A1.49,1.49,0,0,0,128.31,329.21Z"/>
      <path class="cls-2" d="M132.64,328.39h5v.82h-4.12v2.87H137v.8h-3.41v3h4.13v.82h-5Z"/>
      <path class="cls-2" d="M143.89,329.28s-1.67-.2-2.36-.2c-1.18,0-1.8.42-1.8,1.36s.58,1.26,2,1.58c1.66.37,2.39.78,2.39,2.23,0,1.83-1,2.55-2.65,2.55a21.78,21.78,0,0,1-2.63-.26l.1-.77s1.63.22,2.48.22c1.17,0,1.77-.52,1.77-1.67,0-.94-.49-1.2-1.85-1.46-1.71-.37-2.58-.78-2.58-2.36s1.05-2.23,2.67-2.23a20.64,20.64,0,0,1,2.51.24Z"/>
      <path class="cls-2" d="M145.74,328.39h5v.82h-4.12v2.87h3.41v.8h-3.41v3h4.13v.82h-5Z"/>
      <path class="cls-2" d="M155,328.39h5v.82h-4.12v2.87h3.41v.8h-3.41v3h4.13v.82h-5Z"/>
      <path class="cls-2" d="M169.3,336.56a12.47,12.47,0,0,1-2.29.25c-2.48,0-3-1.51-3-4.25s.54-4.29,3-4.29a12.14,12.14,0,0,1,2.29.26l0,.78a14.82,14.82,0,0,0-2.16-.22c-1.85,0-2.17,1.1-2.17,3.47s.3,3.42,2.2,3.42a13.09,13.09,0,0,0,2.13-.22Z"/>
      <path class="cls-2" d="M172.37,328.39h2l2.28,8.3h-.91l-.6-2.13H171.6l-.6,2.13h-.91Zm-.56,5.34h3.14l-1.26-4.55h-.62Z"/>
      <path class="cls-2" d="M178,328.39h1.67l2.35,7,2.35-7H186v8.3h-.92v-7.32h-.17l-2.41,7h-1l-2.41-7h-.17v7.32H178Z"/>
      <path class="cls-2" d="M189,333.9v2.79h-.92v-8.3h3c1.81,0,2.65.88,2.65,2.67s-.84,2.83-2.65,2.83Zm2.1-.82c1.21,0,1.71-.73,1.71-2s-.5-1.86-1.71-1.86H189v3.87Z"/>
      <path class="cls-2" d="M195.17,328.39h.92v8.3h-.92Z"/>
      <path class="cls-2" d="M198.12,336.69v-8.3h3c2.41,0,3.07,1.68,3.07,4s-.62,4.27-3.07,4.27Zm3-7.48h-2v6.67h2c1.73,0,2.12-1.66,2.12-3.45S202.81,329.21,201.08,329.21Z"/>
      <path class="cls-2" d="M205.86,328.39h5v.82h-4.12v2.87h3.41v.8h-3.41v3h4.13v.82h-5Z"/>
      <path class="cls-2" d="M217.11,329.28s-1.67-.2-2.36-.2c-1.18,0-1.8.42-1.8,1.36s.58,1.26,2,1.58c1.66.37,2.39.78,2.39,2.23,0,1.83-1,2.55-2.65,2.55a21.78,21.78,0,0,1-2.63-.26l.1-.77s1.63.22,2.48.22c1.17,0,1.77-.52,1.77-1.67,0-.94-.49-1.2-1.85-1.46-1.71-.37-2.58-.78-2.58-2.36s1.06-2.23,2.67-2.23a20.64,20.64,0,0,1,2.51.24Z"/>
      <path class="cls-2" d="M219,328.39h5v.82h-4.12v2.87h3.41v.8h-3.41v3H224v.82h-5Z"/>
    </g>
    <g>
      <path class="cls-2" d="M284.36,314.88s-1.67-.2-2.36-.2c-1.18,0-1.8.42-1.8,1.36s.58,1.26,2,1.58c1.66.37,2.39.78,2.39,2.23,0,1.84-1,2.55-2.65,2.55a21.77,21.77,0,0,1-2.63-.26l.1-.77s1.63.22,2.48.22c1.17,0,1.77-.52,1.77-1.67,0-.94-.49-1.2-1.85-1.46-1.71-.37-2.58-.78-2.58-2.36s1.05-2.23,2.67-2.23a20.63,20.63,0,0,1,2.51.24Z"/>
      <path class="cls-2" d="M287.64,314h2l2.28,8.3H291l-.6-2.13h-3.55l-.6,2.13h-.91Zm-.56,5.34h3.14L289,314.78h-.62Z"/>
      <path class="cls-2" d="M297.81,314.88s-1.67-.2-2.36-.2c-1.18,0-1.8.42-1.8,1.36s.58,1.26,2,1.58c1.66.37,2.39.78,2.39,2.23,0,1.84-1,2.55-2.65,2.55a21.77,21.77,0,0,1-2.63-.26l.1-.77s1.63.22,2.48.22c1.17,0,1.77-.52,1.77-1.67,0-.94-.49-1.2-1.85-1.46-1.71-.37-2.58-.78-2.58-2.36s1.06-2.23,2.67-2.23a20.64,20.64,0,0,1,2.51.24Z"/>
      <path class="cls-2" d="M304.32,314.88s-1.67-.2-2.36-.2c-1.18,0-1.8.42-1.8,1.36s.58,1.26,2,1.58c1.66.37,2.39.78,2.39,2.23,0,1.84-1,2.55-2.65,2.55a21.77,21.77,0,0,1-2.63-.26l.1-.77s1.63.22,2.48.22c1.17,0,1.77-.52,1.77-1.67,0-.94-.49-1.2-1.85-1.46-1.71-.37-2.58-.78-2.58-2.36s1.06-2.23,2.67-2.23a20.63,20.63,0,0,1,2.51.24Z"/>
      <path class="cls-2" d="M307.59,314h2l2.28,8.3H311l-.6-2.13h-3.55l-.6,2.13h-.91Zm-.56,5.34h3.14l-1.26-4.55h-.62Z"/>
      <path class="cls-2" d="M314.12,319.11v3.18h-.92V314h3.07c1.74,0,2.65.77,2.65,2.52a2.25,2.25,0,0,1-1.52,2.41l1.6,3.37h-1l-1.5-3.18Zm2.15-4.3h-2.15v3.49h2.16c1.25,0,1.69-.74,1.69-1.79A1.49,1.49,0,0,0,316.27,314.81Z"/>
      <path class="cls-2" d="M320.59,314h5v.82h-4.12v2.87h3.41v.8h-3.41v3h4.13v.82h-5Z"/>
      <path class="cls-2" d="M331.85,314.88s-1.67-.2-2.36-.2c-1.18,0-1.8.42-1.8,1.36s.58,1.26,2,1.58c1.66.37,2.39.78,2.39,2.23,0,1.84-1,2.55-2.65,2.55a21.77,21.77,0,0,1-2.63-.26l.1-.77s1.63.22,2.48.22c1.17,0,1.77-.52,1.77-1.67,0-.94-.49-1.2-1.85-1.46-1.71-.37-2.58-.78-2.58-2.36s1.05-2.23,2.67-2.23a20.63,20.63,0,0,1,2.51.24Z"/>
      <path class="cls-2" d="M333.7,314h5v.82h-4.12v2.87H338v.8h-3.41v3h4.13v.82h-5Z"/>
      <path class="cls-2" d="M279.71,328.39h5v.82h-4.12v2.87H284v.8h-3.41v3h4.13v.82h-5Z"/>
      <path class="cls-2" d="M292.27,332.44h2.29v4.08a20.22,20.22,0,0,1-2.7.29c-2.54,0-3.21-1.56-3.21-4.25s.7-4.29,3.19-4.29a15.48,15.48,0,0,1,2.72.31l0,.77a19,19,0,0,0-2.58-.25c-1.92,0-2.34,1.12-2.34,3.47S290,336,291.93,336a11.17,11.17,0,0,0,1.71-.17v-2.55h-1.38Z"/>
      <path class="cls-2" d="M297.92,328.39h2l2.28,8.3h-.91l-.6-2.13h-3.55l-.6,2.13h-.91Zm-.56,5.34h3.14l-1.26-4.55h-.62Z"/>
      <path class="cls-2" d="M303.53,336.69v-8.3h.92v7.47h3.65v.83Z"/>
      <path class="cls-2" d="M309.28,336.69v-8.3h.92v7.47h3.65v.83Z"/>
      <path class="cls-2" d="M317.67,336c1.29,0,2-.5,2-1.8v-5.81h.91v5.78c0,1.89-1,2.64-2.94,2.64s-2.87-.73-2.87-2.64v-5.78h.92v5.81C315.73,335.49,316.45,336,317.67,336Z"/>
      <path class="cls-2" d="M323.52,333.51v3.18h-.92v-8.3h3.07c1.74,0,2.65.77,2.65,2.52a2.25,2.25,0,0,1-1.52,2.41l1.6,3.37h-1l-1.5-3.18Zm2.15-4.31h-2.15v3.49h2.16c1.25,0,1.69-.74,1.69-1.79A1.49,1.49,0,0,0,325.67,329.21Z"/>
      <path class="cls-2" d="M330,328.39h5v.82h-4.12v2.87h3.41v.8h-3.41v3H335v.82h-5Z"/>
      <path class="cls-2" d="M341.24,329.28s-1.67-.2-2.36-.2c-1.18,0-1.8.42-1.8,1.36s.58,1.26,2,1.58c1.66.37,2.39.78,2.39,2.23,0,1.83-1,2.55-2.65,2.55a21.78,21.78,0,0,1-2.63-.26l.1-.77s1.63.22,2.48.22c1.17,0,1.77-.52,1.77-1.67,0-.94-.49-1.2-1.85-1.46-1.71-.37-2.58-.78-2.58-2.36s1.05-2.23,2.67-2.23a20.64,20.64,0,0,1,2.51.24Z"/>
      <path class="cls-2" d="M343.09,328.39h5v.82H344v2.87h3.41v.8H344v3h4.13v.82h-5Z"/>
    </g>
    <g>
      <rect class="cls-7" x="429.83" y="249.83" width="36" height="37.5"/>
      <rect class="cls-15" x="429.38" y="250.46" width="36" height="37.5"/>
    </g>
    <g>
      <rect class="cls-16" x="231.44" y="249.51" width="36" height="37.5"/>
      <rect class="cls-17" x="230.5" y="250.14" width="36" height="37.5"/>
    </g>
    <rect class="cls-8" x="34.15" y="59.68" width="36" height="37.5"/>
    <rect class="cls-18" x="34.4" y="60.54" width="36" height="37.5"/>
    <rect class="cls-19" x="33.4" y="312.54" width="36" height="37.5"/>
    <rect class="cls-20" x="231.4" y="313.54" width="36" height="37.5"/>
  </g>
</svg>
