<svg class="cartina" version="1.1" id="Layer_1" xmlns="http://www.w3.org/2000/svg" xmlns:xlink="http://www.w3.org/1999/xlink" x="0px" y="0px"
		 viewBox="0 0 1112.6 1438.4" style="enable-background:new 0 0 1112.6 1438.4;" xml:space="preserve">
			<style type="text/css">
				.st0{fill:none;}
                .st1{fill:none;stroke:#000000;stroke-width:0.3;}
                .st2{fill:none;stroke:#000000;stroke-width:6;}
                .st3{fill:#97D3BE;}
                .st4{fill:#ED3594;}
                .st5{fill:#C4E5E0;}
                .st6{fill:#4C8BA7;}
                .st7{fill:#882677;}
                .st8{fill:url(#SVGID_1_);}
                .st9{fill:url(#SVGID_2_);}
                .st10{fill:url(#SVGID_3_);}
                .st11{fill:url(#SVGID_4_);}
                .st12{fill:url(#SVGID_5_);}
                .st13{fill:url(#SVGID_6_);}
                .st14{fill:url(#SVGID_7_);}
                .st15{fill:url(#SVGID_8_);}
                .st16{fill:url(#SVGID_9_);}
                .st17{fill:url(#SVGID_10_);}
                .st18{fill:url(#SVGID_11_);}
                .st19{fill:url(#SVGID_12_);}
                .st20{fill:url(#SVGID_13_);}
                .st21{fill:url(#SVGID_14_);}
                .st22{fill:url(#SVGID_15_);}
                .st23{fill:url(#SVGID_16_);}
                .st24{fill:#B0D57C;}
                .st25{fill:#CE3C96;}
                .st26{fill:#3B2758;}
                .st27{fill:#049176;}
                .st28{fill:url(#SVGID_17_);}
                .st29{fill:#C7DA30;}
                .st30{fill:url(#SVGID_18_);}
                .st31{fill:url(#SVGID_19_);}
			</style>
			<pattern  y="1438.4" width="28.8" height="28.8" patternUnits="userSpaceOnUse" id="SVGID_20_" viewBox="2.2 -31 28.8 28.8" style="overflow:visible;">
				<g>
					<rect x="2.2" y="-31" class="st0" width="28.8" height="28.8"/>
					<g>
						<polygon class="st0" points="2.2,-31 31,-31 31,-2.2 2.2,-2.2 			"/>
						<g>
							<polygon class="st0" points="2.2,-31 31,-31 31,-2.2 2.2,-2.2 				"/>
							<g>
								<path d="M31,0c1.2,0,2.2-1,2.2-2.2s-1-2.2-2.2-2.2c-1.2,0-2.2,1-2.2,2.2S29.8,0,31,0z"/>
								<path d="M16.6,0c1.2,0,2.2-1,2.2-2.2s-1-2.2-2.2-2.2c-1.2,0-2.2,1-2.2,2.2S15.4,0,16.6,0z"/>
								<path d="M31-14.4c1.2,0,2.2-1,2.2-2.2c0-1.2-1-2.2-2.2-2.2c-1.2,0-2.2,1-2.2,2.2C28.8-15.4,29.8-14.4,31-14.4z"/>
								<path d="M16.6-14.4c1.2,0,2.2-1,2.2-2.2c0-1.2-1-2.2-2.2-2.2c-1.2,0-2.2,1-2.2,2.2C14.4-15.4,15.4-14.4,16.6-14.4z"/>
								<path d="M9.4-7.2c1.2,0,2.2-1,2.2-2.2c0-1.2-1-2.2-2.2-2.2c-1.2,0-2.2,1-2.2,2.2C7.2-8.2,8.2-7.2,9.4-7.2z"/>
								<path d="M23.8-7.2c1.2,0,2.2-1,2.2-2.2c0-1.2-1-2.2-2.2-2.2c-1.2,0-2.2,1-2.2,2.2C21.6-8.2,22.6-7.2,23.8-7.2z"/>
								<path d="M9.4-21.6c1.2,0,2.2-1,2.2-2.2c0-1.2-1-2.2-2.2-2.2c-1.2,0-2.2,1-2.2,2.2C7.2-22.6,8.2-21.6,9.4-21.6z"/>
								<path d="M23.8-21.6c1.2,0,2.2-1,2.2-2.2c0-1.2-1-2.2-2.2-2.2c-1.2,0-2.2,1-2.2,2.2C21.6-22.6,22.6-21.6,23.8-21.6z"/>
							</g>
							<g>
								<path d="M2.2,0c1.2,0,2.2-1,2.2-2.2s-1-2.2-2.2-2.2C1-4.3,0-3.4,0-2.2C0-1,1,0,2.2,0z"/>
								<path d="M2.2-14.4c1.2,0,2.2-1,2.2-2.2c0-1.2-1-2.2-2.2-2.2c-1.2,0-2.2,1-2.2,2.2C0-15.4,1-14.4,2.2-14.4z"/>
							</g>
							<g>
								<path d="M31-28.8c1.2,0,2.2-1,2.2-2.2c0-1.2-1-2.2-2.2-2.2c-1.2,0-2.2,1-2.2,2.2C28.8-29.8,29.8-28.8,31-28.8z"/>
								<path d="M16.6-28.8c1.2,0,2.2-1,2.2-2.2c0-1.2-1-2.2-2.2-2.2c-1.2,0-2.2,1-2.2,2.2C14.4-29.8,15.4-28.8,16.6-28.8z"/>
							</g>
							<g>
								<path d="M2.2-28.8c1.2,0,2.2-1,2.2-2.2c0-1.2-1-2.2-2.2-2.2C1-33.1,0-32.2,0-31C0-29.8,1-28.8,2.2-28.8z"/>
							</g>
						</g>
					</g>
				</g>
			</pattern>
			<pattern  y="1438.4" width="28.8" height="28.8" patternUnits="userSpaceOnUse" id="SVGID_21_" viewBox="2.2 -31 28.8 28.8" style="overflow:visible;">
				<g>
					<rect x="2.2" y="-31" class="st0" width="28.8" height="28.8"/>
					<g>
						<polygon class="st0" points="2.2,-31 31,-31 31,-2.2 2.2,-2.2 			"/>
						<g>
							<polygon class="st0" points="2.2,-31 31,-31 31,-2.2 2.2,-2.2 				"/>
							<g>
								<path d="M31,0c1.2,0,2.2-1,2.2-2.2s-1-2.2-2.2-2.2c-1.2,0-2.2,1-2.2,2.2S29.8,0,31,0z"/>
								<path d="M16.6,0c1.2,0,2.2-1,2.2-2.2s-1-2.2-2.2-2.2c-1.2,0-2.2,1-2.2,2.2S15.4,0,16.6,0z"/>
								<path d="M31-14.4c1.2,0,2.2-1,2.2-2.2c0-1.2-1-2.2-2.2-2.2c-1.2,0-2.2,1-2.2,2.2C28.8-15.4,29.8-14.4,31-14.4z"/>
								<path d="M16.6-14.4c1.2,0,2.2-1,2.2-2.2c0-1.2-1-2.2-2.2-2.2c-1.2,0-2.2,1-2.2,2.2C14.4-15.4,15.4-14.4,16.6-14.4z"/>
								<path d="M9.4-7.2c1.2,0,2.2-1,2.2-2.2c0-1.2-1-2.2-2.2-2.2c-1.2,0-2.2,1-2.2,2.2C7.2-8.2,8.2-7.2,9.4-7.2z"/>
								<path d="M23.8-7.2c1.2,0,2.2-1,2.2-2.2c0-1.2-1-2.2-2.2-2.2c-1.2,0-2.2,1-2.2,2.2C21.6-8.2,22.6-7.2,23.8-7.2z"/>
								<path d="M9.4-21.6c1.2,0,2.2-1,2.2-2.2c0-1.2-1-2.2-2.2-2.2c-1.2,0-2.2,1-2.2,2.2C7.2-22.6,8.2-21.6,9.4-21.6z"/>
								<path d="M23.8-21.6c1.2,0,2.2-1,2.2-2.2c0-1.2-1-2.2-2.2-2.2c-1.2,0-2.2,1-2.2,2.2C21.6-22.6,22.6-21.6,23.8-21.6z"/>
							</g>
							<g>
								<path d="M2.2,0c1.2,0,2.2-1,2.2-2.2s-1-2.2-2.2-2.2C1-4.3,0-3.4,0-2.2C0-1,1,0,2.2,0z"/>
								<path d="M2.2-14.4c1.2,0,2.2-1,2.2-2.2c0-1.2-1-2.2-2.2-2.2c-1.2,0-2.2,1-2.2,2.2C0-15.4,1-14.4,2.2-14.4z"/>
							</g>
							<g>
								<path d="M31-28.8c1.2,0,2.2-1,2.2-2.2c0-1.2-1-2.2-2.2-2.2c-1.2,0-2.2,1-2.2,2.2C28.8-29.8,29.8-28.8,31-28.8z"/>
								<path d="M16.6-28.8c1.2,0,2.2-1,2.2-2.2c0-1.2-1-2.2-2.2-2.2c-1.2,0-2.2,1-2.2,2.2C14.4-29.8,15.4-28.8,16.6-28.8z"/>
							</g>
							<g>
								<path d="M2.2-28.8c1.2,0,2.2-1,2.2-2.2c0-1.2-1-2.2-2.2-2.2C1-33.1,0-32.2,0-31C0-29.8,1-28.8,2.2-28.8z"/>
							</g>
						</g>
					</g>
				</g>
			</pattern>
			<pattern  y="1438.4" width="28.8" height="28.8" patternUnits="userSpaceOnUse" id="SVGID_22_" viewBox="2.2 -31 28.8 28.8" style="overflow:visible;">
				<g>
					<rect x="2.2" y="-31" class="st0" width="28.8" height="28.8"/>
					<g>
						<polygon class="st0" points="2.2,-31 31,-31 31,-2.2 2.2,-2.2 			"/>
						<g>
							<polygon class="st0" points="2.2,-31 31,-31 31,-2.2 2.2,-2.2 				"/>
							<g>
								<path d="M31,0c1.2,0,2.2-1,2.2-2.2s-1-2.2-2.2-2.2c-1.2,0-2.2,1-2.2,2.2S29.8,0,31,0z"/>
								<path d="M16.6,0c1.2,0,2.2-1,2.2-2.2s-1-2.2-2.2-2.2c-1.2,0-2.2,1-2.2,2.2S15.4,0,16.6,0z"/>
								<path d="M31-14.4c1.2,0,2.2-1,2.2-2.2c0-1.2-1-2.2-2.2-2.2c-1.2,0-2.2,1-2.2,2.2C28.8-15.4,29.8-14.4,31-14.4z"/>
								<path d="M16.6-14.4c1.2,0,2.2-1,2.2-2.2c0-1.2-1-2.2-2.2-2.2c-1.2,0-2.2,1-2.2,2.2C14.4-15.4,15.4-14.4,16.6-14.4z"/>
								<path d="M9.4-7.2c1.2,0,2.2-1,2.2-2.2c0-1.2-1-2.2-2.2-2.2c-1.2,0-2.2,1-2.2,2.2C7.2-8.2,8.2-7.2,9.4-7.2z"/>
								<path d="M23.8-7.2c1.2,0,2.2-1,2.2-2.2c0-1.2-1-2.2-2.2-2.2c-1.2,0-2.2,1-2.2,2.2C21.6-8.2,22.6-7.2,23.8-7.2z"/>
								<path d="M9.4-21.6c1.2,0,2.2-1,2.2-2.2c0-1.2-1-2.2-2.2-2.2c-1.2,0-2.2,1-2.2,2.2C7.2-22.6,8.2-21.6,9.4-21.6z"/>
								<path d="M23.8-21.6c1.2,0,2.2-1,2.2-2.2c0-1.2-1-2.2-2.2-2.2c-1.2,0-2.2,1-2.2,2.2C21.6-22.6,22.6-21.6,23.8-21.6z"/>
							</g>
							<g>
								<path d="M2.2,0c1.2,0,2.2-1,2.2-2.2s-1-2.2-2.2-2.2C1-4.3,0-3.4,0-2.2C0-1,1,0,2.2,0z"/>
								<path d="M2.2-14.4c1.2,0,2.2-1,2.2-2.2c0-1.2-1-2.2-2.2-2.2c-1.2,0-2.2,1-2.2,2.2C0-15.4,1-14.4,2.2-14.4z"/>
							</g>
							<g>
								<path d="M31-28.8c1.2,0,2.2-1,2.2-2.2c0-1.2-1-2.2-2.2-2.2c-1.2,0-2.2,1-2.2,2.2C28.8-29.8,29.8-28.8,31-28.8z"/>
								<path d="M16.6-28.8c1.2,0,2.2-1,2.2-2.2c0-1.2-1-2.2-2.2-2.2c-1.2,0-2.2,1-2.2,2.2C14.4-29.8,15.4-28.8,16.6-28.8z"/>
							</g>
							<g>
								<path d="M2.2-28.8c1.2,0,2.2-1,2.2-2.2c0-1.2-1-2.2-2.2-2.2C1-33.1,0-32.2,0-31C0-29.8,1-28.8,2.2-28.8z"/>
							</g>
						</g>
					</g>
				</g>
			</pattern>
			<pattern  y="1438.4" width="28.8" height="28.8" patternUnits="userSpaceOnUse" id="SVGID_23_" viewBox="2.2 -31 28.8 28.8" style="overflow:visible;">
				<g>
					<rect x="2.2" y="-31" class="st0" width="28.8" height="28.8"/>
					<g>
						<polygon class="st0" points="2.2,-31 31,-31 31,-2.2 2.2,-2.2 			"/>
						<g>
							<polygon class="st0" points="2.2,-31 31,-31 31,-2.2 2.2,-2.2 				"/>
							<g>
								<path d="M31,0c1.2,0,2.2-1,2.2-2.2s-1-2.2-2.2-2.2c-1.2,0-2.2,1-2.2,2.2S29.8,0,31,0z"/>
								<path d="M16.6,0c1.2,0,2.2-1,2.2-2.2s-1-2.2-2.2-2.2c-1.2,0-2.2,1-2.2,2.2S15.4,0,16.6,0z"/>
								<path d="M31-14.4c1.2,0,2.2-1,2.2-2.2c0-1.2-1-2.2-2.2-2.2c-1.2,0-2.2,1-2.2,2.2C28.8-15.4,29.8-14.4,31-14.4z"/>
								<path d="M16.6-14.4c1.2,0,2.2-1,2.2-2.2c0-1.2-1-2.2-2.2-2.2c-1.2,0-2.2,1-2.2,2.2C14.4-15.4,15.4-14.4,16.6-14.4z"/>
								<path d="M9.4-7.2c1.2,0,2.2-1,2.2-2.2c0-1.2-1-2.2-2.2-2.2c-1.2,0-2.2,1-2.2,2.2C7.2-8.2,8.2-7.2,9.4-7.2z"/>
								<path d="M23.8-7.2c1.2,0,2.2-1,2.2-2.2c0-1.2-1-2.2-2.2-2.2c-1.2,0-2.2,1-2.2,2.2C21.6-8.2,22.6-7.2,23.8-7.2z"/>
								<path d="M9.4-21.6c1.2,0,2.2-1,2.2-2.2c0-1.2-1-2.2-2.2-2.2c-1.2,0-2.2,1-2.2,2.2C7.2-22.6,8.2-21.6,9.4-21.6z"/>
								<path d="M23.8-21.6c1.2,0,2.2-1,2.2-2.2c0-1.2-1-2.2-2.2-2.2c-1.2,0-2.2,1-2.2,2.2C21.6-22.6,22.6-21.6,23.8-21.6z"/>
							</g>
							<g>
								<path d="M2.2,0c1.2,0,2.2-1,2.2-2.2s-1-2.2-2.2-2.2C1-4.3,0-3.4,0-2.2C0-1,1,0,2.2,0z"/>
								<path d="M2.2-14.4c1.2,0,2.2-1,2.2-2.2c0-1.2-1-2.2-2.2-2.2c-1.2,0-2.2,1-2.2,2.2C0-15.4,1-14.4,2.2-14.4z"/>
							</g>
							<g>
								<path d="M31-28.8c1.2,0,2.2-1,2.2-2.2c0-1.2-1-2.2-2.2-2.2c-1.2,0-2.2,1-2.2,2.2C28.8-29.8,29.8-28.8,31-28.8z"/>
								<path d="M16.6-28.8c1.2,0,2.2-1,2.2-2.2c0-1.2-1-2.2-2.2-2.2c-1.2,0-2.2,1-2.2,2.2C14.4-29.8,15.4-28.8,16.6-28.8z"/>
							</g>
							<g>
								<path d="M2.2-28.8c1.2,0,2.2-1,2.2-2.2c0-1.2-1-2.2-2.2-2.2C1-33.1,0-32.2,0-31C0-29.8,1-28.8,2.2-28.8z"/>
							</g>
						</g>
					</g>
				</g>
			</pattern>
			<pattern  y="1438.4" width="28.8" height="28.8" patternUnits="userSpaceOnUse" id="SVGID_24_" viewBox="2.2 -31 28.8 28.8" style="overflow:visible;">
				<g>
					<rect x="2.2" y="-31" class="st0" width="28.8" height="28.8"/>
					<g>
						<polygon class="st0" points="2.2,-31 31,-31 31,-2.2 2.2,-2.2 			"/>
						<g>
							<polygon class="st0" points="2.2,-31 31,-31 31,-2.2 2.2,-2.2 				"/>
							<g>
								<path d="M31,0c1.2,0,2.2-1,2.2-2.2s-1-2.2-2.2-2.2c-1.2,0-2.2,1-2.2,2.2S29.8,0,31,0z"/>
								<path d="M16.6,0c1.2,0,2.2-1,2.2-2.2s-1-2.2-2.2-2.2c-1.2,0-2.2,1-2.2,2.2S15.4,0,16.6,0z"/>
								<path d="M31-14.4c1.2,0,2.2-1,2.2-2.2c0-1.2-1-2.2-2.2-2.2c-1.2,0-2.2,1-2.2,2.2C28.8-15.4,29.8-14.4,31-14.4z"/>
								<path d="M16.6-14.4c1.2,0,2.2-1,2.2-2.2c0-1.2-1-2.2-2.2-2.2c-1.2,0-2.2,1-2.2,2.2C14.4-15.4,15.4-14.4,16.6-14.4z"/>
								<path d="M9.4-7.2c1.2,0,2.2-1,2.2-2.2c0-1.2-1-2.2-2.2-2.2c-1.2,0-2.2,1-2.2,2.2C7.2-8.2,8.2-7.2,9.4-7.2z"/>
								<path d="M23.8-7.2c1.2,0,2.2-1,2.2-2.2c0-1.2-1-2.2-2.2-2.2c-1.2,0-2.2,1-2.2,2.2C21.6-8.2,22.6-7.2,23.8-7.2z"/>
								<path d="M9.4-21.6c1.2,0,2.2-1,2.2-2.2c0-1.2-1-2.2-2.2-2.2c-1.2,0-2.2,1-2.2,2.2C7.2-22.6,8.2-21.6,9.4-21.6z"/>
								<path d="M23.8-21.6c1.2,0,2.2-1,2.2-2.2c0-1.2-1-2.2-2.2-2.2c-1.2,0-2.2,1-2.2,2.2C21.6-22.6,22.6-21.6,23.8-21.6z"/>
							</g>
							<g>
								<path d="M2.2,0c1.2,0,2.2-1,2.2-2.2s-1-2.2-2.2-2.2C1-4.3,0-3.4,0-2.2C0-1,1,0,2.2,0z"/>
								<path d="M2.2-14.4c1.2,0,2.2-1,2.2-2.2c0-1.2-1-2.2-2.2-2.2c-1.2,0-2.2,1-2.2,2.2C0-15.4,1-14.4,2.2-14.4z"/>
							</g>
							<g>
								<path d="M31-28.8c1.2,0,2.2-1,2.2-2.2c0-1.2-1-2.2-2.2-2.2c-1.2,0-2.2,1-2.2,2.2C28.8-29.8,29.8-28.8,31-28.8z"/>
								<path d="M16.6-28.8c1.2,0,2.2-1,2.2-2.2c0-1.2-1-2.2-2.2-2.2c-1.2,0-2.2,1-2.2,2.2C14.4-29.8,15.4-28.8,16.6-28.8z"/>
							</g>
							<g>
								<path d="M2.2-28.8c1.2,0,2.2-1,2.2-2.2c0-1.2-1-2.2-2.2-2.2C1-33.1,0-32.2,0-31C0-29.8,1-28.8,2.2-28.8z"/>
							</g>
						</g>
					</g>
				</g>
			</pattern>
			<pattern  y="1438.4" width="28.8" height="28.8" patternUnits="userSpaceOnUse" id="SVGID_25_" viewBox="2.2 -31 28.8 28.8" style="overflow:visible;">
				<g>
					<rect x="2.2" y="-31" class="st0" width="28.8" height="28.8"/>
					<g>
						<polygon class="st0" points="2.2,-31 31,-31 31,-2.2 2.2,-2.2 			"/>
						<g>
							<polygon class="st0" points="2.2,-31 31,-31 31,-2.2 2.2,-2.2 				"/>
							<g>
								<path d="M31,0c1.2,0,2.2-1,2.2-2.2s-1-2.2-2.2-2.2c-1.2,0-2.2,1-2.2,2.2S29.8,0,31,0z"/>
								<path d="M16.6,0c1.2,0,2.2-1,2.2-2.2s-1-2.2-2.2-2.2c-1.2,0-2.2,1-2.2,2.2S15.4,0,16.6,0z"/>
								<path d="M31-14.4c1.2,0,2.2-1,2.2-2.2c0-1.2-1-2.2-2.2-2.2c-1.2,0-2.2,1-2.2,2.2C28.8-15.4,29.8-14.4,31-14.4z"/>
								<path d="M16.6-14.4c1.2,0,2.2-1,2.2-2.2c0-1.2-1-2.2-2.2-2.2c-1.2,0-2.2,1-2.2,2.2C14.4-15.4,15.4-14.4,16.6-14.4z"/>
								<path d="M9.4-7.2c1.2,0,2.2-1,2.2-2.2c0-1.2-1-2.2-2.2-2.2c-1.2,0-2.2,1-2.2,2.2C7.2-8.2,8.2-7.2,9.4-7.2z"/>
								<path d="M23.8-7.2c1.2,0,2.2-1,2.2-2.2c0-1.2-1-2.2-2.2-2.2c-1.2,0-2.2,1-2.2,2.2C21.6-8.2,22.6-7.2,23.8-7.2z"/>
								<path d="M9.4-21.6c1.2,0,2.2-1,2.2-2.2c0-1.2-1-2.2-2.2-2.2c-1.2,0-2.2,1-2.2,2.2C7.2-22.6,8.2-21.6,9.4-21.6z"/>
								<path d="M23.8-21.6c1.2,0,2.2-1,2.2-2.2c0-1.2-1-2.2-2.2-2.2c-1.2,0-2.2,1-2.2,2.2C21.6-22.6,22.6-21.6,23.8-21.6z"/>
							</g>
							<g>
								<path d="M2.2,0c1.2,0,2.2-1,2.2-2.2s-1-2.2-2.2-2.2C1-4.3,0-3.4,0-2.2C0-1,1,0,2.2,0z"/>
								<path d="M2.2-14.4c1.2,0,2.2-1,2.2-2.2c0-1.2-1-2.2-2.2-2.2c-1.2,0-2.2,1-2.2,2.2C0-15.4,1-14.4,2.2-14.4z"/>
							</g>
							<g>
								<path d="M31-28.8c1.2,0,2.2-1,2.2-2.2c0-1.2-1-2.2-2.2-2.2c-1.2,0-2.2,1-2.2,2.2C28.8-29.8,29.8-28.8,31-28.8z"/>
								<path d="M16.6-28.8c1.2,0,2.2-1,2.2-2.2c0-1.2-1-2.2-2.2-2.2c-1.2,0-2.2,1-2.2,2.2C14.4-29.8,15.4-28.8,16.6-28.8z"/>
							</g>
							<g>
								<path d="M2.2-28.8c1.2,0,2.2-1,2.2-2.2c0-1.2-1-2.2-2.2-2.2C1-33.1,0-32.2,0-31C0-29.8,1-28.8,2.2-28.8z"/>
							</g>
						</g>
					</g>
				</g>
			</pattern>
			<pattern  y="1438.4" width="28.8" height="28.8" patternUnits="userSpaceOnUse" id="SVGID_26_" viewBox="2.2 -31 28.8 28.8" style="overflow:visible;">
				<g>
					<rect x="2.2" y="-31" class="st0" width="28.8" height="28.8"/>
					<g>
						<polygon class="st0" points="2.2,-31 31,-31 31,-2.2 2.2,-2.2 			"/>
						<g>
							<polygon class="st0" points="2.2,-31 31,-31 31,-2.2 2.2,-2.2 				"/>
							<g>
								<path d="M31,0c1.2,0,2.2-1,2.2-2.2s-1-2.2-2.2-2.2c-1.2,0-2.2,1-2.2,2.2S29.8,0,31,0z"/>
								<path d="M16.6,0c1.2,0,2.2-1,2.2-2.2s-1-2.2-2.2-2.2c-1.2,0-2.2,1-2.2,2.2S15.4,0,16.6,0z"/>
								<path d="M31-14.4c1.2,0,2.2-1,2.2-2.2c0-1.2-1-2.2-2.2-2.2c-1.2,0-2.2,1-2.2,2.2C28.8-15.4,29.8-14.4,31-14.4z"/>
								<path d="M16.6-14.4c1.2,0,2.2-1,2.2-2.2c0-1.2-1-2.2-2.2-2.2c-1.2,0-2.2,1-2.2,2.2C14.4-15.4,15.4-14.4,16.6-14.4z"/>
								<path d="M9.4-7.2c1.2,0,2.2-1,2.2-2.2c0-1.2-1-2.2-2.2-2.2c-1.2,0-2.2,1-2.2,2.2C7.2-8.2,8.2-7.2,9.4-7.2z"/>
								<path d="M23.8-7.2c1.2,0,2.2-1,2.2-2.2c0-1.2-1-2.2-2.2-2.2c-1.2,0-2.2,1-2.2,2.2C21.6-8.2,22.6-7.2,23.8-7.2z"/>
								<path d="M9.4-21.6c1.2,0,2.2-1,2.2-2.2c0-1.2-1-2.2-2.2-2.2c-1.2,0-2.2,1-2.2,2.2C7.2-22.6,8.2-21.6,9.4-21.6z"/>
								<path d="M23.8-21.6c1.2,0,2.2-1,2.2-2.2c0-1.2-1-2.2-2.2-2.2c-1.2,0-2.2,1-2.2,2.2C21.6-22.6,22.6-21.6,23.8-21.6z"/>
							</g>
							<g>
								<path d="M2.2,0c1.2,0,2.2-1,2.2-2.2s-1-2.2-2.2-2.2C1-4.3,0-3.4,0-2.2C0-1,1,0,2.2,0z"/>
								<path d="M2.2-14.4c1.2,0,2.2-1,2.2-2.2c0-1.2-1-2.2-2.2-2.2c-1.2,0-2.2,1-2.2,2.2C0-15.4,1-14.4,2.2-14.4z"/>
							</g>
							<g>
								<path d="M31-28.8c1.2,0,2.2-1,2.2-2.2c0-1.2-1-2.2-2.2-2.2c-1.2,0-2.2,1-2.2,2.2C28.8-29.8,29.8-28.8,31-28.8z"/>
								<path d="M16.6-28.8c1.2,0,2.2-1,2.2-2.2c0-1.2-1-2.2-2.2-2.2c-1.2,0-2.2,1-2.2,2.2C14.4-29.8,15.4-28.8,16.6-28.8z"/>
							</g>
							<g>
								<path d="M2.2-28.8c1.2,0,2.2-1,2.2-2.2c0-1.2-1-2.2-2.2-2.2C1-33.1,0-32.2,0-31C0-29.8,1-28.8,2.2-28.8z"/>
							</g>
						</g>
					</g>
				</g>
			</pattern>
			<pattern  y="1438.4" width="28.8" height="28.8" patternUnits="userSpaceOnUse" id="SVGID_27_" viewBox="2.2 -31 28.8 28.8" style="overflow:visible;">
				<g>
					<rect x="2.2" y="-31" class="st0" width="28.8" height="28.8"/>
					<g>
						<polygon class="st0" points="2.2,-31 31,-31 31,-2.2 2.2,-2.2 			"/>
						<g>
							<polygon class="st0" points="2.2,-31 31,-31 31,-2.2 2.2,-2.2 				"/>
							<g>
								<path d="M31,0c1.2,0,2.2-1,2.2-2.2s-1-2.2-2.2-2.2c-1.2,0-2.2,1-2.2,2.2S29.8,0,31,0z"/>
								<path d="M16.6,0c1.2,0,2.2-1,2.2-2.2s-1-2.2-2.2-2.2c-1.2,0-2.2,1-2.2,2.2S15.4,0,16.6,0z"/>
								<path d="M31-14.4c1.2,0,2.2-1,2.2-2.2c0-1.2-1-2.2-2.2-2.2c-1.2,0-2.2,1-2.2,2.2C28.8-15.4,29.8-14.4,31-14.4z"/>
								<path d="M16.6-14.4c1.2,0,2.2-1,2.2-2.2c0-1.2-1-2.2-2.2-2.2c-1.2,0-2.2,1-2.2,2.2C14.4-15.4,15.4-14.4,16.6-14.4z"/>
								<path d="M9.4-7.2c1.2,0,2.2-1,2.2-2.2c0-1.2-1-2.2-2.2-2.2c-1.2,0-2.2,1-2.2,2.2C7.2-8.2,8.2-7.2,9.4-7.2z"/>
								<path d="M23.8-7.2c1.2,0,2.2-1,2.2-2.2c0-1.2-1-2.2-2.2-2.2c-1.2,0-2.2,1-2.2,2.2C21.6-8.2,22.6-7.2,23.8-7.2z"/>
								<path d="M9.4-21.6c1.2,0,2.2-1,2.2-2.2c0-1.2-1-2.2-2.2-2.2c-1.2,0-2.2,1-2.2,2.2C7.2-22.6,8.2-21.6,9.4-21.6z"/>
								<path d="M23.8-21.6c1.2,0,2.2-1,2.2-2.2c0-1.2-1-2.2-2.2-2.2c-1.2,0-2.2,1-2.2,2.2C21.6-22.6,22.6-21.6,23.8-21.6z"/>
							</g>
							<g>
								<path d="M2.2,0c1.2,0,2.2-1,2.2-2.2s-1-2.2-2.2-2.2C1-4.3,0-3.4,0-2.2C0-1,1,0,2.2,0z"/>
								<path d="M2.2-14.4c1.2,0,2.2-1,2.2-2.2c0-1.2-1-2.2-2.2-2.2c-1.2,0-2.2,1-2.2,2.2C0-15.4,1-14.4,2.2-14.4z"/>
							</g>
							<g>
								<path d="M31-28.8c1.2,0,2.2-1,2.2-2.2c0-1.2-1-2.2-2.2-2.2c-1.2,0-2.2,1-2.2,2.2C28.8-29.8,29.8-28.8,31-28.8z"/>
								<path d="M16.6-28.8c1.2,0,2.2-1,2.2-2.2c0-1.2-1-2.2-2.2-2.2c-1.2,0-2.2,1-2.2,2.2C14.4-29.8,15.4-28.8,16.6-28.8z"/>
							</g>
							<g>
								<path d="M2.2-28.8c1.2,0,2.2-1,2.2-2.2c0-1.2-1-2.2-2.2-2.2C1-33.1,0-32.2,0-31C0-29.8,1-28.8,2.2-28.8z"/>
							</g>
						</g>
					</g>
				</g>
			</pattern>
			<pattern  y="1438.4" width="28.8" height="28.8" patternUnits="userSpaceOnUse" id="SVGID_28_" viewBox="2.2 -31 28.8 28.8" style="overflow:visible;">
				<g>
					<rect x="2.2" y="-31" class="st0" width="28.8" height="28.8"/>
					<g>
						<polygon class="st0" points="2.2,-31 31,-31 31,-2.2 2.2,-2.2 			"/>
						<g>
							<polygon class="st0" points="2.2,-31 31,-31 31,-2.2 2.2,-2.2 				"/>
							<g>
								<path d="M31,0c1.2,0,2.2-1,2.2-2.2s-1-2.2-2.2-2.2c-1.2,0-2.2,1-2.2,2.2S29.8,0,31,0z"/>
								<path d="M16.6,0c1.2,0,2.2-1,2.2-2.2s-1-2.2-2.2-2.2c-1.2,0-2.2,1-2.2,2.2S15.4,0,16.6,0z"/>
								<path d="M31-14.4c1.2,0,2.2-1,2.2-2.2c0-1.2-1-2.2-2.2-2.2c-1.2,0-2.2,1-2.2,2.2C28.8-15.4,29.8-14.4,31-14.4z"/>
								<path d="M16.6-14.4c1.2,0,2.2-1,2.2-2.2c0-1.2-1-2.2-2.2-2.2c-1.2,0-2.2,1-2.2,2.2C14.4-15.4,15.4-14.4,16.6-14.4z"/>
								<path d="M9.4-7.2c1.2,0,2.2-1,2.2-2.2c0-1.2-1-2.2-2.2-2.2c-1.2,0-2.2,1-2.2,2.2C7.2-8.2,8.2-7.2,9.4-7.2z"/>
								<path d="M23.8-7.2c1.2,0,2.2-1,2.2-2.2c0-1.2-1-2.2-2.2-2.2c-1.2,0-2.2,1-2.2,2.2C21.6-8.2,22.6-7.2,23.8-7.2z"/>
								<path d="M9.4-21.6c1.2,0,2.2-1,2.2-2.2c0-1.2-1-2.2-2.2-2.2c-1.2,0-2.2,1-2.2,2.2C7.2-22.6,8.2-21.6,9.4-21.6z"/>
								<path d="M23.8-21.6c1.2,0,2.2-1,2.2-2.2c0-1.2-1-2.2-2.2-2.2c-1.2,0-2.2,1-2.2,2.2C21.6-22.6,22.6-21.6,23.8-21.6z"/>
							</g>
							<g>
								<path d="M2.2,0c1.2,0,2.2-1,2.2-2.2s-1-2.2-2.2-2.2C1-4.3,0-3.4,0-2.2C0-1,1,0,2.2,0z"/>
								<path d="M2.2-14.4c1.2,0,2.2-1,2.2-2.2c0-1.2-1-2.2-2.2-2.2c-1.2,0-2.2,1-2.2,2.2C0-15.4,1-14.4,2.2-14.4z"/>
							</g>
							<g>
								<path d="M31-28.8c1.2,0,2.2-1,2.2-2.2c0-1.2-1-2.2-2.2-2.2c-1.2,0-2.2,1-2.2,2.2C28.8-29.8,29.8-28.8,31-28.8z"/>
								<path d="M16.6-28.8c1.2,0,2.2-1,2.2-2.2c0-1.2-1-2.2-2.2-2.2c-1.2,0-2.2,1-2.2,2.2C14.4-29.8,15.4-28.8,16.6-28.8z"/>
							</g>
							<g>
								<path d="M2.2-28.8c1.2,0,2.2-1,2.2-2.2c0-1.2-1-2.2-2.2-2.2C1-33.1,0-32.2,0-31C0-29.8,1-28.8,2.2-28.8z"/>
							</g>
						</g>
					</g>
				</g>
			</pattern>
			<pattern  y="1438.4" width="28.8" height="28.8" patternUnits="userSpaceOnUse" id="SVGID_29_" viewBox="2.2 -31 28.8 28.8" style="overflow:visible;">
				<g>
					<rect x="2.2" y="-31" class="st0" width="28.8" height="28.8"/>
					<g>
						<polygon class="st0" points="2.2,-31 31,-31 31,-2.2 2.2,-2.2 			"/>
						<g>
							<polygon class="st0" points="2.2,-31 31,-31 31,-2.2 2.2,-2.2 				"/>
							<g>
								<path d="M31,0c1.2,0,2.2-1,2.2-2.2s-1-2.2-2.2-2.2c-1.2,0-2.2,1-2.2,2.2S29.8,0,31,0z"/>
								<path d="M16.6,0c1.2,0,2.2-1,2.2-2.2s-1-2.2-2.2-2.2c-1.2,0-2.2,1-2.2,2.2S15.4,0,16.6,0z"/>
								<path d="M31-14.4c1.2,0,2.2-1,2.2-2.2c0-1.2-1-2.2-2.2-2.2c-1.2,0-2.2,1-2.2,2.2C28.8-15.4,29.8-14.4,31-14.4z"/>
								<path d="M16.6-14.4c1.2,0,2.2-1,2.2-2.2c0-1.2-1-2.2-2.2-2.2c-1.2,0-2.2,1-2.2,2.2C14.4-15.4,15.4-14.4,16.6-14.4z"/>
								<path d="M9.4-7.2c1.2,0,2.2-1,2.2-2.2c0-1.2-1-2.2-2.2-2.2c-1.2,0-2.2,1-2.2,2.2C7.2-8.2,8.2-7.2,9.4-7.2z"/>
								<path d="M23.8-7.2c1.2,0,2.2-1,2.2-2.2c0-1.2-1-2.2-2.2-2.2c-1.2,0-2.2,1-2.2,2.2C21.6-8.2,22.6-7.2,23.8-7.2z"/>
								<path d="M9.4-21.6c1.2,0,2.2-1,2.2-2.2c0-1.2-1-2.2-2.2-2.2c-1.2,0-2.2,1-2.2,2.2C7.2-22.6,8.2-21.6,9.4-21.6z"/>
								<path d="M23.8-21.6c1.2,0,2.2-1,2.2-2.2c0-1.2-1-2.2-2.2-2.2c-1.2,0-2.2,1-2.2,2.2C21.6-22.6,22.6-21.6,23.8-21.6z"/>
							</g>
							<g>
								<path d="M2.2,0c1.2,0,2.2-1,2.2-2.2s-1-2.2-2.2-2.2C1-4.3,0-3.4,0-2.2C0-1,1,0,2.2,0z"/>
								<path d="M2.2-14.4c1.2,0,2.2-1,2.2-2.2c0-1.2-1-2.2-2.2-2.2c-1.2,0-2.2,1-2.2,2.2C0-15.4,1-14.4,2.2-14.4z"/>
							</g>
							<g>
								<path d="M31-28.8c1.2,0,2.2-1,2.2-2.2c0-1.2-1-2.2-2.2-2.2c-1.2,0-2.2,1-2.2,2.2C28.8-29.8,29.8-28.8,31-28.8z"/>
								<path d="M16.6-28.8c1.2,0,2.2-1,2.2-2.2c0-1.2-1-2.2-2.2-2.2c-1.2,0-2.2,1-2.2,2.2C14.4-29.8,15.4-28.8,16.6-28.8z"/>
							</g>
							<g>
								<path d="M2.2-28.8c1.2,0,2.2-1,2.2-2.2c0-1.2-1-2.2-2.2-2.2C1-33.1,0-32.2,0-31C0-29.8,1-28.8,2.2-28.8z"/>
							</g>
						</g>
					</g>
				</g>
			</pattern>
			<pattern  y="1438.4" width="57.6" height="57.6" patternUnits="userSpaceOnUse" id="SVGID_30_" viewBox="0 -57.6 57.6 57.6" style="overflow:visible;">
				<g>
					<rect y="-57.6" class="st0" width="57.6" height="57.6"/>
					<g>
						<polygon class="st0" points="0,-57.6 57.6,-57.6 57.6,0 0,0 			"/>
						<g>
							<polygon class="st0" points="0,-57.6 57.6,-57.6 57.6,0 0,0 				"/>
							<line class="st1" x1="52.5" y1="-54" x2="55.5" y2="-54"/>
							<line class="st1" x1="38.1" y1="-54" x2="41.1" y2="-54"/>
							<line class="st1" x1="23.7" y1="-54" x2="26.7" y2="-54"/>
							<line class="st1" x1="9.3" y1="-54" x2="12.3" y2="-54"/>
							<line class="st1" x1="45.3" y1="-46.8" x2="48.3" y2="-46.8"/>
							<line class="st1" x1="30.9" y1="-46.8" x2="33.9" y2="-46.8"/>
							<line class="st1" x1="16.5" y1="-46.8" x2="19.5" y2="-46.8"/>
							<line class="st1" x1="2.1" y1="-46.8" x2="5.1" y2="-46.8"/>
							<line class="st1" x1="52.5" y1="-39.6" x2="55.5" y2="-39.6"/>
							<line class="st1" x1="38.1" y1="-39.6" x2="41.1" y2="-39.6"/>
							<line class="st1" x1="23.7" y1="-39.6" x2="26.7" y2="-39.6"/>
							<line class="st1" x1="9.3" y1="-39.6" x2="12.3" y2="-39.6"/>
							<line class="st1" x1="45.3" y1="-32.4" x2="48.3" y2="-32.4"/>
							<line class="st1" x1="30.9" y1="-32.4" x2="33.9" y2="-32.4"/>
							<line class="st1" x1="16.5" y1="-32.4" x2="19.5" y2="-32.4"/>
							<line class="st1" x1="2.1" y1="-32.4" x2="5.1" y2="-32.4"/>
							<line class="st1" x1="52.5" y1="-25.2" x2="55.5" y2="-25.2"/>
							<line class="st1" x1="38.1" y1="-25.2" x2="41.1" y2="-25.2"/>
							<line class="st1" x1="23.7" y1="-25.2" x2="26.7" y2="-25.2"/>
							<line class="st1" x1="9.3" y1="-25.2" x2="12.3" y2="-25.2"/>
							<line class="st1" x1="45.3" y1="-18" x2="48.3" y2="-18"/>
							<line class="st1" x1="30.9" y1="-18" x2="33.9" y2="-18"/>
							<line class="st1" x1="16.5" y1="-18" x2="19.5" y2="-18"/>
							<line class="st1" x1="2.1" y1="-18" x2="5.1" y2="-18"/>
							<line class="st1" x1="52.5" y1="-10.8" x2="55.5" y2="-10.8"/>
							<line class="st1" x1="38.1" y1="-10.8" x2="41.1" y2="-10.8"/>
							<line class="st1" x1="23.7" y1="-10.8" x2="26.7" y2="-10.8"/>
							<line class="st1" x1="9.3" y1="-10.8" x2="12.3" y2="-10.8"/>
							<line class="st1" x1="45.3" y1="-3.6" x2="48.3" y2="-3.6"/>
							<line class="st1" x1="30.9" y1="-3.6" x2="33.9" y2="-3.6"/>
							<line class="st1" x1="16.5" y1="-3.6" x2="19.5" y2="-3.6"/>
							<line class="st1" x1="2.1" y1="-3.6" x2="5.1" y2="-3.6"/>
							<line class="st1" x1="54" y1="-55.5" x2="54" y2="-52.5"/>
							<line class="st1" x1="39.6" y1="-55.5" x2="39.6" y2="-52.5"/>
							<line class="st1" x1="25.2" y1="-55.5" x2="25.2" y2="-52.5"/>
							<line class="st1" x1="10.8" y1="-55.5" x2="10.8" y2="-52.5"/>
							<line class="st1" x1="46.8" y1="-48.3" x2="46.8" y2="-45.3"/>
							<line class="st1" x1="32.4" y1="-48.3" x2="32.4" y2="-45.3"/>
							<line class="st1" x1="18" y1="-48.3" x2="18" y2="-45.3"/>
							<line class="st1" x1="3.6" y1="-48.3" x2="3.6" y2="-45.3"/>
							<line class="st1" x1="54" y1="-41.1" x2="54" y2="-38.1"/>
							<line class="st1" x1="39.6" y1="-41.1" x2="39.6" y2="-38.1"/>
							<line class="st1" x1="25.2" y1="-41.1" x2="25.2" y2="-38.1"/>
							<line class="st1" x1="10.8" y1="-41.1" x2="10.8" y2="-38.1"/>
							<line class="st1" x1="46.8" y1="-33.9" x2="46.8" y2="-30.9"/>
							<line class="st1" x1="32.4" y1="-33.9" x2="32.4" y2="-30.9"/>
							<line class="st1" x1="18" y1="-33.9" x2="18" y2="-30.9"/>
							<line class="st1" x1="3.6" y1="-33.9" x2="3.6" y2="-30.9"/>
							<line class="st1" x1="54" y1="-26.7" x2="54" y2="-23.7"/>
							<line class="st1" x1="39.6" y1="-26.7" x2="39.6" y2="-23.7"/>
							<line class="st1" x1="25.2" y1="-26.7" x2="25.2" y2="-23.7"/>
							<line class="st1" x1="10.8" y1="-26.7" x2="10.8" y2="-23.7"/>
							<line class="st1" x1="46.8" y1="-19.5" x2="46.8" y2="-16.5"/>
							<line class="st1" x1="32.4" y1="-19.5" x2="32.4" y2="-16.5"/>
							<line class="st1" x1="18" y1="-19.5" x2="18" y2="-16.5"/>
							<line class="st1" x1="3.6" y1="-19.5" x2="3.6" y2="-16.5"/>
							<line class="st1" x1="54" y1="-12.3" x2="54" y2="-9.3"/>
							<line class="st1" x1="39.6" y1="-12.3" x2="39.6" y2="-9.3"/>
							<line class="st1" x1="25.2" y1="-12.3" x2="25.2" y2="-9.3"/>
							<line class="st1" x1="10.8" y1="-12.3" x2="10.8" y2="-9.3"/>
							<line class="st1" x1="46.8" y1="-5.1" x2="46.8" y2="-2.1"/>
							<line class="st1" x1="32.4" y1="-5.1" x2="32.4" y2="-2.1"/>
							<line class="st1" x1="18" y1="-5.1" x2="18" y2="-2.1"/>
							<line class="st1" x1="3.6" y1="-5.1" x2="3.6" y2="-2.1"/>
						</g>
					</g>
				</g>
			</pattern>
			<pattern  y="1438.4" width="57.6" height="57.6" patternUnits="userSpaceOnUse" id="SVGID_31_" viewBox="0 -57.6 57.6 57.6" style="overflow:visible;">
				<g>
					<rect y="-57.6" class="st0" width="57.6" height="57.6"/>
					<g>
						<polygon class="st0" points="0,-57.6 57.6,-57.6 57.6,0 0,0 			"/>
						<g>
							<polygon class="st0" points="0,-57.6 57.6,-57.6 57.6,0 0,0 				"/>
							<line class="st1" x1="52.5" y1="-54" x2="55.5" y2="-54"/>
							<line class="st1" x1="38.1" y1="-54" x2="41.1" y2="-54"/>
							<line class="st1" x1="23.7" y1="-54" x2="26.7" y2="-54"/>
							<line class="st1" x1="9.3" y1="-54" x2="12.3" y2="-54"/>
							<line class="st1" x1="45.3" y1="-46.8" x2="48.3" y2="-46.8"/>
							<line class="st1" x1="30.9" y1="-46.8" x2="33.9" y2="-46.8"/>
							<line class="st1" x1="16.5" y1="-46.8" x2="19.5" y2="-46.8"/>
							<line class="st1" x1="2.1" y1="-46.8" x2="5.1" y2="-46.8"/>
							<line class="st1" x1="52.5" y1="-39.6" x2="55.5" y2="-39.6"/>
							<line class="st1" x1="38.1" y1="-39.6" x2="41.1" y2="-39.6"/>
							<line class="st1" x1="23.7" y1="-39.6" x2="26.7" y2="-39.6"/>
							<line class="st1" x1="9.3" y1="-39.6" x2="12.3" y2="-39.6"/>
							<line class="st1" x1="45.3" y1="-32.4" x2="48.3" y2="-32.4"/>
							<line class="st1" x1="30.9" y1="-32.4" x2="33.9" y2="-32.4"/>
							<line class="st1" x1="16.5" y1="-32.4" x2="19.5" y2="-32.4"/>
							<line class="st1" x1="2.1" y1="-32.4" x2="5.1" y2="-32.4"/>
							<line class="st1" x1="52.5" y1="-25.2" x2="55.5" y2="-25.2"/>
							<line class="st1" x1="38.1" y1="-25.2" x2="41.1" y2="-25.2"/>
							<line class="st1" x1="23.7" y1="-25.2" x2="26.7" y2="-25.2"/>
							<line class="st1" x1="9.3" y1="-25.2" x2="12.3" y2="-25.2"/>
							<line class="st1" x1="45.3" y1="-18" x2="48.3" y2="-18"/>
							<line class="st1" x1="30.9" y1="-18" x2="33.9" y2="-18"/>
							<line class="st1" x1="16.5" y1="-18" x2="19.5" y2="-18"/>
							<line class="st1" x1="2.1" y1="-18" x2="5.1" y2="-18"/>
							<line class="st1" x1="52.5" y1="-10.8" x2="55.5" y2="-10.8"/>
							<line class="st1" x1="38.1" y1="-10.8" x2="41.1" y2="-10.8"/>
							<line class="st1" x1="23.7" y1="-10.8" x2="26.7" y2="-10.8"/>
							<line class="st1" x1="9.3" y1="-10.8" x2="12.3" y2="-10.8"/>
							<line class="st1" x1="45.3" y1="-3.6" x2="48.3" y2="-3.6"/>
							<line class="st1" x1="30.9" y1="-3.6" x2="33.9" y2="-3.6"/>
							<line class="st1" x1="16.5" y1="-3.6" x2="19.5" y2="-3.6"/>
							<line class="st1" x1="2.1" y1="-3.6" x2="5.1" y2="-3.6"/>
							<line class="st1" x1="54" y1="-55.5" x2="54" y2="-52.5"/>
							<line class="st1" x1="39.6" y1="-55.5" x2="39.6" y2="-52.5"/>
							<line class="st1" x1="25.2" y1="-55.5" x2="25.2" y2="-52.5"/>
							<line class="st1" x1="10.8" y1="-55.5" x2="10.8" y2="-52.5"/>
							<line class="st1" x1="46.8" y1="-48.3" x2="46.8" y2="-45.3"/>
							<line class="st1" x1="32.4" y1="-48.3" x2="32.4" y2="-45.3"/>
							<line class="st1" x1="18" y1="-48.3" x2="18" y2="-45.3"/>
							<line class="st1" x1="3.6" y1="-48.3" x2="3.6" y2="-45.3"/>
							<line class="st1" x1="54" y1="-41.1" x2="54" y2="-38.1"/>
							<line class="st1" x1="39.6" y1="-41.1" x2="39.6" y2="-38.1"/>
							<line class="st1" x1="25.2" y1="-41.1" x2="25.2" y2="-38.1"/>
							<line class="st1" x1="10.8" y1="-41.1" x2="10.8" y2="-38.1"/>
							<line class="st1" x1="46.8" y1="-33.9" x2="46.8" y2="-30.9"/>
							<line class="st1" x1="32.4" y1="-33.9" x2="32.4" y2="-30.9"/>
							<line class="st1" x1="18" y1="-33.9" x2="18" y2="-30.9"/>
							<line class="st1" x1="3.6" y1="-33.9" x2="3.6" y2="-30.9"/>
							<line class="st1" x1="54" y1="-26.7" x2="54" y2="-23.7"/>
							<line class="st1" x1="39.6" y1="-26.7" x2="39.6" y2="-23.7"/>
							<line class="st1" x1="25.2" y1="-26.7" x2="25.2" y2="-23.7"/>
							<line class="st1" x1="10.8" y1="-26.7" x2="10.8" y2="-23.7"/>
							<line class="st1" x1="46.8" y1="-19.5" x2="46.8" y2="-16.5"/>
							<line class="st1" x1="32.4" y1="-19.5" x2="32.4" y2="-16.5"/>
							<line class="st1" x1="18" y1="-19.5" x2="18" y2="-16.5"/>
							<line class="st1" x1="3.6" y1="-19.5" x2="3.6" y2="-16.5"/>
							<line class="st1" x1="54" y1="-12.3" x2="54" y2="-9.3"/>
							<line class="st1" x1="39.6" y1="-12.3" x2="39.6" y2="-9.3"/>
							<line class="st1" x1="25.2" y1="-12.3" x2="25.2" y2="-9.3"/>
							<line class="st1" x1="10.8" y1="-12.3" x2="10.8" y2="-9.3"/>
							<line class="st1" x1="46.8" y1="-5.1" x2="46.8" y2="-2.1"/>
							<line class="st1" x1="32.4" y1="-5.1" x2="32.4" y2="-2.1"/>
							<line class="st1" x1="18" y1="-5.1" x2="18" y2="-2.1"/>
							<line class="st1" x1="3.6" y1="-5.1" x2="3.6" y2="-2.1"/>
						</g>
					</g>
				</g>
			</pattern>
			<pattern  y="1438.4" width="57.6" height="57.6" patternUnits="userSpaceOnUse" id="SVGID_32_" viewBox="0 -57.6 57.6 57.6" style="overflow:visible;">
				<g>
					<rect y="-57.6" class="st0" width="57.6" height="57.6"/>
					<g>
						<polygon class="st0" points="0,-57.6 57.6,-57.6 57.6,0 0,0 			"/>
						<g>
							<polygon class="st0" points="0,-57.6 57.6,-57.6 57.6,0 0,0 				"/>
							<line class="st1" x1="52.5" y1="-54" x2="55.5" y2="-54"/>
							<line class="st1" x1="38.1" y1="-54" x2="41.1" y2="-54"/>
							<line class="st1" x1="23.7" y1="-54" x2="26.7" y2="-54"/>
							<line class="st1" x1="9.3" y1="-54" x2="12.3" y2="-54"/>
							<line class="st1" x1="45.3" y1="-46.8" x2="48.3" y2="-46.8"/>
							<line class="st1" x1="30.9" y1="-46.8" x2="33.9" y2="-46.8"/>
							<line class="st1" x1="16.5" y1="-46.8" x2="19.5" y2="-46.8"/>
							<line class="st1" x1="2.1" y1="-46.8" x2="5.1" y2="-46.8"/>
							<line class="st1" x1="52.5" y1="-39.6" x2="55.5" y2="-39.6"/>
							<line class="st1" x1="38.1" y1="-39.6" x2="41.1" y2="-39.6"/>
							<line class="st1" x1="23.7" y1="-39.6" x2="26.7" y2="-39.6"/>
							<line class="st1" x1="9.3" y1="-39.6" x2="12.3" y2="-39.6"/>
							<line class="st1" x1="45.3" y1="-32.4" x2="48.3" y2="-32.4"/>
							<line class="st1" x1="30.9" y1="-32.4" x2="33.9" y2="-32.4"/>
							<line class="st1" x1="16.5" y1="-32.4" x2="19.5" y2="-32.4"/>
							<line class="st1" x1="2.1" y1="-32.4" x2="5.1" y2="-32.4"/>
							<line class="st1" x1="52.5" y1="-25.2" x2="55.5" y2="-25.2"/>
							<line class="st1" x1="38.1" y1="-25.2" x2="41.1" y2="-25.2"/>
							<line class="st1" x1="23.7" y1="-25.2" x2="26.7" y2="-25.2"/>
							<line class="st1" x1="9.3" y1="-25.2" x2="12.3" y2="-25.2"/>
							<line class="st1" x1="45.3" y1="-18" x2="48.3" y2="-18"/>
							<line class="st1" x1="30.9" y1="-18" x2="33.9" y2="-18"/>
							<line class="st1" x1="16.5" y1="-18" x2="19.5" y2="-18"/>
							<line class="st1" x1="2.1" y1="-18" x2="5.1" y2="-18"/>
							<line class="st1" x1="52.5" y1="-10.8" x2="55.5" y2="-10.8"/>
							<line class="st1" x1="38.1" y1="-10.8" x2="41.1" y2="-10.8"/>
							<line class="st1" x1="23.7" y1="-10.8" x2="26.7" y2="-10.8"/>
							<line class="st1" x1="9.3" y1="-10.8" x2="12.3" y2="-10.8"/>
							<line class="st1" x1="45.3" y1="-3.6" x2="48.3" y2="-3.6"/>
							<line class="st1" x1="30.9" y1="-3.6" x2="33.9" y2="-3.6"/>
							<line class="st1" x1="16.5" y1="-3.6" x2="19.5" y2="-3.6"/>
							<line class="st1" x1="2.1" y1="-3.6" x2="5.1" y2="-3.6"/>
							<line class="st1" x1="54" y1="-55.5" x2="54" y2="-52.5"/>
							<line class="st1" x1="39.6" y1="-55.5" x2="39.6" y2="-52.5"/>
							<line class="st1" x1="25.2" y1="-55.5" x2="25.2" y2="-52.5"/>
							<line class="st1" x1="10.8" y1="-55.5" x2="10.8" y2="-52.5"/>
							<line class="st1" x1="46.8" y1="-48.3" x2="46.8" y2="-45.3"/>
							<line class="st1" x1="32.4" y1="-48.3" x2="32.4" y2="-45.3"/>
							<line class="st1" x1="18" y1="-48.3" x2="18" y2="-45.3"/>
							<line class="st1" x1="3.6" y1="-48.3" x2="3.6" y2="-45.3"/>
							<line class="st1" x1="54" y1="-41.1" x2="54" y2="-38.1"/>
							<line class="st1" x1="39.6" y1="-41.1" x2="39.6" y2="-38.1"/>
							<line class="st1" x1="25.2" y1="-41.1" x2="25.2" y2="-38.1"/>
							<line class="st1" x1="10.8" y1="-41.1" x2="10.8" y2="-38.1"/>
							<line class="st1" x1="46.8" y1="-33.9" x2="46.8" y2="-30.9"/>
							<line class="st1" x1="32.4" y1="-33.9" x2="32.4" y2="-30.9"/>
							<line class="st1" x1="18" y1="-33.9" x2="18" y2="-30.9"/>
							<line class="st1" x1="3.6" y1="-33.9" x2="3.6" y2="-30.9"/>
							<line class="st1" x1="54" y1="-26.7" x2="54" y2="-23.7"/>
							<line class="st1" x1="39.6" y1="-26.7" x2="39.6" y2="-23.7"/>
							<line class="st1" x1="25.2" y1="-26.7" x2="25.2" y2="-23.7"/>
							<line class="st1" x1="10.8" y1="-26.7" x2="10.8" y2="-23.7"/>
							<line class="st1" x1="46.8" y1="-19.5" x2="46.8" y2="-16.5"/>
							<line class="st1" x1="32.4" y1="-19.5" x2="32.4" y2="-16.5"/>
							<line class="st1" x1="18" y1="-19.5" x2="18" y2="-16.5"/>
							<line class="st1" x1="3.6" y1="-19.5" x2="3.6" y2="-16.5"/>
							<line class="st1" x1="54" y1="-12.3" x2="54" y2="-9.3"/>
							<line class="st1" x1="39.6" y1="-12.3" x2="39.6" y2="-9.3"/>
							<line class="st1" x1="25.2" y1="-12.3" x2="25.2" y2="-9.3"/>
							<line class="st1" x1="10.8" y1="-12.3" x2="10.8" y2="-9.3"/>
							<line class="st1" x1="46.8" y1="-5.1" x2="46.8" y2="-2.1"/>
							<line class="st1" x1="32.4" y1="-5.1" x2="32.4" y2="-2.1"/>
							<line class="st1" x1="18" y1="-5.1" x2="18" y2="-2.1"/>
							<line class="st1" x1="3.6" y1="-5.1" x2="3.6" y2="-2.1"/>
						</g>
					</g>
				</g>
			</pattern>
			<pattern  y="1438.4" width="57.6" height="57.6" patternUnits="userSpaceOnUse" id="SVGID_33_" viewBox="0 -57.6 57.6 57.6" style="overflow:visible;">
				<g>
					<rect y="-57.6" class="st0" width="57.6" height="57.6"/>
					<g>
						<polygon class="st0" points="0,-57.6 57.6,-57.6 57.6,0 0,0 			"/>
						<g>
							<polygon class="st0" points="0,-57.6 57.6,-57.6 57.6,0 0,0 				"/>
							<line class="st1" x1="52.5" y1="-54" x2="55.5" y2="-54"/>
							<line class="st1" x1="38.1" y1="-54" x2="41.1" y2="-54"/>
							<line class="st1" x1="23.7" y1="-54" x2="26.7" y2="-54"/>
							<line class="st1" x1="9.3" y1="-54" x2="12.3" y2="-54"/>
							<line class="st1" x1="45.3" y1="-46.8" x2="48.3" y2="-46.8"/>
							<line class="st1" x1="30.9" y1="-46.8" x2="33.9" y2="-46.8"/>
							<line class="st1" x1="16.5" y1="-46.8" x2="19.5" y2="-46.8"/>
							<line class="st1" x1="2.1" y1="-46.8" x2="5.1" y2="-46.8"/>
							<line class="st1" x1="52.5" y1="-39.6" x2="55.5" y2="-39.6"/>
							<line class="st1" x1="38.1" y1="-39.6" x2="41.1" y2="-39.6"/>
							<line class="st1" x1="23.7" y1="-39.6" x2="26.7" y2="-39.6"/>
							<line class="st1" x1="9.3" y1="-39.6" x2="12.3" y2="-39.6"/>
							<line class="st1" x1="45.3" y1="-32.4" x2="48.3" y2="-32.4"/>
							<line class="st1" x1="30.9" y1="-32.4" x2="33.9" y2="-32.4"/>
							<line class="st1" x1="16.5" y1="-32.4" x2="19.5" y2="-32.4"/>
							<line class="st1" x1="2.1" y1="-32.4" x2="5.1" y2="-32.4"/>
							<line class="st1" x1="52.5" y1="-25.2" x2="55.5" y2="-25.2"/>
							<line class="st1" x1="38.1" y1="-25.2" x2="41.1" y2="-25.2"/>
							<line class="st1" x1="23.7" y1="-25.2" x2="26.7" y2="-25.2"/>
							<line class="st1" x1="9.3" y1="-25.2" x2="12.3" y2="-25.2"/>
							<line class="st1" x1="45.3" y1="-18" x2="48.3" y2="-18"/>
							<line class="st1" x1="30.9" y1="-18" x2="33.9" y2="-18"/>
							<line class="st1" x1="16.5" y1="-18" x2="19.5" y2="-18"/>
							<line class="st1" x1="2.1" y1="-18" x2="5.1" y2="-18"/>
							<line class="st1" x1="52.5" y1="-10.8" x2="55.5" y2="-10.8"/>
							<line class="st1" x1="38.1" y1="-10.8" x2="41.1" y2="-10.8"/>
							<line class="st1" x1="23.7" y1="-10.8" x2="26.7" y2="-10.8"/>
							<line class="st1" x1="9.3" y1="-10.8" x2="12.3" y2="-10.8"/>
							<line class="st1" x1="45.3" y1="-3.6" x2="48.3" y2="-3.6"/>
							<line class="st1" x1="30.9" y1="-3.6" x2="33.9" y2="-3.6"/>
							<line class="st1" x1="16.5" y1="-3.6" x2="19.5" y2="-3.6"/>
							<line class="st1" x1="2.1" y1="-3.6" x2="5.1" y2="-3.6"/>
							<line class="st1" x1="54" y1="-55.5" x2="54" y2="-52.5"/>
							<line class="st1" x1="39.6" y1="-55.5" x2="39.6" y2="-52.5"/>
							<line class="st1" x1="25.2" y1="-55.5" x2="25.2" y2="-52.5"/>
							<line class="st1" x1="10.8" y1="-55.5" x2="10.8" y2="-52.5"/>
							<line class="st1" x1="46.8" y1="-48.3" x2="46.8" y2="-45.3"/>
							<line class="st1" x1="32.4" y1="-48.3" x2="32.4" y2="-45.3"/>
							<line class="st1" x1="18" y1="-48.3" x2="18" y2="-45.3"/>
							<line class="st1" x1="3.6" y1="-48.3" x2="3.6" y2="-45.3"/>
							<line class="st1" x1="54" y1="-41.1" x2="54" y2="-38.1"/>
							<line class="st1" x1="39.6" y1="-41.1" x2="39.6" y2="-38.1"/>
							<line class="st1" x1="25.2" y1="-41.1" x2="25.2" y2="-38.1"/>
							<line class="st1" x1="10.8" y1="-41.1" x2="10.8" y2="-38.1"/>
							<line class="st1" x1="46.8" y1="-33.9" x2="46.8" y2="-30.9"/>
							<line class="st1" x1="32.4" y1="-33.9" x2="32.4" y2="-30.9"/>
							<line class="st1" x1="18" y1="-33.9" x2="18" y2="-30.9"/>
							<line class="st1" x1="3.6" y1="-33.9" x2="3.6" y2="-30.9"/>
							<line class="st1" x1="54" y1="-26.7" x2="54" y2="-23.7"/>
							<line class="st1" x1="39.6" y1="-26.7" x2="39.6" y2="-23.7"/>
							<line class="st1" x1="25.2" y1="-26.7" x2="25.2" y2="-23.7"/>
							<line class="st1" x1="10.8" y1="-26.7" x2="10.8" y2="-23.7"/>
							<line class="st1" x1="46.8" y1="-19.5" x2="46.8" y2="-16.5"/>
							<line class="st1" x1="32.4" y1="-19.5" x2="32.4" y2="-16.5"/>
							<line class="st1" x1="18" y1="-19.5" x2="18" y2="-16.5"/>
							<line class="st1" x1="3.6" y1="-19.5" x2="3.6" y2="-16.5"/>
							<line class="st1" x1="54" y1="-12.3" x2="54" y2="-9.3"/>
							<line class="st1" x1="39.6" y1="-12.3" x2="39.6" y2="-9.3"/>
							<line class="st1" x1="25.2" y1="-12.3" x2="25.2" y2="-9.3"/>
							<line class="st1" x1="10.8" y1="-12.3" x2="10.8" y2="-9.3"/>
							<line class="st1" x1="46.8" y1="-5.1" x2="46.8" y2="-2.1"/>
							<line class="st1" x1="32.4" y1="-5.1" x2="32.4" y2="-2.1"/>
							<line class="st1" x1="18" y1="-5.1" x2="18" y2="-2.1"/>
							<line class="st1" x1="3.6" y1="-5.1" x2="3.6" y2="-2.1"/>
						</g>
					</g>
				</g>
			</pattern>
			<pattern  y="1438.4" width="57.6" height="57.6" patternUnits="userSpaceOnUse" id="SVGID_34_" viewBox="0 -57.6 57.6 57.6" style="overflow:visible;">
				<g>
					<rect y="-57.6" class="st0" width="57.6" height="57.6"/>
					<g>
						<polygon class="st0" points="0,-57.6 57.6,-57.6 57.6,0 0,0 			"/>
						<g>
							<polygon class="st0" points="0,-57.6 57.6,-57.6 57.6,0 0,0 				"/>
							<line class="st1" x1="52.5" y1="-54" x2="55.5" y2="-54"/>
							<line class="st1" x1="38.1" y1="-54" x2="41.1" y2="-54"/>
							<line class="st1" x1="23.7" y1="-54" x2="26.7" y2="-54"/>
							<line class="st1" x1="9.3" y1="-54" x2="12.3" y2="-54"/>
							<line class="st1" x1="45.3" y1="-46.8" x2="48.3" y2="-46.8"/>
							<line class="st1" x1="30.9" y1="-46.8" x2="33.9" y2="-46.8"/>
							<line class="st1" x1="16.5" y1="-46.8" x2="19.5" y2="-46.8"/>
							<line class="st1" x1="2.1" y1="-46.8" x2="5.1" y2="-46.8"/>
							<line class="st1" x1="52.5" y1="-39.6" x2="55.5" y2="-39.6"/>
							<line class="st1" x1="38.1" y1="-39.6" x2="41.1" y2="-39.6"/>
							<line class="st1" x1="23.7" y1="-39.6" x2="26.7" y2="-39.6"/>
							<line class="st1" x1="9.3" y1="-39.6" x2="12.3" y2="-39.6"/>
							<line class="st1" x1="45.3" y1="-32.4" x2="48.3" y2="-32.4"/>
							<line class="st1" x1="30.9" y1="-32.4" x2="33.9" y2="-32.4"/>
							<line class="st1" x1="16.5" y1="-32.4" x2="19.5" y2="-32.4"/>
							<line class="st1" x1="2.1" y1="-32.4" x2="5.1" y2="-32.4"/>
							<line class="st1" x1="52.5" y1="-25.2" x2="55.5" y2="-25.2"/>
							<line class="st1" x1="38.1" y1="-25.2" x2="41.1" y2="-25.2"/>
							<line class="st1" x1="23.7" y1="-25.2" x2="26.7" y2="-25.2"/>
							<line class="st1" x1="9.3" y1="-25.2" x2="12.3" y2="-25.2"/>
							<line class="st1" x1="45.3" y1="-18" x2="48.3" y2="-18"/>
							<line class="st1" x1="30.9" y1="-18" x2="33.9" y2="-18"/>
							<line class="st1" x1="16.5" y1="-18" x2="19.5" y2="-18"/>
							<line class="st1" x1="2.1" y1="-18" x2="5.1" y2="-18"/>
							<line class="st1" x1="52.5" y1="-10.8" x2="55.5" y2="-10.8"/>
							<line class="st1" x1="38.1" y1="-10.8" x2="41.1" y2="-10.8"/>
							<line class="st1" x1="23.7" y1="-10.8" x2="26.7" y2="-10.8"/>
							<line class="st1" x1="9.3" y1="-10.8" x2="12.3" y2="-10.8"/>
							<line class="st1" x1="45.3" y1="-3.6" x2="48.3" y2="-3.6"/>
							<line class="st1" x1="30.9" y1="-3.6" x2="33.9" y2="-3.6"/>
							<line class="st1" x1="16.5" y1="-3.6" x2="19.5" y2="-3.6"/>
							<line class="st1" x1="2.1" y1="-3.6" x2="5.1" y2="-3.6"/>
							<line class="st1" x1="54" y1="-55.5" x2="54" y2="-52.5"/>
							<line class="st1" x1="39.6" y1="-55.5" x2="39.6" y2="-52.5"/>
							<line class="st1" x1="25.2" y1="-55.5" x2="25.2" y2="-52.5"/>
							<line class="st1" x1="10.8" y1="-55.5" x2="10.8" y2="-52.5"/>
							<line class="st1" x1="46.8" y1="-48.3" x2="46.8" y2="-45.3"/>
							<line class="st1" x1="32.4" y1="-48.3" x2="32.4" y2="-45.3"/>
							<line class="st1" x1="18" y1="-48.3" x2="18" y2="-45.3"/>
							<line class="st1" x1="3.6" y1="-48.3" x2="3.6" y2="-45.3"/>
							<line class="st1" x1="54" y1="-41.1" x2="54" y2="-38.1"/>
							<line class="st1" x1="39.6" y1="-41.1" x2="39.6" y2="-38.1"/>
							<line class="st1" x1="25.2" y1="-41.1" x2="25.2" y2="-38.1"/>
							<line class="st1" x1="10.8" y1="-41.1" x2="10.8" y2="-38.1"/>
							<line class="st1" x1="46.8" y1="-33.9" x2="46.8" y2="-30.9"/>
							<line class="st1" x1="32.4" y1="-33.9" x2="32.4" y2="-30.9"/>
							<line class="st1" x1="18" y1="-33.9" x2="18" y2="-30.9"/>
							<line class="st1" x1="3.6" y1="-33.9" x2="3.6" y2="-30.9"/>
							<line class="st1" x1="54" y1="-26.7" x2="54" y2="-23.7"/>
							<line class="st1" x1="39.6" y1="-26.7" x2="39.6" y2="-23.7"/>
							<line class="st1" x1="25.2" y1="-26.7" x2="25.2" y2="-23.7"/>
							<line class="st1" x1="10.8" y1="-26.7" x2="10.8" y2="-23.7"/>
							<line class="st1" x1="46.8" y1="-19.5" x2="46.8" y2="-16.5"/>
							<line class="st1" x1="32.4" y1="-19.5" x2="32.4" y2="-16.5"/>
							<line class="st1" x1="18" y1="-19.5" x2="18" y2="-16.5"/>
							<line class="st1" x1="3.6" y1="-19.5" x2="3.6" y2="-16.5"/>
							<line class="st1" x1="54" y1="-12.3" x2="54" y2="-9.3"/>
							<line class="st1" x1="39.6" y1="-12.3" x2="39.6" y2="-9.3"/>
							<line class="st1" x1="25.2" y1="-12.3" x2="25.2" y2="-9.3"/>
							<line class="st1" x1="10.8" y1="-12.3" x2="10.8" y2="-9.3"/>
							<line class="st1" x1="46.8" y1="-5.1" x2="46.8" y2="-2.1"/>
							<line class="st1" x1="32.4" y1="-5.1" x2="32.4" y2="-2.1"/>
							<line class="st1" x1="18" y1="-5.1" x2="18" y2="-2.1"/>
							<line class="st1" x1="3.6" y1="-5.1" x2="3.6" y2="-2.1"/>
						</g>
					</g>
				</g>
			</pattern>
			<pattern  y="1438.4" width="57.6" height="57.6" patternUnits="userSpaceOnUse" id="SVGID_35_" viewBox="0 -57.6 57.6 57.6" style="overflow:visible;">
				<g>
					<rect y="-57.6" class="st0" width="57.6" height="57.6"/>
					<g>
						<polygon class="st0" points="0,-57.6 57.6,-57.6 57.6,0 0,0 			"/>
						<g>
							<polygon class="st0" points="0,-57.6 57.6,-57.6 57.6,0 0,0 				"/>
							<line class="st1" x1="52.5" y1="-54" x2="55.5" y2="-54"/>
							<line class="st1" x1="38.1" y1="-54" x2="41.1" y2="-54"/>
							<line class="st1" x1="23.7" y1="-54" x2="26.7" y2="-54"/>
							<line class="st1" x1="9.3" y1="-54" x2="12.3" y2="-54"/>
							<line class="st1" x1="45.3" y1="-46.8" x2="48.3" y2="-46.8"/>
							<line class="st1" x1="30.9" y1="-46.8" x2="33.9" y2="-46.8"/>
							<line class="st1" x1="16.5" y1="-46.8" x2="19.5" y2="-46.8"/>
							<line class="st1" x1="2.1" y1="-46.8" x2="5.1" y2="-46.8"/>
							<line class="st1" x1="52.5" y1="-39.6" x2="55.5" y2="-39.6"/>
							<line class="st1" x1="38.1" y1="-39.6" x2="41.1" y2="-39.6"/>
							<line class="st1" x1="23.7" y1="-39.6" x2="26.7" y2="-39.6"/>
							<line class="st1" x1="9.3" y1="-39.6" x2="12.3" y2="-39.6"/>
							<line class="st1" x1="45.3" y1="-32.4" x2="48.3" y2="-32.4"/>
							<line class="st1" x1="30.9" y1="-32.4" x2="33.9" y2="-32.4"/>
							<line class="st1" x1="16.5" y1="-32.4" x2="19.5" y2="-32.4"/>
							<line class="st1" x1="2.1" y1="-32.4" x2="5.1" y2="-32.4"/>
							<line class="st1" x1="52.5" y1="-25.2" x2="55.5" y2="-25.2"/>
							<line class="st1" x1="38.1" y1="-25.2" x2="41.1" y2="-25.2"/>
							<line class="st1" x1="23.7" y1="-25.2" x2="26.7" y2="-25.2"/>
							<line class="st1" x1="9.3" y1="-25.2" x2="12.3" y2="-25.2"/>
							<line class="st1" x1="45.3" y1="-18" x2="48.3" y2="-18"/>
							<line class="st1" x1="30.9" y1="-18" x2="33.9" y2="-18"/>
							<line class="st1" x1="16.5" y1="-18" x2="19.5" y2="-18"/>
							<line class="st1" x1="2.1" y1="-18" x2="5.1" y2="-18"/>
							<line class="st1" x1="52.5" y1="-10.8" x2="55.5" y2="-10.8"/>
							<line class="st1" x1="38.1" y1="-10.8" x2="41.1" y2="-10.8"/>
							<line class="st1" x1="23.7" y1="-10.8" x2="26.7" y2="-10.8"/>
							<line class="st1" x1="9.3" y1="-10.8" x2="12.3" y2="-10.8"/>
							<line class="st1" x1="45.3" y1="-3.6" x2="48.3" y2="-3.6"/>
							<line class="st1" x1="30.9" y1="-3.6" x2="33.9" y2="-3.6"/>
							<line class="st1" x1="16.5" y1="-3.6" x2="19.5" y2="-3.6"/>
							<line class="st1" x1="2.1" y1="-3.6" x2="5.1" y2="-3.6"/>
							<line class="st1" x1="54" y1="-55.5" x2="54" y2="-52.5"/>
							<line class="st1" x1="39.6" y1="-55.5" x2="39.6" y2="-52.5"/>
							<line class="st1" x1="25.2" y1="-55.5" x2="25.2" y2="-52.5"/>
							<line class="st1" x1="10.8" y1="-55.5" x2="10.8" y2="-52.5"/>
							<line class="st1" x1="46.8" y1="-48.3" x2="46.8" y2="-45.3"/>
							<line class="st1" x1="32.4" y1="-48.3" x2="32.4" y2="-45.3"/>
							<line class="st1" x1="18" y1="-48.3" x2="18" y2="-45.3"/>
							<line class="st1" x1="3.6" y1="-48.3" x2="3.6" y2="-45.3"/>
							<line class="st1" x1="54" y1="-41.1" x2="54" y2="-38.1"/>
							<line class="st1" x1="39.6" y1="-41.1" x2="39.6" y2="-38.1"/>
							<line class="st1" x1="25.2" y1="-41.1" x2="25.2" y2="-38.1"/>
							<line class="st1" x1="10.8" y1="-41.1" x2="10.8" y2="-38.1"/>
							<line class="st1" x1="46.8" y1="-33.9" x2="46.8" y2="-30.9"/>
							<line class="st1" x1="32.4" y1="-33.9" x2="32.4" y2="-30.9"/>
							<line class="st1" x1="18" y1="-33.9" x2="18" y2="-30.9"/>
							<line class="st1" x1="3.6" y1="-33.9" x2="3.6" y2="-30.9"/>
							<line class="st1" x1="54" y1="-26.7" x2="54" y2="-23.7"/>
							<line class="st1" x1="39.6" y1="-26.7" x2="39.6" y2="-23.7"/>
							<line class="st1" x1="25.2" y1="-26.7" x2="25.2" y2="-23.7"/>
							<line class="st1" x1="10.8" y1="-26.7" x2="10.8" y2="-23.7"/>
							<line class="st1" x1="46.8" y1="-19.5" x2="46.8" y2="-16.5"/>
							<line class="st1" x1="32.4" y1="-19.5" x2="32.4" y2="-16.5"/>
							<line class="st1" x1="18" y1="-19.5" x2="18" y2="-16.5"/>
							<line class="st1" x1="3.6" y1="-19.5" x2="3.6" y2="-16.5"/>
							<line class="st1" x1="54" y1="-12.3" x2="54" y2="-9.3"/>
							<line class="st1" x1="39.6" y1="-12.3" x2="39.6" y2="-9.3"/>
							<line class="st1" x1="25.2" y1="-12.3" x2="25.2" y2="-9.3"/>
							<line class="st1" x1="10.8" y1="-12.3" x2="10.8" y2="-9.3"/>
							<line class="st1" x1="46.8" y1="-5.1" x2="46.8" y2="-2.1"/>
							<line class="st1" x1="32.4" y1="-5.1" x2="32.4" y2="-2.1"/>
							<line class="st1" x1="18" y1="-5.1" x2="18" y2="-2.1"/>
							<line class="st1" x1="3.6" y1="-5.1" x2="3.6" y2="-2.1"/>
						</g>
					</g>
				</g>
			</pattern>
			<pattern  y="1438.4" width="46.8" height="54" patternUnits="userSpaceOnUse" id="SVGID_36_" viewBox="2.9 -56.4 46.8 54" style="overflow:visible;">
				<g>
					<rect x="2.9" y="-56.4" class="st0" width="46.8" height="54"/>
					<g>
						<polygon class="st0" points="2.9,-56.4 49.7,-56.4 49.7,-2.4 2.9,-2.4 			"/>
						<g>
							<polygon class="st0" points="2.9,-56.4 49.7,-56.4 49.7,-2.4 2.9,-2.4 				"/>
							<g>
								<path class="st1" d="M44-34.8c0.4-0.7,0.2-1.6-0.5-2c-0.7-0.4-1.6-0.2-2,0.5c-0.4,0.7-0.2,1.6,0.5,2
									C42.7-33.9,43.6-34.1,44-34.8z"/>
								<path class="st1" d="M42.7-26.5c-0.4-0.7-1.3-1-2-0.5c-0.7,0.4-1,1.3-0.5,2c0.4,0.7,1.3,1,2,0.5C42.9-24.8,43.2-25.8,42.7-26.5
									z"/>
								<path class="st1" d="M34.5-39.6c-0.4-0.7-1.3-1-2-0.5s-1,1.3-0.5,2c0.4,0.7,1.3,1,2,0.5C34.7-37.9,34.9-38.9,34.5-39.6z"/>
								<path class="st1" d="M26.9-32.8c0.4-0.7,0.2-1.6-0.5-2c-0.7-0.4-1.6-0.2-2.1,0.5c-0.4,0.7-0.2,1.6,0.6,2.1
									C25.6-31.8,26.5-32.1,26.9-32.8z"/>
								<path class="st1" d="M29.7-26.6c-0.4-0.7-1.3-1-2-0.5c-0.7,0.4-1,1.3-0.5,2c0.4,0.7,1.3,1,2,0.5S30.2-25.9,29.7-26.6z"/>
								<path class="st1" d="M35.4-21.9c-0.8,0-1.5,0.7-1.5,1.5c0,0.8,0.7,1.5,1.5,1.5c0.8,0,1.5-0.7,1.5-1.5
									C36.9-21.2,36.2-21.9,35.4-21.9z"/>
								<path class="st1" d="M9.5-32.7c-0.4-0.7-0.2-1.6,0.5-2c0.7-0.4,1.6-0.2,2,0.5c0.4,0.7,0.2,1.6-0.5,2C10.8-31.8,9.9-32,9.5-32.7
									z"/>
								<path class="st1" d="M10.1-25.2c0.4-0.7,1.3-1,2-0.5c0.7,0.4,1,1.3,0.5,2.1c-0.4,0.7-1.3,1-2,0.5C9.9-23.5,9.7-24.4,10.1-25.2z
									"/>
								<path class="st1" d="M15.3-40c0.4-0.7,1.3-1,2.1-0.5c0.7,0.4,1,1.3,0.5,2c-0.4,0.7-1.3,1-2,0.6C15.2-38.3,14.9-39.3,15.3-40z"
									/>
								<path class="st1" d="M20.9-22.9c0.8,0,1.5,0.7,1.5,1.5s-0.7,1.5-1.5,1.5s-1.5-0.7-1.5-1.5S20.1-22.9,20.9-22.9z"/>
								<path class="st1" d="M44-6.4c-0.4,0.7-1.3,1-2,0.5c-0.7-0.4-1-1.3-0.5-2c0.4-0.7,1.3-1,2-0.6C44.1-8,44.4-7.1,44-6.4z"/>
								<path class="st1" d="M28.2-6.3c-0.4,0.7-1.3,1-2,0.5c-0.7-0.4-1-1.3-0.5-2c0.4-0.7,1.3-1,2-0.5C28.4-8,28.7-7,28.2-6.3z"/>
								<path class="st1" d="M34.1-9.9c-0.8,0-1.5-0.7-1.5-1.5c0-0.8,0.7-1.5,1.5-1.5c0.8,0,1.5,0.7,1.5,1.5
									C35.6-10.6,34.9-9.9,34.1-9.9z"/>
								<path class="st1" d="M8.7-6c0.4,0.7,1.3,1,2,0.5c0.7-0.4,1-1.3,0.5-2s-1.3-1-2-0.5C8.5-7.7,8.3-6.7,8.7-6z"/>
								<path class="st1" d="M18.8-11.9c0.8,0,1.5-0.7,1.5-1.5c0-0.8-0.7-1.5-1.5-1.5s-1.5,0.7-1.5,1.5C17.3-12.6,17.9-11.9,18.8-11.9z
									"/>
								<path class="st1" d="M43.2-52.7c0.4,0.7,0.2,1.6-0.5,2c-0.7,0.4-1.6,0.2-2-0.5c-0.4-0.7-0.2-1.6,0.5-2
									C41.9-53.6,42.8-53.4,43.2-52.7z"/>
								<path class="st1" d="M35.4-46.7c-0.4,0.7-1.3,1-2,0.5c-0.7-0.4-1-1.3-0.5-2c0.4-0.7,1.3-1,2-0.5C35.6-48.3,35.8-47.4,35.4-46.7
									z"/>
								<path class="st1" d="M28.3-53.3c0.4,0.7,0.2,1.6-0.5,2.1c-0.7,0.4-1.6,0.2-2-0.6c-0.4-0.7-0.2-1.6,0.5-2
									C27-54.2,27.9-54,28.3-53.3z"/>
								<path class="st1" d="M9.4-52.7C9-51.9,9.3-51,10-50.6c0.7,0.4,1.6,0.2,2-0.5c0.4-0.7,0.2-1.6-0.5-2
									C10.8-53.6,9.8-53.4,9.4-52.7z"/>
								<path class="st1" d="M17.7-47.7c0.4,0.7,1.3,1,2,0.5c0.7-0.4,1-1.3,0.5-2c-0.4-0.7-1.3-1-2-0.5C17.6-49.3,17.3-48.4,17.7-47.7z
									"/>
								<path class="st1" d="M50.4-37.4c-0.8,0-1.5-0.7-1.5-1.5s0.7-1.5,1.5-1.5s1.5,0.7,1.5,1.5S51.3-37.4,50.4-37.4z"/>
								<path class="st1" d="M50.4-9.9c0.8,0,1.5-0.7,1.5-1.5c0-0.8-0.7-1.5-1.5-1.5s-1.5,0.7-1.5,1.5C48.9-10.6,49.6-9.9,50.4-9.9z"/>
								<path class="st1" d="M28.7-17.1c-0.4-0.7-1.3-1-2-0.5c-0.7,0.4-1,1.3-0.5,2c0.4,0.7,1.3,1,2,0.5S29.2-16.4,28.7-17.1z"/>
								<path class="st1" d="M20.2-30.1c-0.4-0.7-1.3-1-2-0.5c-0.7,0.4-1,1.3-0.5,2c0.4,0.7,1.3,1,2,0.5S20.7-29.4,20.2-30.1z"/>
								<path class="st1" d="M36.5-31.9c-0.4-0.7-1.3-1-2-0.6c-0.7,0.4-1,1.3-0.5,2.1c0.4,0.7,1.3,1,2,0.5
									C36.7-30.3,36.9-31.2,36.5-31.9z"/>
								<path class="st1" d="M27.5-43.6c-0.4-0.7-1.3-1-2-0.5c-0.7,0.4-1,1.3-0.5,2c0.4,0.7,1.3,1,2,0.5C27.7-41.9,27.9-42.9,27.5-43.6
									z"/>
								<path class="st1" d="M11-44.1c-0.4-0.7-1.3-1-2-0.5c-0.7,0.4-1,1.3-0.5,2c0.4,0.7,1.3,1,2,0.5C11.2-42.4,11.4-43.4,11-44.1z"/>
								<path class="st1" d="M43.1-44.2c-0.4-0.7-1.3-1-2-0.5c-0.7,0.4-1,1.3-0.6,2c0.4,0.7,1.3,1,2.1,0.6
									C43.2-42.5,43.5-43.4,43.1-44.2z"/>
								<path class="st1" d="M11.2-17.1c-0.4-0.7-1.3-1-2-0.5c-0.7,0.4-1,1.3-0.5,2c0.4,0.7,1.3,1,2,0.5C11.4-15.4,11.7-16.4,11.2-17.1
									z"/>
								<path class="st1" d="M19.7-4.3c-0.4-0.7-1.3-1-2-0.5c-0.7,0.4-1,1.3-0.5,2c0.4,0.7,1.3,1,2,0.5S20.2-3.6,19.7-4.3z"/>
								<path class="st1" d="M37.5-3.8c-0.4-0.7-1.3-1-2-0.5c-0.7,0.4-1,1.3-0.5,2c0.4,0.7,1.3,1,2,0.5C37.7-2.2,37.9-3.1,37.5-3.8z"/>
								<path class="st1" d="M42.4-16.6c0.8,0,1.5,0.7,1.5,1.5c0,0.8-0.7,1.5-1.5,1.5s-1.5-0.7-1.5-1.5C40.9-16,41.6-16.6,42.4-16.6z"
									/>
								<path class="st1" d="M49.7-3.2c-0.8,0-1.5,0.7-1.5,1.5c0,0.8,0.7,1.5,1.5,1.5s1.5-0.7,1.5-1.5C51.2-2.5,50.5-3.2,49.7-3.2z"/>
								<path class="st1" d="M50.7-30.2c-0.4-0.7-1.3-1-2.1-0.5c-0.7,0.4-1,1.3-0.5,2c0.4,0.7,1.3,1,2,0.5
									C50.9-28.6,51.1-29.5,50.7-30.2z"/>
								<path class="st1" d="M50.4-49.9c-0.8,0-1.5,0.7-1.5,1.5c0,0.8,0.7,1.5,1.5,1.5s1.5-0.7,1.5-1.5C51.9-49.2,51.2-49.9,50.4-49.9z
									"/>
								<path class="st1" d="M48.4-21.6c0.8,0,1.5,0.7,1.5,1.5s-0.7,1.5-1.5,1.5c-0.8,0-1.5-0.7-1.5-1.5S47.6-21.6,48.4-21.6z"/>
							</g>
							<g>
								<path class="st1" d="M3.7-37.4c-0.8,0-1.5-0.7-1.5-1.5s0.7-1.5,1.5-1.5s1.5,0.7,1.5,1.5S4.5-37.4,3.7-37.4z"/>
								<path class="st1" d="M3.7-9.9c0.8,0,1.5-0.7,1.5-1.5c0-0.8-0.7-1.5-1.5-1.5s-1.5,0.7-1.5,1.5C2.2-10.6,2.8-9.9,3.7-9.9z"/>
								<path class="st1" d="M2.9-3.2c-0.8,0-1.5,0.7-1.5,1.5c0,0.8,0.7,1.5,1.5,1.5s1.5-0.7,1.5-1.5C4.4-2.5,3.8-3.2,2.9-3.2z"/>
								<path class="st1" d="M4-30.2c-0.4-0.7-1.3-1-2.1-0.5c-0.7,0.4-1,1.3-0.5,2c0.4,0.7,1.3,1,2,0.5C4.1-28.6,4.4-29.5,4-30.2z"/>
								<path class="st1" d="M3.7-49.9c-0.8,0-1.5,0.7-1.5,1.5c0,0.8,0.7,1.5,1.5,1.5s1.5-0.7,1.5-1.5C5.2-49.2,4.5-49.9,3.7-49.9z"/>
								<path class="st1" d="M1.6-21.6c0.8,0,1.5,0.7,1.5,1.5s-0.7,1.5-1.5,1.5c-0.8,0-1.5-0.7-1.5-1.5S0.8-21.6,1.6-21.6z"/>
							</g>
							<g>
								<path class="st1" d="M19.7-58.3c-0.4-0.7-1.3-1-2-0.5c-0.7,0.4-1,1.3-0.5,2c0.4,0.7,1.3,1,2,0.6C19.9-56.7,20.2-57.6,19.7-58.3
									z"/>
								<path class="st1" d="M37.5-57.8c-0.4-0.7-1.3-1-2-0.5s-1,1.3-0.5,2c0.4,0.7,1.3,1,2,0.6C37.7-56.2,37.9-57.1,37.5-57.8z"/>
								<path class="st1" d="M49.7-57.2c-0.8,0-1.5,0.7-1.5,1.5c0,0.8,0.7,1.5,1.5,1.5s1.5-0.7,1.5-1.5C51.2-56.5,50.5-57.2,49.7-57.2z
									"/>
							</g>
							<g>
								<path class="st1" d="M2.9-57.2c-0.8,0-1.5,0.7-1.5,1.5c0,0.8,0.7,1.5,1.5,1.5s1.5-0.7,1.5-1.5C4.4-56.5,3.8-57.2,2.9-57.2z"/>
							</g>
						</g>
					</g>
				</g>
			</pattern>
			<pattern  y="1438.4" width="46.8" height="54" patternUnits="userSpaceOnUse" id="SVGID_37_" viewBox="2.9 -56.4 46.8 54" style="overflow:visible;">
				<g>
					<rect x="2.9" y="-56.4" class="st0" width="46.8" height="54"/>
					<g>
						<polygon class="st0" points="2.9,-56.4 49.7,-56.4 49.7,-2.4 2.9,-2.4 			"/>
						<g>
							<polygon class="st0" points="2.9,-56.4 49.7,-56.4 49.7,-2.4 2.9,-2.4 				"/>
							<g>
								<path class="st1" d="M44-34.8c0.4-0.7,0.2-1.6-0.5-2c-0.7-0.4-1.6-0.2-2,0.5c-0.4,0.7-0.2,1.6,0.5,2
									C42.7-33.9,43.6-34.1,44-34.8z"/>
								<path class="st1" d="M42.7-26.5c-0.4-0.7-1.3-1-2-0.5c-0.7,0.4-1,1.3-0.5,2c0.4,0.7,1.3,1,2,0.5C42.9-24.8,43.2-25.8,42.7-26.5
									z"/>
								<path class="st1" d="M34.5-39.6c-0.4-0.7-1.3-1-2-0.5s-1,1.3-0.5,2c0.4,0.7,1.3,1,2,0.5C34.7-37.9,34.9-38.9,34.5-39.6z"/>
								<path class="st1" d="M26.9-32.8c0.4-0.7,0.2-1.6-0.5-2c-0.7-0.4-1.6-0.2-2.1,0.5c-0.4,0.7-0.2,1.6,0.6,2.1
									C25.6-31.8,26.5-32.1,26.9-32.8z"/>
								<path class="st1" d="M29.7-26.6c-0.4-0.7-1.3-1-2-0.5c-0.7,0.4-1,1.3-0.5,2c0.4,0.7,1.3,1,2,0.5S30.2-25.9,29.7-26.6z"/>
								<path class="st1" d="M35.4-21.9c-0.8,0-1.5,0.7-1.5,1.5c0,0.8,0.7,1.5,1.5,1.5c0.8,0,1.5-0.7,1.5-1.5
									C36.9-21.2,36.2-21.9,35.4-21.9z"/>
								<path class="st1" d="M9.5-32.7c-0.4-0.7-0.2-1.6,0.5-2c0.7-0.4,1.6-0.2,2,0.5c0.4,0.7,0.2,1.6-0.5,2C10.8-31.8,9.9-32,9.5-32.7
									z"/>
								<path class="st1" d="M10.1-25.2c0.4-0.7,1.3-1,2-0.5c0.7,0.4,1,1.3,0.5,2.1c-0.4,0.7-1.3,1-2,0.5C9.9-23.5,9.7-24.4,10.1-25.2z
									"/>
								<path class="st1" d="M15.3-40c0.4-0.7,1.3-1,2.1-0.5c0.7,0.4,1,1.3,0.5,2c-0.4,0.7-1.3,1-2,0.6C15.2-38.3,14.9-39.3,15.3-40z"
									/>
								<path class="st1" d="M20.9-22.9c0.8,0,1.5,0.7,1.5,1.5s-0.7,1.5-1.5,1.5s-1.5-0.7-1.5-1.5S20.1-22.9,20.9-22.9z"/>
								<path class="st1" d="M44-6.4c-0.4,0.7-1.3,1-2,0.5c-0.7-0.4-1-1.3-0.5-2c0.4-0.7,1.3-1,2-0.6C44.1-8,44.4-7.1,44-6.4z"/>
								<path class="st1" d="M28.2-6.3c-0.4,0.7-1.3,1-2,0.5c-0.7-0.4-1-1.3-0.5-2c0.4-0.7,1.3-1,2-0.5C28.4-8,28.7-7,28.2-6.3z"/>
								<path class="st1" d="M34.1-9.9c-0.8,0-1.5-0.7-1.5-1.5c0-0.8,0.7-1.5,1.5-1.5c0.8,0,1.5,0.7,1.5,1.5
									C35.6-10.6,34.9-9.9,34.1-9.9z"/>
								<path class="st1" d="M8.7-6c0.4,0.7,1.3,1,2,0.5c0.7-0.4,1-1.3,0.5-2s-1.3-1-2-0.5C8.5-7.7,8.3-6.7,8.7-6z"/>
								<path class="st1" d="M18.8-11.9c0.8,0,1.5-0.7,1.5-1.5c0-0.8-0.7-1.5-1.5-1.5s-1.5,0.7-1.5,1.5C17.3-12.6,17.9-11.9,18.8-11.9z
									"/>
								<path class="st1" d="M43.2-52.7c0.4,0.7,0.2,1.6-0.5,2c-0.7,0.4-1.6,0.2-2-0.5c-0.4-0.7-0.2-1.6,0.5-2
									C41.9-53.6,42.8-53.4,43.2-52.7z"/>
								<path class="st1" d="M35.4-46.7c-0.4,0.7-1.3,1-2,0.5c-0.7-0.4-1-1.3-0.5-2c0.4-0.7,1.3-1,2-0.5C35.6-48.3,35.8-47.4,35.4-46.7
									z"/>
								<path class="st1" d="M28.3-53.3c0.4,0.7,0.2,1.6-0.5,2.1c-0.7,0.4-1.6,0.2-2-0.6c-0.4-0.7-0.2-1.6,0.5-2
									C27-54.2,27.9-54,28.3-53.3z"/>
								<path class="st1" d="M9.4-52.7C9-51.9,9.3-51,10-50.6c0.7,0.4,1.6,0.2,2-0.5c0.4-0.7,0.2-1.6-0.5-2
									C10.8-53.6,9.8-53.4,9.4-52.7z"/>
								<path class="st1" d="M17.7-47.7c0.4,0.7,1.3,1,2,0.5c0.7-0.4,1-1.3,0.5-2c-0.4-0.7-1.3-1-2-0.5C17.6-49.3,17.3-48.4,17.7-47.7z
									"/>
								<path class="st1" d="M50.4-37.4c-0.8,0-1.5-0.7-1.5-1.5s0.7-1.5,1.5-1.5s1.5,0.7,1.5,1.5S51.3-37.4,50.4-37.4z"/>
								<path class="st1" d="M50.4-9.9c0.8,0,1.5-0.7,1.5-1.5c0-0.8-0.7-1.5-1.5-1.5s-1.5,0.7-1.5,1.5C48.9-10.6,49.6-9.9,50.4-9.9z"/>
								<path class="st1" d="M28.7-17.1c-0.4-0.7-1.3-1-2-0.5c-0.7,0.4-1,1.3-0.5,2c0.4,0.7,1.3,1,2,0.5S29.2-16.4,28.7-17.1z"/>
								<path class="st1" d="M20.2-30.1c-0.4-0.7-1.3-1-2-0.5c-0.7,0.4-1,1.3-0.5,2c0.4,0.7,1.3,1,2,0.5S20.7-29.4,20.2-30.1z"/>
								<path class="st1" d="M36.5-31.9c-0.4-0.7-1.3-1-2-0.6c-0.7,0.4-1,1.3-0.5,2.1c0.4,0.7,1.3,1,2,0.5
									C36.7-30.3,36.9-31.2,36.5-31.9z"/>
								<path class="st1" d="M27.5-43.6c-0.4-0.7-1.3-1-2-0.5c-0.7,0.4-1,1.3-0.5,2c0.4,0.7,1.3,1,2,0.5C27.7-41.9,27.9-42.9,27.5-43.6
									z"/>
								<path class="st1" d="M11-44.1c-0.4-0.7-1.3-1-2-0.5c-0.7,0.4-1,1.3-0.5,2c0.4,0.7,1.3,1,2,0.5C11.2-42.4,11.4-43.4,11-44.1z"/>
								<path class="st1" d="M43.1-44.2c-0.4-0.7-1.3-1-2-0.5c-0.7,0.4-1,1.3-0.6,2c0.4,0.7,1.3,1,2.1,0.6
									C43.2-42.5,43.5-43.4,43.1-44.2z"/>
								<path class="st1" d="M11.2-17.1c-0.4-0.7-1.3-1-2-0.5c-0.7,0.4-1,1.3-0.5,2c0.4,0.7,1.3,1,2,0.5C11.4-15.4,11.7-16.4,11.2-17.1
									z"/>
								<path class="st1" d="M19.7-4.3c-0.4-0.7-1.3-1-2-0.5c-0.7,0.4-1,1.3-0.5,2c0.4,0.7,1.3,1,2,0.5S20.2-3.6,19.7-4.3z"/>
								<path class="st1" d="M37.5-3.8c-0.4-0.7-1.3-1-2-0.5c-0.7,0.4-1,1.3-0.5,2c0.4,0.7,1.3,1,2,0.5C37.7-2.2,37.9-3.1,37.5-3.8z"/>
								<path class="st1" d="M42.4-16.6c0.8,0,1.5,0.7,1.5,1.5c0,0.8-0.7,1.5-1.5,1.5s-1.5-0.7-1.5-1.5C40.9-16,41.6-16.6,42.4-16.6z"
									/>
								<path class="st1" d="M49.7-3.2c-0.8,0-1.5,0.7-1.5,1.5c0,0.8,0.7,1.5,1.5,1.5s1.5-0.7,1.5-1.5C51.2-2.5,50.5-3.2,49.7-3.2z"/>
								<path class="st1" d="M50.7-30.2c-0.4-0.7-1.3-1-2.1-0.5c-0.7,0.4-1,1.3-0.5,2c0.4,0.7,1.3,1,2,0.5
									C50.9-28.6,51.1-29.5,50.7-30.2z"/>
								<path class="st1" d="M50.4-49.9c-0.8,0-1.5,0.7-1.5,1.5c0,0.8,0.7,1.5,1.5,1.5s1.5-0.7,1.5-1.5C51.9-49.2,51.2-49.9,50.4-49.9z
									"/>
								<path class="st1" d="M48.4-21.6c0.8,0,1.5,0.7,1.5,1.5s-0.7,1.5-1.5,1.5c-0.8,0-1.5-0.7-1.5-1.5S47.6-21.6,48.4-21.6z"/>
							</g>
							<g>
								<path class="st1" d="M3.7-37.4c-0.8,0-1.5-0.7-1.5-1.5s0.7-1.5,1.5-1.5s1.5,0.7,1.5,1.5S4.5-37.4,3.7-37.4z"/>
								<path class="st1" d="M3.7-9.9c0.8,0,1.5-0.7,1.5-1.5c0-0.8-0.7-1.5-1.5-1.5s-1.5,0.7-1.5,1.5C2.2-10.6,2.8-9.9,3.7-9.9z"/>
								<path class="st1" d="M2.9-3.2c-0.8,0-1.5,0.7-1.5,1.5c0,0.8,0.7,1.5,1.5,1.5s1.5-0.7,1.5-1.5C4.4-2.5,3.8-3.2,2.9-3.2z"/>
								<path class="st1" d="M4-30.2c-0.4-0.7-1.3-1-2.1-0.5c-0.7,0.4-1,1.3-0.5,2c0.4,0.7,1.3,1,2,0.5C4.1-28.6,4.4-29.5,4-30.2z"/>
								<path class="st1" d="M3.7-49.9c-0.8,0-1.5,0.7-1.5,1.5c0,0.8,0.7,1.5,1.5,1.5s1.5-0.7,1.5-1.5C5.2-49.2,4.5-49.9,3.7-49.9z"/>
								<path class="st1" d="M1.6-21.6c0.8,0,1.5,0.7,1.5,1.5s-0.7,1.5-1.5,1.5c-0.8,0-1.5-0.7-1.5-1.5S0.8-21.6,1.6-21.6z"/>
							</g>
							<g>
								<path class="st1" d="M19.7-58.3c-0.4-0.7-1.3-1-2-0.5c-0.7,0.4-1,1.3-0.5,2c0.4,0.7,1.3,1,2,0.6C19.9-56.7,20.2-57.6,19.7-58.3
									z"/>
								<path class="st1" d="M37.5-57.8c-0.4-0.7-1.3-1-2-0.5s-1,1.3-0.5,2c0.4,0.7,1.3,1,2,0.6C37.7-56.2,37.9-57.1,37.5-57.8z"/>
								<path class="st1" d="M49.7-57.2c-0.8,0-1.5,0.7-1.5,1.5c0,0.8,0.7,1.5,1.5,1.5s1.5-0.7,1.5-1.5C51.2-56.5,50.5-57.2,49.7-57.2z
									"/>
							</g>
							<g>
								<path class="st1" d="M2.9-57.2c-0.8,0-1.5,0.7-1.5,1.5c0,0.8,0.7,1.5,1.5,1.5s1.5-0.7,1.5-1.5C4.4-56.5,3.8-57.2,2.9-57.2z"/>
							</g>
						</g>
					</g>
				</g>
			</pattern>
			<pattern  y="1438.4" width="72" height="72" patternUnits="userSpaceOnUse" id="SVGID_38_" viewBox="72.3 -72 72 72" style="overflow:visible;">
				<g>
					<rect x="72.3" y="-72" class="st0" width="72" height="72"/>
					<g>
						<polygon class="st0" points="72.3,-72 144.3,-72 144.3,0 72.3,0 			"/>
						<g>
							<polygon class="st0" points="72.3,-72 144.3,-72 144.3,0 72.3,0 				"/>
							<g>
								<line class="st2" x1="144" y1="-6" x2="216.5" y2="-6"/>
								<line class="st2" x1="144" y1="-30" x2="216.5" y2="-30"/>
								<line class="st2" x1="144" y1="-54" x2="216.5" y2="-54"/>
								<line class="st2" x1="144" y1="-18" x2="216.5" y2="-18"/>
								<line class="st2" x1="144" y1="-42" x2="216.5" y2="-42"/>
								<line class="st2" x1="144" y1="-66" x2="216.5" y2="-66"/>
							</g>
							<g>
								<line class="st2" x1="72" y1="-6" x2="144.5" y2="-6"/>
								<line class="st2" x1="72" y1="-30" x2="144.5" y2="-30"/>
								<line class="st2" x1="72" y1="-54" x2="144.5" y2="-54"/>
								<line class="st2" x1="72" y1="-18" x2="144.5" y2="-18"/>
								<line class="st2" x1="72" y1="-42" x2="144.5" y2="-42"/>
								<line class="st2" x1="72" y1="-66" x2="144.5" y2="-66"/>
							</g>
							<g>
								<line class="st2" x1="0" y1="-6" x2="72.5" y2="-6"/>
								<line class="st2" x1="0" y1="-30" x2="72.5" y2="-30"/>
								<line class="st2" x1="0" y1="-54" x2="72.5" y2="-54"/>
								<line class="st2" x1="0" y1="-18" x2="72.5" y2="-18"/>
								<line class="st2" x1="0" y1="-42" x2="72.5" y2="-42"/>
								<line class="st2" x1="0" y1="-66" x2="72.5" y2="-66"/>
							</g>
						</g>
					</g>
				</g>
			</pattern>
			<g class="areagroup">
				<path class="st3" d="M364.9,63c-6.7-3.3,1.7-10.8,1.7-15c-0.4-8.8-9.6-0.8-9.2-10.4c0.8-6.3,9.6-11.3,12.5-17.1
					c3.8-8.3,8.3-11.7,18.3-10c8.3,1.7,10.4,8.3,16.7,12.9c5.4,3.8,10.8,3.3,17.1,3.3c18.8-0.4,28.3-18.3,47.5-17.5
					c17.1,0.8,35,8.8,51.7,0.4c5-2.5,9.6-7.1,15.8-6.3c12.5,1.7,5.4,8.8,2.5,15c-1.7,4.6-0.8,11.3,3.7,14.2c7.1,5.4,10.8-7.9,14.2,4.2
					c1.3,3.8,0,7.9,1.7,11.7c1.7,3.3,5,4.2,7.1,6.7c7.5,9.6-2.5,14.2-11.7,12.1c-9.6-2.1-10.4-12.5-19.2-14.6c-10-2.9-20.4,5-28.3,9.2
					c-6.7,3.3-15,6.3-12.1,15.4c3.3,9.2,8.3,9.2,7.5,19.6c-0.4,8.3-2.9,8.3-11.3,8.3c-7.1,0-12.5,2.5-19.2,5
					c-3.3,1.3-16.7,7.5-17.9,3.3c-1.7-5.8,11.3-10,11.7-15.8c0.4-7.1-13.8-20-21.3-20c-5.4,0-9.6,5-14.6,6.7
					c-6.3,1.7-14.2,1.3-20.8,0.8c-17.9-0.4-41.3-5-45-26.3"/>
			</g>
			<path class="st4" d="M496.7,619.7"/>
			<line class="st0" x1="474.5" y1="584.3" x2="474.5" y2="592.3"/>
			<g class="areagroup">
				<g>
					<path class="st5" d="M305.7,359.8c-8,0.4-16.8-0.4-21.4,7.6c-3.8,6.7-5,19.7-5,27.3c8.8,2.9,13.4,11.8,18.1,18.9
						c4.2,6.7,10.1,13.4,13.4,21c7.1,16.4,3.8,35.3,6.3,52.5c2.1,15.5,21.4,21.4,23.9,37.8c1.3,8.8-9.7,31.5-1.3,37.8
						c5.5,4.2,11.3-2.5,16.8-0.4c9.2,4.2,1.7,10.9,0,16c-2.5,7.1,5.5,7.6,10.9,10.5c5,2.5,8.4,6.7,13,9.7c9.2,6.3,22.3,3.4,33.6,4.6
						c13.4,1.3,20.2,1.3,25.6-12.6c2.9-7.1,5.5-12.2,13.9-12.6c4.6-0.4,5.9,1.7,9.7-1.3c3.4-2.5,4.2-8.8,5-12.6
						c2.9-13.4-3.4-28.1,1.3-41.6c3.4-10.1,10.5-10.1,19.3-9.7c0-7.6-6.7-12.2-6.3-21c0.4-6.3,2.5-14.3,7.6-18.5
						c2.1-1.7,4.2-0.4,6.3-2.9c2.1-2.1,1.3-6.7,3.4-8.8c1.7-1.7,5-0.4,5.9-2.9c0.8-3.4-2.5-6.7-5-8c-10.1-5.9-28.1-3.4-37-10.5
						c-7.6-5.9,0-11.3,3.8-16.8c4.6-7.1,0.4-11.8-4.6-17.2c-5.9-5.9-13-9.7-21.8-7.1c-6.7,2.1-6.7,7.6-11.8,11.3
						c-7.1,6.7-29.8-0.4-38.6-2.5c-10.9-2.9-16.8-14.7-29-15.1c-6.7,0-9.7,2.9-16-1.3c-5-3.4-9.2-8-14.3-11.3
						c-6.7-4.6-9.2-10.1-14.3-15.5c-4.2-4.2-6.7-3.4-12.2-4.6"/>
				</g>
				<g>
					<path class="st5" d="M373.8,390c14.7,8.8,47,24.8,61.8,6.3c10.1-12.2-18.9-6.7-25.6-6.7c-5.9,0-32.8-8.4-35.3-1.3l0.4,0.4"/>
				</g>
				<g>
					<path class="st5" d="M474.6,420.7c-6.7,4.6-4.2,16,5,18.1c23.1,4.2-1.7-21.4-5-19.3"/>
				</g>
				<g>
					<path class="st5" d="M317.9,574.8c-3.8,5.5-14.3-4.2-18.9,0c-5.9,5,6.3,12.6,10.5,13c5,0.8,8.4-3.4,13.4-0.8
						c3.4,2.1,5.5,10.9,10.1,2.1c1.7-3.4,0.4-4.2-1.3-7.1c-1.7-3.4-2.9,1.3-3.4-4.2c0-2.5,6.3-11.8-2.5-10.1c-1.7,0.4-2.5,4.6-4.2,5.5
						c-1.7,1.3-4.2,1.3-6.3,1.7"/>
				</g>
			</g>
			<g class="areagroup">
				<g>
					<path class="st6" d="M589,576.3c0.5,2.7-1.3,7.4,0,9.8c1.6,2.8,5.7,0.6,8,2.8c2.5,2,3.9,14,8.7,9.3c2.4-2.4,8.8-21.1,1.3-19.7
						c-2.2,0.5-2.5,4.1-4.9,4.3c-2.5,0-3.2-3.5-3.8-5.2c-1.1-2.8-2.5-4.7-6-3.9c-1.9,0.5-3.1,2.2-3.5,4.3"/>
				</g>
				<g>
					<path class="st6" d="M600.1,563c-2.2,1.3-1.9,3.9-1.1,6c1.4,2.8,3.5,5.4,6.1,3.6c3-1.9,3.6-3,6.5-0.3c2.2,2.2,4.1,5.5,4.7,8.5
						c1.4,6.5-2.4,9.9-3.8,15.8c-0.9,3.3,0.5,2.1,3.2,1.6c2.7-0.6,4.3,0.5,6.5,1.7c1.9,1.1,4.1,2.4,6.1,1.1c2.7-1.4,1.4-4.3,2.8-6.3
						c1.3-1.7,3.9-1.1,5.7-1.9c3-1.3,5.4-3.6,8.5-4.9c4.6-1.9,9.5-4.3,13.2-7.6c4.4-3.9,3.5-9.1,2.7-14.3c-1.1-8.5-1.6-17.5-3.5-25.8
						c-0.2-0.9-0.8-4.6-1.6-5c-1.4-1.1-2.2,0.8-3.3,1.9c-9.9,10.6-22.1,18.7-36.7,21.3c-4.1,0.8-15.1,0-16.9,5.4"/>
				</g>
				<g>
					<path class="st6" d="M626.1,606.3c6.9,11.3,5,29.6,4.4,42.2c-0.6,9.5-2.5,20.2-5,29c-1.9,5-13.2,22.7-11.3,27.1
						c0.6,1.9,15.1,8.2,18.3,11.3c7.6,7.6,9.4,12,20.2,13.2c7.6,1.3,18.9,3.2,25.8,1.3c13.9-3.8,6.9-12.6,12.6-20.8
						c7.6-11.3,10.1,1.3,12,8.2c3.1,11.3,6.9,9.4,16.4,1.9c8.2-6.9,13.9-14.5,17.6-24.6c1.9-3.8,5-12,4.4-15.8c-0.6-8.8-1.3-5-8.2-6.9
						c-5.7-1.3-6.9,0-12-4.4c-4.4-3.8-8.2-8.8-12-13.2c-6.9-7.6-14.5-12.6-22.1-18.9c-7.6-5.7-14.5-12.6-17.6-21.4
						c-1.9-6.9,3.8-22.1-1.9-26.5c-9.5-6.9-36.6,16.4-44.1,19.5"/>
				</g>
				<g>
					<path class="st6" d="M633.6,729.9c-13.9,14.5,3.8,34-18.3,44.7c-3.8,2.5-17.6,5-12,10.1c5.7,4.4,16.4-0.6,22.1,6.9
						c5,7.6-0.6,13.9-0.6,20.8c0,5.7-3.2,5,3.2,8.2c3.1,1.3,9.5,0.6,12.6-0.6c5.7-3.2,15.8-16.4,18.3-22.7c1.3-3.8,0.6-6.3,1.3-9.5
						c1.3-6.3-1.9-2.5,3.2-7.6c3.1-2.5,4.4,1.9,7.6-3.2c1.3-1.9,0-6.9,0-8.8c0.6-7.6,1.9-15.1-3.1-21.4c-5-5.7-27.7-20.2-34.7-15.8"/>
				</g>
				<g>
					<path class="st6" d="M651.9,867.8c-3.8,18.3,18.3,15.1,7.6,3.8c5-3.8,9.5-0.6,10.7,4.4c5.7-1.9,7.6-11.3,14.5-10.1
						c3.8,0,11.3,8.8,13.2,12c8.2,14.5-17.6,12-15.1,27.7c1.9,11.3,20.2-7.6,29.6-8.2c11.3,0,25.8,6.9,28.4-9.4
						c8.8,0,18.9,18.9,21.4,25.8c7.6,18.9-7.6,13.2-10.1,26.5c-2.5,14.5,29.6,37.2,42.8,34.7c6.9-1.9,13.2-8.8,20.8-8.8
						c6.3,0,6.9,5,13.2,1.3c6.9-3.2,15.8-18.9,15.1-25.8c-0.6-22.7-46.6-21.4-28.4-49.2c1.9-2.5,6.9-3.2,7.6-6.3
						c1.9-5.7-3.8-10.7-6.3-15.1c-7.6-13.9-5-11.3,5.7-15.8c9.5-3.8,12.6-16.4,5.7-25.8c-5-7.6-15.1-6.9-20.2-13.2
						c-2.5-3.8-0.6-6.9-5.7-10.7c-3.8-2.5-8.2-1.9-12.6-3.2c-13.9-4.4-6.3-8.2-9.5-18.9c-2.5-7.6-12.6-13.2-20.2-10.7
						c-12.6,4.4-10.7,15.1-25.2,10.1c-14.5-5-25.8-13.9-41.6-6.3c-4.4,1.9-6.9,5.7-10.1,8.2c-3.1,1.3-5.7,1.3-8.2,2.5
						c-4.4,2.5-3.2-3.2-6.9,2.5c-1.3,2.5,0.6,7.6,0,10.1c-5,17.6-27.1,17.6-22.1,37.8c3.8,14.5,4.4,23.9,3.8,39.1"/>
				</g>
				<g>
					<path class="st6" d="M674.6,740.6c6.9,8.8,3.2,18.3,5,27.7c2.5,14.5,5.7-1.3,14.5-3.8c6.3-1.9,17-0.6,23.3,0.6
						c6.9,1.3,17.6,8.2,24.6,6.3c8.8-2.5,7.6-15.1,15.8-17.6c6.9-1.9,15.8,4.4,23.9,0.6c15.1-6.9,0-10.7-1.9-18.9
						c-1.3-6.3,7.6-12.6,1.3-18.9c-3.1-3.8-12-3.8-16.4-6.9c-4.4-3.2-7.6-12-13.9-12c-8.8,0-9.5,9.5-12.6,15.1
						c-3.1,6.9-8.8,12.6-14.5,17c-18.9,13.9-13.9-9.5-27.1-8.2c-8.2,0.6-15.8,21.4-22.1,22.1"/>
				</g>
				<g>
					<path class="st6" d="M796.8,722.9c-17,14.5,19.5,27.7-6.3,37.2c-5.7,1.9-17,1.3-15.8,8.8c1.3,3.2,7.6,4.4,10.1,6.3
						c5,4.4,4.4,5.7,6.9,11.3c4.4,10.7,6.9,9.5,16.4,15.1c6.9,4.4,10.1,11.3,17.6,15.1c3.1,1.3,7.6,1.3,10.1,3.2
						c4.4,3.8,3.8,9.4,6.9,12c10.1,8.2,17-7.6,27.1-6.9c12,1.3,8.2,13.9,10.1,22.1c3.2,16.4,7.6,3.2,17,6.3c6.3,1.9,8.8,16.4,12,20.8
						c2.5,3.2,5,9.5,9.5,9.5c6.9,0,5.7-6.3,9.5-9.5c20.8-16.4,13.9,24.6,16.4,33.4c2.5,6.9,13.9,19.5,21.4,17
						c3.8-1.3,15.1-22.1,20.8-6.3c1.3,3.8-1.9,7.6-3.8,10.1c15.8,6.9,12,1.9,18.3-10.7c5-11.3,10.7-8.8,20.8-10.1
						c20.2-2.5,25.2-27.7,9.5-39.7c-11.3-8.2-23.9-12-34-22.1c-9.4-9.5-17.6-15.8-30.2-18.3c-19.5-4.4-39.1-6.3-56.7-17.6
						c-10.1-7.6-37.8-35.3-29.6-49.8c6.3-10.7,20.8-2.5,22.1-17c0.6-8.8-5.7-18.3-13.2-22.7c-13.2-8.8-35.3-5.7-51-5
						C823.9,716,811.3,721.7,796.8,722.9c0,0,0,0,0,0.6"/>
				</g>
				<g>
					<path class="st6" d="M840.3,838.2c-1.3,15.1-8.8,14.5-15.1,24.6c-6.3,8.8,6.9,15.1,2.5,25.8c-4.4,12-9.5,10.1-1.3,22.7
						c5.7,7.6,13.9,14.5,18.3,22.7c10.1,17.6-17.6,34-9.4,44.7c7.6,10.1,16.4,1.3,24.6,0.6c12,0,5,10.7,12,17
						c8.2,7.6,25.2,3.8,31.5-3.2c8.2-8.8,0.6-27.7,8.2-32.8c7.6-5.7,15.1,6.9,22.7,6.3c10.1-0.6,14.5-18.3,17.6-26.5
						c6.3-15.1-3.1-10.7-12-21.4c-8.2-9.5-1.9-18.3-5.7-27.7c-5-12.6-15.1,1.3-25.2-3.2s-4.4-15.1-12.6-20.8
						c-5.7-3.8-10.7,1.9-16.4-1.3c-10.7-3.8-4.4-13.9-8.2-20.8c-5.7-10.7-9.5,1.3-18.9,0.6c-5-0.6-13.2-10.7-16.4-4.4"/>
				</g>
				<g>
					<path class="st6" d="M842.2,1021.6c-1.9-6.9-8.8-20.2-2.5-25.2c8.2-6.9,17.6,5,23.3,8.8c17,11.3,44.7,0,51.7-18.9
						c1.3-2.5,0.6-9.4,3.2-11.3c4.4-3.1,10.1,0.6,12,5c4.4,10.1-8.8,18.3-11.3,27.1c-2.5,10.1,3.2,11.3,10.7,15.8
						c15.1,7.6,30.2,15.8,42.8,27.7c3.1,3.1,6.3,5,7.6,9.5c-8.8,4.4-29.6-5-37.8-8.2c-14.5-5-26.5-8.2-42.2-5.7
						c-10.7,1.3-30.9,9.5-41.6,3.8c-6.9-4.4-13.2-21.4-17.6-29"/>
				</g>
			</g>
			<g class="areagroup">
				<g>
					<g>
						<path class="st7" d="M863.6,1061.3c0,9.5-2.5,19.5-0.6,29c3.2,15.8,19.5,20.2,25.2,33.4c10.1,25.2-37.2,25.8-45.4,42.2
							c-6.9,12.6,8.2,15.8,8.8,26.5c0,9.4-9.5,13.9-15.1,19.5c-9.5,9.5-2.5,10.7-3.8,21.4c-0.6,8.8-10.1,10.7-1.3,20.8
							c6.9,6.9,14.5,2.5,22.1,5c10.1,3.2,15.1,9.5,22.1-4.4c4.4-9.5,2.5-18.9,9.5-26.5c6.3-6.3,15.1-13.2,22.1-18.9
							c6.3-4.4,15.8-7.6,18.9-15.1c2.5-5.7,0.6-15.8,0.6-22.1c-0.6-21.4,2.5-34.7,25.8-38.4c5-0.6,15.8,1.3,19.5-0.6
							c8.8-3.8,9.5-18.3,10.1-25.8c0.6-9.4,0.6-20.2,0.6-29c-0.6-14.5-4.4-7.6-13.9-6.3c-15.1,1.3-32.1-15.8-46.6-18.9
							c-17.6-4.4-35.9-0.6-52.9,5c-3.8,1.3-7.6,0-8.2,5"/>
					</g>
					<g>
						<pattern  id="SVGID_1_" xlink:href="#SVGID_21_" patternTransform="matrix(1.8462 0 0 1.8462 11888.7725 33188.8867)">
						</pattern>
						<path class="st8" d="M863.6,1061.3c0,9.5-2.5,19.5-0.6,29c3.2,15.8,19.5,20.2,25.2,33.4c10.1,25.2-37.2,25.8-45.4,42.2
							c-6.9,12.6,8.2,15.8,8.8,26.5c0,9.4-9.4,13.9-15.1,19.5c-9.5,9.5-2.5,10.7-3.8,21.4c-0.6,8.8-10.1,10.7-1.3,20.8
							c6.9,6.9,14.5,2.5,22.1,5c10.1,3.2,15.1,9.5,22.1-4.4c4.4-9.5,2.5-18.9,9.5-26.5c6.3-6.3,15.1-13.2,22.1-18.9
							c6.3-4.4,15.8-7.6,18.9-15.1c2.5-5.7,0.6-15.8,0.6-22.1c-0.6-21.4,2.5-34.7,25.8-38.4c5-0.6,15.8,1.3,19.5-0.6
							c8.8-3.8,9.5-18.3,10.1-25.8c0.6-9.4,0.6-20.2,0.6-29c-0.6-14.5-4.4-7.6-13.9-6.3c-15.1,1.3-32.1-15.8-46.6-18.9
							c-17.6-4.4-35.9-0.6-52.9,5c-3.8,1.3-7.6,0-8.2,5"/>
					</g>
				</g>
				<g>
					<g>
						<path class="st7" d="M997.8,936.5c-0.6,0.6-0.6,2.5-0.6-0.6c0-6.9,6.9-15.1,13.2-17c10.1-3.8,20.8,0,30.2-7.6
							c9.4-7.6,6.3-22.7,13.9-28.4c14.5-10.7,15.1,17.6,20.2,23.3c6.9,7.6,15.8,4.4,22.1,14.5c5.7,9.4,13.2,23.3,15.8,34
							c2.5,11.3-1.3,18.9-6.3,28.4c-3.2,8.2-3.2,13.9-5,22.1c-5,20.8-22.7-5-25.8-17c-4.4-14.5-1.3-29-15.8-39.1
							c-12-8.8-26.5-5.7-41-4.4c-5,0.6-35.3-0.6-22.7-11.3"/>
					</g>
					<g>
						<pattern  id="SVGID_2_" xlink:href="#SVGID_22_" patternTransform="matrix(1.8462 0 0 1.8462 11888.7725 33188.8867)">
						</pattern>
						<path class="st9" d="M997.8,936.5c-0.6,0.6-0.6,2.5-0.6-0.6c0-6.9,6.9-15.1,13.2-17c10.1-3.8,20.8,0,30.2-7.6
							c9.5-7.6,6.3-22.7,13.9-28.4c14.5-10.7,15.1,17.6,20.2,23.3c6.9,7.6,15.8,4.4,22.1,14.5c5.7,9.4,13.2,23.3,15.8,34
							c2.5,11.3-1.3,18.9-6.3,28.4c-3.1,8.2-3.1,13.9-5,22.1c-5,20.8-22.7-5-25.8-17c-4.4-14.5-1.3-29-15.8-39.1
							c-12-8.8-26.5-5.7-41-4.4c-5,0.6-35.3-0.6-22.7-11.3"/>
					</g>
				</g>
				<g>
					<g>
						<path class="st7" d="M524,1233.3c-4.4-6.9-1.9-22.1-13.9-18.9c-8.2,1.9-18.3,19.5-21.4,27.1c-9.5,22.7-0.6,38.4,17.6,52.9
							c12.6,9.5,18.3,2.5,30.9,5c5,1.3,6.3,5,10.7,6.9c3.8,2.5,8.8,1.9,12.6,4.4c8.8,4.4,12.6,15.1,20.8,20.8c6.3,5,12.6,8.2,19.5,10.7
							c16.4,7.6,29,19.5,46,21.4c20.8,2.5,31.5,21.4,41.6,37.8c6.9,11.3,10.7,8.8,20.8,14.5c4.4,2.5,4.4,6.3,9.5,7.6
							c2.5,0.6,4.4-1.9,5.7-1.9c2.5,0.6,3.8,3.2,5.7,3.2c3.2,0.6,8.8-0.6,12,0.6c4.4,1.9,6.3,7.6,10.7,10.1c10.7,5.7,11.3,0,12-9.5
							c0.6-8.8,1.3-15.8,6.9-23.3c5-6.3,16.4-10.7,17.6-19.5c1.3-8.2-8.8-17.6-12.6-23.9c-4.4-6.9-15.8-10.7-17-18.3
							c-1.3-8.8,7.6-20.2,10.7-27.1c5.7-12,9.5-24.6,15.8-36.5c8.2-17,26.5-32.8,29.6-51.7c1.9-13.9-3.8-10.7-13.2-8.2
							c-6.9,1.9-17-0.6-23.3,1.9c-3.8,1.3-5,8.8-9.5,9.4c-3.1,0-6.9-5.7-10.7-6.3c-8.2-1.9-15.8,4.4-22.1,8.2
							c-15.1,7.6-35.9,12.6-52.9,13.9c-7.6,0.6-13.2-3.2-20.8-2.5c-8.8,0.6-20.2,6.9-28.4,5c-8.2-1.9-7.6-6.3-17-5
							c-5,0.6-10.7,4.4-15.1,1.9c-5.7-3.1-4.4-13.2-8.8-17.6c-2.5-2.5-5.7-1.9-8.2-3.8c-1.9-1.3-3.2-2.5-5-4.4
							c-5.7-5.7-3.1-7.6-12.6-8.2c-4.4,0-12,0.6-15.8,3.2c-10.1,6.9-13.9,20.2-28.4,18.3"/>
					</g>
					<g>
						<pattern  id="SVGID_3_" xlink:href="#SVGID_23_" patternTransform="matrix(1.8462 0 0 1.8462 11888.7725 33188.8867)">
						</pattern>
						<path class="st10" d="M524,1233.3c-4.4-6.9-1.9-22.1-13.9-18.9c-8.2,1.9-18.3,19.5-21.4,27.1c-9.5,22.7-0.6,38.4,17.6,52.9
							c12.6,9.5,18.3,2.5,30.9,5c5,1.3,6.3,5,10.7,6.9c3.8,2.5,8.8,1.9,12.6,4.4c8.8,4.4,12.6,15.1,20.8,20.8c6.3,5,12.6,8.2,19.5,10.7
							c16.4,7.6,29,19.5,46,21.4c20.8,2.5,31.5,21.4,41.6,37.8c6.9,11.3,10.7,8.8,20.8,14.5c4.4,2.5,4.4,6.3,9.5,7.6
							c2.5,0.6,4.4-1.9,5.7-1.9c2.5,0.6,3.8,3.2,5.7,3.2c3.1,0.6,8.8-0.6,12,0.6c4.4,1.9,6.3,7.6,10.7,10.1c10.7,5.7,11.3,0,12-9.5
							c0.6-8.8,1.3-15.8,6.9-23.3c5-6.3,16.4-10.7,17.6-19.5c1.3-8.2-8.8-17.6-12.6-23.9c-4.4-6.9-15.8-10.7-17-18.3
							c-1.3-8.8,7.6-20.2,10.7-27.1c5.7-12,9.5-24.6,15.8-36.5c8.2-17,26.5-32.8,29.6-51.7c1.9-13.9-3.8-10.7-13.2-8.2
							c-6.9,1.9-17-0.6-23.3,1.9c-3.8,1.3-5,8.8-9.4,9.4c-3.2,0-6.9-5.7-10.7-6.3c-8.2-1.9-15.8,4.4-22.1,8.2
							c-15.1,7.6-35.9,12.6-52.9,13.9c-7.6,0.6-13.2-3.2-20.8-2.5c-8.8,0.6-20.2,6.9-28.4,5c-8.2-1.9-7.6-6.3-17-5
							c-5,0.6-10.7,4.4-15.1,1.9c-5.7-3.1-4.4-13.2-8.8-17.6c-2.5-2.5-5.7-1.9-8.2-3.8c-1.9-1.3-3.1-2.5-5-4.4
							c-5.7-5.7-3.2-7.6-12.6-8.2c-4.4,0-12,0.6-15.8,3.2c-10.1,6.9-13.9,20.2-28.4,18.3"/>
					</g>
				</g>
				<g>
					<pattern  id="SVGID_4_" xlink:href="#SVGID_24_" patternTransform="matrix(1.8462 0 0 1.8462 11888.7725 33188.8867)">
					</pattern>
					<path class="st11" d="M769.1,1189.2c0,3.5-1.9,9.8,3.8,9.1c6.3-0.9,3.1-10.1-2.2-9.1"/>
				</g>
				<g>
					<pattern  id="SVGID_5_" xlink:href="#SVGID_25_" patternTransform="matrix(1.8462 0 0 1.8462 11888.7725 33188.8867)">
					</pattern>
					<path class="st12" d="M765.6,1174.1c0,4.7,6.3,10.7,8.5,4.4c1.9-5.7-7.9-10.7-8.8-4.4"/>
				</g>
				<g>
					<pattern  id="SVGID_6_" xlink:href="#SVGID_26_" patternTransform="matrix(1.8462 0 0 1.8462 11888.7725 33188.8867)">
					</pattern>
					<path class="st13" d="M756.8,1162.7c-1.6,2.8-1.6,9.1,3.8,6.3c6.3-3.1-0.6-10.7-3.5-6.6"/>
				</g>
				<g>
					<pattern  id="SVGID_7_" xlink:href="#SVGID_27_" patternTransform="matrix(1.8462 0 0 1.8462 11888.7725 33188.8867)">
					</pattern>
					<path class="st14" d="M564.6,1136.9c-5,1.9-0.6,8.8,3.5,5.7c3.8-3.2-0.6-8.2-4.4-5.7"/>
				</g>
				<g>
					<pattern  id="SVGID_8_" xlink:href="#SVGID_28_" patternTransform="matrix(1.8462 0 0 1.8462 11888.7725 33188.8867)">
					</pattern>
					<path class="st15" d="M472.6,1239c-3.2,3.5,1.3,9.5,5,6.3c3.5-3.2-1.6-10.4-5-6"/>
				</g>
				<g>
					<pattern  id="SVGID_9_" xlink:href="#SVGID_29_" patternTransform="matrix(1.8462 0 0 1.8462 11888.7725 33188.8867)">
					</pattern>
					<path class="st16" d="M445.2,1387.7c1.3,10.1,10.1,17.6,20.2,21.4c6.3-13.9-20.2-37.8-21.4-17.6"/>
				</g>
				<g>
					<pattern  id="SVGID_10_" xlink:href="#SVGID_20_" patternTransform="matrix(1.8462 0 0 1.8462 11888.7725 33188.8867)">
					</pattern>
					<path class="st17" d="M445.2,1387.7"/>
				</g>
				<g>
					<path class="st7" d="M445.2,1387.7c1.3,10.1,10.1,17.6,20.2,21.4c6.3-13.9-20.2-37.8-21.4-17.6"/>
				</g>
				<g>
					<path class="st7" d="M445.2,1387.7"/>
				</g>
				<g>
					<path class="st7" d="M472.6,1239c-3.2,3.5,1.3,9.5,5,6.3c3.5-3.2-1.6-10.4-5-6"/>
				</g>
				<g>
					<path class="st7" d="M564.6,1136.9c-5,1.9-0.6,8.8,3.5,5.7c3.8-3.2-0.6-8.2-4.4-5.7"/>
				</g>
				<g>
					<path class="st7" d="M756.8,1162.7c-1.6,2.8-1.6,9.1,3.8,6.3c6.3-3.1-0.6-10.7-3.5-6.6"/>
				</g>
				<g>
					<path class="st7" d="M765.6,1174.1c0,4.7,6.3,10.7,8.5,4.4c1.9-5.7-7.9-10.7-8.8-4.4"/>
				</g>
				<g>
					<path class="st7" d="M769.1,1189.2c0,3.5-1.9,9.8,3.8,9.1c6.3-0.9,3.1-10.1-2.2-9.1"/>
				</g>
			</g>
			<g class="areagroup">
				<g>
					<g>
						<path class="st3" d="M439.7,609.9c-4.2,5.5,10.1,8.8,3.4,18.1c-4.2,5.5-8.8,0.8-13.4,4.2c-13.9,10.5,10.5,20.6,14.3,26.5
							c8.4,12.6,4.6,31.1,21.8,34.9c12.6,2.9,22.3,5.9,29.8,17.2c5.5,7.6,7.1,16.8,11.3,25.2c2.9,5.5,6.7,8,10.9,12.2
							c10.5,9.2,19.7,20.2,31.1,28.1c4.6,3.4,9.2,5.9,13.4,9.7c5,4.2,10.5,11.3,16.4,14.3c6.7,3.8,8.8-2.1,15.5-2.9
							c8.4-0.8,13.4,6.7,19.7,10.5c8,4.2,10.5-1.3,8.8-10.1c-2.1-10.5-8.4-6.7-16-7.1c-11.3-0.8-21.4-19.7-5.9-20.2
							c5.9,0,10.9,3.8,16.8,1.3c7.6-3.4,7.6-11.8,7.1-18.9c-0.4-7.6-1.7-14.7,2.1-20.6c4.6-7.1,8.8-8,1.7-15.5
							c-10.9-11.3-27.7-4.6-39.1-15.5c-5.9-5.9-3.8-9.7,3.8-12.6c5.9-2.1,19.3,2.1,22.3-1.7c3.8-5.5-5.9-14.3-9.2-17.6
							c-6.7-7.1-10.1-14.3-11.3-23.9c-0.4-6.3-1.3-15.1,5.9-18.5c5.9-2.5,12.2,3.4,18.1,1.7c11.8-4.2,8.8-28.1-4.6-25.2
							c-5.9,1.3-7.1,9.2-11.3,13c-6.3,5.5-13.4,3.4-21,3.4c-18.1,0.4-26.5,18.1-42.4,21.8c-12.6,2.5-26.5,0-28.6-13.9
							c-1.3-10.5-1.7-13.9-12.6-16c-5-1.3-13-1.7-16-6.7c-2.9-4.6,1.3-9.2-2.1-13.4c-0.8-0.4-3.8-0.4-5-0.8c-1.7-1.7-2.1-4.6-4.2-5.5
							c-5-2.9-10.1,0-12.6,4.6c-3.8,5.9-0.8,13.4-7.6,17.2c-2.5,1.3-6.3,0.8-9.2,2.1"/>
					</g>
					<g>
						<pattern  id="SVGID_11_" xlink:href="#SVGID_30_" patternTransform="matrix(1.8462 0 0 1.8462 11614.6377 33036.4063)">
						</pattern>
						<path class="st18" d="M439.7,609.9c-4.2,5.5,10.1,8.8,3.4,18.1c-4.2,5.5-8.8,0.8-13.4,4.2c-13.9,10.5,10.5,20.6,14.3,26.5
							c8.4,12.6,4.6,31.1,21.8,34.9c12.6,2.9,22.3,5.9,29.8,17.2c5.5,7.6,7.1,16.8,11.3,25.2c2.9,5.5,6.7,8,10.9,12.2
							c10.5,9.2,19.7,20.2,31.1,28.1c4.6,3.4,9.2,5.9,13.4,9.7c5,4.2,10.5,11.3,16.4,14.3c6.7,3.8,8.8-2.1,15.5-2.9
							c8.4-0.8,13.4,6.7,19.7,10.5c8,4.2,10.5-1.3,8.8-10.1c-2.1-10.5-8.4-6.7-16-7.1c-11.3-0.8-21.4-19.7-5.9-20.2
							c5.9,0,10.9,3.8,16.8,1.3c7.6-3.4,7.6-11.8,7.1-18.9c-0.4-7.6-1.7-14.7,2.1-20.6c4.6-7.1,8.8-8,1.7-15.5
							c-10.9-11.3-27.7-4.6-39.1-15.5c-5.9-5.9-3.8-9.7,3.8-12.6c5.9-2.1,19.3,2.1,22.3-1.7c3.8-5.5-5.9-14.3-9.2-17.6
							c-6.7-7.1-10.1-14.3-11.3-23.9c-0.4-6.3-1.3-15.1,5.9-18.5c5.9-2.5,12.2,3.4,18.1,1.7c11.8-4.2,8.8-28.1-4.6-25.2
							c-5.9,1.3-7.1,9.2-11.3,13c-6.3,5.5-13.4,3.4-21,3.4c-18.1,0.4-26.5,18.1-42.4,21.8c-12.6,2.5-26.5,0-28.6-13.9
							c-1.3-10.5-1.7-13.9-12.6-16c-5-1.3-13-1.7-16-6.7c-2.9-4.6,1.3-9.2-2.1-13.4c-0.8-0.4-3.8-0.4-5-0.8c-1.7-1.7-2.1-4.6-4.2-5.5
							c-5-2.9-10.1,0-12.6,4.6c-3.8,5.9-0.8,13.4-7.6,17.2c-2.5,1.3-6.3,0.8-9.2,2.1"/>
					</g>
				</g>
				<g>
					<g>
						<path class="st3" d="M475.5,579c2.5,7.1,10.1,2.1,14.7,5.9c6.3,5.9-2.5,13.9,6.3,18.5c6.7,2.9,12.2,1.3,17.2,7.6
							c5.5,7.6,5.5,19.3,16.8,19.7c21.8,0.4,36.1-22.7,56.7-24.4c5.5-0.4,12.6,2.5,11.3-6.3c-1.7-11.3-9.7-2.5-13.9-5.9
							c-4.6-3.4,2.5-11.3-0.4-14.7c-3.8-5-10.5,1.7-12.6-6.3c-1.3-4.6,0-13-0.4-18.1c-0.4-3.8,0.4-5.5-1.3-8.4
							c-1.3-2.9-2.9-2.9-3.8-6.7c-1.3-5.5,3.4-29.4,0.4-31.1c-5-3.4-7.6,8.4-12.6,8.4c-3.8,0-12.2-10.9-15.5-13.4
							c-6.3-5.5-26-23.5-35.7-21c-6.3,1.7-7.1,9.7-4.6,14.3c3.4,5.9,12.2,6.7,13.9,13c2.5,8.4-4.2,5.9-9.2,7.1
							c-5.9,2.1-10.5,7.1-13.4,12.6c-3.4,5.5-5.5,12.6-5,19.3c0.4,5.9,6.3,11.3,6.3,16.8c-0.4,11.3-15.5,2.9-13.9,12.2"/>
					</g>
					<g>
						<pattern  id="SVGID_12_" xlink:href="#SVGID_31_" patternTransform="matrix(1.8462 0 0 1.8462 11613.4063 33025.4766)">
						</pattern>
						<path class="st19" d="M475.5,579c2.5,7.1,10.1,2.1,14.7,5.9c6.3,5.9-2.5,13.9,6.3,18.5c6.7,2.9,12.2,1.3,17.2,7.6
							c5.5,7.6,5.5,19.3,16.8,19.7c21.8,0.4,36.1-22.7,56.7-24.4c5.5-0.4,12.6,2.5,11.3-6.3c-1.7-11.3-9.7-2.5-13.9-5.9
							c-4.6-3.4,2.5-11.3-0.4-14.7c-3.8-5-10.5,1.7-12.6-6.3c-1.3-4.6,0-13-0.4-18.1c-0.4-3.8,0.4-5.5-1.3-8.4
							c-1.3-2.9-2.9-2.9-3.8-6.7c-1.3-5.5,3.4-29.4,0.4-31.1c-5-3.4-7.6,8.4-12.6,8.4c-3.8,0-12.2-10.9-15.5-13.4
							c-6.3-5.5-26-23.5-35.7-21c-6.3,1.7-7.1,9.7-4.6,14.3c3.4,5.9,12.2,6.7,13.9,13c2.5,8.4-4.2,5.9-9.2,7.1
							c-5.9,2.1-10.5,7.1-13.4,12.6c-3.4,5.5-5.5,12.6-5,19.3c0.4,5.9,6.3,11.3,6.3,16.8c-0.4,11.3-15.5,2.9-13.9,12.2"/>
					</g>
				</g>
				<g>
					<g>
						<path class="st3" d="M512.8,466.5c-5.9,0.8-6.3,6.3-3.8,9.7c4.2,4.6,14.3,5.9,19.7,10.1c5,4.2,9.2,8.4,15.1,11.3
							c8.4,3.4,11.8,0.4,20.2,0.8c15.5,1.3,10.1,27.3,9.7,37.8c0,6.7,2.9,8,5,13.9c1.7,4.6-0.4,12.6,3.8,16c5.5,4.6,9.7-2.1,12.6-5.9
							c4.2-5,6.3-7.1,13.4-7.6c12.6-1.3,23.1-3.4,32.8-13c9.2-9.2,11.3-26,1.3-35.7c-6.7-6.7-16-10.5-23.1-17.2
							c-7.1-6.3-12.2-15.1-19.7-21c-10.5-8-13.9,3.4-21.4,10.1c-7.1,6.7-16.8,10.1-26.5,9.2c-10.1-0.8-17.2-4.6-23.1-12.6
							c-5-6.7-14.3-16.8-18.9-3.8"/>
					</g>
					<g>
						<pattern  id="SVGID_13_" xlink:href="#SVGID_32_" patternTransform="matrix(1.8462 0 0 1.8462 11613.4063 33025.4766)">
						</pattern>
						<path class="st20" d="M512.8,466.5c-5.9,0.8-6.3,6.3-3.8,9.7c4.2,4.6,14.3,5.9,19.7,10.1c5,4.2,9.2,8.4,15.1,11.3
							c8.4,3.4,11.8,0.4,20.2,0.8c15.5,1.3,10.1,27.3,9.7,37.8c0,6.7,2.9,8,5,13.9c1.7,4.6-0.4,12.6,3.8,16c5.5,4.6,9.7-2.1,12.6-5.9
							c4.2-5,6.3-7.1,13.4-7.6c12.6-1.3,23.1-3.4,32.8-13c9.2-9.2,11.3-26,1.3-35.7c-6.7-6.7-16-10.5-23.1-17.2
							c-7.1-6.3-12.2-15.1-19.7-21c-10.5-8-13.9,3.4-21.4,10.1c-7.1,6.7-16.8,10.1-26.5,9.2c-10.1-0.8-17.2-4.6-23.1-12.6
							c-5-6.7-14.3-16.8-18.9-3.8"/>
					</g>
				</g>
				<g>
					<g>
						<path class="st3" d="M393.1,613.9c6.3,1.3,40.8-5.9,41.6,2.9c0.8,9.7-21,9.2-20.6,22.3c-5.9,2.1-8.8-2.9-13.9-2.1
							c-5.5,0.8-10.5,10.5-15.5,2.1c-4.6-8,4.2-10.5,8.4-13c9.7-5.9,1.7-5.5-0.8-11.8c0.4-0.8,1.3-0.8,1.3-0.8"/>
					</g>
					<g>
						<pattern  id="SVGID_14_" xlink:href="#SVGID_33_" patternTransform="matrix(1.8462 0 0 1.8462 11613.4063 33025.4766)">
						</pattern>
						<path class="st21" d="M393.1,613.9c6.3,1.3,40.8-5.9,41.6,2.9c0.8,9.7-21,9.2-20.6,22.3c-5.9,2.1-8.8-2.9-13.9-2.1
							c-5.5,0.8-10.5,10.5-15.5,2.1c-4.6-8,4.2-10.5,8.4-13c9.7-5.9,1.7-5.5-0.8-11.8c0.4-0.8,1.3-0.8,1.3-0.8"/>
					</g>
				</g>
				<g>
					<pattern  id="SVGID_15_" xlink:href="#SVGID_34_" patternTransform="matrix(1.8462 0 0 1.8462 11613.4063 33025.4766)">
					</pattern>
					<path class="st22" d="M615.8,670.2c-10.1-9.2-21-26.9-2.1-33.2c14.3-5,8,9.2,6.7,18.5c-0.4,2.5-2.5,21.4-7.1,13.9"/>
				</g>
				<g>
					<pattern  id="SVGID_16_" xlink:href="#SVGID_35_" patternTransform="matrix(1.8462 0 0 1.8462 11613.4063 33025.4766)">
					</pattern>
					<path class="st23" d="M611.1,693.7c-2.9,0.4-15.5,0-15.5,3.8c-0.4,6.7,23.1,5,14.3-2.1"/>
				</g>
				<g>
					<path class="st3" d="M611.1,693.7c-2.9,0.4-15.5,0-15.5,3.8c-0.4,6.7,23.1,5,14.3-2.1"/>
				</g>
				<g>
					<path class="st3" d="M615.8,670.2c-10.1-9.2-21-26.9-2.1-33.2c14.3-5,8,9.2,6.7,18.5c-0.4,2.5-2.5,21.4-7.1,13.9"/>
				</g>
			</g>
			<g class="areagroup">
				<g>
					<path class="st24" d="M586.2,454.5c1.3,2.5-20-20-26.3-23.8c5,33.8-37.5-6.3-56.3,17.5c25,1.3,63.8,61.3,86.3,10"/>
				</g>
				<g>
					<path class="st24" d="M520.4,302.7c2.5,2.1,5.8,2.9,8.3,5c2.9,2.1,2.9,4.6,5,7.1c6.7,7.5,3.8-0.4,6.3-5.8
						c3.3,1.2,5.8,10.4,8.8,0.4c0.8-4.2-2.5-10.4-6.7-12.5c-7.5-4.6-15,2.1-21.3,5.8"/>
				</g>
				<g>
					<path class="st24" d="M269.8,357.7c4.2-2.9,9.2-15,15.4-13.8c5.8,1.3,10,11.7,8.7,15.4c-1.7,3.3-5.4,5.8-7.1,9.2
						c-2.1,4.2,0.8,7.1-5,4.2c-2.1-0.8-13.8-15-13.3-15.8"/>
				</g>
				<g>
					<path class="st24" d="M241.1,308.1c-2.5,13.8-1.3,17.5,6.3,27.5c3.8,3.8,28.8,6.3,10,17.5c17.5,6.3,17.5-22.5,32.5-16.3
						c2.5,1.3,5,13.8,11.3,17.5c6.3,3.7,16.3-1.3,23.8,1.2c17.5,7.5,22.5,30,43.8,30c16.3,0,30-7.5,47.5-7.5
						c31.3,2.5,56.3,21.3,77.5,40c12.5,8.8,25,20,43.8,17.5c23.8-2.5,13.8-12.5,2.5-23.8c-23.8-25-18.8-58.8-23.8-91.3
						c2.5,1.3,8.8,2.5,11.3,3.8c0-16.3-20-20-32.5-18.8c-6.3,1.3-11.3,6.3-20,6.3c-6.3,0-15-3.8-21.3-5c-32.5-3.8-56.3-11.3-86.3-22.5
						c-15-5-27.5-3.8-42.5-8.8c-13.8-5-32.5-15-47.5-13.8c-26.3,3.8-7.5,13.8-12.5,27.5c-6.3,15-26.3,5-25,22.5"/>
				</g>
				<g>
					<path class="st24" d="M104.4,372.3c-2.1,2.1-4.2,0.4-6.7-0.4c-2.5-0.8-2.9-5-6.2-3.3c-2.1,1.3-0.4,5.8-1.3,7.5
						c-2.5,4.6-10.4,5.8-14.6,12.1c-3.3,5.4-6.7,10-10.4,15c-5,5.8-9.6,10-4.6,17.5c4.6,5.4,13.3,9.2,20.4,9.2
						c10.8,0,19.6-7.5,27.9-13.8c12.1-8.8,23.8-19.6,33.4-31.3c6.7-8.3,7.1-15.4,17.9-12.9c9.6,2.1,8.3-2.9,14.6-9.6
						c5.8-6.3,15.4-10,24.2-9.6c10,0.4,11.7,10.4,19.6,12.1c2.5-3.3,0.8-10.8,6.3-9.2c2.5,0.8,7.1,8.8,9.2,10.4
						c9.2,7.1,22.5,19.2,32.9,22.9c1.3-2.9-0.4-10.4,2.5-10.4c3.3-0.4,4.6,5.4,6.3,6.7c2.9,3.3,2.9,4.6,5-0.4c0.4-1.3,0.4-8.8,0-10
						c-3.3-5-40.4-20-26.3-28.8c-2.9-5.4-10.4-6.7-15.4-9.6c-5-3.3-8.8-12.1-15-12.9c-7.9-0.8-17.5,7.1-22.9,11.7
						c-8.8,7.9-5.4-2.5-15-3.8c-6.3-0.8-11.7,3.3-17.9,1.7c-6.7-1.7-11.3-7.5-17.5-9.6c-7.9-2.5-10.8,0-12.5,7.9
						c-1.7,7.1-1.7,10-6.3,15.4c-5.8,7.1-2.9,11.7-3.8,20c-6.7,0-12.5-10.4-16.7,0c-1.3,3.8,2.5,6.3-2.5,7.9c-2.1,0.8-4.2-0.4-5-1.3"/>
				</g>
				<g>
					<path class="st24" d="M229.8,289.4c4.6,4.2,3.3,10.4,10.8,7.5c8.3-3.3,10-12.9,10-20.8c0-6.7-1.7-12.9,3.3-18.3
						c7.9-7.9,25-6.7,35-5.4c16.7,1.7,33.8,9.6,49.6,15c18.3,6.3,36.3,11.3,55,15.8c6.2,1.7,12.5,2.9,18.8,4.6c2.9,0.8,16.3,6.3,18.8,5
						c7.5-3.8-8.3-11.3-10.8-12.5c-6.3-4.2-12.1-10-16.7-15.8c-5-5.4-6.7-10-12.9-14.2c-7.9-4.6-5.8-6.3-5.8-15.8
						c0-2.1-2.1-7.5-1.7-9.2c1.3-4.6,5-4.2,8.3-6.3c7.9-5.4,8.8-19.2,14.6-27.1c4.2-6.3,7.9-15.4-2.9-10.8c-5.8,2.5-8.3,8.3-15,8.8
						c-13.8,1.7-19.2-20-20.4-30.8c-1.3-9.6,1.2-16.7,7.5-23.8c7.1-7.9,5.8-13.3,6.7-22.9c0.8-7.1,5-16.7,2.9-23.3
						c-2.9-9.6-12.1-3.3-18.3-7.1c-7.9-4.2-4.2-14.2-9.2-19.2c-6.3-6.3-16.7,0.4-23.3,0c-7.9-0.4-14.6,0.8-12.9,12.1
						c1.7,8.3,11.3,12.5,12.1,21.7c0,2.1,0.4,6.7-2.1,8.3c-4.6,2.1-5.4-3.3-8.3-5.4c-8.8-6.7-7.1,4.6-14.2,6.7
						c-4.6,1.7-11.7-5-15.8-7.1c-6.7-3.8-7.1-6.7-3.8-14.2c1.7-4.2,5-6.3,2.1-10.4c-4.2-5.8-12.9-3.3-16.3,0.8
						c-7.1,9.6,3.3,22.5-5.4,29.6c-4.6,3.8-7.1,3.3-11.3,8.3c-2.9,4.2-6.3,7.9-9.6,11.3c-4.2,4.6-9.6,16.3-3.3,22.1
						c-19.2,7.9-18.3-14.2-29.6-22.5c-5.8-3.8-10-1.7-12.9,4.6c-3.3,8.3-4.6,12.9-11.3,19.2c-11.3,12.1,2.5,29.6,10.8,40
						c4.6,5.4,13.3,12.1,12.1,20c-1.2,7.1-9.6,14.6-16.7,11.3c-5.8-2.5-6.7-10.8-13.8-11.3c-7.1-0.4-10.8,8.8-10,15
						c0.8,7.1,7.5,7.1,9.2,13.8c1.2,6.7-3.8,14.2,0,20.8c7.1,12.5,22.1-4.6,30.4,6.3c1.3,2.1,0.8,4.6,2.1,6.7c1.7,3.3,5,6.3,7.5,9.2
						c2.9,3.8,6.3,9.2,7.9,12.9"/>
				</g>
				<g>
					<path class="st24" d="M149.8,108.7c3.1-3.8,8.1-25.6-2.5-24.4c2.5-7.5,9.4-5.6,15.6-7.5c7.5-1.9,8.1-2.5,13.1-8.1
						c2.5-2.5,3.1-9.4,8.8-7.5c6.9,2.5,0.6,10.6,0.6,15c1.3,11.3,14.4,16.3,13.1,30c-1.2,10-8.1,23.8-20,20.6c-0.6,8.1,4.4,15,5.6,22.5
						c0.6,8.1-3.1,15.6,0,23.1c3.1,8.1,11.9,13.8,12.5,23.1c0.6,16.3-6.9,3.1-14.4,3.8c-6.3,0.6-14.4,14.4-16.3,20
						c-2.5,10,1.2,13.8,6.3,21.3c4.4,6.3,3.1,16.3,8.1,21.3c5,5.6,18.8,4.4,25.6,8.8c10.6,6.9,20,20.6,23.8,32.5
						c3.8,8.8,3.1,9.4-3.8,11.9c-1.9,0.6-6.3-0.6-8.8,0.6c-3.1,1.3-6.9,5-9.4,6.9c-23.1,15-46.3-8.8-70.7-8.1v1.3
						c-8.8,11.3-10,35-20.6,40c-1.3,0.6-3.8-1.9-5.6-1.2c-1.9,0.6-2.5,3.1-3.8,3.7c-1.9,0.6-1.9,3.8-3.8,4.4c-2.5,0.6-5-1.3-6.9-0.6
						c-7.5,1.3-12.5,5-16.9,0c-0.6-1.3-0.6-6.9-2.5-9.4c-1.9-3.8-6.9-6.3-9.4-9.4c-6.9-6.3-13.1-13.8-18.8-20.6
						c-8.1-10-11.3-14.4,0.6-20c11.3-5.6,17.5-8.8,16.3-23.1c-0.6-8.1-1.9-18.8-3.8-26.3c-0.6-3.7-5-8.8-4.4-11.9
						c1.3-4.4,8.8-5.6,11.9-8.8c2.5-3.1,1.9-6.9,5-10c3.1-3.1,7.5-4.4,10.6-6.3c8.1-3.8,15-9.4,21.9-15c3.8-3.1,8.1-6.3,11.3-10
						c1.9-3.8,2.5-9.4,5-12.5c1.9-3.1,6.9-1.9,8.8-5c1.3-3.1,0.6-13.1,0-16.9c-1.9-14.4-11.9-28.8,2.5-40.6c0.6-0.6,1.2-4.4,1.9-5
						c0.6,1.2,3.1,3.8,3.7,5.6c0-6.3,3.8-11.3,10-8.1"/>
				</g>
				<g>
					<path class="st24" d="M416.2,92.6c-8.8,2.9-15.4-1.7-23.8-2.9c-1.3,5.8,1.3,12.1,1.3,17.9c0,7.1-0.8,15-3.8,21.3
						c-5.8,15-20,19.6-9.6,37.1c4.6,7.5,10.8,10.8,19.6,8.8c4.6-1.3,10-6.3,14.6-5c12.5,2.9,0,24.6,15.4,24.6
						c8.3,0,12.5-12.1,14.6-18.3c2.1-7.5,8.3-10.8,10.8-17.9c2.1-5.8-2.5-18.3,7.9-15.4c7.1,2.1,7.9,11.7,15.8,12.9
						c7.9,1.7,12.9-6.7,11.7-14.2c-1.3-6.7-5-7.1,3.8-7.9c6.7-0.8,13.8-0.8,15.4-8.8c2.1-9.6-12.1-16.3-20.4-15
						c-5.4,0.8-10.4,5.4-15.4,7.5c-6.7,2.5-13.3,3.8-20.4,4.6c-18.3,1.7-2.5-10.8,0.4-17.5c2.1-5.8,3.3-13.8-2.5-15.8
						c-6.3-1.7-10.8,4.6-15.8,7.1c-5.8,2.9-6.3,0.8-11.7-1.2c-5.8-2.1-5.8-0.4-11.7,1.2"/>
				</g>
			</g>
			<g class="areagroup">
				<path class="st25" d="M4.3,241c0,2.5-1.7,6.3-0.8,8.8c2.1,5,5,2.5,9.2,4.2c5.4,2.5,5.8,7.9,10.8,10.8c5.8,3.8,14.2,1.7,14.6,10.8
					c0.4,7.5-7.1,14.2-10.8,20c-2.5,4.2-2.1,4.6-5.8,7.1c-3.8,2.5-5.8,1.3-8.3,5.4c-2.9,6.3,0.4,16.3,2.1,22.5
					c2.1,8.3,7.1,13.8,11.3,20.8c2.9,5.8,5,11.3,10.8,14.2c16.7,8.3,22.5-22.5,34.2-5c2.1,3.8,10.4,12.1,7.5,0.8
					c-1.7-5-12.1-10.4-15.4-14.2c-5.4-5.4-9.6-11.7-15-17.1c-5.8-6.3-12.9-10.8-12.9-19.6c-0.4-17.5,17.9-19.2,21.7-33.8
					c1.7-7.1-0.8-16.3-2.1-23.8c-2.1-9.6-6.3-8.8-14.2-14.2c-7.5-5-10.4-9.6-20.4-8.3c-7.5,1.3-15,4.6-17.1,12.1"/>
			</g>
			<g class="areagroup">
				<g>
					<path class="st26" d="M51.4,189.8c-1.7,4.6-8.8-6.3-8.3-10.4c0.4-3.8,3.8-6.7,3.8-10.8c0-5-2.9-7.5-5.8-10.8
						c-2.5-3.8-8.3-11.7-5.8-16.7c2.5-5,5.8-1.7,9.6-2.9c4.2-1.3,2.5,0,4.2-5.4c3.3-11.7,5.4-7.9,13.3-1.7c2.5,2.1,6.3,4.2,9.6,3.8
						c3.3-0.8,4.2-5,6.3-5.4c5.8-2.1,10,5.4,16.3,4.2c7.9-1.7,5-10,12.5-9.2c5,0.8,12.9,6.3,15,10.4c1.7,4.6,0.8,11.7,2.1,16.3
						c0.8,3.8,1.7,7.1,1.3,11.3c-0.8,7.9-4.2,8.3-8.3,13.8c-4.2,5-1.7,8.3-8.3,11.3c-2.5,0.8-5,0.8-7.5,2.1c-4.2,2.1-2.1,4.6-7.5,2.9
						c-2.5-0.8-3.3-4.2-5.8-5c-2.5-0.8-6.7,0-9.6,0.4c-10.8,0.8-19.6,11.3-30.4,2.9"/>
				</g>
				<g>
					<path class="st26" d="M28.1,225.6c0,0,2.5-5,3.7-6.3c3.8-5.8,10-7.9,14.2-13.3c2.1-2.9,2.1-7.5,5-9.2c2.5-1.2,7.9,1.3,10.8,0.8
						c6.7-0.8,12.1-4.6,18.8-4.2c6.7,0.4,13.3,7.1,20,3.3c1.2,6.7-13.8,10-18.8,13.3c-9.2,5.8-14.6,14.6-21.7,22.5
						c-8.3,9.6-12.5,4.6-21.3-1.3c-2.9-2.1-14.6-5.4-10.8-8.3"/>
				</g>
			</g>
			<g class="areagroup">
				<g>
					<path class="st27" d="M541.2,69.7c1.2-22.5-47.9-6.3-45.4,5.8c0.4,1.7,4.2,3.8,5,5.4c1.3,2.1,0.4,5,1.7,7.1
						c6.3,9.6,5.8-2.1,10.8-4.6c5.8-2.9,10.8-0.4,17.1-5c4.6-2.9,7.9-6.7,10.8-11.7"/>
				</g>
				<g>
					<path class="st27" d="M514.9,90.1c-2.1,0.8-3.8,2.5-3.3,5c9.6-0.8,24.6-11.7,34.6-5.4c4.6,2.9,4.2,6.7,10.8,8.3
						c2.9,0.8,4.2,0,7.1,1.7c2.5,1.7,1.7,7.1,7.1,5.4c3.8-0.8,6.7-11.3,10-14.2c4.2-3.8,12.9-7.1,12.9-13.8
						c-0.4-5.8-9.6-12.5-15.4-12.1c-6.3,0.4-8.3,7.1-14.2,8.8c-5.8,1.7-7.5-2.1-12.5-2.9c-6.3-0.8-8.8,4.2-13.3,7.9
						c-7.5,6.3-20.4,5-25.8,13.8"/>
				</g>
			</g>
			<g class="areagroup">
				<path class="st6" d="M602.5,78.9c-5.4,1.7-7.5,12.5-11.7,17.1c-6.3,6.3-13.3,13.8-21.3,17.9c-11.7,6.7-15.8,10.8-7.1,23.8
					c3.3,5.4,8.3,9.6,10.8,15.4c2.9,5.8,2.9,11.7,7.9,16.7c5.4,5,13.3,7.9,19.2,12.9c6.3,5,8.3,11.3,12.9,17.5
					c7.5,10.4,13.3,2.1,23.3,1.3c8.8-0.8,6.7,2.1,10.4,7.9c0.8,1.7,2.9,4.6,4.6,5c5.8,0.8,3.8-4.6,6.3-7.5c3.8-4.6,3.8-3.3,7.9,1.7
					c2.9,3.8,4.6,7.5,6.7,11.3c5.4,9.2,8.3,17.9-5.4,17.9c2.5,5.8,16.7,5.4,17.5-1.3c1.3-5.4-7.5-17.1-10-22.1
					c-3.3-6.3-7.1-10.4-6.7-17.9c0.8-9.2,2.1-7.9-7.5-9.6c-15-2.9-3.8-24.2-16.3-32.9c-7.9-5.4-11.3-6.3-8.8-17.5
					c1.3-3.3,2.1-8.3,4.2-11.3c2.9-4.2,8.3-5.8,10.8-10.4c4.6-9.2-2.5-10.8-5-18.3c-1.3-3.7,1.7-5-2.1-7.1c-3.3-1.7-8.8,2.1-11.7,2.1
					c-9.6,0-22.9-22.9-32.5-11.3"/>
				<g>
					<pattern  id="SVGID_17_" xlink:href="#SVGID_38_" patternTransform="matrix(1.8462 0 0 1.8462 11309.8184 33228.8477)">
					</pattern>
					<path class="st28" d="M602.5,78.9c-5.4,1.7-7.5,12.5-11.7,17.1c-6.3,6.3-13.3,13.8-21.3,17.9c-11.7,6.7-15.8,10.8-7.1,23.8
						c3.3,5.4,8.3,9.6,10.8,15.4c2.9,5.8,2.9,11.7,7.9,16.7c5.4,5,13.3,7.9,19.2,12.9c6.3,5,8.3,11.3,12.9,17.5
						c7.5,10.4,13.3,2.1,23.3,1.3c8.8-0.8,6.7,2.1,10.4,7.9c0.8,1.7,2.9,4.6,4.6,5c5.8,0.8,3.8-4.6,6.3-7.5c3.8-4.6,3.8-3.3,7.9,1.7
						c2.9,3.8,4.6,7.5,6.7,11.3c5.4,9.2,8.3,17.9-5.4,17.9c2.5,5.8,16.7,5.4,17.5-1.3c1.3-5.4-7.5-17.1-10-22.1
						c-3.3-6.3-7.1-10.4-6.7-17.9c0.8-9.2,2.1-7.9-7.5-9.6c-15-2.9-3.8-24.2-16.3-32.9c-7.9-5.4-11.3-6.3-8.8-17.5
						c1.3-3.3,2.1-8.3,4.2-11.3c2.9-4.2,8.3-5.8,10.8-10.4c4.6-9.2-2.5-10.8-5-18.3c-1.3-3.7,1.7-5-2.1-7.1c-3.3-1.7-8.8,2.1-11.7,2.1
						c-9.6,0-22.9-22.9-32.5-11.3"/>
				</g>
			</g>
			<g class="areagroup">
				<path class="st29" d="M650.8,91.8c2.9,9.2,13.3,17.5,6.7,27.9c-3.8,5.4-14.6,7.5-15.8,14.6c-1.3,8.8,11.7,21.7,13.3,30.8
					c1.3,8.3,3.3,11.3,10.8,15.4c7.5,4.2,9.2,5,8.7,13.8c0,7.1,1.7,9.2,5,15.4c2.5,4.6,2.1,11.3,5,15.4c6.3,9.2,6.7-1.7,4.6-7.1
					c-1.7-5.4-5.8-10.4-7.1-16.3c-0.8-5.4,2.5-10.4,1.7-15.8c-1.2-9.6-10.4-6.7-15.4-12.5c-7.9-8.3,26.7-17.5-1.2-22.9
					c-6.3-0.8-15.4-5.4-11.3-13.3c1.2-2.1,5.4-3.8,7.5-5c5.8-4.2,10.8-8.8,15.8-13.8c4.2-4.2,12.1-10.4,6.7-16.7
					c-3.3-3.3-11.3-5-15-7.9c-3.8-2.5-19.6-10.4-21.7-2.5"/>
			</g>
			<g class="areagroup">
				<g>
					<g>
						<path class="st5" d="M404.9,258.3c-10-2.9,3.8-14.6,5.8-17.5c7.1-9.2,0.8-24.6,0-35c0-2.1-1.2-8.8,0.8-10c3.8-3.3,5,1.3,7.9,2.9
							c5,2.9,15,3.7,20,0.4c7.5-4.6,9.6-19.2,13.3-27.1c1.7-3.8,3.3-7.5,5-11.3c2.1-5.4,1.7-7.1,7.1-5.8c6.7,1.7,11.3,7.1,19.6,7.1
							c5.8,0,13.8-1.3,16.3-7.5c2.1-6.3-2.1-9.2,3.8-14.2c5.8-5,11.7-6.7,11.7-16.3c-0.4-8.3-10.8-10-9.2-16.7c2.1-7.1,20-10,25.9-12.1
							c15.8-6.3,6.3,2.1,15.8,7.5c5.4,2.9,20.8-2.1,13.8,10.8c-3.3,6.7-12.1,7.5-12.1,16.3c0,8.8,10.4,15,10.4,23.8
							c0,6.3-6.3,8.3-6.3,15.4c0,6.3,1.7,13.3,5.4,18.3c8.8,12.9,20.8,7.5,33.3,12.1c13.3,4.6,21.7,18.8,2.9,23.3
							c-8.3,2.1-13.8-0.4-20.8,6.3c-4.2,4.2-7.1,11.3-13.3,12.9c-13.8,3.8-6.7-17.1-20.8-12.9c-10.8,2.9-20.4,17.9-17.5,29.2
							c2.5,12.5,20.8,10,13.8,27.5c-2.9,7.1-10.4,12.1-11.7,1.3h-0.4l0,0c-2.9,1.2-5.4,4.6-7.9,6.7c-6.7,5.4-12.9,2.9-20.8,5
							c-12.1,2.5-20,7.9-33.3,7.1c-5.4-0.4-11.7-0.8-16.3-4.2c-7.5-5-9.2-15.4-15.4-21.7c-8.8-7.9-21.3-15-27.5-25.4"/>
					</g>
					<g>
						<pattern  id="SVGID_18_" xlink:href="#SVGID_36_" patternTransform="matrix(1.8462 0 0 1.8462 11691.2607 33344.0156)">
						</pattern>
						<path class="st30" d="M404.9,258.3c-10-2.9,3.8-14.6,5.8-17.5c7.1-9.2,0.8-24.6,0-35c0-2.1-1.2-8.8,0.8-10c3.8-3.3,5,1.3,7.9,2.9
							c5,2.9,15,3.7,20,0.4c7.5-4.6,9.6-19.2,13.3-27.1c1.7-3.8,3.3-7.5,5-11.3c2.1-5.4,1.7-7.1,7.1-5.8c6.7,1.7,11.3,7.1,19.6,7.1
							c5.8,0,13.8-1.3,16.3-7.5c2.1-6.3-2.1-9.2,3.8-14.2c5.8-5,11.7-6.7,11.7-16.3c-0.4-8.3-10.8-10-9.2-16.7c2.1-7.1,20-10,25.9-12.1
							c15.8-6.3,6.3,2.1,15.8,7.5c5.4,2.9,20.8-2.1,13.8,10.8c-3.3,6.7-12.1,7.5-12.1,16.3c0,8.8,10.4,15,10.4,23.8
							c0,6.3-6.3,8.3-6.3,15.4c0,6.3,1.7,13.3,5.4,18.3c8.8,12.9,20.8,7.5,33.3,12.1c13.3,4.6,21.7,18.8,2.9,23.3
							c-8.3,2.1-13.8-0.4-20.8,6.3c-4.2,4.2-7.1,11.3-13.3,12.9c-13.8,3.8-6.7-17.1-20.8-12.9c-10.8,2.9-20.4,17.9-17.5,29.2
							c2.5,12.5,20.8,10,13.8,27.5c-2.9,7.1-10.4,12.1-11.7,1.3h-0.4l0,0c-2.9,1.2-5.4,4.6-7.9,6.7c-6.7,5.4-12.9,2.9-20.8,5
							c-12.1,2.5-20,7.9-33.3,7.1c-5.4-0.4-11.7-0.8-16.3-4.2c-7.5-5-9.2-15.4-15.4-21.7c-8.8-7.9-21.3-15-27.5-25.4"/>
					</g>
				</g>
				<g>
					<g>
						<path class="st5" d="M568.3,151.8c-4.6,2.9-8.8,22.9-6.2,27.9c3.8,6.3,22.5,11.7,30,12.1c18.8,0.4-8.3-12.9-12.1-15.4
							c-4.2-3.3-6.7-6.7-8.3-11.7c-1.2-3.8-0.8-12.9-5.8-12.9"/>
					</g>
					<g>
						<pattern  id="SVGID_19_" xlink:href="#SVGID_37_" patternTransform="matrix(1.8462 0 0 1.8462 11691.2607 33344.0156)">
						</pattern>
						<path class="st31" d="M568.3,151.8c-4.6,2.9-8.8,22.9-6.2,27.9c3.8,6.3,22.5,11.7,30,12.1c18.8,0.4-8.3-12.9-12.1-15.4
							c-4.2-3.3-6.7-6.7-8.3-11.7c-1.2-3.8-0.8-12.9-5.8-12.9"/>
					</g>
				</g>
			</g>
		</svg>