<svg id="Layer_1" data-name="Layer 1" xmlns="http://www.w3.org/2000/svg" viewBox="0 0 548.06 418.95"><defs><style>.cls-1{fill:#bbd473;fill-rule:evenodd;}.cls-pi {fill: #231f20;}</style></defs><title>Artboard 9</title><path class="cls-1" d="M544.31,394.51c1.25,2.5-20-20-26.26-23.76,5,33.77-37.52-6.25-56.27,17.51,25,1.25,63.77,61.27,86.28,10"/><path class="cls-1" d="M478.45,242.79c2.5,2.08,5.84,2.92,8.34,5,2.91,2.08,2.91,4.58,5,7.08,6.66,7.5,3.75-.41,6.25-5.83,3.33,1.25,5.83,10.42,8.75.41.83-4.17-2.5-10.42-6.67-12.5-7.5-4.59-15,2.08-21.26,5.83"/><path class="cls-1" d="M227.93,297.81c4.17-2.92,9.17-15,15.43-13.76,5.83,1.25,10,11.67,8.75,15.42-1.66,3.33-5.42,5.84-7.08,9.17-2.09,4.17.83,7.09-5,4.17-2.08-.83-13.75-15-13.34-15.84"/><path class="cls-1" d="M199.17,248.2c-2.5,13.75-1.25,17.51,6.25,27.51,3.75,3.75,28.76,6.25,10,17.5,17.51,6.25,17.51-22.51,32.51-16.25,2.5,1.25,5,13.75,11.25,17.51s16.26-1.25,23.76,1.25c17.51,7.5,22.51,30,43.77,30,16.26,0,30-7.5,47.52-7.5,31.27,2.5,56.27,21.26,77.53,40,12.5,8.75,25,20,43.77,17.5,23.76-2.5,13.75-12.51,2.5-23.76-23.76-25-18.76-58.78-23.76-91.29,2.5,1.25,8.75,2.5,11.25,3.75,0-16.26-20-20-32.51-18.76C446.77,247,441.77,252,433,252c-6.26,0-15-3.75-21.26-5-32.51-3.75-56.27-11.25-86.29-22.51-15-5-27.51-3.75-42.52-8.75-13.75-5-32.51-15-47.52-13.75-26.26,3.75-7.51,13.75-12.51,27.51-6.25,15-26.26,5-25,22.51"/><path class="cls-1" d="M62.45,312.4c-2.09,2.08-4.17.42-6.67-.42s-2.92-5-6.25-3.33c-2.09,1.25-.42,5.84-1.25,7.51-2.5,4.58-10.42,5.83-14.59,12.09-3.33,5.42-6.67,10-10.42,15-5,5.84-9.59,10-4.58,17.51,4.58,5.42,13.34,9.17,20.43,9.17,10.83,0,19.59-7.5,27.92-13.76a182.07,182.07,0,0,0,33.35-31.26c6.67-8.33,7.09-15.42,17.92-12.92,9.59,2.08,8.34-2.92,14.59-9.59,5.84-6.25,15.42-10,24.17-9.59,10,.41,11.67,10.42,19.59,12.09,2.5-3.34.84-10.84,6.26-9.17,2.5.83,7.08,8.76,9.17,10.42,9.17,7.08,22.51,19.17,32.93,22.92,1.25-2.92-.42-10.42,2.5-10.42,3.33-.42,4.58,5.42,6.26,6.67,2.91,3.34,2.91,4.59,5-.42a39.59,39.59,0,0,0,0-10c-3.33-5-40.43-20-26.25-28.76-2.92-5.42-10.43-6.67-15.43-9.59-5-3.33-8.76-12.09-15-12.92-7.92-.83-17.51,7.09-22.93,11.67-8.75,7.92-5.42-2.5-15-3.75-6.25-.83-11.67,3.34-17.92,1.67-6.67-1.67-11.26-7.5-17.51-9.59-7.92-2.5-10.84,0-12.5,7.92-1.67,7.08-1.67,10-6.25,15.42-5.84,7.09-2.92,11.67-3.76,20-6.67,0-12.5-10.42-16.67,0-1.25,3.75,2.5,6.25-2.5,7.92a4.92,4.92,0,0,1-5-1.25"/><path class="cls-1" d="M187.91,229.45c4.59,4.17,3.34,10.42,10.84,7.5,8.33-3.34,10-12.92,10-20.84,0-6.67-1.67-12.92,3.33-18.34,7.92-7.92,25-6.67,35-5.42,16.67,1.67,33.76,9.59,49.61,15,18.34,6.25,36.26,11.26,55,15.84,6.25,1.66,12.5,2.92,18.76,4.59,2.91.83,16.25,6.25,18.75,5,7.51-3.75-8.33-11.25-10.84-12.5a75.3,75.3,0,0,1-16.67-15.84c-5-5.42-6.67-10-12.92-14.17C340.9,185.68,343,184,343,174.42c0-2.09-2.08-7.5-1.67-9.17,1.25-4.59,5-4.17,8.33-6.25,7.93-5.42,8.76-19.17,14.59-27.09,4.17-6.25,7.92-15.42-2.92-10.84-5.83,2.5-8.34,8.34-15,8.76-13.76,1.67-19.17-20-20.42-30.84-1.25-9.59,1.25-16.67,7.5-23.76,7.08-7.92,5.84-13.34,6.67-22.93.83-7.08,5-16.67,2.92-23.34-2.92-9.59-12.09-3.34-18.34-7.09-7.92-4.17-4.16-14.17-9.17-19.17-6.25-6.25-16.68.42-23.34,0-7.92-.42-14.59.83-12.92,12.09,1.67,8.34,11.26,12.5,12.09,21.67,0,2.08.42,6.67-2.08,8.34-4.59,2.08-5.42-3.34-8.34-5.42C272.12,32.7,273.78,44,266.7,46,262.11,47.71,255,41,250.86,39c-6.67-3.75-7.09-6.67-3.75-14.17,1.67-4.17,5-6.25,2.08-10.42-4.17-5.83-12.92-3.33-16.25.83-7.08,9.59,3.33,22.51-5.42,29.6-4.58,3.75-7.08,3.33-11.25,8.34a84.91,84.91,0,0,1-9.59,11.25c-4.17,4.59-9.59,16.26-3.34,22.09C184.16,94.39,185,72.3,173.74,64c-5.83-3.75-10-1.67-12.92,4.58-3.33,8.34-4.58,12.92-11.26,19.18-11.26,12.09,2.5,29.59,10.84,40,4.59,5.42,13.34,12.09,12.09,20-1.25,7.09-9.59,14.59-16.67,11.25-5.84-2.5-6.67-10.84-13.75-11.25s-10.84,8.75-10,15c.83,7.09,7.5,7.09,9.17,13.76,1.25,6.67-3.75,14.17,0,20.84,7.09,12.51,22.09-4.58,30.42,6.25,1.26,2.09.84,4.59,2.09,6.67,1.67,3.33,5,6.25,7.51,9.17a72.16,72.16,0,0,1,7.92,12.92"/><path class="cls-1" d="M107.88,48.75C111,45,116,23.11,105.38,24.36c2.5-7.5,9.38-5.63,15.63-7.5,7.5-1.87,8.13-2.5,13.13-8.13,2.5-2.5,3.12-9.38,8.75-7.5,6.88,2.5.63,10.63.63,15,1.25,11.25,14.38,16.25,13.12,30-1.25,10-8.12,23.76-20,20.63-.63,8.13,4.38,15,5.63,22.51.62,8.13-3.13,15.63,0,23.13,3.12,8.13,11.88,13.76,12.5,23.14.63,16.25-6.88,3.13-14.38,3.75-6.26.62-14.38,14.38-16.26,20-2.5,10,1.25,13.76,6.25,21.26,4.38,6.25,3.13,16.26,8.13,21.26,5,5.63,18.75,4.38,25.63,8.75,10.63,6.88,20,20.64,23.76,32.51,3.75,8.75,3.13,9.38-3.75,11.88-1.87.63-6.25-.62-8.75.63-3.12,1.25-6.88,5-9.37,6.88-23.14,15-46.27-8.75-70.65-8.13v1.25c-8.76,11.25-10,35-20.64,40-1.25.62-3.75-1.87-5.62-1.25s-2.5,3.12-3.75,3.75c-1.88.63-1.88,3.75-3.75,4.38-2.5.62-5-1.25-6.88-.63-7.5,1.25-12.51,5-16.88,0-.62-1.25-.62-6.88-2.5-9.38-1.88-3.76-6.88-6.25-9.38-9.38C19.1,277,12.85,269.46,7.22,262.59c-8.13-10-11.25-14.38.63-20C19.1,237,25.35,233.82,24.1,219.44c-.63-8.13-1.88-18.76-3.76-26.26-.62-3.75-5-8.75-4.37-11.88,1.25-4.38,8.75-5.63,11.88-8.75,2.5-3.13,1.88-6.88,5-10s7.5-4.38,10.63-6.25c8.13-3.75,15-9.38,21.88-15,3.75-3.12,8.13-6.25,11.25-10,1.88-3.75,2.5-9.38,5-12.51,1.88-3.13,6.88-1.87,8.75-5,1.25-3.13.63-13.13,0-16.88C88.5,82.51,78.5,68.13,92.88,56.25c.63-.62,1.25-4.37,1.88-5,.63,1.25,3.13,3.75,3.75,5.63,0-6.25,3.75-11.25,10-8.13"/><path class="cls-1" d="M374.25,32.7c-8.75,2.91-15.42-1.67-23.76-2.92-1.25,5.84,1.25,12.09,1.25,17.92,0,7.09-.84,15-3.76,21.26-5.84,15-20,19.59-9.59,37.09,4.59,7.5,10.84,10.84,19.59,8.75,4.59-1.25,10-6.25,14.59-5,12.5,2.92,0,24.6,15.42,24.6,8.33,0,12.5-12.09,14.59-18.34,2.08-7.5,8.33-10.84,10.84-17.92,2.08-5.84-2.5-18.34,7.92-15.42,7.09,2.08,7.92,11.67,15.84,12.92,7.92,1.67,12.92-6.67,11.67-14.17-1.25-6.67-5-7.09,3.75-7.92,6.67-.83,13.76-.83,15.43-8.75,2.08-9.59-12.09-16.26-20.43-15-5.42.83-10.42,5.42-15.42,7.5a85.41,85.41,0,0,1-20.43,4.58c-18.34,1.67-2.5-10.84.41-17.51,2.09-5.84,3.34-13.75-2.5-15.84-6.25-1.67-10.83,4.59-15.84,7.09-5.83,2.92-6.25.83-11.68-1.25-5.83-2.09-5.83-.42-11.67,1.25"/><circle class="cls-pi pigroup genova" picode="genova" cx="149.21" cy="286.96" r="8.75"/><circle class="cls-pi pigroup trento" picode="trento" cx="415.21" cy="73.96" r="8.75"/></svg>