<svg xmlns="http://www.w3.org/2000/svg" xmlns:xlink="http://www.w3.org/1999/xlink" viewBox="0 0 265.9 352.95">
  <defs>
    <style>
      .cls-1, .cls-2 {
        fill: none;
      }

      .cls-2 {
        stroke: #231f20;
        stroke-width: 0.3px;
      }

      .cls-3 {
        fill: #97d3be;
      }

      .cls-3, .cls-4, .cls-5, .cls-6 {
        fill-rule: evenodd;
      }

      .cls-4 {
        fill: url(#Crosses);
      }

      .cls-5 {
        fill: url(#Crosses-3);
      }

      .cls-6 {
        fill: url(#Crosses-9);
      }

      .cls-7 {
        fill: #231f20;
      }
    </style>
    <pattern id="Crosses" data-name="Crosses" width="57.6" height="57.6" patternTransform="translate(10.15 213.74) scale(1.85)" patternUnits="userSpaceOnUse" viewBox="0 0 57.6 57.6">
      <rect class="cls-1" width="57.6" height="57.6"/>
      <line class="cls-2" x1="52.5" y1="3.6" x2="55.5" y2="3.6"/>
      <line class="cls-2" x1="38.1" y1="3.6" x2="41.1" y2="3.6"/>
      <line class="cls-2" x1="23.7" y1="3.6" x2="26.7" y2="3.6"/>
      <line class="cls-2" x1="9.3" y1="3.6" x2="12.3" y2="3.6"/>
      <line class="cls-2" x1="45.3" y1="10.8" x2="48.3" y2="10.8"/>
      <line class="cls-2" x1="30.9" y1="10.8" x2="33.9" y2="10.8"/>
      <line class="cls-2" x1="16.5" y1="10.8" x2="19.5" y2="10.8"/>
      <line class="cls-2" x1="2.1" y1="10.8" x2="5.1" y2="10.8"/>
      <line class="cls-2" x1="52.5" y1="18" x2="55.5" y2="18"/>
      <line class="cls-2" x1="38.1" y1="18" x2="41.1" y2="18"/>
      <line class="cls-2" x1="23.7" y1="18" x2="26.7" y2="18"/>
      <line class="cls-2" x1="9.3" y1="18" x2="12.3" y2="18"/>
      <line class="cls-2" x1="45.3" y1="25.2" x2="48.3" y2="25.2"/>
      <line class="cls-2" x1="30.9" y1="25.2" x2="33.9" y2="25.2"/>
      <line class="cls-2" x1="16.5" y1="25.2" x2="19.5" y2="25.2"/>
      <line class="cls-2" x1="2.1" y1="25.2" x2="5.1" y2="25.2"/>
      <line class="cls-2" x1="52.5" y1="32.4" x2="55.5" y2="32.4"/>
      <line class="cls-2" x1="38.1" y1="32.4" x2="41.1" y2="32.4"/>
      <line class="cls-2" x1="23.7" y1="32.4" x2="26.7" y2="32.4"/>
      <line class="cls-2" x1="9.3" y1="32.4" x2="12.3" y2="32.4"/>
      <line class="cls-2" x1="45.3" y1="39.6" x2="48.3" y2="39.6"/>
      <line class="cls-2" x1="30.9" y1="39.6" x2="33.9" y2="39.6"/>
      <line class="cls-2" x1="16.5" y1="39.6" x2="19.5" y2="39.6"/>
      <line class="cls-2" x1="2.1" y1="39.6" x2="5.1" y2="39.6"/>
      <line class="cls-2" x1="52.5" y1="46.8" x2="55.5" y2="46.8"/>
      <line class="cls-2" x1="38.1" y1="46.8" x2="41.1" y2="46.8"/>
      <line class="cls-2" x1="23.7" y1="46.8" x2="26.7" y2="46.8"/>
      <line class="cls-2" x1="9.3" y1="46.8" x2="12.3" y2="46.8"/>
      <line class="cls-2" x1="45.3" y1="54" x2="48.3" y2="54"/>
      <line class="cls-2" x1="30.9" y1="54" x2="33.9" y2="54"/>
      <line class="cls-2" x1="16.5" y1="54" x2="19.5" y2="54"/>
      <line class="cls-2" x1="2.1" y1="54" x2="5.1" y2="54"/>
      <line class="cls-2" x1="54" y1="2.1" x2="54" y2="5.1"/>
      <line class="cls-2" x1="39.6" y1="2.1" x2="39.6" y2="5.1"/>
      <line class="cls-2" x1="25.2" y1="2.1" x2="25.2" y2="5.1"/>
      <line class="cls-2" x1="10.8" y1="2.1" x2="10.8" y2="5.1"/>
      <line class="cls-2" x1="46.8" y1="9.3" x2="46.8" y2="12.3"/>
      <line class="cls-2" x1="32.4" y1="9.3" x2="32.4" y2="12.3"/>
      <line class="cls-2" x1="18" y1="9.3" x2="18" y2="12.3"/>
      <line class="cls-2" x1="3.6" y1="9.3" x2="3.6" y2="12.3"/>
      <line class="cls-2" x1="54" y1="16.5" x2="54" y2="19.5"/>
      <line class="cls-2" x1="39.6" y1="16.5" x2="39.6" y2="19.5"/>
      <line class="cls-2" x1="25.2" y1="16.5" x2="25.2" y2="19.5"/>
      <line class="cls-2" x1="10.8" y1="16.5" x2="10.8" y2="19.5"/>
      <line class="cls-2" x1="46.8" y1="23.7" x2="46.8" y2="26.7"/>
      <line class="cls-2" x1="32.4" y1="23.7" x2="32.4" y2="26.7"/>
      <line class="cls-2" x1="18" y1="23.7" x2="18" y2="26.7"/>
      <line class="cls-2" x1="3.6" y1="23.7" x2="3.6" y2="26.7"/>
      <line class="cls-2" x1="54" y1="30.9" x2="54" y2="33.9"/>
      <line class="cls-2" x1="39.6" y1="30.9" x2="39.6" y2="33.9"/>
      <line class="cls-2" x1="25.2" y1="30.9" x2="25.2" y2="33.9"/>
      <line class="cls-2" x1="10.8" y1="30.9" x2="10.8" y2="33.9"/>
      <line class="cls-2" x1="46.8" y1="38.1" x2="46.8" y2="41.1"/>
      <line class="cls-2" x1="32.4" y1="38.1" x2="32.4" y2="41.1"/>
      <line class="cls-2" x1="18" y1="38.1" x2="18" y2="41.1"/>
      <line class="cls-2" x1="3.6" y1="38.1" x2="3.6" y2="41.1"/>
      <line class="cls-2" x1="54" y1="45.3" x2="54" y2="48.3"/>
      <line class="cls-2" x1="39.6" y1="45.3" x2="39.6" y2="48.3"/>
      <line class="cls-2" x1="25.2" y1="45.3" x2="25.2" y2="48.3"/>
      <line class="cls-2" x1="10.8" y1="45.3" x2="10.8" y2="48.3"/>
      <line class="cls-2" x1="46.8" y1="52.5" x2="46.8" y2="55.5"/>
      <line class="cls-2" x1="32.4" y1="52.5" x2="32.4" y2="55.5"/>
      <line class="cls-2" x1="18" y1="52.5" x2="18" y2="55.5"/>
      <line class="cls-2" x1="3.6" y1="52.5" x2="3.6" y2="55.5"/>
    </pattern>
    <pattern id="Crosses-3" data-name="Crosses" width="57.6" height="57.6" patternTransform="translate(8.92 208.99) scale(1.85)" patternUnits="userSpaceOnUse" viewBox="0 0 57.6 57.6">
      <rect class="cls-1" width="57.6" height="57.6"/>
      <line class="cls-2" x1="52.5" y1="3.6" x2="55.5" y2="3.6"/>
      <line class="cls-2" x1="38.1" y1="3.6" x2="41.1" y2="3.6"/>
      <line class="cls-2" x1="23.7" y1="3.6" x2="26.7" y2="3.6"/>
      <line class="cls-2" x1="9.3" y1="3.6" x2="12.3" y2="3.6"/>
      <line class="cls-2" x1="45.3" y1="10.8" x2="48.3" y2="10.8"/>
      <line class="cls-2" x1="30.9" y1="10.8" x2="33.9" y2="10.8"/>
      <line class="cls-2" x1="16.5" y1="10.8" x2="19.5" y2="10.8"/>
      <line class="cls-2" x1="2.1" y1="10.8" x2="5.1" y2="10.8"/>
      <line class="cls-2" x1="52.5" y1="18" x2="55.5" y2="18"/>
      <line class="cls-2" x1="38.1" y1="18" x2="41.1" y2="18"/>
      <line class="cls-2" x1="23.7" y1="18" x2="26.7" y2="18"/>
      <line class="cls-2" x1="9.3" y1="18" x2="12.3" y2="18"/>
      <line class="cls-2" x1="45.3" y1="25.2" x2="48.3" y2="25.2"/>
      <line class="cls-2" x1="30.9" y1="25.2" x2="33.9" y2="25.2"/>
      <line class="cls-2" x1="16.5" y1="25.2" x2="19.5" y2="25.2"/>
      <line class="cls-2" x1="2.1" y1="25.2" x2="5.1" y2="25.2"/>
      <line class="cls-2" x1="52.5" y1="32.4" x2="55.5" y2="32.4"/>
      <line class="cls-2" x1="38.1" y1="32.4" x2="41.1" y2="32.4"/>
      <line class="cls-2" x1="23.7" y1="32.4" x2="26.7" y2="32.4"/>
      <line class="cls-2" x1="9.3" y1="32.4" x2="12.3" y2="32.4"/>
      <line class="cls-2" x1="45.3" y1="39.6" x2="48.3" y2="39.6"/>
      <line class="cls-2" x1="30.9" y1="39.6" x2="33.9" y2="39.6"/>
      <line class="cls-2" x1="16.5" y1="39.6" x2="19.5" y2="39.6"/>
      <line class="cls-2" x1="2.1" y1="39.6" x2="5.1" y2="39.6"/>
      <line class="cls-2" x1="52.5" y1="46.8" x2="55.5" y2="46.8"/>
      <line class="cls-2" x1="38.1" y1="46.8" x2="41.1" y2="46.8"/>
      <line class="cls-2" x1="23.7" y1="46.8" x2="26.7" y2="46.8"/>
      <line class="cls-2" x1="9.3" y1="46.8" x2="12.3" y2="46.8"/>
      <line class="cls-2" x1="45.3" y1="54" x2="48.3" y2="54"/>
      <line class="cls-2" x1="30.9" y1="54" x2="33.9" y2="54"/>
      <line class="cls-2" x1="16.5" y1="54" x2="19.5" y2="54"/>
      <line class="cls-2" x1="2.1" y1="54" x2="5.1" y2="54"/>
      <line class="cls-2" x1="54" y1="2.1" x2="54" y2="5.1"/>
      <line class="cls-2" x1="39.6" y1="2.1" x2="39.6" y2="5.1"/>
      <line class="cls-2" x1="25.2" y1="2.1" x2="25.2" y2="5.1"/>
      <line class="cls-2" x1="10.8" y1="2.1" x2="10.8" y2="5.1"/>
      <line class="cls-2" x1="46.8" y1="9.3" x2="46.8" y2="12.3"/>
      <line class="cls-2" x1="32.4" y1="9.3" x2="32.4" y2="12.3"/>
      <line class="cls-2" x1="18" y1="9.3" x2="18" y2="12.3"/>
      <line class="cls-2" x1="3.6" y1="9.3" x2="3.6" y2="12.3"/>
      <line class="cls-2" x1="54" y1="16.5" x2="54" y2="19.5"/>
      <line class="cls-2" x1="39.6" y1="16.5" x2="39.6" y2="19.5"/>
      <line class="cls-2" x1="25.2" y1="16.5" x2="25.2" y2="19.5"/>
      <line class="cls-2" x1="10.8" y1="16.5" x2="10.8" y2="19.5"/>
      <line class="cls-2" x1="46.8" y1="23.7" x2="46.8" y2="26.7"/>
      <line class="cls-2" x1="32.4" y1="23.7" x2="32.4" y2="26.7"/>
      <line class="cls-2" x1="18" y1="23.7" x2="18" y2="26.7"/>
      <line class="cls-2" x1="3.6" y1="23.7" x2="3.6" y2="26.7"/>
      <line class="cls-2" x1="54" y1="30.9" x2="54" y2="33.9"/>
      <line class="cls-2" x1="39.6" y1="30.9" x2="39.6" y2="33.9"/>
      <line class="cls-2" x1="25.2" y1="30.9" x2="25.2" y2="33.9"/>
      <line class="cls-2" x1="10.8" y1="30.9" x2="10.8" y2="33.9"/>
      <line class="cls-2" x1="46.8" y1="38.1" x2="46.8" y2="41.1"/>
      <line class="cls-2" x1="32.4" y1="38.1" x2="32.4" y2="41.1"/>
      <line class="cls-2" x1="18" y1="38.1" x2="18" y2="41.1"/>
      <line class="cls-2" x1="3.6" y1="38.1" x2="3.6" y2="41.1"/>
      <line class="cls-2" x1="54" y1="45.3" x2="54" y2="48.3"/>
      <line class="cls-2" x1="39.6" y1="45.3" x2="39.6" y2="48.3"/>
      <line class="cls-2" x1="25.2" y1="45.3" x2="25.2" y2="48.3"/>
      <line class="cls-2" x1="10.8" y1="45.3" x2="10.8" y2="48.3"/>
      <line class="cls-2" x1="46.8" y1="52.5" x2="46.8" y2="55.5"/>
      <line class="cls-2" x1="32.4" y1="52.5" x2="32.4" y2="55.5"/>
      <line class="cls-2" x1="18" y1="52.5" x2="18" y2="55.5"/>
      <line class="cls-2" x1="3.6" y1="52.5" x2="3.6" y2="55.5"/>
    </pattern>
    <pattern id="Crosses-9" data-name="Crosses" width="57.6" height="57.6" patternTransform="translate(9.25 209.32) scale(1.85)" patternUnits="userSpaceOnUse" viewBox="0 0 57.6 57.6">
      <rect class="cls-1" width="57.6" height="57.6"/>
      <line class="cls-2" x1="52.5" y1="3.6" x2="55.5" y2="3.6"/>
      <line class="cls-2" x1="38.1" y1="3.6" x2="41.1" y2="3.6"/>
      <line class="cls-2" x1="23.7" y1="3.6" x2="26.7" y2="3.6"/>
      <line class="cls-2" x1="9.3" y1="3.6" x2="12.3" y2="3.6"/>
      <line class="cls-2" x1="45.3" y1="10.8" x2="48.3" y2="10.8"/>
      <line class="cls-2" x1="30.9" y1="10.8" x2="33.9" y2="10.8"/>
      <line class="cls-2" x1="16.5" y1="10.8" x2="19.5" y2="10.8"/>
      <line class="cls-2" x1="2.1" y1="10.8" x2="5.1" y2="10.8"/>
      <line class="cls-2" x1="52.5" y1="18" x2="55.5" y2="18"/>
      <line class="cls-2" x1="38.1" y1="18" x2="41.1" y2="18"/>
      <line class="cls-2" x1="23.7" y1="18" x2="26.7" y2="18"/>
      <line class="cls-2" x1="9.3" y1="18" x2="12.3" y2="18"/>
      <line class="cls-2" x1="45.3" y1="25.2" x2="48.3" y2="25.2"/>
      <line class="cls-2" x1="30.9" y1="25.2" x2="33.9" y2="25.2"/>
      <line class="cls-2" x1="16.5" y1="25.2" x2="19.5" y2="25.2"/>
      <line class="cls-2" x1="2.1" y1="25.2" x2="5.1" y2="25.2"/>
      <line class="cls-2" x1="52.5" y1="32.4" x2="55.5" y2="32.4"/>
      <line class="cls-2" x1="38.1" y1="32.4" x2="41.1" y2="32.4"/>
      <line class="cls-2" x1="23.7" y1="32.4" x2="26.7" y2="32.4"/>
      <line class="cls-2" x1="9.3" y1="32.4" x2="12.3" y2="32.4"/>
      <line class="cls-2" x1="45.3" y1="39.6" x2="48.3" y2="39.6"/>
      <line class="cls-2" x1="30.9" y1="39.6" x2="33.9" y2="39.6"/>
      <line class="cls-2" x1="16.5" y1="39.6" x2="19.5" y2="39.6"/>
      <line class="cls-2" x1="2.1" y1="39.6" x2="5.1" y2="39.6"/>
      <line class="cls-2" x1="52.5" y1="46.8" x2="55.5" y2="46.8"/>
      <line class="cls-2" x1="38.1" y1="46.8" x2="41.1" y2="46.8"/>
      <line class="cls-2" x1="23.7" y1="46.8" x2="26.7" y2="46.8"/>
      <line class="cls-2" x1="9.3" y1="46.8" x2="12.3" y2="46.8"/>
      <line class="cls-2" x1="45.3" y1="54" x2="48.3" y2="54"/>
      <line class="cls-2" x1="30.9" y1="54" x2="33.9" y2="54"/>
      <line class="cls-2" x1="16.5" y1="54" x2="19.5" y2="54"/>
      <line class="cls-2" x1="2.1" y1="54" x2="5.1" y2="54"/>
      <line class="cls-2" x1="54" y1="2.1" x2="54" y2="5.1"/>
      <line class="cls-2" x1="39.6" y1="2.1" x2="39.6" y2="5.1"/>
      <line class="cls-2" x1="25.2" y1="2.1" x2="25.2" y2="5.1"/>
      <line class="cls-2" x1="10.8" y1="2.1" x2="10.8" y2="5.1"/>
      <line class="cls-2" x1="46.8" y1="9.3" x2="46.8" y2="12.3"/>
      <line class="cls-2" x1="32.4" y1="9.3" x2="32.4" y2="12.3"/>
      <line class="cls-2" x1="18" y1="9.3" x2="18" y2="12.3"/>
      <line class="cls-2" x1="3.6" y1="9.3" x2="3.6" y2="12.3"/>
      <line class="cls-2" x1="54" y1="16.5" x2="54" y2="19.5"/>
      <line class="cls-2" x1="39.6" y1="16.5" x2="39.6" y2="19.5"/>
      <line class="cls-2" x1="25.2" y1="16.5" x2="25.2" y2="19.5"/>
      <line class="cls-2" x1="10.8" y1="16.5" x2="10.8" y2="19.5"/>
      <line class="cls-2" x1="46.8" y1="23.7" x2="46.8" y2="26.7"/>
      <line class="cls-2" x1="32.4" y1="23.7" x2="32.4" y2="26.7"/>
      <line class="cls-2" x1="18" y1="23.7" x2="18" y2="26.7"/>
      <line class="cls-2" x1="3.6" y1="23.7" x2="3.6" y2="26.7"/>
      <line class="cls-2" x1="54" y1="30.9" x2="54" y2="33.9"/>
      <line class="cls-2" x1="39.6" y1="30.9" x2="39.6" y2="33.9"/>
      <line class="cls-2" x1="25.2" y1="30.9" x2="25.2" y2="33.9"/>
      <line class="cls-2" x1="10.8" y1="30.9" x2="10.8" y2="33.9"/>
      <line class="cls-2" x1="46.8" y1="38.1" x2="46.8" y2="41.1"/>
      <line class="cls-2" x1="32.4" y1="38.1" x2="32.4" y2="41.1"/>
      <line class="cls-2" x1="18" y1="38.1" x2="18" y2="41.1"/>
      <line class="cls-2" x1="3.6" y1="38.1" x2="3.6" y2="41.1"/>
      <line class="cls-2" x1="54" y1="45.3" x2="54" y2="48.3"/>
      <line class="cls-2" x1="39.6" y1="45.3" x2="39.6" y2="48.3"/>
      <line class="cls-2" x1="25.2" y1="45.3" x2="25.2" y2="48.3"/>
      <line class="cls-2" x1="10.8" y1="45.3" x2="10.8" y2="48.3"/>
      <line class="cls-2" x1="46.8" y1="52.5" x2="46.8" y2="55.5"/>
      <line class="cls-2" x1="32.4" y1="52.5" x2="32.4" y2="55.5"/>
      <line class="cls-2" x1="18" y1="52.5" x2="18" y2="55.5"/>
      <line class="cls-2" x1="3.6" y1="52.5" x2="3.6" y2="55.5"/>
    </pattern>
  </defs>
  <title>Centrale</title>
  <g id="Livello_2" data-name="Livello 2">
    <g id="Layer_1" data-name="Layer 1">
      <g>
        <path class="cls-3" d="M56.3,153.65c-4.2,5.46,10.08,8.82,3.36,18.06-4.2,5.46-8.82.84-13.44,4.2-13.86,10.5,10.5,20.59,14.28,26.46,8.4,12.6,4.62,31.09,21.84,34.87,12.6,2.94,22.27,5.88,29.83,17.22,5.46,7.56,7.14,16.8,11.34,25.21,2.94,5.46,6.72,8,10.92,12.18,10.5,9.24,19.74,20.16,31.08,28.15,4.62,3.36,9.24,5.88,13.44,9.66,5,4.2,10.5,11.34,16.38,14.28,6.72,3.78,8.82-2.1,15.54-2.94,8.4-.84,13.44,6.72,19.75,10.5,8,4.2,10.5-1.26,8.82-10.08-2.1-10.5-8.4-6.72-16-7.14-11.34-.84-21.42-19.74-5.88-20.16,5.88,0,10.92,3.78,16.8,1.26,7.56-3.36,7.56-11.76,7.14-18.9-.42-7.56-1.68-14.7,2.1-20.58,4.62-7.14,8.82-8,1.68-15.54-10.92-11.34-27.72-4.62-39.07-15.54-5.88-5.88-3.78-9.66,3.78-12.6,5.88-2.1,19.32,2.1,22.26-1.68,3.78-5.46-5.88-14.28-9.24-17.64a40,40,0,0,1-11.34-23.95c-.42-6.3-1.26-15.12,5.88-18.48,5.88-2.52,12.18,3.36,18.06,1.68,11.76-4.2,8.82-28.15-4.62-25.2-5.88,1.26-7.14,9.24-11.34,13-6.3,5.46-13.44,3.36-21,3.36-18.06.42-26.46,18.06-42.43,21.85-12.6,2.52-26.46,0-28.57-13.87-1.26-10.5-1.68-13.86-12.6-16-5-1.26-13-1.68-16-6.72-2.94-4.62,1.26-9.24-2.1-13.44-.84-.42-3.78-.42-5-.84-1.68-1.68-2.1-4.62-4.2-5.46-5-2.94-10.08,0-12.6,4.62-3.78,5.88-.84,13.44-7.56,17.22-2.52,1.26-6.3.84-9.25,2.1"/>
        <path class="cls-4" d="M56.3,153.48c-4.2,5.46,10.08,8.82,3.36,18.06-4.2,5.46-8.82.84-13.44,4.2-13.86,10.5,10.5,20.58,14.28,26.46,8.4,12.6,4.62,31.09,21.84,34.87,12.6,2.94,22.27,5.88,29.83,17.22,5.46,7.56,7.14,16.8,11.34,25.21,2.94,5.46,6.72,8,10.92,12.18,10.5,9.24,19.74,20.16,31.08,28.15,4.62,3.36,9.24,5.88,13.44,9.66,5,4.2,10.5,11.34,16.38,14.28,6.72,3.78,8.82-2.1,15.54-2.94,8.4-.84,13.44,6.72,19.75,10.5,8,4.2,10.5-1.26,8.82-10.08-2.1-10.5-8.4-6.72-16-7.14-11.34-.84-21.42-19.74-5.88-20.16,5.88,0,10.92,3.78,16.8,1.26,7.56-3.36,7.56-11.76,7.14-18.9-.42-7.56-1.68-14.7,2.1-20.58,4.62-7.14,8.82-8,1.68-15.54-10.92-11.34-27.72-4.62-39.07-15.54-5.88-5.88-3.78-9.66,3.78-12.6,5.88-2.1,19.32,2.1,22.26-1.68,3.78-5.46-5.88-14.28-9.24-17.64a40,40,0,0,1-11.34-23.95c-.42-6.3-1.26-15.12,5.88-18.48,5.88-2.52,12.18,3.36,18.06,1.68,11.76-4.2,8.82-28.15-4.62-25.2-5.88,1.26-7.14,9.24-11.34,13-6.3,5.46-13.44,3.36-21,3.36-18.06.42-26.46,18.06-42.43,21.85-12.6,2.52-26.46,0-28.57-13.87-1.26-10.5-1.68-13.86-12.6-16-5-1.26-13-1.68-16-6.72-2.94-4.62,1.26-9.24-2.1-13.44-.84-.42-3.78-.42-5-.84-1.68-1.68-2.1-4.62-4.2-5.46-5-2.94-10.08,0-12.6,4.62-3.78,5.88-.84,13.44-7.56,17.22-2.52,1.26-6.3.84-9.25,2.1"/>
        <g>
          <path class="cls-3" d="M92,116.8c2.52,7.14,10.08,2.1,14.7,5.88,6.3,5.88-2.52,13.86,6.3,18.49,6.72,2.94,12.18,1.26,17.22,7.56,5.46,7.56,5.46,19.32,16.8,19.74,21.85.42,36.13-22.68,56.71-24.36,5.46-.42,12.6,2.52,11.34-6.3-1.68-11.34-9.66-2.52-13.86-5.88-4.62-3.36,2.52-11.34-.42-14.71-3.78-5-10.5,1.68-12.6-6.3-1.26-4.62,0-13-.42-18.06-.42-3.78.42-5.46-1.26-8.4-1.26-2.94-2.94-2.94-3.78-6.72-1.26-5.46,3.36-29.41.42-31.09-5-3.36-7.56,8.4-12.6,8.4-3.78,0-12.18-10.92-15.55-13.44-6.3-5.46-26-23.53-35.71-21-6.3,1.68-7.14,9.66-4.62,14.28,3.36,5.88,12.18,6.72,13.86,13,2.52,8.4-4.2,5.88-9.24,7.14-5.88,2.1-10.5,7.14-13.44,12.6a34.2,34.2,0,0,0-5,19.32c.42,5.88,6.3,11.34,6.3,16.8-.42,11.34-15.54,2.94-13.86,12.18"/>
          <path class="cls-5" d="M92,116.8c2.52,7.14,10.08,2.1,14.7,5.88,6.3,5.88-2.52,13.86,6.3,18.49,6.72,2.94,12.18,1.26,17.22,7.56,5.46,7.56,5.46,19.32,16.8,19.74,21.85.42,36.13-22.68,56.71-24.36,5.46-.42,12.6,2.52,11.34-6.3-1.68-11.34-9.66-2.52-13.86-5.88-4.62-3.36,2.52-11.34-.42-14.71-3.78-5-10.5,1.68-12.6-6.3-1.26-4.62,0-13-.42-18.06-.42-3.78.42-5.46-1.26-8.4-1.26-2.94-2.94-2.94-3.78-6.72-1.26-5.46,3.36-29.41.42-31.09-5-3.36-7.56,8.4-12.6,8.4-3.78,0-12.18-10.92-15.55-13.44-6.3-5.46-26-23.53-35.71-21-6.3,1.68-7.14,9.66-4.62,14.28,3.36,5.88,12.18,6.72,13.86,13,2.52,8.4-4.2,5.88-9.24,7.14-5.88,2.1-10.5,7.14-13.44,12.6a34.2,34.2,0,0,0-5,19.32c.42,5.88,6.3,11.34,6.3,16.8-.42,11.34-15.54,2.94-13.86,12.18"/>
        </g>
        <g>
          <path class="cls-3" d="M129.43,4.22c-5.88.84-6.3,6.3-3.78,9.66,4.2,4.62,14.28,5.88,19.75,10.08,5,4.2,9.24,8.4,15.12,11.34,8.4,3.36,11.76.42,20.16.84,15.54,1.26,10.08,27.3,9.66,37.81,0,6.72,2.94,8,5,13.86,1.68,4.62-.42,12.6,3.78,16,5.46,4.62,9.66-2.1,12.6-5.88,4.2-5,6.3-7.14,13.44-7.56,12.6-1.26,23.11-3.36,32.77-13,9.24-9.24,11.34-26,1.26-35.71-6.72-6.72-16-10.5-23.1-17.22-7.14-6.3-12.18-15.12-19.75-21-10.5-8-13.86,3.36-21.43,10.08a34.35,34.35,0,0,1-26.46,9.24c-10.08-.84-17.22-4.62-23.1-12.6-5-6.72-14.28-16.8-18.91-3.78"/>
          <path class="cls-5" d="M129.43,4.22c-5.88.84-6.3,6.3-3.78,9.66,4.2,4.62,14.28,5.88,19.75,10.08,5,4.2,9.24,8.4,15.12,11.34,8.4,3.36,11.76.42,20.16.84,15.54,1.26,10.08,27.3,9.66,37.81,0,6.72,2.94,8,5,13.86,1.68,4.62-.42,12.6,3.78,16,5.46,4.62,9.66-2.1,12.6-5.88,4.2-5,6.3-7.14,13.44-7.56,12.6-1.26,23.11-3.36,32.77-13,9.24-9.24,11.34-26,1.26-35.71-6.72-6.72-16-10.5-23.1-17.22-7.14-6.3-12.18-15.12-19.75-21-10.5-8-13.86,3.36-21.43,10.08a34.35,34.35,0,0,1-26.46,9.24c-10.08-.84-17.22-4.62-23.1-12.6-5-6.72-14.28-16.8-18.91-3.78"/>
        </g>
        <g>
          <path class="cls-3" d="M9.7,151.66c6.3,1.26,40.75-5.88,41.59,2.94.84,9.66-21,9.25-20.58,22.27-5.88,2.1-8.82-2.94-13.86-2.1-5.46.84-10.51,10.51-15.54,2.1-4.62-8,4.2-10.5,8.4-13,9.66-5.88,1.68-5.46-.84-11.77a1.49,1.49,0,0,1,1.26-.84"/>
          <path class="cls-5" d="M9.7,151.66c6.3,1.26,40.75-5.88,41.59,2.94.84,9.66-21,9.25-20.58,22.27-5.88,2.1-8.82-2.94-13.86-2.1-5.46.84-10.51,10.51-15.54,2.1-4.62-8,4.2-10.5,8.4-13,9.66-5.88,1.68-5.46-.84-11.77a1.49,1.49,0,0,1,1.26-.84"/>
        </g>
        <path class="cls-3" d="M232.34,208c-10.08-9.25-21-26.89-2.1-33.19,14.29-5,8,9.25,6.72,18.49-.42,2.52-2.52,21.42-7.14,13.86"/>
        <path class="cls-6" d="M232.68,208.29c-10.08-9.25-21-26.89-2.1-33.19,14.29-5,8,9.25,6.72,18.49-.42,2.52-2.52,21.42-7.14,13.86"/>
        <circle class="cls-7 pigroup roma" picode="roma" cx="137.21" cy="250.96" r="8.75"/>
        <circle class="cls-7 pigroup frosinone" picode="frosinone" cx="207.21" cy="274.96" r="8.75"/>
      </g>
    </g>
  </g>
</svg>
