<svg id="Layer_1" data-name="Layer 1" xmlns="http://www.w3.org/2000/svg" xmlns:xlink="http://www.w3.org/1999/xlink" viewBox="0 0 669.36 557.27"><defs><style>.cls-1{fill:none;}.cls-2{fill:#231f20;}.cls-3{fill:#808285;}.cls-4{fill:#882677;}.cls-4,.cls-5,.cls-6{fill-rule:evenodd;}.cls-5{fill:url(#New_Pattern_Swatch_1);}.cls-6{fill:url(#_10_dpi_30_);}.cls-pi {fill: #231f20;}</style><pattern id="New_Pattern_Swatch_1" data-name="New Pattern Swatch 1" width="28.8" height="28.8" patternTransform="translate(34.96 -73.9) scale(1.85)" patternUnits="userSpaceOnUse" viewBox="0 0 28.8 28.8"><rect class="cls-1" width="28.8" height="28.8"/><circle class="cls-3" cx="28.8" cy="28.8" r="2.16"/><circle class="cls-3" cx="14.4" cy="28.8" r="2.16"/><circle class="cls-3" cx="28.8" cy="14.4" r="2.16"/><circle class="cls-3" cx="14.4" cy="14.4" r="2.16"/><circle class="cls-3" cx="7.2" cy="21.6" r="2.16"/><circle class="cls-3" cx="21.6" cy="21.6" r="2.16"/><circle class="cls-3" cx="7.2" cy="7.2" r="2.16"/><circle class="cls-3" cx="21.6" cy="7.2" r="2.16"/><circle class="cls-3" cy="28.8" r="2.16"/><circle class="cls-3" cy="14.4" r="2.16"/><circle class="cls-3" cx="28.8" r="2.16"/><circle class="cls-3" cx="14.4" r="2.16"/><circle class="cls-3" r="2.16"/></pattern>
    <pattern id="_10_dpi_30_" data-name="10 dpi 30%" width="28.8" height="28.8" patternTransform="translate(34.96 -73.9) scale(1.85)" patternUnits="userSpaceOnUse" viewBox="0 0 28.8 28.8"><rect class="cls-1" width="28.8" height="28.8"/><circle class="cls-2" cx="28.8" cy="28.8" r="2.16"/><circle class="cls-2" cx="14.4" cy="28.8" r="2.16"/><circle class="cls-2" cx="28.8" cy="14.4" r="2.16"/><circle class="cls-2" cx="14.4" cy="14.4" r="2.16"/><circle class="cls-2" cx="7.2" cy="21.6" r="2.16"/><circle class="cls-2" cx="21.6" cy="21.6" r="2.16"/><circle class="cls-2" cx="7.2" cy="7.2" r="2.16"/><circle class="cls-2" cx="21.6" cy="7.2" r="2.16"/><circle class="cls-2" cy="28.8" r="2.16"/><circle class="cls-2" cy="14.4" r="2.16"/><circle class="cls-2" cx="28.8" r="2.16"/><circle class="cls-2" cx="14.4" r="2.16"/><circle class="cls-2" r="2.16"/></pattern></defs><title>Artboard 10</title><path class="cls-4" d="M325.14,308.63c0,3.47-1.89,9.77,3.78,9.14,6.3-.95,3.15-10.08-2.21-9.14"/><path class="cls-4" d="M321.68,293.51c0,4.73,6.3,10.71,8.51,4.41,1.89-5.67-7.88-10.71-8.82-4.41"/><path class="cls-4" d="M312.86,282.17c-1.58,2.83-1.58,9.14,3.78,6.3,6.3-3.15-.63-10.71-3.47-6.61"/><path class="cls-4" d="M120.67,256.33c-5,1.89-.63,8.82,3.46,5.67,3.78-3.15-.63-8.19-4.41-5.67"/><path class="cls-4" d="M28.67,358.41c-3.15,3.47,1.26,9.45,5,6.3,3.46-3.15-1.58-10.4-5-6"/><path class="cls-4" d="M1.26,507.12c1.26,10.08,10.08,17.64,20.16,21.42C27.73,514.68,1.26,490.74,0,510.9"/><path class="cls-4" d="M419.66,180.72c0,9.45-2.52,19.53-.63,29,3.15,15.75,19.53,20.16,25.2,33.39,10.08,25.21-37.18,25.84-45.37,42.22-6.93,12.6,8.19,15.75,8.82,26.46,0,9.45-9.45,13.86-15.12,19.53-9.45,9.45-2.52,10.71-3.78,21.43-.63,8.82-10.08,10.71-1.26,20.79,6.93,6.93,14.5,2.52,22.06,5,10.08,3.15,15.12,9.45,22.05-4.41,4.41-9.45,2.52-18.9,9.45-26.46,6.3-6.3,15.12-13.23,22.06-18.9,6.31-4.41,15.75-7.56,18.91-15.12,2.52-5.67.63-15.75.63-22.05C482,270.2,485.2,257,508.51,253.18c5-.63,15.75,1.26,19.53-.63,8.82-3.78,9.45-18.27,10.08-25.84.63-9.45.63-20.16.63-29-.63-14.49-4.41-7.56-13.86-6.3-15.12,1.26-32.14-15.75-46.63-18.9-17.64-4.41-35.92-.63-52.93,5-3.78,1.26-7.56,0-8.19,5"/><path class="cls-5" d="M419.66,180.72c0,9.45-2.52,19.53-.63,29,3.15,15.75,19.53,20.16,25.21,33.39,10.08,25.21-37.18,25.84-45.37,42.22-6.93,12.6,8.19,15.75,8.82,26.46,0,9.45-9.45,13.86-15.12,19.53-9.45,9.45-2.52,10.71-3.78,21.43-.63,8.82-10.08,10.71-1.26,20.79,6.93,6.93,14.49,2.52,22.06,5,10.08,3.15,15.12,9.45,22.05-4.41,4.41-9.45,2.52-18.9,9.45-26.46,6.3-6.3,15.12-13.23,22.05-18.9,6.3-4.41,15.76-7.56,18.91-15.12,2.52-5.67.63-15.75.63-22.05C482,270.2,485.2,257,508.51,253.18c5-.63,15.76,1.26,19.54-.63,8.82-3.78,9.45-18.27,10.08-25.84.63-9.45.63-20.16.63-29-.63-14.49-4.41-7.56-13.86-6.3-15.12,1.26-32.14-15.75-46.63-18.9-17.64-4.41-35.92-.63-52.93,5-3.78,1.26-7.56,0-8.19,5"/><path class="cls-4" d="M553.88,56c-.63.63-.63,2.52-.63-.63,0-6.93,6.93-15.12,13.23-17,10.08-3.78,20.8,0,30.25-7.56S603,8.07,610.59,2.4C625.08-8.32,625.71,20,630.75,25.71c6.93,7.56,15.75,4.41,22.06,14.49,5.67,9.45,13.23,23.32,15.75,34,2.52,11.34-1.26,18.9-6.3,28.35-3.15,8.19-3.15,13.86-5,22.05-5,20.79-22.68-5-25.83-17-4.41-14.49-1.26-29-15.75-39.07-12-8.82-26.46-5.67-41-4.41-5,.63-35.29-.63-22.68-11.34"/><path class="cls-5" d="M553.88,56c-.63.63-.63,2.52-.63-.63,0-6.93,6.93-15.12,13.23-17,10.08-3.78,20.79,0,30.24-7.56S603,8.07,610.59,2.4C625.08-8.32,625.71,20,630.75,25.71c6.93,7.56,15.75,4.41,22.05,14.49,5.67,9.45,13.23,23.32,15.75,34,2.52,11.34-1.26,18.9-6.3,28.35-3.15,8.19-3.15,13.86-5,22.05-5,20.79-22.68-5-25.83-17-4.41-14.49-1.26-29-15.75-39.07-12-8.82-26.47-5.67-41-4.41-5,.63-35.29-.63-22.68-11.34"/><path class="cls-4" d="M80,352.74c-4.41-6.93-1.89-22.06-13.87-18.91-8.19,1.89-18.27,19.54-21.42,27.1-9.45,22.68-.63,38.44,17.64,52.93,12.6,9.45,18.27,2.52,30.87,5,5,1.26,6.3,5,10.71,6.93,3.78,2.52,8.82,1.89,12.6,4.41,8.82,4.41,12.6,15.12,20.8,20.8a66.24,66.24,0,0,0,19.53,10.71c16.38,7.56,29,19.54,46,21.42,20.79,2.52,31.51,21.42,41.59,37.81,6.93,11.34,10.71,8.82,20.79,14.49,4.41,2.52,4.41,6.3,9.45,7.56,2.52.63,4.41-1.89,5.67-1.89,2.52.63,3.78,3.15,5.67,3.15,3.15.63,8.82-.63,12,.63,4.41,1.89,6.3,7.56,10.71,10.08,10.71,5.67,11.34,0,12-9.45.63-8.82,1.26-15.75,6.93-23.31,5-6.3,16.38-10.71,17.64-19.54,1.26-8.19-8.82-17.64-12.6-23.94-4.41-6.93-15.76-10.71-17-18.27-1.26-8.82,7.56-20.16,10.71-27.09,5.67-12,9.45-24.58,15.76-36.55,8.19-17,26.46-32.77,29.61-51.67,1.89-13.86-3.78-10.71-13.23-8.19-6.93,1.89-17-.63-23.31,1.89-3.78,1.26-5,8.82-9.45,9.45-3.15,0-6.93-5.67-10.71-6.3-8.19-1.89-15.76,4.41-22.06,8.19-15.12,7.56-35.92,12.6-52.93,13.86-7.56.63-13.23-3.15-20.79-2.52-8.82.63-20.16,6.93-28.36,5s-7.56-6.3-17-5c-5,.63-10.71,4.41-15.12,1.89-5.67-3.15-4.41-13.23-8.82-17.64-2.52-2.52-5.67-1.89-8.19-3.78a31.66,31.66,0,0,1-5-4.41c-5.67-5.67-3.15-7.56-12.6-8.19-4.41,0-12,.63-15.75,3.15C98.3,339.51,94.52,352.74,80,350.85"/><path class="cls-5" d="M80,352.74c-4.41-6.93-1.89-22.06-13.86-18.91-8.19,1.89-18.27,19.54-21.42,27.1-9.45,22.68-.63,38.44,17.64,52.93,12.6,9.45,18.27,2.52,30.87,5,5,1.26,6.3,5,10.71,6.93,3.78,2.52,8.82,1.89,12.6,4.41,8.83,4.41,12.6,15.12,20.79,20.8a66.3,66.3,0,0,0,19.53,10.71c16.39,7.56,29,19.54,46,21.42,20.8,2.52,31.51,21.42,41.59,37.81,6.93,11.34,10.71,8.82,20.79,14.49,4.41,2.52,4.41,6.3,9.45,7.56,2.52.63,4.41-1.89,5.67-1.89,2.52.63,3.78,3.15,5.67,3.15,3.15.63,8.82-.63,12,.63,4.41,1.89,6.3,7.56,10.71,10.08,10.71,5.67,11.34,0,12-9.45.63-8.82,1.26-15.75,6.93-23.31,5-6.3,16.38-10.71,17.64-19.54,1.26-8.19-8.82-17.64-12.6-23.94-4.41-6.93-15.75-10.71-17-18.27-1.26-8.82,7.56-20.16,10.71-27.09,5.67-12,9.45-24.58,15.75-36.55,8.19-17,26.47-32.77,29.62-51.67,1.89-13.86-3.78-10.71-13.24-8.19-6.93,1.89-17-.63-23.31,1.89-3.78,1.26-5,8.82-9.45,9.45-3.15,0-6.93-5.67-10.71-6.3-8.19-1.89-15.75,4.41-22.06,8.19-15.12,7.56-35.91,12.6-52.93,13.86-7.56.63-13.23-3.15-20.79-2.52-8.82.63-20.16,6.93-28.35,5s-7.56-6.3-17-5c-5,.63-10.71,4.41-15.12,1.89-5.67-3.15-4.41-13.23-8.82-17.64-2.52-2.52-5.67-1.89-8.19-3.78a31.65,31.65,0,0,1-5-4.41c-5.67-5.67-3.15-7.56-12.61-8.19-4.41,0-12,.63-15.75,3.15C98.3,339.51,94.52,352.74,80,350.85"/><path class="cls-5" d="M325.14,308.63c0,3.47-1.89,9.77,3.78,9.14,6.3-.95,3.15-10.08-2.21-9.14"/><path class="cls-5" d="M321.67,293.51c0,4.73,6.3,10.71,8.51,4.41,1.89-5.67-7.88-10.71-8.82-4.41"/><path class="cls-5" d="M312.86,282.17c-1.57,2.83-1.57,9.14,3.78,6.3,6.3-3.15-.63-10.71-3.46-6.61"/><path class="cls-6" d="M120.67,256.33c-5,1.89-.63,8.82,3.46,5.67,3.79-3.15-.63-8.19-4.41-5.67"/><path class="cls-6" d="M28.67,358.41c-3.15,3.47,1.26,9.45,5,6.3,3.46-3.15-1.58-10.4-5-6"/><path class="cls-5" d="M1.26,507.12c1.26,10.08,10.08,17.64,20.16,21.42C27.73,514.68,1.26,490.74,0,510.9"/><circle class="cls-pi pigroup pollina" picode="pollina" cx="233.21" cy="371.96" r="8.75"/></svg>