<svg id="Layer_1" data-name="Layer 1" xmlns="http://www.w3.org/2000/svg" viewBox="0 0 128.35 74.23"><defs><style>.cls-1{fill:#a5d4c0;}.cls-2{fill:none;stroke:#1d1d1b;stroke-miterlimit:10;stroke-width:2px;}</style></defs><title>Artboard 37</title><path class="cls-1" d="M23.16,24c4.19-1,1.29-7.41,5.48-10s25.13,1,29.64-2.25,7.41-10,14.5-11.6S89.84,8.55,93.71,10.81s17.72,2.9,12.57,15.79S79.54,32.71,77,39.48s5.48,9,5.48,17.72-6.44,8.7-11.92,11-24.16.64-28.67-1.93S44.74,54.62,38,51.4s-6.44.64-11.6-.64S17,37.55,13.49,35.29,5.76,36.58,2.86,33s-5.48-11,2.25-10S19,25,23.16,24Z"/><path class="cls-2" d="M30.06,68.43c3.16-3.16,22,6,35.34,4.67s16-10,21.33-11.33,20.67-3.33,26.67-7.33-2.67-5.33-2.67-14S125.4,23.76,127.4,17.1"/></svg>