<svg id="Layer_1" data-name="Layer 1" xmlns="http://www.w3.org/2000/svg" viewBox="0 0 118.62 78.52"><defs><style>.cls-1{fill:#bbd473;}.cls-2{fill:none;stroke:#1d1d1b;stroke-miterlimit:10;stroke-width:2px;}</style></defs><title>Artboard 34</title><path class="cls-1" d="M5.37,10.47s19.33,5.47,23.2.32S45.64-4.35,54.66,2.1s4.51,30,7.41,31.57,5.16,4.83,6.45,1-7.73-15.46-3.87-17.4,8.7-6.76,10-.32,1.61,23.52-1,25.45S55.3,71,47.57,69.75,4.72,35.6,3.11,29.8,1.83,12.08,5.37,10.47Z"/><path class="cls-2" d="M.51,9.34C5.88,12.55-.4,24.09,4.51,38c4,11.33,24.25,35,36,39.33C46.45,79.52,74.15,61,77.85,52c4.67-11.33-5.33-21.33,5.33-32,3.16-3.16,22,6,35.34,4.67"/></svg>