<svg id="Layer_1" data-name="Layer 1" xmlns="http://www.w3.org/2000/svg" viewBox="0 0 211.48 111.56"><defs><style>.cls-1{fill:#a5d4c0;fill-rule:evenodd;}</style></defs><title>Artboard 6</title><path class="cls-1" d="M7.52,59.71c-6.67-3.33,1.67-10.84,1.67-15C8.77,35.95-.4,43.87,0,34.28.85,28,9.6,23,12.52,17.19c3.75-8.34,8.34-11.67,18.34-10,8.34,1.67,10.42,8.34,16.67,12.92,5.42,3.75,10.84,3.33,17.09,3.33C83.38,23,93,5.1,112.14,5.94c17.09.84,35,8.75,51.69.42,5-2.5,9.59-7.08,15.84-6.25,12.51,1.67,5.42,8.75,2.5,15-1.66,4.59-.83,11.26,3.75,14.17,7.09,5.42,10.84-7.92,14.18,4.17,1.25,3.75,0,7.92,1.67,11.67,1.66,3.33,5,4.17,7.08,6.67,7.51,9.58-2.5,14.17-11.67,12.09-9.59-2.09-10.42-12.5-19.17-14.59-10-2.92-20.42,5-28.35,9.17-6.67,3.33-15,6.25-12.09,15.42,3.33,9.17,8.34,9.17,7.5,19.59-.41,8.34-2.91,8.34-11.25,8.34-7.08,0-12.5,2.5-19.17,5-3.34,1.25-16.67,7.5-17.93,3.33-1.66-5.83,11.26-10,11.67-15.84.42-7.08-13.75-20-21.26-20-5.41,0-9.58,5-14.58,6.67-6.25,1.67-14.18,1.25-20.84.84-17.93-.42-41.27-5-45-26.26"/></svg>