<svg id="Layer_1" data-name="Layer 1" xmlns="http://www.w3.org/2000/svg" viewBox="0 0 451.94 526.38"><defs><style>.cls-1{fill:#4b8baa;fill-rule:evenodd;}.cls-pi {fill: #231f20;</style></defs><title>Artboard 22</title><path class="cls-1" d="M.47,41.45c.47,2.67-1.26,7.4,0,9.76,1.57,2.84,5.67.63,8,2.84,2.52,2,3.94,14,8.66,9.29C19.53,61,26,42.24,18.43,43.65c-2.2.47-2.52,4.1-4.88,4.25-2.52,0-3.15-3.47-3.78-5.2-1.1-2.83-2.52-4.73-6-3.94A4.94,4.94,0,0,0,.31,43"/><path class="cls-1" d="M11.5,28.22c-2.21,1.26-1.89,3.94-1.1,6,1.42,2.84,3.46,5.36,6.14,3.63,3-1.89,3.62-3,6.46-.32A18.26,18.26,0,0,1,27.72,46c1.42,6.46-2.36,9.92-3.78,15.75-.94,3.31.47,2,3.15,1.58,2.67-.63,4.25.47,6.46,1.73,1.89,1.1,4.1,2.36,6.14,1.1,2.68-1.42,1.42-4.25,2.83-6.3,1.26-1.73,3.94-1.1,5.67-1.89,3-1.26,5.36-3.62,8.51-4.88,4.57-1.89,9.45-4.25,13.23-7.56,4.41-3.94,3.47-9.14,2.68-14.34C71.52,22.7,71,13.73,69.15,5.37c-.16-.94-.79-4.57-1.58-5-1.42-1.1-2.2.79-3.31,1.89C54.35,12.78,42.22,21,27.56,23.49c-4.09.79-15.12,0-16.85,5.36"/><path class="cls-1" d="M37.49,71.54c6.93,11.34,5,29.61,4.41,42.22a146.67,146.67,0,0,1-5,29c-1.89,5-13.23,22.68-11.34,27.09.63,1.89,15.12,8.19,18.27,11.34,7.56,7.56,9.45,12,20.16,13.23,7.56,1.26,18.9,3.15,25.84,1.26,13.86-3.78,6.93-12.6,12.6-20.79,7.56-11.34,10.08,1.26,12,8.19,3.15,11.34,6.93,9.45,16.38,1.89,8.19-6.93,13.86-14.49,17.64-24.57,1.89-3.78,5-12,4.41-15.75-.63-8.82-1.26-5-8.19-6.93-5.67-1.26-6.93,0-12-4.41-4.41-3.78-8.19-8.82-12-13.23-6.93-7.56-14.49-12.6-22.05-18.91C91,95.48,84.12,88.55,81,79.73c-1.89-6.93,3.78-22.06-1.89-26.47C69.62,46.33,42.53,69.65,35,72.8"/><path class="cls-1" d="M45,195c-13.86,14.49,3.78,34-18.27,44.74-3.78,2.52-17.64,5-12,10.08,5.67,4.41,16.38-.63,22.05,6.93,5,7.56-.63,13.86-.63,20.8,0,5.67-3.15,5,3.15,8.19,3.15,1.26,9.45.63,12.6-.63,5.67-3.15,15.75-16.38,18.27-22.68,1.26-3.78.63-6.3,1.26-9.45,1.26-6.3-1.89-2.52,3.15-7.56,3.15-2.52,4.41,1.89,7.56-3.15,1.26-1.89,0-6.93,0-8.82.63-7.56,1.89-15.12-3.15-21.43-5-5.67-27.73-20.16-34.66-15.75"/><path class="cls-1" d="M63.32,333c-3.78,18.27,18.28,15.12,7.56,3.78,5-3.78,9.45-.63,10.71,4.41,5.67-1.89,7.56-11.34,14.49-10.08,3.78,0,11.34,8.82,13.23,12,8.19,14.49-17.64,12-15.12,27.73,1.89,11.34,20.16-7.56,29.62-8.19,11.34,0,25.83,6.93,28.35-9.45,8.82,0,18.9,18.9,21.43,25.84,7.56,18.9-7.56,13.23-10.08,26.46C161,420,193.13,442.68,206.36,440.16c6.93-1.89,13.23-8.82,20.79-8.82,6.3,0,6.93,5,13.23,1.26,6.93-3.15,15.75-18.9,15.12-25.83-.63-22.68-46.63-21.43-28.36-49.15,1.89-2.52,6.93-3.15,7.56-6.3,1.89-5.67-3.78-10.71-6.3-15.12-7.56-13.86-5-11.34,5.67-15.75,9.46-3.78,12.6-16.38,5.67-25.84-5-7.56-15.12-6.93-20.17-13.23-2.52-3.78-.63-6.93-5.67-10.71-3.78-2.52-8.19-1.89-12.6-3.15-13.86-4.41-6.3-8.19-9.45-18.9-2.52-7.56-12.6-13.23-20.16-10.71C159.1,242.3,161,253,146.5,248s-25.84-13.86-41.59-6.3c-4.41,1.89-6.93,5.67-10.08,8.19-3.15,1.26-5.67,1.26-8.19,2.52-4.41,2.52-3.15-3.15-6.93,2.52-1.26,2.52.63,7.56,0,10.08-5,17.64-27.1,17.64-22.05,37.81,3.78,14.49,4.41,23.94,3.78,39.07"/><path class="cls-1" d="M86,205.75c6.93,8.82,3.15,18.27,5,27.72,2.52,14.49,5.67-1.26,14.49-3.78,6.3-1.89,17-.63,23.32.63,6.93,1.26,17.64,8.19,24.57,6.3,8.82-2.52,7.56-15.12,15.75-17.64,6.93-1.89,15.75,4.41,23.94.63,15.12-6.93,0-10.71-1.89-18.9-1.26-6.3,7.56-12.6,1.26-18.91-3.15-3.78-12-3.78-16.38-6.93s-7.56-12-13.86-12c-8.82,0-9.45,9.45-12.61,15.12-3.15,6.93-8.82,12.6-14.49,17-18.9,13.86-13.86-9.45-27.1-8.19-8.19.63-15.75,21.43-22.05,22.05"/><path class="cls-1" d="M208.25,188.11c-17,14.49,19.53,27.72-6.3,37.17-5.67,1.89-17,1.26-15.75,8.82,1.26,3.15,7.56,4.41,10.08,6.3,5,4.41,4.41,5.67,6.93,11.34,4.41,10.71,6.93,9.45,16.38,15.12,6.93,4.41,10.08,11.34,17.64,15.12,3.15,1.26,7.56,1.26,10.08,3.15,4.41,3.78,3.78,9.45,6.93,12,10.08,8.19,17-7.56,27.1-6.93,12,1.26,8.19,13.87,10.08,22.05,3.15,16.39,7.56,3.15,17,6.3,6.3,1.89,8.82,16.38,12,20.79,2.52,3.15,5,9.45,9.45,9.45,6.93,0,5.67-6.3,9.45-9.45,20.8-16.38,13.86,24.58,16.38,33.4,2.52,6.93,13.86,19.53,21.42,17,3.78-1.26,15.12-22.05,20.79-6.3,1.26,3.78-1.89,7.56-3.78,10.08,15.75,6.93,12,1.89,18.28-10.71,5-11.34,10.71-8.82,20.79-10.08,20.16-2.52,25.21-27.73,9.45-39.7-11.34-8.19-23.95-12-34-22.05-9.45-9.45-17.64-15.75-30.24-18.27-19.54-4.41-39.07-6.3-56.71-17.64-10.08-7.56-37.81-35.29-29.61-49.78,6.3-10.71,20.79-2.52,22.05-17,.63-8.82-5.67-18.27-13.23-22.68-13.23-8.82-35.29-5.67-51-5-14.49.63-27.1,6.3-41.59,7.56v.63"/><path class="cls-1" d="M251.73,303.42c-1.26,15.12-8.82,14.49-15.12,24.57-6.3,8.82,6.94,15.12,2.52,25.84-4.41,12-9.45,10.08-1.26,22.68,5.67,7.56,13.86,14.49,18.27,22.68,10.08,17.64-17.64,34-9.45,44.74,7.56,10.08,16.38,1.26,24.58.63,12,0,5,10.71,12,17,8.19,7.56,25.21,3.78,31.51-3.15,8.19-8.82.63-27.72,8.19-32.77,7.56-5.67,15.12,6.93,22.69,6.3,10.08-.63,14.49-18.27,17.64-26.47,6.3-15.12-3.15-10.71-12-21.42-8.19-9.45-1.89-18.27-5.67-27.72-5-12.6-15.12,1.26-25.21-3.15s-4.41-15.12-12.6-20.79c-5.67-3.78-10.71,1.89-16.38-1.26-10.71-3.78-4.41-13.86-8.19-20.79-5.67-10.71-9.45,1.26-18.9.63-5-.63-13.23-10.71-16.38-4.41"/><path class="cls-1" d="M253.62,486.79c-1.89-6.93-8.82-20.16-2.52-25.2,8.19-6.93,17.64,5,23.31,8.82,17,11.34,44.74,0,51.67-18.9,1.26-2.52.63-9.45,3.15-11.34,4.41-3.15,10.08.63,12,5,4.41,10.08-8.82,18.27-11.34,27.1-2.52,10.08,3.15,11.34,10.71,15.75,15.12,7.56,30.25,15.75,42.85,27.73,3.15,3.15,6.3,5,7.56,9.45-8.82,4.41-29.62-5-37.81-8.19-14.5-5-26.46-8.19-42.22-5.67-10.71,1.26-30.88,9.45-41.59,3.78-6.93-4.41-13.23-21.43-17.64-29"/><circle class="cls-pi pigroup taranto" picode="taranto" cx="403.21" cy="373.96" r="8.75"/></svg>