<svg id="Layer_1" data-name="Layer 1" xmlns="http://www.w3.org/2000/svg" xmlns:xlink="http://www.w3.org/1999/xlink" viewBox="0 0 205.87 212.82"><defs><style>.cls-1,.cls-2{fill:none;}.cls-2{stroke:#1d1d1b;stroke-width:0.3px;}.cls-3{fill:#d0e9e5;}.cls-3,.cls-4{fill-rule:evenodd;}.cls-4{fill:url(#Circles);}</style><pattern id="Circles" data-name="Circles" width="46.77" height="54" patternTransform="translate(7.34 -22.35) scale(1.85)" patternUnits="userSpaceOnUse" viewBox="0 0 46.77 54"><rect class="cls-1" width="46.77" height="54"/><circle class="cls-2" cx="39.77" cy="20.83" r="1.5" transform="translate(-5.09 22.68) rotate(-30)"/><circle class="cls-2" cx="38.52" cy="30.67" r="1.5" transform="translate(-7.31 48.68) rotate(-59.98)"/><circle class="cls-2" cx="30.27" cy="17.58" r="1.5" transform="translate(-0.09 35) rotate(-60)"/><circle class="cls-2" cx="22.72" cy="22.88" r="1.5" transform="translate(-8.39 14.41) rotate(-29.99)"/><circle class="cls-2" cx="25.52" cy="30.58" r="1.5" transform="translate(-13.72 37.38) rotate(-60)"/><circle class="cls-2" cx="32.43" cy="36" r="1.5"/><circle class="cls-2" cx="7.82" cy="22.92" r="1.5" transform="translate(-15.94 18.23) rotate(-60)"/><circle class="cls-2" cx="8.45" cy="32" r="1.5" transform="translate(-14.88 8.53) rotate(-30.04)"/><circle class="cls-2" cx="13.72" cy="17.17" r="1.5" transform="translate(-6.75 9.15) rotate(-29.99)"/><circle class="cls-2" cx="18" cy="35" r="1.5"/><circle class="cls-2" cx="39.72" cy="49.25" r="1.5" transform="translate(-19.31 26.46) rotate(-30)"/><circle class="cls-2" cx="24.02" cy="49.33" r="1.5" transform="translate(-21.45 18.62) rotate(-30)"/><circle class="cls-2" cx="31.18" cy="45" r="1.5"/><circle class="cls-2" cx="7.06" cy="49.62" r="1.5" transform="matrix(0.5, -0.87, 0.87, 0.5, -39.44, 30.93)"/><circle class="cls-2" cx="15.84" cy="43" r="1.5"/><circle class="cls-2" cx="38.97" cy="4.5" r="1.5" transform="translate(15.59 36) rotate(-60)"/><circle class="cls-2" cx="31.18" cy="9" r="1.5" transform="translate(-0.32 16.8) rotate(-30)"/><circle class="cls-2" cx="24.06" cy="3.88" r="1.5" transform="translate(8.67 22.78) rotate(-60)"/><circle class="cls-2" cx="7.79" cy="4.5" r="1.5" transform="translate(-1.21 4.5) rotate(-29.99)"/><circle class="cls-2" cx="16.09" cy="8" r="1.5" transform="translate(1.12 17.93) rotate(-60)"/><circle class="cls-2" cx="47.52" cy="17.5" r="1.5"/><circle class="cls-2" cx="47.5" cy="45" r="1.5"/><circle class="cls-2" cx="24.52" cy="40.08" r="1.5" transform="translate(-22.45 41.27) rotate(-60)"/><circle class="cls-2" cx="16.02" cy="27.08" r="1.5" transform="translate(-15.44 27.41) rotate(-60)"/><circle class="cls-2" cx="32.25" cy="25.2" r="1.5" transform="translate(-5.7 40.53) rotate(-60)"/><circle class="cls-2" cx="23.27" cy="13.58" r="1.5" transform="translate(-0.12 26.93) rotate(-60)"/><circle class="cls-2" cx="6.77" cy="13.08" r="1.5" transform="translate(-7.94 12.4) rotate(-60)"/><circle class="cls-2" cx="38.83" cy="13" r="1.5" transform="translate(8.16 40.13) rotate(-60.01)"/><circle class="cls-2" cx="7.02" cy="40.08" r="1.5" transform="translate(-31.2 26.11) rotate(-60)"/><circle class="cls-2" cx="15.52" cy="52.83" r="1.5" transform="translate(-37.99 39.85) rotate(-60)"/><circle class="cls-2" cx="33.27" cy="53.33" r="1.5" transform="translate(-29.55 55.47) rotate(-60)"/><circle class="cls-2" cx="39.5" cy="41.25" r="1.5"/><circle class="cls-2" cx="46.77" cy="54.75" r="1.5"/><circle class="cls-2" cx="46.5" cy="26.95" r="1.5" transform="translate(-0.08 53.76) rotate(-60.01)"/><circle class="cls-2" cx="47.48" cy="8" r="1.5"/><circle class="cls-2" cx="45.48" cy="36.25" r="1.5"/><circle class="cls-2" cx="0.75" cy="17.5" r="1.5"/><circle class="cls-2" cx="0.73" cy="45" r="1.5"/><circle class="cls-2" cy="54.75" r="1.5"/><circle class="cls-2" cx="-0.27" cy="26.95" r="1.5" transform="translate(-23.48 13.25) rotate(-60.01)"/><circle class="cls-2" cx="0.72" cy="8" r="1.5"/><circle class="cls-2" cx="-1.28" cy="36.25" r="1.5"/><circle class="cls-2" cx="15.52" cy="-1.18" r="1.5" transform="translate(8.77 12.85) rotate(-60)"/><circle class="cls-2" cx="33.27" cy="-0.68" r="1.5" transform="translate(17.22 28.47) rotate(-60)"/><circle class="cls-2" cx="46.77" cy="0.75" r="1.5"/><circle class="cls-2" cy="0.75" r="1.5"/></pattern></defs><title>Artboard 11</title><path class="cls-3" d="M3.61,165.21c-10-2.92,3.75-14.59,5.83-17.51,7.09-9.17.84-24.59,0-35,0-2.08-1.25-8.75.84-10,3.75-3.34,5,1.25,7.91,2.92,5,2.92,15,3.75,20,.42,7.5-4.59,9.59-19.17,13.34-27.09l5-11.26c2.09-5.42,1.67-7.09,7.09-5.83,6.67,1.67,11.25,7.08,19.59,7.08,5.83,0,13.75-1.25,16.25-7.5,2.08-6.26-2.09-9.17,3.75-14.17S114.9,40.58,114.9,31c-.42-8.34-10.83-10-9.17-16.67,2.09-7.09,20-10,25.85-12.09,15.84-6.25,6.25,2.08,15.84,7.5,5.42,2.92,20.84-2.08,13.76,10.84-3.33,6.67-12.09,7.5-12.09,16.26s10.42,15,10.42,23.76c0,6.25-6.25,8.34-6.25,15.42,0,6.25,1.67,13.34,5.42,18.34,8.75,12.93,20.84,7.5,33.34,12.09,13.34,4.59,21.68,18.76,2.92,23.34-8.34,2.09-13.76-.42-20.84,6.25-4.17,4.17-7.09,11.26-13.34,12.92-13.75,3.75-6.67-17.09-20.84-12.92C129.08,139,119.49,154,122.41,165.21c2.5,12.5,20.84,10,13.76,27.51-2.92,7.09-10.42,12.09-11.68,1.25h-.41c-2.92,1.25-5.42,4.58-7.92,6.67-6.67,5.42-12.92,2.92-20.84,5-12.09,2.5-20,7.92-33.35,7.08-5.42-.41-11.67-.83-16.26-4.17-7.5-5-9.17-15.42-15.42-21.68C21.54,179,9,171.88,2.78,161.46"/><path class="cls-4" d="M3.61,165.21c-10-2.92,3.75-14.59,5.83-17.51,7.09-9.17.84-24.59,0-35,0-2.08-1.25-8.75.84-10,3.75-3.34,5,1.25,7.91,2.92,5,2.92,15,3.75,20,.42,7.5-4.59,9.59-19.17,13.34-27.09l5-11.26c2.09-5.42,1.67-7.09,7.09-5.83,6.67,1.67,11.25,7.08,19.59,7.08,5.83,0,13.75-1.25,16.25-7.5,2.08-6.26-2.09-9.17,3.75-14.17S114.9,40.58,114.9,31c-.42-8.34-10.83-10-9.17-16.67,2.09-7.09,20-10,25.85-12.09,15.84-6.25,6.25,2.08,15.84,7.5,5.42,2.92,20.84-2.08,13.76,10.84-3.33,6.67-12.09,7.5-12.09,16.26s10.42,15,10.42,23.76c0,6.25-6.25,8.34-6.25,15.42,0,6.25,1.67,13.34,5.42,18.34,8.75,12.93,20.84,7.5,33.34,12.09,13.34,4.59,21.68,18.76,2.92,23.34-8.34,2.09-13.76-.42-20.84,6.25-4.17,4.17-7.09,11.26-13.34,12.92-13.75,3.75-6.67-17.09-20.84-12.92C129.08,139,119.49,154,122.41,165.21c2.5,12.5,20.84,10,13.76,27.51-2.92,7.09-10.42,12.09-11.68,1.25h-.41c-2.92,1.25-5.42,4.58-7.92,6.67-6.67,5.42-12.92,2.92-20.84,5-12.09,2.5-20,7.92-33.35,7.08-5.42-.41-11.67-.83-16.26-4.17-7.5-5-9.17-15.42-15.42-21.68C21.54,179,9,171.88,2.78,161.46"/><path class="cls-3" d="M167,58.74c-4.58,2.92-8.75,22.93-6.25,27.93,3.75,6.25,22.51,11.67,30,12.09,18.76.42-8.33-12.92-12.08-15.42a23.38,23.38,0,0,1-8.34-11.67c-1.25-3.75-.83-12.93-5.83-12.93"/><path class="cls-4" d="M167,58.74c-4.58,2.92-8.75,22.93-6.25,27.93,3.75,6.25,22.51,11.67,30,12.09,18.76.42-8.33-12.92-12.08-15.42a23.38,23.38,0,0,1-8.34-11.67c-1.25-3.75-.83-12.93-5.83-12.93"/></svg>