<svg id="Layer_1" data-name="Layer 1" xmlns="http://www.w3.org/2000/svg" xmlns:xlink="http://www.w3.org/1999/xlink" viewBox="0 0 27.32 34.82"><defs><style>.cls-1,.cls-2{fill:none;}.cls-2{stroke:#1d1d1b;stroke-width:0.3px;}.cls-3{fill:#c775ae;}.cls-4{fill:url(#Crosses);}</style><pattern id="Crosses" data-name="Crosses" width="57.6" height="57.6" patternTransform="translate(15.35 66.08)" patternUnits="userSpaceOnUse" viewBox="0 0 57.6 57.6"><rect class="cls-1" width="57.6" height="57.6"/><line class="cls-2" x1="52.5" y1="3.6" x2="55.5" y2="3.6"/><line class="cls-2" x1="38.1" y1="3.6" x2="41.1" y2="3.6"/><line class="cls-2" x1="23.7" y1="3.6" x2="26.7" y2="3.6"/><line class="cls-2" x1="9.3" y1="3.6" x2="12.3" y2="3.6"/><line class="cls-2" x1="45.3" y1="10.8" x2="48.3" y2="10.8"/><line class="cls-2" x1="30.9" y1="10.8" x2="33.9" y2="10.8"/><line class="cls-2" x1="16.5" y1="10.8" x2="19.5" y2="10.8"/><line class="cls-2" x1="2.1" y1="10.8" x2="5.1" y2="10.8"/><line class="cls-2" x1="52.5" y1="18" x2="55.5" y2="18"/><line class="cls-2" x1="38.1" y1="18" x2="41.1" y2="18"/><line class="cls-2" x1="23.7" y1="18" x2="26.7" y2="18"/><line class="cls-2" x1="9.3" y1="18" x2="12.3" y2="18"/><line class="cls-2" x1="45.3" y1="25.2" x2="48.3" y2="25.2"/><line class="cls-2" x1="30.9" y1="25.2" x2="33.9" y2="25.2"/><line class="cls-2" x1="16.5" y1="25.2" x2="19.5" y2="25.2"/><line class="cls-2" x1="2.1" y1="25.2" x2="5.1" y2="25.2"/><line class="cls-2" x1="52.5" y1="32.4" x2="55.5" y2="32.4"/><line class="cls-2" x1="38.1" y1="32.4" x2="41.1" y2="32.4"/><line class="cls-2" x1="23.7" y1="32.4" x2="26.7" y2="32.4"/><line class="cls-2" x1="9.3" y1="32.4" x2="12.3" y2="32.4"/><line class="cls-2" x1="45.3" y1="39.6" x2="48.3" y2="39.6"/><line class="cls-2" x1="30.9" y1="39.6" x2="33.9" y2="39.6"/><line class="cls-2" x1="16.5" y1="39.6" x2="19.5" y2="39.6"/><line class="cls-2" x1="2.1" y1="39.6" x2="5.1" y2="39.6"/><line class="cls-2" x1="52.5" y1="46.8" x2="55.5" y2="46.8"/><line class="cls-2" x1="38.1" y1="46.8" x2="41.1" y2="46.8"/><line class="cls-2" x1="23.7" y1="46.8" x2="26.7" y2="46.8"/><line class="cls-2" x1="9.3" y1="46.8" x2="12.3" y2="46.8"/><line class="cls-2" x1="45.3" y1="54" x2="48.3" y2="54"/><line class="cls-2" x1="30.9" y1="54" x2="33.9" y2="54"/><line class="cls-2" x1="16.5" y1="54" x2="19.5" y2="54"/><line class="cls-2" x1="2.1" y1="54" x2="5.1" y2="54"/><line class="cls-2" x1="54" y1="2.1" x2="54" y2="5.1"/><line class="cls-2" x1="39.6" y1="2.1" x2="39.6" y2="5.1"/><line class="cls-2" x1="25.2" y1="2.1" x2="25.2" y2="5.1"/><line class="cls-2" x1="10.8" y1="2.1" x2="10.8" y2="5.1"/><line class="cls-2" x1="46.8" y1="9.3" x2="46.8" y2="12.3"/><line class="cls-2" x1="32.4" y1="9.3" x2="32.4" y2="12.3"/><line class="cls-2" x1="18" y1="9.3" x2="18" y2="12.3"/><line class="cls-2" x1="3.6" y1="9.3" x2="3.6" y2="12.3"/><line class="cls-2" x1="54" y1="16.5" x2="54" y2="19.5"/><line class="cls-2" x1="39.6" y1="16.5" x2="39.6" y2="19.5"/><line class="cls-2" x1="25.2" y1="16.5" x2="25.2" y2="19.5"/><line class="cls-2" x1="10.8" y1="16.5" x2="10.8" y2="19.5"/><line class="cls-2" x1="46.8" y1="23.7" x2="46.8" y2="26.7"/><line class="cls-2" x1="32.4" y1="23.7" x2="32.4" y2="26.7"/><line class="cls-2" x1="18" y1="23.7" x2="18" y2="26.7"/><line class="cls-2" x1="3.6" y1="23.7" x2="3.6" y2="26.7"/><line class="cls-2" x1="54" y1="30.9" x2="54" y2="33.9"/><line class="cls-2" x1="39.6" y1="30.9" x2="39.6" y2="33.9"/><line class="cls-2" x1="25.2" y1="30.9" x2="25.2" y2="33.9"/><line class="cls-2" x1="10.8" y1="30.9" x2="10.8" y2="33.9"/><line class="cls-2" x1="46.8" y1="38.1" x2="46.8" y2="41.1"/><line class="cls-2" x1="32.4" y1="38.1" x2="32.4" y2="41.1"/><line class="cls-2" x1="18" y1="38.1" x2="18" y2="41.1"/><line class="cls-2" x1="3.6" y1="38.1" x2="3.6" y2="41.1"/><line class="cls-2" x1="54" y1="45.3" x2="54" y2="48.3"/><line class="cls-2" x1="39.6" y1="45.3" x2="39.6" y2="48.3"/><line class="cls-2" x1="25.2" y1="45.3" x2="25.2" y2="48.3"/><line class="cls-2" x1="10.8" y1="45.3" x2="10.8" y2="48.3"/><line class="cls-2" x1="46.8" y1="52.5" x2="46.8" y2="55.5"/><line class="cls-2" x1="32.4" y1="52.5" x2="32.4" y2="55.5"/><line class="cls-2" x1="18" y1="52.5" x2="18" y2="55.5"/><line class="cls-2" x1="3.6" y1="52.5" x2="3.6" y2="55.5"/></pattern></defs><title>Artboard 23</title><path class="cls-3" d="M9.7,12.61c2.67-1.67,7.67,5,8.67,9.67s4.33,15,6,12,3.33-21.67,2.33-23c-4.61-6.14,8.15,6.18-7.33-2.67C12.37,4.61,6-2.05,3,.61s-2.67,10-3,13.33,1.67,8.67,3,5.33S9.7,12.61,9.7,12.61Z"/><path class="cls-4" d="M9.7,12.61c2.67-1.67,7.67,5,8.67,9.67s4.33,15,6,12,3.33-21.67,2.33-23c-4.61-6.14,8.15,6.18-7.33-2.67C12.37,4.61,6-2.05,3,.61s-2.67,10-3,13.33,1.67,8.67,3,5.33S9.7,12.61,9.7,12.61Z"/></svg>