<svg id="Layer_1" data-name="Layer 1" xmlns="http://www.w3.org/2000/svg" viewBox="0 0 97.97 113.82"><defs><style>.cls-1{fill:#bea7d0;fill-rule:evenodd;}</style></defs><title>Artboard 7</title><path class="cls-1" d="M24.08,65.5c-1.66,4.59-8.76-6.25-8.34-10.42.42-3.75,3.76-6.67,3.76-10.84,0-5-2.92-7.5-5.83-10.84-2.5-3.75-8.34-11.67-5.84-16.67s5.84-1.67,9.59-2.92c4.16-1.25,2.5,0,4.16-5.42C24.91-3.28,27,.47,34.92,6.73c2.5,2.08,6.25,4.17,9.59,3.75,3.33-.83,4.17-5,6.25-5.42C56.59,3,60.76,10.48,67,9.23c7.92-1.66,5-10,12.51-9.17,5,.83,12.92,6.25,15,10.42,1.67,4.59.84,11.67,2.08,16.26.84,3.75,1.67,7.08,1.25,11.25-.83,7.92-4.16,8.33-8.34,13.76-4.17,5-1.67,8.33-8.33,11.25-2.5.83-5,.83-7.51,2.08-4.17,2.08-2.09,4.58-7.5,2.92-2.5-.83-3.33-4.17-5.84-5s-6.67,0-9.59.42c-10.84.83-19.59,11.25-30.43,2.92"/><path class="cls-1" d="M.74,101.35s2.5-5,3.75-6.25c3.76-5.83,10-7.91,14.18-13.34,2.08-2.92,2.08-7.5,5-9.17,2.5-1.25,7.92,1.25,10.84.83,6.67-.83,12.09-4.58,18.76-4.17s13.34,7.09,20,3.33c1.25,6.67-13.76,10-18.76,13.34-9.17,5.83-14.59,14.59-21.68,22.51C24.5,118,20.33,113,11.57,107.18,8.65,105.1-3,101.77.74,98.85"/></svg>