<svg id="Layer_1" data-name="Layer 1" xmlns="http://www.w3.org/2000/svg" viewBox="0 0 97.93 214.56"><defs><style>.cls-1{fill:#edaecf;}</style></defs><title>Artboard 18</title><path class="cls-1" d="M56.92,37.42c5.07.42,14.78,7.6,16,5.49s1.69-14.35.42-14.78-2.11-3-1.69-5.91,3.8-9.71,4.22-12.67-2.53-7.18-.42-8.44,7.18-1.69,8.44,0,3.38,10.56,3,15.62,1.27,11.4-.42,13.93S81.82,44.6,84.78,48.4s4.64,4.22,7.6,9.71,0,18.16,0,22.8,3.8,8.87,4.22,13.93-3.38,5.49-1.69,8.87,3.38,8.87,3,12.25-3,8.87-8.87,15.62-7.6,5.49-5.91,10.56-.84-5.07-.42,5.07,0,10.56,1.69,14.78-3.8,7.6-5.07,12.24S70,178,72.11,181.4s6.75,0,5.49,5.07S68.31,192.8,68.31,197s-.42,8,2.11,13.09,1.69,4.64-5.49,4.22-9.29-.42-10.13-7.18-3.8-9.71-7.6-9.71-11.82-.42-18.58-6.33-4.64-10.56-2.11-11,7.6-2.53,5.91-5.49-2.53-3.8-6.34-5.07,0-4.64-2.53-4.64-2.11.84-4.22,1.27-6.76,0-5.91-2.53S16,159.44,21,154.8s7.6-9.71,1.27-9.71S10,149.31,8.78,144.24,3.71,135,8.36,133.69s5.07-2.53,7.18-5.07,4.22-7.18,0-9.29-7.18,1.27-11-4.22-7.6-13.93-.84-14.78,11.82-.84,8.87-5.49-1.69-1.69-5.49-5.49-6.33-5.07-3-7.6,11-4.64,9.29-9.29S7.94,65.71,12.58,64,20.6,62.76,21,59s2.11-5.91,7.6-8.44,8-2.11,13.51-4.22,3.38-3.8,8.45-7.18S56.92,37.42,56.92,37.42Z"/></svg>