<svg id="Layer_1" data-name="Layer 1" xmlns="http://www.w3.org/2000/svg" xmlns:xlink="http://www.w3.org/1999/xlink" viewBox="0 0 165.6 77.93"><defs><style>.cls-1,.cls-2{fill:none;}.cls-2{stroke:#1d1d1b;stroke-width:0.75px;}.cls-3{fill:#bbd473;}.cls-4{fill:url(#Ripple);}</style><pattern id="Ripple" data-name="Ripple" width="72" height="72" patternTransform="translate(-233.34 -344.89) scale(1.01)" patternUnits="userSpaceOnUse" viewBox="0 0 72 72"><rect class="cls-1" width="72" height="72"/><path class="cls-2" d="M80.4,64.14s1,4.06-2.92,4S73.54,70,74.35,72.43,74.17,77,71,77"/><path class="cls-2" d="M13.35,15.53s3.79-1.74,4.5,2.08,2.61,3.5,4.82,2.23,4.56-.74,5.14,2.37"/><path class="cls-2" d="M66,28.74s-2.6,3.26-5,.18-3.91-1.94-5.3.19-3.74,2.72-5.66.2"/><path class="cls-2" d="M39,29s-3.82-1.67-1.45-4.74S38.45,20,36,19.24s-3.59-2.91-1.65-5.41"/><path class="cls-2" d="M41.14,24.82s4.08-.88,2.36-4.36,0-4.36,2.52-4.67,4.1-2.14,2.69-5"/><path class="cls-2" d="M55.12,14.87s4.08-.88,2.36-4.36,0-4.36,2.52-4.67,4.1-2.14,2.69-5"/><path class="cls-2" d="M27.39,34.19s3.68-2,1.07-4.84-1.21-4.19,1.15-5.18S33,21,30.83,18.64"/><path class="cls-2" d="M10.39,22.94s1.29,4-2.58,4.23S4,29.36,5,31.7s.21,4.62-2.94,4.84"/><path class="cls-2" d="M7.56,41.16s-2-3.65,1.72-4.64,3.29-2.87,1.85-5S10,27,13.1,26.24"/><path class="cls-2" d="M20.44,17s1.35-3.95,4.6-1.83,4.33.52,4.93-2,2.61-3.82,5.26-2.09"/><path class="cls-2" d="M12.33,44.48s-1.77-3.78,2-4.51,3.48-2.63,2.19-4.83S15.8,30.57,18.91,30"/><path class="cls-2" d="M24,38.67s-3.43-2.37-.51-4.93,1.68-4-.55-5.28-3-3.55-.58-5.63"/><path class="cls-2" d="M11,59.64s.3-4.16,4-2.94,4.32-.6,4.27-3.15,1.55-4.36,4.56-3.36"/><path class="cls-2" d="M29.5,52.86s-.38,4.15-4,2.87-4.33.52-4.33,3.07-1.63,4.33-4.62,3.28"/><path class="cls-2" d="M19.67,27.31s-4.17.18-3.38-3.62-1.09-4.22-3.62-3.88-4.5-1-3.86-4.14"/><path class="cls-2" d="M32.71,28s-1.49,3.89,2.37,4.35,3.66,2.38,2.53,4.66-.44,4.6,2.7,5"/><path class="cls-2" d="M3.32,45.67s1.92,3.7,4.82,1.13,4.21-1.15,5.17,1.21,3.14,3.39,5.51,1.29"/><path class="cls-2" d="M51,83.38s-1.86-3.73,1.93-4.56S56.36,76.1,55,73.93s-.88-4.54,2.21-5.21"/><path class="cls-2" d="M64.56,10S67,13.34,63.44,14.8s-2.9,3.26-1.2,5.17,1.64,4.32-1.29,5.51"/><path class="cls-2" d="M59.95,14.27s-4.09.84-2.4,4.33,0,4.36-2.58,4.64-4.12,2.1-2.75,5"/><path class="cls-2" d="M17.08.72s4.17.2,3,3.91.71,4.31,3.26,4.19,4.39,1.44,3.47,4.47"/><path class="cls-2" d="M39.44,15.71s-4-1-2.23-4.42.13-4.36-2.39-4.74-4-2.26-2.55-5.05"/><path class="cls-2" d="M18,7.9s-4-1.27-4.22,2.6-2.17,3.78-4.52,2.78-4.62-.19-4.82,3"/><path class="cls-2" d="M8.4,64.14s1,4.06-2.92,4S1.54,70,2.35,72.43,2.17,77-1,77"/><path class="cls-2" d="M70.32,33.48S68,37,65.41,34.13s-4.08-1.56-5.26.7-3.46,3.07-5.61.75"/><path class="cls-2" d="M50.38,1.6s1,4.06-2.92,4-3.95,1.87-3.13,4.28S44.15,14.5,41,14.45"/><path class="cls-2" d="M43.88,31.8s-1.63-3.83,2.2-4.44,3.57-2.51,2.35-4.76-.61-4.58,2.51-5.07"/><path class="cls-2" d="M74.88,33.61s-4.15-.44-2.81-4.08-.46-4.34-3-4.37-4.3-1.7-3.21-4.67"/><path class="cls-2" d="M62.12,38.22s3.47-2.32,4.77,1.34S70,42.6,72,41s4.39-1.45,5.45,1.53"/><path class="cls-2" d="M71.68,62.73s-.76,4.1-4.29,2.48-4.36.12-4.59,2.66-2,4.16-4.9,2.84"/><path class="cls-2" d="M28.78,44s4.13.55,2.7,4.16.34,4.35,2.89,4.45,4.25,1.81,3.08,4.75"/><path class="cls-2" d="M14.79,43.43s1.2,4,4.53,2,4.35-.36,4.85,2.15,2.46,3.91,5.18,2.29"/><path class="cls-2" d="M1.79,60S3,64,6.33,62s4.35-.36,4.85,2.15,2.46,3.91,5.18,2.29"/><path class="cls-2" d="M37.88,69s4.15-.36,2.89-4,.54-4.33,3.09-4.31,4.33-1.61,3.3-4.6"/><path class="cls-2" d="M34.49,60.09s3.21,2.66.08,5-2,3.87.09,5.31,2.65,3.79.1,5.66"/><path class="cls-2" d="M50.83,63.59s-3.37-2.46-.39-4.94,1.78-4-.42-5.29-2.87-3.62-.44-5.64"/><path class="cls-2" d="M55.94,59.43s2.82-3.07,5,.17,3.76,2.21,5.3.18,3.92-2.45,5.66.2"/><path class="cls-2" d="M40.17,32.48s4.16.24,3,3.94.66,4.31,3.22,4.22,4.38,1.49,3.43,4.5"/><path class="cls-2" d="M31.67,40.41s-.39,4.15,3.45,3.56,4.16,1.3,3.69,3.81.81,4.55,3.94,4.07"/><path class="cls-2" d="M19.47,42.71s1.06-4,4.46-2.16,4.36.21,4.78-2.31,2.33-4,5.1-2.46"/><path class="cls-2" d="M1.21,13.18s4.16-.21,3-3.92.69-4.31,3.24-4.2S11.86,3.59,10.93.57"/><path class="cls-2" d="M35.69,57.65S31.87,56,31.22,59.8s-2.55,3.54-4.78,2.3-4.57-.66-5.1,2.46"/><path class="cls-2" d="M83.79,52.82S82.21,49,79.09,51.27s-4.29.78-5-1.66S71.21,46,68.67,47.85"/><path class="cls-2" d="M67.72,48.84s-1,4-4.44,2.21-4.36-.16-4.75,2.36-2.28,4-5.07,2.52"/><path class="cls-2" d="M59.64,60.81s-.12,4.17-3.86,3.11-4.29.78-4.13,3.33-1.37,4.42-4.41,3.55"/><path class="cls-2" d="M51.35,47.94s2-3.65,4.85-1,4.17,1.27,5.2-1.07,3.24-3.3,5.54-1.14"/><path class="cls-2" d="M41.29,59.08s-2-3.68,1.81-4.61,3.34-2.81,1.93-4.94S44,45,47.09,44.25"/><path class="cls-2" d="M62,83.53s-1.29-4,2.58-4.23,3.77-2.19,2.76-4.53-.21-4.62,2.95-4.84"/><path class="cls-2" d="M46.41,34s4.09-.81,3.89,3.06,1.72,4,4.17,3.28,4.61.34,4.45,3.5"/><path class="cls-2" d="M66.59,12.82s4.13-.53,3.67,3.32,1.45,4.12,3.94,3.56,4.58.65,4.2,3.8"/><path class="cls-2" d="M65.07,53.84s2.41,3.4,4.94.45,4-1.73,5.28.48,3.58,2.92,5.64.52"/><path class="cls-2" d="M45.46,62.83s-3.72,1.88-1.18,4.81S45.39,71.86,43,72.8s-3.42,3.11-1.35,5.5"/><path class="cls-2" d="M28.23,80.31s-3.57-2.16-.81-4.89,1.43-4.12-.87-5.24-3.18-3.36-.92-5.59"/><path class="cls-2" d="M20,65.69s1.2,4-2.68,4.17S13.46,72,14.42,74.32s.1,4.62-3.06,4.76"/><path class="cls-2" d="M2.88,33.61s-4.15-.44-2.81-4.08-.46-4.34-3-4.37-4.3-1.7-3.21-4.67"/><path class="cls-2" d="M-9.88,38.22s3.47-2.32,4.77,1.34S-2,42.6,0,41s4.39-1.45,5.45,1.53"/><path class="cls-2" d="M-.32,62.73s-.76,4.1-4.29,2.48S-9,65.33-9.2,67.88s-2,4.16-4.9,2.84"/><path class="cls-2" d="M-16.06,59.43s2.82-3.07,5,.17,3.76,2.21,5.3.18,3.92-2.45,5.66.2"/><path class="cls-2" d="M11.79,52.82S10.21,49,7.09,51.27s-4.29.78-5-1.66S-.79,46-3.33,47.85"/><path class="cls-2" d="M-5.41,12.82s4.13-.53,3.67,3.32S-.29,20.26,2.2,19.7s4.58.65,4.2,3.8"/><path class="cls-2" d="M-6.93,53.84s2.41,3.4,4.94.45,4-1.73,5.28.48,3.58,2.92,5.64.52"/><path class="cls-2" d="M80.4-7.86s1,4.06-2.92,4S73.54-2,74.35.43,74.17,5,71,5"/><path class="cls-2" d="M51,11.38s-1.86-3.73,1.93-4.56S56.36,4.1,55,1.93s-.88-4.54,2.21-5.21"/><path class="cls-2" d="M8.4-7.86s1,4.06-2.92,4S1.54-2,2.35.43,2.17,5-1,5"/><path class="cls-2" d="M34.49-11.91s3.21,2.66.08,5-2,3.87.09,5.31,2.65,3.79.1,5.66"/><path class="cls-2" d="M62,11.53s-1.29-4,2.58-4.23,3.77-2.19,2.76-4.53-.21-4.62,2.95-4.84"/><path class="cls-2" d="M45.46-9.17s-3.72,1.88-1.18,4.81S45.39-.14,43,.8s-3.42,3.11-1.35,5.5"/><path class="cls-2" d="M28.23,8.31s-3.57-2.16-.81-4.89,1.43-4.12-.87-5.24-3.18-3.36-.92-5.59"/><path class="cls-2" d="M20-6.31s1.2,4-2.68,4.17S13.46,0,14.42,2.32s.1,4.62-3.06,4.76"/></pattern></defs><title>Artboard 21</title><path class="cls-3" d="M13.2,44.53c1.52-2.53-.76-4-3-5.06,4-7.34,7.08,1,8.35,4.81,1.52,5.06,5.31,8.1,9.87,10.63A110.56,110.56,0,0,0,42.8,62.24c6.07,2.28,10.63,5.31,3.54,9.87-10.88,6.83-21,6.07-31.62-.25-2-1-3.79-2.78-5.82-3.8-3-1.26-3,0-5.57.25-7.59.25-.25-4.81,2.78-6.83,4.81-3,2.78-6.32,3.79-11.38.51-2.74-.34.18,1.77-4.55Z"/><path class="cls-3" d="M71.9,44.27c7.08-3,13.66-13.41,18.22-19.48C92.39,21.5,94.92,18,98,15.43s6.07-2.28,9.36-4C112.63,9.11,113.9-1.77,121,.25c3.54,1.27,5.56,5.82,7.34,8.35l10.63,13.66c1.77,2.28,3,4.55,6.07,4,1.77-.25,1.77-4.55,4.05-.76,1.77,3.29-3,7.08-3.54,10.12-.25,2.28.51,3,1.27,5.06,2.78,5.57,7.08,10.88,10.88,15.94,1.27,2,8.85,9.61,7.84,12.14-2.28,5.31-20.49-12.14-22.77-14.67-7.84-8.35-18-7.08-28.59-6.33-5.06.25-10.12.5-15.18,1.27-5.31,1-10.88,3.29-16.19,3.29-6.83.25-10.62.76-10.37-5.31Z"/><path class="cls-3" d="M11.17,32.38c1-.76,1-1,1.27-2.28.76-3.54-.51-5.57,1.77-9.36,1.27-2.53,4-6.83,7.84-5.57,2.53,1,2.28,3,1,5.06-1.52,2.78-4.3,2.28-4.55,6.07-.25,1.77,1.77,3.29.25,5.06-1.77,2-4.55,4.81-5.82,2.79Z"/><path class="cls-4" d="M13.2,45.54c1.52-2.53-.76-4-3-5.06,4-7.33,7.08,1,8.35,4.81,1.52,5.06,5.31,8.1,9.87,10.63A110.8,110.8,0,0,0,42.8,63.25c6.07,2.28,10.63,5.31,3.54,9.87-10.88,6.83-21,6.07-31.62-.25-2-1-3.79-2.78-5.82-3.8-3-1.27-3,0-5.57.25-7.59.25-.25-4.81,2.78-6.83,4.81-3,2.78-6.32,3.79-11.39.51-2.73-.34.18,1.77-4.55Z"/><path class="cls-4" d="M71.9,45.29c7.08-3,13.66-13.41,18.22-19.48C92.39,22.51,94.92,19,98,16.44s6.07-2.27,9.36-4C112.63,10.12,113.9-.76,121,1.26c3.54,1.27,5.56,5.82,7.34,8.35l10.63,13.66c1.77,2.28,3,4.55,6.07,4,1.77-.25,1.77-4.55,4.05-.76,1.77,3.29-3,7.08-3.54,10.12-.25,2.28.51,3,1.27,5.06,2.78,5.57,7.08,10.88,10.88,15.94,1.27,2,8.85,9.62,7.84,12.14-2.28,5.31-20.49-12.14-22.77-14.67-7.84-8.35-18-7.08-28.59-6.33-5.06.25-10.12.51-15.18,1.27-5.31,1-10.88,3.29-16.19,3.29-6.83.25-10.62.76-10.37-5.31Z"/><path class="cls-4" d="M11.17,33.39c1-.76,1-1,1.27-2.28.76-3.54-.51-5.56,1.77-9.36,1.27-2.53,4-6.83,7.84-5.57,2.53,1,2.28,3,1,5.06-1.52,2.78-4.3,2.28-4.55,6.07-.25,1.77,1.77,3.29.25,5.06-1.77,2-4.55,4.81-5.82,2.78Z"/></svg>