<svg id="Layer_1" data-name="Layer 1" xmlns="http://www.w3.org/2000/svg" viewBox="0 0 76.3 136.77"><defs><style>.cls-1{fill:#f6d7e7;fill-rule:evenodd;}</style></defs><title>Artboard 8</title><path class="cls-1" d="M1.07,10.63c0,2.5-1.67,6.25-.84,8.75,2.09,5,5,2.5,9.18,4.17,5.41,2.5,5.83,7.92,10.84,10.84,5.83,3.75,14.17,1.67,14.59,10.83.42,7.5-7.09,14.17-10.84,20-2.5,4.17-2.08,4.58-5.83,7.08s-5.84,1.25-8.34,5.42C6.91,84,10.24,94,11.91,100.25,14,108.59,19,114,23.16,121.09c2.92,5.84,5,11.25,10.84,14.17,16.67,8.34,22.51-22.51,34.18-5,2.08,3.75,10.42,12.09,7.5.83-1.67-5-12.09-10.42-15.42-14.17-5.42-5.42-9.59-11.67-15-17.09C39.42,93.58,32.33,89,32.33,80.24,31.92,62.73,50.25,61.07,54,46.47c1.67-7.08-.83-16.25-2.09-23.76C49.84,13.13,45.67,14,37.75,8.54,30.25,3.54,27.33-1,17.32.21,9.82,1.46,2.32,4.79.23,12.3"/></svg>