<svg id="Layer_1" data-name="Layer 1" xmlns="http://www.w3.org/2000/svg" xmlns:xlink="http://www.w3.org/1999/xlink" viewBox="0 0 176.02 280.4"><defs><style>.cls-1{fill:none;}.cls-2{fill:#1d1d1b;}.cls-3{fill:#cf328a;}.cls-4{fill:url(#USGS_21_Intricate_Surface);}</style><pattern id="USGS_21_Intricate_Surface" data-name="USGS 21 Intricate Surface" width="54" height="54" patternTransform="translate(-274.14 -272.33) scale(1.01)" patternUnits="userSpaceOnUse" viewBox="0 0 54 54"><rect class="cls-1" width="54" height="54"/><path class="cls-2" d="M22.58,55.48c-.75.5-1.31,4.69-2.06,5.25-.29.22-.75.69-.75.94,0,.5-.27.44-.27.94,0,1-.74,2.31-2.12,2-.36-.08-.67-1,1.38-2.15.22-.12,0-.91.14-1.34,2-5.28,3.87-9.6,4.43-8.28Z"/><path class="cls-2" d="M28.33,56.49c-.16-.48-.43-.76-.43-1.24l-3.28.68c-.89-1,1.12-1.39,2.49-2.05a23,23,0,0,1,2.71-1.42C29.62,53.55,28.65,55.17,28.33,56.49Z"/><path class="cls-2" d="M48.75,59.06a1,1,0,0,1-.76,1.4c-.86.13-2,.42-2,.86a3.33,3.33,0,0,1-2.47,3,14.9,14.9,0,0,1,5.17-5.37c.25-.17-.05-.94.15-1.35.66-1.33,2.65.12,2.84-2.29,0-.23-.41-.49-.66-.74,2.11.6,1.86-2.13,3.75-2.25v1.5a3.61,3.61,0,0,0-2.26.73C50.18,55.69,52.58,58.6,48.75,59.06Z"/><path class="cls-2" d="M3.94,60.56c-.35-2,2.65-5.85,3.56-7.5a1.84,1.84,0,0,1,.25,1.69c-.38,2-2.63,3.29-2.61,5.85-.56.94-.5,1.56-2.14,1.46Z"/><path class="cls-2" d="M11.44,55.31a3.31,3.31,0,0,0-.75-2.25,1,1,0,0,1,1.4.76A3.54,3.54,0,0,1,11.44,55.31Z"/><path class="cls-2" d="M2.25,55.13C.46,54.89,2,53.54,1.5,52.88,3.69,53,.93,54.73,2.25,55.13Z"/><path class="cls-2" d="M13.6,56.2c1.65-1.24,2.26-4.91,4.15-5.7-1.52,1.15-1.67,4.89-2.88,6.19-2.32,2.49-5.57,3.82-7.29,6.92-.62,1.12.7,2.71-.83,3.71-.26-2.43-.23-5,1.66-6.56S11.61,57.69,13.6,56.2Z"/><path class="cls-2" d="M36.5,55.75c-.44.49-1.18-.08-1.32-.68-.23-1-1.2-2.61-.08-3a3.77,3.77,0,0,0,3,.75C35.52,52.8,37.22,55,36.5,55.75Z"/><path class="cls-2" d="M44,56.45c.16.3.75-.1,1-.45-1.06-.61.11-2.17-1.2-2.39-.48-.08-1,.48-1.73.38C42.65,55.09,43.36,55.32,44,56.45Z"/><path class="cls-2" d="M-5.25,59.06A1,1,0,0,1-6,60.47c-.86.13-2,.42-2,.86a3.33,3.33,0,0,1-2.47,3,14.9,14.9,0,0,1,5.17-5.37c.25-.17-.05-.94.15-1.35.66-1.33,2.65.12,2.84-2.29,0-.23-.41-.49-.66-.74,2.11.6,1.86-2.13,3.75-2.25v1.5a3.61,3.61,0,0,0-2.26.73C-3.82,55.69-1.42,58.6-5.25,59.06Z"/><path class="cls-2" d="M53.27,43.18c.83-.31,1.72.69,2.13.5,2.15-1,2-3.57,4.67-1.39,0,0,.61-.43.58-.64-.12-.76-.91-1.41-.6-2.25.21-.58.8-.7,1.41-.9,1.86-.62-.47-2.49,2.19-3.82.3-.15.34-1.41,0-2-.79-1.26-2.34-.79-3.63-.83a3.55,3.55,0,0,0,3-1.5l-.75,1.5,3,1.5c-.5.25-1.23.41-1.38.8-.35.87.15,2.08-.25,2.89-.1.2-1-.1-1.27.15-1.22,1.43-.59,4-1.83,4.85-2,1.41-6,1-7,4.15-.17.56,1.14,1.27,2,1.32s1.85-.68,2.24-2.15a2,2,0,0,0,.81,2.09c1.47.57,1.36-2.45,2.9-2a1.4,1.4,0,0,1,.66,1.33c-.13.38-.87.71-1.37.71-.25,0-.59-.62-.71-.56-1.54.66-3.58.47-4.47,2.18a3.39,3.39,0,0,0-.07,1.46c-.82-.05-2.15.29-2.06-.73s1-2,.46-3c-.21-.41-.9-.55-1.4-.8Z"/><path class="cls-2" d="M54.75,34.13c-1.59.17-.68-.91-.75-1.5Z"/><path class="cls-2" d="M54.38,9.38c-.1,2.45-.17,1.65-2.62,2.44.5-.25,2-.95,2.1-1.32.24-.78-.09-1.14.32-1.84-.19-.75-1.48-.75-.8-1.78,1-1.53.21-3.75,2.13-4.53.43-.18.24.47.74.47C56.25,4.88,54.47,7.16,54.38,9.38Z"/><path class="cls-2" d="M52.5,37.31c.52-1.46,1.83-1.35,3-1.5C54.77,36.85,53.6,37,52.5,37.31Z"/><path class="cls-2" d="M5.63,29.06a2.38,2.38,0,0,1-.74,0,4.94,4.94,0,0,1,1.5-2.25c.25.5.75,1.08.62,1.46S6.16,28.89,5.63,29.06Z"/><path class="cls-2" d="M22.58,1.48c-.75.5-1.31,4.69-2.06,5.25-.29.22-.75.69-.75.94,0,.5-.27.44-.27.94,0,1-.74,2.31-2.12,2-.36-.08-.67-1,1.38-2.15.22-.12,0-.91.14-1.34,2-5.28,3.87-9.6,4.43-8.28Z"/><path class="cls-2" d="M14.26,10c-.72-.24-1.69-1.07-1.59-1.32.92-2.33,1.82-3.3,2.75-3.34s-1.22,1.44-1.7,2.47,1.94,2.47,1.52,3.09S14.78,10.57,14.26,10Z"/><path class="cls-2" d="M12,11.06c-.58,1.92-.39,2.11-3,3,.76-.23.56.06.75-2.25C9.77,11.52,11.5,11.31,12,11.06Z"/><path class="cls-2" d="M9.73,20.06c-.21.52-.45,1.32-.75,1.35-2,.18-2.4,1.71-3,3.16,1.3.36,2.23,1.66,3.75,1.5-.7.4-1.49,1.13-2.17.64-.25-.18,0-1.18-.13-1.24-2.87-1-2.15-3.14-.58-4.52.16-.14,1,.64,1.3.48,1.26-.71-.48-4.55.83-3.61.65.7,1.68,1.45,2.83-.12.5-.68.17-1.88.17-2.88.38-.75,2.06-.32,2.1.75C14.19,18.15,10.64,17.76,9.73,20.06Z"/><path class="cls-2" d="M18.74,17.8c-.23.29-.49.68-.74.68s-.5-.42-.75-.67c.5-.25,1.32-.47,1.34-.76.12-1.46-.23-3.15-2.09-3.74C19.54,12.4,20.38,15.74,18.74,17.8Z"/><path class="cls-2" d="M21.92,19.33c.31-3.9-.55-6,3.58-4.51.94,1.31-1.82.21-2.12.82-.15.31,1.68,1.05,1.55,1.43s-2.11.39-2.35.8c-.43.75.25,1.5.66,2.2C22.75,19.81,21.91,19.54,21.92,19.33Z"/><path class="cls-2" d="M26.21,20c-.12.05-.46-.4-.71-.65.8-.43,1.3-2.11,2.08-1.33S27,20.25,26.21,20Z"/><path class="cls-2" d="M15.5,26.75c-.44.49-1.18-.08-1.32-.68-.23-1-1.2-2.61-.08-3a3.77,3.77,0,0,0,3,.75C14.52,23.8,16.22,26,15.5,26.75Z"/><path class="cls-2" d="M31,16.13c2.79-.38,3.05-2.78,4.58-4.23.27-.26,1,.08,1.35-.17a2.85,2.85,0,0,0,.82-2.92C39,10.47,40.38,8.19,41.3,9c1.68,1.53,1.51,4,3.95,5-.39,1.91-2.09,2.94-3,4.5.81-2.63,2.84-5.43-.75-6.75.25-.25.67-.5.67-.75a1.7,1.7,0,0,0-.71-1.39,2.24,2.24,0,0,0-2.84.7c-.95,1.77-1.52,1.91-2.9,3.18-.67.61,0,2.41-1,3.51-.25-.25-.63-.83-.73-.65-1,1.78-2.27,1.59-2.64.46Z"/><path class="cls-2" d="M30.43,12.32h0c-.2-.15-1.26.41-1.27.69-.08,1.62-.38,3.28-2.41,3,2.41-2,3.1-4.92,4.41-7.55.44-.9-2.66-3.14-1.41-3.89L32,5.5c.65-.7,1.42-1.16,3,0-1.07,0-2.33-.2-2.89.81C31.18,8,32,8.89,31.84,10.74c0,.29-1.07.42-1.22.81A2.48,2.48,0,0,0,30.43,12.32Z"/><path class="cls-2" d="M28.33,2.49c-.16-.48-.43-.76-.43-1.24l-3.28.68C23.71.91,25.72.53,27.1-.13A23,23,0,0,1,29.8-1.55C29.62-.45,28.65,1.17,28.33,2.49Z"/><path class="cls-2" d="M38.25,41.06c.48-1.06,1.43-.7,2.25-.75C40,41.25,39.14,41.23,38.25,41.06Z"/><path class="cls-2" d="M47.57,2.07c-.45,4.31-.57,0-.82,0,.71-.28,1.75-.25,1.5-1.5A4.82,4.82,0,0,0,47.57,2.07Z"/><path class="cls-2" d="M48.75,5.06A1,1,0,0,1,48,6.47c-.86.13-2,.42-2,.86a3.33,3.33,0,0,1-2.47,3,14.9,14.9,0,0,1,5.17-5.37c.25-.17-.05-.94.15-1.35.66-1.33,2.65.12,2.84-2.29,0-.23-.41-.49-.66-.74,2.11.6,1.86-2.13,3.75-2.25v1.5a3.61,3.61,0,0,0-2.26.73C50.18,1.69,52.58,4.6,48.75,5.06Z"/><path class="cls-2" d="M50.94,11.05c-.2.91-.59,2-1.47,2.12-.7.13-1.47,1.07-2.22-1.36,2.33.74,3-1.21,3.75-3A10.07,10.07,0,0,1,50.94,11.05Z"/><path class="cls-2" d="M47.32,18.6a3.5,3.5,0,0,0-.07,1.47,2.41,2.41,0,0,1-.58-2.87c.28-.37,1.33-.12,2.08-.12A6.78,6.78,0,0,0,47.32,18.6Z"/><path class="cls-2" d="M34.75,22.31c0-.5.26-1.24.06-1.36-.77-.48-1.91-.32-2.91-.42.28-.23.52-.55.83-.62.87-.22,1.72.87,2,.69,1.95-1.12,4.17-4.7,5.79-6.33.23.28-1,2.6-1,2.67C37.74,19.18,36.48,20.15,34.75,22.31Z"/><path class="cls-2" d="M38.78,24.23c-.66-.43-2-.4-1.35-1.47,1.29-2.16,4.12-2.18,5.88-3.83.44,2.11,3.16,1.61,4.42,3.07.25.3,0,.93.12,1.42.18.77.21,1.76,1.46,1.51l-.75.75c-1.33-2-1.62.22-3,0,.5-.25,1.25-.41,1.37-.79a3.37,3.37,0,0,0-.65-3.67c-.41-.37-1.11-.81-1.39-.65-.9.51-1,1.74-.83,2.86-1.22-1.13-1.79-3.79-3.62-2.77a10.17,10.17,0,0,0-2.14,2.22c-1.09,1.33,2.43.94,2,2.81A9.8,9.8,0,0,0,38.78,24.23Z"/><path class="cls-2" d="M31.85,24.51c.14.18,1-.3,1.25-.09.46.47,1.83,1.12,2,1.86.44-.34,1.17-.66,1.18-1,0-1-2.46-1.16-3.88-1.65a2.07,2.07,0,0,1-1.21-1.94C31.35,22.64,31.29,23.8,31.85,24.51Z"/><path class="cls-2" d="M28.41,24.09c.49,1.61-.84,1.1-1.41.16-.37-.94-.92-3.74,1.5-3.85.24,0,.5.41.75.66C28.72,21.51,26.7,18.5,28.41,24.09Z"/><path class="cls-2" d="M3.94,6.56C3.59,4.61,6.59.72,7.5-.94A1.84,1.84,0,0,1,7.75.75C7.37,2.73,5.12,4,5.14,6.6c-.56.94-.5,1.56-2.14,1.46Z"/><path class="cls-2" d="M1.25,14.38c2.29-1.26,0-1.4,2.69-2.56,1.31.38,1.6,2,1.69,3.38,0,.32-.37,1.38-.37,1.88l-.75-1.5c-.26-.51-.45-1.78-.62-1.81A3.91,3.91,0,0,0,1.25,14.38Z"/><path class="cls-2" d="M17.13,2.38V.88a3.3,3.3,0,0,0,2.25.75Z"/><path class="cls-2" d="M3.84,21.41C4.34,23,3,22.5,2.44,21.56c-.37-.94-.92-3.74,1.5-3.85.24,0,.49.41.75.66C4.16,18.83,2.13,15.82,3.84,21.41Z"/><path class="cls-2" d="M-.73,43.18c.83-.31,1.72.69,2.13.5,2.15-1,2-3.57,4.67-1.39,0,0,.61-.43.58-.64-.12-.76-.91-1.41-.6-2.25.21-.58.8-.7,1.41-.9C9.32,37.87,7,36,9.65,34.67c.3-.15.34-1.41,0-2-.79-1.26-2.34-.79-3.63-.83a3.55,3.55,0,0,0,3-1.5l-.75,1.5,3,1.5c-.5.25-1.23.41-1.38.8-.35.87.15,2.08-.25,2.89-.1.2-1-.1-1.27.15-1.22,1.43-.59,4-1.83,4.85-2,1.41-6,1-7,4.15-.17.56,1.14,1.27,2,1.32s1.85-.68,2.24-2.15a2,2,0,0,0,.81,2.09C6,48,5.92,45,7.46,45.5a1.4,1.4,0,0,1,.66,1.33c-.13.38-.87.71-1.37.71-.25,0-.58-.62-.71-.56-1.54.66-3.58.47-4.47,2.18a3.39,3.39,0,0,0-.07,1.46c-.82-.05-2.15.29-2.06-.73s1-2,.46-3c-.21-.41-.9-.55-1.4-.8Z"/><path class="cls-2" d="M10.21,50.63c.39-.14.54-.88.79-1.38l1.5.75c1.33-3.25,3.59-7.42,7.5-7.5V44a2.07,2.07,0,0,0-2.13.82c-.68,1.19,1.55,1.87-.12,3.68,0-1.3.41-3.13-.83-3.5-1.5-.45-2.48,1.86-2.17,3.5-.5,0-1.27-.13-1.36.07-.92,2-3.3,2.38-3.89,4.43-1.23-1.35-3.39-1.65-3.75-3.75C7.58,48.76,8.58,51.22,10.21,50.63Z"/><path class="cls-2" d="M.75,34.13c-1.59.17-.68-.91-.75-1.5Z"/><path class="cls-2" d="M4.62,34a2.69,2.69,0,0,1,.63,2.34c-.5-.25-1.34-.51-1.33-.74C4,34,2.42,32.77,3,31.13,4,31.86,4,33.16,4.62,34Z"/><path class="cls-2" d="M.75,29.63c-.21-1.67,1.11-.28,1.5-.75Z"/><path class="cls-2" d="M14.33,31.13c-.13,2.54,1.82,4,3.67,5.25A3.28,3.28,0,0,0,15.74,35c-.23,0-.49.57-.74.57-.5,0-1.31-.38-1.34-.68-.13-1.45-.78-2.94.45-4.59.16-.21-.36-.9-.61-1.4l-1.5.75-1.5-3c2.28.32,2.59,3,4.5,3.75C14.75,30.63,14.34,30.87,14.33,31.13Z"/><path class="cls-2" d="M19.14,34.59c1.27.13,1.25-.95,1.25-1.64s-.45-1,1.18-2.58c.32-.31.38-1.38.72-2.12l.82.68c-.47.3-1.15.51-1.32.93-.24.64.32,1.66,0,2.08C21.2,32.64,20,33,20,34.52c0,.23.66.53.62.63a5.9,5.9,0,0,0-.35,3.1C18.71,37.38,19.24,35.89,19.14,34.59Z"/><path class="cls-2" d="M26.47,31.78c-1.25,1.56-2.87-.09-3.77,1.91,1.31-.46.53.35,3,.78-.06-.56-.29-1.4-.09-1.52,2.43-1.4,1.17-4.49,3-6.39l-1-.23a9,9,0,0,1-.93,3.07C24.91,30.53,27.55,30.43,26.47,31.78Z"/><path class="cls-2" d="M21.15,40.69c-1.82-1.47-1.77.4-3.15.18l.75-1.5c1.28,1.66,2.58-.61,3.57.21C23.12,40.24,21.38,40.88,21.15,40.69Z"/><path class="cls-2" d="M22.63,44.71c0,.28-1,.4-1.23.81-1,2.16-.33,2.76.74,4.43a1,1,0,0,1-1.41-.76c-.21-1.26.59-1.16-.72-2.44-.38-.37,1.33-1.34,1.65-2.18.62-1.61,1.95-2.09,2.79-3.51.29-.49,1.27.17,1.19.63C25.35,43.38,22.81,41.13,22.63,44.71Z"/><path class="cls-2" d="M23,8c-.41-.28.31-.92.89-1.18.65,1.5,3.21.43,3.24,2.14,0,.63-.94,1.18-1,2.08C24.74,10,24.56,9.07,23,8Z"/><path class="cls-2" d="M29.25,40.5c.75,1.64-1.22,1-1.51,1.83C26.67,40.42,29.61,41.83,29.25,40.5Z"/><path class="cls-2" d="M31.09,41.29,32.6,42c.24-.5.75-1.11.6-1.45-1-2.15.31-4.38,1-6.37a1.59,1.59,0,0,0,2.17-.81c.92-1.8,2.85-4.58,3-6.69-.55.11-1.41.11-1.48.37C37,30.26,34.33,35.2,30.75,36c-.12,0-.21.62-.11.93.28.85,1.47.86,1.75,1.42C32.93,39.42,31.79,40.38,31.09,41.29Z"/><path class="cls-2" d="M29.37,31.88c.12.49-.3,1.11.24,1.64.88-2.17.92-4.64,3.28-6.27-.95-.67-1.59.12-2.32.49C31.71,29.5,28.9,30.06,29.37,31.88Z"/><path class="cls-2" d="M33.81,46.91c-.59,1.15,1.46,2.89,2.13,2.73a2,2,0,0,0,1.56-2.76c3.07.16,6.8,3.27,4.31,5.82-.53.54-1.85-.17-2.81-.57a2.74,2.74,0,0,0,2.11-3.68A2.18,2.18,0,0,0,39,47.6c-2,.15-1.12,2-2.28,3a2.31,2.31,0,0,1-1.46.69c-.87-.07-1.55-.89-2.32-1.27-.31-.15-1.1.25-1.34.67a1.53,1.53,0,0,0,.66,2.2c-1.26.26-1.47-.9-1.34-1.46.32-1.37,2.83-1.19,2.77-3,0-1-.71-1.86-2.18-2.25,3.29.7,2.51-2.94,4.86-3.74,1.49-.51.78.81.64,1.37C36.63,45.2,34.48,45.6,33.81,46.91Z"/><path class="cls-2" d="M38.76,37.67a7.61,7.61,0,0,0-1.51.71c1.21-.85.05-2.11,2.14-3.21.5-.27.3-1.51-.64-2l.75-.75c-.34,1.84.4,3.52.75,5.25A6,6,0,0,0,38.76,37.67Z"/><path class="cls-2" d="M44.17,34.38a3.94,3.94,0,0,1-.67,1.5c-.25-.25-.7-.6-.65-.7a5.9,5.9,0,0,0,.65-3.05A7.66,7.66,0,0,1,44.17,34.38Z"/><path class="cls-2" d="M43.12,28.67c-1.27.32-1.38-.83-1.38-1.48s.82-1.14,1.29-.66,0,1.7,2.34,1.41C44.62,28.19,43.91,28.47,43.12,28.67Z"/><path class="cls-2" d="M47.12,29.13c-.7.8-1,3-2,2S46.24,29.76,47.12,29.13Z"/><path class="cls-2" d="M47.08,49.09c-.22.94-.5,2.77-2,2.14-.18-.07-.06-.85-.06-1.36,1.27.07,2.73-.32,2.83-2.26,0-.22-1.11-.42-1.18-.77-.15-.69-1.08-1.47,1.35-2.22C47,46,47.44,47.59,47.08,49.09Z"/><path class="cls-2" d="M.38,9.38C.27,11.82.2,11-2.25,11.81c.5-.25,2-.95,2.1-1.32.24-.78-.09-1.14.32-1.84C0,7.91-1.31,7.91-.62,6.88c1-1.53.21-3.75,2.13-4.53.43-.18.24.47.74.47C2.25,4.88.47,7.16.38,9.38Z"/><path class="cls-2" d="M48.54,34.16c.31-3.9-.55-6,3.58-4.51.94,1.31-1.81.21-2.11.82-.15.31,1.68,1.05,1.55,1.43s-2.11.39-2.35.8c-.43.75.25,1.5.66,2.2C49.37,34.65,48.53,34.38,48.54,34.16Z"/><path class="cls-2" d="M46.88,38.63c-1.29-.19-1.34.85-1.41,1.54,0,.23.61.58.55.69-.73,1.55-2.4.54-3.65.8.5,0,1.21.16,1.38-.08.95-1.38,2.83-3.57.87-5.17,1,1.23,3.15.41,3.75,2.25A10.07,10.07,0,0,1,46.88,38.63Z"/><path class="cls-2" d="M43.3,45.65c-1.53.07-3.27.57-4.87.19a3.49,3.49,0,0,1,1.31-.75c.5,0,.52.75.89.62s.52-1.2.8-1.21c1.59-.09,3-.78,4.49-.91-.25.5-.39,1.2-.8,1.4A4.22,4.22,0,0,1,43.3,45.65Z"/><path class="cls-2" d="M50.25,42c-.21.45-1-.14-1.33-.67,1.36-.91-.14-3.23,1.54-3.57.62-.12,1.33.72,2.21.57C51.95,40,51,40.32,50.25,42Z"/><path class="cls-2" d="M21.5,22.73c-1.29-.19-1.34.85-1.41,1.53,0,.22.61.58.56.69-.73,1.55-2.4.54-3.65.8.5,0,1.21.16,1.38-.08.95-1.38,2.83-3.57.87-5.17,1,1.23,3.15.41,3.75,2.25A10.21,10.21,0,0,1,21.5,22.73Z"/><path class="cls-2" d="M16.5,30.75c.52-1.46,1.83-1.35,3-1.5C18.77,30.29,17.6,30.46,16.5,30.75Z"/><path class="cls-2" d="M2.39,26.71c-.13.05-.46-.4-.71-.65C2.49,25.64,3,24,3.76,24.73S3.19,27,2.39,26.71Z"/><path class="cls-2" d="M2.25,39c.48-1.06,1.43-.7,2.25-.75C4,39.18,3.14,39.16,2.25,39Z"/><path class="cls-2" d="M27.35,38.61c-.46.46-.43.61-.74.72-.84.3-1.53-.3-2.23-.7,2.57.54,3.59-1.54,3-3.75.5.25,1.33.5,1.33.75C28.71,36.63,27.94,37.62,27.35,38.61Z"/><path class="cls-2" d="M40.24,6.28c-.46.46-.44.61-.74.72-.84.3-1.53-.3-2.23-.7,2.57.54,3.59-1.54,3-3.75.5.25,1.33.5,1.33.75C41.6,4.3,40.83,5.3,40.24,6.28Z"/><path class="cls-2" d="M15.75,39.75A3.31,3.31,0,0,0,15,37.5a1,1,0,0,1,1.4.76A3.54,3.54,0,0,1,15.75,39.75Z"/><path class="cls-2" d="M11.44,1.31a3.31,3.31,0,0,0-.75-2.25,1,1,0,0,1,1.4.76A3.54,3.54,0,0,1,11.44,1.31Z"/><path class="cls-2" d="M-1.5,37.31C-1,35.85.33,36,1.5,35.81.77,36.85-.4,37-1.5,37.31Z"/><path class="cls-2" d="M2.25,1.13C.46.89,2-.46,1.5-1.12,3.69-1,.93.73,2.25,1.13Z"/><path class="cls-2" d="M54.6,22.29c-.14.87-1.78,1.1-1.84,1.55-.21,1.85-.9,2.23-1.77,3.72-.25-.25-.67-.5-.67-.75,0-1,1.47-1.57,1.77-2.39.88-2.45.71-6.23,1.27-7.17.17.09,1.36-1.25,1.75-1.62Z"/><path class="cls-2" d="M13.6,2.2C15.25,1,15.87-2.71,17.75-3.5c-1.52,1.15-1.67,4.89-2.88,6.19C12.55,5.18,9.29,6.51,7.58,9.61c-.62,1.12.7,2.71-.83,3.71-.26-2.43-.23-5,1.66-6.56S11.61,3.69,13.6,2.2Z"/><path class="cls-2" d="M34,1.26c-.7.8-1,3-2,2S33.12,1.89,34,1.26Z"/><path class="cls-2" d="M36.5,1.75c-.44.49-1.18-.08-1.32-.68-.23-1-1.2-2.61-.08-3a3.77,3.77,0,0,0,3,.75C35.52-1.2,37.22,1,36.5,1.75Z"/><path class="cls-2" d="M44,2.45c.16.3.75-.1,1-.45-1.06-.61.11-2.17-1.2-2.39-.48-.08-1,.48-1.73.38C42.65,1.09,43.36,1.32,44,2.45Z"/><path class="cls-2" d="M20.75,13c.52-1.46,1.83-1.35,3-1.5C23,12.54,21.85,12.71,20.75,13Z"/><path class="cls-2" d="M51,15.75c.48-1.06,1.43-.7,2.25-.75C52.73,15.93,51.89,15.91,51,15.75Z"/><path class="cls-2" d="M55.5,50.63c-.82-.05-2.15.29-2.06-.73s1-2,.46-3c-.21-.41-.9-.55-1.4-.8-.81,2.28-3.32,3.35-3.8,6-.14.77-.51,2.11-1.28,1.34s1.1-1,1.12-1.34c.16-2.92,1.88-4.95,3.78-6.91.38-.39-.05-1.65.95-2,.83-.31,1.72.69,2.13.5l-.06.33a3.64,3.64,0,0,0-1.84,2.2c-.17.56,1.14,1.27,2,1.32Z"/><path class="cls-2" d="M26.75,6.5A3.31,3.31,0,0,0,26,4.25,1,1,0,0,1,27.4,5,3.54,3.54,0,0,1,26.75,6.5Z"/><path class="cls-2" d="M24.23,22.91c1.68,0,.12,1.14.52,1.59Z"/><path class="cls-2" d="M50.25,21.75a3.31,3.31,0,0,0-.75-2.25,1,1,0,0,1,1.4.76A3.55,3.55,0,0,1,50.25,21.75Z"/><path class="cls-2" d="M43.75,7.5a3.31,3.31,0,0,1,1.06-2.12,1,1,0,0,0-1.49.55A3.53,3.53,0,0,0,43.75,7.5Z"/><path class="cls-2" d="M9.26,2.92C10,4.56,8,4,7.75,4.75,6.67,2.84,9.62,4.25,9.26,2.92Z"/><path class="cls-2" d="M35.5,9c-1.59.17-.68-.91-.75-1.5Z"/><path class="cls-2" d="M26,50.35c1.26-.34.89-1.31.69-2-.07-.22-.79-.29-.78-.42.05-1.71,2-1.45,3-2.18-.46.2-1.18.33-1.24.62-.32,1.64-1.19,4.4,1.25,5.09-1.37-.75-3.06.87-4.33-.58A10.07,10.07,0,0,1,26,50.35Z"/><path class="cls-2" d="M11.25,24.5c-1.59.17-.68-.91-.75-1.5Z"/><path class="cls-2" d="M13.5,19c.48-1.06,1.43-.7,2.25-.75C15.23,19.18,14.39,19.16,13.5,19Z"/><path class="cls-2" d="M35,30.5c-1.59.17-.68-.91-.75-1.5Z"/><path class="cls-2" d="M30.48,45c.12-.59-.28-1-.6-1.51.58-.14,1.07.13,1.12.51S30.68,44.67,30.48,45Z"/><path class="cls-2" d="M25.07,45.26c-.45,4.31-.57,0-.82,0C25,45,26,45,25.75,43.75A4.82,4.82,0,0,0,25.07,45.26Z"/><path class="cls-2" d="M9.59,39.25c2.51-.76.26-1.37,3.16-2,1.21.64,1.16,2.27,1,3.65,0,.32-.65,1.27-.75,1.76l-.43-1.62c-.14-.55-.07-1.84-.24-1.9A3.91,3.91,0,0,0,9.59,39.25Z"/><path class="cls-2" d="M10.34,45.73c.35,1.27,1.41.79,2,.47s.59-1.27-.06-1.45-1.49.83-2.38-1.34C10,44.19,10.13,44.95,10.34,45.73Z"/><path class="cls-2" d="M-5.25,5.06A1,1,0,0,1-6,6.47c-.86.13-2,.42-2,.86a3.33,3.33,0,0,1-2.47,3A14.9,14.9,0,0,1-5.33,4.94c.25-.17-.05-.94.15-1.35.66-1.33,2.65.12,2.84-2.29,0-.23-.41-.49-.66-.74,2.11.6,1.86-2.13,3.75-2.25v1.5A3.61,3.61,0,0,0-1.51.55C-3.82,1.69-1.42,4.6-5.25,5.06Z"/><path class="cls-2" d="M.6,22.29c-.14.87-1.78,1.1-1.84,1.55-.21,1.85-.9,2.23-1.77,3.72-.25-.25-.67-.5-.67-.75,0-1,1.47-1.57,1.77-2.39C-1,22-1.19,18.19-.62,17.25c.17.09,1.36-1.25,1.75-1.62Z"/><path class="cls-2" d="M1.5,50.63c-.82-.05-2.15.29-2.06-.73s1-2,.46-3c-.21-.41-.9-.55-1.4-.8-.81,2.28-3.32,3.35-3.8,6-.14.77-.51,2.11-1.28,1.34s1.1-1,1.12-1.34c.16-2.92,1.88-4.95,3.78-6.91.38-.39-.05-1.65.95-2,.83-.31,1.72.69,2.13.5L1.34,44A3.64,3.64,0,0,0-.5,46.2c-.17.56,1.14,1.27,2,1.32Z"/></pattern></defs><title>Artboard 19</title><path class="cls-3" d="M34.54,36.07C33.26,29.44,52.8,30.7,56.17,24.63c5.4-8.1-4.72-14.17,4.72-21.59s14.84.67,22.94,4c7.42,2.7,16.19,1.35,24.29,1.35,10.12.67,20.24-6.75,29.69-2.7,7.42,3.37,15.52,12.82,22.94,16.87,22.94,14.17,16.19,39.13,4.72,58.7-5.4,9.44-10.12,12.82-6.75,23.61,4,11.47,9.45,16.19,8.77,30.36-1.35,20.91-16.19,39.13-20.24,59.37-2,11.47-6.07,18.89-8.77,29s.67,20.92-5.4,30.36c-8.77,12.14-14.17,1.35-20.92-7.42-3.37-5.4-15.52-18.22-20.24-6.07-4-.67-12.14-6.07-14.84,1.35-1.35,2.7,6.75,12.14,6.07,16.87C81.13,276.29,64.26,277,51.45,279c-18.89,2.7-20.92,3.37-27-15.52-1.35-4-2-14.84-8.1-14.84-4.72,0-8.1,10.79-11.47,13.49-5.4-5.4-8.77-22.26,3.38-20.92,3.38.68,3.38,12.82,8.77,6.07,2.7-3.37,0-12.15-2.7-15.52-3.37-4-7.42-3.37-10.12-7.42-2-3.37-2-10.79-1.35-14.17,2-10.79,13.49-18.21-1.35-22.26a2.47,2.47,0,0,1,.68-2c-.68-2,6.75-10.12,8.1-12.82,2-4.72,2.7-10.12,4.72-15.52,4-8.77,2-6.07,8.77-7.42,5.4-.67,8.77,4.72,11.47-1.35,4-8.77-13.49-18.89-16.86-24.29-8.77-12.14-2.7-14.84,6.74-20.24,13.49-8.1,9.45-10.12,7.42-22.94-1.35-4.72,0-7.42-.67-12.15-.67-1.35-1.94-8.47-1-11.09C34.54,47.73,36.21,44.73,34.54,36.07Z"/><path class="cls-4" d="M34.54,36.07C33.26,29.44,52.8,30.7,56.17,24.63c5.4-8.1-4.72-14.17,4.72-21.59s14.84.67,22.94,4c7.42,2.7,16.19,1.35,24.29,1.35,10.12.67,20.24-6.75,29.69-2.7,7.42,3.37,15.52,12.82,22.94,16.87,22.94,14.17,16.19,39.13,4.72,58.7-5.4,9.44-10.12,12.82-6.75,23.61,4,11.47,9.45,16.19,8.77,30.36-1.35,20.91-16.19,39.13-20.24,59.37-2,11.47-6.07,18.89-8.77,29s.67,20.92-5.4,30.36c-8.77,12.14-14.17,1.35-20.92-7.42-3.37-5.4-15.52-18.22-20.24-6.07-4-.67-12.14-6.07-14.84,1.35-1.35,2.7,6.75,12.14,6.07,16.87C81.13,276.29,64.26,277,51.45,279c-18.89,2.7-20.92,3.37-27-15.52-1.35-4-2-14.84-8.1-14.84-4.72,0-8.1,10.79-11.47,13.49-5.4-5.4-8.77-22.26,3.38-20.92,3.38.68,3.38,12.82,8.77,6.07,2.7-3.37,0-12.15-2.7-15.52-3.37-4-7.42-3.37-10.12-7.42-2-3.37-2-10.79-1.35-14.17,2-10.79,13.49-18.21-1.35-22.26a2.47,2.47,0,0,1,.68-2c-.68-2,6.75-10.12,8.1-12.82,2-4.72,2.7-10.12,4.72-15.52,4-8.77,2-6.07,8.77-7.42,5.4-.67,8.77,4.72,11.47-1.35,4-8.77-13.49-18.89-16.86-24.29-8.77-12.14-2.7-14.84,6.74-20.24,13.49-8.1,9.45-10.12,7.42-22.94-1.35-4.72,0-7.42-.67-12.15-.67-1.35-1.94-8.47-1-11.09C34.54,47.73,36.21,44.73,34.54,36.07Z"/></svg>