<svg id="Layer_1" data-name="Layer 1" xmlns="http://www.w3.org/2000/svg" viewBox="0 0 226.55 243.74"><defs><style>.cls-1{fill:#d0e9e5;fill-rule:evenodd;} .cls-pi {fill: #231f20};</style></defs><title>Artboard 24</title><path class="cls-1" d="M26.46,0C18.48.42,9.66-.42,5,7.56,1.26,14.28,0,27.3,0,34.87c8.82,2.94,13.44,11.76,18.06,18.91,4.2,6.72,10.08,13.44,13.44,21,7.14,16.38,3.78,35.29,6.3,52.51,2.1,15.54,21.42,21.42,23.94,37.81,1.26,8.82-9.66,31.51-1.26,37.81,5.46,4.2,11.34-2.52,16.8-.42,9.24,4.2,1.68,10.92,0,16-2.52,7.14,5.46,7.56,10.93,10.5,5,2.52,8.4,6.72,13,9.66,9.24,6.3,22.27,3.36,33.61,4.62,13.44,1.26,20.17,1.26,25.62-12.6,2.94-7.14,5.46-12.18,13.86-12.6,4.62-.42,5.88,1.68,9.66-1.26,3.36-2.52,4.2-8.82,5-12.6,2.94-13.44-3.36-28.15,1.26-41.59,3.36-10.08,10.5-10.08,19.32-9.66,0-7.56-6.72-12.18-6.3-21,.42-6.3,2.52-14.28,7.56-18.48,2.1-1.68,4.2-.42,6.3-2.94,2.1-2.1,1.26-6.72,3.36-8.82,1.68-1.68,5-.42,5.88-2.94.84-3.36-2.52-6.72-5-8-10.08-5.88-28.15-3.36-37-10.5-7.56-5.88,0-11.34,3.78-16.8,4.62-7.14.42-11.76-4.62-17.22-5.88-5.88-13-9.66-21.84-7.14C155,41.17,155,46.63,150,50.41c-7.14,6.72-29.83-.42-38.65-2.52-10.92-2.94-16.8-14.7-29-15.12-6.72,0-9.66,2.94-16-1.26-5-3.36-9.24-8-14.29-11.34-6.72-4.62-9.24-10.08-14.28-15.54C33.61.42,31.09,1.26,25.62,0"/><path class="cls-1" d="M94.52,30.25c14.7,8.82,47,24.78,61.75,6.3,10.08-12.18-18.9-6.72-25.63-6.72-5.88,0-32.77-8.4-35.29-1.26l.42.42"/><path class="cls-1" d="M195.34,60.91c-6.72,4.62-4.2,16,5,18.07,23.1,4.2-1.68-21.43-5-19.32"/><path class="cls-1" d="M38.65,215.08c-3.78,5.46-14.29-4.2-18.91,0-5.88,5,6.3,12.6,10.5,13,5,.84,8.4-3.36,13.44-.84,3.36,2.1,5.46,10.92,10.08,2.1,1.68-3.36.42-4.2-1.26-7.14-1.68-3.36-2.94,1.26-3.36-4.2,0-2.52,6.3-11.76-2.52-10.08-1.68.42-2.52,4.62-4.2,5.46-1.68,1.26-4.2,1.26-6.3,1.68"/><circle class="cls-pi pigroup pisa" picode="pisa" cx="49.21" cy="102.96" r="5.75"/><circle class="cls-pi pigroup prato" picode="prato" cx="128.21" cy="83.96" r="5.75"/></svg>