<svg id="Layer_1" data-name="Layer 1" xmlns="http://www.w3.org/2000/svg" xmlns:xlink="http://www.w3.org/1999/xlink" viewBox="0 0 126.94 164.96"><defs><style>.cls-1,.cls-2{fill:none;}.cls-2{stroke:#1d1d1b;stroke-width:6px;}.cls-3{fill:#4b8baa;}.cls-3,.cls-4{fill-rule:evenodd;}.cls-4{fill:url(#_6_lpi_50_);}</style><pattern id="_6_lpi_50_" data-name="6 lpi 50%" width="72" height="72" patternTransform="translate(-136 -168.04) scale(1.85)" patternUnits="userSpaceOnUse" viewBox="0 0 72 72"><rect class="cls-1" width="72" height="72"/><line class="cls-2" x1="71.75" y1="66" x2="144.25" y2="66"/><line class="cls-2" x1="71.75" y1="42" x2="144.25" y2="42"/><line class="cls-2" x1="71.75" y1="18" x2="144.25" y2="18"/><line class="cls-2" x1="71.75" y1="54" x2="144.25" y2="54"/><line class="cls-2" x1="71.75" y1="30" x2="144.25" y2="30"/><line class="cls-2" x1="71.75" y1="6" x2="144.25" y2="6"/><line class="cls-2" x1="-0.25" y1="66" x2="72.25" y2="66"/><line class="cls-2" x1="-0.25" y1="42" x2="72.25" y2="42"/><line class="cls-2" x1="-0.25" y1="18" x2="72.25" y2="18"/><line class="cls-2" x1="-0.25" y1="54" x2="72.25" y2="54"/><line class="cls-2" x1="-0.25" y1="30" x2="72.25" y2="30"/><line class="cls-2" x1="-0.25" y1="6" x2="72.25" y2="6"/><line class="cls-2" x1="-72.25" y1="66" x2="0.25" y2="66"/><line class="cls-2" x1="-72.25" y1="42" x2="0.25" y2="42"/><line class="cls-2" x1="-72.25" y1="18" x2="0.25" y2="18"/><line class="cls-2" x1="-72.25" y1="54" x2="0.25" y2="54"/><line class="cls-2" x1="-72.25" y1="30" x2="0.25" y2="30"/><line class="cls-2" x1="-72.25" y1="6" x2="0.25" y2="6"/></pattern></defs><title>Artboard 15</title><path class="cls-3" d="M44.7,2.06C39.28,3.73,37.2,14.57,33,19.15,26.77,25.4,19.69,32.9,11.77,37.08.1,43.74-4.07,47.91,4.68,60.84,8,66.25,13,70.42,15.52,76.26c2.92,5.84,2.92,11.67,7.92,16.67,5.42,5,13.34,7.92,19.17,12.92,6.25,5,8.34,11.25,12.92,17.51,7.5,10.42,13.34,2.09,23.34,1.25,8.76-.83,6.67,2.08,10.42,7.92.83,1.67,2.92,4.59,4.58,5,5.84.83,3.75-4.59,6.25-7.5,3.75-4.58,3.75-3.34,7.92,1.67,2.91,3.75,4.58,7.5,6.67,11.25,5.41,9.17,8.34,17.92-5.42,17.92,2.5,5.84,16.67,5.42,17.51-1.25,1.25-5.42-7.5-17.09-10-22.09-3.33-6.25-7.09-10.42-6.67-17.93.83-9.17,2.08-7.92-7.5-9.59-15-2.92-3.75-24.17-16.26-32.93-7.92-5.42-11.25-6.25-8.75-17.51,1.25-3.34,2.09-8.34,4.17-11.26,2.92-4.17,8.33-5.83,10.84-10.42,4.59-9.17-2.5-10.84-5-18.34-1.25-3.75,1.67-5-2.08-7.09-3.34-1.67-8.76,2.09-11.67,2.09C64.29,14.57,51-8.36,41.36,3.31"/><path class="cls-4" d="M44.7,2.06C39.28,3.73,37.2,14.57,33,19.15,26.77,25.4,19.69,32.9,11.77,37.08.1,43.74-4.07,47.91,4.68,60.84,8,66.25,13,70.42,15.52,76.26c2.92,5.84,2.92,11.67,7.92,16.67,5.42,5,13.34,7.92,19.17,12.92,6.25,5,8.34,11.25,12.92,17.51,7.5,10.42,13.34,2.09,23.34,1.25,8.76-.83,6.67,2.08,10.42,7.92.83,1.67,2.92,4.59,4.58,5,5.84.83,3.75-4.59,6.25-7.5,3.75-4.58,3.75-3.34,7.92,1.67,2.91,3.75,4.58,7.5,6.67,11.25,5.41,9.17,8.34,17.92-5.42,17.92,2.5,5.84,16.67,5.42,17.51-1.25,1.25-5.42-7.5-17.09-10-22.09-3.33-6.25-7.09-10.42-6.67-17.93.83-9.17,2.08-7.92-7.5-9.59-15-2.92-3.75-24.17-16.26-32.93-7.92-5.42-11.25-6.25-8.75-17.51,1.25-3.34,2.09-8.34,4.17-11.26,2.92-4.17,8.33-5.83,10.84-10.42,4.59-9.17-2.5-10.84-5-18.34-1.25-3.75,1.67-5-2.08-7.09-3.34-1.67-8.76,2.09-11.67,2.09C64.29,14.57,51-8.36,41.36,3.31"/></svg>