<svg id="Layer_1" data-name="Layer 1" xmlns="http://www.w3.org/2000/svg" viewBox="0 0 48.73 140.79"><defs><style>.cls-1{fill:#d0d700;fill-rule:evenodd;}</style></defs><title>Artboard 16</title><path class="cls-1" d="M9.26,3.85C12.17,13,22.6,21.35,15.93,31.77,12.17,37.19,1.34,39.28.09,46.36-1.17,55.12,11.76,68,13.43,77.21c1.25,8.34,3.33,11.25,10.84,15.42s9.17,5,8.75,13.76c0,7.09,1.67,9.17,5,15.42,2.5,4.59,2.09,11.26,5,15.42,6.25,9.17,6.67-1.67,4.58-7.09-1.67-5.42-5.83-10.42-7.09-16.26-.83-5.42,2.5-10.42,1.67-15.84-1.25-9.59-10.42-6.67-15.42-12.5C18.84,77.21,53.45,68,25.52,62.62c-6.25-.83-15.43-5.42-11.25-13.34,1.25-2.09,5.42-3.75,7.5-5A124.9,124.9,0,0,0,37.6,30.53c4.17-4.17,12.09-10.42,6.67-16.67-3.33-3.34-11.25-5-15-7.92C25.52,3.43,9.68-4.49,7.59,3.43"/></svg>