<svg id="Layer_1" data-name="Layer 1" xmlns="http://www.w3.org/2000/svg" viewBox="0 0 238 246">
  <defs>
    <style>
      .cls-1 {
        fill: #c4dd97;
      }
    </style>
  </defs>
  <title>Artboard 1 copy 18</title>
  <path class="cls-1" d="M81,193.85c-2.27,6.58-9.54,10.67-15,10.67-8.85,0-16.34-5.91-16.34-14.53a18.88,18.88,0,0,1,.68-5L94.62,55.81c3-8.85,7.49-15.44,18.39-15.44s15.44,6.36,18.62,15.44L175.9,185a18.88,18.88,0,0,1,.68,5c0,8.63-7,14.53-16.34,14.53-5.91,0-13.17-4.32-15.44-10.67l-7.95-22.93H88.49Zm36.1-87.63C115.06,99.63,113.92,91,113,84c-.91,7-2,15.67-4.09,22.25L96.9,145h31.78Z"/>
</svg>
