<?xml version="1.0" encoding="utf-8"?>
<!-- Generator: Adobe Illustrator 16.0.0, SVG Export Plug-In . SVG Version: 6.00 Build 0)  -->
<!DOCTYPE svg PUBLIC "-//W3C//DTD SVG 1.1//EN" "http://www.w3.org/Graphics/SVG/1.1/DTD/svg11.dtd">
<svg version="1.1" id="Layer_1" xmlns="http://www.w3.org/2000/svg" xmlns:xlink="http://www.w3.org/1999/xlink" x="0px" y="0px"
	 width="381.636px" height="165.451px" viewBox="0 0 381.636 165.451" enable-background="new 0 0 381.636 165.451"
	 xml:space="preserve">
<g>
	<rect x="52.323" y="27.798" fill="#E2BCD8" width="276.991" height="92.498"/>
	<g>
		<g>
			<path fill="#FFFFFF" d="M87.341,62.176h8.449l4.889,23.742H95.86l-0.873-4.12h-6.844l-0.942,4.12h-4.818L87.341,62.176z
				 M88.946,77.608h5.203l-2.34-11.243h-0.523L88.946,77.608z"/>
			<path fill="#FFFFFF" d="M116.394,66.401c0,0-3.98-0.455-6.075-0.455c-2.549,0-3.491,0.595-3.491,2.444
				c0,1.676,0.803,2.061,4.225,3.282c4.644,1.64,6.39,2.757,6.39,7.298c0,5.132-2.514,7.366-7.996,7.366
				c-3.142,0-6.948-0.802-6.948-0.802l0.245-3.877c0,0,4.608,0.489,6.703,0.489c2.096,0,3.107-0.663,3.107-2.758
				c0-2.131-0.907-2.514-4.015-3.527c-4.609-1.5-6.6-3.212-6.6-6.773c0-5.134,2.549-7.332,8.031-7.332
				c3.143,0,6.634,0.873,6.634,0.873L116.394,66.401z"/>
			<path fill="#FFFFFF" d="M134.693,85.569c0,0-3.387,0.768-6.354,0.768c-6.809,0-8.52-4.539-8.52-12.395
				c0-8.694,2.514-12.186,8.52-12.186c2.479,0,6.39,0.838,6.39,0.838l-0.21,3.771c0,0-3.562-0.419-5.377-0.419
				c-3.107,0-4.364,2.131-4.364,7.996c0,5.308,0.907,8.205,4.504,8.205c1.676,0,5.237-0.384,5.237-0.384L134.693,85.569z"/>
			<path fill="#FFFFFF" d="M136.965,73.804c0-5.938,1.083-9.357,3.807-10.93c1.326-0.769,3.002-1.117,5.167-1.117
				c6.634,0,8.974,3.248,8.974,12.047c0,6.179-1.152,9.844-4.12,11.486c-1.257,0.698-2.863,1.047-4.854,1.047
				C139.305,86.337,136.965,82.603,136.965,73.804z M147.929,81.729c1.606-0.874,2.025-3.177,2.025-7.925
				c0-6.285-0.698-7.857-4.016-7.857c-0.768,0-1.432,0.104-1.955,0.315c-1.676,0.698-2.061,2.757-2.061,7.542
				c0,6.284,0.698,8.344,4.016,8.344C146.741,82.147,147.405,82.008,147.929,81.729z"/>
			<path fill="#FFFFFF" d="M158.513,85.918V62.176h4.818v19.553h7.542v4.189H158.513z"/>
			<path fill="#FFFFFF" d="M169.408,62.176h15.258v4.189h-5.168v19.553h-4.818V66.365h-5.271V62.176z"/>
			<path fill="#FFFFFF" d="M189.348,62.176h8.448l4.889,23.742h-4.817l-0.873-4.12h-6.844l-0.942,4.12h-4.818L189.348,62.176z
				 M190.952,77.608h5.204l-2.339-11.243h-0.524L190.952,77.608z"/>
		</g>
		<g>
			<path fill="#FFFFFF" d="M257.328,71.464c0-12.138,6.343-22.018,14.134-22.018c7.793,0,14.136,9.88,14.136,22.018
				c0,12.146-6.343,22.02-14.136,22.02C263.671,93.483,257.328,83.61,257.328,71.464 M259.321,71.464
				c0,11.051,5.445,20.031,12.141,20.031c6.696,0,12.137-8.98,12.137-20.031c0-11.042-5.44-20.021-12.137-20.021
				C264.767,51.442,259.321,60.422,259.321,71.464"/>
			<path fill="#FFFFFF" d="M267.177,71.464c0-3.503,1.887-6.249,4.285-6.249c2.401,0,4.285,2.746,4.285,6.249
				c0,3.509-1.884,6.255-4.285,6.255C269.063,77.719,267.177,74.973,267.177,71.464 M269.172,71.464c0,2.506,1.207,4.258,2.29,4.258
				c1.079,0,2.287-1.752,2.287-4.258c0-2.51-1.208-4.259-2.287-4.259C270.379,67.205,269.172,68.954,269.172,71.464"/>
			<polygon fill="#FFFFFF" points="267.339,92.545 268.117,90.712 233.629,76.068 233.629,66.871 269.055,51.843 268.274,50.009 
				231.633,65.553 231.633,77.384 			"/>
			<polygon fill="#FFFFFF" points="290.094,66.322 295.251,65.323 294.878,63.365 289.718,64.375 			"/>
			<rect x="289.856" y="70.472" fill="#FFFFFF" width="9.397" height="1.993"/>
			<polygon fill="#FFFFFF" points="295.834,87.842 296.641,86.015 289.184,82.735 288.383,84.559 			"/>
			<polygon fill="#FFFFFF" points="294.878,79.564 295.251,77.613 290.094,76.607 289.718,78.565 			"/>
			<rect x="258.321" y="65.215" fill="#FFFFFF" width="13.141" height="1.988"/>
			<rect x="258.321" y="75.719" fill="#FFFFFF" width="13.141" height="2"/>
			<path fill="#FFFFFF" d="M237.681,94.189c-0.01-0.025-0.024-0.063-0.035-0.099l-4.678-16.553c-0.105-0.361,0.013-0.761,0.3-1.017
				c0.288-0.252,0.696-0.313,1.048-0.166l9.046,3.84l5.079,2.103c0.436,0.183,0.69,0.648,0.604,1.104
				c-0.018,0.097-1.793,9.645-2.461,13.105c-0.342,1.769-1.439,2.14-2.312,2.14C241.357,98.647,238.767,96.897,237.681,94.189
				 M243.965,82.599l-0.028,13.721c0,0.182,0.146,0.339,0.335,0.339s0.255,0,0.354-0.53c0.554-2.864,1.868-9.921,2.306-12.29
				L243.965,82.599z M235.452,79.003l4.094,14.497c0.48,1.149,1.337,2.053,2.392,2.596l0.041-14.325L235.452,79.003z"/>
			<path fill="#FFFFFF" d="M232.632,77.719V75.72c-2.353,0-4.263-1.906-4.263-4.256c0-2.341,1.91-4.261,4.263-4.261v-1.987
				c-3.451,0-6.255,2.803-6.255,6.248C226.377,74.908,229.181,77.719,232.632,77.719"/>
		</g>
	</g>
</g>
</svg>
