<?xml version="1.0" encoding="utf-8"?>
<!-- Generator: Adobe Illustrator 16.0.0, SVG Export Plug-In . SVG Version: 6.00 Build 0)  -->
<!DOCTYPE svg PUBLIC "-//W3C//DTD SVG 1.1//EN" "http://www.w3.org/Graphics/SVG/1.1/DTD/svg11.dtd">
<svg version="1.1" id="Layer_1" xmlns="http://www.w3.org/2000/svg" xmlns:xlink="http://www.w3.org/1999/xlink" x="0px" y="0px"
	 width="381.636px" height="162.451px" viewBox="0 0 381.636 162.451" enable-background="new 0 0 381.636 162.451"
	 xml:space="preserve">
<g>
	<rect x="22.989" y="36.117" fill="#973486" width="335.657" height="90.217"/>
	<g>
		<path fill="#FFFFFF" d="M46.858,62.359c0,0-2.417-0.275-3.69-0.275c-1.547,0-2.12,0.359-2.12,1.484
			c0,1.019,0.488,1.252,2.566,1.994c2.82,0.997,3.88,1.675,3.88,4.431c0,3.117-1.526,4.475-4.856,4.475
			c-1.908,0-4.219-0.487-4.219-0.487l0.147-2.354c0,0,2.8,0.298,4.071,0.298c1.273,0,1.888-0.405,1.888-1.677
			c0-1.294-0.551-1.527-2.438-2.142c-2.799-0.912-4.008-1.951-4.008-4.113c0-3.117,1.548-4.454,4.877-4.454
			c1.909,0,4.029,0.529,4.029,0.529L46.858,62.359z"/>
		<path fill="#FFFFFF" d="M57.973,74.002c0,0-2.058,0.466-3.86,0.466c-4.135,0-5.174-2.756-5.174-7.527
			c0-5.28,1.526-7.401,5.174-7.401c1.506,0,3.881,0.51,3.881,0.51l-0.127,2.289c0,0-2.163-0.254-3.266-0.254
			c-1.888,0-2.65,1.293-2.65,4.856c0,3.224,0.552,4.984,2.735,4.984c1.018,0,3.181-0.235,3.181-0.235L57.973,74.002z"/>
		<path fill="#FFFFFF" d="M62.83,69.57c0,1.675,0.51,2.354,2.142,2.354c1.634,0,2.142-0.68,2.142-2.354v-9.776h2.927v9.521
			c0,3.605-1.463,5.152-5.068,5.152s-5.068-1.547-5.068-5.152v-9.521h2.927V69.57z"/>
		<path fill="#FFFFFF" d="M80.729,62.359c0,0-2.417-0.275-3.689-0.275c-1.548,0-2.121,0.359-2.121,1.484
			c0,1.019,0.488,1.252,2.566,1.994c2.82,0.997,3.881,1.675,3.881,4.431c0,3.117-1.526,4.475-4.856,4.475
			c-1.909,0-4.221-0.487-4.221-0.487l0.149-2.354c0,0,2.799,0.298,4.071,0.298s1.888-0.405,1.888-1.677
			c0-1.294-0.552-1.527-2.438-2.142c-2.8-0.912-4.009-1.951-4.009-4.113c0-3.117,1.549-4.454,4.878-4.454
			c1.908,0,4.029,0.529,4.029,0.529L80.729,62.359z"/>
		<path fill="#FFFFFF" d="M85.143,59.794h5.132l2.969,14.42h-2.926l-0.53-2.502H85.63l-0.572,2.502h-2.926L85.143,59.794z
			 M86.118,69.166h3.16l-1.421-6.828h-0.318L86.118,69.166z"/>
		<path fill="#FFFFFF" d="M93.988,76.971l0.848-5.979h3.012l-1.57,5.979H93.988z"/>
		<path fill="#FFFFFF" d="M38.27,92.309c0-3.606,0.658-5.683,2.312-6.638c0.806-0.467,1.823-0.679,3.139-0.679
			c4.029,0,5.45,1.973,5.45,7.316c0,3.328-0.552,5.449-1.93,6.594l1.654,2.546l-2.523,1.464l-1.634-3.054
			c-0.317,0.041-0.656,0.062-1.018,0.062C39.69,99.921,38.27,97.652,38.27,92.309z M44.929,97.122
			c0.976-0.531,1.229-1.931,1.229-4.813c0-3.816-0.424-4.772-2.438-4.772c-0.466,0-0.869,0.063-1.188,0.192
			c-1.018,0.424-1.251,1.674-1.251,4.58c0,3.816,0.424,5.067,2.438,5.067C44.208,97.376,44.61,97.292,44.929,97.122z"/>
		<path fill="#FFFFFF" d="M54.198,95.022c0,1.676,0.509,2.354,2.142,2.354s2.143-0.678,2.143-2.354v-9.776h2.926v9.521
			c0,3.604-1.464,5.153-5.068,5.153c-3.605,0-5.067-1.549-5.067-5.153v-9.521h2.926V95.022z"/>
		<path fill="#FFFFFF" d="M64.04,85.246h8.567v2.545h-5.642v3.394h4.453v2.543h-4.453v3.395h5.642v2.544H64.04V85.246z"/>
		<path fill="#FFFFFF" d="M82.745,87.812c0,0-2.417-0.276-3.689-0.276c-1.548,0-2.12,0.361-2.12,1.484
			c0,1.019,0.487,1.251,2.565,1.994c2.82,0.995,3.881,1.674,3.881,4.432c0,3.117-1.527,4.475-4.856,4.475
			c-1.908,0-4.22-0.486-4.22-0.486l0.148-2.354c0,0,2.799,0.296,4.071,0.296s1.888-0.402,1.888-1.676
			c0-1.293-0.552-1.524-2.438-2.142c-2.8-0.91-4.009-1.95-4.009-4.113c0-3.118,1.549-4.453,4.878-4.453
			c1.909,0,4.029,0.529,4.029,0.529L82.745,87.812z"/>
		<path fill="#FFFFFF" d="M84.211,85.246h9.268v2.545H90.34v11.875h-2.927V87.791h-3.202V85.246z"/>
		<path fill="#FFFFFF" d="M95.048,85.246h2.927v14.42h-2.927V85.246z"/>
		<path fill="#FFFFFF" d="M105.356,99.666v-14.42H110c4.687,0,5.705,2.207,5.705,6.829c0,4.962-1.019,7.591-5.705,7.591H105.356z
			 M110,87.791h-1.718v9.331H110c2.545,0,2.693-2.078,2.693-5.047C112.693,89.212,112.545,87.791,110,87.791z"/>
		<path fill="#FFFFFF" d="M119.63,85.246h5.132l2.969,14.42h-2.926l-0.53-2.502h-4.156l-0.573,2.502h-2.926L119.63,85.246z
			 M120.606,94.619h3.159l-1.421-6.828h-0.318L120.606,94.619z"/>
		<path fill="#FFFFFF" d="M127.563,85.246h9.268v2.545h-3.139v11.875h-2.927V87.791h-3.202V85.246z"/>
		<path fill="#FFFFFF" d="M138.401,85.246h2.926v14.42h-2.926V85.246z"/>
		<path fill="#FFFFFF" d="M148.709,85.246h4.58l3.457,11.303h0.233V85.246h2.778v14.42h-4.412l-3.478-11.514h-0.233v11.514h-2.926
			V85.246z"/>
		<path fill="#FFFFFF" d="M161.943,92.309c0-3.606,0.657-5.683,2.312-6.638c0.805-0.467,1.823-0.679,3.138-0.679
			c4.029,0,5.45,1.973,5.45,7.316c0,3.753-0.699,5.979-2.502,6.976c-0.764,0.425-1.739,0.637-2.948,0.637
			C163.364,99.921,161.943,97.652,161.943,92.309z M168.603,97.122c0.976-0.531,1.229-1.931,1.229-4.813
			c0-3.816-0.424-4.772-2.438-4.772c-0.467,0-0.869,0.063-1.188,0.192c-1.018,0.424-1.251,1.674-1.251,4.58
			c0,3.816,0.424,5.067,2.438,5.067C167.881,97.376,168.284,97.292,168.603,97.122z"/>
		<path fill="#FFFFFF" d="M175.03,85.246h4.581l3.456,11.303h0.233V85.246h2.778v14.42h-4.411l-3.478-11.514h-0.233v11.514h-2.927
			V85.246z"/>
		<path fill="#FFFFFF" d="M201.966,99.454c0,0-2.058,0.467-3.86,0.467c-4.135,0-5.174-2.757-5.174-7.527
			c0-5.281,1.526-7.401,5.174-7.401c1.506,0,3.881,0.509,3.881,0.509l-0.127,2.29c0,0-2.163-0.255-3.266-0.255
			c-1.888,0-2.651,1.295-2.651,4.857c0,3.223,0.552,4.982,2.736,4.982c1.018,0,3.181-0.232,3.181-0.232L201.966,99.454z"/>
		<path fill="#FFFFFF" d="M203.981,85.246h2.926v14.42h-2.926V85.246z"/>
		<path fill="#FFFFFF" d="M222.347,87.812c0,0-2.417-0.276-3.689-0.276c-1.548,0-2.12,0.361-2.12,1.484
			c0,1.019,0.487,1.251,2.565,1.994c2.82,0.995,3.881,1.674,3.881,4.432c0,3.117-1.526,4.475-4.856,4.475
			c-1.908,0-4.22-0.486-4.22-0.486l0.147-2.354c0,0,2.8,0.296,4.072,0.296s1.888-0.402,1.888-1.676c0-1.293-0.552-1.524-2.439-2.142
			c-2.799-0.91-4.007-1.95-4.007-4.113c0-3.118,1.548-4.453,4.877-4.453c1.908,0,4.028,0.529,4.028,0.529L222.347,87.812z"/>
		<path fill="#FFFFFF" d="M224.428,92.309c0-3.606,0.656-5.683,2.312-6.638c0.805-0.467,1.823-0.679,3.138-0.679
			c4.029,0,5.45,1.973,5.45,7.316c0,3.753-0.699,5.979-2.502,6.976c-0.764,0.425-1.739,0.637-2.948,0.637
			C225.848,99.921,224.428,97.652,224.428,92.309z M231.086,97.122c0.976-0.531,1.23-1.931,1.23-4.813
			c0-3.816-0.424-4.772-2.439-4.772c-0.466,0-0.869,0.063-1.188,0.192c-1.018,0.424-1.251,1.674-1.251,4.58
			c0,3.816,0.424,5.067,2.438,5.067C230.365,97.376,230.768,97.292,231.086,97.122z"/>
		<path fill="#FFFFFF" d="M237.514,85.246h4.581l3.456,11.303h0.233V85.246h2.778v14.42h-4.411l-3.478-11.514h-0.233v11.514h-2.927
			V85.246z"/>
		<path fill="#FFFFFF" d="M250.749,92.309c0-3.606,0.657-5.683,2.312-6.638c0.806-0.467,1.824-0.679,3.139-0.679
			c4.029,0,5.45,1.973,5.45,7.316c0,3.753-0.7,5.979-2.503,6.976c-0.764,0.425-1.738,0.637-2.947,0.637
			C252.17,99.921,250.749,97.652,250.749,92.309z M257.408,97.122c0.975-0.531,1.229-1.931,1.229-4.813
			c0-3.816-0.424-4.772-2.438-4.772c-0.467,0-0.87,0.063-1.188,0.192c-1.018,0.424-1.251,1.674-1.251,4.58
			c0,3.816,0.424,5.067,2.438,5.067C256.687,97.376,257.09,97.292,257.408,97.122z"/>
	</g>
	<g>
		<path fill="#FFFFFF" d="M311.085,105.688c-13.42,0.04-24.8-11.015-24.455-25.166c0.316-12.986,11.012-23.755,24.476-23.758
			c13.462-0.003,24.497,10.862,24.457,24.583C335.523,94.82,324.504,105.729,311.085,105.688z M311.075,102.809
			c11.831,0.021,21.636-9.683,21.604-21.473c-0.034-12.257-9.795-21.655-21.52-21.695c-11.867-0.041-21.617,9.627-21.64,21.424
			C289.497,93.078,299.122,102.788,311.075,102.809z"/>
		<path fill="#FFFFFF" d="M310.176,96.023c-4.797-0.043-8.875-2.325-11.94-6.52c-0.416-0.571-0.78-1.186-1.108-1.811
			c-0.318-0.607-0.166-1.251,0.294-1.604c0.567-0.436,1.18-0.232,1.633,0.438c0.692,1.026,1.354,2.092,2.183,3.001
			c2.233,2.445,5.031,3.825,8.357,4.049c3.344,0.225,6.46-0.49,9.271-2.355c1.779-1.18,3.21-2.693,4.238-4.573
			c0.402-0.737,0.937-0.972,1.537-0.655c0.57,0.299,0.778,1.049,0.445,1.7c-0.922,1.804-2.191,3.328-3.746,4.62
			C318.236,94.894,314.61,95.957,310.176,96.023z"/>
		<path fill="#FFFFFF" d="M321.054,76.465c-0.053,0.832-0.226,1.629-0.758,2.312c-0.732,0.941-1.857,0.937-2.583-0.016
			c-0.949-1.244-0.979-3.359-0.068-4.627c0.786-1.091,1.971-1.085,2.745,0.016C320.875,74.842,321.011,75.637,321.054,76.465z"/>
		<path fill="#FFFFFF" d="M305.402,76.476c-0.061,0.9-0.248,1.772-0.907,2.468c-0.688,0.726-1.609,0.717-2.294-0.014
			c-1.128-1.203-1.16-3.736-0.062-4.969c0.798-0.896,1.838-0.848,2.551,0.118C305.213,74.787,305.357,75.608,305.402,76.476z"/>
	</g>
</g>
</svg>
