<?xml version="1.0" encoding="utf-8"?>
<!-- Generator: Adobe Illustrator 16.0.0, SVG Export Plug-In . SVG Version: 6.00 Build 0)  -->
<!DOCTYPE svg PUBLIC "-//W3C//DTD SVG 1.1//EN" "http://www.w3.org/Graphics/SVG/1.1/DTD/svg11.dtd">
<svg version="1.1" id="Layer_1" xmlns="http://www.w3.org/2000/svg" xmlns:xlink="http://www.w3.org/1999/xlink" x="0px" y="0px"
	 width="381.636px" height="366.636px" viewBox="0 0 381.636 366.636" enable-background="new 0 0 381.636 366.636"
	 xml:space="preserve">
<g>
	<rect x="42.828" y="41.641" fill="#E2BCD8" width="276.991" height="276.989"/>
	<polygon fill="none" stroke="#FFFFFF" stroke-width="4" stroke-linejoin="round" stroke-miterlimit="10" points="218.713,230.036 
		148.361,230.036 148.361,138.581 196.732,138.581 218.713,157.042 	"/>
	<polyline fill="none" stroke="#FFFFFF" stroke-width="4" stroke-linejoin="round" stroke-miterlimit="10" points="196.732,138.581 
		196.732,160.451 218.713,160.451 	"/>
	<path fill="#FFFFFF" d="M167.076,212.239v4.89c0,0.67-0.595,1.289-1.309,1.289c-0.688,0-1.304-0.593-1.304-1.289v-14.268
		c0-0.763,0.686-1.427,1.495-1.427h3.493c4.202,0,5.699,2.612,5.699,5.441c0,3.442-2.233,5.364-5.699,5.364H167.076z
		 M167.076,209.817h2.375c2.018,0,3.086-0.948,3.086-2.968c0-1.474-0.572-2.968-3.086-2.968h-2.375V209.817z"/>
	<path fill="#FFFFFF" d="M181.699,218.18h-2.685c-0.807,0-1.494-0.644-1.494-1.427v-13.917c0-0.757,0.688-1.422,1.494-1.422h2.685
		c5.106,0,6.863,2.917,6.863,6.147v4.277C188.562,215.14,186.831,218.18,181.699,218.18 M185.95,207.56
		c0-2.066-1.021-3.705-3.847-3.705h-1.971v11.902h1.971c2.873,0,3.847-1.762,3.847-3.921V207.56z"/>
	<path fill="#FFFFFF" d="M193.762,217.18c0,0.644-0.593,1.237-1.307,1.237c-0.737,0-1.306-0.593-1.306-1.237v-14.34
		c0-0.696,0.619-1.407,1.474-1.407h6.436c0.711,0,1.306,0.572,1.306,1.237c0,0.685-0.595,1.185-1.306,1.185h-5.297v4.704h4.843
		c0.644,0,1.283,0.521,1.283,1.211s-0.572,1.237-1.283,1.237h-4.843V217.18z"/>
</g>
</svg>
