<svg id="Layer_1" data-name="Layer 1" xmlns="http://www.w3.org/2000/svg" viewBox="0 0 137.33 195.33">
  <defs>
    <style>
      .cls-1 {
        fill: #718a3d;
        fill-rule: evenodd;
      }
    </style>
  </defs>
  <title>Artboard 1 copy 23</title>
  <g>
    <path class="cls-1" d="M87.79,43.75c1.09,2,2.1,4,3.13,5.89q11,20.51,22,41a4.75,4.75,0,0,1,.58,2.14q0,46.95,0,93.89v1.11H92.91V114.67c-2,1.71-4.42,3.68-6.72,5.8a52.66,52.66,0,0,0-4.42,4.67,3.77,3.77,0,0,0-.89,2.22q-.07,29.34,0,58.68v1.79H58.53v-1.44q0-32.92,0-65.84a3,3,0,0,1,1-2.36c6.07-6,12.11-12,18.26-18.18L59.74,73V98.57H31.1v89.25H24.21V98.66H17.41V84.9h6.73V71.24H31V84.77h13.8v-1.5c0-10.45,0-20.9,0-31.35A2.15,2.15,0,0,1,46,49.79C56.72,43.38,67.44,36.92,78.19,30.5A3.83,3.83,0,0,1,80,29.94q19.61,0,39.22,0h1V71H106.67V43.75Z"/>
    <path class="cls-1" d="M65.39,19.7A17.17,17.17,0,1,1,48.31,2.43,17.18,17.18,0,0,1,65.39,19.7Z"/>
  </g>
</svg>
