<svg id="Layer_1" data-name="Layer 1" xmlns="http://www.w3.org/2000/svg" viewBox="0 0 137.33 195.33">
  <defs>
    <style>
      .cls-1 {
        fill: #1f8f82;
        fill-rule: evenodd;
      }
    </style>
  </defs>
  <title>Artboard 1 copy 22</title>
  <g>
    <path class="cls-1" d="M134.2,95.32l-26.63-4.44c-4.27-.71-8.53-1.47-12.81-2.11a4.25,4.25,0,0,1-2.94-1.71c-3.63-4.61-7.32-9.16-11-13.73-.18-.22-.34-.45-.66-.88C79.05,75.89,78,79,77,82.21c-2.93,9.19-5.84,18.39-8.83,27.56a2.05,2.05,0,0,0,.61,2.45q11.44,11.43,22.78,23a7.19,7.19,0,0,1,1.79,3.11q6.65,26.26,13.17,52.56c0,.18.07.36.12.65-4.35,0-8.64,0-12.93-.05-.36,0-.91-.68-1-1.14-2.12-7.25-4.2-14.52-6.28-21.78q-3.43-12-6.88-24a3.18,3.18,0,0,0-.88-1.55c-11.18-9-22.38-18-33.72-27-.33.84-.63,1.56-.89,2.3q-13.08,36-26.13,72a1.61,1.61,0,0,1-1.8,1.32c-4.29-.07-8.58,0-13.12,0L43,57.25c-4.25.84-8.27,1.71-12.33,2.4a3.29,3.29,0,0,0-2.63,2C22.43,72.48,16.78,83.27,11.2,94.09a1.91,1.91,0,0,1-2.07,1.25c-1.76-.09-3.52,0-5.45,0l3.14-11q5.14-18,10.25-35.91a1.88,1.88,0,0,1,1.44-1.51C28.05,44,37.58,41,47.12,38.08a3.51,3.51,0,0,1,1.78,0Q67,42.47,85,47a2.85,2.85,0,0,1,1.61,1.35c4.25,8.4,8.43,16.84,12.69,25.23A3.54,3.54,0,0,0,101,75.14q15.86,6.42,31.78,12.71A1.87,1.87,0,0,1,134.23,90C134.12,91.71,134.2,93.43,134.2,95.32Z"/>
    <path class="cls-1" d="M59.18,18a17.17,17.17,0,1,1,17,17.21A17.11,17.11,0,0,1,59.18,18Z"/>
  </g>
</svg>
