<svg id="Layer_1" data-name="Layer 1" xmlns="http://www.w3.org/2000/svg" viewBox="0 0 290 266">
  <defs>
    <style>
      .cls-1 {
        fill: #ca84b6;
        fill-rule: evenodd;
      }
    </style>
  </defs>
  <title>Artboard 1 copy 14</title>
  <path class="cls-1" d="M155.9,254.6H134.13v-25H106.68V207.91h27.27v-27.3c-26.5-4.1-47.16-17.28-61.39-40.05C62.11,123.85,58.33,105.46,60.68,86c5.21-43.26,42.25-74.5,84-74.57a85.11,85.11,0,0,1,83.86,70,81.82,81.82,0,0,1-4.19,44.94A85.35,85.35,0,0,1,156,180.52v27.25h27.36v21.79H155.9ZM145,33.09a63.21,63.21,0,1,0,63.2,63.45C208.52,61.79,180,33.23,145,33.09Z"/>
</svg>
