<svg id="Layer_1" data-name="Layer 1" xmlns="http://www.w3.org/2000/svg" viewBox="0 0 238 246">
  <defs>
    <style>
      .cls-1 {
        fill: #983880;
      }
    </style>
  </defs>
  <title>Artboard 1 copy 17</title>
  <path class="cls-1" d="M198,195.16c0,1.33-1.17,2-3.51,2a35,35,0,0,1-4.22-.24L160.57,196l-29.74.94a25.45,25.45,0,0,1-3.51.24q-4.69,0-4.68-2.46,0-2.7,6.32-2.7,20.6-.23,20.61-4.13a14.17,14.17,0,0,0-.48-1.84l-1.91-6.19-1.2-3.27q-2.11-7.26-10.29-32.11H85.63q-14,37.47-14,43.08,0,3.28,2.81,4,.7.24,11.71.94,6.79.24,6.79,2.34,0,2.35-6.09,2.35-10.78,0-25.06-.94c-2.34-.15-4.76-.24-7.26-.24a33.43,33.43,0,0,0-7.26.78,15.76,15.76,0,0,1-3,.4c-2.19,0-3.28-.7-3.28-2.12s2.46-2.19,7.38-2.35,8.46-.9,10.65-2.23,3.9-3.87,5.15-7.63Q94.21,96.36,113.13,44a26.94,26.94,0,0,1,2.18-6.22l1-4.28c.47-1.71,1.09-2.58,1.88-2.58.47,0,.85.47,1.17,1.41q3,9.14,13.81,38.17,8.43,22.72,41.92,114,1.87,5.29,4.8,6.74T192,192.94Q198,193.16,198,195.16ZM134.6,139.08,122,104.17,110.72,71.72Q100.84,97.63,87,139.08Z"/>
</svg>
