<svg id="Layer_1" data-name="Layer 1" xmlns="http://www.w3.org/2000/svg" xmlns:xlink="http://www.w3.org/1999/xlink" viewBox="0 0 1133.59 1472.77">
  <defs>
    <style>
      .cls-1, .cls-29, .cls-3, .cls-4, .cls-5 {
        fill: none;
      }

      .cls-2 {
        fill: #231f20;
      }

      .cls-29, .cls-3, .cls-4, .cls-5 {
        stroke: #231f20;
      }

      .cls-3 {
        stroke-width: 6px;
      }

      .cls-4 {
        stroke-width: 0.3px;
      }

      .cls-5 {
        stroke-width: 0.75px;
      }

      .cls-15, .cls-6 {
        fill: #ce3c96;
      }

      .cls-7 {
        fill: url(#USGS_21_Intricate_Surface);
      }

      .cls-8 {
        fill: #c4e5e0;
      }

      .cls-10, .cls-11, .cls-12, .cls-13, .cls-14, .cls-15, .cls-16, .cls-17, .cls-18, .cls-19, .cls-26, .cls-27, .cls-8, .cls-9 {
        fill-rule: evenodd;
      }

      .cls-9 {
        fill: #4c8ba7;
      }

      .cls-10 {
        fill: #882677;
      }

      .cls-11 {
        fill: url(#_10_dpi_30_);
      }

      .cls-12, .cls-25 {
        fill: #97d3be;
      }

      .cls-13 {
        fill: url(#Crosses);
      }

      .cls-14 {
        fill: url(#Crosses-3);
      }

      .cls-16 {
        fill: #049176;
      }

      .cls-17 {
        fill: #c7da30;
      }

      .cls-18 {
        fill: url(#Circles);
      }

      .cls-19 {
        fill: url(#_6_lpi_50_);
      }

      .cls-20, .cls-26 {
        fill: #b0d57c;
      }

      .cls-21 {
        fill: url(#Ripple);
      }

      .cls-22 {
        fill: #e9a6ca;
      }

      .cls-23 {
        fill: #c074b0;
      }

      .cls-24 {
        fill: url(#Crosses-13);
      }

      .cls-27, .cls-28 {
        fill: #3b2758;
      }

      .cls-92 {
        fill: #808285;
      }

      .cls-99 {
        fill: #f6d7e7;
      }
      .cls-98 {
        fill: #bea7d0;
      }

      .cls-120 {
        fill: #ccc;
        pointer-events:none;
      }

      .cls-29 {
        stroke-miterlimit: 10;
        stroke-width: 2px;
      }
    </style>
    <pattern id="USGS_21_Intricate_Surface" data-name="USGS 21 Intricate Surface" width="54" height="54" patternTransform="translate(-236.69 -248.97) scale(1.01)" patternUnits="userSpaceOnUse" viewBox="0 0 54 54">
      <rect class="cls-1" width="54" height="54"/>
      <g>
        <path class="cls-2" d="M22.58,55.48c-.75.5-1.31,4.69-2.06,5.25-.29.22-.75.69-.75.94,0,.5-.27.44-.27.94,0,1-.74,2.31-2.12,2-.36-.08-.67-1,1.38-2.15.22-.12,0-.91.14-1.34,2-5.28,3.87-9.6,4.43-8.28Z"/>
        <path class="cls-2" d="M28.33,56.49c-.16-.48-.43-.76-.43-1.24l-3.28.68c-.89-1,1.12-1.39,2.49-2.05a23,23,0,0,1,2.71-1.42C29.62,53.55,28.65,55.17,28.33,56.49Z"/>
        <path class="cls-2" d="M48.75,59.06a1,1,0,0,1-.76,1.4c-.86.13-2,.42-2,.86a3.33,3.33,0,0,1-2.47,3,14.9,14.9,0,0,1,5.17-5.37c.25-.17-.05-.94.15-1.35.66-1.33,2.65.12,2.84-2.29,0-.23-.41-.49-.66-.74,2.11.6,1.86-2.13,3.75-2.25v1.5a3.61,3.61,0,0,0-2.26.73C50.18,55.69,52.58,58.6,48.75,59.06Z"/>
        <path class="cls-2" d="M3.94,60.56c-.35-2,2.65-5.85,3.56-7.5a1.84,1.84,0,0,1,.25,1.69c-.38,2-2.63,3.29-2.61,5.85-.56.94-.5,1.56-2.14,1.46Z"/>
        <path class="cls-2" d="M11.44,55.31a3.31,3.31,0,0,0-.75-2.25,1,1,0,0,1,1.4.76A3.54,3.54,0,0,1,11.44,55.31Z"/>
        <path class="cls-2" d="M2.25,55.13C.46,54.89,2,53.54,1.5,52.88,3.69,53,.93,54.73,2.25,55.13Z"/>
        <path class="cls-2" d="M13.6,56.2c1.65-1.24,2.26-4.91,4.15-5.7-1.52,1.15-1.67,4.89-2.88,6.19-2.32,2.49-5.57,3.82-7.29,6.92-.62,1.12.7,2.71-.83,3.71-.26-2.43-.23-5,1.66-6.56S11.61,57.69,13.6,56.2Z"/>
        <path class="cls-2" d="M36.5,55.75c-.44.49-1.18-.08-1.32-.68-.23-1-1.2-2.61-.08-3a3.77,3.77,0,0,0,3,.75C35.52,52.8,37.22,55,36.5,55.75Z"/>
        <path class="cls-2" d="M44,56.45c.16.3.75-.1,1-.45-1.06-.61.11-2.17-1.2-2.39-.48-.08-1,.48-1.73.38C42.65,55.09,43.36,55.32,44,56.45Z"/>
      </g>
      <path class="cls-2" d="M-5.25,59.06A1,1,0,0,1-6,60.47c-.86.13-2,.42-2,.86a3.33,3.33,0,0,1-2.47,3,14.9,14.9,0,0,1,5.17-5.37c.25-.17-.05-.94.15-1.35.66-1.33,2.65.12,2.84-2.29,0-.23-.41-.49-.66-.74,2.11.6,1.86-2.13,3.75-2.25v1.5a3.61,3.61,0,0,0-2.26.73C-3.82,55.69-1.42,58.6-5.25,59.06Z"/>
      <g>
        <path class="cls-2" d="M53.27,43.18c.83-.31,1.72.69,2.13.5,2.15-1,2-3.57,4.67-1.39,0,0,.61-.43.58-.64-.12-.76-.91-1.41-.6-2.25.21-.58.8-.7,1.41-.9,1.86-.62-.47-2.49,2.19-3.82.3-.15.34-1.41,0-2-.79-1.26-2.34-.79-3.63-.83a3.55,3.55,0,0,0,3-1.5l-.75,1.5,3,1.5c-.5.25-1.23.41-1.38.8-.35.87.15,2.08-.25,2.89-.1.2-1-.1-1.27.15-1.22,1.43-.59,4-1.83,4.85-2,1.41-6,1-7,4.15-.17.56,1.14,1.27,2,1.32s1.85-.68,2.24-2.15a2,2,0,0,0,.81,2.09c1.47.57,1.36-2.45,2.9-2a1.4,1.4,0,0,1,.66,1.33c-.13.38-.87.71-1.37.71-.25,0-.59-.62-.71-.56-1.54.66-3.58.47-4.47,2.18a3.39,3.39,0,0,0-.07,1.46c-.82-.05-2.15.29-2.06-.73s1-2,.46-3c-.21-.41-.9-.55-1.4-.8Z"/>
        <path class="cls-2" d="M54.75,34.13c-1.59.17-.68-.91-.75-1.5Z"/>
        <path class="cls-2" d="M54.38,9.38c-.1,2.45-.17,1.65-2.62,2.44.5-.25,2-.95,2.1-1.32.24-.78-.09-1.14.32-1.84-.19-.75-1.48-.75-.8-1.78,1-1.53.21-3.75,2.13-4.53.43-.18.24.47.74.47C56.25,4.88,54.47,7.16,54.38,9.38Z"/>
        <path class="cls-2" d="M52.5,37.31c.52-1.46,1.83-1.35,3-1.5C54.77,36.85,53.6,37,52.5,37.31Z"/>
      </g>
      <g>
        <path class="cls-2" d="M5.63,29.06a2.38,2.38,0,0,1-.74,0,4.94,4.94,0,0,1,1.5-2.25c.25.5.75,1.08.62,1.46S6.16,28.89,5.63,29.06Z"/>
        <path class="cls-2" d="M22.58,1.48c-.75.5-1.31,4.69-2.06,5.25-.29.22-.75.69-.75.94,0,.5-.27.44-.27.94,0,1-.74,2.31-2.12,2-.36-.08-.67-1,1.38-2.15.22-.12,0-.91.14-1.34,2-5.28,3.87-9.6,4.43-8.28Z"/>
        <path class="cls-2" d="M14.26,10c-.72-.24-1.69-1.07-1.59-1.32.92-2.33,1.82-3.3,2.75-3.34s-1.22,1.44-1.7,2.47,1.94,2.47,1.52,3.09S14.78,10.57,14.26,10Z"/>
        <path class="cls-2" d="M12,11.06c-.58,1.92-.39,2.11-3,3,.76-.23.56.06.75-2.25C9.77,11.52,11.5,11.31,12,11.06Z"/>
        <path class="cls-2" d="M9.73,20.06c-.21.52-.45,1.32-.75,1.35-2,.18-2.4,1.71-3,3.16,1.3.36,2.23,1.66,3.75,1.5-.7.4-1.49,1.13-2.17.64-.25-.18,0-1.18-.13-1.24-2.87-1-2.15-3.14-.58-4.52.16-.14,1,.64,1.3.48,1.26-.71-.48-4.55.83-3.61.65.7,1.68,1.45,2.83-.12.5-.68.17-1.88.17-2.88.38-.75,2.06-.32,2.1.75C14.19,18.15,10.64,17.76,9.73,20.06Z"/>
        <path class="cls-2" d="M18.74,17.8c-.23.29-.49.68-.74.68s-.5-.42-.75-.67c.5-.25,1.32-.47,1.34-.76.12-1.46-.23-3.15-2.09-3.74C19.54,12.4,20.38,15.74,18.74,17.8Z"/>
        <path class="cls-2" d="M21.92,19.33c.31-3.9-.55-6,3.58-4.51.94,1.31-1.82.21-2.12.82-.15.31,1.68,1.05,1.55,1.43s-2.11.39-2.35.8c-.43.75.25,1.5.66,2.2C22.75,19.81,21.91,19.54,21.92,19.33Z"/>
        <path class="cls-2" d="M26.21,20c-.12.05-.46-.4-.71-.65.8-.43,1.3-2.11,2.08-1.33S27,20.25,26.21,20Z"/>
        <path class="cls-2" d="M15.5,26.75c-.44.49-1.18-.08-1.32-.68-.23-1-1.2-2.61-.08-3a3.77,3.77,0,0,0,3,.75C14.52,23.8,16.22,26,15.5,26.75Z"/>
        <path class="cls-2" d="M31,16.13c2.79-.38,3.05-2.78,4.58-4.23.27-.26,1,.08,1.35-.17a2.85,2.85,0,0,0,.82-2.92C39,10.47,40.38,8.19,41.3,9c1.68,1.53,1.51,4,3.95,5-.39,1.91-2.09,2.94-3,4.5.81-2.63,2.84-5.43-.75-6.75.25-.25.67-.5.67-.75a1.7,1.7,0,0,0-.71-1.39,2.24,2.24,0,0,0-2.84.7c-.95,1.77-1.52,1.91-2.9,3.18-.67.61,0,2.41-1,3.51-.25-.25-.63-.83-.73-.65-1,1.78-2.27,1.59-2.64.46Z"/>
        <path class="cls-2" d="M30.43,12.32h0c-.2-.15-1.26.41-1.27.69-.08,1.62-.38,3.28-2.41,3,2.41-2,3.1-4.92,4.41-7.55.44-.9-2.66-3.14-1.41-3.89L32,5.5c.65-.7,1.42-1.16,3,0-1.07,0-2.33-.2-2.89.81C31.18,8,32,8.89,31.84,10.74c0,.29-1.07.42-1.22.81A2.48,2.48,0,0,0,30.43,12.32Z"/>
        <path class="cls-2" d="M28.33,2.49c-.16-.48-.43-.76-.43-1.24l-3.28.68C23.71.91,25.72.53,27.1-.13A23,23,0,0,1,29.8-1.55C29.62-.45,28.65,1.17,28.33,2.49Z"/>
        <path class="cls-2" d="M38.25,41.06c.48-1.06,1.43-.7,2.25-.75C40,41.25,39.14,41.23,38.25,41.06Z"/>
        <path class="cls-2" d="M47.57,2.07c-.45,4.31-.57,0-.82,0,.71-.28,1.75-.25,1.5-1.5A4.82,4.82,0,0,0,47.57,2.07Z"/>
        <path class="cls-2" d="M48.75,5.06A1,1,0,0,1,48,6.47c-.86.13-2,.42-2,.86a3.33,3.33,0,0,1-2.47,3,14.9,14.9,0,0,1,5.17-5.37c.25-.17-.05-.94.15-1.35.66-1.33,2.65.12,2.84-2.29,0-.23-.41-.49-.66-.74,2.11.6,1.86-2.13,3.75-2.25v1.5a3.61,3.61,0,0,0-2.26.73C50.18,1.69,52.58,4.6,48.75,5.06Z"/>
        <path class="cls-2" d="M50.94,11.05c-.2.91-.59,2-1.47,2.12-.7.13-1.47,1.07-2.22-1.36,2.33.74,3-1.21,3.75-3A10.07,10.07,0,0,1,50.94,11.05Z"/>
        <path class="cls-2" d="M47.32,18.6a3.5,3.5,0,0,0-.07,1.47,2.41,2.41,0,0,1-.58-2.87c.28-.37,1.33-.12,2.08-.12A6.78,6.78,0,0,0,47.32,18.6Z"/>
        <path class="cls-2" d="M34.75,22.31c0-.5.26-1.24.06-1.36-.77-.48-1.91-.32-2.91-.42.28-.23.52-.55.83-.62.87-.22,1.72.87,2,.69,1.95-1.12,4.17-4.7,5.79-6.33.23.28-1,2.6-1,2.67C37.74,19.18,36.48,20.15,34.75,22.31Z"/>
        <path class="cls-2" d="M38.78,24.23c-.66-.43-2-.4-1.35-1.47,1.29-2.16,4.12-2.18,5.88-3.83.44,2.11,3.16,1.61,4.42,3.07.25.3,0,.93.12,1.42.18.77.21,1.76,1.46,1.51l-.75.75c-1.33-2-1.62.22-3,0,.5-.25,1.25-.41,1.37-.79a3.37,3.37,0,0,0-.65-3.67c-.41-.37-1.11-.81-1.39-.65-.9.51-1,1.74-.83,2.86-1.22-1.13-1.79-3.79-3.62-2.77a10.17,10.17,0,0,0-2.14,2.22c-1.09,1.33,2.43.94,2,2.81A9.8,9.8,0,0,0,38.78,24.23Z"/>
        <path class="cls-2" d="M31.85,24.51c.14.18,1-.3,1.25-.09.46.47,1.83,1.12,2,1.86.44-.34,1.17-.66,1.18-1,0-1-2.46-1.16-3.88-1.65a2.07,2.07,0,0,1-1.21-1.94C31.35,22.64,31.29,23.8,31.85,24.51Z"/>
        <path class="cls-2" d="M28.41,24.09c.49,1.61-.84,1.1-1.41.16-.37-.94-.92-3.74,1.5-3.85.24,0,.5.41.75.66C28.72,21.51,26.7,18.5,28.41,24.09Z"/>
        <path class="cls-2" d="M3.94,6.56C3.59,4.61,6.59.72,7.5-.94A1.84,1.84,0,0,1,7.75.75C7.37,2.73,5.12,4,5.14,6.6c-.56.94-.5,1.56-2.14,1.46Z"/>
        <path class="cls-2" d="M1.25,14.38c2.29-1.26,0-1.4,2.69-2.56,1.31.38,1.6,2,1.69,3.38,0,.32-.37,1.38-.37,1.88l-.75-1.5c-.26-.51-.45-1.78-.62-1.81A3.91,3.91,0,0,0,1.25,14.38Z"/>
        <path class="cls-2" d="M17.13,2.38V.88a3.3,3.3,0,0,0,2.25.75Z"/>
        <path class="cls-2" d="M3.84,21.41C4.34,23,3,22.5,2.44,21.56c-.37-.94-.92-3.74,1.5-3.85.24,0,.49.41.75.66C4.16,18.83,2.13,15.82,3.84,21.41Z"/>
        <path class="cls-2" d="M-.73,43.18c.83-.31,1.72.69,2.13.5,2.15-1,2-3.57,4.67-1.39,0,0,.61-.43.58-.64-.12-.76-.91-1.41-.6-2.25.21-.58.8-.7,1.41-.9C9.32,37.87,7,36,9.65,34.67c.3-.15.34-1.41,0-2-.79-1.26-2.34-.79-3.63-.83a3.55,3.55,0,0,0,3-1.5l-.75,1.5,3,1.5c-.5.25-1.23.41-1.38.8-.35.87.15,2.08-.25,2.89-.1.2-1-.1-1.27.15-1.22,1.43-.59,4-1.83,4.85-2,1.41-6,1-7,4.15-.17.56,1.14,1.27,2,1.32s1.85-.68,2.24-2.15a2,2,0,0,0,.81,2.09C6,48,5.92,45,7.46,45.5a1.4,1.4,0,0,1,.66,1.33c-.13.38-.87.71-1.37.71-.25,0-.58-.62-.71-.56-1.54.66-3.58.47-4.47,2.18a3.39,3.39,0,0,0-.07,1.46c-.82-.05-2.15.29-2.06-.73s1-2,.46-3c-.21-.41-.9-.55-1.4-.8Z"/>
        <path class="cls-2" d="M10.21,50.63c.39-.14.54-.88.79-1.38l1.5.75c1.33-3.25,3.59-7.42,7.5-7.5V44a2.07,2.07,0,0,0-2.13.82c-.68,1.19,1.55,1.87-.12,3.68,0-1.3.41-3.13-.83-3.5-1.5-.45-2.48,1.86-2.17,3.5-.5,0-1.27-.13-1.36.07-.92,2-3.3,2.38-3.89,4.43-1.23-1.35-3.39-1.65-3.75-3.75C7.58,48.76,8.58,51.22,10.21,50.63Z"/>
        <path class="cls-2" d="M.75,34.13c-1.59.17-.68-.91-.75-1.5Z"/>
        <path class="cls-2" d="M4.62,34a2.69,2.69,0,0,1,.63,2.34c-.5-.25-1.34-.51-1.33-.74C4,34,2.42,32.77,3,31.13,4,31.86,4,33.16,4.62,34Z"/>
        <path class="cls-2" d="M.75,29.63c-.21-1.67,1.11-.28,1.5-.75Z"/>
        <path class="cls-2" d="M14.33,31.13c-.13,2.54,1.82,4,3.67,5.25A3.28,3.28,0,0,0,15.74,35c-.23,0-.49.57-.74.57-.5,0-1.31-.38-1.34-.68-.13-1.45-.78-2.94.45-4.59.16-.21-.36-.9-.61-1.4l-1.5.75-1.5-3c2.28.32,2.59,3,4.5,3.75C14.75,30.63,14.34,30.87,14.33,31.13Z"/>
        <path class="cls-2" d="M19.14,34.59c1.27.13,1.25-.95,1.25-1.64s-.45-1,1.18-2.58c.32-.31.38-1.38.72-2.12l.82.68c-.47.3-1.15.51-1.32.93-.24.64.32,1.66,0,2.08C21.2,32.64,20,33,20,34.52c0,.23.66.53.62.63a5.9,5.9,0,0,0-.35,3.1C18.71,37.38,19.24,35.89,19.14,34.59Z"/>
        <path class="cls-2" d="M26.47,31.78c-1.25,1.56-2.87-.09-3.77,1.91,1.31-.46.53.35,3,.78-.06-.56-.29-1.4-.09-1.52,2.43-1.4,1.17-4.49,3-6.39l-1-.23a9,9,0,0,1-.93,3.07C24.91,30.53,27.55,30.43,26.47,31.78Z"/>
        <path class="cls-2" d="M21.15,40.69c-1.82-1.47-1.77.4-3.15.18l.75-1.5c1.28,1.66,2.58-.61,3.57.21C23.12,40.24,21.38,40.88,21.15,40.69Z"/>
        <path class="cls-2" d="M22.63,44.71c0,.28-1,.4-1.23.81-1,2.16-.33,2.76.74,4.43a1,1,0,0,1-1.41-.76c-.21-1.26.59-1.16-.72-2.44-.38-.37,1.33-1.34,1.65-2.18.62-1.61,1.95-2.09,2.79-3.51.29-.49,1.27.17,1.19.63C25.35,43.38,22.81,41.13,22.63,44.71Z"/>
        <path class="cls-2" d="M23,8c-.41-.28.31-.92.89-1.18.65,1.5,3.21.43,3.24,2.14,0,.63-.94,1.18-1,2.08C24.74,10,24.56,9.07,23,8Z"/>
        <path class="cls-2" d="M29.25,40.5c.75,1.64-1.22,1-1.51,1.83C26.67,40.42,29.61,41.83,29.25,40.5Z"/>
        <path class="cls-2" d="M31.09,41.29,32.6,42c.24-.5.75-1.11.6-1.45-1-2.15.31-4.38,1-6.37a1.59,1.59,0,0,0,2.17-.81c.92-1.8,2.85-4.58,3-6.69-.55.11-1.41.11-1.48.37C37,30.26,34.33,35.2,30.75,36c-.12,0-.21.62-.11.93.28.85,1.47.86,1.75,1.42C32.93,39.42,31.79,40.38,31.09,41.29Z"/>
        <path class="cls-2" d="M29.37,31.88c.12.49-.3,1.11.24,1.64.88-2.17.92-4.64,3.28-6.27-.95-.67-1.59.12-2.32.49C31.71,29.5,28.9,30.06,29.37,31.88Z"/>
        <path class="cls-2" d="M33.81,46.91c-.59,1.15,1.46,2.89,2.13,2.73a2,2,0,0,0,1.56-2.76c3.07.16,6.8,3.27,4.31,5.82-.53.54-1.85-.17-2.81-.57a2.74,2.74,0,0,0,2.11-3.68A2.18,2.18,0,0,0,39,47.6c-2,.15-1.12,2-2.28,3a2.31,2.31,0,0,1-1.46.69c-.87-.07-1.55-.89-2.32-1.27-.31-.15-1.1.25-1.34.67a1.53,1.53,0,0,0,.66,2.2c-1.26.26-1.47-.9-1.34-1.46.32-1.37,2.83-1.19,2.77-3,0-1-.71-1.86-2.18-2.25,3.29.7,2.51-2.94,4.86-3.74,1.49-.51.78.81.64,1.37C36.63,45.2,34.48,45.6,33.81,46.91Z"/>
        <path class="cls-2" d="M38.76,37.67a7.61,7.61,0,0,0-1.51.71c1.21-.85.05-2.11,2.14-3.21.5-.27.3-1.51-.64-2l.75-.75c-.34,1.84.4,3.52.75,5.25A6,6,0,0,0,38.76,37.67Z"/>
        <path class="cls-2" d="M44.17,34.38a3.94,3.94,0,0,1-.67,1.5c-.25-.25-.7-.6-.65-.7a5.9,5.9,0,0,0,.65-3.05A7.66,7.66,0,0,1,44.17,34.38Z"/>
        <path class="cls-2" d="M43.12,28.67c-1.27.32-1.38-.83-1.38-1.48s.82-1.14,1.29-.66,0,1.7,2.34,1.41C44.62,28.19,43.91,28.47,43.12,28.67Z"/>
        <path class="cls-2" d="M47.12,29.13c-.7.8-1,3-2,2S46.24,29.76,47.12,29.13Z"/>
        <path class="cls-2" d="M47.08,49.09c-.22.94-.5,2.77-2,2.14-.18-.07-.06-.85-.06-1.36,1.27.07,2.73-.32,2.83-2.26,0-.22-1.11-.42-1.18-.77-.15-.69-1.08-1.47,1.35-2.22C47,46,47.44,47.59,47.08,49.09Z"/>
        <path class="cls-2" d="M.38,9.38C.27,11.82.2,11-2.25,11.81c.5-.25,2-.95,2.1-1.32.24-.78-.09-1.14.32-1.84C0,7.91-1.31,7.91-.62,6.88c1-1.53.21-3.75,2.13-4.53.43-.18.24.47.74.47C2.25,4.88.47,7.16.38,9.38Z"/>
        <path class="cls-2" d="M48.54,34.16c.31-3.9-.55-6,3.58-4.51.94,1.31-1.81.21-2.11.82-.15.31,1.68,1.05,1.55,1.43s-2.11.39-2.35.8c-.43.75.25,1.5.66,2.2C49.37,34.65,48.53,34.38,48.54,34.16Z"/>
        <path class="cls-2" d="M46.88,38.63c-1.29-.19-1.34.85-1.41,1.54,0,.23.61.58.55.69-.73,1.55-2.4.54-3.65.8.5,0,1.21.16,1.38-.08.95-1.38,2.83-3.57.87-5.17,1,1.23,3.15.41,3.75,2.25A10.07,10.07,0,0,1,46.88,38.63Z"/>
        <path class="cls-2" d="M43.3,45.65c-1.53.07-3.27.57-4.87.19a3.49,3.49,0,0,1,1.31-.75c.5,0,.52.75.89.62s.52-1.2.8-1.21c1.59-.09,3-.78,4.49-.91-.25.5-.39,1.2-.8,1.4A4.22,4.22,0,0,1,43.3,45.65Z"/>
        <path class="cls-2" d="M50.25,42c-.21.45-1-.14-1.33-.67,1.36-.91-.14-3.23,1.54-3.57.62-.12,1.33.72,2.21.57C51.95,40,51,40.32,50.25,42Z"/>
        <path class="cls-2" d="M21.5,22.73c-1.29-.19-1.34.85-1.41,1.53,0,.22.61.58.56.69-.73,1.55-2.4.54-3.65.8.5,0,1.21.16,1.38-.08.95-1.38,2.83-3.57.87-5.17,1,1.23,3.15.41,3.75,2.25A10.21,10.21,0,0,1,21.5,22.73Z"/>
        <path class="cls-2" d="M16.5,30.75c.52-1.46,1.83-1.35,3-1.5C18.77,30.29,17.6,30.46,16.5,30.75Z"/>
        <path class="cls-2" d="M2.39,26.71c-.13.05-.46-.4-.71-.65C2.49,25.64,3,24,3.76,24.73S3.19,27,2.39,26.71Z"/>
        <path class="cls-2" d="M2.25,39c.48-1.06,1.43-.7,2.25-.75C4,39.18,3.14,39.16,2.25,39Z"/>
        <path class="cls-2" d="M27.35,38.61c-.46.46-.43.61-.74.72-.84.3-1.53-.3-2.23-.7,2.57.54,3.59-1.54,3-3.75.5.25,1.33.5,1.33.75C28.71,36.63,27.94,37.62,27.35,38.61Z"/>
        <path class="cls-2" d="M40.24,6.28c-.46.46-.44.61-.74.72-.84.3-1.53-.3-2.23-.7,2.57.54,3.59-1.54,3-3.75.5.25,1.33.5,1.33.75C41.6,4.3,40.83,5.3,40.24,6.28Z"/>
        <path class="cls-2" d="M15.75,39.75A3.31,3.31,0,0,0,15,37.5a1,1,0,0,1,1.4.76A3.54,3.54,0,0,1,15.75,39.75Z"/>
        <path class="cls-2" d="M11.44,1.31a3.31,3.31,0,0,0-.75-2.25,1,1,0,0,1,1.4.76A3.54,3.54,0,0,1,11.44,1.31Z"/>
        <path class="cls-2" d="M-1.5,37.31C-1,35.85.33,36,1.5,35.81.77,36.85-.4,37-1.5,37.31Z"/>
        <path class="cls-2" d="M2.25,1.13C.46.89,2-.46,1.5-1.12,3.69-1,.93.73,2.25,1.13Z"/>
        <path class="cls-2" d="M54.6,22.29c-.14.87-1.78,1.1-1.84,1.55-.21,1.85-.9,2.23-1.77,3.72-.25-.25-.67-.5-.67-.75,0-1,1.47-1.57,1.77-2.39.88-2.45.71-6.23,1.27-7.17.17.09,1.36-1.25,1.75-1.62Z"/>
        <path class="cls-2" d="M13.6,2.2C15.25,1,15.87-2.71,17.75-3.5c-1.52,1.15-1.67,4.89-2.88,6.19C12.55,5.18,9.29,6.51,7.58,9.61c-.62,1.12.7,2.71-.83,3.71-.26-2.43-.23-5,1.66-6.56S11.61,3.69,13.6,2.2Z"/>
        <path class="cls-2" d="M34,1.26c-.7.8-1,3-2,2S33.12,1.89,34,1.26Z"/>
        <path class="cls-2" d="M36.5,1.75c-.44.49-1.18-.08-1.32-.68-.23-1-1.2-2.61-.08-3a3.77,3.77,0,0,0,3,.75C35.52-1.2,37.22,1,36.5,1.75Z"/>
        <path class="cls-2" d="M44,2.45c.16.3.75-.1,1-.45-1.06-.61.11-2.17-1.2-2.39-.48-.08-1,.48-1.73.38C42.65,1.09,43.36,1.32,44,2.45Z"/>
        <path class="cls-2" d="M20.75,13c.52-1.46,1.83-1.35,3-1.5C23,12.54,21.85,12.71,20.75,13Z"/>
        <path class="cls-2" d="M51,15.75c.48-1.06,1.43-.7,2.25-.75C52.73,15.93,51.89,15.91,51,15.75Z"/>
        <path class="cls-2" d="M55.5,50.63c-.82-.05-2.15.29-2.06-.73s1-2,.46-3c-.21-.41-.9-.55-1.4-.8-.81,2.28-3.32,3.35-3.8,6-.14.77-.51,2.11-1.28,1.34s1.1-1,1.12-1.34c.16-2.92,1.88-4.95,3.78-6.91.38-.39-.05-1.65.95-2,.83-.31,1.72.69,2.13.5l-.06.33a3.64,3.64,0,0,0-1.84,2.2c-.17.56,1.14,1.27,2,1.32Z"/>
        <path class="cls-2" d="M26.75,6.5A3.31,3.31,0,0,0,26,4.25,1,1,0,0,1,27.4,5,3.54,3.54,0,0,1,26.75,6.5Z"/>
        <path class="cls-2" d="M24.23,22.91c1.68,0,.12,1.14.52,1.59Z"/>
        <path class="cls-2" d="M50.25,21.75a3.31,3.31,0,0,0-.75-2.25,1,1,0,0,1,1.4.76A3.55,3.55,0,0,1,50.25,21.75Z"/>
        <path class="cls-2" d="M43.75,7.5a3.31,3.31,0,0,1,1.06-2.12,1,1,0,0,0-1.49.55A3.53,3.53,0,0,0,43.75,7.5Z"/>
        <path class="cls-2" d="M9.26,2.92C10,4.56,8,4,7.75,4.75,6.67,2.84,9.62,4.25,9.26,2.92Z"/>
        <path class="cls-2" d="M35.5,9c-1.59.17-.68-.91-.75-1.5Z"/>
        <path class="cls-2" d="M26,50.35c1.26-.34.89-1.31.69-2-.07-.22-.79-.29-.78-.42.05-1.71,2-1.45,3-2.18-.46.2-1.18.33-1.24.62-.32,1.64-1.19,4.4,1.25,5.09-1.37-.75-3.06.87-4.33-.58A10.07,10.07,0,0,1,26,50.35Z"/>
        <path class="cls-2" d="M11.25,24.5c-1.59.17-.68-.91-.75-1.5Z"/>
        <path class="cls-2" d="M13.5,19c.48-1.06,1.43-.7,2.25-.75C15.23,19.18,14.39,19.16,13.5,19Z"/>
        <path class="cls-2" d="M35,30.5c-1.59.17-.68-.91-.75-1.5Z"/>
        <path class="cls-2" d="M30.48,45c.12-.59-.28-1-.6-1.51.58-.14,1.07.13,1.12.51S30.68,44.67,30.48,45Z"/>
        <path class="cls-2" d="M25.07,45.26c-.45,4.31-.57,0-.82,0C25,45,26,45,25.75,43.75A4.82,4.82,0,0,0,25.07,45.26Z"/>
        <path class="cls-2" d="M9.59,39.25c2.51-.76.26-1.37,3.16-2,1.21.64,1.16,2.27,1,3.65,0,.32-.65,1.27-.75,1.76l-.43-1.62c-.14-.55-.07-1.84-.24-1.9A3.91,3.91,0,0,0,9.59,39.25Z"/>
        <path class="cls-2" d="M10.34,45.73c.35,1.27,1.41.79,2,.47s.59-1.27-.06-1.45-1.49.83-2.38-1.34C10,44.19,10.13,44.95,10.34,45.73Z"/>
      </g>
      <g>
        <path class="cls-2" d="M-5.25,5.06A1,1,0,0,1-6,6.47c-.86.13-2,.42-2,.86a3.33,3.33,0,0,1-2.47,3A14.9,14.9,0,0,1-5.33,4.94c.25-.17-.05-.94.15-1.35.66-1.33,2.65.12,2.84-2.29,0-.23-.41-.49-.66-.74,2.11.6,1.86-2.13,3.75-2.25v1.5A3.61,3.61,0,0,0-1.51.55C-3.82,1.69-1.42,4.6-5.25,5.06Z"/>
        <path class="cls-2" d="M.6,22.29c-.14.87-1.78,1.1-1.84,1.55-.21,1.85-.9,2.23-1.77,3.72-.25-.25-.67-.5-.67-.75,0-1,1.47-1.57,1.77-2.39C-1,22-1.19,18.19-.62,17.25c.17.09,1.36-1.25,1.75-1.62Z"/>
        <path class="cls-2" d="M1.5,50.63c-.82-.05-2.15.29-2.06-.73s1-2,.46-3c-.21-.41-.9-.55-1.4-.8-.81,2.28-3.32,3.35-3.8,6-.14.77-.51,2.11-1.28,1.34s1.1-1,1.12-1.34c.16-2.92,1.88-4.95,3.78-6.91.38-.39-.05-1.65.95-2,.83-.31,1.72.69,2.13.5L1.34,44A3.64,3.64,0,0,0-.5,46.2c-.17.56,1.14,1.27,2,1.32Z"/>
      </g>
    </pattern>
    <pattern id="_10_dpi_30_" data-name="10 dpi 30%" width="28.8" height="28.8" patternTransform="translate(12.47 -28.7) scale(1.85)" patternUnits="userSpaceOnUse" viewBox="0 0 28.8 28.8">
      <rect class="cls-1" width="28.8" height="28.8"/>
      <g>
        <circle class="cls-92" cx="28.8" cy="28.8" r="2.16"/>
        <circle class="cls-92" cx="14.4" cy="28.8" r="2.16"/>
        <circle class="cls-92" cx="28.8" cy="14.4" r="2.16"/>
        <circle class="cls-92" cx="14.4" cy="14.4" r="2.16"/>
        <circle class="cls-92" cx="7.2" cy="21.6" r="2.16"/>
        <circle class="cls-92" cx="21.6" cy="21.6" r="2.16"/>
        <circle class="cls-92" cx="7.2" cy="7.2" r="2.16"/>
        <circle class="cls-92" cx="21.6" cy="7.2" r="2.16"/>
      </g>
      <g>
        <circle class="cls-92" cy="28.8" r="2.16"/>
        <circle class="cls-92" cy="14.4" r="2.16"/>
      </g>
      <g>
        <circle class="cls-92" cx="28.8" r="2.16"/>
        <circle class="cls-92" cx="14.4" r="2.16"/>
      </g>
      <circle class="cls-92" r="2.16"/>
    </pattern>
    <pattern id="Crosses" data-name="Crosses" width="57.6" height="57.6" patternTransform="translate(-165.24 -254.94) scale(1.85)" patternUnits="userSpaceOnUse" viewBox="0 0 57.6 57.6">
      <rect class="cls-1" width="57.6" height="57.6"/>
      <line class="cls-4" x1="52.5" y1="3.6" x2="55.5" y2="3.6"/>
      <line class="cls-4" x1="38.1" y1="3.6" x2="41.1" y2="3.6"/>
      <line class="cls-4" x1="23.7" y1="3.6" x2="26.7" y2="3.6"/>
      <line class="cls-4" x1="9.3" y1="3.6" x2="12.3" y2="3.6"/>
      <line class="cls-4" x1="45.3" y1="10.8" x2="48.3" y2="10.8"/>
      <line class="cls-4" x1="30.9" y1="10.8" x2="33.9" y2="10.8"/>
      <line class="cls-4" x1="16.5" y1="10.8" x2="19.5" y2="10.8"/>
      <line class="cls-4" x1="2.1" y1="10.8" x2="5.1" y2="10.8"/>
      <line class="cls-4" x1="52.5" y1="18" x2="55.5" y2="18"/>
      <line class="cls-4" x1="38.1" y1="18" x2="41.1" y2="18"/>
      <line class="cls-4" x1="23.7" y1="18" x2="26.7" y2="18"/>
      <line class="cls-4" x1="9.3" y1="18" x2="12.3" y2="18"/>
      <line class="cls-4" x1="45.3" y1="25.2" x2="48.3" y2="25.2"/>
      <line class="cls-4" x1="30.9" y1="25.2" x2="33.9" y2="25.2"/>
      <line class="cls-4" x1="16.5" y1="25.2" x2="19.5" y2="25.2"/>
      <line class="cls-4" x1="2.1" y1="25.2" x2="5.1" y2="25.2"/>
      <line class="cls-4" x1="52.5" y1="32.4" x2="55.5" y2="32.4"/>
      <line class="cls-4" x1="38.1" y1="32.4" x2="41.1" y2="32.4"/>
      <line class="cls-4" x1="23.7" y1="32.4" x2="26.7" y2="32.4"/>
      <line class="cls-4" x1="9.3" y1="32.4" x2="12.3" y2="32.4"/>
      <line class="cls-4" x1="45.3" y1="39.6" x2="48.3" y2="39.6"/>
      <line class="cls-4" x1="30.9" y1="39.6" x2="33.9" y2="39.6"/>
      <line class="cls-4" x1="16.5" y1="39.6" x2="19.5" y2="39.6"/>
      <line class="cls-4" x1="2.1" y1="39.6" x2="5.1" y2="39.6"/>
      <line class="cls-4" x1="52.5" y1="46.8" x2="55.5" y2="46.8"/>
      <line class="cls-4" x1="38.1" y1="46.8" x2="41.1" y2="46.8"/>
      <line class="cls-4" x1="23.7" y1="46.8" x2="26.7" y2="46.8"/>
      <line class="cls-4" x1="9.3" y1="46.8" x2="12.3" y2="46.8"/>
      <line class="cls-4" x1="45.3" y1="54" x2="48.3" y2="54"/>
      <line class="cls-4" x1="30.9" y1="54" x2="33.9" y2="54"/>
      <line class="cls-4" x1="16.5" y1="54" x2="19.5" y2="54"/>
      <line class="cls-4" x1="2.1" y1="54" x2="5.1" y2="54"/>
      <line class="cls-4" x1="54" y1="2.1" x2="54" y2="5.1"/>
      <line class="cls-4" x1="39.6" y1="2.1" x2="39.6" y2="5.1"/>
      <line class="cls-4" x1="25.2" y1="2.1" x2="25.2" y2="5.1"/>
      <line class="cls-4" x1="10.8" y1="2.1" x2="10.8" y2="5.1"/>
      <line class="cls-4" x1="46.8" y1="9.3" x2="46.8" y2="12.3"/>
      <line class="cls-4" x1="32.4" y1="9.3" x2="32.4" y2="12.3"/>
      <line class="cls-4" x1="18" y1="9.3" x2="18" y2="12.3"/>
      <line class="cls-4" x1="3.6" y1="9.3" x2="3.6" y2="12.3"/>
      <line class="cls-4" x1="54" y1="16.5" x2="54" y2="19.5"/>
      <line class="cls-4" x1="39.6" y1="16.5" x2="39.6" y2="19.5"/>
      <line class="cls-4" x1="25.2" y1="16.5" x2="25.2" y2="19.5"/>
      <line class="cls-4" x1="10.8" y1="16.5" x2="10.8" y2="19.5"/>
      <line class="cls-4" x1="46.8" y1="23.7" x2="46.8" y2="26.7"/>
      <line class="cls-4" x1="32.4" y1="23.7" x2="32.4" y2="26.7"/>
      <line class="cls-4" x1="18" y1="23.7" x2="18" y2="26.7"/>
      <line class="cls-4" x1="3.6" y1="23.7" x2="3.6" y2="26.7"/>
      <line class="cls-4" x1="54" y1="30.9" x2="54" y2="33.9"/>
      <line class="cls-4" x1="39.6" y1="30.9" x2="39.6" y2="33.9"/>
      <line class="cls-4" x1="25.2" y1="30.9" x2="25.2" y2="33.9"/>
      <line class="cls-4" x1="10.8" y1="30.9" x2="10.8" y2="33.9"/>
      <line class="cls-4" x1="46.8" y1="38.1" x2="46.8" y2="41.1"/>
      <line class="cls-4" x1="32.4" y1="38.1" x2="32.4" y2="41.1"/>
      <line class="cls-4" x1="18" y1="38.1" x2="18" y2="41.1"/>
      <line class="cls-4" x1="3.6" y1="38.1" x2="3.6" y2="41.1"/>
      <line class="cls-4" x1="54" y1="45.3" x2="54" y2="48.3"/>
      <line class="cls-4" x1="39.6" y1="45.3" x2="39.6" y2="48.3"/>
      <line class="cls-4" x1="25.2" y1="45.3" x2="25.2" y2="48.3"/>
      <line class="cls-4" x1="10.8" y1="45.3" x2="10.8" y2="48.3"/>
      <line class="cls-4" x1="46.8" y1="52.5" x2="46.8" y2="55.5"/>
      <line class="cls-4" x1="32.4" y1="52.5" x2="32.4" y2="55.5"/>
      <line class="cls-4" x1="18" y1="52.5" x2="18" y2="55.5"/>
      <line class="cls-4" x1="3.6" y1="52.5" x2="3.6" y2="55.5"/>
    </pattern>
    <pattern id="Crosses-3" data-name="Crosses" width="57.6" height="57.6" patternTransform="translate(-166.47 -259.86) scale(1.85)" patternUnits="userSpaceOnUse" viewBox="0 0 57.6 57.6">
      <rect class="cls-1" width="57.6" height="57.6"/>
      <line class="cls-4" x1="52.5" y1="3.6" x2="55.5" y2="3.6"/>
      <line class="cls-4" x1="38.1" y1="3.6" x2="41.1" y2="3.6"/>
      <line class="cls-4" x1="23.7" y1="3.6" x2="26.7" y2="3.6"/>
      <line class="cls-4" x1="9.3" y1="3.6" x2="12.3" y2="3.6"/>
      <line class="cls-4" x1="45.3" y1="10.8" x2="48.3" y2="10.8"/>
      <line class="cls-4" x1="30.9" y1="10.8" x2="33.9" y2="10.8"/>
      <line class="cls-4" x1="16.5" y1="10.8" x2="19.5" y2="10.8"/>
      <line class="cls-4" x1="2.1" y1="10.8" x2="5.1" y2="10.8"/>
      <line class="cls-4" x1="52.5" y1="18" x2="55.5" y2="18"/>
      <line class="cls-4" x1="38.1" y1="18" x2="41.1" y2="18"/>
      <line class="cls-4" x1="23.7" y1="18" x2="26.7" y2="18"/>
      <line class="cls-4" x1="9.3" y1="18" x2="12.3" y2="18"/>
      <line class="cls-4" x1="45.3" y1="25.2" x2="48.3" y2="25.2"/>
      <line class="cls-4" x1="30.9" y1="25.2" x2="33.9" y2="25.2"/>
      <line class="cls-4" x1="16.5" y1="25.2" x2="19.5" y2="25.2"/>
      <line class="cls-4" x1="2.1" y1="25.2" x2="5.1" y2="25.2"/>
      <line class="cls-4" x1="52.5" y1="32.4" x2="55.5" y2="32.4"/>
      <line class="cls-4" x1="38.1" y1="32.4" x2="41.1" y2="32.4"/>
      <line class="cls-4" x1="23.7" y1="32.4" x2="26.7" y2="32.4"/>
      <line class="cls-4" x1="9.3" y1="32.4" x2="12.3" y2="32.4"/>
      <line class="cls-4" x1="45.3" y1="39.6" x2="48.3" y2="39.6"/>
      <line class="cls-4" x1="30.9" y1="39.6" x2="33.9" y2="39.6"/>
      <line class="cls-4" x1="16.5" y1="39.6" x2="19.5" y2="39.6"/>
      <line class="cls-4" x1="2.1" y1="39.6" x2="5.1" y2="39.6"/>
      <line class="cls-4" x1="52.5" y1="46.8" x2="55.5" y2="46.8"/>
      <line class="cls-4" x1="38.1" y1="46.8" x2="41.1" y2="46.8"/>
      <line class="cls-4" x1="23.7" y1="46.8" x2="26.7" y2="46.8"/>
      <line class="cls-4" x1="9.3" y1="46.8" x2="12.3" y2="46.8"/>
      <line class="cls-4" x1="45.3" y1="54" x2="48.3" y2="54"/>
      <line class="cls-4" x1="30.9" y1="54" x2="33.9" y2="54"/>
      <line class="cls-4" x1="16.5" y1="54" x2="19.5" y2="54"/>
      <line class="cls-4" x1="2.1" y1="54" x2="5.1" y2="54"/>
      <line class="cls-4" x1="54" y1="2.1" x2="54" y2="5.1"/>
      <line class="cls-4" x1="39.6" y1="2.1" x2="39.6" y2="5.1"/>
      <line class="cls-4" x1="25.2" y1="2.1" x2="25.2" y2="5.1"/>
      <line class="cls-4" x1="10.8" y1="2.1" x2="10.8" y2="5.1"/>
      <line class="cls-4" x1="46.8" y1="9.3" x2="46.8" y2="12.3"/>
      <line class="cls-4" x1="32.4" y1="9.3" x2="32.4" y2="12.3"/>
      <line class="cls-4" x1="18" y1="9.3" x2="18" y2="12.3"/>
      <line class="cls-4" x1="3.6" y1="9.3" x2="3.6" y2="12.3"/>
      <line class="cls-4" x1="54" y1="16.5" x2="54" y2="19.5"/>
      <line class="cls-4" x1="39.6" y1="16.5" x2="39.6" y2="19.5"/>
      <line class="cls-4" x1="25.2" y1="16.5" x2="25.2" y2="19.5"/>
      <line class="cls-4" x1="10.8" y1="16.5" x2="10.8" y2="19.5"/>
      <line class="cls-4" x1="46.8" y1="23.7" x2="46.8" y2="26.7"/>
      <line class="cls-4" x1="32.4" y1="23.7" x2="32.4" y2="26.7"/>
      <line class="cls-4" x1="18" y1="23.7" x2="18" y2="26.7"/>
      <line class="cls-4" x1="3.6" y1="23.7" x2="3.6" y2="26.7"/>
      <line class="cls-4" x1="54" y1="30.9" x2="54" y2="33.9"/>
      <line class="cls-4" x1="39.6" y1="30.9" x2="39.6" y2="33.9"/>
      <line class="cls-4" x1="25.2" y1="30.9" x2="25.2" y2="33.9"/>
      <line class="cls-4" x1="10.8" y1="30.9" x2="10.8" y2="33.9"/>
      <line class="cls-4" x1="46.8" y1="38.1" x2="46.8" y2="41.1"/>
      <line class="cls-4" x1="32.4" y1="38.1" x2="32.4" y2="41.1"/>
      <line class="cls-4" x1="18" y1="38.1" x2="18" y2="41.1"/>
      <line class="cls-4" x1="3.6" y1="38.1" x2="3.6" y2="41.1"/>
      <line class="cls-4" x1="54" y1="45.3" x2="54" y2="48.3"/>
      <line class="cls-4" x1="39.6" y1="45.3" x2="39.6" y2="48.3"/>
      <line class="cls-4" x1="25.2" y1="45.3" x2="25.2" y2="48.3"/>
      <line class="cls-4" x1="10.8" y1="45.3" x2="10.8" y2="48.3"/>
      <line class="cls-4" x1="46.8" y1="52.5" x2="46.8" y2="55.5"/>
      <line class="cls-4" x1="32.4" y1="52.5" x2="32.4" y2="55.5"/>
      <line class="cls-4" x1="18" y1="52.5" x2="18" y2="55.5"/>
      <line class="cls-4" x1="3.6" y1="52.5" x2="3.6" y2="55.5"/>
    </pattern>
    <pattern id="Circles" data-name="Circles" width="46.77" height="54" patternTransform="translate(-179.33 16.83) scale(1.85)" patternUnits="userSpaceOnUse" viewBox="0 0 46.77 54">
      <rect class="cls-1" width="46.77" height="54"/>
      <g>
        <circle class="cls-4" cx="39.77" cy="20.83" r="1.5" transform="translate(-5.09 22.68) rotate(-30)"/>
        <circle class="cls-4" cx="38.52" cy="30.67" r="1.5" transform="translate(-7.31 48.68) rotate(-59.98)"/>
        <circle class="cls-4" cx="30.27" cy="17.58" r="1.5" transform="translate(-0.09 35) rotate(-60)"/>
        <circle class="cls-4" cx="22.72" cy="22.88" r="1.5" transform="translate(-8.39 14.41) rotate(-29.99)"/>
        <circle class="cls-4" cx="25.52" cy="30.58" r="1.5" transform="translate(-13.72 37.38) rotate(-60)"/>
        <circle class="cls-4" cx="32.43" cy="36" r="1.5"/>
        <circle class="cls-4" cx="7.82" cy="22.92" r="1.5" transform="translate(-15.94 18.23) rotate(-60)"/>
        <circle class="cls-4" cx="8.45" cy="32" r="1.5" transform="translate(-14.88 8.53) rotate(-30.04)"/>
        <circle class="cls-4" cx="13.72" cy="17.17" r="1.5" transform="translate(-6.75 9.15) rotate(-29.99)"/>
        <circle class="cls-4" cx="18" cy="35" r="1.5"/>
        <circle class="cls-4" cx="39.72" cy="49.25" r="1.5" transform="translate(-19.31 26.46) rotate(-30)"/>
        <circle class="cls-4" cx="24.02" cy="49.33" r="1.5" transform="translate(-21.45 18.62) rotate(-30)"/>
        <circle class="cls-4" cx="31.18" cy="45" r="1.5"/>
        <circle class="cls-4" cx="7.06" cy="49.62" r="1.5" transform="matrix(0.5, -0.87, 0.87, 0.5, -39.44, 30.93)"/>
        <circle class="cls-4" cx="15.84" cy="43" r="1.5"/>
        <circle class="cls-4" cx="38.97" cy="4.5" r="1.5" transform="translate(15.59 36) rotate(-60)"/>
        <circle class="cls-4" cx="31.18" cy="9" r="1.5" transform="translate(-0.32 16.8) rotate(-30)"/>
        <circle class="cls-4" cx="24.06" cy="3.88" r="1.5" transform="translate(8.67 22.78) rotate(-60)"/>
        <circle class="cls-4" cx="7.79" cy="4.5" r="1.5" transform="translate(-1.21 4.5) rotate(-29.99)"/>
        <circle class="cls-4" cx="16.09" cy="8" r="1.5" transform="translate(1.12 17.93) rotate(-60)"/>
        <circle class="cls-4" cx="47.52" cy="17.5" r="1.5"/>
        <circle class="cls-4" cx="47.5" cy="45" r="1.5"/>
        <circle class="cls-4" cx="24.52" cy="40.08" r="1.5" transform="translate(-22.45 41.27) rotate(-60)"/>
        <circle class="cls-4" cx="16.02" cy="27.08" r="1.5" transform="translate(-15.44 27.41) rotate(-60)"/>
        <circle class="cls-4" cx="32.25" cy="25.2" r="1.5" transform="translate(-5.7 40.53) rotate(-60)"/>
        <circle class="cls-4" cx="23.27" cy="13.58" r="1.5" transform="translate(-0.12 26.93) rotate(-60)"/>
        <circle class="cls-4" cx="6.77" cy="13.08" r="1.5" transform="translate(-7.94 12.4) rotate(-60)"/>
        <circle class="cls-4" cx="38.83" cy="13" r="1.5" transform="translate(8.16 40.13) rotate(-60.01)"/>
        <circle class="cls-4" cx="7.02" cy="40.08" r="1.5" transform="translate(-31.2 26.11) rotate(-60)"/>
        <circle class="cls-4" cx="15.52" cy="52.83" r="1.5" transform="translate(-37.99 39.85) rotate(-60)"/>
        <circle class="cls-4" cx="33.27" cy="53.33" r="1.5" transform="translate(-29.55 55.47) rotate(-60)"/>
        <circle class="cls-4" cx="39.5" cy="41.25" r="1.5"/>
        <circle class="cls-4" cx="46.77" cy="54.75" r="1.5"/>
        <circle class="cls-4" cx="46.5" cy="26.95" r="1.5" transform="translate(-0.08 53.76) rotate(-60.01)"/>
        <circle class="cls-4" cx="47.48" cy="8" r="1.5"/>
        <circle class="cls-4" cx="45.48" cy="36.25" r="1.5"/>
      </g>
      <g>
        <circle class="cls-4" cx="0.75" cy="17.5" r="1.5"/>
        <circle class="cls-4" cx="0.73" cy="45" r="1.5"/>
        <circle class="cls-4" cy="54.75" r="1.5"/>
        <circle class="cls-4" cx="-0.27" cy="26.95" r="1.5" transform="translate(-23.48 13.25) rotate(-60.01)"/>
        <circle class="cls-4" cx="0.72" cy="8" r="1.5"/>
        <circle class="cls-4" cx="-1.28" cy="36.25" r="1.5"/>
      </g>
      <g>
        <circle class="cls-4" cx="15.52" cy="-1.18" r="1.5" transform="translate(8.77 12.85) rotate(-60)"/>
        <circle class="cls-4" cx="33.27" cy="-0.68" r="1.5" transform="translate(17.22 28.47) rotate(-60)"/>
        <circle class="cls-4" cx="46.77" cy="0.75" r="1.5"/>
      </g>
      <circle class="cls-4" cy="0.75" r="1.5"/>
    </pattern>
    <pattern id="_6_lpi_50_" data-name="6 lpi 50%" width="72" height="72" patternTransform="translate(-221.85 -68.67) scale(1.85)" patternUnits="userSpaceOnUse" viewBox="0 0 72 72">
      <rect class="cls-1" width="72" height="72"/>
      <g>
        <line class="cls-3" x1="71.75" y1="66" x2="144.25" y2="66"/>
        <line class="cls-3" x1="71.75" y1="42" x2="144.25" y2="42"/>
        <line class="cls-3" x1="71.75" y1="18" x2="144.25" y2="18"/>
        <line class="cls-3" x1="71.75" y1="54" x2="144.25" y2="54"/>
        <line class="cls-3" x1="71.75" y1="30" x2="144.25" y2="30"/>
        <line class="cls-3" x1="71.75" y1="6" x2="144.25" y2="6"/>
      </g>
      <g>
        <line class="cls-3" x1="-0.25" y1="66" x2="72.25" y2="66"/>
        <line class="cls-3" x1="-0.25" y1="42" x2="72.25" y2="42"/>
        <line class="cls-3" x1="-0.25" y1="18" x2="72.25" y2="18"/>
        <line class="cls-3" x1="-0.25" y1="54" x2="72.25" y2="54"/>
        <line class="cls-3" x1="-0.25" y1="30" x2="72.25" y2="30"/>
        <line class="cls-3" x1="-0.25" y1="6" x2="72.25" y2="6"/>
      </g>
      <g>
        <line class="cls-3" x1="-72.25" y1="66" x2="0.25" y2="66"/>
        <line class="cls-3" x1="-72.25" y1="42" x2="0.25" y2="42"/>
        <line class="cls-3" x1="-72.25" y1="18" x2="0.25" y2="18"/>
        <line class="cls-3" x1="-72.25" y1="54" x2="0.25" y2="54"/>
        <line class="cls-3" x1="-72.25" y1="30" x2="0.25" y2="30"/>
        <line class="cls-3" x1="-72.25" y1="6" x2="0.25" y2="6"/>
      </g>
    </pattern>
    <pattern id="Ripple" data-name="Ripple" width="72" height="72" patternTransform="translate(-211.39 -304.4) scale(1.01)" patternUnits="userSpaceOnUse" viewBox="0 0 72 72">
      <rect class="cls-1" width="72" height="72"/>
      <path class="cls-5" d="M80.4,64.14s1,4.06-2.92,4S73.54,70,74.35,72.43,74.17,77,71,77"/>
      <g>
        <path class="cls-5" d="M13.35,15.53s3.79-1.74,4.5,2.08,2.61,3.5,4.82,2.23,4.56-.74,5.14,2.37"/>
        <path class="cls-5" d="M66,28.74s-2.6,3.26-5,.18-3.91-1.94-5.3.19-3.74,2.72-5.66.2"/>
        <path class="cls-5" d="M39,29s-3.82-1.67-1.45-4.74S38.45,20,36,19.24s-3.59-2.91-1.65-5.41"/>
        <path class="cls-5" d="M41.14,24.82s4.08-.88,2.36-4.36,0-4.36,2.52-4.67,4.1-2.14,2.69-5"/>
        <path class="cls-5" d="M55.12,14.87s4.08-.88,2.36-4.36,0-4.36,2.52-4.67,4.1-2.14,2.69-5"/>
        <path class="cls-5" d="M27.39,34.19s3.68-2,1.07-4.84-1.21-4.19,1.15-5.18S33,21,30.83,18.64"/>
        <path class="cls-5" d="M10.39,22.94s1.29,4-2.58,4.23S4,29.36,5,31.7s.21,4.62-2.94,4.84"/>
        <path class="cls-5" d="M7.56,41.16s-2-3.65,1.72-4.64,3.29-2.87,1.85-5S10,27,13.1,26.24"/>
        <path class="cls-5" d="M20.44,17s1.35-3.95,4.6-1.83,4.33.52,4.93-2,2.61-3.82,5.26-2.09"/>
        <path class="cls-5" d="M12.33,44.48s-1.77-3.78,2-4.51,3.48-2.63,2.19-4.83S15.8,30.57,18.91,30"/>
        <path class="cls-5" d="M24,38.67s-3.43-2.37-.51-4.93,1.68-4-.55-5.28-3-3.55-.58-5.63"/>
        <path class="cls-5" d="M11,59.64s.3-4.16,4-2.94,4.32-.6,4.27-3.15,1.55-4.36,4.56-3.36"/>
        <path class="cls-5" d="M29.5,52.86s-.38,4.15-4,2.87-4.33.52-4.33,3.07-1.63,4.33-4.62,3.28"/>
        <path class="cls-5" d="M19.67,27.31s-4.17.18-3.38-3.62-1.09-4.22-3.62-3.88-4.5-1-3.86-4.14"/>
        <path class="cls-5" d="M32.71,28s-1.49,3.89,2.37,4.35,3.66,2.38,2.53,4.66-.44,4.6,2.7,5"/>
        <path class="cls-5" d="M3.32,45.67s1.92,3.7,4.82,1.13,4.21-1.15,5.17,1.21,3.14,3.39,5.51,1.29"/>
        <path class="cls-5" d="M51,83.38s-1.86-3.73,1.93-4.56S56.36,76.1,55,73.93s-.88-4.54,2.21-5.21"/>
        <path class="cls-5" d="M64.56,10S67,13.34,63.44,14.8s-2.9,3.26-1.2,5.17,1.64,4.32-1.29,5.51"/>
        <path class="cls-5" d="M59.95,14.27s-4.09.84-2.4,4.33,0,4.36-2.58,4.64-4.12,2.1-2.75,5"/>
        <path class="cls-5" d="M17.08.72s4.17.2,3,3.91.71,4.31,3.26,4.19,4.39,1.44,3.47,4.47"/>
        <path class="cls-5" d="M39.44,15.71s-4-1-2.23-4.42.13-4.36-2.39-4.74-4-2.26-2.55-5.05"/>
        <path class="cls-5" d="M18,7.9s-4-1.27-4.22,2.6-2.17,3.78-4.52,2.78-4.62-.19-4.82,3"/>
        <path class="cls-5" d="M8.4,64.14s1,4.06-2.92,4S1.54,70,2.35,72.43,2.17,77-1,77"/>
        <path class="cls-5" d="M70.32,33.48S68,37,65.41,34.13s-4.08-1.56-5.26.7-3.46,3.07-5.61.75"/>
        <path class="cls-5" d="M50.38,1.6s1,4.06-2.92,4-3.95,1.87-3.13,4.28S44.15,14.5,41,14.45"/>
        <path class="cls-5" d="M43.88,31.8s-1.63-3.83,2.2-4.44,3.57-2.51,2.35-4.76-.61-4.58,2.51-5.07"/>
        <path class="cls-5" d="M74.88,33.61s-4.15-.44-2.81-4.08-.46-4.34-3-4.37-4.3-1.7-3.21-4.67"/>
        <path class="cls-5" d="M62.12,38.22s3.47-2.32,4.77,1.34S70,42.6,72,41s4.39-1.45,5.45,1.53"/>
        <path class="cls-5" d="M71.68,62.73s-.76,4.1-4.29,2.48-4.36.12-4.59,2.66-2,4.16-4.9,2.84"/>
        <path class="cls-5" d="M28.78,44s4.13.55,2.7,4.16.34,4.35,2.89,4.45,4.25,1.81,3.08,4.75"/>
        <path class="cls-5" d="M14.79,43.43s1.2,4,4.53,2,4.35-.36,4.85,2.15,2.46,3.91,5.18,2.29"/>
        <path class="cls-5" d="M1.79,60S3,64,6.33,62s4.35-.36,4.85,2.15,2.46,3.91,5.18,2.29"/>
        <path class="cls-5" d="M37.88,69s4.15-.36,2.89-4,.54-4.33,3.09-4.31,4.33-1.61,3.3-4.6"/>
        <path class="cls-5" d="M34.49,60.09s3.21,2.66.08,5-2,3.87.09,5.31,2.65,3.79.1,5.66"/>
        <path class="cls-5" d="M50.83,63.59s-3.37-2.46-.39-4.94,1.78-4-.42-5.29-2.87-3.62-.44-5.64"/>
        <path class="cls-5" d="M55.94,59.43s2.82-3.07,5,.17,3.76,2.21,5.3.18,3.92-2.45,5.66.2"/>
        <path class="cls-5" d="M40.17,32.48s4.16.24,3,3.94.66,4.31,3.22,4.22,4.38,1.49,3.43,4.5"/>
        <path class="cls-5" d="M31.67,40.41s-.39,4.15,3.45,3.56,4.16,1.3,3.69,3.81.81,4.55,3.94,4.07"/>
        <path class="cls-5" d="M19.47,42.71s1.06-4,4.46-2.16,4.36.21,4.78-2.31,2.33-4,5.1-2.46"/>
        <path class="cls-5" d="M1.21,13.18s4.16-.21,3-3.92.69-4.31,3.24-4.2S11.86,3.59,10.93.57"/>
        <path class="cls-5" d="M35.69,57.65S31.87,56,31.22,59.8s-2.55,3.54-4.78,2.3-4.57-.66-5.1,2.46"/>
        <path class="cls-5" d="M83.79,52.82S82.21,49,79.09,51.27s-4.29.78-5-1.66S71.21,46,68.67,47.85"/>
        <path class="cls-5" d="M67.72,48.84s-1,4-4.44,2.21-4.36-.16-4.75,2.36-2.28,4-5.07,2.52"/>
        <path class="cls-5" d="M59.64,60.81s-.12,4.17-3.86,3.11-4.29.78-4.13,3.33-1.37,4.42-4.41,3.55"/>
        <path class="cls-5" d="M51.35,47.94s2-3.65,4.85-1,4.17,1.27,5.2-1.07,3.24-3.3,5.54-1.14"/>
        <path class="cls-5" d="M41.29,59.08s-2-3.68,1.81-4.61,3.34-2.81,1.93-4.94S44,45,47.09,44.25"/>
        <path class="cls-5" d="M62,83.53s-1.29-4,2.58-4.23,3.77-2.19,2.76-4.53-.21-4.62,2.95-4.84"/>
        <path class="cls-5" d="M46.41,34s4.09-.81,3.89,3.06,1.72,4,4.17,3.28,4.61.34,4.45,3.5"/>
        <path class="cls-5" d="M66.59,12.82s4.13-.53,3.67,3.32,1.45,4.12,3.94,3.56,4.58.65,4.2,3.8"/>
        <path class="cls-5" d="M65.07,53.84s2.41,3.4,4.94.45,4-1.73,5.28.48,3.58,2.92,5.64.52"/>
        <path class="cls-5" d="M45.46,62.83s-3.72,1.88-1.18,4.81S45.39,71.86,43,72.8s-3.42,3.11-1.35,5.5"/>
        <path class="cls-5" d="M28.23,80.31s-3.57-2.16-.81-4.89,1.43-4.12-.87-5.24-3.18-3.36-.92-5.59"/>
        <path class="cls-5" d="M20,65.69s1.2,4-2.68,4.17S13.46,72,14.42,74.32s.1,4.62-3.06,4.76"/>
      </g>
      <g>
        <path class="cls-5" d="M2.88,33.61s-4.15-.44-2.81-4.08-.46-4.34-3-4.37-4.3-1.7-3.21-4.67"/>
        <path class="cls-5" d="M-9.88,38.22s3.47-2.32,4.77,1.34S-2,42.6,0,41s4.39-1.45,5.45,1.53"/>
        <path class="cls-5" d="M-.32,62.73s-.76,4.1-4.29,2.48S-9,65.33-9.2,67.88s-2,4.16-4.9,2.84"/>
        <path class="cls-5" d="M-16.06,59.43s2.82-3.07,5,.17,3.76,2.21,5.3.18,3.92-2.45,5.66.2"/>
        <path class="cls-5" d="M11.79,52.82S10.21,49,7.09,51.27s-4.29.78-5-1.66S-.79,46-3.33,47.85"/>
        <path class="cls-5" d="M-5.41,12.82s4.13-.53,3.67,3.32S-.29,20.26,2.2,19.7s4.58.65,4.2,3.8"/>
        <path class="cls-5" d="M-6.93,53.84s2.41,3.4,4.94.45,4-1.73,5.28.48,3.58,2.92,5.64.52"/>
      </g>
      <path class="cls-5" d="M80.4-7.86s1,4.06-2.92,4S73.54-2,74.35.43,74.17,5,71,5"/>
      <g>
        <path class="cls-5" d="M51,11.38s-1.86-3.73,1.93-4.56S56.36,4.1,55,1.93s-.88-4.54,2.21-5.21"/>
        <path class="cls-5" d="M8.4-7.86s1,4.06-2.92,4S1.54-2,2.35.43,2.17,5-1,5"/>
        <path class="cls-5" d="M34.49-11.91s3.21,2.66.08,5-2,3.87.09,5.31,2.65,3.79.1,5.66"/>
        <path class="cls-5" d="M62,11.53s-1.29-4,2.58-4.23,3.77-2.19,2.76-4.53-.21-4.62,2.95-4.84"/>
        <path class="cls-5" d="M45.46-9.17s-3.72,1.88-1.18,4.81S45.39-.14,43,.8s-3.42,3.11-1.35,5.5"/>
        <path class="cls-5" d="M28.23,8.31s-3.57-2.16-.81-4.89,1.43-4.12-.87-5.24-3.18-3.36-.92-5.59"/>
        <path class="cls-5" d="M20-6.31s1.2,4-2.68,4.17S13.46,0,14.42,2.32s.1,4.62-3.06,4.76"/>
      </g>
    </pattern>
    <pattern id="Crosses-13" data-name="Crosses" width="57.6" height="57.6" patternTransform="translate(-44.93 35.74)" patternUnits="userSpaceOnUse" viewBox="0 0 57.6 57.6">
      <rect class="cls-1" width="57.6" height="57.6"/>
      <line class="cls-4" x1="52.5" y1="3.6" x2="55.5" y2="3.6"/>
      <line class="cls-4" x1="38.1" y1="3.6" x2="41.1" y2="3.6"/>
      <line class="cls-4" x1="23.7" y1="3.6" x2="26.7" y2="3.6"/>
      <line class="cls-4" x1="9.3" y1="3.6" x2="12.3" y2="3.6"/>
      <line class="cls-4" x1="45.3" y1="10.8" x2="48.3" y2="10.8"/>
      <line class="cls-4" x1="30.9" y1="10.8" x2="33.9" y2="10.8"/>
      <line class="cls-4" x1="16.5" y1="10.8" x2="19.5" y2="10.8"/>
      <line class="cls-4" x1="2.1" y1="10.8" x2="5.1" y2="10.8"/>
      <line class="cls-4" x1="52.5" y1="18" x2="55.5" y2="18"/>
      <line class="cls-4" x1="38.1" y1="18" x2="41.1" y2="18"/>
      <line class="cls-4" x1="23.7" y1="18" x2="26.7" y2="18"/>
      <line class="cls-4" x1="9.3" y1="18" x2="12.3" y2="18"/>
      <line class="cls-4" x1="45.3" y1="25.2" x2="48.3" y2="25.2"/>
      <line class="cls-4" x1="30.9" y1="25.2" x2="33.9" y2="25.2"/>
      <line class="cls-4" x1="16.5" y1="25.2" x2="19.5" y2="25.2"/>
      <line class="cls-4" x1="2.1" y1="25.2" x2="5.1" y2="25.2"/>
      <line class="cls-4" x1="52.5" y1="32.4" x2="55.5" y2="32.4"/>
      <line class="cls-4" x1="38.1" y1="32.4" x2="41.1" y2="32.4"/>
      <line class="cls-4" x1="23.7" y1="32.4" x2="26.7" y2="32.4"/>
      <line class="cls-4" x1="9.3" y1="32.4" x2="12.3" y2="32.4"/>
      <line class="cls-4" x1="45.3" y1="39.6" x2="48.3" y2="39.6"/>
      <line class="cls-4" x1="30.9" y1="39.6" x2="33.9" y2="39.6"/>
      <line class="cls-4" x1="16.5" y1="39.6" x2="19.5" y2="39.6"/>
      <line class="cls-4" x1="2.1" y1="39.6" x2="5.1" y2="39.6"/>
      <line class="cls-4" x1="52.5" y1="46.8" x2="55.5" y2="46.8"/>
      <line class="cls-4" x1="38.1" y1="46.8" x2="41.1" y2="46.8"/>
      <line class="cls-4" x1="23.7" y1="46.8" x2="26.7" y2="46.8"/>
      <line class="cls-4" x1="9.3" y1="46.8" x2="12.3" y2="46.8"/>
      <line class="cls-4" x1="45.3" y1="54" x2="48.3" y2="54"/>
      <line class="cls-4" x1="30.9" y1="54" x2="33.9" y2="54"/>
      <line class="cls-4" x1="16.5" y1="54" x2="19.5" y2="54"/>
      <line class="cls-4" x1="2.1" y1="54" x2="5.1" y2="54"/>
      <line class="cls-4" x1="54" y1="2.1" x2="54" y2="5.1"/>
      <line class="cls-4" x1="39.6" y1="2.1" x2="39.6" y2="5.1"/>
      <line class="cls-4" x1="25.2" y1="2.1" x2="25.2" y2="5.1"/>
      <line class="cls-4" x1="10.8" y1="2.1" x2="10.8" y2="5.1"/>
      <line class="cls-4" x1="46.8" y1="9.3" x2="46.8" y2="12.3"/>
      <line class="cls-4" x1="32.4" y1="9.3" x2="32.4" y2="12.3"/>
      <line class="cls-4" x1="18" y1="9.3" x2="18" y2="12.3"/>
      <line class="cls-4" x1="3.6" y1="9.3" x2="3.6" y2="12.3"/>
      <line class="cls-4" x1="54" y1="16.5" x2="54" y2="19.5"/>
      <line class="cls-4" x1="39.6" y1="16.5" x2="39.6" y2="19.5"/>
      <line class="cls-4" x1="25.2" y1="16.5" x2="25.2" y2="19.5"/>
      <line class="cls-4" x1="10.8" y1="16.5" x2="10.8" y2="19.5"/>
      <line class="cls-4" x1="46.8" y1="23.7" x2="46.8" y2="26.7"/>
      <line class="cls-4" x1="32.4" y1="23.7" x2="32.4" y2="26.7"/>
      <line class="cls-4" x1="18" y1="23.7" x2="18" y2="26.7"/>
      <line class="cls-4" x1="3.6" y1="23.7" x2="3.6" y2="26.7"/>
      <line class="cls-4" x1="54" y1="30.9" x2="54" y2="33.9"/>
      <line class="cls-4" x1="39.6" y1="30.9" x2="39.6" y2="33.9"/>
      <line class="cls-4" x1="25.2" y1="30.9" x2="25.2" y2="33.9"/>
      <line class="cls-4" x1="10.8" y1="30.9" x2="10.8" y2="33.9"/>
      <line class="cls-4" x1="46.8" y1="38.1" x2="46.8" y2="41.1"/>
      <line class="cls-4" x1="32.4" y1="38.1" x2="32.4" y2="41.1"/>
      <line class="cls-4" x1="18" y1="38.1" x2="18" y2="41.1"/>
      <line class="cls-4" x1="3.6" y1="38.1" x2="3.6" y2="41.1"/>
      <line class="cls-4" x1="54" y1="45.3" x2="54" y2="48.3"/>
      <line class="cls-4" x1="39.6" y1="45.3" x2="39.6" y2="48.3"/>
      <line class="cls-4" x1="25.2" y1="45.3" x2="25.2" y2="48.3"/>
      <line class="cls-4" x1="10.8" y1="45.3" x2="10.8" y2="48.3"/>
      <line class="cls-4" x1="46.8" y1="52.5" x2="46.8" y2="55.5"/>
      <line class="cls-4" x1="32.4" y1="52.5" x2="32.4" y2="55.5"/>
      <line class="cls-4" x1="18" y1="52.5" x2="18" y2="55.5"/>
      <line class="cls-4" x1="3.6" y1="52.5" x2="3.6" y2="55.5"/>
    </pattern>
  </defs>
  <title>Artboard 26</title>
  <g class="areagroup sardologcamp">
    <path class="cls-6" d="M131.63,907.46c-1.27-6.62,18.26-5.37,21.63-11.44,5.4-8.1-4.72-14.17,4.72-21.59s14.84.67,22.94,4c7.42,2.7,16.19,1.35,24.29,1.35,10.12.67,20.24-6.75,29.69-2.7,7.42,3.37,15.52,12.82,22.94,16.87,22.94,14.17,16.19,39.13,4.72,58.7-5.4,9.44-10.12,12.82-6.75,23.61,4,11.47,9.45,16.19,8.77,30.36-1.35,20.91-16.19,39.13-20.24,59.37-2,11.47-6.07,18.89-8.77,29s.67,20.92-5.4,30.36c-8.77,12.14-14.17,1.35-20.92-7.42-3.37-5.4-15.52-18.22-20.24-6.07-4-.67-12.14-6.07-14.84,1.35-1.35,2.7,6.75,12.14,6.07,16.87-2,17.54-18.89,18.22-31.71,20.24-18.89,2.7-20.92,3.37-27-15.52-1.35-4-2-14.84-8.1-14.84-4.72,0-8.1,10.79-11.47,13.49-5.4-5.4-8.77-22.26,3.38-20.92,3.37.68,3.37,12.82,8.77,6.07,2.7-3.37,0-12.15-2.7-15.52-3.37-4-7.42-3.37-10.12-7.42-2-3.37-2-10.79-1.35-14.17,2-10.79,13.49-18.21-1.35-22.26a2.47,2.47,0,0,1,.68-2c-.68-2,6.75-10.12,8.1-12.82,2-4.72,2.7-10.12,4.72-15.52,4-8.77,2-6.07,8.77-7.42,5.4-.67,8.77,4.72,11.47-1.35,4-8.77-13.49-18.89-16.87-24.29-8.77-12.14-2.7-14.84,6.75-20.24,13.49-8.1,9.45-10.12,7.42-22.94-1.35-4.72,0-7.42-.67-12.15-.67-1.35-1.94-8.47-1-11.09C131.63,919.13,133.3,916.12,131.63,907.46Z"/>
    <path class="cls-7" d="M131.63,907.46c-1.27-6.62,18.26-5.37,21.63-11.44,5.4-8.1-4.72-14.17,4.72-21.59s14.84.67,22.94,4c7.42,2.7,16.19,1.35,24.29,1.35,10.12.67,20.24-6.75,29.69-2.7,7.42,3.37,15.52,12.82,22.94,16.87,22.94,14.17,16.19,39.13,4.72,58.7-5.4,9.44-10.12,12.82-6.75,23.61,4,11.47,9.45,16.19,8.77,30.36-1.35,20.91-16.19,39.13-20.24,59.37-2,11.47-6.07,18.89-8.77,29s.67,20.92-5.4,30.36c-8.77,12.14-14.17,1.35-20.92-7.42-3.37-5.4-15.52-18.22-20.24-6.07-4-.67-12.14-6.07-14.84,1.35-1.35,2.7,6.75,12.14,6.07,16.87-2,17.54-18.89,18.22-31.71,20.24-18.89,2.7-20.92,3.37-27-15.52-1.35-4-2-14.84-8.1-14.84-4.72,0-8.1,10.79-11.47,13.49-5.4-5.4-8.77-22.26,3.38-20.92,3.37.68,3.37,12.82,8.77,6.07,2.7-3.37,0-12.15-2.7-15.52-3.37-4-7.42-3.37-10.12-7.42-2-3.37-2-10.79-1.35-14.17,2-10.79,13.49-18.21-1.35-22.26a2.47,2.47,0,0,1,.68-2c-.68-2,6.75-10.12,8.1-12.82,2-4.72,2.7-10.12,4.72-15.52,4-8.77,2-6.07,8.77-7.42,5.4-.67,8.77,4.72,11.47-1.35,4-8.77-13.49-18.89-16.87-24.29-8.77-12.14-2.7-14.84,6.75-20.24,13.49-8.1,9.45-10.12,7.42-22.94-1.35-4.72,0-7.42-.67-12.15-.67-1.35-1.94-8.47-1-11.09C131.63,919.13,133.3,916.12,131.63,907.46Z"/>
  </g>
  <g class="areagroup toscana">
    <path class="cls-8" d="M326,394.68c-8,.42-16.8-.42-21.42,7.56-3.78,6.72-5,19.74-5,27.3,8.82,2.94,13.44,11.76,18.06,18.91,4.2,6.72,10.08,13.44,13.44,21,7.14,16.38,3.78,35.29,6.3,52.51,2.1,15.54,21.42,21.42,23.94,37.81,1.26,8.82-9.66,31.51-1.26,37.81,5.46,4.2,11.34-2.52,16.8-.42,9.24,4.2,1.68,10.92,0,16-2.52,7.14,5.46,7.56,10.93,10.5,5,2.52,8.4,6.72,13,9.66,9.24,6.3,22.27,3.36,33.61,4.62,13.44,1.26,20.17,1.26,25.62-12.6,2.94-7.14,5.46-12.18,13.86-12.6,4.62-.42,5.88,1.68,9.66-1.26,3.36-2.52,4.2-8.82,5-12.6,2.94-13.44-3.36-28.15,1.26-41.59,3.36-10.08,10.5-10.08,19.32-9.66,0-7.56-6.72-12.18-6.3-21,.42-6.3,2.52-14.28,7.56-18.48,2.1-1.68,4.2-.42,6.3-2.94,2.1-2.1,1.26-6.72,3.36-8.82,1.68-1.68,5-.42,5.88-2.94.84-3.36-2.52-6.72-5-8-10.08-5.88-28.15-3.36-37-10.5-7.56-5.88,0-11.34,3.78-16.8,4.62-7.14.42-11.76-4.62-17.22-5.88-5.88-13-9.66-21.84-7.14-6.72,2.1-6.72,7.56-11.76,11.34-7.14,6.72-29.83-.42-38.65-2.52-10.92-2.94-16.8-14.7-29-15.12-6.72,0-9.66,2.94-16-1.26-5-3.36-9.24-8-14.29-11.34-6.72-4.62-9.24-10.08-14.28-15.54-4.2-4.2-6.72-3.36-12.19-4.62"/>
    <path class="cls-8" d="M394.08,424.93c14.7,8.82,47,24.78,61.75,6.3,10.08-12.18-18.9-6.72-25.63-6.72-5.88,0-32.77-8.4-35.29-1.26l.42.42"/>
    <path class="cls-8" d="M494.9,455.59c-6.72,4.62-4.2,16,5,18.07,23.1,4.2-1.68-21.43-5-19.32"/>
    <path class="cls-8" d="M338.21,609.76c-3.78,5.46-14.29-4.2-18.91,0-5.88,5,6.3,12.6,10.5,13,5,.84,8.4-3.36,13.44-.84,3.36,2.1,5.46,10.92,10.08,2.1,1.68-3.36.42-4.2-1.26-7.14-1.68-3.36-2.94,1.26-3.36-4.2,0-2.52,6.3-11.76-2.52-10.08-1.68.42-2.52,4.62-4.2,5.46-1.68,1.26-4.2,1.26-6.3,1.68"/>
  </g>
  <g class="areagroup meridionaleint">
    <path class="cls-9" d="M609.32,611.18c.47,2.67-1.26,7.4,0,9.76,1.57,2.84,5.67.63,8,2.84,2.52,2,3.94,14,8.66,9.29,2.36-2.36,8.82-21.11,1.26-19.69-2.2.47-2.52,4.1-4.88,4.25-2.52,0-3.15-3.47-3.78-5.2-1.1-2.83-2.52-4.73-6-3.94a4.94,4.94,0,0,0-3.47,4.25"/>
    <path class="cls-9" d="M620.34,597.95c-2.21,1.26-1.89,3.94-1.1,6,1.42,2.84,3.46,5.36,6.14,3.63,3-1.89,3.62-3,6.46-.32a18.26,18.26,0,0,1,4.72,8.51c1.42,6.46-2.36,9.92-3.78,15.75-.94,3.31.47,2,3.15,1.58,2.67-.63,4.25.47,6.46,1.73,1.89,1.1,4.1,2.36,6.14,1.1,2.68-1.42,1.42-4.25,2.83-6.3,1.26-1.73,3.94-1.1,5.67-1.89,3-1.26,5.36-3.62,8.51-4.88,4.57-1.89,9.45-4.25,13.23-7.56,4.41-3.94,3.47-9.14,2.68-14.34-1.1-8.51-1.58-17.48-3.46-25.84-.16-.94-.79-4.57-1.58-5-1.42-1.1-2.2.79-3.31,1.89-9.92,10.56-22.05,18.75-36.71,21.26-4.09.79-15.12,0-16.85,5.36"/>
    <path class="cls-9" d="M646.33,641.27c6.93,11.34,5,29.61,4.41,42.22a146.67,146.67,0,0,1-5,29c-1.89,5-13.23,22.68-11.34,27.09.63,1.89,15.12,8.19,18.27,11.34,7.56,7.56,9.45,12,20.16,13.23,7.56,1.26,18.9,3.15,25.84,1.26,13.86-3.78,6.93-12.6,12.6-20.79,7.56-11.34,10.08,1.26,12,8.19,3.15,11.34,6.93,9.45,16.38,1.89,8.19-6.93,13.86-14.49,17.64-24.57,1.89-3.78,5-12,4.41-15.75-.63-8.82-1.26-5-8.19-6.93-5.67-1.26-6.93,0-12-4.41-4.41-3.78-8.19-8.82-12-13.23-6.93-7.56-14.49-12.6-22.05-18.91-7.56-5.67-14.49-12.6-17.64-21.42-1.89-6.93,3.78-22.06-1.89-26.47-9.45-6.93-36.55,16.38-44.11,19.53"/>
    <path class="cls-9" d="M653.9,764.77c-13.86,14.49,3.78,34-18.27,44.74-3.78,2.52-17.64,5-12,10.08,5.67,4.41,16.38-.63,22.05,6.93,5,7.56-.63,13.86-.63,20.79,0,5.67-3.15,5,3.15,8.19,3.15,1.26,9.45.63,12.6-.63,5.67-3.15,15.75-16.38,18.27-22.68,1.26-3.78.63-6.3,1.26-9.45,1.26-6.3-1.89-2.52,3.15-7.56,3.15-2.52,4.41,1.89,7.56-3.15,1.26-1.89,0-6.93,0-8.82.63-7.56,1.89-15.12-3.15-21.43-5-5.67-27.73-20.16-34.66-15.75"/>
    <path class="cls-9" d="M672.17,902.77c-3.78,18.27,18.28,15.12,7.56,3.78,5-3.78,9.45-.63,10.71,4.41,5.67-1.89,7.56-11.34,14.49-10.08,3.78,0,11.34,8.82,13.23,12,8.19,14.49-17.64,12-15.12,27.73,1.89,11.34,20.16-7.56,29.62-8.19,11.34,0,25.83,6.93,28.35-9.45,8.82,0,18.9,18.9,21.43,25.84,7.56,18.9-7.56,13.23-10.08,26.46-2.52,14.49,29.62,37.18,42.85,34.66,6.93-1.89,13.23-8.82,20.79-8.82,6.3,0,6.93,5,13.23,1.26,6.93-3.15,15.75-18.9,15.12-25.83-.63-22.68-46.63-21.43-28.36-49.15,1.89-2.52,6.93-3.15,7.56-6.3,1.89-5.67-3.78-10.71-6.3-15.12-7.56-13.86-5-11.34,5.67-15.75,9.46-3.78,12.6-16.38,5.67-25.84-5-7.56-15.12-6.93-20.16-13.23-2.52-3.78-.63-6.93-5.67-10.71-3.78-2.52-8.19-1.89-12.6-3.15-13.86-4.41-6.3-8.19-9.45-18.9-2.52-7.56-12.6-13.23-20.16-10.71C768,812,769.84,822.74,755.35,817.7s-25.84-13.86-41.59-6.3c-4.41,1.89-6.93,5.67-10.08,8.19-3.15,1.26-5.67,1.26-8.19,2.52-4.41,2.52-3.15-3.15-6.93,2.52-1.26,2.52.63,7.56,0,10.08-5,17.64-27.1,17.64-22.05,37.81,3.78,14.49,4.41,23.94,3.78,39.07"/>
    <path class="cls-9" d="M694.86,775.49c6.93,8.82,3.15,18.27,5,27.72,2.52,14.49,5.67-1.26,14.49-3.78,6.3-1.89,17-.63,23.32.63,6.93,1.26,17.64,8.19,24.57,6.3,8.82-2.52,7.56-15.12,15.75-17.64,6.93-1.89,15.75,4.41,23.94.63,15.12-6.93,0-10.71-1.89-18.9-1.26-6.3,7.56-12.6,1.26-18.91-3.15-3.78-12-3.78-16.38-6.93s-7.56-12-13.86-12c-8.82,0-9.45,9.45-12.61,15.12-3.15,6.93-8.82,12.6-14.49,17-18.9,13.86-13.86-9.45-27.1-8.19-8.19.63-15.75,21.43-22.05,22.05"/>
    <path class="cls-9" d="M817.1,757.84c-17,14.49,19.53,27.72-6.3,37.17-5.67,1.89-17,1.26-15.75,8.82,1.26,3.15,7.56,4.41,10.08,6.3,5,4.41,4.41,5.67,6.93,11.34,4.41,10.71,6.93,9.45,16.38,15.12,6.93,4.41,10.08,11.34,17.64,15.12,3.15,1.26,7.56,1.26,10.08,3.15,4.41,3.78,3.78,9.45,6.93,12,10.08,8.19,17-7.56,27.1-6.93,12,1.26,8.19,13.87,10.08,22.05,3.15,16.39,7.56,3.15,17,6.3,6.3,1.89,8.82,16.38,12,20.79,2.52,3.15,5,9.45,9.45,9.45,6.93,0,5.67-6.3,9.45-9.45,20.8-16.38,13.86,24.58,16.38,33.4,2.52,6.93,13.86,19.53,21.42,17,3.78-1.26,15.12-22.05,20.79-6.3,1.26,3.78-1.89,7.56-3.78,10.08,15.75,6.93,12,1.89,18.28-10.71,5-11.34,10.71-8.82,20.79-10.08,20.16-2.52,25.21-27.73,9.45-39.7-11.34-8.19-23.95-12-34-22.05-9.45-9.45-17.64-15.75-30.24-18.27-19.54-4.41-39.07-6.3-56.71-17.64-10.08-7.56-37.81-35.29-29.61-49.78,6.3-10.71,20.79-2.52,22.05-17,.63-8.82-5.67-18.27-13.23-22.68-13.23-8.82-35.29-5.67-51-5-14.49.63-27.1,6.3-41.59,7.56v.63"/>
    <path class="cls-9" d="M860.58,873.15c-1.26,15.12-8.82,14.49-15.12,24.57-6.3,8.82,6.94,15.12,2.52,25.84-4.41,12-9.45,10.08-1.26,22.68,5.67,7.56,13.86,14.49,18.27,22.68,10.08,17.64-17.64,34-9.45,44.74,7.56,10.08,16.38,1.26,24.58.63,12,0,5,10.71,12,17,8.19,7.56,25.21,3.78,31.51-3.15,8.19-8.82.63-27.72,8.19-32.77,7.56-5.67,15.12,6.93,22.69,6.3,10.08-.63,14.49-18.27,17.64-26.47,6.3-15.12-3.15-10.71-12-21.42-8.19-9.45-1.89-18.27-5.67-27.72-5-12.6-15.12,1.26-25.21-3.15s-4.41-15.12-12.6-20.79c-5.67-3.78-10.71,1.89-16.38-1.26-10.71-3.78-4.41-13.86-8.19-20.79-5.67-10.71-9.45,1.26-18.9.63-5-.63-13.23-10.71-16.38-4.41"/>
    <path class="cls-9" d="M862.47,1056.52c-1.89-6.93-8.82-20.16-2.52-25.2,8.19-6.93,17.64,5,23.31,8.82,17,11.34,44.74,0,51.67-18.9,1.26-2.52.63-9.45,3.15-11.34,4.41-3.15,10.08.63,12,5,4.41,10.08-8.82,18.27-11.34,27.1-2.52,10.08,3.15,11.34,10.71,15.75,15.12,7.56,30.25,15.75,42.85,27.73,3.15,3.15,6.3,5,7.56,9.45-8.82,4.41-29.62-5-37.81-8.19-14.5-5-26.46-8.19-42.22-5.67-10.71,1.26-30.88,9.45-41.59,3.78-6.93-4.41-13.23-21.43-17.64-29"/>
  </g>
  <g class="areagroup meridionaleest">
    <path class="cls-10" d="M789.37,1224.13c0,3.47-1.89,9.77,3.78,9.14,6.3-.95,3.15-10.08-2.21-9.14"/>
    <path class="cls-10" d="M785.91,1209c0,4.73,6.3,10.71,8.51,4.41,1.89-5.67-7.88-10.71-8.82-4.41"/>
    <path class="cls-10" d="M777.09,1197.66c-1.58,2.83-1.58,9.14,3.78,6.3,6.3-3.15-.63-10.71-3.47-6.61"/>
    <path class="cls-10" d="M584.9,1171.83c-5,1.89-.63,8.82,3.46,5.67,3.78-3.15-.63-8.19-4.41-5.67"/>
    <path class="cls-10" d="M492.9,1273.91c-3.15,3.47,1.26,9.45,5,6.3,3.46-3.15-1.58-10.4-5-6"/>
    <path class="cls-10" d="M465.49,1422.62c1.26,10.08,10.08,17.64,20.16,21.42,6.3-13.86-20.16-37.81-21.42-17.64"/>
    <g>
      <g>
        <path class="cls-10" d="M883.89,1096.21c0,9.45-2.52,19.53-.63,29,3.15,15.75,19.53,20.17,25.21,33.39,10.08,25.21-37.18,25.84-45.37,42.22-6.93,12.6,8.19,15.75,8.82,26.46,0,9.45-9.45,13.86-15.12,19.53-9.45,9.45-2.52,10.71-3.78,21.43-.63,8.82-10.08,10.71-1.26,20.79,6.93,6.93,14.5,2.52,22.06,5,10.08,3.15,15.12,9.45,22.05-4.41,4.41-9.45,2.52-18.9,9.45-26.46,6.3-6.3,15.12-13.23,22.06-18.9,6.31-4.41,15.75-7.56,18.91-15.12,2.52-5.67.63-15.75.63-22.05-.63-21.42,2.52-34.66,25.84-38.44,5-.63,15.75,1.26,19.53-.63,8.82-3.78,9.45-18.27,10.08-25.84.63-9.45.63-20.16.63-29-.63-14.49-4.41-7.56-13.86-6.3C974,1108.19,957,1091.17,942.5,1088c-17.64-4.41-35.92-.63-52.93,5-3.78,1.26-7.56,0-8.19,5"/>
        <path class="cls-11" d="M883.89,1096.21c0,9.45-2.52,19.53-.63,29,3.15,15.75,19.53,20.17,25.21,33.39,10.08,25.21-37.18,25.84-45.37,42.22-6.93,12.6,8.19,15.75,8.82,26.46,0,9.45-9.45,13.86-15.12,19.53-9.45,9.45-2.52,10.71-3.78,21.43-.63,8.82-10.08,10.71-1.26,20.79,6.93,6.93,14.49,2.52,22.06,5,10.08,3.15,15.12,9.45,22.05-4.41,4.41-9.45,2.52-18.9,9.45-26.46,6.3-6.3,15.12-13.23,22.05-18.9,6.3-4.41,15.76-7.56,18.91-15.12,2.52-5.67.63-15.75.63-22.05-.63-21.42,2.52-34.66,25.83-38.44,5-.63,15.76,1.26,19.54-.63,8.82-3.78,9.45-18.27,10.08-25.84.63-9.45.63-20.16.63-29-.63-14.49-4.41-7.56-13.86-6.3-15.12,1.26-32.14-15.75-46.63-18.9-17.64-4.41-35.92-.63-52.93,5-3.78,1.26-7.56,0-8.19,5"/>
      </g>
      <g>
        <path class="cls-10" d="M1018.11,971.45c-.63.63-.63,2.52-.63-.63,0-6.93,6.93-15.12,13.23-17,10.08-3.78,20.8,0,30.25-7.56s6.3-22.68,13.86-28.36c14.49-10.71,15.12,17.64,20.16,23.32,6.93,7.56,15.75,4.41,22.06,14.49,5.67,9.45,13.23,23.32,15.75,34,2.52,11.34-1.26,18.9-6.3,28.35-3.15,8.19-3.15,13.86-5,22.05-5,20.79-22.68-5-25.83-17-4.41-14.49-1.26-29-15.75-39.07-12-8.82-26.46-5.67-41-4.41-5,.63-35.29-.63-22.68-11.34"/>
        <path class="cls-11" d="M1018.11,971.45c-.63.63-.63,2.52-.63-.63,0-6.93,6.93-15.12,13.23-17,10.08-3.78,20.79,0,30.24-7.56s6.3-22.68,13.86-28.36c14.49-10.71,15.12,17.64,20.16,23.32,6.93,7.56,15.75,4.41,22.05,14.49,5.67,9.45,13.23,23.32,15.75,34,2.52,11.34-1.26,18.9-6.3,28.35-3.15,8.19-3.15,13.86-5,22.05-5,20.79-22.68-5-25.83-17-4.41-14.49-1.26-29-15.75-39.07-12-8.82-26.47-5.67-41-4.41-5,.63-35.29-.63-22.68-11.34"/>
      </g>
      <g>
        <path class="cls-10" d="M544.26,1268.24c-4.41-6.93-1.89-22.06-13.87-18.91-8.19,1.89-18.27,19.54-21.42,27.1-9.45,22.68-.63,38.44,17.64,52.93,12.6,9.45,18.27,2.52,30.88,5,5,1.26,6.3,5,10.71,6.93,3.78,2.52,8.82,1.89,12.6,4.41,8.82,4.41,12.6,15.12,20.8,20.8a66.24,66.24,0,0,0,19.53,10.71c16.38,7.56,29,19.54,46,21.42,20.79,2.52,31.51,21.42,41.59,37.81,6.93,11.34,10.71,8.82,20.79,14.49,4.41,2.52,4.41,6.3,9.45,7.56,2.52.63,4.41-1.89,5.67-1.89,2.52.63,3.78,3.15,5.67,3.15,3.15.63,8.82-.63,12,.63,4.41,1.89,6.3,7.56,10.71,10.08,10.71,5.67,11.34,0,12-9.45.63-8.82,1.26-15.75,6.93-23.31,5-6.3,16.38-10.71,17.64-19.54,1.26-8.19-8.82-17.64-12.6-23.94-4.41-6.93-15.76-10.71-17-18.27-1.26-8.82,7.56-20.16,10.71-27.09,5.67-12,9.45-24.58,15.76-36.55,8.19-17,26.46-32.77,29.61-51.67,1.89-13.86-3.78-10.71-13.23-8.19-6.93,1.89-17-.63-23.31,1.89-3.78,1.26-5,8.82-9.45,9.45-3.15,0-6.93-5.67-10.71-6.3-8.19-1.89-15.76,4.41-22.06,8.19-15.12,7.56-35.92,12.6-52.93,13.86-7.56.63-13.23-3.15-20.79-2.52-8.82.63-20.16,6.93-28.36,5s-7.56-6.3-17-5c-5,.63-10.71,4.41-15.12,1.89-5.67-3.15-4.41-13.23-8.82-17.64-2.52-2.52-5.67-1.89-8.19-3.78a31.66,31.66,0,0,1-5-4.41c-5.67-5.67-3.15-7.56-12.6-8.19-4.41,0-12,.63-15.75,3.15-10.08,6.93-13.87,20.17-28.36,18.27"/>
        <path class="cls-11" d="M544.26,1268.24c-4.41-6.93-1.89-22.06-13.86-18.91-8.19,1.89-18.27,19.54-21.42,27.1-9.45,22.68-.63,38.44,17.64,52.93,12.6,9.45,18.27,2.52,30.87,5,5,1.26,6.3,5,10.71,6.93,3.78,2.52,8.82,1.89,12.6,4.41,8.83,4.41,12.6,15.12,20.79,20.8a66.29,66.29,0,0,0,19.53,10.71c16.39,7.56,29,19.54,46,21.42,20.8,2.52,31.51,21.42,41.59,37.81,6.93,11.34,10.71,8.82,20.79,14.49,4.41,2.52,4.41,6.3,9.45,7.56,2.52.63,4.41-1.89,5.67-1.89,2.52.63,3.78,3.15,5.67,3.15,3.15.63,8.82-.63,12,.63,4.41,1.89,6.3,7.56,10.71,10.08,10.71,5.67,11.34,0,12-9.45.63-8.82,1.26-15.75,6.93-23.31,5-6.3,16.38-10.71,17.64-19.54,1.26-8.19-8.82-17.64-12.6-23.94-4.41-6.93-15.75-10.71-17-18.27-1.26-8.82,7.56-20.16,10.71-27.09,5.67-12,9.45-24.58,15.75-36.55,8.19-17,26.47-32.77,29.62-51.67,1.89-13.86-3.78-10.71-13.24-8.19-6.93,1.89-17-.63-23.31,1.89-3.78,1.26-5,8.82-9.45,9.45-3.15,0-6.93-5.67-10.71-6.3-8.19-1.89-15.75,4.41-22.06,8.19-15.12,7.56-35.91,12.6-52.93,13.86-7.56.63-13.23-3.15-20.79-2.52-8.82.63-20.16,6.93-28.35,5s-7.56-6.3-17-5c-5,.63-10.71,4.41-15.12,1.89-5.67-3.15-4.41-13.23-8.82-17.64-2.52-2.52-5.67-1.89-8.19-3.78a31.65,31.65,0,0,1-5-4.41c-5.67-5.67-3.15-7.56-12.61-8.19-4.41,0-12,.63-15.75,3.15-10.08,6.93-13.86,20.17-28.35,18.27"/>
      </g>
    </g>
    <path class="cls-11" d="M789.37,1224.13c0,3.47-1.89,9.77,3.78,9.14,6.3-.95,3.15-10.08-2.21-9.14"/>
    <path class="cls-11" d="M785.9,1209c0,4.73,6.3,10.71,8.51,4.41,1.89-5.67-7.88-10.71-8.82-4.41"/>
    <path class="cls-11" d="M777.08,1197.66c-1.57,2.83-1.57,9.14,3.78,6.3,6.3-3.15-.63-10.71-3.46-6.61"/>
    <path class="cls-11" d="M584.9,1171.83c-5,1.89-.63,8.82,3.46,5.67,3.79-3.15-.63-8.19-4.41-5.67"/>
    <path class="cls-11" d="M492.9,1273.91c-3.15,3.47,1.26,9.45,5,6.3,3.46-3.15-1.58-10.4-5-6"/>
    <path class="cls-11" d="M465.49,1422.62c1.26,10.08,10.08,17.64,20.16,21.42,6.3-13.86-20.16-37.81-21.42-17.64"/>
  </g>
  <g class="areagroup centrale" areacode="centrale">
    <path class="cls-12" d="M631.42,728.64c-2.94.42-15.55,0-15.55,3.78-.41,6.73,23.11,5,14.29-2.1"/>
    <g>
      <path class="cls-12" d="M636,705.12c-10.08-9.25-21-26.89-2.1-33.19,14.29-5,8,9.25,6.72,18.49-.42,2.52-2.52,21.42-7.14,13.86"/>
      <g>
        <g>
          <path class="cls-12" d="M460,650.81c-4.2,5.46,10.08,8.82,3.36,18.06-4.2,5.46-8.82.84-13.44,4.2-13.86,10.5,10.5,20.59,14.28,26.46,8.4,12.6,4.62,31.09,21.84,34.87,12.6,2.94,22.27,5.88,29.83,17.22,5.46,7.56,7.14,16.8,11.34,25.21,2.94,5.46,6.72,8,10.92,12.18,10.5,9.24,19.74,20.16,31.08,28.15,4.62,3.36,9.24,5.88,13.44,9.66,5,4.2,10.5,11.34,16.38,14.28,6.72,3.78,8.82-2.1,15.54-2.94,8.4-.84,13.44,6.72,19.75,10.5,8,4.2,10.5-1.26,8.82-10.08-2.1-10.5-8.4-6.72-16-7.14-11.34-.84-21.42-19.74-5.88-20.16,5.88,0,10.92,3.78,16.8,1.26,7.56-3.36,7.56-11.76,7.14-18.9-.42-7.56-1.68-14.7,2.1-20.58,4.62-7.14,8.82-8,1.68-15.54C638.12,746.17,621.31,752.89,610,742c-5.88-5.88-3.78-9.66,3.78-12.6,5.88-2.1,19.32,2.1,22.26-1.68,3.78-5.46-5.88-14.28-9.24-17.64a40,40,0,0,1-11.34-23.95c-.42-6.3-1.26-15.12,5.88-18.48,5.88-2.52,12.18,3.36,18.06,1.68,11.76-4.2,8.82-28.15-4.62-25.2-5.88,1.26-7.14,9.24-11.34,13-6.3,5.46-13.44,3.36-21,3.36-18.06.42-26.46,18.06-42.43,21.85-12.6,2.52-26.46,0-28.57-13.87-1.26-10.5-1.68-13.86-12.6-16-5-1.26-13-1.68-16-6.72-2.94-4.62,1.26-9.24-2.1-13.44-.84-.42-3.78-.42-5-.84-1.68-1.68-2.1-4.62-4.2-5.46-5-2.94-10.08,0-12.6,4.62-3.78,5.88-.84,13.44-7.56,17.22-2.52,1.26-6.3.84-9.25,2.1"/>
          <path class="cls-13" d="M460,650.81c-4.2,5.46,10.08,8.82,3.36,18.06-4.2,5.46-8.82.84-13.44,4.2-13.86,10.5,10.5,20.59,14.28,26.46,8.4,12.6,4.62,31.09,21.84,34.87,12.6,2.94,22.27,5.88,29.83,17.22,5.46,7.56,7.14,16.8,11.34,25.21,2.94,5.46,6.72,8,10.92,12.18,10.5,9.24,19.74,20.16,31.08,28.15,4.62,3.36,9.24,5.88,13.44,9.66,5,4.2,10.5,11.34,16.38,14.28,6.72,3.78,8.82-2.1,15.54-2.94,8.4-.84,13.44,6.72,19.75,10.5,8,4.2,10.5-1.26,8.82-10.08-2.1-10.5-8.4-6.72-16-7.14-11.34-.84-21.42-19.74-5.88-20.16,5.88,0,10.92,3.78,16.8,1.26,7.56-3.36,7.56-11.76,7.14-18.9-.42-7.56-1.68-14.7,2.1-20.58,4.62-7.14,8.82-8,1.68-15.54C638.12,746.17,621.31,752.89,610,742c-5.88-5.88-3.78-9.66,3.78-12.6,5.88-2.1,19.32,2.1,22.26-1.68,3.78-5.46-5.88-14.28-9.24-17.64a40,40,0,0,1-11.34-23.95c-.42-6.3-1.26-15.12,5.88-18.48,5.88-2.52,12.18,3.36,18.06,1.68,11.76-4.2,8.82-28.15-4.62-25.2-5.88,1.26-7.14,9.24-11.34,13-6.3,5.46-13.44,3.36-21,3.36-18.06.42-26.46,18.06-42.43,21.85-12.6,2.52-26.46,0-28.57-13.87-1.26-10.5-1.68-13.86-12.6-16-5-1.26-13-1.68-16-6.72-2.94-4.62,1.26-9.24-2.1-13.44-.84-.42-3.78-.42-5-.84-1.68-1.68-2.1-4.62-4.2-5.46-5-2.94-10.08,0-12.6,4.62-3.78,5.88-.84,13.44-7.56,17.22-2.52,1.26-6.3.84-9.25,2.1"/>
        </g>
        <g>
          <path class="cls-12" d="M495.74,614c2.52,7.14,10.08,2.1,14.7,5.88,6.3,5.88-2.52,13.86,6.3,18.49,6.72,2.94,12.18,1.26,17.22,7.56,5.46,7.56,5.46,19.32,16.8,19.74,21.85.42,36.13-22.68,56.71-24.36,5.46-.42,12.6,2.52,11.34-6.3-1.68-11.34-9.66-2.52-13.86-5.88-4.62-3.36,2.52-11.34-.42-14.71-3.78-5-10.5,1.68-12.6-6.3-1.26-4.62,0-13-.42-18.06-.42-3.78.42-5.46-1.26-8.4-1.26-2.94-2.94-2.94-3.78-6.72-1.26-5.46,3.36-29.41.42-31.09-5-3.36-7.56,8.4-12.6,8.4-3.78,0-12.18-10.92-15.55-13.44-6.3-5.46-26-23.53-35.71-21-6.3,1.68-7.14,9.66-4.62,14.28,3.36,5.88,12.18,6.72,13.86,13,2.52,8.4-4.2,5.88-9.24,7.14-5.88,2.1-10.5,7.14-13.44,12.6a34.2,34.2,0,0,0-5,19.32c.42,5.88,6.3,11.34,6.3,16.8-.42,11.34-15.54,2.94-13.86,12.18"/>
          <path class="cls-14" d="M495.74,614c2.52,7.14,10.08,2.1,14.7,5.88,6.3,5.88-2.52,13.86,6.3,18.49,6.72,2.94,12.18,1.26,17.22,7.56,5.46,7.56,5.46,19.32,16.8,19.74,21.85.42,36.13-22.68,56.71-24.36,5.46-.42,12.6,2.52,11.34-6.3-1.68-11.34-9.66-2.52-13.86-5.88-4.62-3.36,2.52-11.34-.42-14.71-3.78-5-10.5,1.68-12.6-6.3-1.26-4.62,0-13-.42-18.06-.42-3.78.42-5.46-1.26-8.4-1.26-2.94-2.94-2.94-3.78-6.72-1.26-5.46,3.36-29.41.42-31.09-5-3.36-7.56,8.4-12.6,8.4-3.78,0-12.18-10.92-15.55-13.44-6.3-5.46-26-23.53-35.71-21-6.3,1.68-7.14,9.66-4.62,14.28,3.36,5.88,12.18,6.72,13.86,13,2.52,8.4-4.2,5.88-9.24,7.14-5.88,2.1-10.5,7.14-13.44,12.6a34.2,34.2,0,0,0-5,19.32c.42,5.88,6.3,11.34,6.3,16.8-.42,11.34-15.54,2.94-13.86,12.18"/>
        </g>
        <g>
          <path class="cls-12" d="M533.13,501.38c-5.88.84-6.3,6.3-3.78,9.66,4.2,4.62,14.28,5.88,19.75,10.08,5,4.2,9.24,8.4,15.12,11.34,8.4,3.36,11.76.42,20.16.84,15.54,1.26,10.08,27.3,9.66,37.81,0,6.72,2.94,8,5,13.86,1.68,4.62-.42,12.6,3.78,16,5.46,4.62,9.66-2.1,12.6-5.88,4.2-5,6.3-7.14,13.44-7.56,12.6-1.26,23.11-3.36,32.77-13,9.24-9.24,11.34-26,1.26-35.71-6.72-6.72-16-10.5-23.1-17.22-7.14-6.3-12.18-15.12-19.75-21-10.5-8-13.86,3.36-21.43,10.08a34.35,34.35,0,0,1-26.46,9.24c-10.08-.84-17.22-4.62-23.1-12.6-5-6.72-14.28-16.8-18.91-3.78"/>
          <path class="cls-14" d="M533.13,501.38c-5.88.84-6.3,6.3-3.78,9.66,4.2,4.62,14.28,5.88,19.75,10.08,5,4.2,9.24,8.4,15.12,11.34,8.4,3.36,11.76.42,20.16.84,15.54,1.26,10.08,27.3,9.66,37.81,0,6.72,2.94,8,5,13.86,1.68,4.62-.42,12.6,3.78,16,5.46,4.62,9.66-2.1,12.6-5.88,4.2-5,6.3-7.14,13.44-7.56,12.6-1.26,23.11-3.36,32.77-13,9.24-9.24,11.34-26,1.26-35.71-6.72-6.72-16-10.5-23.1-17.22-7.14-6.3-12.18-15.12-19.75-21-10.5-8-13.86,3.36-21.43,10.08a34.35,34.35,0,0,1-26.46,9.24c-10.08-.84-17.22-4.62-23.1-12.6-5-6.72-14.28-16.8-18.91-3.78"/>
        </g>
        <g>
          <path class="cls-12" d="M413.4,648.83c6.3,1.26,40.75-5.88,41.59,2.94.84,9.66-21,9.25-20.58,22.27-5.88,2.1-8.82-2.94-13.86-2.1-5.46.84-10.51,10.51-15.55,2.1-4.62-8,4.2-10.5,8.4-13,9.66-5.88,1.68-5.46-.84-11.77a1.49,1.49,0,0,1,1.26-.84"/>
          <path class="cls-14" d="M413.4,648.83c6.3,1.26,40.75-5.88,41.59,2.94.84,9.66-21,9.25-20.58,22.27-5.88,2.1-8.82-2.94-13.86-2.1-5.46.84-10.51,10.51-15.55,2.1-4.62-8,4.2-10.5,8.4-13,9.66-5.88,1.68-5.46-.84-11.77a1.49,1.49,0,0,1,1.26-.84"/>
        </g>
        <path class="cls-14" d="M636,705.12c-10.08-9.25-21-26.89-2.1-33.19,14.29-5,8,9.25,6.72,18.49-.42,2.52-2.52,21.42-7.14,13.86"/>
      </g>
      <path class="cls-14" d="M631.42,728.64c-2.94.42-15.55,0-15.55,3.78-.41,6.73,23.11,5,14.29-2.1"/>
    </g>
  </g>
  <g class="areagroup provenzale"><path class="cls-99" d="M24.6,276c0,2.5-1.67,6.25-.84,8.75,2.09,5,5,2.5,9.18,4.17,5.41,2.5,5.83,7.92,10.84,10.84,5.83,3.75,14.17,1.66,14.59,10.83.42,7.5-7.09,14.17-10.84,20-2.5,4.17-2.08,4.58-5.83,7.09s-5.84,1.25-8.34,5.42c-2.91,6.25.42,16.26,2.09,22.51,2.08,8.34,7.08,13.76,11.25,20.84,2.92,5.84,5,11.25,10.84,14.17,16.67,8.34,22.51-22.51,34.18-5,2.08,3.75,10.42,12.09,7.5.83-1.67-5-12.09-10.42-15.42-14.17-5.42-5.42-9.59-11.67-15-17.09C63,358.9,55.87,354.32,55.87,345.56c-.41-17.51,17.92-19.17,21.68-33.77,1.67-7.08-.83-16.25-2.09-23.76-2.08-9.58-6.25-8.75-14.17-14.17-7.5-5-10.42-9.59-20.43-8.34-7.5,1.25-15,4.59-17.09,12.09"/></g>
  <g class="areagroup ladino">
    <path class="cls-16" d="M561.49,104.64c1.25-22.51-47.94-6.25-45.44,5.84.41,1.67,4.17,3.75,5,5.42,1.25,2.08.41,5,1.67,7.09,6.26,9.58,5.84-2.09,10.84-4.58,5.84-2.92,10.84-.42,17.09-5a32.51,32.51,0,0,0,10.84-11.67"/>
    <path class="cls-16" d="M535.23,125.06c-2.09.83-3.75,2.5-3.33,5,9.59-.83,24.59-11.67,34.6-5.42,4.58,2.92,4.17,6.67,10.84,8.34,2.92.83,4.17,0,7.09,1.67,2.5,1.66,1.67,7.08,7.08,5.42,3.76-.84,6.67-11.26,10-14.17,4.17-3.75,12.92-7.09,12.92-13.75C614,106.3,604.84,99.63,599,100c-6.25.42-8.34,7.09-14.17,8.75s-7.51-2.08-12.51-2.92c-6.25-.83-8.76,4.17-13.34,7.92-7.5,6.25-20.43,5-25.85,13.76"/>
  </g>
  <g class="areagroup sloveno"><path class="cls-17" d="M666.62,126.73c2.92,9.17,13.34,17.51,6.67,27.93-3.75,5.42-14.59,7.51-15.84,14.59-1.25,8.76,11.67,21.68,13.34,30.85,1.25,8.34,3.33,11.25,10.84,15.42s9.17,5,8.75,13.76c0,7.09,1.67,9.17,5,15.42,2.5,4.59,2.09,11.26,5,15.42,6.25,9.17,6.67-1.67,4.58-7.09-1.67-5.42-5.83-10.42-7.09-16.26-.83-5.42,2.5-10.42,1.67-15.84-1.25-9.59-10.42-6.67-15.42-12.5-7.92-8.34,26.68-17.51-1.25-22.93-6.25-.83-15.43-5.42-11.25-13.34,1.25-2.09,5.42-3.75,7.5-5A124.89,124.89,0,0,0,695,153.4c4.17-4.17,12.09-10.42,6.67-16.67-3.33-3.34-11.25-5-15-7.92-3.75-2.5-19.59-10.42-21.68-2.5"/></g>
  <g class="areagroup veneto">
    <g>
      <path class="cls-8" d="M425.18,293.23c-10-2.92,3.75-14.59,5.83-17.51,7.09-9.17.84-24.59,0-35,0-2.08-1.25-8.75.84-10,3.75-3.34,5,1.25,7.92,2.92,5,2.92,15,3.75,20,.42,7.5-4.58,9.59-19.17,13.34-27.09l5-11.26c2.09-5.42,1.67-7.09,7.09-5.83,6.67,1.67,11.25,7.08,19.59,7.08,5.83,0,13.75-1.25,16.25-7.5,2.08-6.26-2.09-9.17,3.75-14.17s11.67-6.67,11.67-16.26c-.42-8.34-10.83-10-9.17-16.67,2.09-7.09,20-10,25.85-12.09,15.84-6.25,6.25,2.08,15.84,7.5,5.42,2.92,20.84-2.09,13.76,10.84-3.33,6.67-12.09,7.5-12.09,16.26s10.42,15,10.42,23.76c0,6.25-6.25,8.34-6.25,15.42,0,6.25,1.67,13.34,5.42,18.34,8.75,12.93,20.84,7.5,33.34,12.09,13.34,4.59,21.68,18.76,2.92,23.34-8.34,2.08-13.76-.42-20.84,6.25-4.17,4.17-7.09,11.25-13.34,12.92-13.75,3.75-6.67-17.09-20.84-12.92C550.65,267,541.06,282,544,293.23c2.5,12.5,20.84,10,13.76,27.51-2.92,7.09-10.42,12.09-11.68,1.25h-.41c-2.92,1.25-5.42,4.58-7.92,6.67-6.67,5.42-12.92,2.92-20.84,5-12.09,2.5-20,7.92-33.35,7.08-5.42-.42-11.67-.83-16.26-4.17-7.5-5-9.17-15.42-15.42-21.68-8.75-7.92-21.26-15-27.51-25.43"/>
      <path class="cls-18" d="M425.18,293.23c-10-2.92,3.75-14.59,5.83-17.51,7.09-9.17.84-24.59,0-35,0-2.08-1.25-8.75.84-10,3.75-3.34,5,1.25,7.92,2.92,5,2.92,15,3.75,20,.42,7.5-4.58,9.59-19.17,13.34-27.09l5-11.26c2.09-5.42,1.67-7.09,7.09-5.83,6.67,1.67,11.25,7.08,19.59,7.08,5.83,0,13.75-1.25,16.25-7.5,2.08-6.26-2.09-9.17,3.75-14.17s11.67-6.67,11.67-16.26c-.42-8.34-10.83-10-9.17-16.67,2.09-7.09,20-10,25.85-12.09,15.84-6.25,6.25,2.08,15.84,7.5,5.42,2.92,20.84-2.09,13.76,10.84-3.33,6.67-12.09,7.5-12.09,16.26s10.42,15,10.42,23.76c0,6.25-6.25,8.34-6.25,15.42,0,6.25,1.67,13.34,5.42,18.34,8.75,12.93,20.84,7.5,33.34,12.09,13.34,4.59,21.68,18.76,2.92,23.34-8.34,2.08-13.76-.42-20.84,6.25-4.17,4.17-7.09,11.25-13.34,12.92-13.75,3.75-6.67-17.09-20.84-12.92C550.65,267,541.06,282,544,293.23c2.5,12.5,20.84,10,13.76,27.51-2.92,7.09-10.42,12.09-11.68,1.25h-.41c-2.92,1.25-5.42,4.58-7.92,6.67-6.67,5.42-12.92,2.92-20.84,5-12.09,2.5-20,7.92-33.35,7.08-5.42-.42-11.67-.83-16.26-4.17-7.5-5-9.17-15.42-15.42-21.68-8.75-7.92-21.26-15-27.51-25.43"/>
    </g>
    <g>
      <path class="cls-8" d="M588.58,186.75c-4.58,2.92-8.75,22.93-6.25,27.93,3.75,6.25,22.51,11.67,30,12.09,18.76.42-8.33-12.92-12.08-15.42a23.38,23.38,0,0,1-8.34-11.67c-1.25-3.75-.83-12.93-5.83-12.93"/>
      <path class="cls-18" d="M588.58,186.75c-4.58,2.92-8.75,22.93-6.25,27.93,3.75,6.25,22.51,11.67,30,12.09,18.76.42-8.33-12.92-12.08-15.42a23.38,23.38,0,0,1-8.34-11.67c-1.25-3.75-.83-12.93-5.83-12.93"/>
    </g>
  </g>
  <g class="areagroup friulano">
    <path class="cls-9" d="M622.76,113.81c-5.42,1.67-7.5,12.51-11.67,17.09-6.26,6.25-13.34,13.75-21.26,17.92-11.67,6.67-15.84,10.84-7.09,23.76,3.34,5.42,8.34,9.59,10.84,15.42,2.92,5.84,2.92,11.67,7.92,16.67,5.42,5,13.34,7.92,19.17,12.92,6.25,5,8.34,11.25,12.92,17.51,7.5,10.42,13.34,2.09,23.34,1.25,8.76-.83,6.67,2.08,10.42,7.92.83,1.67,2.92,4.59,4.58,5,5.84.83,3.75-4.59,6.25-7.5,3.75-4.58,3.75-3.34,7.92,1.67,2.91,3.75,4.58,7.5,6.67,11.25,5.41,9.17,8.34,17.92-5.42,17.92,2.5,5.84,16.67,5.42,17.51-1.25,1.25-5.42-7.5-17.09-10-22.09-3.33-6.25-7.09-10.42-6.67-17.93.83-9.17,2.08-7.92-7.5-9.59-15-2.92-3.75-24.17-16.26-32.93-7.92-5.42-11.25-6.25-8.75-17.51,1.25-3.34,2.09-8.34,4.17-11.26,2.92-4.17,8.33-5.83,10.84-10.42,4.59-9.17-2.5-10.84-5-18.34-1.25-3.75,1.67-5-2.08-7.09-3.34-1.67-8.76,2.09-11.67,2.09-9.59,0-22.92-22.93-32.51-11.26"/>
    <path class="cls-19" d="M622.76,113.81c-5.42,1.67-7.5,12.51-11.67,17.09-6.26,6.25-13.34,13.75-21.26,17.92-11.67,6.67-15.84,10.84-7.09,23.76,3.34,5.42,8.34,9.59,10.84,15.42,2.92,5.84,2.92,11.67,7.92,16.67,5.42,5,13.34,7.92,19.17,12.92,6.25,5,8.34,11.25,12.92,17.51,7.5,10.42,13.34,2.09,23.34,1.25,8.76-.83,6.67,2.08,10.42,7.92.83,1.67,2.92,4.59,4.58,5,5.84.83,3.75-4.59,6.25-7.5,3.75-4.58,3.75-3.34,7.92,1.67,2.91,3.75,4.58,7.5,6.67,11.25,5.41,9.17,8.34,17.92-5.42,17.92,2.5,5.84,16.67,5.42,17.51-1.25,1.25-5.42-7.5-17.09-10-22.09-3.33-6.25-7.09-10.42-6.67-17.93.83-9.17,2.08-7.92-7.5-9.59-15-2.92-3.75-24.17-16.26-32.93-7.92-5.42-11.25-6.25-8.75-17.51,1.25-3.34,2.09-8.34,4.17-11.26,2.92-4.17,8.33-5.83,10.84-10.42,4.59-9.17-2.5-10.84-5-18.34-1.25-3.75,1.67-5-2.08-7.09-3.34-1.67-8.76,2.09-11.67,2.09-9.59,0-22.92-22.93-32.51-11.26"/>
  </g>
  <g class="areagroup sardosassgall">
    <path class="cls-20" d="M117.92,866.35c1.52-2.53-.76-4-3-5.06,4-7.34,7.08,1,8.35,4.81,1.52,5.06,5.31,8.1,9.87,10.63a110.56,110.56,0,0,0,14.42,7.34c6.07,2.28,10.63,5.31,3.54,9.87-10.88,6.83-21,6.07-31.62-.25-2-1-3.79-2.78-5.82-3.8-3-1.26-3,0-5.57.25-7.59.25-.25-4.81,2.78-6.83,4.81-3,2.78-6.32,3.79-11.38.51-2.74-.34.18,1.77-4.55Z"/>
    <path class="cls-20" d="M176.62,866.1c7.08-3,13.66-13.41,18.22-19.48,2.28-3.29,4.81-6.83,7.84-9.36s6.07-2.28,9.36-4c5.31-2.28,6.58-13.15,13.66-11.13,3.54,1.27,5.56,5.82,7.34,8.35l10.63,13.66c1.77,2.28,3,4.55,6.07,4,1.77-.25,1.77-4.55,4.05-.76,1.77,3.29-3,7.08-3.55,10.12-.25,2.28.51,3,1.27,5.06,2.78,5.57,7.08,10.88,10.88,15.94,1.27,2,8.85,9.61,7.84,12.14C268,896,249.74,878.5,247.46,876c-7.84-8.35-18-7.08-28.59-6.33-5.06.25-10.12.5-15.18,1.27-5.31,1-10.88,3.29-16.19,3.29-6.83.25-10.62.76-10.37-5.31Z"/>
    <path class="cls-20" d="M115.9,854.21c1-.76,1-1,1.27-2.28.76-3.54-.51-5.57,1.77-9.36,1.27-2.53,4-6.83,7.84-5.57,2.53,1,2.28,3,1,5.06-1.52,2.78-4.3,2.28-4.55,6.07-.25,1.77,1.77,3.29.25,5.06-1.77,2-4.55,4.81-5.82,2.79Z"/>
    <path class="cls-21" d="M117.92,867.37c1.52-2.53-.76-4-3-5.06,4-7.34,7.08,1,8.35,4.81,1.52,5.06,5.31,8.1,9.87,10.63a110.78,110.78,0,0,0,14.42,7.34c6.07,2.28,10.63,5.31,3.54,9.87-10.88,6.83-21,6.07-31.62-.25-2-1-3.79-2.78-5.82-3.8-3-1.27-3,0-5.57.25-7.59.25-.25-4.81,2.78-6.83,4.81-3,2.78-6.32,3.79-11.39.51-2.73-.34.18,1.77-4.55Z"/>
    <path class="cls-21" d="M176.62,867.12c7.08-3,13.66-13.41,18.22-19.48,2.28-3.29,4.81-6.83,7.84-9.36s6.07-2.27,9.36-4c5.31-2.28,6.58-13.16,13.66-11.13,3.54,1.27,5.56,5.82,7.34,8.35l10.63,13.66c1.77,2.28,3,4.55,6.07,4,1.77-.25,1.77-4.55,4.05-.76,1.77,3.29-3,7.08-3.55,10.12-.25,2.28.51,3,1.27,5.06,2.78,5.57,7.08,10.88,10.88,15.94,1.27,2,8.85,9.62,7.84,12.14C268,897,249.74,879.51,247.46,877c-7.84-8.35-18-7.08-28.59-6.33-5.06.25-10.12.51-15.18,1.27-5.31,1-10.88,3.29-16.19,3.29-6.83.25-10.62.76-10.37-5.31Z"/>
    <path class="cls-21" d="M115.9,855.22c1-.76,1-1,1.27-2.28.76-3.54-.51-5.56,1.77-9.36,1.27-2.53,4-6.83,7.84-5.57,2.53,1,2.28,3,1,5.06-1.52,2.78-4.3,2.28-4.55,6.07-.25,1.77,1.77,3.29.25,5.06-1.77,2-4.55,4.81-5.82,2.78Z"/>
  </g>
  <g class="areagroup corsica"><path class="cls-120" d="M208,623.75c5.07.42,14.78,7.6,16,5.49s1.69-14.35.42-14.78-2.11-3-1.69-5.91,3.8-9.71,4.22-12.67-2.53-7.18-.42-8.44,7.18-1.69,8.44,0,3.38,10.56,3,15.62,1.27,11.4-.42,13.93-4.64,13.93-1.69,17.73,4.64,4.22,7.6,9.71,0,18.16,0,22.8,3.8,8.87,4.22,13.93-3.38,5.49-1.69,8.87,3.38,8.87,3,12.25-3,8.87-8.87,15.62-7.6,5.49-5.91,10.56-.84-5.07-.42,5.07,0,10.56,1.69,14.78-3.8,7.6-5.07,12.24-9.29,3.8-7.18,7.18,6.75,0,5.49,5.07-9.29,6.33-9.29,10.55-.42,8,2.11,13.09,1.69,4.64-5.49,4.22-9.29-.42-10.13-7.18-3.8-9.71-7.6-9.71-11.82-.42-18.58-6.33-4.64-10.56-2.11-11,7.6-2.53,5.91-5.49-2.53-3.8-6.33-5.07,0-4.64-2.53-4.64-2.11.84-4.22,1.27-6.76,0-5.91-2.53,2.53-4.22,7.6-8.87,7.6-9.71,1.27-9.71-12.25,4.22-13.51-.84-5.07-9.29-.42-10.56,5.07-2.53,7.18-5.07,4.22-7.18,0-9.29-7.18,1.27-11-4.22-7.6-13.93-.84-14.78,11.82-.84,8.87-5.49-1.69-1.69-5.49-5.49-6.33-5.07-3-7.6,11-4.64,9.29-9.29-5.49-6.76-.84-8.44,8-1.27,8.44-5.07,2.11-5.91,7.6-8.44,8-2.11,13.51-4.22,3.38-3.8,8.45-7.18S208,623.75,208,623.75Z"/></g>
  <g class="areagroup catalano">
    <path class="cls-23" d="M112.63,906.46c2.67-1.67,7.67,5,8.67,9.67s4.33,15,6,12,3.33-21.67,2.33-23c-4.61-6.14,8.15,6.18-7.33-2.67-7-4-13.33-10.67-16.33-8s-2.67,10-3,13.33,1.67,8.67,3,5.33S112.63,906.46,112.63,906.46Z"/>
    <path class="cls-24" d="M112.63,906.46c2.67-1.67,7.67,5,8.67,9.67s4.33,15,6,12,3.33-21.67,2.33-23c-4.61-6.14,8.15,6.18-7.33-2.67-7-4-13.33-10.67-16.33-8s-2.67,10-3,13.33,1.67,8.67,3,5.33S112.63,906.46,112.63,906.46Z"/>
  </g>
  <g class="areagroup tedesco">
    <path class="cls-12" d="M385.17,98c-6.67-3.33,1.67-10.84,1.67-15-.42-8.75-9.59-.83-9.18-10.42.83-6.25,9.59-11.26,12.5-17.09,3.75-8.34,8.34-11.67,18.34-10,8.34,1.67,10.42,8.34,16.67,12.92,5.42,3.75,10.84,3.33,17.09,3.33,18.75-.42,28.34-18.34,47.52-17.51,17.09.84,35,8.75,51.69.42,5-2.5,9.59-7.08,15.84-6.25,12.51,1.67,5.42,8.75,2.5,15-1.66,4.59-.83,11.26,3.75,14.17,7.09,5.42,10.84-7.92,14.18,4.17,1.25,3.75,0,7.92,1.67,11.67,1.66,3.33,5,4.17,7.08,6.67,7.51,9.58-2.5,14.17-11.67,12.09-9.59-2.09-10.42-12.5-19.17-14.59-10-2.92-20.42,5-28.35,9.17-6.67,3.33-15,6.25-12.09,15.42,3.33,9.17,8.34,9.17,7.5,19.59-.41,8.34-2.91,8.34-11.25,8.34-7.08,0-12.5,2.5-19.17,5-3.34,1.25-16.67,7.5-17.93,3.33-1.66-5.83,11.26-10,11.67-15.84.42-7.08-13.75-20-21.26-20-5.41,0-9.58,5-14.58,6.67-6.25,1.67-14.18,1.25-20.84.84-17.93-.42-41.27-5-45-26.26"/>
    <path class="cls-25" d="M285.72,57.71c4.19-1,1.29-7.41,5.48-10s25.13,1,29.64-2.25,7.41-10,14.5-11.6,17.07,8.38,20.94,10.63S374,47.4,368.84,60.29s-26.74,6.12-29.32,12.89,5.48,9,5.48,17.72-6.44,8.7-11.92,11-24.16.64-28.67-1.93,2.9-11.6-3.86-14.82-6.44.64-11.6-.64S279.6,71.24,276.05,69s-7.73,1.29-10.63-2.25-5.48-11,2.25-10S281.53,58.68,285.72,57.71Z"/>
  </g>
  <g class="areagroup galloitalico">
    <path class="cls-26" d="M606.5,489.37c1.25,2.5-20-20-26.26-23.76,5,33.77-37.52-6.25-56.27,17.51,25,1.25,63.77,61.27,86.28,10"/>
    <path class="cls-26" d="M540.64,337.65c2.5,2.08,5.84,2.92,8.34,5,2.91,2.08,2.91,4.58,5,7.08,6.66,7.5,3.75-.41,6.25-5.83,3.33,1.25,5.84,10.42,8.75.41.83-4.17-2.5-10.42-6.67-12.5-7.5-4.59-15,2.08-21.26,5.83"/>
    <path class="cls-26" d="M290.13,392.67c4.17-2.92,9.17-15,15.43-13.76,5.83,1.25,10,11.67,8.75,15.42-1.66,3.33-5.42,5.84-7.08,9.17-2.09,4.17.83,7.09-5,4.17-2.08-.84-13.75-15-13.34-15.84"/>
    <path class="cls-26" d="M261.37,343.06c-2.5,13.75-1.25,17.51,6.25,27.51,3.75,3.75,28.76,6.25,10,17.5,17.51,6.25,17.51-22.51,32.51-16.25,2.5,1.25,5,13.75,11.25,17.51s16.26-1.25,23.76,1.25c17.51,7.5,22.51,30,43.77,30,16.26,0,30-7.5,47.52-7.5,31.27,2.5,56.27,21.26,77.53,40,12.5,8.75,25,20,43.77,17.5,23.76-2.5,13.75-12.51,2.5-23.76-23.76-25-18.76-58.78-23.76-91.29,2.5,1.25,8.75,2.5,11.25,3.75,0-16.26-20-20-32.51-18.76-6.25,1.25-11.25,6.25-20,6.25-6.26,0-15-3.75-21.26-5-32.51-3.75-56.27-11.25-86.29-22.51-15-5-27.51-3.75-42.52-8.75-13.75-5-32.51-15-47.52-13.75-26.26,3.75-7.51,13.75-12.51,27.51-6.25,15-26.26,5-25,22.51"/>
    <path class="cls-26" d="M124.64,407.26c-2.08,2.08-4.17.42-6.67-.42s-2.92-5-6.25-3.33c-2.09,1.25-.42,5.84-1.25,7.51-2.5,4.58-10.42,5.83-14.59,12.09-3.33,5.42-6.67,10-10.42,15-5,5.84-9.59,10-4.58,17.51,4.58,5.42,13.34,9.17,20.43,9.17,10.83,0,19.59-7.5,27.92-13.76a182.08,182.08,0,0,0,33.35-31.26c6.67-8.33,7.09-15.42,17.92-12.92,9.59,2.08,8.34-2.92,14.59-9.59,5.84-6.25,15.42-10,24.17-9.59,10,.41,11.67,10.42,19.59,12.09,2.5-3.34.83-10.84,6.26-9.17,2.5.83,7.08,8.76,9.17,10.42,9.17,7.08,22.51,19.17,32.93,22.92,1.25-2.92-.42-10.42,2.5-10.42,3.33-.42,4.59,5.42,6.26,6.67,2.91,3.34,2.91,4.59,5-.42a39.59,39.59,0,0,0,0-10c-3.33-5-40.43-20-26.25-28.76-2.92-5.42-10.43-6.67-15.43-9.59-5-3.33-8.76-12.09-15-12.92-7.92-.83-17.51,7.09-22.93,11.67-8.75,7.92-5.42-2.5-15-3.75-6.25-.83-11.67,3.34-17.92,1.67-6.67-1.67-11.26-7.5-17.51-9.59-7.92-2.5-10.84,0-12.5,7.92-1.67,7.08-1.67,10-6.25,15.42-5.84,7.09-2.92,11.67-3.76,20-6.67,0-12.5-10.42-16.67,0-1.25,3.75,2.5,6.25-2.5,7.92a4.92,4.92,0,0,1-5-1.25"/>
    <path class="cls-26" d="M250.11,324.31c4.59,4.17,3.34,10.42,10.84,7.5,8.33-3.34,10-12.92,10-20.84,0-6.67-1.67-12.92,3.33-18.34,7.92-7.92,25-6.67,35-5.42,16.67,1.67,33.76,9.59,49.61,15,18.34,6.25,36.26,11.26,55,15.84,6.25,1.67,12.5,2.92,18.76,4.58,2.91.83,16.25,6.25,18.75,5,7.51-3.75-8.33-11.25-10.84-12.5a75.3,75.3,0,0,1-16.67-15.84c-5-5.42-6.67-10-12.92-14.17-7.92-4.58-5.83-6.25-5.83-15.84,0-2.08-2.08-7.5-1.67-9.17,1.25-4.59,5-4.17,8.33-6.25,7.93-5.42,8.76-19.17,14.59-27.09,4.17-6.25,7.92-15.42-2.92-10.84-5.83,2.5-8.34,8.34-15,8.76-13.76,1.67-19.17-20-20.42-30.84-1.25-9.59,1.25-16.67,7.5-23.76,7.08-7.92,5.84-13.34,6.67-22.93.83-7.08,5-16.67,2.92-23.34-2.92-9.59-12.09-3.34-18.34-7.09-7.92-4.17-4.16-14.17-9.17-19.17-6.25-6.25-16.68.42-23.34,0-7.92-.42-14.59.83-12.92,12.09,1.67,8.34,11.26,12.5,12.09,21.67,0,2.08.42,6.67-2.08,8.34-4.59,2.08-5.42-3.34-8.34-5.42-8.75-6.67-7.09,4.59-14.17,6.67-4.59,1.67-11.67-5-15.84-7.09-6.67-3.75-7.09-6.67-3.75-14.17,1.67-4.17,5-6.25,2.08-10.42-4.17-5.83-12.92-3.33-16.25.83-7.08,9.59,3.33,22.51-5.42,29.6-4.58,3.75-7.08,3.33-11.25,8.34a84.91,84.91,0,0,1-9.59,11.25c-4.17,4.59-9.59,16.26-3.34,22.09-19.17,7.92-18.34-14.17-29.59-22.51-5.83-3.75-10-1.67-12.92,4.58-3.33,8.34-4.58,12.92-11.26,19.18-11.26,12.09,2.5,29.59,10.84,40,4.59,5.42,13.34,12.09,12.09,20-1.25,7.09-9.59,14.59-16.67,11.25-5.84-2.5-6.67-10.84-13.75-11.25s-10.84,8.75-10,15c.83,7.09,7.5,7.09,9.17,13.76,1.25,6.67-3.75,14.17,0,20.84,7.09,12.51,22.09-4.58,30.42,6.25,1.26,2.09.84,4.58,2.09,6.67,1.67,3.33,5,6.25,7.51,9.17a72.16,72.16,0,0,1,7.92,12.92"/>
    <path class="cls-26" d="M170.08,143.61c3.13-3.75,8.13-25.63-2.5-24.39,2.5-7.5,9.38-5.63,15.63-7.5,7.5-1.87,8.13-2.5,13.13-8.13,2.5-2.5,3.12-9.38,8.75-7.5,6.88,2.5.63,10.63.63,15,1.25,11.25,14.38,16.25,13.13,30-1.25,10-8.12,23.76-20,20.63-.63,8.13,4.38,15,5.63,22.51.62,8.13-3.13,15.63,0,23.13,3.12,8.13,11.88,13.76,12.5,23.14.63,16.25-6.88,3.13-14.38,3.75-6.26.62-14.38,14.38-16.26,20-2.5,10,1.25,13.76,6.25,21.26,4.38,6.25,3.13,16.26,8.13,21.26,5,5.63,18.75,4.38,25.63,8.75,10.63,6.88,20,20.64,23.76,32.51,3.75,8.75,3.13,9.38-3.75,11.88-1.87.63-6.25-.62-8.75.63-3.12,1.25-6.88,5-9.37,6.88-23.14,15-46.27-8.75-70.65-8.13v1.25c-8.76,11.25-10,35-20.64,40-1.25.63-3.75-1.87-5.62-1.25s-2.5,3.12-3.75,3.75c-1.88.63-1.88,3.75-3.75,4.38-2.5.62-5-1.25-6.88-.63-7.5,1.25-12.51,5-16.88,0-.62-1.25-.62-6.88-2.5-9.38-1.88-3.76-6.88-6.25-9.38-9.38C81.3,371.83,75,364.32,69.42,357.45c-8.13-10-11.25-14.38.63-20,11.26-5.62,17.51-8.75,16.26-23.13-.63-8.13-1.88-18.76-3.76-26.26-.62-3.75-5-8.75-4.37-11.88,1.25-4.38,8.75-5.63,11.88-8.75,2.5-3.13,1.88-6.88,5-10s7.5-4.38,10.63-6.25c8.13-3.75,15-9.38,21.88-15,3.75-3.12,8.13-6.25,11.25-10,1.88-3.75,2.5-9.38,5-12.51,1.88-3.13,6.88-1.87,8.75-5,1.25-3.13.63-13.13,0-16.88-1.87-14.38-11.88-28.76,2.5-40.64.63-.62,1.25-4.37,1.88-5,.63,1.25,3.13,3.75,3.75,5.63,0-6.25,3.75-11.25,10-8.13"/>
    <path class="cls-26" d="M436.44,127.56c-8.75,2.92-15.42-1.67-23.76-2.92-1.25,5.84,1.25,12.09,1.25,17.92,0,7.09-.84,15-3.76,21.26-5.84,15-20,19.59-9.59,37.09,4.59,7.5,10.84,10.84,19.59,8.75,4.59-1.25,10-6.25,14.59-5,12.5,2.92,0,24.6,15.42,24.6,8.33,0,12.5-12.09,14.59-18.34,2.08-7.5,8.33-10.84,10.84-17.92,2.08-5.84-2.5-18.34,7.92-15.42,7.09,2.08,7.92,11.67,15.84,12.92,7.92,1.66,12.92-6.67,11.67-14.17-1.25-6.67-5-7.09,3.75-7.92,6.67-.83,13.76-.83,15.43-8.75,2.08-9.58-12.09-16.26-20.43-15-5.42.84-10.42,5.42-15.42,7.5A85.42,85.42,0,0,1,474,156.74c-18.34,1.67-2.5-10.84.41-17.51,2.09-5.84,3.34-13.75-2.5-15.84C465.62,121.72,461,128,456,130.48c-5.83,2.92-6.25.83-11.68-1.25-5.83-2.09-5.83-.42-11.67,1.25"/>
    <path class="cls-20" d="M214.81,92.6s19.33,5.47,23.2.32,17.07-15.14,26.1-8.7,4.51,30,7.41,31.57,5.16,4.83,6.45,1-7.73-15.46-3.87-17.4,8.7-6.76,10-.32,1.61,23.52-1,25.45S264.75,153.16,257,151.87s-42.85-34.15-44.46-39.95S211.27,94.21,214.81,92.6Z"/>
  </g>
  <g class="areagroup francoprovenzale">
    <g>
      <path class="cls-98" d="M71.7,224.68c-1.66,4.59-8.76-6.25-8.34-10.42.42-3.75,3.76-6.67,3.76-10.84,0-5-2.92-7.5-5.83-10.84-2.5-3.75-8.34-11.67-5.84-16.67S61.29,174.25,65,173c4.16-1.25,2.5,0,4.16-5.42,3.34-11.67,5.42-7.92,13.34-1.67,2.5,2.08,6.25,4.17,9.59,3.75,3.33-.83,4.17-5,6.25-5.42,5.84-2.08,10,5.42,16.25,4.17,7.92-1.67,5-10,12.51-9.17,5,.83,12.92,6.25,15,10.42,1.67,4.59.84,11.67,2.08,16.26.84,3.75,1.67,7.09,1.25,11.25-.83,7.92-4.17,8.34-8.34,13.76-4.17,5-1.67,8.33-8.33,11.25-2.5.83-5,.83-7.51,2.08-4.17,2.08-2.09,4.58-7.5,2.92-2.5-.83-3.33-4.17-5.84-5s-6.67,0-9.59.42c-10.84.83-19.59,11.25-30.43,2.92"/>
      <path class="cls-98" d="M48.36,260.53s2.5-5,3.75-6.25c3.76-5.83,10-7.91,14.18-13.34,2.08-2.92,2.08-7.5,5-9.17,2.5-1.25,7.92,1.25,10.84.83,6.67-.83,12.09-4.58,18.76-4.17s13.34,7.09,20,3.34c1.25,6.67-13.76,10-18.76,13.34C93,250.94,87.55,259.7,80.46,267.62c-8.33,9.59-12.5,4.59-21.26-1.25-2.92-2.08-14.59-5.42-10.84-8.34"/>
    </g>
    <path class="cls-98" d="M82.87,1.13s2.9,30,8.7,35.12,11.28,15.46,12.56,21.58,7.09,27.71,3.54,38.66,10,11.6,16.43,15.14,13.53,2.25,15.46,8.38,6.12,26.42-.32,30.28-40.92,1.29-53.8-2.26c0,0-5.16-6.77-7.09-9.66s16.75-7.09,17.08-17.08-14.18-14.82-16.75-15.14-43.49-.65-48.65,2.25S14.89,122.26,13.6,127.74s-4.51,12.56-9.67,8.7-4.51-25.13-2.25-29.32S12,86.5,12.64,83.28,28.1,67.82,34.87,58.79s8.05-18.68,14.5-25.45,15.79-2.26,19-11.6S70.95,8.54,73.21,3.06,82.87,1.13,82.87,1.13Z"/>
  </g>
  <g><path class="cls-29" d="M45.3,188.13a19.45,19.45,0,0,1,7.33-15.33c8-6.67,10-.67,13.33-5.33s-.67-10.67,6-12,10.67,8,18,9.33,6.67-8,10.67-5.33,7.33,6.67,12.67,4,6.67-5.33,10.67-6.67,11.33,5.33,17.33,2,0-10,9.33-15.33,18.67-4.67,18.67-13.33S162,119.46,166,114.79s20.67-4,25.33-12S206.88,89.61,210,91.46c5.36,3.22-.91,14.75,4,28.67,4,11.33,24.25,35,36,39.33,5.93,2.19,33.64-16.36,37.33-25.33,4.67-11.33-5.33-21.33,5.33-32,3.16-3.16,22,6,35.33,4.67s16-10,21.33-11.33S370,92.13,376,88.13s-2.67-5.33-2.67-14S388,57.46,390,50.79s13.33-16,22-11.33,20.67,18.67,30,11.33,24.67-15.33,42-14.67,32,12,43.33,4.67,24-18,34.67-11.33,21.33,12.67,29.33,12.67"/></g>
</svg>
