<svg id="Layer_1" data-name="Layer 1" xmlns="http://www.w3.org/2000/svg" xmlns:xlink="http://www.w3.org/1999/xlink"
     viewBox="0 0 1391.07 1364.98">
    <defs>
        <style>.cls-1, .cls-3, .cls-4 {
            fill: none;
        }

        .cls-2 {
            fill: #1d1d1b;
        }

        .cls-3, .cls-4 {
            stroke: #1d1d1b;
        }

        .cls-3 {
            stroke-width: 6px;
        }

        .cls-4 {
            stroke-width: 0.3px;
        }

        .cls-19, .cls-5 {
            fill: #8c216f;
        }

        .cls-10, .cls-11, .cls-5, .cls-6, .cls-7, .cls-8, .cls-9 {
            fill-rule: evenodd;
        }

        .cls-6 {
            fill: url(#_10_dpi_30_);
        }

        .cls-7 {
            fill: #d0e9e5;
        }

        .cls-18, .cls-8 {
            fill: #cf328a;
        }

        .cls-9 {
            fill: #bbd473;
        }

        .cls-10, .cls-14 {
            fill: #4b8baa;
        }

        .cls-11 {
            fill: url(#Circles);
        }

        .cls-12 {
            fill: #008d70;
        }

        .cls-13 {
            fill: #d0d700;
        }

        .cls-15 {
            fill: url(#_6_lpi_50_);
        }

        .cls-16 {
            fill: #3e2754;
        }

        .cls-17 {
            fill: #a5d4c0;
        }

        .cls-20 {
            fill: url(#_10_dpi_30_3);
        }</style>
        <pattern id="_10_dpi_30_" data-name="10 dpi 30%" width="28.8" height="28.8"
                 patternTransform="translate(-393.78 -302) scale(1.85)" patternUnits="userSpaceOnUse"
                 viewBox="0 0 28.8 28.8">
            <rect class="cls-1" width="28.8" height="28.8"/>
            <circle class="cls-2" cx="28.8" cy="28.8" r="2.16"/>
            <circle class="cls-2" cx="14.4" cy="28.8" r="2.16"/>
            <circle class="cls-2" cx="28.8" cy="14.4" r="2.16"/>
            <circle class="cls-2" cx="14.4" cy="14.4" r="2.16"/>
            <circle class="cls-2" cx="7.2" cy="21.6" r="2.16"/>
            <circle class="cls-2" cx="21.6" cy="21.6" r="2.16"/>
            <circle class="cls-2" cx="7.2" cy="7.2" r="2.16"/>
            <circle class="cls-2" cx="21.6" cy="7.2" r="2.16"/>
            <circle class="cls-2" cy="28.8" r="2.16"/>
            <circle class="cls-2" cy="14.4" r="2.16"/>
            <circle class="cls-2" cx="28.8" r="2.16"/>
            <circle class="cls-2" cx="14.4" r="2.16"/>
            <circle class="cls-2" r="2.16"/>
        </pattern>
        <pattern id="Circles" data-name="Circles" width="46.77" height="54"
                 patternTransform="translate(-690.9 -322.94) scale(1.85)" patternUnits="userSpaceOnUse"
                 viewBox="0 0 46.77 54">
            <rect class="cls-1" width="46.77" height="54"/>
            <circle class="cls-4" cx="39.77" cy="20.83" r="1.5" transform="translate(-5.09 22.68) rotate(-30)"/>
            <circle class="cls-4" cx="38.52" cy="30.67" r="1.5" transform="translate(-7.31 48.68) rotate(-59.98)"/>
            <circle class="cls-4" cx="30.27" cy="17.58" r="1.5" transform="translate(-0.09 35) rotate(-60)"/>
            <circle class="cls-4" cx="22.72" cy="22.88" r="1.5" transform="translate(-8.39 14.41) rotate(-29.99)"/>
            <circle class="cls-4" cx="25.52" cy="30.58" r="1.5" transform="translate(-13.72 37.38) rotate(-60)"/>
            <circle class="cls-4" cx="32.43" cy="36" r="1.5"/>
            <circle class="cls-4" cx="7.82" cy="22.92" r="1.5" transform="translate(-15.94 18.23) rotate(-60)"/>
            <circle class="cls-4" cx="8.45" cy="32" r="1.5" transform="translate(-14.88 8.53) rotate(-30.04)"/>
            <circle class="cls-4" cx="13.72" cy="17.17" r="1.5" transform="translate(-6.75 9.15) rotate(-29.99)"/>
            <circle class="cls-4" cx="18" cy="35" r="1.5"/>
            <circle class="cls-4" cx="39.72" cy="49.25" r="1.5" transform="translate(-19.31 26.46) rotate(-30)"/>
            <circle class="cls-4" cx="24.02" cy="49.33" r="1.5" transform="translate(-21.45 18.62) rotate(-30)"/>
            <circle class="cls-4" cx="31.18" cy="45" r="1.5"/>
            <circle class="cls-4" cx="7.06" cy="49.62" r="1.5"
                    transform="matrix(0.5, -0.87, 0.87, 0.5, -39.44, 30.93)"/>
            <circle class="cls-4" cx="15.84" cy="43" r="1.5"/>
            <circle class="cls-4" cx="38.97" cy="4.5" r="1.5" transform="translate(15.59 36) rotate(-60)"/>
            <circle class="cls-4" cx="31.18" cy="9" r="1.5" transform="translate(-0.32 16.8) rotate(-30)"/>
            <circle class="cls-4" cx="24.06" cy="3.88" r="1.5" transform="translate(8.67 22.78) rotate(-60)"/>
            <circle class="cls-4" cx="7.79" cy="4.5" r="1.5" transform="translate(-1.21 4.5) rotate(-29.99)"/>
            <circle class="cls-4" cx="16.09" cy="8" r="1.5" transform="translate(1.12 17.93) rotate(-60)"/>
            <circle class="cls-4" cx="47.52" cy="17.5" r="1.5"/>
            <circle class="cls-4" cx="47.5" cy="45" r="1.5"/>
            <circle class="cls-4" cx="24.52" cy="40.08" r="1.5" transform="translate(-22.45 41.27) rotate(-60)"/>
            <circle class="cls-4" cx="16.02" cy="27.08" r="1.5" transform="translate(-15.44 27.41) rotate(-60)"/>
            <circle class="cls-4" cx="32.25" cy="25.2" r="1.5" transform="translate(-5.7 40.53) rotate(-60)"/>
            <circle class="cls-4" cx="23.27" cy="13.58" r="1.5" transform="translate(-0.12 26.93) rotate(-60)"/>
            <circle class="cls-4" cx="6.77" cy="13.08" r="1.5" transform="translate(-7.94 12.4) rotate(-60)"/>
            <circle class="cls-4" cx="38.83" cy="13" r="1.5" transform="translate(8.16 40.13) rotate(-60.01)"/>
            <circle class="cls-4" cx="7.02" cy="40.08" r="1.5" transform="translate(-31.2 26.11) rotate(-60)"/>
            <circle class="cls-4" cx="15.52" cy="52.83" r="1.5" transform="translate(-37.99 39.85) rotate(-60)"/>
            <circle class="cls-4" cx="33.27" cy="53.33" r="1.5" transform="translate(-29.55 55.47) rotate(-60)"/>
            <circle class="cls-4" cx="39.5" cy="41.25" r="1.5"/>
            <circle class="cls-4" cx="46.77" cy="54.75" r="1.5"/>
            <circle class="cls-4" cx="46.5" cy="26.95" r="1.5" transform="translate(-0.08 53.76) rotate(-60.01)"/>
            <circle class="cls-4" cx="47.48" cy="8" r="1.5"/>
            <circle class="cls-4" cx="45.48" cy="36.25" r="1.5"/>
            <circle class="cls-4" cx="0.75" cy="17.5" r="1.5"/>
            <circle class="cls-4" cx="0.73" cy="45" r="1.5"/>
            <circle class="cls-4" cy="54.75" r="1.5"/>
            <circle class="cls-4" cx="-0.27" cy="26.95" r="1.5" transform="translate(-23.48 13.25) rotate(-60.01)"/>
            <circle class="cls-4" cx="0.72" cy="8" r="1.5"/>
            <circle class="cls-4" cx="-1.28" cy="36.25" r="1.5"/>
            <circle class="cls-4" cx="15.52" cy="-1.18" r="1.5" transform="translate(8.77 12.85) rotate(-60)"/>
            <circle class="cls-4" cx="33.27" cy="-0.68" r="1.5" transform="translate(17.22 28.47) rotate(-60)"/>
            <circle class="cls-4" cx="46.77" cy="0.75" r="1.5"/>
            <circle class="cls-4" cy="0.75" r="1.5"/>
        </pattern>
        <pattern id="_6_lpi_50_" data-name="6 lpi 50%" width="72" height="72"
                 patternTransform="translate(-1212.97 -474.9) scale(1.85)" patternUnits="userSpaceOnUse"
                 viewBox="0 0 72 72">
            <rect class="cls-1" width="72" height="72"/>
            <line class="cls-3" x1="71.75" y1="66" x2="144.25" y2="66"/>
            <line class="cls-3" x1="71.75" y1="42" x2="144.25" y2="42"/>
            <line class="cls-3" x1="71.75" y1="18" x2="144.25" y2="18"/>
            <line class="cls-3" x1="71.75" y1="54" x2="144.25" y2="54"/>
            <line class="cls-3" x1="71.75" y1="30" x2="144.25" y2="30"/>
            <line class="cls-3" x1="71.75" y1="6" x2="144.25" y2="6"/>
            <line class="cls-3" x1="-0.25" y1="66" x2="72.25" y2="66"/>
            <line class="cls-3" x1="-0.25" y1="42" x2="72.25" y2="42"/>
            <line class="cls-3" x1="-0.25" y1="18" x2="72.25" y2="18"/>
            <line class="cls-3" x1="-0.25" y1="54" x2="72.25" y2="54"/>
            <line class="cls-3" x1="-0.25" y1="30" x2="72.25" y2="30"/>
            <line class="cls-3" x1="-0.25" y1="6" x2="72.25" y2="6"/>
            <line class="cls-3" x1="-72.25" y1="66" x2="0.25" y2="66"/>
            <line class="cls-3" x1="-72.25" y1="42" x2="0.25" y2="42"/>
            <line class="cls-3" x1="-72.25" y1="18" x2="0.25" y2="18"/>
            <line class="cls-3" x1="-72.25" y1="54" x2="0.25" y2="54"/>
            <line class="cls-3" x1="-72.25" y1="30" x2="0.25" y2="30"/>
            <line class="cls-3" x1="-72.25" y1="6" x2="0.25" y2="6"/>
        </pattern>
        <pattern id="_10_dpi_30_3" data-name="10 dpi 30%" width="28.8" height="28.8"
                 patternTransform="translate(-371.83 -246) scale(1.85)" patternUnits="userSpaceOnUse"
                 viewBox="0 0 28.8 28.8">
            <rect class="cls-1" width="28.8" height="28.8"/>
            <circle class="cls-2" cx="28.8" cy="28.8" r="2.16"/>
            <circle class="cls-2" cx="14.4" cy="28.8" r="2.16"/>
            <circle class="cls-2" cx="28.8" cy="14.4" r="2.16"/>
            <circle class="cls-2" cx="14.4" cy="14.4" r="2.16"/>
            <circle class="cls-2" cx="7.2" cy="21.6" r="2.16"/>
            <circle class="cls-2" cx="21.6" cy="21.6" r="2.16"/>
            <circle class="cls-2" cx="7.2" cy="7.2" r="2.16"/>
            <circle class="cls-2" cx="21.6" cy="7.2" r="2.16"/>
            <circle class="cls-2" cy="28.8" r="2.16"/>
            <circle class="cls-2" cy="14.4" r="2.16"/>
            <circle class="cls-2" cx="28.8" r="2.16"/>
            <circle class="cls-2" cx="14.4" r="2.16"/>
            <circle class="cls-2" r="2.16"/>
        </pattern>
    </defs>
    <title>portogallo</title>
    <g>
    <path class="cls-5"
          d="M1007.92,97.91a18.61,18.61,0,0,1-4,16c-5.33,6.67-8.67,13.33.67,13.33s18.67-6,18.67,2.67-12,14-2.67,17.33,20-.67,28,2,3.33,7.33-1.33,14.67-20,7.33-21.33,16,2.67,20,2,22-4-6.67-9.33,0-4,8.67,0,11.33,4.67,5.33,9.33,10,8-4,8,9.33a131.8,131.8,0,0,0,2,23.33s-4.67,8,5.33,8.67,42.67,2,52.67-5.33,10.67-12.67,24.67-6.67-3.33,16.67,29.33,17.33,28.67-10.67,34-4,2,25.33,14,28,44,11.33,55.33-8,2.67-42.67,18-42,51.33-7.33,54.67-21.33,14.67-42,24.67-50,29.33-10,17.33-19.33-34-34.67-47.33-25.33-26,6-23.33-6.67,16-24.67,12.67-33.33-16-1.33-14.67-10,6-6.67,4-12.67-30.67-4-34.67-4,.67-1.33-6-7.33-10-8.67-12.67-1.33,6,16-4.67,15.33-2,2.67-14.67-6.67-12.67,4-17.33,4.67,2.67-6.67-10.67-10.67-14.67,7.33-20.67,17.33-7.33,15.33-24,16-52.67-3.33-55.33-4.67-16-26.67-26.67-21.33-10.67,18.67-20,19.33-2-18-12-16.67-13.33,22.67-22.67,22.67S1007.92,97.91,1007.92,97.91Z"/>
    </g>
    <g>
    <path class="cls-6"
          d="M1007.92,97.91a18.61,18.61,0,0,1-4,16c-5.33,6.67-8.67,13.33.67,13.33s18.67-6,18.67,2.67-12,14-2.67,17.33,20-.67,28,2,3.33,7.33-1.33,14.67-20,7.33-21.33,16,2.67,20,2,22-4-6.67-9.33,0-4,8.67,0,11.33,4.67,5.33,9.33,10,8-4,8,9.33a131.8,131.8,0,0,0,2,23.33s-4.67,8,5.33,8.67,42.67,2,52.67-5.33,10.67-12.67,24.67-6.67-3.33,16.67,29.33,17.33,28.67-10.67,34-4,2,25.33,14,28,44,11.33,55.33-8,2.67-42.67,18-42,51.33-7.33,54.67-21.33,14.67-42,24.67-50,29.33-10,17.33-19.33-34-34.67-47.33-25.33-26,6-23.33-6.67,16-24.67,12.67-33.33-16-1.33-14.67-10,6-6.67,4-12.67-30.67-4-34.67-4,.67-1.33-6-7.33-10-8.67-12.67-1.33,6,16-4.67,15.33-2,2.67-14.67-6.67-12.67,4-17.33,4.67,2.67-6.67-10.67-10.67-14.67,7.33-20.67,17.33-7.33,15.33-24,16-52.67-3.33-55.33-4.67-16-26.67-26.67-21.33-10.67,18.67-20,19.33-2-18-12-16.67-13.33,22.67-22.67,22.67S1007.92,97.91,1007.92,97.91Z"/>
    </g>
    <g>
    <path class="cls-7"
          d="M852.59,70.57a43.82,43.82,0,0,0,19.33-12c8.67-9.33,16.67-8.67,25.33-19.33s18-25.33,28-19.33,23.33,13.33,33.33,4.67,16-21.33,23.33-18-6,23.33,2,25.33,16-8.67,16.67,2.67-16,25.33-15.33,34.67,2,26,7.33,26.67,16.67-2.67,8.67,6.67-16,26.67-10.67,28.67,13.33-2.67,18.67-1.33-4,10,2,20,30-2.67,32,4-5.33,2.67-16.67,11.33-2.67,10-4.67,19.33-16.67,2.67-13.33,16.67-2.67,23.33-12.67,16,0-23.33-17.33-19.33-14,10-21.33,13.33-10-17.33-23.33-10-24,18-31.33,13.33,2.67-24-4-25.33-18.67-8-26.67-6.67-9.33-16-10-21.33-11.33-.67-8.67-10,16.67-24.67,10-28-21.33-6-20-16S852.59,70.57,852.59,70.57Z"/>
    </g>
    <g>
    <path class="cls-8"
          d="M863.25,193.91c.67-2,18-11.33,24.67-.67s5.33,32.67,14.67,31.33,30.67-18,36-15.33,20,19.33,29.33,12.67.67-14,8-13.33,25.33,22,32,16,7.33-10.67,14-3.33,10,7.33,10,27.33-2.67,15.33-13.33,22.67-2.67,18-18,11.33-24.67-8-30.67-1.33-10.67-2-16.67,1.33-3.33,10.67-10.67,8.67-4,0-4.67,6.67.67,2.67-11.33-2.67-6.67-11.33-20.67-4.67-23.33,8.67-25.33,5.33,0-44.67-4.67-50.67-2.67-2.67-8-7.33S863.25,193.91,863.25,193.91Z"/>
    </g>
    <g>
    <path class="cls-9"
          d="M996.59,331.91c-2,2.67-10.67-10.67-10-19.33s-14.67-8-16-17.33,1.33-15.33,21.33-8.67,24.67.67,35.33-9.33,50.67,0,60.67-6.67,20-16.67,28-12.67,6.67,13.33,17.33,15.33,38-.67,43.33-4,4-.67,8,10.67,17.33,28.67,28.67,29.33,22,6,31.33,20,14.67,15.33,8,26-2.67,18.67,0,25.33,4.67,15.33,2,33.33-10.67,14.67-12,31.33,4,26,7.33,32,4,6-10,16-18.67,8.67-28,2.67-20,2.67-20.67-5.33-5.33-21.33-15.33-10.67-27.33,15.33-30,11.33,12.67-26.67,7.33-32.67-7.33-14.67-20-4-23.33,16.67-41.33,27.33-38.67,26.67-42.67,20.67,9.33-13.33,12-24.67.67,4.67-8.67-8.67-11.33-15.33-6-28.67c0,0,20-6.67,10-11.33s-34,8.67-40.67,19.33-50.67,26-58.67,24.67-20.67-4.67-21.33-16.67,10.67-27.33,16.67-33.33,4.67-8-.67-17.33-1.33-55.33,0-60.67,12.67-20.67,19.33-16.67,28,16.67,29.33,10S996.59,331.91,996.59,331.91Z"/>
    </g>
    <g>
        <path class="cls-10"
          d="M881.25,305.24s28-17.33,32.67-13.33,10.67,14.67,17.33,15.33,12-1.33,11.33-6.67,6-12,12-10.67,17.33,20,22.67,24,20,20.67,6,16c0,0-26-12-34,9.33s-2,36.67-2,42c0,0,1.33,32,4.67,36.67s-6,1.33-10,9.33-20.67,36-10,44,61.33,11.33,69.33-2,24.67-21.33,28-26,8-6,10.67,9.33,17.33,22.67,12.67,30.67-18,16-11.33,20.67,13.33,4.67,15.33,20-14.67,28.67-38,32c0,0-29.33-2.67-30.67,6s-7.33.67-8.67-6,2.67-18.67-2.67-27.33-21.33-4-26,6,9.33,26,2,27.33-11.33,6-19.33,8.67-9.33,2-11.33-9.33-4-19.33-11.33-13.33-6,20-12,20-10-2.67-10.67-11.33-4.67-18.67-8.67-9.33,6,10-10.67,5.33-25.33,2.67-32.67,4-15.33.67-16.67-10,6-54.67,6-54.67,6.67,6,11.33-4,3.33-33.33,5.33-44.67,17.33-58.67,24.67-66.67,10-34.67,7.33-45.33S881.25,305.24,881.25,305.24Z"/>
    </g>
    <g><path class="cls-7"
          d="M946.92,610.91s31-19,34-30,15-17,23-17,42,3,51-11,5-41,4-45,23-14,38-22,50-35,50-25-7,38-2,39,17,3,29-5,12,2,21,8,20-4,23,0-17,11-15,21,13,2,20,18,1,67-12,80-4,23-8,31-90,7-90,7-20-17-30-5-21,15-25,13-17,25-21,19,5-18-4-28-15-5-20-8-3-6-7-17-11,3-17,17-21,7-27,4-3-16-6-25-13-12-13-12Z"/>
    </g>
    <g><path class="cls-11"
          d="M946.92,610.91s31-19,34-30,15-17,23-17,42,3,51-11,5-41,4-45,23-14,38-22,50-35,50-25-7,38-2,39,17,3,29-5,12,2,21,8,20-4,23,0-17,11-15,21,13,2,20,18,1,67-12,80-4,23-8,31-90,7-90,7-20-17-30-5-21,15-25,13-17,25-21,19,5-18-4-28-15-5-20-8-3-6-7-17-11,3-17,17-21,7-27,4-3-16-6-25-13-12-13-12Z"/>
    </g>
    <g>
        <path class="cls-12"
          d="M913.92,619.91c-5,1-5-21-9-22s-15,12-28,16-17,15-8,22,9,9,0,16-8,20-8,26,4,11-7,12-38-4-44,18,1,29,12,41,23,20,11,22-9,2,0,18-2,14-7,26a224.79,224.79,0,0,1-16,31c-6,10-8,23,1,29s17,20,24,9,13-34,22-31,10,17,30,14,27-27,48-11,42,29,39,16-24-33-30-36,1-6,3-14-11-4-10-25,8-25,19-27,57-51,55-56-15-11-10-22,16-6,29-4,0-26-7-26-18-7-20-16-8,5-14,12-10,12-28,4-9-20-12-28S913.92,619.91,913.92,619.91Z"/>
    </g>
        <g>
        <path class="cls-13"
              d="M952.92,775.91c-5,3-15,16-7,26s-1,22,12,38,47,41,31,44-35,2-47-6-27-17-36-10-21-3-28,3,10,13,11,22-19,4-22,23,2,29,29,31,38,5,36,22,22,44,43,39,30,2,43,11,64,28,77,10,26-40,39-32,16,18,25,35,21,15,22,6-24-44-37-56-7-53,0-65,8-23,22-31,59-68,47-77-32-17-39-15-46-34-39-54,20-28,5-43-38-46-48-37-28,16-43,25-17,3-29,3-24,3-17,12,24,13,14,27S952.92,775.91,952.92,775.91Z"/>
    </g>
    <g>
    <path class="cls-14"
          d="M745.92,908.91s-8-9,8-10,25,2,34-9,10-19,22-8,32,14,37,3,7-28,14-22,28,21,19,29-34,22-29,34,23,21,44,28,30-3,33,14,32,57,42,53,18-7,36,2,69,33,81,21,25-51,42-39,6,41,24,45,41-4,51-10,16,14-2,31-50-9-56,9,7,23-2,40-25,27-39,46-13,31-13,35-91,18-97,36,6,13-2,20-32,14-44,1-17-21-20-29-12-12-20,0-14,14-22,10,6-18-10-9-18,5-27,5-5-5-12-11-12-12-16-7-1-36,9-54c0,0-4-22-8-36,0,0,10-22,3-29s-13-1-18-10,19-28,20-44,27-36,4-49-22-48-47-35-33,11-37,8,8-24,10-35S745.92,908.91,745.92,908.91Z"/>
    </g>
    <g>
    <path class="cls-15"
          d="M745.92,908.91s-8-9,8-10,25,2,34-9,10-19,22-8,32,14,37,3,7-28,14-22,28,21,19,29-34,22-29,34,23,21,44,28,30-3,33,14,32,57,42,53,18-7,36,2,69,33,81,21,25-51,42-39,6,41,24,45,41-4,51-10,16,14-2,31-50-9-56,9,7,23-2,40-25,27-39,46-13,31-13,35-91,18-97,36,6,13-2,20-32,14-44,1-17-21-20-29-12-12-20,0-14,14-22,10,6-18-10-9-18,5-27,5-5-5-12-11-12-12-16-7-1-36,9-54c0,0-4-22-8-36,0,0,10-22,3-29s-13-1-18-10,19-28,20-44,27-36,4-49-22-48-47-35-33,11-37,8,8-24,10-35S745.92,908.91,745.92,908.91Z"/>
    </g>
    <g>
    <path class="cls-16"
          d="M817.92,761.91s-38-10-33-25,14-38,29-44,34,3,38-21,14-21,9-38c0,0-16-22,2-27s42-26,48-15-3,21,8,22,58-36,60-47-3-34-12-30-5,17-10,26-27,16-34,12-4-18-7-21,1,10-12,18-22,3-21-8,1,2-14-1a136,136,0,0,0-45-1c-15,2-26,22-29,43s-19,67-29,78-10,28-27,27-30-5-20,7,23,26,15,38-24,36-20,50-4,28-12,46-10,40,0,44,27,11,39,4,39,0,39-24,9-33,15-26,20-6,20-26,12-2,10-22-9-27-14-35S817.92,761.91,817.92,761.91Z"/>
    </g>
    <g>
        <path class="cls-17"
          d="M818.92,1228.91c1,3,1-16,11-9s8,21,20,23,18-10,23-9,2,15,16,14,16-36,30-20,13,31,28,39,58,14,61-7-12-19-4-26,79-21,85-25,21,6,19,38,14,49-8,52-59,43-79,45-7-12-45-19-45-13-60-13-36-10-55-1-54,16-63,18-45-2-20-18,41-33,42-45S818.92,1228.91,818.92,1228.91Z"/>
    </g>
    <g>
    <path class="cls-13"
          d="M81.51,197.14s-1.33-4.33,3-3.67,13.33.33,15,5,2.33,19.33.67,22.33-8.67,7.67-12.33,8.67-8.67,0-10.67-3.33-2.67-21.67-2.67-21.67Z"/>
    <path class="cls-13"
          d="M100.18,149.48c2,4.33,3,7.67,5,8s5-3.33,6.67-6-1.33-9.67-4-9.33S100.18,149.48,100.18,149.48Z"/>
    <path class="cls-18"
          d="M248,254.59c-.25,0-5.5-3.25-1.5-4s20.25,6.25,23.75,8.75a23.36,23.36,0,0,0,14,4.5c6,0,23.25,13,27.25,14.25s18.5,6.75,22.5,8.5,15,1.5,14.25,7.5-11.5,6.5-14.5,7-6.25-5-11.25-7.5-13-2-14.75-2-3.25-6-7.25-6.75-12-1.25-15-2.5-4.5-.5-9.75-6.5-9-8.75-13.25-8.75S248,254.59,248,254.59Z"/>
    <path class="cls-18"
          d="M210.23,294.34c-.25,1.75,17-2,21,.25s14.25,6,20,11.25,15.25,9,21.5,9.25,9.75,5,13.5,6.5,5.5-1,10,.75,3.75,3.75,7,6.5-5,1.75-9.25,4.75-15.75,2-20.75,2.25-15.5,4-19.5-.5-8.25-3.75-15.75-3.5-12.25-1.75-15-4-17.5-4.25-20.5-11.75a19.47,19.47,0,0,1,1.25-17.25C205.73,295.34,210.23,294.34,210.23,294.34Z"/>
    <path class="cls-18"
          d="M291.48,173.59s1.25-5.75,4.5-6,8.75,2,12,4,9,5.5,9.5,10.75.5,12.25-4.75,11.75-12.25-3.25-14.5-5.75S291.48,173.59,291.48,173.59Z"/>
    <path class="cls-18"
          d="M423.73,241.09s7.5-6.25,13.25-4.75,26.75,7.25,29.5,6.25,6.25-5.25,10,4.25a32.53,32.53,0,0,1,.25,22.5c-1.5,4.25-7.5,10.25-11.25,8.5s-12.5-3-16.75-2.5-8.75-2.25-12-3.25-11-4-15.75-4.25-5.25-3-5.5-9.5S423.73,241.09,423.73,241.09Z"/>
    <path class="cls-18"
          d="M150.81,285.75s10.67-2.67,15-5.67,5.33-5,9.33-3.33,19-.33,22,6-.67,20.67-8.33,21.67-17.67.67-21.33-1.67-9.33-15.67-12.33-14.67-4.33-.33-5.67-.33S150.81,285.75,150.81,285.75Z"/>
    <path class="cls-19"
          d="M509.9,381.75s7.33-13.33,12-13.33,12.67,11.33,17.33,12.67,3.33-2,8.67.67,13.33,13.33,17.33,8,7.33-11.33,12.67-8,12.67,6.67,18,1.33,39.33-8,44-2,2,28-2.67,29.33-10.67-7.33-16.67-3.33-16.67,8.67-23.33,10-24,0-26.67-2.67-11.33-11.33-17.33-6-10,6-12.67,4-13.33-9.33-14.67-12-4-3.33-8-4.67S509.9,381.75,509.9,381.75Z"/>
    <path class="cls-19"
          d="M632.81,587.17s-1.25-9,1.75-9.75,12.75-3.25,14.25-4.5,9-2.75,10.25.5,1.5,8,5,10,6,8.75,2.25,10a53.93,53.93,0,0,1-11,1c-4.75-.25-2.75-5.5-6.75-4.25s-9.5,2.75-11.25,2.5S632.81,587.17,632.81,587.17Z"/>
    <path class="cls-20"
          d="M509.9,381.75s7.33-13.33,12-13.33,12.67,11.33,17.33,12.67,3.33-2,8.67.67,13.33,13.33,17.33,8,7.33-11.33,12.67-8,12.67,6.67,18,1.33,39.33-8,44-2,2,28-2.67,29.33-10.67-7.33-16.67-3.33-16.67,8.67-23.33,10-24,0-26.67-2.67-11.33-11.33-17.33-6-10,6-12.67,4-13.33-9.33-14.67-12-4-3.33-8-4.67S509.9,381.75,509.9,381.75Z"/>
    <path class="cls-20"
          d="M632.81,587.17s-1.25-9,1.75-9.75,12.75-3.25,14.25-4.5,9-2.75,10.25.5,1.5,8,5,10,6,8.75,2.25,10a53.93,53.93,0,0,1-11,1c-4.75-.25-2.75-5.5-6.75-4.25s-9.5,2.75-11.25,2.5S632.81,587.17,632.81,587.17Z"/>
    </g>
</svg>